G04 #@! TF.GenerationSoftware,KiCad,Pcbnew,(5.1.5)-3*
G04 #@! TF.CreationDate,2020-02-03T12:38:55+01:00*
G04 #@! TF.ProjectId,Lab_1,4c61625f-312e-46b6-9963-61645f706362,rev?*
G04 #@! TF.SameCoordinates,Original*
G04 #@! TF.FileFunction,Legend,Top*
G04 #@! TF.FilePolarity,Positive*
%FSLAX46Y46*%
G04 Gerber Fmt 4.6, Leading zero omitted, Abs format (unit mm)*
G04 Created by KiCad (PCBNEW (5.1.5)-3) date 2020-02-03 12:38:55*
%MOMM*%
%LPD*%
G04 APERTURE LIST*
%ADD10C,0.120000*%
%ADD11C,0.400000*%
%ADD12C,0.150000*%
G04 APERTURE END LIST*
D10*
X461900000Y-5250000D02*
X459900000Y-5250000D01*
X459900000Y-5250000D02*
X459900000Y-7250000D01*
X461900000Y-18150000D02*
X459900000Y-18150000D01*
X459900000Y-16150000D02*
X459900000Y-18150000D01*
X471900000Y-5250000D02*
X471300000Y-5250000D01*
X471900000Y-5250000D02*
X471900000Y-7250000D01*
X471900000Y-16150000D02*
X471900000Y-18150000D01*
X471900000Y-18150000D02*
X469900000Y-18150000D01*
D11*
X471580000Y-4460000D02*
G75*
G03X471580000Y-4460000I-200000J0D01*
G01*
D10*
X479070000Y-22190000D02*
X481730000Y-22190000D01*
X479070000Y-11970000D02*
X479070000Y-22190000D01*
X481730000Y-11970000D02*
X481730000Y-22190000D01*
X479070000Y-11970000D02*
X481730000Y-11970000D01*
X479070000Y-10700000D02*
X479070000Y-9370000D01*
X479070000Y-9370000D02*
X480400000Y-9370000D01*
X482890000Y-11213748D02*
X482890000Y-11736252D01*
X484310000Y-11213748D02*
X484310000Y-11736252D01*
X468763748Y-790000D02*
X469286252Y-790000D01*
X468763748Y-2210000D02*
X469286252Y-2210000D01*
X468763748Y-110000D02*
X469286252Y-110000D01*
X468763748Y1310000D02*
X469286252Y1310000D01*
X459590000Y-1261252D02*
X459590000Y-738748D01*
X461010000Y-1261252D02*
X461010000Y-738748D01*
X463010000Y-1236252D02*
X463010000Y-713748D01*
X461590000Y-1236252D02*
X461590000Y-713748D01*
X465110000Y-1236252D02*
X465110000Y-713748D01*
X463690000Y-1236252D02*
X463690000Y-713748D01*
X467910000Y-21463748D02*
X467910000Y-21986252D01*
X466490000Y-21463748D02*
X466490000Y-21986252D01*
X477010000Y12736252D02*
X477010000Y12213748D01*
X475590000Y12736252D02*
X475590000Y12213748D01*
X469990000Y9050000D02*
X470490000Y9050000D01*
X470240000Y8800000D02*
X470240000Y9300000D01*
X472995563Y9540000D02*
X474060000Y10604437D01*
X470604437Y9540000D02*
X469540000Y10604437D01*
X470604437Y9540000D02*
X470740000Y9540000D01*
X472995563Y9540000D02*
X472860000Y9540000D01*
X474060000Y10604437D02*
X474060000Y14060000D01*
X469540000Y10604437D02*
X469540000Y14060000D01*
X469540000Y14060000D02*
X470740000Y14060000D01*
X474060000Y14060000D02*
X472860000Y14060000D01*
X467410000Y12913748D02*
X467410000Y13436252D01*
X465990000Y12913748D02*
X465990000Y13436252D01*
X451361252Y-410000D02*
X450838748Y-410000D01*
X451361252Y1010000D02*
X450838748Y1010000D01*
X448740000Y-2940000D02*
X448740000Y-4140000D01*
X448740000Y-7460000D02*
X448740000Y-6260000D01*
X452195563Y-7460000D02*
X448740000Y-7460000D01*
X452195563Y-2940000D02*
X448740000Y-2940000D01*
X453260000Y-4004437D02*
X453260000Y-4140000D01*
X453260000Y-6395563D02*
X453260000Y-6260000D01*
X453260000Y-6395563D02*
X452195563Y-7460000D01*
X453260000Y-4004437D02*
X452195563Y-2940000D01*
X454000000Y-6760000D02*
X453500000Y-6760000D01*
X453750000Y-7010000D02*
X453750000Y-6510000D01*
X479037500Y6900000D02*
X479037500Y7350000D01*
X480887500Y6900000D02*
X479037500Y6900000D01*
X483437500Y14700000D02*
X483187500Y14700000D01*
X483437500Y6900000D02*
X483187500Y6900000D01*
X480887500Y14700000D02*
X479037500Y14700000D01*
X479037500Y14700000D02*
X479037500Y14250000D01*
X478487500Y9100000D02*
X478487500Y9550000D01*
X478487500Y9100000D02*
X478937500Y9100000D01*
X473810000Y-19936252D02*
X473810000Y-19413748D01*
X472390000Y-19936252D02*
X472390000Y-19413748D01*
X475738748Y-10490000D02*
X476261252Y-10490000D01*
X475738748Y-11910000D02*
X476261252Y-11910000D01*
X450136252Y9310000D02*
X449613748Y9310000D01*
X450136252Y7890000D02*
X449613748Y7890000D01*
X449836252Y11990000D02*
X449313748Y11990000D01*
X449836252Y13410000D02*
X449313748Y13410000D01*
X463310000Y12260000D02*
X462050000Y12260000D01*
X456490000Y12260000D02*
X457750000Y12260000D01*
X463310000Y8500000D02*
X463310000Y12260000D01*
X456490000Y6250000D02*
X456490000Y12260000D01*
D12*
X469138095Y-3542380D02*
X469138095Y-4351904D01*
X469185714Y-4447142D01*
X469233333Y-4494761D01*
X469328571Y-4542380D01*
X469519047Y-4542380D01*
X469614285Y-4494761D01*
X469661904Y-4447142D01*
X469709523Y-4351904D01*
X469709523Y-3542380D01*
X470709523Y-4542380D02*
X470138095Y-4542380D01*
X470423809Y-4542380D02*
X470423809Y-3542380D01*
X470328571Y-3685238D01*
X470233333Y-3780476D01*
X470138095Y-3828095D01*
X480066666Y-7822380D02*
X480066666Y-8536666D01*
X480019047Y-8679523D01*
X479923809Y-8774761D01*
X479780952Y-8822380D01*
X479685714Y-8822380D01*
X481066666Y-8822380D02*
X480495238Y-8822380D01*
X480780952Y-8822380D02*
X480780952Y-7822380D01*
X480685714Y-7965238D01*
X480590476Y-8060476D01*
X480495238Y-8108095D01*
X485607142Y-11641666D02*
X485654761Y-11689285D01*
X485702380Y-11832142D01*
X485702380Y-11927380D01*
X485654761Y-12070238D01*
X485559523Y-12165476D01*
X485464285Y-12213095D01*
X485273809Y-12260714D01*
X485130952Y-12260714D01*
X484940476Y-12213095D01*
X484845238Y-12165476D01*
X484750000Y-12070238D01*
X484702380Y-11927380D01*
X484702380Y-11832142D01*
X484750000Y-11689285D01*
X484797619Y-11641666D01*
X485702380Y-10689285D02*
X485702380Y-11260714D01*
X485702380Y-10975000D02*
X484702380Y-10975000D01*
X484845238Y-11070238D01*
X484940476Y-11165476D01*
X484988095Y-11260714D01*
X468858333Y-207142D02*
X468810714Y-254761D01*
X468667857Y-302380D01*
X468572619Y-302380D01*
X468429761Y-254761D01*
X468334523Y-159523D01*
X468286904Y-64285D01*
X468239285Y126190D01*
X468239285Y269047D01*
X468286904Y459523D01*
X468334523Y554761D01*
X468429761Y650000D01*
X468572619Y697619D01*
X468667857Y697619D01*
X468810714Y650000D01*
X468858333Y602380D01*
X469239285Y602380D02*
X469286904Y650000D01*
X469382142Y697619D01*
X469620238Y697619D01*
X469715476Y650000D01*
X469763095Y602380D01*
X469810714Y507142D01*
X469810714Y411904D01*
X469763095Y269047D01*
X469191666Y-302380D01*
X469810714Y-302380D01*
X468858333Y1892857D02*
X468810714Y1845238D01*
X468667857Y1797619D01*
X468572619Y1797619D01*
X468429761Y1845238D01*
X468334523Y1940476D01*
X468286904Y2035714D01*
X468239285Y2226190D01*
X468239285Y2369047D01*
X468286904Y2559523D01*
X468334523Y2654761D01*
X468429761Y2750000D01*
X468572619Y2797619D01*
X468667857Y2797619D01*
X468810714Y2750000D01*
X468858333Y2702380D01*
X469191666Y2797619D02*
X469810714Y2797619D01*
X469477380Y2416666D01*
X469620238Y2416666D01*
X469715476Y2369047D01*
X469763095Y2321428D01*
X469810714Y2226190D01*
X469810714Y1988095D01*
X469763095Y1892857D01*
X469715476Y1845238D01*
X469620238Y1797619D01*
X469334523Y1797619D01*
X469239285Y1845238D01*
X469191666Y1892857D01*
X459007142Y-1166666D02*
X459054761Y-1214285D01*
X459102380Y-1357142D01*
X459102380Y-1452380D01*
X459054761Y-1595238D01*
X458959523Y-1690476D01*
X458864285Y-1738095D01*
X458673809Y-1785714D01*
X458530952Y-1785714D01*
X458340476Y-1738095D01*
X458245238Y-1690476D01*
X458150000Y-1595238D01*
X458102380Y-1452380D01*
X458102380Y-1357142D01*
X458150000Y-1214285D01*
X458197619Y-1166666D01*
X458435714Y-309523D02*
X459102380Y-309523D01*
X458054761Y-547619D02*
X458769047Y-785714D01*
X458769047Y-166666D01*
X461007142Y-1141666D02*
X461054761Y-1189285D01*
X461102380Y-1332142D01*
X461102380Y-1427380D01*
X461054761Y-1570238D01*
X460959523Y-1665476D01*
X460864285Y-1713095D01*
X460673809Y-1760714D01*
X460530952Y-1760714D01*
X460340476Y-1713095D01*
X460245238Y-1665476D01*
X460150000Y-1570238D01*
X460102380Y-1427380D01*
X460102380Y-1332142D01*
X460150000Y-1189285D01*
X460197619Y-1141666D01*
X460102380Y-236904D02*
X460102380Y-713095D01*
X460578571Y-760714D01*
X460530952Y-713095D01*
X460483333Y-617857D01*
X460483333Y-379761D01*
X460530952Y-284523D01*
X460578571Y-236904D01*
X460673809Y-189285D01*
X460911904Y-189285D01*
X461007142Y-236904D01*
X461054761Y-284523D01*
X461102380Y-379761D01*
X461102380Y-617857D01*
X461054761Y-713095D01*
X461007142Y-760714D01*
X463107142Y-1141666D02*
X463154761Y-1189285D01*
X463202380Y-1332142D01*
X463202380Y-1427380D01*
X463154761Y-1570238D01*
X463059523Y-1665476D01*
X462964285Y-1713095D01*
X462773809Y-1760714D01*
X462630952Y-1760714D01*
X462440476Y-1713095D01*
X462345238Y-1665476D01*
X462250000Y-1570238D01*
X462202380Y-1427380D01*
X462202380Y-1332142D01*
X462250000Y-1189285D01*
X462297619Y-1141666D01*
X462202380Y-284523D02*
X462202380Y-474999D01*
X462250000Y-570238D01*
X462297619Y-617857D01*
X462440476Y-713095D01*
X462630952Y-760714D01*
X463011904Y-760714D01*
X463107142Y-713095D01*
X463154761Y-665476D01*
X463202380Y-570238D01*
X463202380Y-379761D01*
X463154761Y-284523D01*
X463107142Y-236904D01*
X463011904Y-189285D01*
X462773809Y-189285D01*
X462678571Y-236904D01*
X462630952Y-284523D01*
X462583333Y-379761D01*
X462583333Y-570238D01*
X462630952Y-665476D01*
X462678571Y-713095D01*
X462773809Y-760714D01*
X469207142Y-21816665D02*
X469254761Y-21864284D01*
X469302380Y-22007141D01*
X469302380Y-22102379D01*
X469254761Y-22245237D01*
X469159523Y-22340475D01*
X469064285Y-22388094D01*
X468873809Y-22435713D01*
X468730952Y-22435713D01*
X468540476Y-22388094D01*
X468445238Y-22340475D01*
X468350000Y-22245237D01*
X468302380Y-22102379D01*
X468302380Y-22007141D01*
X468350000Y-21864284D01*
X468397619Y-21816665D01*
X468302380Y-21483332D02*
X468302380Y-20816665D01*
X469302380Y-21245237D01*
X478307142Y12308333D02*
X478354761Y12260714D01*
X478402380Y12117857D01*
X478402380Y12022619D01*
X478354761Y11879761D01*
X478259523Y11784523D01*
X478164285Y11736904D01*
X477973809Y11689285D01*
X477830952Y11689285D01*
X477640476Y11736904D01*
X477545238Y11784523D01*
X477450000Y11879761D01*
X477402380Y12022619D01*
X477402380Y12117857D01*
X477450000Y12260714D01*
X477497619Y12308333D01*
X477830952Y12879761D02*
X477783333Y12784523D01*
X477735714Y12736904D01*
X477640476Y12689285D01*
X477592857Y12689285D01*
X477497619Y12736904D01*
X477450000Y12784523D01*
X477402380Y12879761D01*
X477402380Y13070238D01*
X477450000Y13165476D01*
X477497619Y13213095D01*
X477592857Y13260714D01*
X477640476Y13260714D01*
X477735714Y13213095D01*
X477783333Y13165476D01*
X477830952Y13070238D01*
X477830952Y12879761D01*
X477878571Y12784523D01*
X477926190Y12736904D01*
X478021428Y12689285D01*
X478211904Y12689285D01*
X478307142Y12736904D01*
X478354761Y12784523D01*
X478402380Y12879761D01*
X478402380Y13070238D01*
X478354761Y13165476D01*
X478307142Y13213095D01*
X478211904Y13260714D01*
X478021428Y13260714D01*
X477926190Y13213095D01*
X477878571Y13165476D01*
X477830952Y13070238D01*
X468957142Y11633333D02*
X469004761Y11585714D01*
X469052380Y11442857D01*
X469052380Y11347619D01*
X469004761Y11204761D01*
X468909523Y11109523D01*
X468814285Y11061904D01*
X468623809Y11014285D01*
X468480952Y11014285D01*
X468290476Y11061904D01*
X468195238Y11109523D01*
X468100000Y11204761D01*
X468052380Y11347619D01*
X468052380Y11442857D01*
X468100000Y11585714D01*
X468147619Y11633333D01*
X469052380Y12109523D02*
X469052380Y12300000D01*
X469004761Y12395238D01*
X468957142Y12442857D01*
X468814285Y12538095D01*
X468623809Y12585714D01*
X468242857Y12585714D01*
X468147619Y12538095D01*
X468100000Y12490476D01*
X468052380Y12395238D01*
X468052380Y12204761D01*
X468100000Y12109523D01*
X468147619Y12061904D01*
X468242857Y12014285D01*
X468480952Y12014285D01*
X468576190Y12061904D01*
X468623809Y12109523D01*
X468671428Y12204761D01*
X468671428Y12395238D01*
X468623809Y12490476D01*
X468576190Y12538095D01*
X468480952Y12585714D01*
X465407142Y12532142D02*
X465454761Y12484523D01*
X465502380Y12341666D01*
X465502380Y12246428D01*
X465454761Y12103571D01*
X465359523Y12008333D01*
X465264285Y11960714D01*
X465073809Y11913095D01*
X464930952Y11913095D01*
X464740476Y11960714D01*
X464645238Y12008333D01*
X464550000Y12103571D01*
X464502380Y12246428D01*
X464502380Y12341666D01*
X464550000Y12484523D01*
X464597619Y12532142D01*
X465502380Y13484523D02*
X465502380Y12913095D01*
X465502380Y13198809D02*
X464502380Y13198809D01*
X464645238Y13103571D01*
X464740476Y13008333D01*
X464788095Y12913095D01*
X464502380Y14103571D02*
X464502380Y14198809D01*
X464550000Y14294047D01*
X464597619Y14341666D01*
X464692857Y14389285D01*
X464883333Y14436904D01*
X465121428Y14436904D01*
X465311904Y14389285D01*
X465407142Y14341666D01*
X465454761Y14294047D01*
X465502380Y14198809D01*
X465502380Y14103571D01*
X465454761Y14008333D01*
X465407142Y13960714D01*
X465311904Y13913095D01*
X465121428Y13865476D01*
X464883333Y13865476D01*
X464692857Y13913095D01*
X464597619Y13960714D01*
X464550000Y14008333D01*
X464502380Y14103571D01*
X450457142Y-1707142D02*
X450409523Y-1754761D01*
X450266666Y-1802380D01*
X450171428Y-1802380D01*
X450028571Y-1754761D01*
X449933333Y-1659523D01*
X449885714Y-1564285D01*
X449838095Y-1373809D01*
X449838095Y-1230952D01*
X449885714Y-1040476D01*
X449933333Y-945238D01*
X450028571Y-850000D01*
X450171428Y-802380D01*
X450266666Y-802380D01*
X450409523Y-850000D01*
X450457142Y-897619D01*
X451409523Y-1802380D02*
X450838095Y-1802380D01*
X451123809Y-1802380D02*
X451123809Y-802380D01*
X451028571Y-945238D01*
X450933333Y-1040476D01*
X450838095Y-1088095D01*
X452361904Y-1802380D02*
X451790476Y-1802380D01*
X452076190Y-1802380D02*
X452076190Y-802380D01*
X451980952Y-945238D01*
X451885714Y-1040476D01*
X451790476Y-1088095D01*
X450357142Y-8757142D02*
X450309523Y-8804761D01*
X450166666Y-8852380D01*
X450071428Y-8852380D01*
X449928571Y-8804761D01*
X449833333Y-8709523D01*
X449785714Y-8614285D01*
X449738095Y-8423809D01*
X449738095Y-8280952D01*
X449785714Y-8090476D01*
X449833333Y-7995238D01*
X449928571Y-7900000D01*
X450071428Y-7852380D01*
X450166666Y-7852380D01*
X450309523Y-7900000D01*
X450357142Y-7947619D01*
X451309523Y-8852380D02*
X450738095Y-8852380D01*
X451023809Y-8852380D02*
X451023809Y-7852380D01*
X450928571Y-7995238D01*
X450833333Y-8090476D01*
X450738095Y-8138095D01*
X451690476Y-7947619D02*
X451738095Y-7900000D01*
X451833333Y-7852380D01*
X452071428Y-7852380D01*
X452166666Y-7900000D01*
X452214285Y-7947619D01*
X452261904Y-8042857D01*
X452261904Y-8138095D01*
X452214285Y-8280952D01*
X451642857Y-8852380D01*
X452261904Y-8852380D01*
X477139880Y10466666D02*
X477854166Y10466666D01*
X477997023Y10419047D01*
X478092261Y10323809D01*
X478139880Y10180952D01*
X478139880Y10085714D01*
X477139880Y10847619D02*
X477139880Y11466666D01*
X477520833Y11133333D01*
X477520833Y11276190D01*
X477568452Y11371428D01*
X477616071Y11419047D01*
X477711309Y11466666D01*
X477949404Y11466666D01*
X478044642Y11419047D01*
X478092261Y11371428D01*
X478139880Y11276190D01*
X478139880Y10990476D01*
X478092261Y10895238D01*
X478044642Y10847619D01*
X471902380Y-19841666D02*
X471426190Y-20175000D01*
X471902380Y-20413095D02*
X470902380Y-20413095D01*
X470902380Y-20032142D01*
X470950000Y-19936904D01*
X470997619Y-19889285D01*
X471092857Y-19841666D01*
X471235714Y-19841666D01*
X471330952Y-19889285D01*
X471378571Y-19936904D01*
X471426190Y-20032142D01*
X471426190Y-20413095D01*
X471902380Y-18889285D02*
X471902380Y-19460714D01*
X471902380Y-19175000D02*
X470902380Y-19175000D01*
X471045238Y-19270238D01*
X471140476Y-19365476D01*
X471188095Y-19460714D01*
X475833333Y-10002380D02*
X475500000Y-9526190D01*
X475261904Y-10002380D02*
X475261904Y-9002380D01*
X475642857Y-9002380D01*
X475738095Y-9050000D01*
X475785714Y-9097619D01*
X475833333Y-9192857D01*
X475833333Y-9335714D01*
X475785714Y-9430952D01*
X475738095Y-9478571D01*
X475642857Y-9526190D01*
X475261904Y-9526190D01*
X476214285Y-9097619D02*
X476261904Y-9050000D01*
X476357142Y-9002380D01*
X476595238Y-9002380D01*
X476690476Y-9050000D01*
X476738095Y-9097619D01*
X476785714Y-9192857D01*
X476785714Y-9288095D01*
X476738095Y-9430952D01*
X476166666Y-10002380D01*
X476785714Y-10002380D01*
X449708333Y6497619D02*
X449375000Y6973809D01*
X449136904Y6497619D02*
X449136904Y7497619D01*
X449517857Y7497619D01*
X449613095Y7450000D01*
X449660714Y7402380D01*
X449708333Y7307142D01*
X449708333Y7164285D01*
X449660714Y7069047D01*
X449613095Y7021428D01*
X449517857Y6973809D01*
X449136904Y6973809D01*
X450041666Y7497619D02*
X450660714Y7497619D01*
X450327380Y7116666D01*
X450470238Y7116666D01*
X450565476Y7069047D01*
X450613095Y7021428D01*
X450660714Y6926190D01*
X450660714Y6688095D01*
X450613095Y6592857D01*
X450565476Y6545238D01*
X450470238Y6497619D01*
X450184523Y6497619D01*
X450089285Y6545238D01*
X450041666Y6592857D01*
X449408333Y10597619D02*
X449075000Y11073809D01*
X448836904Y10597619D02*
X448836904Y11597619D01*
X449217857Y11597619D01*
X449313095Y11550000D01*
X449360714Y11502380D01*
X449408333Y11407142D01*
X449408333Y11264285D01*
X449360714Y11169047D01*
X449313095Y11121428D01*
X449217857Y11073809D01*
X448836904Y11073809D01*
X450265476Y11264285D02*
X450265476Y10597619D01*
X450027380Y11645238D02*
X449789285Y10930952D01*
X450408333Y10930952D01*
X454852380Y9588095D02*
X455661904Y9588095D01*
X455757142Y9635714D01*
X455804761Y9683333D01*
X455852380Y9778571D01*
X455852380Y9969047D01*
X455804761Y10064285D01*
X455757142Y10111904D01*
X455661904Y10159523D01*
X454852380Y10159523D01*
X454947619Y10588095D02*
X454900000Y10635714D01*
X454852380Y10730952D01*
X454852380Y10969047D01*
X454900000Y11064285D01*
X454947619Y11111904D01*
X455042857Y11159523D01*
X455138095Y11159523D01*
X455280952Y11111904D01*
X455852380Y10540476D01*
X455852380Y11159523D01*
M02*
