G04 #@! TF.GenerationSoftware,KiCad,Pcbnew,(5.1.5)-3*
G04 #@! TF.CreationDate,2020-02-03T12:38:55+01:00*
G04 #@! TF.ProjectId,Lab_1,4c61625f-312e-46b6-9963-61645f706362,rev?*
G04 #@! TF.SameCoordinates,Original*
G04 #@! TF.FileFunction,Soldermask,Top*
G04 #@! TF.FilePolarity,Negative*
%FSLAX46Y46*%
G04 Gerber Fmt 4.6, Leading zero omitted, Abs format (unit mm)*
G04 Created by KiCad (PCBNEW (5.1.5)-3) date 2020-02-03 12:38:55*
%MOMM*%
%LPD*%
G04 APERTURE LIST*
%ADD10C,0.100000*%
G04 APERTURE END LIST*
D10*
G36*
X467788674Y-22128465D02*
G01*
X467826367Y-22139899D01*
X467861103Y-22158466D01*
X467891548Y-22183452D01*
X467916534Y-22213897D01*
X467935101Y-22248633D01*
X467946535Y-22286326D01*
X467951000Y-22331661D01*
X467951000Y-23168339D01*
X467946535Y-23213674D01*
X467935101Y-23251367D01*
X467916534Y-23286103D01*
X467891548Y-23316548D01*
X467861103Y-23341534D01*
X467826367Y-23360101D01*
X467788674Y-23371535D01*
X467743339Y-23376000D01*
X466656661Y-23376000D01*
X466611326Y-23371535D01*
X466573633Y-23360101D01*
X466538897Y-23341534D01*
X466508452Y-23316548D01*
X466483466Y-23286103D01*
X466464899Y-23251367D01*
X466453465Y-23213674D01*
X466449000Y-23168339D01*
X466449000Y-22331661D01*
X466453465Y-22286326D01*
X466464899Y-22248633D01*
X466483466Y-22213897D01*
X466508452Y-22183452D01*
X466538897Y-22158466D01*
X466573633Y-22139899D01*
X466611326Y-22128465D01*
X466656661Y-22124000D01*
X467743339Y-22124000D01*
X467788674Y-22128465D01*
G37*
G36*
X480513512Y-19963927D02*
G01*
X480662812Y-19993624D01*
X480826784Y-20061544D01*
X480974354Y-20160147D01*
X481099853Y-20285646D01*
X481198456Y-20433216D01*
X481266376Y-20597188D01*
X481301000Y-20771259D01*
X481301000Y-20948741D01*
X481266376Y-21122812D01*
X481198456Y-21286784D01*
X481099853Y-21434354D01*
X480974354Y-21559853D01*
X480826784Y-21658456D01*
X480662812Y-21726376D01*
X480513512Y-21756073D01*
X480488742Y-21761000D01*
X480311258Y-21761000D01*
X480286488Y-21756073D01*
X480137188Y-21726376D01*
X479973216Y-21658456D01*
X479825646Y-21559853D01*
X479700147Y-21434354D01*
X479601544Y-21286784D01*
X479533624Y-21122812D01*
X479499000Y-20948741D01*
X479499000Y-20771259D01*
X479533624Y-20597188D01*
X479601544Y-20433216D01*
X479700147Y-20285646D01*
X479825646Y-20160147D01*
X479973216Y-20061544D01*
X480137188Y-19993624D01*
X480286488Y-19963927D01*
X480311258Y-19959000D01*
X480488742Y-19959000D01*
X480513512Y-19963927D01*
G37*
G36*
X473688674Y-20078465D02*
G01*
X473726367Y-20089899D01*
X473761103Y-20108466D01*
X473791548Y-20133452D01*
X473816534Y-20163897D01*
X473835101Y-20198633D01*
X473846535Y-20236326D01*
X473851000Y-20281661D01*
X473851000Y-21118339D01*
X473846535Y-21163674D01*
X473835101Y-21201367D01*
X473816534Y-21236103D01*
X473791548Y-21266548D01*
X473761103Y-21291534D01*
X473726367Y-21310101D01*
X473688674Y-21321535D01*
X473643339Y-21326000D01*
X472556661Y-21326000D01*
X472511326Y-21321535D01*
X472473633Y-21310101D01*
X472438897Y-21291534D01*
X472408452Y-21266548D01*
X472383466Y-21236103D01*
X472364899Y-21201367D01*
X472353465Y-21163674D01*
X472349000Y-21118339D01*
X472349000Y-20281661D01*
X472353465Y-20236326D01*
X472364899Y-20198633D01*
X472383466Y-20163897D01*
X472408452Y-20133452D01*
X472438897Y-20108466D01*
X472473633Y-20089899D01*
X472511326Y-20078465D01*
X472556661Y-20074000D01*
X473643339Y-20074000D01*
X473688674Y-20078465D01*
G37*
G36*
X467788674Y-20078465D02*
G01*
X467826367Y-20089899D01*
X467861103Y-20108466D01*
X467891548Y-20133452D01*
X467916534Y-20163897D01*
X467935101Y-20198633D01*
X467946535Y-20236326D01*
X467951000Y-20281661D01*
X467951000Y-21118339D01*
X467946535Y-21163674D01*
X467935101Y-21201367D01*
X467916534Y-21236103D01*
X467891548Y-21266548D01*
X467861103Y-21291534D01*
X467826367Y-21310101D01*
X467788674Y-21321535D01*
X467743339Y-21326000D01*
X466656661Y-21326000D01*
X466611326Y-21321535D01*
X466573633Y-21310101D01*
X466538897Y-21291534D01*
X466508452Y-21266548D01*
X466483466Y-21236103D01*
X466464899Y-21201367D01*
X466453465Y-21163674D01*
X466449000Y-21118339D01*
X466449000Y-20281661D01*
X466453465Y-20236326D01*
X466464899Y-20198633D01*
X466483466Y-20163897D01*
X466508452Y-20133452D01*
X466538897Y-20108466D01*
X466573633Y-20089899D01*
X466611326Y-20078465D01*
X466656661Y-20074000D01*
X467743339Y-20074000D01*
X467788674Y-20078465D01*
G37*
G36*
X470602044Y-19395333D02*
G01*
X461200044Y-19395333D01*
X461200044Y-18493333D01*
X470602044Y-18493333D01*
X470602044Y-19395333D01*
G37*
G36*
X473688674Y-18028465D02*
G01*
X473726367Y-18039899D01*
X473761103Y-18058466D01*
X473791548Y-18083452D01*
X473816534Y-18113897D01*
X473835101Y-18148633D01*
X473846535Y-18186326D01*
X473851000Y-18231661D01*
X473851000Y-19068339D01*
X473846535Y-19113674D01*
X473835101Y-19151367D01*
X473816534Y-19186103D01*
X473791548Y-19216548D01*
X473761103Y-19241534D01*
X473726367Y-19260101D01*
X473688674Y-19271535D01*
X473643339Y-19276000D01*
X472556661Y-19276000D01*
X472511326Y-19271535D01*
X472473633Y-19260101D01*
X472438897Y-19241534D01*
X472408452Y-19216548D01*
X472383466Y-19186103D01*
X472364899Y-19151367D01*
X472353465Y-19113674D01*
X472349000Y-19068339D01*
X472349000Y-18231661D01*
X472353465Y-18186326D01*
X472364899Y-18148633D01*
X472383466Y-18113897D01*
X472408452Y-18083452D01*
X472438897Y-18058466D01*
X472473633Y-18039899D01*
X472511326Y-18028465D01*
X472556661Y-18024000D01*
X473643339Y-18024000D01*
X473688674Y-18028465D01*
G37*
G36*
X480513512Y-17423927D02*
G01*
X480662812Y-17453624D01*
X480826784Y-17521544D01*
X480974354Y-17620147D01*
X481099853Y-17745646D01*
X481198456Y-17893216D01*
X481266376Y-18057188D01*
X481301000Y-18231259D01*
X481301000Y-18408741D01*
X481266376Y-18582812D01*
X481198456Y-18746784D01*
X481099853Y-18894354D01*
X480974354Y-19019853D01*
X480826784Y-19118456D01*
X480662812Y-19186376D01*
X480513512Y-19216073D01*
X480488742Y-19221000D01*
X480311258Y-19221000D01*
X480286488Y-19216073D01*
X480137188Y-19186376D01*
X479973216Y-19118456D01*
X479825646Y-19019853D01*
X479700147Y-18894354D01*
X479601544Y-18746784D01*
X479533624Y-18582812D01*
X479499000Y-18408741D01*
X479499000Y-18231259D01*
X479533624Y-18057188D01*
X479601544Y-17893216D01*
X479700147Y-17745646D01*
X479825646Y-17620147D01*
X479973216Y-17521544D01*
X480137188Y-17453624D01*
X480286488Y-17423927D01*
X480311258Y-17419000D01*
X480488742Y-17419000D01*
X480513512Y-17423927D01*
G37*
G36*
X470601000Y-17801000D02*
G01*
X461199000Y-17801000D01*
X461199000Y-16899000D01*
X470601000Y-16899000D01*
X470601000Y-17801000D01*
G37*
G36*
X480513512Y-14883927D02*
G01*
X480662812Y-14913624D01*
X480826784Y-14981544D01*
X480974354Y-15080147D01*
X481099853Y-15205646D01*
X481198456Y-15353216D01*
X481266376Y-15517188D01*
X481301000Y-15691259D01*
X481301000Y-15868741D01*
X481266376Y-16042812D01*
X481198456Y-16206784D01*
X481099853Y-16354354D01*
X480974354Y-16479853D01*
X480826784Y-16578456D01*
X480662812Y-16646376D01*
X480513512Y-16676073D01*
X480488742Y-16681000D01*
X480311258Y-16681000D01*
X480286488Y-16676073D01*
X480137188Y-16646376D01*
X479973216Y-16578456D01*
X479825646Y-16479853D01*
X479700147Y-16354354D01*
X479601544Y-16206784D01*
X479533624Y-16042812D01*
X479499000Y-15868741D01*
X479499000Y-15691259D01*
X479533624Y-15517188D01*
X479601544Y-15353216D01*
X479700147Y-15205646D01*
X479825646Y-15080147D01*
X479973216Y-14981544D01*
X480137188Y-14913624D01*
X480286488Y-14883927D01*
X480311258Y-14879000D01*
X480488742Y-14879000D01*
X480513512Y-14883927D01*
G37*
G36*
X459561000Y-16401000D02*
G01*
X458659000Y-16401000D01*
X458659000Y-6999000D01*
X459561000Y-6999000D01*
X459561000Y-16401000D01*
G37*
G36*
X461151000Y-16401000D02*
G01*
X460249000Y-16401000D01*
X460249000Y-6999000D01*
X461151000Y-6999000D01*
X461151000Y-16401000D01*
G37*
G36*
X473151000Y-16401000D02*
G01*
X472249000Y-16401000D01*
X472249000Y-6999000D01*
X473151000Y-6999000D01*
X473151000Y-16401000D01*
G37*
G36*
X471551000Y-16401000D02*
G01*
X470649000Y-16401000D01*
X470649000Y-6999000D01*
X471551000Y-6999000D01*
X471551000Y-16401000D01*
G37*
G36*
X466751000Y-15051000D02*
G01*
X465049000Y-15051000D01*
X465049000Y-13349000D01*
X466751000Y-13349000D01*
X466751000Y-15051000D01*
G37*
G36*
X469251000Y-15051000D02*
G01*
X467549000Y-15051000D01*
X467549000Y-13349000D01*
X469251000Y-13349000D01*
X469251000Y-15051000D01*
G37*
G36*
X464251000Y-15051000D02*
G01*
X462549000Y-15051000D01*
X462549000Y-13349000D01*
X464251000Y-13349000D01*
X464251000Y-15051000D01*
G37*
G36*
X480513512Y-12343927D02*
G01*
X480662812Y-12373624D01*
X480826784Y-12441544D01*
X480974354Y-12540147D01*
X481099853Y-12665646D01*
X481198456Y-12813216D01*
X481266376Y-12977188D01*
X481301000Y-13151259D01*
X481301000Y-13328741D01*
X481266376Y-13502812D01*
X481198456Y-13666784D01*
X481099853Y-13814354D01*
X480974354Y-13939853D01*
X480826784Y-14038456D01*
X480662812Y-14106376D01*
X480513512Y-14136073D01*
X480488742Y-14141000D01*
X480311258Y-14141000D01*
X480286488Y-14136073D01*
X480137188Y-14106376D01*
X479973216Y-14038456D01*
X479825646Y-13939853D01*
X479700147Y-13814354D01*
X479601544Y-13666784D01*
X479533624Y-13502812D01*
X479499000Y-13328741D01*
X479499000Y-13151259D01*
X479533624Y-12977188D01*
X479601544Y-12813216D01*
X479700147Y-12665646D01*
X479825646Y-12540147D01*
X479973216Y-12441544D01*
X480137188Y-12373624D01*
X480286488Y-12343927D01*
X480311258Y-12339000D01*
X480488742Y-12339000D01*
X480513512Y-12343927D01*
G37*
G36*
X484188674Y-11878465D02*
G01*
X484226367Y-11889899D01*
X484261103Y-11908466D01*
X484291548Y-11933452D01*
X484316534Y-11963897D01*
X484335101Y-11998633D01*
X484346535Y-12036326D01*
X484351000Y-12081661D01*
X484351000Y-12918339D01*
X484346535Y-12963674D01*
X484335101Y-13001367D01*
X484316534Y-13036103D01*
X484291548Y-13066548D01*
X484261103Y-13091534D01*
X484226367Y-13110101D01*
X484188674Y-13121535D01*
X484143339Y-13126000D01*
X483056661Y-13126000D01*
X483011326Y-13121535D01*
X482973633Y-13110101D01*
X482938897Y-13091534D01*
X482908452Y-13066548D01*
X482883466Y-13036103D01*
X482864899Y-13001367D01*
X482853465Y-12963674D01*
X482849000Y-12918339D01*
X482849000Y-12081661D01*
X482853465Y-12036326D01*
X482864899Y-11998633D01*
X482883466Y-11963897D01*
X482908452Y-11933452D01*
X482938897Y-11908466D01*
X482973633Y-11889899D01*
X483011326Y-11878465D01*
X483056661Y-11874000D01*
X484143339Y-11874000D01*
X484188674Y-11878465D01*
G37*
G36*
X469251000Y-12551000D02*
G01*
X467549000Y-12551000D01*
X467549000Y-10849000D01*
X469251000Y-10849000D01*
X469251000Y-12551000D01*
G37*
G36*
X466751000Y-12551000D02*
G01*
X465049000Y-12551000D01*
X465049000Y-10849000D01*
X466751000Y-10849000D01*
X466751000Y-12551000D01*
G37*
G36*
X464251000Y-12551000D02*
G01*
X462549000Y-12551000D01*
X462549000Y-10849000D01*
X464251000Y-10849000D01*
X464251000Y-12551000D01*
G37*
G36*
X475438674Y-10453465D02*
G01*
X475476367Y-10464899D01*
X475511103Y-10483466D01*
X475541548Y-10508452D01*
X475566534Y-10538897D01*
X475585101Y-10573633D01*
X475596535Y-10611326D01*
X475601000Y-10656661D01*
X475601000Y-11743339D01*
X475596535Y-11788674D01*
X475585101Y-11826367D01*
X475566534Y-11861103D01*
X475541548Y-11891548D01*
X475511103Y-11916534D01*
X475476367Y-11935101D01*
X475438674Y-11946535D01*
X475393339Y-11951000D01*
X474556661Y-11951000D01*
X474511326Y-11946535D01*
X474473633Y-11935101D01*
X474438897Y-11916534D01*
X474408452Y-11891548D01*
X474383466Y-11861103D01*
X474364899Y-11826367D01*
X474353465Y-11788674D01*
X474349000Y-11743339D01*
X474349000Y-10656661D01*
X474353465Y-10611326D01*
X474364899Y-10573633D01*
X474383466Y-10538897D01*
X474408452Y-10508452D01*
X474438897Y-10483466D01*
X474473633Y-10464899D01*
X474511326Y-10453465D01*
X474556661Y-10449000D01*
X475393339Y-10449000D01*
X475438674Y-10453465D01*
G37*
G36*
X477488674Y-10453465D02*
G01*
X477526367Y-10464899D01*
X477561103Y-10483466D01*
X477591548Y-10508452D01*
X477616534Y-10538897D01*
X477635101Y-10573633D01*
X477646535Y-10611326D01*
X477651000Y-10656661D01*
X477651000Y-11743339D01*
X477646535Y-11788674D01*
X477635101Y-11826367D01*
X477616534Y-11861103D01*
X477591548Y-11891548D01*
X477561103Y-11916534D01*
X477526367Y-11935101D01*
X477488674Y-11946535D01*
X477443339Y-11951000D01*
X476606661Y-11951000D01*
X476561326Y-11946535D01*
X476523633Y-11935101D01*
X476488897Y-11916534D01*
X476458452Y-11891548D01*
X476433466Y-11861103D01*
X476414899Y-11826367D01*
X476403465Y-11788674D01*
X476399000Y-11743339D01*
X476399000Y-10656661D01*
X476403465Y-10611326D01*
X476414899Y-10573633D01*
X476433466Y-10538897D01*
X476458452Y-10508452D01*
X476488897Y-10483466D01*
X476523633Y-10464899D01*
X476561326Y-10453465D01*
X476606661Y-10449000D01*
X477443339Y-10449000D01*
X477488674Y-10453465D01*
G37*
G36*
X481301000Y-11601000D02*
G01*
X479499000Y-11601000D01*
X479499000Y-9799000D01*
X481301000Y-9799000D01*
X481301000Y-11601000D01*
G37*
G36*
X484188674Y-9828465D02*
G01*
X484226367Y-9839899D01*
X484261103Y-9858466D01*
X484291548Y-9883452D01*
X484316534Y-9913897D01*
X484335101Y-9948633D01*
X484346535Y-9986326D01*
X484351000Y-10031661D01*
X484351000Y-10868339D01*
X484346535Y-10913674D01*
X484335101Y-10951367D01*
X484316534Y-10986103D01*
X484291548Y-11016548D01*
X484261103Y-11041534D01*
X484226367Y-11060101D01*
X484188674Y-11071535D01*
X484143339Y-11076000D01*
X483056661Y-11076000D01*
X483011326Y-11071535D01*
X482973633Y-11060101D01*
X482938897Y-11041534D01*
X482908452Y-11016548D01*
X482883466Y-10986103D01*
X482864899Y-10951367D01*
X482853465Y-10913674D01*
X482849000Y-10868339D01*
X482849000Y-10031661D01*
X482853465Y-9986326D01*
X482864899Y-9948633D01*
X482883466Y-9913897D01*
X482908452Y-9883452D01*
X482938897Y-9858466D01*
X482973633Y-9839899D01*
X483011326Y-9828465D01*
X483056661Y-9824000D01*
X484143339Y-9824000D01*
X484188674Y-9828465D01*
G37*
G36*
X464251000Y-10051000D02*
G01*
X462549000Y-10051000D01*
X462549000Y-8349000D01*
X464251000Y-8349000D01*
X464251000Y-10051000D01*
G37*
G36*
X466751000Y-10051000D02*
G01*
X465049000Y-10051000D01*
X465049000Y-8349000D01*
X466751000Y-8349000D01*
X466751000Y-10051000D01*
G37*
G36*
X469251000Y-10051000D02*
G01*
X467549000Y-10051000D01*
X467549000Y-8349000D01*
X469251000Y-8349000D01*
X469251000Y-10051000D01*
G37*
G36*
X470601000Y-6501000D02*
G01*
X461199000Y-6501000D01*
X461199000Y-5599000D01*
X470601000Y-5599000D01*
X470601000Y-6501000D01*
G37*
G36*
X454005997Y-4353051D02*
G01*
X454039652Y-4363261D01*
X454070665Y-4379838D01*
X454097851Y-4402149D01*
X454120162Y-4429335D01*
X454136739Y-4460348D01*
X454146949Y-4494003D01*
X454151000Y-4535138D01*
X454151000Y-5864862D01*
X454146949Y-5905997D01*
X454136739Y-5939652D01*
X454120162Y-5970665D01*
X454097851Y-5997851D01*
X454070665Y-6020162D01*
X454039652Y-6036739D01*
X454005997Y-6046949D01*
X453964862Y-6051000D01*
X451635138Y-6051000D01*
X451594003Y-6046949D01*
X451560348Y-6036739D01*
X451529335Y-6020162D01*
X451502149Y-5997851D01*
X451479838Y-5970665D01*
X451463261Y-5939652D01*
X451453051Y-5905997D01*
X451449000Y-5864862D01*
X451449000Y-4535138D01*
X451453051Y-4494003D01*
X451463261Y-4460348D01*
X451479838Y-4429335D01*
X451502149Y-4402149D01*
X451529335Y-4379838D01*
X451560348Y-4363261D01*
X451594003Y-4353051D01*
X451635138Y-4349000D01*
X453964862Y-4349000D01*
X454005997Y-4353051D01*
G37*
G36*
X450405997Y-4353051D02*
G01*
X450439652Y-4363261D01*
X450470665Y-4379838D01*
X450497851Y-4402149D01*
X450520162Y-4429335D01*
X450536739Y-4460348D01*
X450546949Y-4494003D01*
X450551000Y-4535138D01*
X450551000Y-5864862D01*
X450546949Y-5905997D01*
X450536739Y-5939652D01*
X450520162Y-5970665D01*
X450497851Y-5997851D01*
X450470665Y-6020162D01*
X450439652Y-6036739D01*
X450405997Y-6046949D01*
X450364862Y-6051000D01*
X448035138Y-6051000D01*
X447994003Y-6046949D01*
X447960348Y-6036739D01*
X447929335Y-6020162D01*
X447902149Y-5997851D01*
X447879838Y-5970665D01*
X447863261Y-5939652D01*
X447853051Y-5905997D01*
X447849000Y-5864862D01*
X447849000Y-4535138D01*
X447853051Y-4494003D01*
X447863261Y-4460348D01*
X447879838Y-4429335D01*
X447902149Y-4402149D01*
X447929335Y-4379838D01*
X447960348Y-4363261D01*
X447994003Y-4353051D01*
X448035138Y-4349000D01*
X450364862Y-4349000D01*
X450405997Y-4353051D01*
G37*
G36*
X465078164Y-3799485D02*
G01*
X465101613Y-3806598D01*
X465125999Y-3809000D01*
X465874001Y-3809000D01*
X465898387Y-3806598D01*
X465921836Y-3799485D01*
X465922743Y-3799000D01*
X470601000Y-3799000D01*
X470601000Y-4701000D01*
X465925999Y-4701000D01*
X465901613Y-4703402D01*
X465878164Y-4710515D01*
X465877257Y-4711000D01*
X465122743Y-4711000D01*
X465121836Y-4710515D01*
X465098387Y-4703402D01*
X465074001Y-4701000D01*
X461199000Y-4701000D01*
X461199000Y-3799000D01*
X465077257Y-3799000D01*
X465078164Y-3799485D01*
G37*
G36*
X460888674Y-1403465D02*
G01*
X460926367Y-1414899D01*
X460961103Y-1433466D01*
X460991548Y-1458452D01*
X461016534Y-1488897D01*
X461035101Y-1523633D01*
X461046535Y-1561326D01*
X461051000Y-1606661D01*
X461051000Y-2443339D01*
X461046535Y-2488674D01*
X461035101Y-2526367D01*
X461016534Y-2561103D01*
X460991548Y-2591548D01*
X460961103Y-2616534D01*
X460926367Y-2635101D01*
X460888674Y-2646535D01*
X460843339Y-2651000D01*
X459756661Y-2651000D01*
X459711326Y-2646535D01*
X459673633Y-2635101D01*
X459638897Y-2616534D01*
X459608452Y-2591548D01*
X459583466Y-2561103D01*
X459564899Y-2526367D01*
X459553465Y-2488674D01*
X459549000Y-2443339D01*
X459549000Y-1606661D01*
X459553465Y-1561326D01*
X459564899Y-1523633D01*
X459583466Y-1488897D01*
X459608452Y-1458452D01*
X459638897Y-1433466D01*
X459673633Y-1414899D01*
X459711326Y-1403465D01*
X459756661Y-1399000D01*
X460843339Y-1399000D01*
X460888674Y-1403465D01*
G37*
G36*
X464988674Y-1378465D02*
G01*
X465026367Y-1389899D01*
X465061103Y-1408466D01*
X465091548Y-1433452D01*
X465116534Y-1463897D01*
X465135101Y-1498633D01*
X465146535Y-1536326D01*
X465151000Y-1581661D01*
X465151000Y-2418339D01*
X465146535Y-2463674D01*
X465135101Y-2501367D01*
X465116534Y-2536103D01*
X465091548Y-2566548D01*
X465061103Y-2591534D01*
X465026367Y-2610101D01*
X464988674Y-2621535D01*
X464943339Y-2626000D01*
X463856661Y-2626000D01*
X463811326Y-2621535D01*
X463773633Y-2610101D01*
X463738897Y-2591534D01*
X463708452Y-2566548D01*
X463683466Y-2536103D01*
X463664899Y-2501367D01*
X463653465Y-2463674D01*
X463649000Y-2418339D01*
X463649000Y-1581661D01*
X463653465Y-1536326D01*
X463664899Y-1498633D01*
X463683466Y-1463897D01*
X463708452Y-1433452D01*
X463738897Y-1408466D01*
X463773633Y-1389899D01*
X463811326Y-1378465D01*
X463856661Y-1374000D01*
X464943339Y-1374000D01*
X464988674Y-1378465D01*
G37*
G36*
X462888674Y-1378465D02*
G01*
X462926367Y-1389899D01*
X462961103Y-1408466D01*
X462991548Y-1433452D01*
X463016534Y-1463897D01*
X463035101Y-1498633D01*
X463046535Y-1536326D01*
X463051000Y-1581661D01*
X463051000Y-2418339D01*
X463046535Y-2463674D01*
X463035101Y-2501367D01*
X463016534Y-2536103D01*
X462991548Y-2566548D01*
X462961103Y-2591534D01*
X462926367Y-2610101D01*
X462888674Y-2621535D01*
X462843339Y-2626000D01*
X461756661Y-2626000D01*
X461711326Y-2621535D01*
X461673633Y-2610101D01*
X461638897Y-2591534D01*
X461608452Y-2566548D01*
X461583466Y-2536103D01*
X461564899Y-2501367D01*
X461553465Y-2463674D01*
X461549000Y-2418339D01*
X461549000Y-1581661D01*
X461553465Y-1536326D01*
X461564899Y-1498633D01*
X461583466Y-1463897D01*
X461608452Y-1433452D01*
X461638897Y-1408466D01*
X461673633Y-1389899D01*
X461711326Y-1378465D01*
X461756661Y-1374000D01*
X462843339Y-1374000D01*
X462888674Y-1378465D01*
G37*
G36*
X468463674Y-753465D02*
G01*
X468501367Y-764899D01*
X468536103Y-783466D01*
X468566548Y-808452D01*
X468591534Y-838897D01*
X468610101Y-873633D01*
X468621535Y-911326D01*
X468626000Y-956661D01*
X468626000Y-2043339D01*
X468621535Y-2088674D01*
X468610101Y-2126367D01*
X468591534Y-2161103D01*
X468566548Y-2191548D01*
X468536103Y-2216534D01*
X468501367Y-2235101D01*
X468463674Y-2246535D01*
X468418339Y-2251000D01*
X467581661Y-2251000D01*
X467536326Y-2246535D01*
X467498633Y-2235101D01*
X467463897Y-2216534D01*
X467433452Y-2191548D01*
X467408466Y-2161103D01*
X467389899Y-2126367D01*
X467378465Y-2088674D01*
X467374000Y-2043339D01*
X467374000Y-956661D01*
X467378465Y-911326D01*
X467389899Y-873633D01*
X467408466Y-838897D01*
X467433452Y-808452D01*
X467463897Y-783466D01*
X467498633Y-764899D01*
X467536326Y-753465D01*
X467581661Y-749000D01*
X468418339Y-749000D01*
X468463674Y-753465D01*
G37*
G36*
X470513674Y-753465D02*
G01*
X470551367Y-764899D01*
X470586103Y-783466D01*
X470616548Y-808452D01*
X470641534Y-838897D01*
X470660101Y-873633D01*
X470671535Y-911326D01*
X470676000Y-956661D01*
X470676000Y-2043339D01*
X470671535Y-2088674D01*
X470660101Y-2126367D01*
X470641534Y-2161103D01*
X470616548Y-2191548D01*
X470586103Y-2216534D01*
X470551367Y-2235101D01*
X470513674Y-2246535D01*
X470468339Y-2251000D01*
X469631661Y-2251000D01*
X469586326Y-2246535D01*
X469548633Y-2235101D01*
X469513897Y-2216534D01*
X469483452Y-2191548D01*
X469458466Y-2161103D01*
X469439899Y-2126367D01*
X469428465Y-2088674D01*
X469424000Y-2043339D01*
X469424000Y-956661D01*
X469428465Y-911326D01*
X469439899Y-873633D01*
X469458466Y-838897D01*
X469483452Y-808452D01*
X469513897Y-783466D01*
X469548633Y-764899D01*
X469586326Y-753465D01*
X469631661Y-749000D01*
X470468339Y-749000D01*
X470513674Y-753465D01*
G37*
G36*
X460888674Y646535D02*
G01*
X460926367Y635101D01*
X460961103Y616534D01*
X460991548Y591548D01*
X461016534Y561103D01*
X461035101Y526367D01*
X461046535Y488674D01*
X461051000Y443339D01*
X461051000Y-393339D01*
X461046535Y-438674D01*
X461035101Y-476367D01*
X461016534Y-511103D01*
X460991548Y-541548D01*
X460961103Y-566534D01*
X460926367Y-585101D01*
X460888674Y-596535D01*
X460843339Y-601000D01*
X459756661Y-601000D01*
X459711326Y-596535D01*
X459673633Y-585101D01*
X459638897Y-566534D01*
X459608452Y-541548D01*
X459583466Y-511103D01*
X459564899Y-476367D01*
X459553465Y-438674D01*
X459549000Y-393339D01*
X459549000Y443339D01*
X459553465Y488674D01*
X459564899Y526367D01*
X459583466Y561103D01*
X459608452Y591548D01*
X459638897Y616534D01*
X459673633Y635101D01*
X459711326Y646535D01*
X459756661Y651000D01*
X460843339Y651000D01*
X460888674Y646535D01*
G37*
G36*
X462888674Y671535D02*
G01*
X462926367Y660101D01*
X462961103Y641534D01*
X462991548Y616548D01*
X463016534Y586103D01*
X463035101Y551367D01*
X463046535Y513674D01*
X463051000Y468339D01*
X463051000Y-368339D01*
X463046535Y-413674D01*
X463035101Y-451367D01*
X463016534Y-486103D01*
X462991548Y-516548D01*
X462961103Y-541534D01*
X462926367Y-560101D01*
X462888674Y-571535D01*
X462843339Y-576000D01*
X461756661Y-576000D01*
X461711326Y-571535D01*
X461673633Y-560101D01*
X461638897Y-541534D01*
X461608452Y-516548D01*
X461583466Y-486103D01*
X461564899Y-451367D01*
X461553465Y-413674D01*
X461549000Y-368339D01*
X461549000Y468339D01*
X461553465Y513674D01*
X461564899Y551367D01*
X461583466Y586103D01*
X461608452Y616548D01*
X461638897Y641534D01*
X461673633Y660101D01*
X461711326Y671535D01*
X461756661Y676000D01*
X462843339Y676000D01*
X462888674Y671535D01*
G37*
G36*
X464988674Y671535D02*
G01*
X465026367Y660101D01*
X465061103Y641534D01*
X465091548Y616548D01*
X465116534Y586103D01*
X465135101Y551367D01*
X465146535Y513674D01*
X465151000Y468339D01*
X465151000Y-368339D01*
X465146535Y-413674D01*
X465135101Y-451367D01*
X465116534Y-486103D01*
X465091548Y-516548D01*
X465061103Y-541534D01*
X465026367Y-560101D01*
X464988674Y-571535D01*
X464943339Y-576000D01*
X463856661Y-576000D01*
X463811326Y-571535D01*
X463773633Y-560101D01*
X463738897Y-541534D01*
X463708452Y-516548D01*
X463683466Y-486103D01*
X463664899Y-451367D01*
X463653465Y-413674D01*
X463649000Y-368339D01*
X463649000Y468339D01*
X463653465Y513674D01*
X463664899Y551367D01*
X463683466Y586103D01*
X463708452Y616548D01*
X463738897Y641534D01*
X463773633Y660101D01*
X463811326Y671535D01*
X463856661Y676000D01*
X464943339Y676000D01*
X464988674Y671535D01*
G37*
G36*
X450538674Y1046535D02*
G01*
X450576367Y1035101D01*
X450611103Y1016534D01*
X450641548Y991548D01*
X450666534Y961103D01*
X450685101Y926367D01*
X450696535Y888674D01*
X450701000Y843339D01*
X450701000Y-243339D01*
X450696535Y-288674D01*
X450685101Y-326367D01*
X450666534Y-361103D01*
X450641548Y-391548D01*
X450611103Y-416534D01*
X450576367Y-435101D01*
X450538674Y-446535D01*
X450493339Y-451000D01*
X449656661Y-451000D01*
X449611326Y-446535D01*
X449573633Y-435101D01*
X449538897Y-416534D01*
X449508452Y-391548D01*
X449483466Y-361103D01*
X449464899Y-326367D01*
X449453465Y-288674D01*
X449449000Y-243339D01*
X449449000Y843339D01*
X449453465Y888674D01*
X449464899Y926367D01*
X449483466Y961103D01*
X449508452Y991548D01*
X449538897Y1016534D01*
X449573633Y1035101D01*
X449611326Y1046535D01*
X449656661Y1051000D01*
X450493339Y1051000D01*
X450538674Y1046535D01*
G37*
G36*
X452588674Y1046535D02*
G01*
X452626367Y1035101D01*
X452661103Y1016534D01*
X452691548Y991548D01*
X452716534Y961103D01*
X452735101Y926367D01*
X452746535Y888674D01*
X452751000Y843339D01*
X452751000Y-243339D01*
X452746535Y-288674D01*
X452735101Y-326367D01*
X452716534Y-361103D01*
X452691548Y-391548D01*
X452661103Y-416534D01*
X452626367Y-435101D01*
X452588674Y-446535D01*
X452543339Y-451000D01*
X451706661Y-451000D01*
X451661326Y-446535D01*
X451623633Y-435101D01*
X451588897Y-416534D01*
X451558452Y-391548D01*
X451533466Y-361103D01*
X451514899Y-326367D01*
X451503465Y-288674D01*
X451499000Y-243339D01*
X451499000Y843339D01*
X451503465Y888674D01*
X451514899Y926367D01*
X451533466Y961103D01*
X451558452Y991548D01*
X451588897Y1016534D01*
X451623633Y1035101D01*
X451661326Y1046535D01*
X451706661Y1051000D01*
X452543339Y1051000D01*
X452588674Y1046535D01*
G37*
G36*
X468463674Y1346535D02*
G01*
X468501367Y1335101D01*
X468536103Y1316534D01*
X468566548Y1291548D01*
X468591534Y1261103D01*
X468610101Y1226367D01*
X468621535Y1188674D01*
X468626000Y1143339D01*
X468626000Y56661D01*
X468621535Y11326D01*
X468610101Y-26367D01*
X468591534Y-61103D01*
X468566548Y-91548D01*
X468536103Y-116534D01*
X468501367Y-135101D01*
X468463674Y-146535D01*
X468418339Y-151000D01*
X467581661Y-151000D01*
X467536326Y-146535D01*
X467498633Y-135101D01*
X467463897Y-116534D01*
X467433452Y-91548D01*
X467408466Y-61103D01*
X467389899Y-26367D01*
X467378465Y11326D01*
X467374000Y56661D01*
X467374000Y1143339D01*
X467378465Y1188674D01*
X467389899Y1226367D01*
X467408466Y1261103D01*
X467433452Y1291548D01*
X467463897Y1316534D01*
X467498633Y1335101D01*
X467536326Y1346535D01*
X467581661Y1351000D01*
X468418339Y1351000D01*
X468463674Y1346535D01*
G37*
G36*
X470513674Y1346535D02*
G01*
X470551367Y1335101D01*
X470586103Y1316534D01*
X470616548Y1291548D01*
X470641534Y1261103D01*
X470660101Y1226367D01*
X470671535Y1188674D01*
X470676000Y1143339D01*
X470676000Y56661D01*
X470671535Y11326D01*
X470660101Y-26367D01*
X470641534Y-61103D01*
X470616548Y-91548D01*
X470586103Y-116534D01*
X470551367Y-135101D01*
X470513674Y-146535D01*
X470468339Y-151000D01*
X469631661Y-151000D01*
X469586326Y-146535D01*
X469548633Y-135101D01*
X469513897Y-116534D01*
X469483452Y-91548D01*
X469458466Y-61103D01*
X469439899Y-26367D01*
X469428465Y11326D01*
X469424000Y56661D01*
X469424000Y1143339D01*
X469428465Y1188674D01*
X469439899Y1226367D01*
X469458466Y1261103D01*
X469483452Y1291548D01*
X469513897Y1316534D01*
X469548633Y1335101D01*
X469586326Y1346535D01*
X469631661Y1351000D01*
X470468339Y1351000D01*
X470513674Y1346535D01*
G37*
G36*
X463001000Y6149000D02*
G01*
X461399000Y6149000D01*
X461399000Y8251000D01*
X463001000Y8251000D01*
X463001000Y6149000D01*
G37*
G36*
X460701000Y6149000D02*
G01*
X459099000Y6149000D01*
X459099000Y8251000D01*
X460701000Y8251000D01*
X460701000Y6149000D01*
G37*
G36*
X458401000Y6149000D02*
G01*
X456799000Y6149000D01*
X456799000Y8251000D01*
X458401000Y8251000D01*
X458401000Y6149000D01*
G37*
G36*
X483038500Y7338114D02*
G01*
X483039102Y7325862D01*
X483041649Y7300000D01*
X483039102Y7274138D01*
X483038500Y7261886D01*
X483038500Y7188594D01*
X483029543Y7171836D01*
X483025415Y7160299D01*
X482999632Y7075307D01*
X482991854Y7049664D01*
X482931406Y6936575D01*
X482850054Y6837446D01*
X482750925Y6756094D01*
X482637836Y6695646D01*
X482605904Y6685960D01*
X482515118Y6658420D01*
X482451355Y6652140D01*
X482419474Y6649000D01*
X481655526Y6649000D01*
X481623645Y6652140D01*
X481559882Y6658420D01*
X481469096Y6685960D01*
X481437164Y6695646D01*
X481324075Y6756094D01*
X481224946Y6837446D01*
X481143594Y6936575D01*
X481083146Y7049664D01*
X481075368Y7075307D01*
X481049587Y7160292D01*
X481040213Y7182925D01*
X481036500Y7188482D01*
X481036500Y7261886D01*
X481035898Y7274138D01*
X481033351Y7300000D01*
X481035898Y7325862D01*
X481036500Y7338114D01*
X481036500Y8551000D01*
X483038500Y8551000D01*
X483038500Y7338114D01*
G37*
G36*
X479563848Y14046180D02*
G01*
X479563850Y14046179D01*
X479563851Y14046179D01*
X479705074Y13987683D01*
X479705077Y13987681D01*
X479832169Y13902761D01*
X479940261Y13794669D01*
X480006883Y13694962D01*
X480025183Y13667574D01*
X480063942Y13574000D01*
X480083680Y13526348D01*
X480101830Y13435101D01*
X480113500Y13376429D01*
X480113500Y13223571D01*
X480083679Y13073649D01*
X480025183Y12932426D01*
X480025181Y12932423D01*
X479940261Y12805331D01*
X479832169Y12697239D01*
X479769010Y12655038D01*
X479705074Y12612317D01*
X479654772Y12591481D01*
X479633164Y12579932D01*
X479614222Y12564386D01*
X479598677Y12545444D01*
X479587126Y12523834D01*
X479580013Y12500385D01*
X479577611Y12475999D01*
X479580013Y12451613D01*
X479587126Y12428164D01*
X479598677Y12406553D01*
X479614223Y12387611D01*
X479633165Y12372066D01*
X479654775Y12360515D01*
X479678224Y12353402D01*
X479702610Y12351000D01*
X480063500Y12351000D01*
X480063500Y9249000D01*
X479702610Y9249000D01*
X479678224Y9246598D01*
X479654775Y9239485D01*
X479633164Y9227934D01*
X479614222Y9212389D01*
X479598677Y9193447D01*
X479587126Y9171836D01*
X479580013Y9148387D01*
X479577611Y9124001D01*
X479580013Y9099615D01*
X479587126Y9076166D01*
X479598677Y9054555D01*
X479614222Y9035613D01*
X479633164Y9020068D01*
X479654772Y9008519D01*
X479705074Y8987683D01*
X479705075Y8987682D01*
X479832169Y8902761D01*
X479940261Y8794669D01*
X480002081Y8702149D01*
X480025183Y8667574D01*
X480083679Y8526351D01*
X480113500Y8376429D01*
X480113500Y8223571D01*
X480083679Y8073649D01*
X480025183Y7932426D01*
X480025181Y7932423D01*
X479940261Y7805331D01*
X479832169Y7697239D01*
X479781564Y7663426D01*
X479705074Y7612317D01*
X479563851Y7553821D01*
X479563850Y7553821D01*
X479563848Y7553820D01*
X479413931Y7524000D01*
X479261069Y7524000D01*
X479111152Y7553820D01*
X479111150Y7553821D01*
X479111149Y7553821D01*
X478969926Y7612317D01*
X478893436Y7663426D01*
X478842831Y7697239D01*
X478734739Y7805331D01*
X478649819Y7932423D01*
X478649817Y7932426D01*
X478591321Y8073649D01*
X478561500Y8223571D01*
X478561500Y8376429D01*
X478591321Y8526351D01*
X478649817Y8667574D01*
X478672919Y8702149D01*
X478734739Y8794669D01*
X478842831Y8902761D01*
X478969925Y8987682D01*
X478969926Y8987683D01*
X479020228Y9008519D01*
X479041836Y9020068D01*
X479060778Y9035614D01*
X479076323Y9054556D01*
X479087874Y9076166D01*
X479094987Y9099615D01*
X479097389Y9124001D01*
X479094987Y9148387D01*
X479087874Y9171836D01*
X479076323Y9193447D01*
X479060777Y9212389D01*
X479041835Y9227934D01*
X479020225Y9239485D01*
X478996776Y9246598D01*
X478972390Y9249000D01*
X478611500Y9249000D01*
X478611500Y12351000D01*
X478972390Y12351000D01*
X478996776Y12353402D01*
X479020225Y12360515D01*
X479041836Y12372066D01*
X479060778Y12387611D01*
X479076323Y12406553D01*
X479087874Y12428164D01*
X479094987Y12451613D01*
X479097389Y12475999D01*
X479094987Y12500385D01*
X479087874Y12523834D01*
X479076323Y12545445D01*
X479060778Y12564387D01*
X479041836Y12579932D01*
X479020228Y12591481D01*
X478969926Y12612317D01*
X478905990Y12655038D01*
X478842831Y12697239D01*
X478734739Y12805331D01*
X478649819Y12932423D01*
X478649817Y12932426D01*
X478591321Y13073649D01*
X478561500Y13223571D01*
X478561500Y13376429D01*
X478573170Y13435101D01*
X478591320Y13526348D01*
X478611058Y13574000D01*
X478649817Y13667574D01*
X478668117Y13694962D01*
X478734739Y13794669D01*
X478842831Y13902761D01*
X478969923Y13987681D01*
X478969926Y13987683D01*
X479111149Y14046179D01*
X479111150Y14046179D01*
X479111152Y14046180D01*
X479261069Y14076000D01*
X479413931Y14076000D01*
X479563848Y14046180D01*
G37*
G36*
X449313674Y9346535D02*
G01*
X449351367Y9335101D01*
X449386103Y9316534D01*
X449416548Y9291548D01*
X449441534Y9261103D01*
X449460101Y9226367D01*
X449471535Y9188674D01*
X449476000Y9143339D01*
X449476000Y8056661D01*
X449471535Y8011326D01*
X449460101Y7973633D01*
X449441534Y7938897D01*
X449416548Y7908452D01*
X449386103Y7883466D01*
X449351367Y7864899D01*
X449313674Y7853465D01*
X449268339Y7849000D01*
X448431661Y7849000D01*
X448386326Y7853465D01*
X448348633Y7864899D01*
X448313897Y7883466D01*
X448283452Y7908452D01*
X448258466Y7938897D01*
X448239899Y7973633D01*
X448228465Y8011326D01*
X448224000Y8056661D01*
X448224000Y9143339D01*
X448228465Y9188674D01*
X448239899Y9226367D01*
X448258466Y9261103D01*
X448283452Y9291548D01*
X448313897Y9316534D01*
X448348633Y9335101D01*
X448386326Y9346535D01*
X448431661Y9351000D01*
X449268339Y9351000D01*
X449313674Y9346535D01*
G37*
G36*
X451363674Y9346535D02*
G01*
X451401367Y9335101D01*
X451436103Y9316534D01*
X451466548Y9291548D01*
X451491534Y9261103D01*
X451510101Y9226367D01*
X451521535Y9188674D01*
X451526000Y9143339D01*
X451526000Y8056661D01*
X451521535Y8011326D01*
X451510101Y7973633D01*
X451491534Y7938897D01*
X451466548Y7908452D01*
X451436103Y7883466D01*
X451401367Y7864899D01*
X451363674Y7853465D01*
X451318339Y7849000D01*
X450481661Y7849000D01*
X450436326Y7853465D01*
X450398633Y7864899D01*
X450363897Y7883466D01*
X450333452Y7908452D01*
X450308466Y7938897D01*
X450289899Y7973633D01*
X450278465Y8011326D01*
X450274000Y8056661D01*
X450274000Y9143339D01*
X450278465Y9188674D01*
X450289899Y9226367D01*
X450308466Y9261103D01*
X450333452Y9291548D01*
X450363897Y9316534D01*
X450398633Y9335101D01*
X450436326Y9346535D01*
X450481661Y9351000D01*
X451318339Y9351000D01*
X451363674Y9346535D01*
G37*
G36*
X472505997Y11346949D02*
G01*
X472539652Y11336739D01*
X472570665Y11320162D01*
X472597851Y11297851D01*
X472620162Y11270665D01*
X472636739Y11239652D01*
X472646949Y11205997D01*
X472651000Y11164862D01*
X472651000Y8835138D01*
X472646949Y8794003D01*
X472636739Y8760348D01*
X472620162Y8729335D01*
X472597851Y8702149D01*
X472570665Y8679838D01*
X472539652Y8663261D01*
X472505997Y8653051D01*
X472464862Y8649000D01*
X471135138Y8649000D01*
X471094003Y8653051D01*
X471060348Y8663261D01*
X471029335Y8679838D01*
X471002149Y8702149D01*
X470979838Y8729335D01*
X470963261Y8760348D01*
X470953051Y8794003D01*
X470949000Y8835138D01*
X470949000Y11164862D01*
X470953051Y11205997D01*
X470963261Y11239652D01*
X470979838Y11270665D01*
X471002149Y11297851D01*
X471029335Y11320162D01*
X471060348Y11336739D01*
X471094003Y11346949D01*
X471135138Y11351000D01*
X472464862Y11351000D01*
X472505997Y11346949D01*
G37*
G36*
X483038500Y8999000D02*
G01*
X481036500Y8999000D01*
X481036500Y10601000D01*
X483038500Y10601000D01*
X483038500Y8999000D01*
G37*
G36*
X476888674Y12071535D02*
G01*
X476926367Y12060101D01*
X476961103Y12041534D01*
X476991548Y12016548D01*
X477016534Y11986103D01*
X477035101Y11951367D01*
X477046535Y11913674D01*
X477051000Y11868339D01*
X477051000Y11031661D01*
X477046535Y10986326D01*
X477035101Y10948633D01*
X477016534Y10913897D01*
X476991548Y10883452D01*
X476961103Y10858466D01*
X476926367Y10839899D01*
X476888674Y10828465D01*
X476843339Y10824000D01*
X475756661Y10824000D01*
X475711326Y10828465D01*
X475673633Y10839899D01*
X475638897Y10858466D01*
X475608452Y10883452D01*
X475583466Y10913897D01*
X475564899Y10948633D01*
X475553465Y10986326D01*
X475549000Y11031661D01*
X475549000Y11868339D01*
X475553465Y11913674D01*
X475564899Y11951367D01*
X475583466Y11986103D01*
X475608452Y12016548D01*
X475638897Y12041534D01*
X475673633Y12060101D01*
X475711326Y12071535D01*
X475756661Y12076000D01*
X476843339Y12076000D01*
X476888674Y12071535D01*
G37*
G36*
X483038500Y10999000D02*
G01*
X481036500Y10999000D01*
X481036500Y12601000D01*
X483038500Y12601000D01*
X483038500Y10999000D01*
G37*
G36*
X467288674Y12771535D02*
G01*
X467326367Y12760101D01*
X467361103Y12741534D01*
X467391548Y12716548D01*
X467416534Y12686103D01*
X467435101Y12651367D01*
X467446535Y12613674D01*
X467451000Y12568339D01*
X467451000Y11731661D01*
X467446535Y11686326D01*
X467435101Y11648633D01*
X467416534Y11613897D01*
X467391548Y11583452D01*
X467361103Y11558466D01*
X467326367Y11539899D01*
X467288674Y11528465D01*
X467243339Y11524000D01*
X466156661Y11524000D01*
X466111326Y11528465D01*
X466073633Y11539899D01*
X466038897Y11558466D01*
X466008452Y11583452D01*
X465983466Y11613897D01*
X465964899Y11648633D01*
X465953465Y11686326D01*
X465949000Y11731661D01*
X465949000Y12568339D01*
X465953465Y12613674D01*
X465964899Y12651367D01*
X465983466Y12686103D01*
X466008452Y12716548D01*
X466038897Y12741534D01*
X466073633Y12760101D01*
X466111326Y12771535D01*
X466156661Y12776000D01*
X467243339Y12776000D01*
X467288674Y12771535D01*
G37*
G36*
X449013674Y13446535D02*
G01*
X449051367Y13435101D01*
X449086103Y13416534D01*
X449116548Y13391548D01*
X449141534Y13361103D01*
X449160101Y13326367D01*
X449171535Y13288674D01*
X449176000Y13243339D01*
X449176000Y12156661D01*
X449171535Y12111326D01*
X449160101Y12073633D01*
X449141534Y12038897D01*
X449116548Y12008452D01*
X449086103Y11983466D01*
X449051367Y11964899D01*
X449013674Y11953465D01*
X448968339Y11949000D01*
X448131661Y11949000D01*
X448086326Y11953465D01*
X448048633Y11964899D01*
X448013897Y11983466D01*
X447983452Y12008452D01*
X447958466Y12038897D01*
X447939899Y12073633D01*
X447928465Y12111326D01*
X447924000Y12156661D01*
X447924000Y13243339D01*
X447928465Y13288674D01*
X447939899Y13326367D01*
X447958466Y13361103D01*
X447983452Y13391548D01*
X448013897Y13416534D01*
X448048633Y13435101D01*
X448086326Y13446535D01*
X448131661Y13451000D01*
X448968339Y13451000D01*
X449013674Y13446535D01*
G37*
G36*
X451063674Y13446535D02*
G01*
X451101367Y13435101D01*
X451136103Y13416534D01*
X451166548Y13391548D01*
X451191534Y13361103D01*
X451210101Y13326367D01*
X451221535Y13288674D01*
X451226000Y13243339D01*
X451226000Y12156661D01*
X451221535Y12111326D01*
X451210101Y12073633D01*
X451191534Y12038897D01*
X451166548Y12008452D01*
X451136103Y11983466D01*
X451101367Y11964899D01*
X451063674Y11953465D01*
X451018339Y11949000D01*
X450181661Y11949000D01*
X450136326Y11953465D01*
X450098633Y11964899D01*
X450063897Y11983466D01*
X450033452Y12008452D01*
X450008466Y12038897D01*
X449989899Y12073633D01*
X449978465Y12111326D01*
X449974000Y12156661D01*
X449974000Y13243339D01*
X449978465Y13288674D01*
X449989899Y13326367D01*
X450008466Y13361103D01*
X450033452Y13391548D01*
X450063897Y13416534D01*
X450098633Y13435101D01*
X450136326Y13446535D01*
X450181661Y13451000D01*
X451018339Y13451000D01*
X451063674Y13446535D01*
G37*
G36*
X472505997Y14946949D02*
G01*
X472539652Y14936739D01*
X472570665Y14920162D01*
X472597851Y14897851D01*
X472620162Y14870665D01*
X472636739Y14839652D01*
X472646949Y14805997D01*
X472651000Y14764862D01*
X472651000Y12435138D01*
X472646949Y12394003D01*
X472636739Y12360348D01*
X472620162Y12329335D01*
X472597851Y12302149D01*
X472570665Y12279838D01*
X472539652Y12263261D01*
X472505997Y12253051D01*
X472464862Y12249000D01*
X471135138Y12249000D01*
X471094003Y12253051D01*
X471060348Y12263261D01*
X471029335Y12279838D01*
X471002149Y12302149D01*
X470979838Y12329335D01*
X470963261Y12360348D01*
X470953051Y12394003D01*
X470949000Y12435138D01*
X470949000Y14764862D01*
X470953051Y14805997D01*
X470963261Y14839652D01*
X470979838Y14870665D01*
X471002149Y14897851D01*
X471029335Y14920162D01*
X471060348Y14936739D01*
X471094003Y14946949D01*
X471135138Y14951000D01*
X472464862Y14951000D01*
X472505997Y14946949D01*
G37*
G36*
X461851000Y12449000D02*
G01*
X457949000Y12449000D01*
X457949000Y14551000D01*
X461851000Y14551000D01*
X461851000Y12449000D01*
G37*
G36*
X476888674Y14121535D02*
G01*
X476926367Y14110101D01*
X476961103Y14091534D01*
X476991548Y14066548D01*
X477016534Y14036103D01*
X477035101Y14001367D01*
X477046535Y13963674D01*
X477051000Y13918339D01*
X477051000Y13081661D01*
X477046535Y13036326D01*
X477035101Y12998633D01*
X477016534Y12963897D01*
X476991548Y12933452D01*
X476961103Y12908466D01*
X476926367Y12889899D01*
X476888674Y12878465D01*
X476843339Y12874000D01*
X475756661Y12874000D01*
X475711326Y12878465D01*
X475673633Y12889899D01*
X475638897Y12908466D01*
X475608452Y12933452D01*
X475583466Y12963897D01*
X475564899Y12998633D01*
X475553465Y13036326D01*
X475549000Y13081661D01*
X475549000Y13918339D01*
X475553465Y13963674D01*
X475564899Y14001367D01*
X475583466Y14036103D01*
X475608452Y14066548D01*
X475638897Y14091534D01*
X475673633Y14110101D01*
X475711326Y14121535D01*
X475756661Y14126000D01*
X476843339Y14126000D01*
X476888674Y14121535D01*
G37*
G36*
X482451355Y14947860D02*
G01*
X482515118Y14941580D01*
X482585723Y14920162D01*
X482637836Y14904354D01*
X482750925Y14843906D01*
X482850054Y14762554D01*
X482931406Y14663425D01*
X482991854Y14550336D01*
X482991855Y14550332D01*
X483025413Y14439708D01*
X483034787Y14417075D01*
X483038500Y14411518D01*
X483038500Y14338114D01*
X483039102Y14325862D01*
X483041649Y14300000D01*
X483039102Y14274138D01*
X483038500Y14261886D01*
X483038500Y13049000D01*
X481036500Y13049000D01*
X481036500Y14261886D01*
X481035898Y14274138D01*
X481033351Y14300000D01*
X481035898Y14325862D01*
X481036500Y14338114D01*
X481036500Y14411406D01*
X481045457Y14428164D01*
X481049585Y14439701D01*
X481083145Y14550332D01*
X481083146Y14550336D01*
X481143594Y14663425D01*
X481224946Y14762554D01*
X481324075Y14843906D01*
X481437164Y14904354D01*
X481489277Y14920162D01*
X481559882Y14941580D01*
X481623645Y14947860D01*
X481655526Y14951000D01*
X482419474Y14951000D01*
X482451355Y14947860D01*
G37*
G36*
X467288674Y14821535D02*
G01*
X467326367Y14810101D01*
X467361103Y14791534D01*
X467391548Y14766548D01*
X467416534Y14736103D01*
X467435101Y14701367D01*
X467446535Y14663674D01*
X467451000Y14618339D01*
X467451000Y13781661D01*
X467446535Y13736326D01*
X467435101Y13698633D01*
X467416534Y13663897D01*
X467391548Y13633452D01*
X467361103Y13608466D01*
X467326367Y13589899D01*
X467288674Y13578465D01*
X467243339Y13574000D01*
X466156661Y13574000D01*
X466111326Y13578465D01*
X466073633Y13589899D01*
X466038897Y13608466D01*
X466008452Y13633452D01*
X465983466Y13663897D01*
X465964899Y13698633D01*
X465953465Y13736326D01*
X465949000Y13781661D01*
X465949000Y14618339D01*
X465953465Y14663674D01*
X465964899Y14701367D01*
X465983466Y14736103D01*
X466008452Y14766548D01*
X466038897Y14791534D01*
X466073633Y14810101D01*
X466111326Y14821535D01*
X466156661Y14826000D01*
X467243339Y14826000D01*
X467288674Y14821535D01*
G37*
M02*
