G04 #@! TF.GenerationSoftware,KiCad,Pcbnew,(5.1.5)-3*
G04 #@! TF.CreationDate,2020-02-03T12:38:55+01:00*
G04 #@! TF.ProjectId,Lab_1,4c61625f-312e-46b6-9963-61645f706362,rev?*
G04 #@! TF.SameCoordinates,Original*
G04 #@! TF.FileFunction,Copper,L1,Top*
G04 #@! TF.FilePolarity,Positive*
%FSLAX46Y46*%
G04 Gerber Fmt 4.6, Leading zero omitted, Abs format (unit mm)*
G04 Created by KiCad (PCBNEW (5.1.5)-3) date 2020-02-03 12:38:55*
%MOMM*%
%LPD*%
G04 APERTURE LIST*
%ADD10R,0.800000X0.500000*%
%ADD11R,0.500000X0.800000*%
%ADD12R,1.600000X1.600000*%
%ADD13R,0.500000X1.000000*%
%ADD14R,1.700000X1.700000*%
%ADD15O,1.700000X1.700000*%
%ADD16C,0.100000*%
%ADD17R,1.900000X1.500000*%
%ADD18C,1.450000*%
%ADD19R,1.350000X0.400000*%
%ADD20O,1.900000X1.200000*%
%ADD21R,1.900000X1.200000*%
%ADD22R,3.800000X2.000000*%
%ADD23R,1.500000X2.000000*%
%ADD24C,0.800000*%
%ADD25C,0.600000*%
%ADD26C,0.350000*%
%ADD27C,0.250000*%
%ADD28C,0.254000*%
G04 APERTURE END LIST*
D10*
X471100000Y-15300000D03*
D11*
X462300000Y-17350000D03*
X461500000Y-17350000D03*
D10*
X460700000Y-16100000D03*
X460700000Y-15300000D03*
X460700000Y-14500000D03*
X460700000Y-13700000D03*
X460700000Y-12900000D03*
X460700000Y-12100000D03*
X460700000Y-11300000D03*
X460700000Y-10500000D03*
X460700000Y-9700000D03*
X460700000Y-8900000D03*
X460700000Y-8100000D03*
X460700000Y-7300000D03*
D11*
X461500000Y-6050000D03*
D10*
X471100000Y-12900000D03*
X471100000Y-13700000D03*
X471100000Y-14500000D03*
X471100000Y-16100000D03*
D11*
X470300000Y-17350000D03*
X469500000Y-17350000D03*
X468700000Y-17350000D03*
X467900000Y-17350000D03*
X467100000Y-17350000D03*
X466300000Y-17350000D03*
X465500000Y-17350000D03*
X464700000Y-17350000D03*
X463900000Y-17350000D03*
X463100000Y-17350000D03*
X462300000Y-6050000D03*
X463100000Y-6050000D03*
X463900000Y-6050000D03*
X464700000Y-6050000D03*
X465500000Y-6050000D03*
X466300000Y-6050000D03*
X467100000Y-6050000D03*
X467900000Y-6050000D03*
X468700000Y-6050000D03*
X469500000Y-6050000D03*
X470300000Y-6050000D03*
D10*
X471100000Y-12100000D03*
X471100000Y-11300000D03*
X471100000Y-10500000D03*
X471100000Y-9700000D03*
X471100000Y-8900000D03*
X471100000Y-8100000D03*
X471100000Y-7300000D03*
D12*
X468400000Y-9200000D03*
X468400000Y-11700000D03*
X468400000Y-14200000D03*
X465900000Y-9200000D03*
X465900000Y-11700000D03*
X465900000Y-14200000D03*
X463400000Y-9200000D03*
X463400000Y-11700000D03*
X463400000Y-14200000D03*
D13*
X470300000Y-5150000D03*
X469500000Y-5150000D03*
X468700000Y-5150000D03*
X467900000Y-5150000D03*
X467100000Y-5150000D03*
X466300000Y-5150000D03*
X465500000Y-5160000D03*
X464700000Y-5150000D03*
X463900000Y-5150000D03*
X463100000Y-5150000D03*
X462300000Y-5150000D03*
X461500000Y-5150000D03*
D11*
X464700000Y-4250000D03*
X465500000Y-4260000D03*
X468700000Y-4250000D03*
X466300000Y-4250000D03*
X463900000Y-4250000D03*
X461500000Y-4250000D03*
X469500000Y-4250000D03*
X467900000Y-4250000D03*
X470300000Y-4250000D03*
X467100000Y-4250000D03*
X463100000Y-4250000D03*
X462300000Y-4250000D03*
X467900000Y-18150000D03*
X462300000Y-18150000D03*
X463100000Y-18150000D03*
X468700000Y-18150000D03*
X464700000Y-18150000D03*
X470300000Y-18150000D03*
X465500000Y-18150000D03*
X469500000Y-18150000D03*
X463900000Y-18150000D03*
X466300000Y-18150000D03*
X461500000Y-18150000D03*
X467100000Y-18150000D03*
X467901044Y-18944333D03*
X462301044Y-18944333D03*
X463101044Y-18944333D03*
X468701044Y-18944333D03*
X464701044Y-18944333D03*
X470301044Y-18944333D03*
X465501044Y-18944333D03*
X469501044Y-18944333D03*
X463901044Y-18944333D03*
X466301044Y-18944333D03*
X461501044Y-18944333D03*
X467101044Y-18944333D03*
D10*
X459910000Y-7300000D03*
X459910000Y-10500000D03*
X459910000Y-16100000D03*
X459910000Y-11300000D03*
X459910000Y-8900000D03*
X459910000Y-12900000D03*
X459910000Y-12100000D03*
X459910000Y-13700000D03*
X459910000Y-8100000D03*
X459910000Y-15300000D03*
X459910000Y-9700000D03*
X459910000Y-14500000D03*
X459110000Y-14500000D03*
X459110000Y-10500000D03*
X459110000Y-15300000D03*
X459110000Y-8100000D03*
X459110000Y-12900000D03*
X459110000Y-16100000D03*
X459110000Y-7300000D03*
X459110000Y-13700000D03*
X459110000Y-11300000D03*
X459110000Y-12100000D03*
X459110000Y-8900000D03*
X459110000Y-9700000D03*
X471900000Y-11300000D03*
X471900000Y-14500000D03*
X471900000Y-15300000D03*
X471900000Y-7300000D03*
X471900000Y-8100000D03*
X471900000Y-8900000D03*
X471900000Y-10500000D03*
X471900000Y-12900000D03*
X471900000Y-16100000D03*
X471900000Y-9700000D03*
X471900000Y-12100000D03*
X471900000Y-13700000D03*
X472700000Y-11300000D03*
X472700000Y-14500000D03*
X472700000Y-15300000D03*
X472700000Y-7300000D03*
X472700000Y-8100000D03*
X472700000Y-8900000D03*
X472700000Y-10500000D03*
X472700000Y-12900000D03*
X472700000Y-16100000D03*
X472700000Y-9700000D03*
X472700000Y-12100000D03*
X472700000Y-13700000D03*
D14*
X480400000Y-10700000D03*
D15*
X480400000Y-13240000D03*
X480400000Y-15780000D03*
X480400000Y-18320000D03*
X480400000Y-20860000D03*
G04 #@! TA.AperFunction,SMDPad,CuDef*
D16*
G36*
X484074505Y-11926204D02*
G01*
X484098773Y-11929804D01*
X484122572Y-11935765D01*
X484145671Y-11944030D01*
X484167850Y-11954520D01*
X484188893Y-11967132D01*
X484208599Y-11981747D01*
X484226777Y-11998223D01*
X484243253Y-12016401D01*
X484257868Y-12036107D01*
X484270480Y-12057150D01*
X484280970Y-12079329D01*
X484289235Y-12102428D01*
X484295196Y-12126227D01*
X484298796Y-12150495D01*
X484300000Y-12174999D01*
X484300000Y-12825001D01*
X484298796Y-12849505D01*
X484295196Y-12873773D01*
X484289235Y-12897572D01*
X484280970Y-12920671D01*
X484270480Y-12942850D01*
X484257868Y-12963893D01*
X484243253Y-12983599D01*
X484226777Y-13001777D01*
X484208599Y-13018253D01*
X484188893Y-13032868D01*
X484167850Y-13045480D01*
X484145671Y-13055970D01*
X484122572Y-13064235D01*
X484098773Y-13070196D01*
X484074505Y-13073796D01*
X484050001Y-13075000D01*
X483149999Y-13075000D01*
X483125495Y-13073796D01*
X483101227Y-13070196D01*
X483077428Y-13064235D01*
X483054329Y-13055970D01*
X483032150Y-13045480D01*
X483011107Y-13032868D01*
X482991401Y-13018253D01*
X482973223Y-13001777D01*
X482956747Y-12983599D01*
X482942132Y-12963893D01*
X482929520Y-12942850D01*
X482919030Y-12920671D01*
X482910765Y-12897572D01*
X482904804Y-12873773D01*
X482901204Y-12849505D01*
X482900000Y-12825001D01*
X482900000Y-12174999D01*
X482901204Y-12150495D01*
X482904804Y-12126227D01*
X482910765Y-12102428D01*
X482919030Y-12079329D01*
X482929520Y-12057150D01*
X482942132Y-12036107D01*
X482956747Y-12016401D01*
X482973223Y-11998223D01*
X482991401Y-11981747D01*
X483011107Y-11967132D01*
X483032150Y-11954520D01*
X483054329Y-11944030D01*
X483077428Y-11935765D01*
X483101227Y-11929804D01*
X483125495Y-11926204D01*
X483149999Y-11925000D01*
X484050001Y-11925000D01*
X484074505Y-11926204D01*
G37*
G04 #@! TD.AperFunction*
G04 #@! TA.AperFunction,SMDPad,CuDef*
G36*
X484074505Y-9876204D02*
G01*
X484098773Y-9879804D01*
X484122572Y-9885765D01*
X484145671Y-9894030D01*
X484167850Y-9904520D01*
X484188893Y-9917132D01*
X484208599Y-9931747D01*
X484226777Y-9948223D01*
X484243253Y-9966401D01*
X484257868Y-9986107D01*
X484270480Y-10007150D01*
X484280970Y-10029329D01*
X484289235Y-10052428D01*
X484295196Y-10076227D01*
X484298796Y-10100495D01*
X484300000Y-10124999D01*
X484300000Y-10775001D01*
X484298796Y-10799505D01*
X484295196Y-10823773D01*
X484289235Y-10847572D01*
X484280970Y-10870671D01*
X484270480Y-10892850D01*
X484257868Y-10913893D01*
X484243253Y-10933599D01*
X484226777Y-10951777D01*
X484208599Y-10968253D01*
X484188893Y-10982868D01*
X484167850Y-10995480D01*
X484145671Y-11005970D01*
X484122572Y-11014235D01*
X484098773Y-11020196D01*
X484074505Y-11023796D01*
X484050001Y-11025000D01*
X483149999Y-11025000D01*
X483125495Y-11023796D01*
X483101227Y-11020196D01*
X483077428Y-11014235D01*
X483054329Y-11005970D01*
X483032150Y-10995480D01*
X483011107Y-10982868D01*
X482991401Y-10968253D01*
X482973223Y-10951777D01*
X482956747Y-10933599D01*
X482942132Y-10913893D01*
X482929520Y-10892850D01*
X482919030Y-10870671D01*
X482910765Y-10847572D01*
X482904804Y-10823773D01*
X482901204Y-10799505D01*
X482900000Y-10775001D01*
X482900000Y-10124999D01*
X482901204Y-10100495D01*
X482904804Y-10076227D01*
X482910765Y-10052428D01*
X482919030Y-10029329D01*
X482929520Y-10007150D01*
X482942132Y-9986107D01*
X482956747Y-9966401D01*
X482973223Y-9948223D01*
X482991401Y-9931747D01*
X483011107Y-9917132D01*
X483032150Y-9904520D01*
X483054329Y-9894030D01*
X483077428Y-9885765D01*
X483101227Y-9879804D01*
X483125495Y-9876204D01*
X483149999Y-9875000D01*
X484050001Y-9875000D01*
X484074505Y-9876204D01*
G37*
G04 #@! TD.AperFunction*
G04 #@! TA.AperFunction,SMDPad,CuDef*
G36*
X468349505Y-801204D02*
G01*
X468373773Y-804804D01*
X468397572Y-810765D01*
X468420671Y-819030D01*
X468442850Y-829520D01*
X468463893Y-842132D01*
X468483599Y-856747D01*
X468501777Y-873223D01*
X468518253Y-891401D01*
X468532868Y-911107D01*
X468545480Y-932150D01*
X468555970Y-954329D01*
X468564235Y-977428D01*
X468570196Y-1001227D01*
X468573796Y-1025495D01*
X468575000Y-1049999D01*
X468575000Y-1950001D01*
X468573796Y-1974505D01*
X468570196Y-1998773D01*
X468564235Y-2022572D01*
X468555970Y-2045671D01*
X468545480Y-2067850D01*
X468532868Y-2088893D01*
X468518253Y-2108599D01*
X468501777Y-2126777D01*
X468483599Y-2143253D01*
X468463893Y-2157868D01*
X468442850Y-2170480D01*
X468420671Y-2180970D01*
X468397572Y-2189235D01*
X468373773Y-2195196D01*
X468349505Y-2198796D01*
X468325001Y-2200000D01*
X467674999Y-2200000D01*
X467650495Y-2198796D01*
X467626227Y-2195196D01*
X467602428Y-2189235D01*
X467579329Y-2180970D01*
X467557150Y-2170480D01*
X467536107Y-2157868D01*
X467516401Y-2143253D01*
X467498223Y-2126777D01*
X467481747Y-2108599D01*
X467467132Y-2088893D01*
X467454520Y-2067850D01*
X467444030Y-2045671D01*
X467435765Y-2022572D01*
X467429804Y-1998773D01*
X467426204Y-1974505D01*
X467425000Y-1950001D01*
X467425000Y-1049999D01*
X467426204Y-1025495D01*
X467429804Y-1001227D01*
X467435765Y-977428D01*
X467444030Y-954329D01*
X467454520Y-932150D01*
X467467132Y-911107D01*
X467481747Y-891401D01*
X467498223Y-873223D01*
X467516401Y-856747D01*
X467536107Y-842132D01*
X467557150Y-829520D01*
X467579329Y-819030D01*
X467602428Y-810765D01*
X467626227Y-804804D01*
X467650495Y-801204D01*
X467674999Y-800000D01*
X468325001Y-800000D01*
X468349505Y-801204D01*
G37*
G04 #@! TD.AperFunction*
G04 #@! TA.AperFunction,SMDPad,CuDef*
G36*
X470399505Y-801204D02*
G01*
X470423773Y-804804D01*
X470447572Y-810765D01*
X470470671Y-819030D01*
X470492850Y-829520D01*
X470513893Y-842132D01*
X470533599Y-856747D01*
X470551777Y-873223D01*
X470568253Y-891401D01*
X470582868Y-911107D01*
X470595480Y-932150D01*
X470605970Y-954329D01*
X470614235Y-977428D01*
X470620196Y-1001227D01*
X470623796Y-1025495D01*
X470625000Y-1049999D01*
X470625000Y-1950001D01*
X470623796Y-1974505D01*
X470620196Y-1998773D01*
X470614235Y-2022572D01*
X470605970Y-2045671D01*
X470595480Y-2067850D01*
X470582868Y-2088893D01*
X470568253Y-2108599D01*
X470551777Y-2126777D01*
X470533599Y-2143253D01*
X470513893Y-2157868D01*
X470492850Y-2170480D01*
X470470671Y-2180970D01*
X470447572Y-2189235D01*
X470423773Y-2195196D01*
X470399505Y-2198796D01*
X470375001Y-2200000D01*
X469724999Y-2200000D01*
X469700495Y-2198796D01*
X469676227Y-2195196D01*
X469652428Y-2189235D01*
X469629329Y-2180970D01*
X469607150Y-2170480D01*
X469586107Y-2157868D01*
X469566401Y-2143253D01*
X469548223Y-2126777D01*
X469531747Y-2108599D01*
X469517132Y-2088893D01*
X469504520Y-2067850D01*
X469494030Y-2045671D01*
X469485765Y-2022572D01*
X469479804Y-1998773D01*
X469476204Y-1974505D01*
X469475000Y-1950001D01*
X469475000Y-1049999D01*
X469476204Y-1025495D01*
X469479804Y-1001227D01*
X469485765Y-977428D01*
X469494030Y-954329D01*
X469504520Y-932150D01*
X469517132Y-911107D01*
X469531747Y-891401D01*
X469548223Y-873223D01*
X469566401Y-856747D01*
X469586107Y-842132D01*
X469607150Y-829520D01*
X469629329Y-819030D01*
X469652428Y-810765D01*
X469676227Y-804804D01*
X469700495Y-801204D01*
X469724999Y-800000D01*
X470375001Y-800000D01*
X470399505Y-801204D01*
G37*
G04 #@! TD.AperFunction*
G04 #@! TA.AperFunction,SMDPad,CuDef*
G36*
X470399505Y1298796D02*
G01*
X470423773Y1295196D01*
X470447572Y1289235D01*
X470470671Y1280970D01*
X470492850Y1270480D01*
X470513893Y1257868D01*
X470533599Y1243253D01*
X470551777Y1226777D01*
X470568253Y1208599D01*
X470582868Y1188893D01*
X470595480Y1167850D01*
X470605970Y1145671D01*
X470614235Y1122572D01*
X470620196Y1098773D01*
X470623796Y1074505D01*
X470625000Y1050001D01*
X470625000Y149999D01*
X470623796Y125495D01*
X470620196Y101227D01*
X470614235Y77428D01*
X470605970Y54329D01*
X470595480Y32150D01*
X470582868Y11107D01*
X470568253Y-8599D01*
X470551777Y-26777D01*
X470533599Y-43253D01*
X470513893Y-57868D01*
X470492850Y-70480D01*
X470470671Y-80970D01*
X470447572Y-89235D01*
X470423773Y-95196D01*
X470399505Y-98796D01*
X470375001Y-100000D01*
X469724999Y-100000D01*
X469700495Y-98796D01*
X469676227Y-95196D01*
X469652428Y-89235D01*
X469629329Y-80970D01*
X469607150Y-70480D01*
X469586107Y-57868D01*
X469566401Y-43253D01*
X469548223Y-26777D01*
X469531747Y-8599D01*
X469517132Y11107D01*
X469504520Y32150D01*
X469494030Y54329D01*
X469485765Y77428D01*
X469479804Y101227D01*
X469476204Y125495D01*
X469475000Y149999D01*
X469475000Y1050001D01*
X469476204Y1074505D01*
X469479804Y1098773D01*
X469485765Y1122572D01*
X469494030Y1145671D01*
X469504520Y1167850D01*
X469517132Y1188893D01*
X469531747Y1208599D01*
X469548223Y1226777D01*
X469566401Y1243253D01*
X469586107Y1257868D01*
X469607150Y1270480D01*
X469629329Y1280970D01*
X469652428Y1289235D01*
X469676227Y1295196D01*
X469700495Y1298796D01*
X469724999Y1300000D01*
X470375001Y1300000D01*
X470399505Y1298796D01*
G37*
G04 #@! TD.AperFunction*
G04 #@! TA.AperFunction,SMDPad,CuDef*
G36*
X468349505Y1298796D02*
G01*
X468373773Y1295196D01*
X468397572Y1289235D01*
X468420671Y1280970D01*
X468442850Y1270480D01*
X468463893Y1257868D01*
X468483599Y1243253D01*
X468501777Y1226777D01*
X468518253Y1208599D01*
X468532868Y1188893D01*
X468545480Y1167850D01*
X468555970Y1145671D01*
X468564235Y1122572D01*
X468570196Y1098773D01*
X468573796Y1074505D01*
X468575000Y1050001D01*
X468575000Y149999D01*
X468573796Y125495D01*
X468570196Y101227D01*
X468564235Y77428D01*
X468555970Y54329D01*
X468545480Y32150D01*
X468532868Y11107D01*
X468518253Y-8599D01*
X468501777Y-26777D01*
X468483599Y-43253D01*
X468463893Y-57868D01*
X468442850Y-70480D01*
X468420671Y-80970D01*
X468397572Y-89235D01*
X468373773Y-95196D01*
X468349505Y-98796D01*
X468325001Y-100000D01*
X467674999Y-100000D01*
X467650495Y-98796D01*
X467626227Y-95196D01*
X467602428Y-89235D01*
X467579329Y-80970D01*
X467557150Y-70480D01*
X467536107Y-57868D01*
X467516401Y-43253D01*
X467498223Y-26777D01*
X467481747Y-8599D01*
X467467132Y11107D01*
X467454520Y32150D01*
X467444030Y54329D01*
X467435765Y77428D01*
X467429804Y101227D01*
X467426204Y125495D01*
X467425000Y149999D01*
X467425000Y1050001D01*
X467426204Y1074505D01*
X467429804Y1098773D01*
X467435765Y1122572D01*
X467444030Y1145671D01*
X467454520Y1167850D01*
X467467132Y1188893D01*
X467481747Y1208599D01*
X467498223Y1226777D01*
X467516401Y1243253D01*
X467536107Y1257868D01*
X467557150Y1270480D01*
X467579329Y1280970D01*
X467602428Y1289235D01*
X467626227Y1295196D01*
X467650495Y1298796D01*
X467674999Y1300000D01*
X468325001Y1300000D01*
X468349505Y1298796D01*
G37*
G04 #@! TD.AperFunction*
G04 #@! TA.AperFunction,SMDPad,CuDef*
G36*
X460774505Y-1451204D02*
G01*
X460798773Y-1454804D01*
X460822572Y-1460765D01*
X460845671Y-1469030D01*
X460867850Y-1479520D01*
X460888893Y-1492132D01*
X460908599Y-1506747D01*
X460926777Y-1523223D01*
X460943253Y-1541401D01*
X460957868Y-1561107D01*
X460970480Y-1582150D01*
X460980970Y-1604329D01*
X460989235Y-1627428D01*
X460995196Y-1651227D01*
X460998796Y-1675495D01*
X461000000Y-1699999D01*
X461000000Y-2350001D01*
X460998796Y-2374505D01*
X460995196Y-2398773D01*
X460989235Y-2422572D01*
X460980970Y-2445671D01*
X460970480Y-2467850D01*
X460957868Y-2488893D01*
X460943253Y-2508599D01*
X460926777Y-2526777D01*
X460908599Y-2543253D01*
X460888893Y-2557868D01*
X460867850Y-2570480D01*
X460845671Y-2580970D01*
X460822572Y-2589235D01*
X460798773Y-2595196D01*
X460774505Y-2598796D01*
X460750001Y-2600000D01*
X459849999Y-2600000D01*
X459825495Y-2598796D01*
X459801227Y-2595196D01*
X459777428Y-2589235D01*
X459754329Y-2580970D01*
X459732150Y-2570480D01*
X459711107Y-2557868D01*
X459691401Y-2543253D01*
X459673223Y-2526777D01*
X459656747Y-2508599D01*
X459642132Y-2488893D01*
X459629520Y-2467850D01*
X459619030Y-2445671D01*
X459610765Y-2422572D01*
X459604804Y-2398773D01*
X459601204Y-2374505D01*
X459600000Y-2350001D01*
X459600000Y-1699999D01*
X459601204Y-1675495D01*
X459604804Y-1651227D01*
X459610765Y-1627428D01*
X459619030Y-1604329D01*
X459629520Y-1582150D01*
X459642132Y-1561107D01*
X459656747Y-1541401D01*
X459673223Y-1523223D01*
X459691401Y-1506747D01*
X459711107Y-1492132D01*
X459732150Y-1479520D01*
X459754329Y-1469030D01*
X459777428Y-1460765D01*
X459801227Y-1454804D01*
X459825495Y-1451204D01*
X459849999Y-1450000D01*
X460750001Y-1450000D01*
X460774505Y-1451204D01*
G37*
G04 #@! TD.AperFunction*
G04 #@! TA.AperFunction,SMDPad,CuDef*
G36*
X460774505Y598796D02*
G01*
X460798773Y595196D01*
X460822572Y589235D01*
X460845671Y580970D01*
X460867850Y570480D01*
X460888893Y557868D01*
X460908599Y543253D01*
X460926777Y526777D01*
X460943253Y508599D01*
X460957868Y488893D01*
X460970480Y467850D01*
X460980970Y445671D01*
X460989235Y422572D01*
X460995196Y398773D01*
X460998796Y374505D01*
X461000000Y350001D01*
X461000000Y-300001D01*
X460998796Y-324505D01*
X460995196Y-348773D01*
X460989235Y-372572D01*
X460980970Y-395671D01*
X460970480Y-417850D01*
X460957868Y-438893D01*
X460943253Y-458599D01*
X460926777Y-476777D01*
X460908599Y-493253D01*
X460888893Y-507868D01*
X460867850Y-520480D01*
X460845671Y-530970D01*
X460822572Y-539235D01*
X460798773Y-545196D01*
X460774505Y-548796D01*
X460750001Y-550000D01*
X459849999Y-550000D01*
X459825495Y-548796D01*
X459801227Y-545196D01*
X459777428Y-539235D01*
X459754329Y-530970D01*
X459732150Y-520480D01*
X459711107Y-507868D01*
X459691401Y-493253D01*
X459673223Y-476777D01*
X459656747Y-458599D01*
X459642132Y-438893D01*
X459629520Y-417850D01*
X459619030Y-395671D01*
X459610765Y-372572D01*
X459604804Y-348773D01*
X459601204Y-324505D01*
X459600000Y-300001D01*
X459600000Y350001D01*
X459601204Y374505D01*
X459604804Y398773D01*
X459610765Y422572D01*
X459619030Y445671D01*
X459629520Y467850D01*
X459642132Y488893D01*
X459656747Y508599D01*
X459673223Y526777D01*
X459691401Y543253D01*
X459711107Y557868D01*
X459732150Y570480D01*
X459754329Y580970D01*
X459777428Y589235D01*
X459801227Y595196D01*
X459825495Y598796D01*
X459849999Y600000D01*
X460750001Y600000D01*
X460774505Y598796D01*
G37*
G04 #@! TD.AperFunction*
G04 #@! TA.AperFunction,SMDPad,CuDef*
G36*
X462774505Y623796D02*
G01*
X462798773Y620196D01*
X462822572Y614235D01*
X462845671Y605970D01*
X462867850Y595480D01*
X462888893Y582868D01*
X462908599Y568253D01*
X462926777Y551777D01*
X462943253Y533599D01*
X462957868Y513893D01*
X462970480Y492850D01*
X462980970Y470671D01*
X462989235Y447572D01*
X462995196Y423773D01*
X462998796Y399505D01*
X463000000Y375001D01*
X463000000Y-275001D01*
X462998796Y-299505D01*
X462995196Y-323773D01*
X462989235Y-347572D01*
X462980970Y-370671D01*
X462970480Y-392850D01*
X462957868Y-413893D01*
X462943253Y-433599D01*
X462926777Y-451777D01*
X462908599Y-468253D01*
X462888893Y-482868D01*
X462867850Y-495480D01*
X462845671Y-505970D01*
X462822572Y-514235D01*
X462798773Y-520196D01*
X462774505Y-523796D01*
X462750001Y-525000D01*
X461849999Y-525000D01*
X461825495Y-523796D01*
X461801227Y-520196D01*
X461777428Y-514235D01*
X461754329Y-505970D01*
X461732150Y-495480D01*
X461711107Y-482868D01*
X461691401Y-468253D01*
X461673223Y-451777D01*
X461656747Y-433599D01*
X461642132Y-413893D01*
X461629520Y-392850D01*
X461619030Y-370671D01*
X461610765Y-347572D01*
X461604804Y-323773D01*
X461601204Y-299505D01*
X461600000Y-275001D01*
X461600000Y375001D01*
X461601204Y399505D01*
X461604804Y423773D01*
X461610765Y447572D01*
X461619030Y470671D01*
X461629520Y492850D01*
X461642132Y513893D01*
X461656747Y533599D01*
X461673223Y551777D01*
X461691401Y568253D01*
X461711107Y582868D01*
X461732150Y595480D01*
X461754329Y605970D01*
X461777428Y614235D01*
X461801227Y620196D01*
X461825495Y623796D01*
X461849999Y625000D01*
X462750001Y625000D01*
X462774505Y623796D01*
G37*
G04 #@! TD.AperFunction*
G04 #@! TA.AperFunction,SMDPad,CuDef*
G36*
X462774505Y-1426204D02*
G01*
X462798773Y-1429804D01*
X462822572Y-1435765D01*
X462845671Y-1444030D01*
X462867850Y-1454520D01*
X462888893Y-1467132D01*
X462908599Y-1481747D01*
X462926777Y-1498223D01*
X462943253Y-1516401D01*
X462957868Y-1536107D01*
X462970480Y-1557150D01*
X462980970Y-1579329D01*
X462989235Y-1602428D01*
X462995196Y-1626227D01*
X462998796Y-1650495D01*
X463000000Y-1674999D01*
X463000000Y-2325001D01*
X462998796Y-2349505D01*
X462995196Y-2373773D01*
X462989235Y-2397572D01*
X462980970Y-2420671D01*
X462970480Y-2442850D01*
X462957868Y-2463893D01*
X462943253Y-2483599D01*
X462926777Y-2501777D01*
X462908599Y-2518253D01*
X462888893Y-2532868D01*
X462867850Y-2545480D01*
X462845671Y-2555970D01*
X462822572Y-2564235D01*
X462798773Y-2570196D01*
X462774505Y-2573796D01*
X462750001Y-2575000D01*
X461849999Y-2575000D01*
X461825495Y-2573796D01*
X461801227Y-2570196D01*
X461777428Y-2564235D01*
X461754329Y-2555970D01*
X461732150Y-2545480D01*
X461711107Y-2532868D01*
X461691401Y-2518253D01*
X461673223Y-2501777D01*
X461656747Y-2483599D01*
X461642132Y-2463893D01*
X461629520Y-2442850D01*
X461619030Y-2420671D01*
X461610765Y-2397572D01*
X461604804Y-2373773D01*
X461601204Y-2349505D01*
X461600000Y-2325001D01*
X461600000Y-1674999D01*
X461601204Y-1650495D01*
X461604804Y-1626227D01*
X461610765Y-1602428D01*
X461619030Y-1579329D01*
X461629520Y-1557150D01*
X461642132Y-1536107D01*
X461656747Y-1516401D01*
X461673223Y-1498223D01*
X461691401Y-1481747D01*
X461711107Y-1467132D01*
X461732150Y-1454520D01*
X461754329Y-1444030D01*
X461777428Y-1435765D01*
X461801227Y-1429804D01*
X461825495Y-1426204D01*
X461849999Y-1425000D01*
X462750001Y-1425000D01*
X462774505Y-1426204D01*
G37*
G04 #@! TD.AperFunction*
G04 #@! TA.AperFunction,SMDPad,CuDef*
G36*
X464874505Y623796D02*
G01*
X464898773Y620196D01*
X464922572Y614235D01*
X464945671Y605970D01*
X464967850Y595480D01*
X464988893Y582868D01*
X465008599Y568253D01*
X465026777Y551777D01*
X465043253Y533599D01*
X465057868Y513893D01*
X465070480Y492850D01*
X465080970Y470671D01*
X465089235Y447572D01*
X465095196Y423773D01*
X465098796Y399505D01*
X465100000Y375001D01*
X465100000Y-275001D01*
X465098796Y-299505D01*
X465095196Y-323773D01*
X465089235Y-347572D01*
X465080970Y-370671D01*
X465070480Y-392850D01*
X465057868Y-413893D01*
X465043253Y-433599D01*
X465026777Y-451777D01*
X465008599Y-468253D01*
X464988893Y-482868D01*
X464967850Y-495480D01*
X464945671Y-505970D01*
X464922572Y-514235D01*
X464898773Y-520196D01*
X464874505Y-523796D01*
X464850001Y-525000D01*
X463949999Y-525000D01*
X463925495Y-523796D01*
X463901227Y-520196D01*
X463877428Y-514235D01*
X463854329Y-505970D01*
X463832150Y-495480D01*
X463811107Y-482868D01*
X463791401Y-468253D01*
X463773223Y-451777D01*
X463756747Y-433599D01*
X463742132Y-413893D01*
X463729520Y-392850D01*
X463719030Y-370671D01*
X463710765Y-347572D01*
X463704804Y-323773D01*
X463701204Y-299505D01*
X463700000Y-275001D01*
X463700000Y375001D01*
X463701204Y399505D01*
X463704804Y423773D01*
X463710765Y447572D01*
X463719030Y470671D01*
X463729520Y492850D01*
X463742132Y513893D01*
X463756747Y533599D01*
X463773223Y551777D01*
X463791401Y568253D01*
X463811107Y582868D01*
X463832150Y595480D01*
X463854329Y605970D01*
X463877428Y614235D01*
X463901227Y620196D01*
X463925495Y623796D01*
X463949999Y625000D01*
X464850001Y625000D01*
X464874505Y623796D01*
G37*
G04 #@! TD.AperFunction*
G04 #@! TA.AperFunction,SMDPad,CuDef*
G36*
X464874505Y-1426204D02*
G01*
X464898773Y-1429804D01*
X464922572Y-1435765D01*
X464945671Y-1444030D01*
X464967850Y-1454520D01*
X464988893Y-1467132D01*
X465008599Y-1481747D01*
X465026777Y-1498223D01*
X465043253Y-1516401D01*
X465057868Y-1536107D01*
X465070480Y-1557150D01*
X465080970Y-1579329D01*
X465089235Y-1602428D01*
X465095196Y-1626227D01*
X465098796Y-1650495D01*
X465100000Y-1674999D01*
X465100000Y-2325001D01*
X465098796Y-2349505D01*
X465095196Y-2373773D01*
X465089235Y-2397572D01*
X465080970Y-2420671D01*
X465070480Y-2442850D01*
X465057868Y-2463893D01*
X465043253Y-2483599D01*
X465026777Y-2501777D01*
X465008599Y-2518253D01*
X464988893Y-2532868D01*
X464967850Y-2545480D01*
X464945671Y-2555970D01*
X464922572Y-2564235D01*
X464898773Y-2570196D01*
X464874505Y-2573796D01*
X464850001Y-2575000D01*
X463949999Y-2575000D01*
X463925495Y-2573796D01*
X463901227Y-2570196D01*
X463877428Y-2564235D01*
X463854329Y-2555970D01*
X463832150Y-2545480D01*
X463811107Y-2532868D01*
X463791401Y-2518253D01*
X463773223Y-2501777D01*
X463756747Y-2483599D01*
X463742132Y-2463893D01*
X463729520Y-2442850D01*
X463719030Y-2420671D01*
X463710765Y-2397572D01*
X463704804Y-2373773D01*
X463701204Y-2349505D01*
X463700000Y-2325001D01*
X463700000Y-1674999D01*
X463701204Y-1650495D01*
X463704804Y-1626227D01*
X463710765Y-1602428D01*
X463719030Y-1579329D01*
X463729520Y-1557150D01*
X463742132Y-1536107D01*
X463756747Y-1516401D01*
X463773223Y-1498223D01*
X463791401Y-1481747D01*
X463811107Y-1467132D01*
X463832150Y-1454520D01*
X463854329Y-1444030D01*
X463877428Y-1435765D01*
X463901227Y-1429804D01*
X463925495Y-1426204D01*
X463949999Y-1425000D01*
X464850001Y-1425000D01*
X464874505Y-1426204D01*
G37*
G04 #@! TD.AperFunction*
G04 #@! TA.AperFunction,SMDPad,CuDef*
G36*
X467674505Y-20126204D02*
G01*
X467698773Y-20129804D01*
X467722572Y-20135765D01*
X467745671Y-20144030D01*
X467767850Y-20154520D01*
X467788893Y-20167132D01*
X467808599Y-20181747D01*
X467826777Y-20198223D01*
X467843253Y-20216401D01*
X467857868Y-20236107D01*
X467870480Y-20257150D01*
X467880970Y-20279329D01*
X467889235Y-20302428D01*
X467895196Y-20326227D01*
X467898796Y-20350495D01*
X467900000Y-20374999D01*
X467900000Y-21025001D01*
X467898796Y-21049505D01*
X467895196Y-21073773D01*
X467889235Y-21097572D01*
X467880970Y-21120671D01*
X467870480Y-21142850D01*
X467857868Y-21163893D01*
X467843253Y-21183599D01*
X467826777Y-21201777D01*
X467808599Y-21218253D01*
X467788893Y-21232868D01*
X467767850Y-21245480D01*
X467745671Y-21255970D01*
X467722572Y-21264235D01*
X467698773Y-21270196D01*
X467674505Y-21273796D01*
X467650001Y-21275000D01*
X466749999Y-21275000D01*
X466725495Y-21273796D01*
X466701227Y-21270196D01*
X466677428Y-21264235D01*
X466654329Y-21255970D01*
X466632150Y-21245480D01*
X466611107Y-21232868D01*
X466591401Y-21218253D01*
X466573223Y-21201777D01*
X466556747Y-21183599D01*
X466542132Y-21163893D01*
X466529520Y-21142850D01*
X466519030Y-21120671D01*
X466510765Y-21097572D01*
X466504804Y-21073773D01*
X466501204Y-21049505D01*
X466500000Y-21025001D01*
X466500000Y-20374999D01*
X466501204Y-20350495D01*
X466504804Y-20326227D01*
X466510765Y-20302428D01*
X466519030Y-20279329D01*
X466529520Y-20257150D01*
X466542132Y-20236107D01*
X466556747Y-20216401D01*
X466573223Y-20198223D01*
X466591401Y-20181747D01*
X466611107Y-20167132D01*
X466632150Y-20154520D01*
X466654329Y-20144030D01*
X466677428Y-20135765D01*
X466701227Y-20129804D01*
X466725495Y-20126204D01*
X466749999Y-20125000D01*
X467650001Y-20125000D01*
X467674505Y-20126204D01*
G37*
G04 #@! TD.AperFunction*
G04 #@! TA.AperFunction,SMDPad,CuDef*
G36*
X467674505Y-22176204D02*
G01*
X467698773Y-22179804D01*
X467722572Y-22185765D01*
X467745671Y-22194030D01*
X467767850Y-22204520D01*
X467788893Y-22217132D01*
X467808599Y-22231747D01*
X467826777Y-22248223D01*
X467843253Y-22266401D01*
X467857868Y-22286107D01*
X467870480Y-22307150D01*
X467880970Y-22329329D01*
X467889235Y-22352428D01*
X467895196Y-22376227D01*
X467898796Y-22400495D01*
X467900000Y-22424999D01*
X467900000Y-23075001D01*
X467898796Y-23099505D01*
X467895196Y-23123773D01*
X467889235Y-23147572D01*
X467880970Y-23170671D01*
X467870480Y-23192850D01*
X467857868Y-23213893D01*
X467843253Y-23233599D01*
X467826777Y-23251777D01*
X467808599Y-23268253D01*
X467788893Y-23282868D01*
X467767850Y-23295480D01*
X467745671Y-23305970D01*
X467722572Y-23314235D01*
X467698773Y-23320196D01*
X467674505Y-23323796D01*
X467650001Y-23325000D01*
X466749999Y-23325000D01*
X466725495Y-23323796D01*
X466701227Y-23320196D01*
X466677428Y-23314235D01*
X466654329Y-23305970D01*
X466632150Y-23295480D01*
X466611107Y-23282868D01*
X466591401Y-23268253D01*
X466573223Y-23251777D01*
X466556747Y-23233599D01*
X466542132Y-23213893D01*
X466529520Y-23192850D01*
X466519030Y-23170671D01*
X466510765Y-23147572D01*
X466504804Y-23123773D01*
X466501204Y-23099505D01*
X466500000Y-23075001D01*
X466500000Y-22424999D01*
X466501204Y-22400495D01*
X466504804Y-22376227D01*
X466510765Y-22352428D01*
X466519030Y-22329329D01*
X466529520Y-22307150D01*
X466542132Y-22286107D01*
X466556747Y-22266401D01*
X466573223Y-22248223D01*
X466591401Y-22231747D01*
X466611107Y-22217132D01*
X466632150Y-22204520D01*
X466654329Y-22194030D01*
X466677428Y-22185765D01*
X466701227Y-22179804D01*
X466725495Y-22176204D01*
X466749999Y-22175000D01*
X467650001Y-22175000D01*
X467674505Y-22176204D01*
G37*
G04 #@! TD.AperFunction*
G04 #@! TA.AperFunction,SMDPad,CuDef*
G36*
X476774505Y14073796D02*
G01*
X476798773Y14070196D01*
X476822572Y14064235D01*
X476845671Y14055970D01*
X476867850Y14045480D01*
X476888893Y14032868D01*
X476908599Y14018253D01*
X476926777Y14001777D01*
X476943253Y13983599D01*
X476957868Y13963893D01*
X476970480Y13942850D01*
X476980970Y13920671D01*
X476989235Y13897572D01*
X476995196Y13873773D01*
X476998796Y13849505D01*
X477000000Y13825001D01*
X477000000Y13174999D01*
X476998796Y13150495D01*
X476995196Y13126227D01*
X476989235Y13102428D01*
X476980970Y13079329D01*
X476970480Y13057150D01*
X476957868Y13036107D01*
X476943253Y13016401D01*
X476926777Y12998223D01*
X476908599Y12981747D01*
X476888893Y12967132D01*
X476867850Y12954520D01*
X476845671Y12944030D01*
X476822572Y12935765D01*
X476798773Y12929804D01*
X476774505Y12926204D01*
X476750001Y12925000D01*
X475849999Y12925000D01*
X475825495Y12926204D01*
X475801227Y12929804D01*
X475777428Y12935765D01*
X475754329Y12944030D01*
X475732150Y12954520D01*
X475711107Y12967132D01*
X475691401Y12981747D01*
X475673223Y12998223D01*
X475656747Y13016401D01*
X475642132Y13036107D01*
X475629520Y13057150D01*
X475619030Y13079329D01*
X475610765Y13102428D01*
X475604804Y13126227D01*
X475601204Y13150495D01*
X475600000Y13174999D01*
X475600000Y13825001D01*
X475601204Y13849505D01*
X475604804Y13873773D01*
X475610765Y13897572D01*
X475619030Y13920671D01*
X475629520Y13942850D01*
X475642132Y13963893D01*
X475656747Y13983599D01*
X475673223Y14001777D01*
X475691401Y14018253D01*
X475711107Y14032868D01*
X475732150Y14045480D01*
X475754329Y14055970D01*
X475777428Y14064235D01*
X475801227Y14070196D01*
X475825495Y14073796D01*
X475849999Y14075000D01*
X476750001Y14075000D01*
X476774505Y14073796D01*
G37*
G04 #@! TD.AperFunction*
G04 #@! TA.AperFunction,SMDPad,CuDef*
G36*
X476774505Y12023796D02*
G01*
X476798773Y12020196D01*
X476822572Y12014235D01*
X476845671Y12005970D01*
X476867850Y11995480D01*
X476888893Y11982868D01*
X476908599Y11968253D01*
X476926777Y11951777D01*
X476943253Y11933599D01*
X476957868Y11913893D01*
X476970480Y11892850D01*
X476980970Y11870671D01*
X476989235Y11847572D01*
X476995196Y11823773D01*
X476998796Y11799505D01*
X477000000Y11775001D01*
X477000000Y11124999D01*
X476998796Y11100495D01*
X476995196Y11076227D01*
X476989235Y11052428D01*
X476980970Y11029329D01*
X476970480Y11007150D01*
X476957868Y10986107D01*
X476943253Y10966401D01*
X476926777Y10948223D01*
X476908599Y10931747D01*
X476888893Y10917132D01*
X476867850Y10904520D01*
X476845671Y10894030D01*
X476822572Y10885765D01*
X476798773Y10879804D01*
X476774505Y10876204D01*
X476750001Y10875000D01*
X475849999Y10875000D01*
X475825495Y10876204D01*
X475801227Y10879804D01*
X475777428Y10885765D01*
X475754329Y10894030D01*
X475732150Y10904520D01*
X475711107Y10917132D01*
X475691401Y10931747D01*
X475673223Y10948223D01*
X475656747Y10966401D01*
X475642132Y10986107D01*
X475629520Y11007150D01*
X475619030Y11029329D01*
X475610765Y11052428D01*
X475604804Y11076227D01*
X475601204Y11100495D01*
X475600000Y11124999D01*
X475600000Y11775001D01*
X475601204Y11799505D01*
X475604804Y11823773D01*
X475610765Y11847572D01*
X475619030Y11870671D01*
X475629520Y11892850D01*
X475642132Y11913893D01*
X475656747Y11933599D01*
X475673223Y11951777D01*
X475691401Y11968253D01*
X475711107Y11982868D01*
X475732150Y11995480D01*
X475754329Y12005970D01*
X475777428Y12014235D01*
X475801227Y12020196D01*
X475825495Y12023796D01*
X475849999Y12025000D01*
X476750001Y12025000D01*
X476774505Y12023796D01*
G37*
G04 #@! TD.AperFunction*
G04 #@! TA.AperFunction,SMDPad,CuDef*
G36*
X472374504Y14898796D02*
G01*
X472398773Y14895196D01*
X472422571Y14889235D01*
X472445671Y14880970D01*
X472467849Y14870480D01*
X472488893Y14857867D01*
X472508598Y14843253D01*
X472526777Y14826777D01*
X472543253Y14808598D01*
X472557867Y14788893D01*
X472570480Y14767849D01*
X472580970Y14745671D01*
X472589235Y14722571D01*
X472595196Y14698773D01*
X472598796Y14674504D01*
X472600000Y14650000D01*
X472600000Y12550000D01*
X472598796Y12525496D01*
X472595196Y12501227D01*
X472589235Y12477429D01*
X472580970Y12454329D01*
X472570480Y12432151D01*
X472557867Y12411107D01*
X472543253Y12391402D01*
X472526777Y12373223D01*
X472508598Y12356747D01*
X472488893Y12342133D01*
X472467849Y12329520D01*
X472445671Y12319030D01*
X472422571Y12310765D01*
X472398773Y12304804D01*
X472374504Y12301204D01*
X472350000Y12300000D01*
X471250000Y12300000D01*
X471225496Y12301204D01*
X471201227Y12304804D01*
X471177429Y12310765D01*
X471154329Y12319030D01*
X471132151Y12329520D01*
X471111107Y12342133D01*
X471091402Y12356747D01*
X471073223Y12373223D01*
X471056747Y12391402D01*
X471042133Y12411107D01*
X471029520Y12432151D01*
X471019030Y12454329D01*
X471010765Y12477429D01*
X471004804Y12501227D01*
X471001204Y12525496D01*
X471000000Y12550000D01*
X471000000Y14650000D01*
X471001204Y14674504D01*
X471004804Y14698773D01*
X471010765Y14722571D01*
X471019030Y14745671D01*
X471029520Y14767849D01*
X471042133Y14788893D01*
X471056747Y14808598D01*
X471073223Y14826777D01*
X471091402Y14843253D01*
X471111107Y14857867D01*
X471132151Y14870480D01*
X471154329Y14880970D01*
X471177429Y14889235D01*
X471201227Y14895196D01*
X471225496Y14898796D01*
X471250000Y14900000D01*
X472350000Y14900000D01*
X472374504Y14898796D01*
G37*
G04 #@! TD.AperFunction*
G04 #@! TA.AperFunction,SMDPad,CuDef*
G36*
X472374504Y11298796D02*
G01*
X472398773Y11295196D01*
X472422571Y11289235D01*
X472445671Y11280970D01*
X472467849Y11270480D01*
X472488893Y11257867D01*
X472508598Y11243253D01*
X472526777Y11226777D01*
X472543253Y11208598D01*
X472557867Y11188893D01*
X472570480Y11167849D01*
X472580970Y11145671D01*
X472589235Y11122571D01*
X472595196Y11098773D01*
X472598796Y11074504D01*
X472600000Y11050000D01*
X472600000Y8950000D01*
X472598796Y8925496D01*
X472595196Y8901227D01*
X472589235Y8877429D01*
X472580970Y8854329D01*
X472570480Y8832151D01*
X472557867Y8811107D01*
X472543253Y8791402D01*
X472526777Y8773223D01*
X472508598Y8756747D01*
X472488893Y8742133D01*
X472467849Y8729520D01*
X472445671Y8719030D01*
X472422571Y8710765D01*
X472398773Y8704804D01*
X472374504Y8701204D01*
X472350000Y8700000D01*
X471250000Y8700000D01*
X471225496Y8701204D01*
X471201227Y8704804D01*
X471177429Y8710765D01*
X471154329Y8719030D01*
X471132151Y8729520D01*
X471111107Y8742133D01*
X471091402Y8756747D01*
X471073223Y8773223D01*
X471056747Y8791402D01*
X471042133Y8811107D01*
X471029520Y8832151D01*
X471019030Y8854329D01*
X471010765Y8877429D01*
X471004804Y8901227D01*
X471001204Y8925496D01*
X471000000Y8950000D01*
X471000000Y11050000D01*
X471001204Y11074504D01*
X471004804Y11098773D01*
X471010765Y11122571D01*
X471019030Y11145671D01*
X471029520Y11167849D01*
X471042133Y11188893D01*
X471056747Y11208598D01*
X471073223Y11226777D01*
X471091402Y11243253D01*
X471111107Y11257867D01*
X471132151Y11270480D01*
X471154329Y11280970D01*
X471177429Y11289235D01*
X471201227Y11295196D01*
X471225496Y11298796D01*
X471250000Y11300000D01*
X472350000Y11300000D01*
X472374504Y11298796D01*
G37*
G04 #@! TD.AperFunction*
G04 #@! TA.AperFunction,SMDPad,CuDef*
G36*
X467174505Y14773796D02*
G01*
X467198773Y14770196D01*
X467222572Y14764235D01*
X467245671Y14755970D01*
X467267850Y14745480D01*
X467288893Y14732868D01*
X467308599Y14718253D01*
X467326777Y14701777D01*
X467343253Y14683599D01*
X467357868Y14663893D01*
X467370480Y14642850D01*
X467380970Y14620671D01*
X467389235Y14597572D01*
X467395196Y14573773D01*
X467398796Y14549505D01*
X467400000Y14525001D01*
X467400000Y13874999D01*
X467398796Y13850495D01*
X467395196Y13826227D01*
X467389235Y13802428D01*
X467380970Y13779329D01*
X467370480Y13757150D01*
X467357868Y13736107D01*
X467343253Y13716401D01*
X467326777Y13698223D01*
X467308599Y13681747D01*
X467288893Y13667132D01*
X467267850Y13654520D01*
X467245671Y13644030D01*
X467222572Y13635765D01*
X467198773Y13629804D01*
X467174505Y13626204D01*
X467150001Y13625000D01*
X466249999Y13625000D01*
X466225495Y13626204D01*
X466201227Y13629804D01*
X466177428Y13635765D01*
X466154329Y13644030D01*
X466132150Y13654520D01*
X466111107Y13667132D01*
X466091401Y13681747D01*
X466073223Y13698223D01*
X466056747Y13716401D01*
X466042132Y13736107D01*
X466029520Y13757150D01*
X466019030Y13779329D01*
X466010765Y13802428D01*
X466004804Y13826227D01*
X466001204Y13850495D01*
X466000000Y13874999D01*
X466000000Y14525001D01*
X466001204Y14549505D01*
X466004804Y14573773D01*
X466010765Y14597572D01*
X466019030Y14620671D01*
X466029520Y14642850D01*
X466042132Y14663893D01*
X466056747Y14683599D01*
X466073223Y14701777D01*
X466091401Y14718253D01*
X466111107Y14732868D01*
X466132150Y14745480D01*
X466154329Y14755970D01*
X466177428Y14764235D01*
X466201227Y14770196D01*
X466225495Y14773796D01*
X466249999Y14775000D01*
X467150001Y14775000D01*
X467174505Y14773796D01*
G37*
G04 #@! TD.AperFunction*
G04 #@! TA.AperFunction,SMDPad,CuDef*
G36*
X467174505Y12723796D02*
G01*
X467198773Y12720196D01*
X467222572Y12714235D01*
X467245671Y12705970D01*
X467267850Y12695480D01*
X467288893Y12682868D01*
X467308599Y12668253D01*
X467326777Y12651777D01*
X467343253Y12633599D01*
X467357868Y12613893D01*
X467370480Y12592850D01*
X467380970Y12570671D01*
X467389235Y12547572D01*
X467395196Y12523773D01*
X467398796Y12499505D01*
X467400000Y12475001D01*
X467400000Y11824999D01*
X467398796Y11800495D01*
X467395196Y11776227D01*
X467389235Y11752428D01*
X467380970Y11729329D01*
X467370480Y11707150D01*
X467357868Y11686107D01*
X467343253Y11666401D01*
X467326777Y11648223D01*
X467308599Y11631747D01*
X467288893Y11617132D01*
X467267850Y11604520D01*
X467245671Y11594030D01*
X467222572Y11585765D01*
X467198773Y11579804D01*
X467174505Y11576204D01*
X467150001Y11575000D01*
X466249999Y11575000D01*
X466225495Y11576204D01*
X466201227Y11579804D01*
X466177428Y11585765D01*
X466154329Y11594030D01*
X466132150Y11604520D01*
X466111107Y11617132D01*
X466091401Y11631747D01*
X466073223Y11648223D01*
X466056747Y11666401D01*
X466042132Y11686107D01*
X466029520Y11707150D01*
X466019030Y11729329D01*
X466010765Y11752428D01*
X466004804Y11776227D01*
X466001204Y11800495D01*
X466000000Y11824999D01*
X466000000Y12475001D01*
X466001204Y12499505D01*
X466004804Y12523773D01*
X466010765Y12547572D01*
X466019030Y12570671D01*
X466029520Y12592850D01*
X466042132Y12613893D01*
X466056747Y12633599D01*
X466073223Y12651777D01*
X466091401Y12668253D01*
X466111107Y12682868D01*
X466132150Y12695480D01*
X466154329Y12705970D01*
X466177428Y12714235D01*
X466201227Y12720196D01*
X466225495Y12723796D01*
X466249999Y12725000D01*
X467150001Y12725000D01*
X467174505Y12723796D01*
G37*
G04 #@! TD.AperFunction*
G04 #@! TA.AperFunction,SMDPad,CuDef*
G36*
X452474505Y998796D02*
G01*
X452498773Y995196D01*
X452522572Y989235D01*
X452545671Y980970D01*
X452567850Y970480D01*
X452588893Y957868D01*
X452608599Y943253D01*
X452626777Y926777D01*
X452643253Y908599D01*
X452657868Y888893D01*
X452670480Y867850D01*
X452680970Y845671D01*
X452689235Y822572D01*
X452695196Y798773D01*
X452698796Y774505D01*
X452700000Y750001D01*
X452700000Y-150001D01*
X452698796Y-174505D01*
X452695196Y-198773D01*
X452689235Y-222572D01*
X452680970Y-245671D01*
X452670480Y-267850D01*
X452657868Y-288893D01*
X452643253Y-308599D01*
X452626777Y-326777D01*
X452608599Y-343253D01*
X452588893Y-357868D01*
X452567850Y-370480D01*
X452545671Y-380970D01*
X452522572Y-389235D01*
X452498773Y-395196D01*
X452474505Y-398796D01*
X452450001Y-400000D01*
X451799999Y-400000D01*
X451775495Y-398796D01*
X451751227Y-395196D01*
X451727428Y-389235D01*
X451704329Y-380970D01*
X451682150Y-370480D01*
X451661107Y-357868D01*
X451641401Y-343253D01*
X451623223Y-326777D01*
X451606747Y-308599D01*
X451592132Y-288893D01*
X451579520Y-267850D01*
X451569030Y-245671D01*
X451560765Y-222572D01*
X451554804Y-198773D01*
X451551204Y-174505D01*
X451550000Y-150001D01*
X451550000Y750001D01*
X451551204Y774505D01*
X451554804Y798773D01*
X451560765Y822572D01*
X451569030Y845671D01*
X451579520Y867850D01*
X451592132Y888893D01*
X451606747Y908599D01*
X451623223Y926777D01*
X451641401Y943253D01*
X451661107Y957868D01*
X451682150Y970480D01*
X451704329Y980970D01*
X451727428Y989235D01*
X451751227Y995196D01*
X451775495Y998796D01*
X451799999Y1000000D01*
X452450001Y1000000D01*
X452474505Y998796D01*
G37*
G04 #@! TD.AperFunction*
G04 #@! TA.AperFunction,SMDPad,CuDef*
G36*
X450424505Y998796D02*
G01*
X450448773Y995196D01*
X450472572Y989235D01*
X450495671Y980970D01*
X450517850Y970480D01*
X450538893Y957868D01*
X450558599Y943253D01*
X450576777Y926777D01*
X450593253Y908599D01*
X450607868Y888893D01*
X450620480Y867850D01*
X450630970Y845671D01*
X450639235Y822572D01*
X450645196Y798773D01*
X450648796Y774505D01*
X450650000Y750001D01*
X450650000Y-150001D01*
X450648796Y-174505D01*
X450645196Y-198773D01*
X450639235Y-222572D01*
X450630970Y-245671D01*
X450620480Y-267850D01*
X450607868Y-288893D01*
X450593253Y-308599D01*
X450576777Y-326777D01*
X450558599Y-343253D01*
X450538893Y-357868D01*
X450517850Y-370480D01*
X450495671Y-380970D01*
X450472572Y-389235D01*
X450448773Y-395196D01*
X450424505Y-398796D01*
X450400001Y-400000D01*
X449749999Y-400000D01*
X449725495Y-398796D01*
X449701227Y-395196D01*
X449677428Y-389235D01*
X449654329Y-380970D01*
X449632150Y-370480D01*
X449611107Y-357868D01*
X449591401Y-343253D01*
X449573223Y-326777D01*
X449556747Y-308599D01*
X449542132Y-288893D01*
X449529520Y-267850D01*
X449519030Y-245671D01*
X449510765Y-222572D01*
X449504804Y-198773D01*
X449501204Y-174505D01*
X449500000Y-150001D01*
X449500000Y750001D01*
X449501204Y774505D01*
X449504804Y798773D01*
X449510765Y822572D01*
X449519030Y845671D01*
X449529520Y867850D01*
X449542132Y888893D01*
X449556747Y908599D01*
X449573223Y926777D01*
X449591401Y943253D01*
X449611107Y957868D01*
X449632150Y970480D01*
X449654329Y980970D01*
X449677428Y989235D01*
X449701227Y995196D01*
X449725495Y998796D01*
X449749999Y1000000D01*
X450400001Y1000000D01*
X450424505Y998796D01*
G37*
G04 #@! TD.AperFunction*
G04 #@! TA.AperFunction,SMDPad,CuDef*
G36*
X453874504Y-4401204D02*
G01*
X453898773Y-4404804D01*
X453922571Y-4410765D01*
X453945671Y-4419030D01*
X453967849Y-4429520D01*
X453988893Y-4442133D01*
X454008598Y-4456747D01*
X454026777Y-4473223D01*
X454043253Y-4491402D01*
X454057867Y-4511107D01*
X454070480Y-4532151D01*
X454080970Y-4554329D01*
X454089235Y-4577429D01*
X454095196Y-4601227D01*
X454098796Y-4625496D01*
X454100000Y-4650000D01*
X454100000Y-5750000D01*
X454098796Y-5774504D01*
X454095196Y-5798773D01*
X454089235Y-5822571D01*
X454080970Y-5845671D01*
X454070480Y-5867849D01*
X454057867Y-5888893D01*
X454043253Y-5908598D01*
X454026777Y-5926777D01*
X454008598Y-5943253D01*
X453988893Y-5957867D01*
X453967849Y-5970480D01*
X453945671Y-5980970D01*
X453922571Y-5989235D01*
X453898773Y-5995196D01*
X453874504Y-5998796D01*
X453850000Y-6000000D01*
X451750000Y-6000000D01*
X451725496Y-5998796D01*
X451701227Y-5995196D01*
X451677429Y-5989235D01*
X451654329Y-5980970D01*
X451632151Y-5970480D01*
X451611107Y-5957867D01*
X451591402Y-5943253D01*
X451573223Y-5926777D01*
X451556747Y-5908598D01*
X451542133Y-5888893D01*
X451529520Y-5867849D01*
X451519030Y-5845671D01*
X451510765Y-5822571D01*
X451504804Y-5798773D01*
X451501204Y-5774504D01*
X451500000Y-5750000D01*
X451500000Y-4650000D01*
X451501204Y-4625496D01*
X451504804Y-4601227D01*
X451510765Y-4577429D01*
X451519030Y-4554329D01*
X451529520Y-4532151D01*
X451542133Y-4511107D01*
X451556747Y-4491402D01*
X451573223Y-4473223D01*
X451591402Y-4456747D01*
X451611107Y-4442133D01*
X451632151Y-4429520D01*
X451654329Y-4419030D01*
X451677429Y-4410765D01*
X451701227Y-4404804D01*
X451725496Y-4401204D01*
X451750000Y-4400000D01*
X453850000Y-4400000D01*
X453874504Y-4401204D01*
G37*
G04 #@! TD.AperFunction*
G04 #@! TA.AperFunction,SMDPad,CuDef*
G36*
X450274504Y-4401204D02*
G01*
X450298773Y-4404804D01*
X450322571Y-4410765D01*
X450345671Y-4419030D01*
X450367849Y-4429520D01*
X450388893Y-4442133D01*
X450408598Y-4456747D01*
X450426777Y-4473223D01*
X450443253Y-4491402D01*
X450457867Y-4511107D01*
X450470480Y-4532151D01*
X450480970Y-4554329D01*
X450489235Y-4577429D01*
X450495196Y-4601227D01*
X450498796Y-4625496D01*
X450500000Y-4650000D01*
X450500000Y-5750000D01*
X450498796Y-5774504D01*
X450495196Y-5798773D01*
X450489235Y-5822571D01*
X450480970Y-5845671D01*
X450470480Y-5867849D01*
X450457867Y-5888893D01*
X450443253Y-5908598D01*
X450426777Y-5926777D01*
X450408598Y-5943253D01*
X450388893Y-5957867D01*
X450367849Y-5970480D01*
X450345671Y-5980970D01*
X450322571Y-5989235D01*
X450298773Y-5995196D01*
X450274504Y-5998796D01*
X450250000Y-6000000D01*
X448150000Y-6000000D01*
X448125496Y-5998796D01*
X448101227Y-5995196D01*
X448077429Y-5989235D01*
X448054329Y-5980970D01*
X448032151Y-5970480D01*
X448011107Y-5957867D01*
X447991402Y-5943253D01*
X447973223Y-5926777D01*
X447956747Y-5908598D01*
X447942133Y-5888893D01*
X447929520Y-5867849D01*
X447919030Y-5845671D01*
X447910765Y-5822571D01*
X447904804Y-5798773D01*
X447901204Y-5774504D01*
X447900000Y-5750000D01*
X447900000Y-4650000D01*
X447901204Y-4625496D01*
X447904804Y-4601227D01*
X447910765Y-4577429D01*
X447919030Y-4554329D01*
X447929520Y-4532151D01*
X447942133Y-4511107D01*
X447956747Y-4491402D01*
X447973223Y-4473223D01*
X447991402Y-4456747D01*
X448011107Y-4442133D01*
X448032151Y-4429520D01*
X448054329Y-4419030D01*
X448077429Y-4410765D01*
X448101227Y-4404804D01*
X448125496Y-4401204D01*
X448150000Y-4400000D01*
X450250000Y-4400000D01*
X450274504Y-4401204D01*
G37*
G04 #@! TD.AperFunction*
D17*
X482037500Y11800000D03*
D18*
X479337500Y8300000D03*
D19*
X479337500Y10150000D03*
X479337500Y9500000D03*
X479337500Y12100000D03*
X479337500Y11450000D03*
X479337500Y10800000D03*
D18*
X479337500Y13300000D03*
D17*
X482037500Y9800000D03*
D20*
X482037500Y7300000D03*
X482037500Y14300000D03*
D21*
X482037500Y13700000D03*
X482037500Y7900000D03*
G04 #@! TA.AperFunction,SMDPad,CuDef*
D16*
G36*
X473574505Y-18076204D02*
G01*
X473598773Y-18079804D01*
X473622572Y-18085765D01*
X473645671Y-18094030D01*
X473667850Y-18104520D01*
X473688893Y-18117132D01*
X473708599Y-18131747D01*
X473726777Y-18148223D01*
X473743253Y-18166401D01*
X473757868Y-18186107D01*
X473770480Y-18207150D01*
X473780970Y-18229329D01*
X473789235Y-18252428D01*
X473795196Y-18276227D01*
X473798796Y-18300495D01*
X473800000Y-18324999D01*
X473800000Y-18975001D01*
X473798796Y-18999505D01*
X473795196Y-19023773D01*
X473789235Y-19047572D01*
X473780970Y-19070671D01*
X473770480Y-19092850D01*
X473757868Y-19113893D01*
X473743253Y-19133599D01*
X473726777Y-19151777D01*
X473708599Y-19168253D01*
X473688893Y-19182868D01*
X473667850Y-19195480D01*
X473645671Y-19205970D01*
X473622572Y-19214235D01*
X473598773Y-19220196D01*
X473574505Y-19223796D01*
X473550001Y-19225000D01*
X472649999Y-19225000D01*
X472625495Y-19223796D01*
X472601227Y-19220196D01*
X472577428Y-19214235D01*
X472554329Y-19205970D01*
X472532150Y-19195480D01*
X472511107Y-19182868D01*
X472491401Y-19168253D01*
X472473223Y-19151777D01*
X472456747Y-19133599D01*
X472442132Y-19113893D01*
X472429520Y-19092850D01*
X472419030Y-19070671D01*
X472410765Y-19047572D01*
X472404804Y-19023773D01*
X472401204Y-18999505D01*
X472400000Y-18975001D01*
X472400000Y-18324999D01*
X472401204Y-18300495D01*
X472404804Y-18276227D01*
X472410765Y-18252428D01*
X472419030Y-18229329D01*
X472429520Y-18207150D01*
X472442132Y-18186107D01*
X472456747Y-18166401D01*
X472473223Y-18148223D01*
X472491401Y-18131747D01*
X472511107Y-18117132D01*
X472532150Y-18104520D01*
X472554329Y-18094030D01*
X472577428Y-18085765D01*
X472601227Y-18079804D01*
X472625495Y-18076204D01*
X472649999Y-18075000D01*
X473550001Y-18075000D01*
X473574505Y-18076204D01*
G37*
G04 #@! TD.AperFunction*
G04 #@! TA.AperFunction,SMDPad,CuDef*
G36*
X473574505Y-20126204D02*
G01*
X473598773Y-20129804D01*
X473622572Y-20135765D01*
X473645671Y-20144030D01*
X473667850Y-20154520D01*
X473688893Y-20167132D01*
X473708599Y-20181747D01*
X473726777Y-20198223D01*
X473743253Y-20216401D01*
X473757868Y-20236107D01*
X473770480Y-20257150D01*
X473780970Y-20279329D01*
X473789235Y-20302428D01*
X473795196Y-20326227D01*
X473798796Y-20350495D01*
X473800000Y-20374999D01*
X473800000Y-21025001D01*
X473798796Y-21049505D01*
X473795196Y-21073773D01*
X473789235Y-21097572D01*
X473780970Y-21120671D01*
X473770480Y-21142850D01*
X473757868Y-21163893D01*
X473743253Y-21183599D01*
X473726777Y-21201777D01*
X473708599Y-21218253D01*
X473688893Y-21232868D01*
X473667850Y-21245480D01*
X473645671Y-21255970D01*
X473622572Y-21264235D01*
X473598773Y-21270196D01*
X473574505Y-21273796D01*
X473550001Y-21275000D01*
X472649999Y-21275000D01*
X472625495Y-21273796D01*
X472601227Y-21270196D01*
X472577428Y-21264235D01*
X472554329Y-21255970D01*
X472532150Y-21245480D01*
X472511107Y-21232868D01*
X472491401Y-21218253D01*
X472473223Y-21201777D01*
X472456747Y-21183599D01*
X472442132Y-21163893D01*
X472429520Y-21142850D01*
X472419030Y-21120671D01*
X472410765Y-21097572D01*
X472404804Y-21073773D01*
X472401204Y-21049505D01*
X472400000Y-21025001D01*
X472400000Y-20374999D01*
X472401204Y-20350495D01*
X472404804Y-20326227D01*
X472410765Y-20302428D01*
X472419030Y-20279329D01*
X472429520Y-20257150D01*
X472442132Y-20236107D01*
X472456747Y-20216401D01*
X472473223Y-20198223D01*
X472491401Y-20181747D01*
X472511107Y-20167132D01*
X472532150Y-20154520D01*
X472554329Y-20144030D01*
X472577428Y-20135765D01*
X472601227Y-20129804D01*
X472625495Y-20126204D01*
X472649999Y-20125000D01*
X473550001Y-20125000D01*
X473574505Y-20126204D01*
G37*
G04 #@! TD.AperFunction*
G04 #@! TA.AperFunction,SMDPad,CuDef*
G36*
X475324505Y-10501204D02*
G01*
X475348773Y-10504804D01*
X475372572Y-10510765D01*
X475395671Y-10519030D01*
X475417850Y-10529520D01*
X475438893Y-10542132D01*
X475458599Y-10556747D01*
X475476777Y-10573223D01*
X475493253Y-10591401D01*
X475507868Y-10611107D01*
X475520480Y-10632150D01*
X475530970Y-10654329D01*
X475539235Y-10677428D01*
X475545196Y-10701227D01*
X475548796Y-10725495D01*
X475550000Y-10749999D01*
X475550000Y-11650001D01*
X475548796Y-11674505D01*
X475545196Y-11698773D01*
X475539235Y-11722572D01*
X475530970Y-11745671D01*
X475520480Y-11767850D01*
X475507868Y-11788893D01*
X475493253Y-11808599D01*
X475476777Y-11826777D01*
X475458599Y-11843253D01*
X475438893Y-11857868D01*
X475417850Y-11870480D01*
X475395671Y-11880970D01*
X475372572Y-11889235D01*
X475348773Y-11895196D01*
X475324505Y-11898796D01*
X475300001Y-11900000D01*
X474649999Y-11900000D01*
X474625495Y-11898796D01*
X474601227Y-11895196D01*
X474577428Y-11889235D01*
X474554329Y-11880970D01*
X474532150Y-11870480D01*
X474511107Y-11857868D01*
X474491401Y-11843253D01*
X474473223Y-11826777D01*
X474456747Y-11808599D01*
X474442132Y-11788893D01*
X474429520Y-11767850D01*
X474419030Y-11745671D01*
X474410765Y-11722572D01*
X474404804Y-11698773D01*
X474401204Y-11674505D01*
X474400000Y-11650001D01*
X474400000Y-10749999D01*
X474401204Y-10725495D01*
X474404804Y-10701227D01*
X474410765Y-10677428D01*
X474419030Y-10654329D01*
X474429520Y-10632150D01*
X474442132Y-10611107D01*
X474456747Y-10591401D01*
X474473223Y-10573223D01*
X474491401Y-10556747D01*
X474511107Y-10542132D01*
X474532150Y-10529520D01*
X474554329Y-10519030D01*
X474577428Y-10510765D01*
X474601227Y-10504804D01*
X474625495Y-10501204D01*
X474649999Y-10500000D01*
X475300001Y-10500000D01*
X475324505Y-10501204D01*
G37*
G04 #@! TD.AperFunction*
G04 #@! TA.AperFunction,SMDPad,CuDef*
G36*
X477374505Y-10501204D02*
G01*
X477398773Y-10504804D01*
X477422572Y-10510765D01*
X477445671Y-10519030D01*
X477467850Y-10529520D01*
X477488893Y-10542132D01*
X477508599Y-10556747D01*
X477526777Y-10573223D01*
X477543253Y-10591401D01*
X477557868Y-10611107D01*
X477570480Y-10632150D01*
X477580970Y-10654329D01*
X477589235Y-10677428D01*
X477595196Y-10701227D01*
X477598796Y-10725495D01*
X477600000Y-10749999D01*
X477600000Y-11650001D01*
X477598796Y-11674505D01*
X477595196Y-11698773D01*
X477589235Y-11722572D01*
X477580970Y-11745671D01*
X477570480Y-11767850D01*
X477557868Y-11788893D01*
X477543253Y-11808599D01*
X477526777Y-11826777D01*
X477508599Y-11843253D01*
X477488893Y-11857868D01*
X477467850Y-11870480D01*
X477445671Y-11880970D01*
X477422572Y-11889235D01*
X477398773Y-11895196D01*
X477374505Y-11898796D01*
X477350001Y-11900000D01*
X476699999Y-11900000D01*
X476675495Y-11898796D01*
X476651227Y-11895196D01*
X476627428Y-11889235D01*
X476604329Y-11880970D01*
X476582150Y-11870480D01*
X476561107Y-11857868D01*
X476541401Y-11843253D01*
X476523223Y-11826777D01*
X476506747Y-11808599D01*
X476492132Y-11788893D01*
X476479520Y-11767850D01*
X476469030Y-11745671D01*
X476460765Y-11722572D01*
X476454804Y-11698773D01*
X476451204Y-11674505D01*
X476450000Y-11650001D01*
X476450000Y-10749999D01*
X476451204Y-10725495D01*
X476454804Y-10701227D01*
X476460765Y-10677428D01*
X476469030Y-10654329D01*
X476479520Y-10632150D01*
X476492132Y-10611107D01*
X476506747Y-10591401D01*
X476523223Y-10573223D01*
X476541401Y-10556747D01*
X476561107Y-10542132D01*
X476582150Y-10529520D01*
X476604329Y-10519030D01*
X476627428Y-10510765D01*
X476651227Y-10504804D01*
X476675495Y-10501204D01*
X476699999Y-10500000D01*
X477350001Y-10500000D01*
X477374505Y-10501204D01*
G37*
G04 #@! TD.AperFunction*
G04 #@! TA.AperFunction,SMDPad,CuDef*
G36*
X449199505Y9298796D02*
G01*
X449223773Y9295196D01*
X449247572Y9289235D01*
X449270671Y9280970D01*
X449292850Y9270480D01*
X449313893Y9257868D01*
X449333599Y9243253D01*
X449351777Y9226777D01*
X449368253Y9208599D01*
X449382868Y9188893D01*
X449395480Y9167850D01*
X449405970Y9145671D01*
X449414235Y9122572D01*
X449420196Y9098773D01*
X449423796Y9074505D01*
X449425000Y9050001D01*
X449425000Y8149999D01*
X449423796Y8125495D01*
X449420196Y8101227D01*
X449414235Y8077428D01*
X449405970Y8054329D01*
X449395480Y8032150D01*
X449382868Y8011107D01*
X449368253Y7991401D01*
X449351777Y7973223D01*
X449333599Y7956747D01*
X449313893Y7942132D01*
X449292850Y7929520D01*
X449270671Y7919030D01*
X449247572Y7910765D01*
X449223773Y7904804D01*
X449199505Y7901204D01*
X449175001Y7900000D01*
X448524999Y7900000D01*
X448500495Y7901204D01*
X448476227Y7904804D01*
X448452428Y7910765D01*
X448429329Y7919030D01*
X448407150Y7929520D01*
X448386107Y7942132D01*
X448366401Y7956747D01*
X448348223Y7973223D01*
X448331747Y7991401D01*
X448317132Y8011107D01*
X448304520Y8032150D01*
X448294030Y8054329D01*
X448285765Y8077428D01*
X448279804Y8101227D01*
X448276204Y8125495D01*
X448275000Y8149999D01*
X448275000Y9050001D01*
X448276204Y9074505D01*
X448279804Y9098773D01*
X448285765Y9122572D01*
X448294030Y9145671D01*
X448304520Y9167850D01*
X448317132Y9188893D01*
X448331747Y9208599D01*
X448348223Y9226777D01*
X448366401Y9243253D01*
X448386107Y9257868D01*
X448407150Y9270480D01*
X448429329Y9280970D01*
X448452428Y9289235D01*
X448476227Y9295196D01*
X448500495Y9298796D01*
X448524999Y9300000D01*
X449175001Y9300000D01*
X449199505Y9298796D01*
G37*
G04 #@! TD.AperFunction*
G04 #@! TA.AperFunction,SMDPad,CuDef*
G36*
X451249505Y9298796D02*
G01*
X451273773Y9295196D01*
X451297572Y9289235D01*
X451320671Y9280970D01*
X451342850Y9270480D01*
X451363893Y9257868D01*
X451383599Y9243253D01*
X451401777Y9226777D01*
X451418253Y9208599D01*
X451432868Y9188893D01*
X451445480Y9167850D01*
X451455970Y9145671D01*
X451464235Y9122572D01*
X451470196Y9098773D01*
X451473796Y9074505D01*
X451475000Y9050001D01*
X451475000Y8149999D01*
X451473796Y8125495D01*
X451470196Y8101227D01*
X451464235Y8077428D01*
X451455970Y8054329D01*
X451445480Y8032150D01*
X451432868Y8011107D01*
X451418253Y7991401D01*
X451401777Y7973223D01*
X451383599Y7956747D01*
X451363893Y7942132D01*
X451342850Y7929520D01*
X451320671Y7919030D01*
X451297572Y7910765D01*
X451273773Y7904804D01*
X451249505Y7901204D01*
X451225001Y7900000D01*
X450574999Y7900000D01*
X450550495Y7901204D01*
X450526227Y7904804D01*
X450502428Y7910765D01*
X450479329Y7919030D01*
X450457150Y7929520D01*
X450436107Y7942132D01*
X450416401Y7956747D01*
X450398223Y7973223D01*
X450381747Y7991401D01*
X450367132Y8011107D01*
X450354520Y8032150D01*
X450344030Y8054329D01*
X450335765Y8077428D01*
X450329804Y8101227D01*
X450326204Y8125495D01*
X450325000Y8149999D01*
X450325000Y9050001D01*
X450326204Y9074505D01*
X450329804Y9098773D01*
X450335765Y9122572D01*
X450344030Y9145671D01*
X450354520Y9167850D01*
X450367132Y9188893D01*
X450381747Y9208599D01*
X450398223Y9226777D01*
X450416401Y9243253D01*
X450436107Y9257868D01*
X450457150Y9270480D01*
X450479329Y9280970D01*
X450502428Y9289235D01*
X450526227Y9295196D01*
X450550495Y9298796D01*
X450574999Y9300000D01*
X451225001Y9300000D01*
X451249505Y9298796D01*
G37*
G04 #@! TD.AperFunction*
G04 #@! TA.AperFunction,SMDPad,CuDef*
G36*
X450949505Y13398796D02*
G01*
X450973773Y13395196D01*
X450997572Y13389235D01*
X451020671Y13380970D01*
X451042850Y13370480D01*
X451063893Y13357868D01*
X451083599Y13343253D01*
X451101777Y13326777D01*
X451118253Y13308599D01*
X451132868Y13288893D01*
X451145480Y13267850D01*
X451155970Y13245671D01*
X451164235Y13222572D01*
X451170196Y13198773D01*
X451173796Y13174505D01*
X451175000Y13150001D01*
X451175000Y12249999D01*
X451173796Y12225495D01*
X451170196Y12201227D01*
X451164235Y12177428D01*
X451155970Y12154329D01*
X451145480Y12132150D01*
X451132868Y12111107D01*
X451118253Y12091401D01*
X451101777Y12073223D01*
X451083599Y12056747D01*
X451063893Y12042132D01*
X451042850Y12029520D01*
X451020671Y12019030D01*
X450997572Y12010765D01*
X450973773Y12004804D01*
X450949505Y12001204D01*
X450925001Y12000000D01*
X450274999Y12000000D01*
X450250495Y12001204D01*
X450226227Y12004804D01*
X450202428Y12010765D01*
X450179329Y12019030D01*
X450157150Y12029520D01*
X450136107Y12042132D01*
X450116401Y12056747D01*
X450098223Y12073223D01*
X450081747Y12091401D01*
X450067132Y12111107D01*
X450054520Y12132150D01*
X450044030Y12154329D01*
X450035765Y12177428D01*
X450029804Y12201227D01*
X450026204Y12225495D01*
X450025000Y12249999D01*
X450025000Y13150001D01*
X450026204Y13174505D01*
X450029804Y13198773D01*
X450035765Y13222572D01*
X450044030Y13245671D01*
X450054520Y13267850D01*
X450067132Y13288893D01*
X450081747Y13308599D01*
X450098223Y13326777D01*
X450116401Y13343253D01*
X450136107Y13357868D01*
X450157150Y13370480D01*
X450179329Y13380970D01*
X450202428Y13389235D01*
X450226227Y13395196D01*
X450250495Y13398796D01*
X450274999Y13400000D01*
X450925001Y13400000D01*
X450949505Y13398796D01*
G37*
G04 #@! TD.AperFunction*
G04 #@! TA.AperFunction,SMDPad,CuDef*
G36*
X448899505Y13398796D02*
G01*
X448923773Y13395196D01*
X448947572Y13389235D01*
X448970671Y13380970D01*
X448992850Y13370480D01*
X449013893Y13357868D01*
X449033599Y13343253D01*
X449051777Y13326777D01*
X449068253Y13308599D01*
X449082868Y13288893D01*
X449095480Y13267850D01*
X449105970Y13245671D01*
X449114235Y13222572D01*
X449120196Y13198773D01*
X449123796Y13174505D01*
X449125000Y13150001D01*
X449125000Y12249999D01*
X449123796Y12225495D01*
X449120196Y12201227D01*
X449114235Y12177428D01*
X449105970Y12154329D01*
X449095480Y12132150D01*
X449082868Y12111107D01*
X449068253Y12091401D01*
X449051777Y12073223D01*
X449033599Y12056747D01*
X449013893Y12042132D01*
X448992850Y12029520D01*
X448970671Y12019030D01*
X448947572Y12010765D01*
X448923773Y12004804D01*
X448899505Y12001204D01*
X448875001Y12000000D01*
X448224999Y12000000D01*
X448200495Y12001204D01*
X448176227Y12004804D01*
X448152428Y12010765D01*
X448129329Y12019030D01*
X448107150Y12029520D01*
X448086107Y12042132D01*
X448066401Y12056747D01*
X448048223Y12073223D01*
X448031747Y12091401D01*
X448017132Y12111107D01*
X448004520Y12132150D01*
X447994030Y12154329D01*
X447985765Y12177428D01*
X447979804Y12201227D01*
X447976204Y12225495D01*
X447975000Y12249999D01*
X447975000Y13150001D01*
X447976204Y13174505D01*
X447979804Y13198773D01*
X447985765Y13222572D01*
X447994030Y13245671D01*
X448004520Y13267850D01*
X448017132Y13288893D01*
X448031747Y13308599D01*
X448048223Y13326777D01*
X448066401Y13343253D01*
X448086107Y13357868D01*
X448107150Y13370480D01*
X448129329Y13380970D01*
X448152428Y13389235D01*
X448176227Y13395196D01*
X448200495Y13398796D01*
X448224999Y13400000D01*
X448875001Y13400000D01*
X448899505Y13398796D01*
G37*
G04 #@! TD.AperFunction*
D22*
X459900000Y13500000D03*
D23*
X459900000Y7200000D03*
X462200000Y7200000D03*
X457600000Y7200000D03*
D24*
X475400000Y-18200000D03*
X464700000Y-21800000D03*
D25*
X471100000Y-10500000D02*
X472900000Y-10500000D01*
X463100000Y-17350000D02*
X463100000Y-18000000D01*
X463100000Y-18000000D02*
X463100000Y-19000000D01*
X461500000Y-17350000D02*
X461500000Y-18350000D01*
X461500000Y-18350000D02*
X461500000Y-19100000D01*
X468700000Y-4250000D02*
X468700000Y-6000000D01*
X468700000Y-3499998D02*
X469099998Y-3100000D01*
X468700000Y-4250000D02*
X468700000Y-3499998D01*
X472700000Y-10500000D02*
X473500000Y-10500000D01*
X473500000Y-10500000D02*
X473800000Y-10200000D01*
X463100000Y-17350000D02*
X463100000Y-16500000D01*
X463101044Y-19944333D02*
X463100000Y-19945377D01*
X463101044Y-18944333D02*
X463101044Y-19944333D01*
X480400000Y-15780000D02*
X482020000Y-15780000D01*
X482020000Y-15780000D02*
X481900000Y-15900000D01*
X479337500Y13300000D02*
X479337500Y12337500D01*
D26*
X465500000Y-6050000D02*
X465500000Y-6800000D01*
X465500000Y-6800000D02*
X465500000Y-7300000D01*
X465500000Y-4260000D02*
X465500000Y-5900000D01*
D25*
X467100000Y-4250000D02*
X467100000Y-5250000D01*
X467100000Y-5250000D02*
X467100000Y-5900000D01*
X467900000Y-4250000D02*
X467900000Y-5250000D01*
X467900000Y-5250000D02*
X467900000Y-6200000D01*
X481850000Y-10700000D02*
X482100000Y-10450000D01*
X480400000Y-10700000D02*
X481850000Y-10700000D01*
X482100000Y-10450000D02*
X482150000Y-10450000D01*
X482150000Y-10450000D02*
X482200000Y-10400000D01*
X482200000Y-10400000D02*
X483700000Y-10400000D01*
X482300000Y-23200000D02*
X471400000Y-23200000D01*
X459900000Y13500000D02*
X459900000Y7100000D01*
X459900000Y7100000D02*
X459900000Y6849998D01*
X459900000Y6849998D02*
X459900000Y4500000D01*
X459900000Y4500000D02*
X459800000Y4400000D01*
X459800000Y4400000D02*
X451000000Y4400000D01*
X451000000Y4400000D02*
X450900000Y4500000D01*
X450900000Y4500000D02*
X450900000Y8600000D01*
X451000000Y4400000D02*
X451000000Y3100000D01*
X451000000Y3100000D02*
X452300000Y1800000D01*
X452300000Y1800000D02*
X452300000Y200000D01*
X452300000Y200000D02*
X452300000Y-1600000D01*
X452300000Y-1600000D02*
X454100000Y-3400000D01*
X454100000Y-3400000D02*
X454200000Y-3500000D01*
X454100000Y-3400000D02*
X454700000Y-3400000D01*
X455200000Y-3900000D02*
X455200000Y-4800000D01*
X467900000Y-4250000D02*
X467900000Y-2200000D01*
X467900000Y-2200000D02*
X467900000Y-200000D01*
X466300000Y-3200000D02*
X465100000Y-2000000D01*
X466300000Y-4250000D02*
X466300000Y-3200000D01*
X465100000Y-2000000D02*
X464100000Y-2000000D01*
X464100000Y-2000000D02*
X462100000Y-2000000D01*
X462100000Y-2000000D02*
X460400000Y-2000000D01*
X460400000Y-2000000D02*
X460300000Y-2000000D01*
X467100000Y-4250000D02*
X467100000Y-3500000D01*
X466800000Y-3200000D02*
X466300000Y-3200000D01*
X467100000Y-3500000D02*
X466800000Y-3200000D01*
X454700000Y-3400000D02*
X455200000Y-3900000D01*
X455200000Y-3900000D02*
X455200000Y-3100000D01*
X455200000Y-3100000D02*
X456200000Y-2100000D01*
X456200000Y-2100000D02*
X456300000Y-2000000D01*
X456300000Y-2000000D02*
X460300000Y-2000000D01*
X468000000Y600000D02*
X468000000Y-1200000D01*
X485100000Y-11700000D02*
X485050000Y-11650000D01*
X485100000Y-15500000D02*
X485100000Y-11700000D01*
X485000000Y-15500000D02*
X485100000Y-15500000D01*
X483000000Y-23200000D02*
X483000000Y-22800000D01*
X483000000Y-22800000D02*
X483100000Y-22700000D01*
X482500000Y-23200000D02*
X483000000Y-23200000D01*
X483100000Y-22700000D02*
X483100000Y-17400000D01*
X483100000Y-17400000D02*
X485000000Y-15500000D01*
X468400000Y-20700000D02*
X467100000Y-20700000D01*
X471500000Y-23100000D02*
X470800000Y-23100000D01*
X470800000Y-23100000D02*
X468400000Y-20700000D01*
X466250001Y-5060001D02*
X466250001Y-4100000D01*
X467151043Y-19744334D02*
X467151043Y-18951045D01*
X467200000Y-20700000D02*
X467200000Y-19793291D01*
X467100000Y-18900002D02*
X467100000Y-16599998D01*
X469831374Y-15531374D02*
X469831374Y-7731374D01*
X467151043Y-18951045D02*
X467100000Y-18900002D01*
X467200000Y-19793291D02*
X467151043Y-19744334D01*
X467100000Y-16599998D02*
X467799998Y-15900000D01*
X469900000Y-15600000D02*
X469831374Y-15531374D01*
X469600000Y-15900000D02*
X469900000Y-15600000D01*
X467799998Y-15900000D02*
X469600000Y-15900000D01*
X469831374Y-7731374D02*
X469500000Y-7400000D01*
X485100000Y-11700000D02*
X485100000Y-11000000D01*
X485100000Y-11000000D02*
X484600000Y-10500000D01*
X484600000Y-10500000D02*
X483900000Y-10500000D01*
X455200000Y-4800000D02*
X454700000Y-5300000D01*
X454700000Y-5300000D02*
X453300000Y-5300000D01*
X468499998Y-7400000D02*
X467900000Y-6800002D01*
X469500000Y-7400000D02*
X468499998Y-7400000D01*
X467900000Y-6331384D02*
X467899990Y-6331374D01*
X467900000Y-6800002D02*
X467900000Y-6331384D01*
X467899990Y-6331374D02*
X467899990Y-6000000D01*
X467899990Y-6000000D02*
X466250001Y-6000000D01*
X477775000Y9400000D02*
X478624498Y9400000D01*
X476300000Y11450000D02*
X476300000Y10875000D01*
X476300000Y10875000D02*
X477775000Y9400000D01*
X478624498Y9400000D02*
X478674497Y9449999D01*
X475600000Y11450000D02*
X475550000Y11400000D01*
X476300000Y11450000D02*
X475600000Y11450000D01*
X475550000Y11400000D02*
X474700000Y11400000D01*
X474700000Y11400000D02*
X474700000Y10100000D01*
D26*
X474700000Y10100000D02*
X473400000Y8800000D01*
D25*
X473400000Y8800000D02*
X472600000Y8000000D01*
X472600000Y8000000D02*
X471800000Y8000000D01*
X471800000Y8000000D02*
X471800000Y9200000D01*
X471800000Y10000000D02*
X471800000Y8000000D01*
X471800000Y8000000D02*
X470000000Y8000000D01*
X470000000Y8000000D02*
X466700000Y11300000D01*
X466700000Y11300000D02*
X466700000Y12000000D01*
X466700000Y12000000D02*
X466700000Y11400000D01*
X466700000Y11400000D02*
X464000000Y8700000D01*
X464000000Y8700000D02*
X464000000Y5600000D01*
X464000000Y5600000D02*
X462100000Y5600000D01*
X462100000Y5600000D02*
X462100000Y6900000D01*
D27*
X471100000Y-12100000D02*
X473000000Y-12100000D01*
X473000000Y-12100000D02*
X473700000Y-12100000D01*
X473700000Y-12100000D02*
X473900000Y-12300000D01*
X473900000Y-12300000D02*
X474900000Y-13300000D01*
X474900000Y-13300000D02*
X480300000Y-13300000D01*
X471100000Y-12900000D02*
X472800000Y-12900000D01*
X472800000Y-12900000D02*
X473400000Y-12900000D01*
X473400000Y-12900000D02*
X473500000Y-12900000D01*
X473500000Y-12900000D02*
X474200000Y-13600000D01*
X474200000Y-13600000D02*
X478900000Y-18300000D01*
X478900000Y-18300000D02*
X480400000Y-18300000D01*
X468701044Y-18944333D02*
X468701044Y-19798956D01*
X468701044Y-19798956D02*
X468702088Y-19800000D01*
X468702088Y-19800000D02*
X469800000Y-19800000D01*
X469800000Y-19800000D02*
X469800000Y-20700000D01*
X469800000Y-20700000D02*
X469800000Y-20800000D01*
X469800000Y-20800000D02*
X480400000Y-20800000D01*
X468701044Y-18294333D02*
X468700000Y-18293289D01*
X468701044Y-18944333D02*
X468701044Y-18294333D01*
X468700000Y-18293289D02*
X468700000Y-17200000D01*
X471100000Y-11300000D02*
X473000000Y-11300000D01*
X473000000Y-11300000D02*
X475000000Y-11300000D01*
X475000000Y-11300000D02*
X475100000Y-11200000D01*
D25*
X471100000Y-11300000D02*
X472900000Y-11300000D01*
D27*
X448850000Y9300000D02*
X450250000Y10700000D01*
X448850000Y8600000D02*
X448850000Y9300000D01*
X450250000Y10700000D02*
X450700000Y10700000D01*
X450700000Y10700000D02*
X450700000Y12600000D01*
X450700000Y12600000D02*
X450700000Y10900000D01*
X450700000Y10900000D02*
X456100000Y5500000D01*
X456100000Y5500000D02*
X457500000Y5500000D01*
X457500000Y5500000D02*
X457500000Y6900000D01*
D25*
X471100000Y-15300000D02*
X472900000Y-15300000D01*
D27*
X462300000Y-17350000D02*
X462300000Y-19000000D01*
X459110000Y-16100000D02*
X460800000Y-16100000D01*
X459110000Y-15300000D02*
X460800000Y-15300000D01*
X459110000Y-14500000D02*
X460900000Y-14500000D01*
X459110000Y-13700000D02*
X460800000Y-13700000D01*
X459110000Y-12900000D02*
X459760000Y-12900000D01*
X459760000Y-12900000D02*
X460900000Y-12900000D01*
X460900000Y-12900000D02*
X460800000Y-12900000D01*
X459110000Y-12100000D02*
X460800000Y-12100000D01*
X459110000Y-11300000D02*
X460800000Y-11300000D01*
X459110000Y-10500000D02*
X460800000Y-10500000D01*
X459110000Y-9700000D02*
X460800000Y-9700000D01*
X459110000Y-8900000D02*
X460800000Y-8900000D01*
X459110000Y-8100000D02*
X460900000Y-8100000D01*
X459110000Y-7300000D02*
X460700000Y-7300000D01*
D25*
X461500000Y-4250000D02*
X461500000Y-5250000D01*
X461500000Y-5250000D02*
X461500000Y-6100000D01*
X471100000Y-13700000D02*
X473000000Y-13700000D01*
X471100000Y-14500000D02*
X472800000Y-14500000D01*
D27*
X471100000Y-16100000D02*
X472900000Y-16100000D01*
X470300000Y-17350000D02*
X470300000Y-19000000D01*
X469500000Y-17350000D02*
X469500000Y-19100000D01*
X467900000Y-17350000D02*
X467900000Y-18000000D01*
X467900000Y-18150000D02*
X467900000Y-19000000D01*
X466300000Y-17350000D02*
X466300000Y-19000000D01*
X465500000Y-17350000D02*
X465500000Y-19000000D01*
X464700000Y-17350000D02*
X464700000Y-19000000D01*
X463900000Y-17350000D02*
X463900000Y-19000000D01*
D25*
X462300000Y-4250000D02*
X462300000Y-4200000D01*
X462300000Y-4200000D02*
X462300000Y-6100000D01*
X463100000Y-4250000D02*
X463100000Y-6200000D01*
X463900000Y-4250000D02*
X463900000Y-4800000D01*
X463900000Y-4800000D02*
X463900000Y-6100000D01*
X464700000Y-4250000D02*
X464700000Y-6099990D01*
X469500000Y-4250000D02*
X469500000Y-4300000D01*
X469500000Y-4300000D02*
X469500000Y-6200000D01*
X470300000Y-4250000D02*
X470300000Y-6200000D01*
X471100000Y-9700000D02*
X472900000Y-9700000D01*
X471100000Y-8900000D02*
X473000000Y-8900000D01*
X471100000Y-8100000D02*
X472900000Y-8100000D01*
X471100000Y-7300000D02*
X472900000Y-7300000D01*
D28*
G36*
X465645506Y15305537D02*
G01*
X465548815Y15226185D01*
X465469463Y15129494D01*
X465410498Y15019180D01*
X465374188Y14899482D01*
X465361928Y14775000D01*
X465365000Y14485750D01*
X465523750Y14327000D01*
X466573000Y14327000D01*
X466573000Y14347000D01*
X466827000Y14347000D01*
X466827000Y14327000D01*
X467876250Y14327000D01*
X468035000Y14485750D01*
X468038072Y14775000D01*
X468025812Y14899482D01*
X467989502Y15019180D01*
X467930537Y15129494D01*
X467851185Y15226185D01*
X467754494Y15305537D01*
X467690019Y15340000D01*
X470539636Y15340000D01*
X470469463Y15254494D01*
X470410498Y15144180D01*
X470374188Y15024482D01*
X470361928Y14900000D01*
X470365000Y13885750D01*
X470523750Y13727000D01*
X471673000Y13727000D01*
X471673000Y13747000D01*
X471927000Y13747000D01*
X471927000Y13727000D01*
X473076250Y13727000D01*
X473235000Y13885750D01*
X473235573Y14075000D01*
X474961928Y14075000D01*
X474965000Y13785750D01*
X475123750Y13627000D01*
X476173000Y13627000D01*
X476173000Y14551250D01*
X476427000Y14551250D01*
X476427000Y13627000D01*
X477476250Y13627000D01*
X477635000Y13785750D01*
X477638072Y14075000D01*
X477625812Y14199482D01*
X477613784Y14239133D01*
X478577972Y14239133D01*
X479337500Y13479605D01*
X480097028Y14239133D01*
X480034535Y14475450D01*
X479791822Y14588850D01*
X479531651Y14652719D01*
X479264018Y14664604D01*
X478999209Y14624048D01*
X478747400Y14532609D01*
X478640465Y14475450D01*
X478577972Y14239133D01*
X477613784Y14239133D01*
X477589502Y14319180D01*
X477530537Y14429494D01*
X477451185Y14526185D01*
X477354494Y14605537D01*
X477244180Y14664502D01*
X477124482Y14700812D01*
X477000000Y14713072D01*
X476585750Y14710000D01*
X476427000Y14551250D01*
X476173000Y14551250D01*
X476014250Y14710000D01*
X475600000Y14713072D01*
X475475518Y14700812D01*
X475355820Y14664502D01*
X475245506Y14605537D01*
X475148815Y14526185D01*
X475069463Y14429494D01*
X475010498Y14319180D01*
X474974188Y14199482D01*
X474961928Y14075000D01*
X473235573Y14075000D01*
X473238072Y14900000D01*
X473225812Y15024482D01*
X473189502Y15144180D01*
X473130537Y15254494D01*
X473060364Y15340000D01*
X481019872Y15340000D01*
X480895775Y15256307D01*
X480724422Y15083474D01*
X480590079Y14880533D01*
X480497909Y14655282D01*
X480494038Y14617609D01*
X480517821Y14581265D01*
X480497998Y14544180D01*
X480462452Y14427002D01*
X480452500Y14427002D01*
X480452500Y14331192D01*
X480449428Y14300000D01*
X480452233Y14013091D01*
X480276633Y14059528D01*
X479517105Y13300000D01*
X479531248Y13285858D01*
X479351643Y13106253D01*
X479337500Y13120395D01*
X479323358Y13106253D01*
X479143753Y13285858D01*
X479157895Y13300000D01*
X478398367Y14059528D01*
X478162050Y13997035D01*
X478048650Y13754322D01*
X477984781Y13494151D01*
X477972896Y13226518D01*
X478013452Y12961709D01*
X478104891Y12709900D01*
X478133775Y12655864D01*
X478076979Y12553576D01*
X478038759Y12434474D01*
X478027500Y12331750D01*
X478186250Y12173000D01*
X478298822Y12173000D01*
X478211315Y12101185D01*
X478131963Y12004494D01*
X478095468Y11936218D01*
X478027500Y11868250D01*
X478037488Y11777120D01*
X478036688Y11774482D01*
X478024428Y11650000D01*
X478024428Y11250000D01*
X478036688Y11125518D01*
X478036845Y11125000D01*
X478036688Y11124482D01*
X478024428Y11000000D01*
X478024428Y10600000D01*
X478036688Y10475518D01*
X478036845Y10475000D01*
X478036688Y10474482D01*
X478035444Y10461846D01*
X477603444Y10893845D01*
X477621008Y10951745D01*
X477638072Y11124999D01*
X477638072Y11775001D01*
X477621008Y11948255D01*
X477570472Y12114851D01*
X477488405Y12268387D01*
X477377962Y12402962D01*
X477371406Y12408342D01*
X477451185Y12473815D01*
X477530537Y12570506D01*
X477589502Y12680820D01*
X477625812Y12800518D01*
X477638072Y12925000D01*
X477635000Y13214250D01*
X477476250Y13373000D01*
X476427000Y13373000D01*
X476427000Y13353000D01*
X476173000Y13353000D01*
X476173000Y13373000D01*
X475123750Y13373000D01*
X474965000Y13214250D01*
X474961928Y12925000D01*
X474974188Y12800518D01*
X475010498Y12680820D01*
X475069463Y12570506D01*
X475148815Y12473815D01*
X475228594Y12408342D01*
X475222038Y12402962D01*
X475166263Y12335000D01*
X474745932Y12335000D01*
X474700000Y12339524D01*
X474654068Y12335000D01*
X474516708Y12321471D01*
X474340460Y12268007D01*
X474178028Y12181186D01*
X474035656Y12064344D01*
X473918814Y11921972D01*
X473831993Y11759540D01*
X473778529Y11583292D01*
X473760476Y11400000D01*
X473765000Y11354068D01*
X473765001Y10310514D01*
X473238072Y9783584D01*
X473238072Y11050000D01*
X473221008Y11223254D01*
X473170472Y11389850D01*
X473088405Y11543386D01*
X472977962Y11677962D01*
X472901187Y11740969D01*
X472954494Y11769463D01*
X473051185Y11848815D01*
X473130537Y11945506D01*
X473189502Y12055820D01*
X473225812Y12175518D01*
X473238072Y12300000D01*
X473235000Y13314250D01*
X473076250Y13473000D01*
X471927000Y13473000D01*
X471927000Y13453000D01*
X471673000Y13453000D01*
X471673000Y13473000D01*
X470523750Y13473000D01*
X470365000Y13314250D01*
X470361928Y12300000D01*
X470374188Y12175518D01*
X470410498Y12055820D01*
X470469463Y11945506D01*
X470548815Y11848815D01*
X470645506Y11769463D01*
X470698813Y11740969D01*
X470622038Y11677962D01*
X470511595Y11543386D01*
X470429528Y11389850D01*
X470378992Y11223254D01*
X470361928Y11050000D01*
X470361928Y8960361D01*
X467924029Y11398260D01*
X467970472Y11485149D01*
X468021008Y11651745D01*
X468038072Y11824999D01*
X468038072Y12475001D01*
X468021008Y12648255D01*
X467970472Y12814851D01*
X467888405Y12968387D01*
X467777962Y13102962D01*
X467771406Y13108342D01*
X467851185Y13173815D01*
X467930537Y13270506D01*
X467989502Y13380820D01*
X468025812Y13500518D01*
X468038072Y13625000D01*
X468035000Y13914250D01*
X467876250Y14073000D01*
X466827000Y14073000D01*
X466827000Y14053000D01*
X466573000Y14053000D01*
X466573000Y14073000D01*
X465523750Y14073000D01*
X465365000Y13914250D01*
X465361928Y13625000D01*
X465374188Y13500518D01*
X465410498Y13380820D01*
X465469463Y13270506D01*
X465548815Y13173815D01*
X465628594Y13108342D01*
X465622038Y13102962D01*
X465511595Y12968387D01*
X465429528Y12814851D01*
X465378992Y12648255D01*
X465361928Y12475001D01*
X465361928Y11824999D01*
X465378992Y11651745D01*
X465429528Y11485149D01*
X465441138Y11463427D01*
X463371341Y9393630D01*
X463335656Y9364344D01*
X463218814Y9221971D01*
X463131993Y9059539D01*
X463078529Y8883292D01*
X463078529Y8883291D01*
X463072883Y8825969D01*
X462950000Y8838072D01*
X461450000Y8838072D01*
X461325518Y8825812D01*
X461205820Y8789502D01*
X461095506Y8730537D01*
X461050000Y8693191D01*
X461004494Y8730537D01*
X460894180Y8789502D01*
X460835000Y8807454D01*
X460835000Y11861928D01*
X461800000Y11861928D01*
X461924482Y11874188D01*
X462044180Y11910498D01*
X462154494Y11969463D01*
X462251185Y12048815D01*
X462330537Y12145506D01*
X462389502Y12255820D01*
X462425812Y12375518D01*
X462438072Y12500000D01*
X462438072Y14500000D01*
X462425812Y14624482D01*
X462389502Y14744180D01*
X462330537Y14854494D01*
X462251185Y14951185D01*
X462154494Y15030537D01*
X462044180Y15089502D01*
X461924482Y15125812D01*
X461800000Y15138072D01*
X458000000Y15138072D01*
X457875518Y15125812D01*
X457755820Y15089502D01*
X457645506Y15030537D01*
X457548815Y14951185D01*
X457469463Y14854494D01*
X457410498Y14744180D01*
X457374188Y14624482D01*
X457361928Y14500000D01*
X457361928Y12500000D01*
X457374188Y12375518D01*
X457410498Y12255820D01*
X457469463Y12145506D01*
X457548815Y12048815D01*
X457645506Y11969463D01*
X457755820Y11910498D01*
X457875518Y11874188D01*
X458000000Y11861928D01*
X458965000Y11861928D01*
X458965001Y8807454D01*
X458905820Y8789502D01*
X458795506Y8730537D01*
X458750000Y8693191D01*
X458704494Y8730537D01*
X458594180Y8789502D01*
X458474482Y8825812D01*
X458350000Y8838072D01*
X456850000Y8838072D01*
X456725518Y8825812D01*
X456605820Y8789502D01*
X456495506Y8730537D01*
X456398815Y8651185D01*
X456319463Y8554494D01*
X456260498Y8444180D01*
X456224188Y8324482D01*
X456211928Y8200000D01*
X456211928Y6462874D01*
X451460000Y11214801D01*
X451460000Y11545746D01*
X451552962Y11622038D01*
X451663405Y11756613D01*
X451745472Y11910149D01*
X451796008Y12076745D01*
X451813072Y12249999D01*
X451813072Y13150001D01*
X451796008Y13323255D01*
X451745472Y13489851D01*
X451663405Y13643387D01*
X451552962Y13777962D01*
X451418387Y13888405D01*
X451264851Y13970472D01*
X451098255Y14021008D01*
X450925001Y14038072D01*
X450274999Y14038072D01*
X450101745Y14021008D01*
X449935149Y13970472D01*
X449781613Y13888405D01*
X449647038Y13777962D01*
X449641658Y13771406D01*
X449576185Y13851185D01*
X449479494Y13930537D01*
X449369180Y13989502D01*
X449249482Y14025812D01*
X449125000Y14038072D01*
X448835750Y14035000D01*
X448677000Y13876250D01*
X448677000Y12827000D01*
X448697000Y12827000D01*
X448697000Y12573000D01*
X448677000Y12573000D01*
X448677000Y11523750D01*
X448835750Y11365000D01*
X449125000Y11361928D01*
X449249482Y11374188D01*
X449369180Y11410498D01*
X449479494Y11469463D01*
X449576185Y11548815D01*
X449641658Y11628594D01*
X449647038Y11622038D01*
X449781613Y11511595D01*
X449935149Y11429528D01*
X449940000Y11428056D01*
X449940000Y11396057D01*
X449825723Y11334974D01*
X449812688Y11324276D01*
X449709999Y11240001D01*
X449686201Y11211003D01*
X448401064Y9925866D01*
X448351745Y9921008D01*
X448185149Y9870472D01*
X448031613Y9788405D01*
X447897038Y9677962D01*
X447786595Y9543387D01*
X447704528Y9389851D01*
X447653992Y9223255D01*
X447636928Y9050001D01*
X447636928Y8149999D01*
X447653992Y7976745D01*
X447704528Y7810149D01*
X447786595Y7656613D01*
X447897038Y7522038D01*
X448031613Y7411595D01*
X448185149Y7329528D01*
X448351745Y7278992D01*
X448524999Y7261928D01*
X449175001Y7261928D01*
X449348255Y7278992D01*
X449514851Y7329528D01*
X449668387Y7411595D01*
X449802962Y7522038D01*
X449875000Y7609816D01*
X449947038Y7522038D01*
X449965001Y7507296D01*
X449965000Y4545932D01*
X449960476Y4500000D01*
X449970325Y4400001D01*
X449978529Y4316709D01*
X450031993Y4140461D01*
X450065000Y4078708D01*
X450065001Y3145941D01*
X450060476Y3100000D01*
X450078529Y2916709D01*
X450131994Y2740460D01*
X450218815Y2578028D01*
X450335657Y2435656D01*
X450371336Y2406375D01*
X451297107Y1480604D01*
X451172038Y1377962D01*
X451166658Y1371406D01*
X451101185Y1451185D01*
X451004494Y1530537D01*
X450894180Y1589502D01*
X450774482Y1625812D01*
X450650000Y1638072D01*
X450360750Y1635000D01*
X450202000Y1476250D01*
X450202000Y427000D01*
X450222000Y427000D01*
X450222000Y173000D01*
X450202000Y173000D01*
X450202000Y-876250D01*
X450360750Y-1035000D01*
X450650000Y-1038072D01*
X450774482Y-1025812D01*
X450894180Y-989502D01*
X451004494Y-930537D01*
X451101185Y-851185D01*
X451166658Y-771406D01*
X451172038Y-777962D01*
X451306613Y-888405D01*
X451365001Y-919614D01*
X451365001Y-1554058D01*
X451360476Y-1600000D01*
X451378529Y-1783291D01*
X451419001Y-1916708D01*
X451431994Y-1959540D01*
X451518815Y-2121972D01*
X451635657Y-2264344D01*
X451671336Y-2293625D01*
X453139638Y-3761928D01*
X451750000Y-3761928D01*
X451576746Y-3778992D01*
X451410150Y-3829528D01*
X451256614Y-3911595D01*
X451122038Y-4022038D01*
X451059031Y-4098813D01*
X451030537Y-4045506D01*
X450951185Y-3948815D01*
X450854494Y-3869463D01*
X450744180Y-3810498D01*
X450624482Y-3774188D01*
X450500000Y-3761928D01*
X449485750Y-3765000D01*
X449327000Y-3923750D01*
X449327000Y-5073000D01*
X449347000Y-5073000D01*
X449347000Y-5327000D01*
X449327000Y-5327000D01*
X449327000Y-6476250D01*
X449485750Y-6635000D01*
X450500000Y-6638072D01*
X450624482Y-6625812D01*
X450744180Y-6589502D01*
X450854494Y-6530537D01*
X450951185Y-6451185D01*
X451030537Y-6354494D01*
X451059031Y-6301187D01*
X451122038Y-6377962D01*
X451256614Y-6488405D01*
X451410150Y-6570472D01*
X451576746Y-6621008D01*
X451750000Y-6638072D01*
X453850000Y-6638072D01*
X454023254Y-6621008D01*
X454189850Y-6570472D01*
X454343386Y-6488405D01*
X454477962Y-6377962D01*
X454588405Y-6243386D01*
X454592887Y-6235000D01*
X454654068Y-6235000D01*
X454700000Y-6239524D01*
X454745932Y-6235000D01*
X454883292Y-6221471D01*
X455059540Y-6168007D01*
X455221972Y-6081186D01*
X455364344Y-5964344D01*
X455393631Y-5928658D01*
X455828654Y-5493634D01*
X455864344Y-5464344D01*
X455981186Y-5321972D01*
X456068007Y-5159540D01*
X456098058Y-5060476D01*
X456121472Y-4983292D01*
X456139524Y-4800000D01*
X456135000Y-4754065D01*
X456135000Y-3945931D01*
X456139524Y-3900000D01*
X456135000Y-3854065D01*
X456135000Y-3487289D01*
X456687289Y-2935000D01*
X459186780Y-2935000D01*
X459222038Y-2977962D01*
X459356613Y-3088405D01*
X459510149Y-3170472D01*
X459676745Y-3221008D01*
X459849999Y-3238072D01*
X460750001Y-3238072D01*
X460923255Y-3221008D01*
X461089851Y-3170472D01*
X461243387Y-3088405D01*
X461315231Y-3029444D01*
X461356613Y-3063405D01*
X461510149Y-3145472D01*
X461676745Y-3196008D01*
X461849999Y-3213072D01*
X462038384Y-3213072D01*
X461925518Y-3224188D01*
X461900000Y-3231929D01*
X461874482Y-3224188D01*
X461750000Y-3211928D01*
X461250000Y-3211928D01*
X461125518Y-3224188D01*
X461005820Y-3260498D01*
X460895506Y-3319463D01*
X460798815Y-3398815D01*
X460719463Y-3495506D01*
X460660498Y-3605820D01*
X460624188Y-3725518D01*
X460611928Y-3850000D01*
X460611928Y-3956607D01*
X460578529Y-4066709D01*
X460565000Y-4204069D01*
X460565001Y-5204060D01*
X460565000Y-5204069D01*
X460565000Y-6145932D01*
X460578530Y-6283292D01*
X460611928Y-6393391D01*
X460611928Y-6411928D01*
X458710000Y-6411928D01*
X458585518Y-6424188D01*
X458465820Y-6460498D01*
X458355506Y-6519463D01*
X458258815Y-6598815D01*
X458179463Y-6695506D01*
X458120498Y-6805820D01*
X458084188Y-6925518D01*
X458071928Y-7050000D01*
X458071928Y-7550000D01*
X458084188Y-7674482D01*
X458091929Y-7700000D01*
X458084188Y-7725518D01*
X458071928Y-7850000D01*
X458071928Y-8350000D01*
X458084188Y-8474482D01*
X458091929Y-8500000D01*
X458084188Y-8525518D01*
X458071928Y-8650000D01*
X458071928Y-9150000D01*
X458084188Y-9274482D01*
X458091929Y-9300000D01*
X458084188Y-9325518D01*
X458071928Y-9450000D01*
X458071928Y-9950000D01*
X458084188Y-10074482D01*
X458091929Y-10100000D01*
X458084188Y-10125518D01*
X458071928Y-10250000D01*
X458071928Y-10750000D01*
X458084188Y-10874482D01*
X458091929Y-10900000D01*
X458084188Y-10925518D01*
X458071928Y-11050000D01*
X458071928Y-11550000D01*
X458084188Y-11674482D01*
X458091929Y-11700000D01*
X458084188Y-11725518D01*
X458071928Y-11850000D01*
X458071928Y-12350000D01*
X458084188Y-12474482D01*
X458091929Y-12500000D01*
X458084188Y-12525518D01*
X458071928Y-12650000D01*
X458071928Y-13150000D01*
X458084188Y-13274482D01*
X458091929Y-13300000D01*
X458084188Y-13325518D01*
X458071928Y-13450000D01*
X458071928Y-13950000D01*
X458084188Y-14074482D01*
X458091929Y-14100000D01*
X458084188Y-14125518D01*
X458071928Y-14250000D01*
X458071928Y-14750000D01*
X458084188Y-14874482D01*
X458091929Y-14900000D01*
X458084188Y-14925518D01*
X458071928Y-15050000D01*
X458071928Y-15550000D01*
X458084188Y-15674482D01*
X458091929Y-15700000D01*
X458084188Y-15725518D01*
X458071928Y-15850000D01*
X458071928Y-16350000D01*
X458084188Y-16474482D01*
X458120498Y-16594180D01*
X458179463Y-16704494D01*
X458258815Y-16801185D01*
X458355506Y-16880537D01*
X458465820Y-16939502D01*
X458585518Y-16975812D01*
X458710000Y-16988072D01*
X460612782Y-16988072D01*
X460615000Y-17064250D01*
X460773750Y-17223000D01*
X460891728Y-17223000D01*
X460883857Y-17227434D01*
X460788945Y-17308906D01*
X460711751Y-17407328D01*
X460655241Y-17518920D01*
X460625553Y-17625197D01*
X460615000Y-17635750D01*
X460612084Y-17735886D01*
X460613160Y-17750000D01*
X460612084Y-17764114D01*
X460615000Y-17864250D01*
X460625553Y-17874803D01*
X460655241Y-17981080D01*
X460711751Y-18092672D01*
X460755014Y-18147832D01*
X460712795Y-18201661D01*
X460656285Y-18313253D01*
X460624805Y-18425945D01*
X460615000Y-18435750D01*
X460612084Y-18535886D01*
X460613466Y-18554017D01*
X460613128Y-18558447D01*
X460616044Y-18658583D01*
X460622952Y-18665491D01*
X460655241Y-18781080D01*
X460711751Y-18892672D01*
X460788945Y-18991094D01*
X460882421Y-19071333D01*
X460774794Y-19071333D01*
X460616044Y-19230083D01*
X460613128Y-19330219D01*
X460622632Y-19454941D01*
X460656285Y-19575413D01*
X460712795Y-19687005D01*
X460789989Y-19785427D01*
X460884901Y-19866899D01*
X460993884Y-19928289D01*
X461112750Y-19967238D01*
X461219294Y-19979333D01*
X461378044Y-19820583D01*
X461378044Y-19185000D01*
X461412972Y-19185000D01*
X461412972Y-19344333D01*
X461425232Y-19468815D01*
X461461542Y-19588513D01*
X461520507Y-19698827D01*
X461599859Y-19795518D01*
X461624044Y-19815366D01*
X461624044Y-19820583D01*
X461782794Y-19979333D01*
X461889338Y-19967238D01*
X461902626Y-19962884D01*
X461926562Y-19970145D01*
X462051044Y-19982405D01*
X462551044Y-19982405D01*
X462675526Y-19970145D01*
X462699462Y-19962884D01*
X462712750Y-19967238D01*
X462819294Y-19979333D01*
X462978044Y-19820583D01*
X462978044Y-19815366D01*
X463002229Y-19795518D01*
X463081581Y-19698827D01*
X463101044Y-19662415D01*
X463120507Y-19698827D01*
X463199859Y-19795518D01*
X463224044Y-19815366D01*
X463224044Y-19820583D01*
X463382794Y-19979333D01*
X463489338Y-19967238D01*
X463502626Y-19962884D01*
X463526562Y-19970145D01*
X463651044Y-19982405D01*
X464151044Y-19982405D01*
X464275526Y-19970145D01*
X464301044Y-19962404D01*
X464326562Y-19970145D01*
X464451044Y-19982405D01*
X464951044Y-19982405D01*
X465075526Y-19970145D01*
X465101044Y-19962404D01*
X465126562Y-19970145D01*
X465251044Y-19982405D01*
X465751044Y-19982405D01*
X465875526Y-19970145D01*
X465901044Y-19962404D01*
X465926562Y-19970145D01*
X465962388Y-19973673D01*
X465929528Y-20035149D01*
X465878992Y-20201745D01*
X465861928Y-20374999D01*
X465861928Y-21025001D01*
X465878992Y-21198255D01*
X465929528Y-21364851D01*
X466011595Y-21518387D01*
X466122038Y-21652962D01*
X466128594Y-21658342D01*
X466048815Y-21723815D01*
X465969463Y-21820506D01*
X465910498Y-21930820D01*
X465874188Y-22050518D01*
X465861928Y-22175000D01*
X465865000Y-22464250D01*
X466023750Y-22623000D01*
X467073000Y-22623000D01*
X467073000Y-22603000D01*
X467327000Y-22603000D01*
X467327000Y-22623000D01*
X468376250Y-22623000D01*
X468535000Y-22464250D01*
X468538072Y-22175000D01*
X468536473Y-22158762D01*
X469717711Y-23340000D01*
X468536595Y-23340000D01*
X468538072Y-23325000D01*
X468535000Y-23035750D01*
X468376250Y-22877000D01*
X467327000Y-22877000D01*
X467327000Y-22897000D01*
X467073000Y-22897000D01*
X467073000Y-22877000D01*
X466023750Y-22877000D01*
X465865000Y-23035750D01*
X465861928Y-23325000D01*
X465863405Y-23340000D01*
X446660000Y-23340000D01*
X446660000Y-6000000D01*
X447261928Y-6000000D01*
X447274188Y-6124482D01*
X447310498Y-6244180D01*
X447369463Y-6354494D01*
X447448815Y-6451185D01*
X447545506Y-6530537D01*
X447655820Y-6589502D01*
X447775518Y-6625812D01*
X447900000Y-6638072D01*
X448914250Y-6635000D01*
X449073000Y-6476250D01*
X449073000Y-5327000D01*
X447423750Y-5327000D01*
X447265000Y-5485750D01*
X447261928Y-6000000D01*
X446660000Y-6000000D01*
X446660000Y-4400000D01*
X447261928Y-4400000D01*
X447265000Y-4914250D01*
X447423750Y-5073000D01*
X449073000Y-5073000D01*
X449073000Y-3923750D01*
X448914250Y-3765000D01*
X447900000Y-3761928D01*
X447775518Y-3774188D01*
X447655820Y-3810498D01*
X447545506Y-3869463D01*
X447448815Y-3948815D01*
X447369463Y-4045506D01*
X447310498Y-4155820D01*
X447274188Y-4275518D01*
X447261928Y-4400000D01*
X446660000Y-4400000D01*
X446660000Y-400000D01*
X448861928Y-400000D01*
X448874188Y-524482D01*
X448910498Y-644180D01*
X448969463Y-754494D01*
X449048815Y-851185D01*
X449145506Y-930537D01*
X449255820Y-989502D01*
X449375518Y-1025812D01*
X449500000Y-1038072D01*
X449789250Y-1035000D01*
X449948000Y-876250D01*
X449948000Y173000D01*
X449023750Y173000D01*
X448865000Y14250D01*
X448861928Y-400000D01*
X446660000Y-400000D01*
X446660000Y1000000D01*
X448861928Y1000000D01*
X448865000Y585750D01*
X449023750Y427000D01*
X449948000Y427000D01*
X449948000Y1476250D01*
X449789250Y1635000D01*
X449500000Y1638072D01*
X449375518Y1625812D01*
X449255820Y1589502D01*
X449145506Y1530537D01*
X449048815Y1451185D01*
X448969463Y1354494D01*
X448910498Y1244180D01*
X448874188Y1124482D01*
X448861928Y1000000D01*
X446660000Y1000000D01*
X446660000Y12000000D01*
X447336928Y12000000D01*
X447349188Y11875518D01*
X447385498Y11755820D01*
X447444463Y11645506D01*
X447523815Y11548815D01*
X447620506Y11469463D01*
X447730820Y11410498D01*
X447850518Y11374188D01*
X447975000Y11361928D01*
X448264250Y11365000D01*
X448423000Y11523750D01*
X448423000Y12573000D01*
X447498750Y12573000D01*
X447340000Y12414250D01*
X447336928Y12000000D01*
X446660000Y12000000D01*
X446660000Y13400000D01*
X447336928Y13400000D01*
X447340000Y12985750D01*
X447498750Y12827000D01*
X448423000Y12827000D01*
X448423000Y13876250D01*
X448264250Y14035000D01*
X447975000Y14038072D01*
X447850518Y14025812D01*
X447730820Y13989502D01*
X447620506Y13930537D01*
X447523815Y13851185D01*
X447444463Y13754494D01*
X447385498Y13644180D01*
X447349188Y13524482D01*
X447336928Y13400000D01*
X446660000Y13400000D01*
X446660000Y15340000D01*
X465709981Y15340000D01*
X465645506Y15305537D01*
G37*
X465645506Y15305537D02*
X465548815Y15226185D01*
X465469463Y15129494D01*
X465410498Y15019180D01*
X465374188Y14899482D01*
X465361928Y14775000D01*
X465365000Y14485750D01*
X465523750Y14327000D01*
X466573000Y14327000D01*
X466573000Y14347000D01*
X466827000Y14347000D01*
X466827000Y14327000D01*
X467876250Y14327000D01*
X468035000Y14485750D01*
X468038072Y14775000D01*
X468025812Y14899482D01*
X467989502Y15019180D01*
X467930537Y15129494D01*
X467851185Y15226185D01*
X467754494Y15305537D01*
X467690019Y15340000D01*
X470539636Y15340000D01*
X470469463Y15254494D01*
X470410498Y15144180D01*
X470374188Y15024482D01*
X470361928Y14900000D01*
X470365000Y13885750D01*
X470523750Y13727000D01*
X471673000Y13727000D01*
X471673000Y13747000D01*
X471927000Y13747000D01*
X471927000Y13727000D01*
X473076250Y13727000D01*
X473235000Y13885750D01*
X473235573Y14075000D01*
X474961928Y14075000D01*
X474965000Y13785750D01*
X475123750Y13627000D01*
X476173000Y13627000D01*
X476173000Y14551250D01*
X476427000Y14551250D01*
X476427000Y13627000D01*
X477476250Y13627000D01*
X477635000Y13785750D01*
X477638072Y14075000D01*
X477625812Y14199482D01*
X477613784Y14239133D01*
X478577972Y14239133D01*
X479337500Y13479605D01*
X480097028Y14239133D01*
X480034535Y14475450D01*
X479791822Y14588850D01*
X479531651Y14652719D01*
X479264018Y14664604D01*
X478999209Y14624048D01*
X478747400Y14532609D01*
X478640465Y14475450D01*
X478577972Y14239133D01*
X477613784Y14239133D01*
X477589502Y14319180D01*
X477530537Y14429494D01*
X477451185Y14526185D01*
X477354494Y14605537D01*
X477244180Y14664502D01*
X477124482Y14700812D01*
X477000000Y14713072D01*
X476585750Y14710000D01*
X476427000Y14551250D01*
X476173000Y14551250D01*
X476014250Y14710000D01*
X475600000Y14713072D01*
X475475518Y14700812D01*
X475355820Y14664502D01*
X475245506Y14605537D01*
X475148815Y14526185D01*
X475069463Y14429494D01*
X475010498Y14319180D01*
X474974188Y14199482D01*
X474961928Y14075000D01*
X473235573Y14075000D01*
X473238072Y14900000D01*
X473225812Y15024482D01*
X473189502Y15144180D01*
X473130537Y15254494D01*
X473060364Y15340000D01*
X481019872Y15340000D01*
X480895775Y15256307D01*
X480724422Y15083474D01*
X480590079Y14880533D01*
X480497909Y14655282D01*
X480494038Y14617609D01*
X480517821Y14581265D01*
X480497998Y14544180D01*
X480462452Y14427002D01*
X480452500Y14427002D01*
X480452500Y14331192D01*
X480449428Y14300000D01*
X480452233Y14013091D01*
X480276633Y14059528D01*
X479517105Y13300000D01*
X479531248Y13285858D01*
X479351643Y13106253D01*
X479337500Y13120395D01*
X479323358Y13106253D01*
X479143753Y13285858D01*
X479157895Y13300000D01*
X478398367Y14059528D01*
X478162050Y13997035D01*
X478048650Y13754322D01*
X477984781Y13494151D01*
X477972896Y13226518D01*
X478013452Y12961709D01*
X478104891Y12709900D01*
X478133775Y12655864D01*
X478076979Y12553576D01*
X478038759Y12434474D01*
X478027500Y12331750D01*
X478186250Y12173000D01*
X478298822Y12173000D01*
X478211315Y12101185D01*
X478131963Y12004494D01*
X478095468Y11936218D01*
X478027500Y11868250D01*
X478037488Y11777120D01*
X478036688Y11774482D01*
X478024428Y11650000D01*
X478024428Y11250000D01*
X478036688Y11125518D01*
X478036845Y11125000D01*
X478036688Y11124482D01*
X478024428Y11000000D01*
X478024428Y10600000D01*
X478036688Y10475518D01*
X478036845Y10475000D01*
X478036688Y10474482D01*
X478035444Y10461846D01*
X477603444Y10893845D01*
X477621008Y10951745D01*
X477638072Y11124999D01*
X477638072Y11775001D01*
X477621008Y11948255D01*
X477570472Y12114851D01*
X477488405Y12268387D01*
X477377962Y12402962D01*
X477371406Y12408342D01*
X477451185Y12473815D01*
X477530537Y12570506D01*
X477589502Y12680820D01*
X477625812Y12800518D01*
X477638072Y12925000D01*
X477635000Y13214250D01*
X477476250Y13373000D01*
X476427000Y13373000D01*
X476427000Y13353000D01*
X476173000Y13353000D01*
X476173000Y13373000D01*
X475123750Y13373000D01*
X474965000Y13214250D01*
X474961928Y12925000D01*
X474974188Y12800518D01*
X475010498Y12680820D01*
X475069463Y12570506D01*
X475148815Y12473815D01*
X475228594Y12408342D01*
X475222038Y12402962D01*
X475166263Y12335000D01*
X474745932Y12335000D01*
X474700000Y12339524D01*
X474654068Y12335000D01*
X474516708Y12321471D01*
X474340460Y12268007D01*
X474178028Y12181186D01*
X474035656Y12064344D01*
X473918814Y11921972D01*
X473831993Y11759540D01*
X473778529Y11583292D01*
X473760476Y11400000D01*
X473765000Y11354068D01*
X473765001Y10310514D01*
X473238072Y9783584D01*
X473238072Y11050000D01*
X473221008Y11223254D01*
X473170472Y11389850D01*
X473088405Y11543386D01*
X472977962Y11677962D01*
X472901187Y11740969D01*
X472954494Y11769463D01*
X473051185Y11848815D01*
X473130537Y11945506D01*
X473189502Y12055820D01*
X473225812Y12175518D01*
X473238072Y12300000D01*
X473235000Y13314250D01*
X473076250Y13473000D01*
X471927000Y13473000D01*
X471927000Y13453000D01*
X471673000Y13453000D01*
X471673000Y13473000D01*
X470523750Y13473000D01*
X470365000Y13314250D01*
X470361928Y12300000D01*
X470374188Y12175518D01*
X470410498Y12055820D01*
X470469463Y11945506D01*
X470548815Y11848815D01*
X470645506Y11769463D01*
X470698813Y11740969D01*
X470622038Y11677962D01*
X470511595Y11543386D01*
X470429528Y11389850D01*
X470378992Y11223254D01*
X470361928Y11050000D01*
X470361928Y8960361D01*
X467924029Y11398260D01*
X467970472Y11485149D01*
X468021008Y11651745D01*
X468038072Y11824999D01*
X468038072Y12475001D01*
X468021008Y12648255D01*
X467970472Y12814851D01*
X467888405Y12968387D01*
X467777962Y13102962D01*
X467771406Y13108342D01*
X467851185Y13173815D01*
X467930537Y13270506D01*
X467989502Y13380820D01*
X468025812Y13500518D01*
X468038072Y13625000D01*
X468035000Y13914250D01*
X467876250Y14073000D01*
X466827000Y14073000D01*
X466827000Y14053000D01*
X466573000Y14053000D01*
X466573000Y14073000D01*
X465523750Y14073000D01*
X465365000Y13914250D01*
X465361928Y13625000D01*
X465374188Y13500518D01*
X465410498Y13380820D01*
X465469463Y13270506D01*
X465548815Y13173815D01*
X465628594Y13108342D01*
X465622038Y13102962D01*
X465511595Y12968387D01*
X465429528Y12814851D01*
X465378992Y12648255D01*
X465361928Y12475001D01*
X465361928Y11824999D01*
X465378992Y11651745D01*
X465429528Y11485149D01*
X465441138Y11463427D01*
X463371341Y9393630D01*
X463335656Y9364344D01*
X463218814Y9221971D01*
X463131993Y9059539D01*
X463078529Y8883292D01*
X463078529Y8883291D01*
X463072883Y8825969D01*
X462950000Y8838072D01*
X461450000Y8838072D01*
X461325518Y8825812D01*
X461205820Y8789502D01*
X461095506Y8730537D01*
X461050000Y8693191D01*
X461004494Y8730537D01*
X460894180Y8789502D01*
X460835000Y8807454D01*
X460835000Y11861928D01*
X461800000Y11861928D01*
X461924482Y11874188D01*
X462044180Y11910498D01*
X462154494Y11969463D01*
X462251185Y12048815D01*
X462330537Y12145506D01*
X462389502Y12255820D01*
X462425812Y12375518D01*
X462438072Y12500000D01*
X462438072Y14500000D01*
X462425812Y14624482D01*
X462389502Y14744180D01*
X462330537Y14854494D01*
X462251185Y14951185D01*
X462154494Y15030537D01*
X462044180Y15089502D01*
X461924482Y15125812D01*
X461800000Y15138072D01*
X458000000Y15138072D01*
X457875518Y15125812D01*
X457755820Y15089502D01*
X457645506Y15030537D01*
X457548815Y14951185D01*
X457469463Y14854494D01*
X457410498Y14744180D01*
X457374188Y14624482D01*
X457361928Y14500000D01*
X457361928Y12500000D01*
X457374188Y12375518D01*
X457410498Y12255820D01*
X457469463Y12145506D01*
X457548815Y12048815D01*
X457645506Y11969463D01*
X457755820Y11910498D01*
X457875518Y11874188D01*
X458000000Y11861928D01*
X458965000Y11861928D01*
X458965001Y8807454D01*
X458905820Y8789502D01*
X458795506Y8730537D01*
X458750000Y8693191D01*
X458704494Y8730537D01*
X458594180Y8789502D01*
X458474482Y8825812D01*
X458350000Y8838072D01*
X456850000Y8838072D01*
X456725518Y8825812D01*
X456605820Y8789502D01*
X456495506Y8730537D01*
X456398815Y8651185D01*
X456319463Y8554494D01*
X456260498Y8444180D01*
X456224188Y8324482D01*
X456211928Y8200000D01*
X456211928Y6462874D01*
X451460000Y11214801D01*
X451460000Y11545746D01*
X451552962Y11622038D01*
X451663405Y11756613D01*
X451745472Y11910149D01*
X451796008Y12076745D01*
X451813072Y12249999D01*
X451813072Y13150001D01*
X451796008Y13323255D01*
X451745472Y13489851D01*
X451663405Y13643387D01*
X451552962Y13777962D01*
X451418387Y13888405D01*
X451264851Y13970472D01*
X451098255Y14021008D01*
X450925001Y14038072D01*
X450274999Y14038072D01*
X450101745Y14021008D01*
X449935149Y13970472D01*
X449781613Y13888405D01*
X449647038Y13777962D01*
X449641658Y13771406D01*
X449576185Y13851185D01*
X449479494Y13930537D01*
X449369180Y13989502D01*
X449249482Y14025812D01*
X449125000Y14038072D01*
X448835750Y14035000D01*
X448677000Y13876250D01*
X448677000Y12827000D01*
X448697000Y12827000D01*
X448697000Y12573000D01*
X448677000Y12573000D01*
X448677000Y11523750D01*
X448835750Y11365000D01*
X449125000Y11361928D01*
X449249482Y11374188D01*
X449369180Y11410498D01*
X449479494Y11469463D01*
X449576185Y11548815D01*
X449641658Y11628594D01*
X449647038Y11622038D01*
X449781613Y11511595D01*
X449935149Y11429528D01*
X449940000Y11428056D01*
X449940000Y11396057D01*
X449825723Y11334974D01*
X449812688Y11324276D01*
X449709999Y11240001D01*
X449686201Y11211003D01*
X448401064Y9925866D01*
X448351745Y9921008D01*
X448185149Y9870472D01*
X448031613Y9788405D01*
X447897038Y9677962D01*
X447786595Y9543387D01*
X447704528Y9389851D01*
X447653992Y9223255D01*
X447636928Y9050001D01*
X447636928Y8149999D01*
X447653992Y7976745D01*
X447704528Y7810149D01*
X447786595Y7656613D01*
X447897038Y7522038D01*
X448031613Y7411595D01*
X448185149Y7329528D01*
X448351745Y7278992D01*
X448524999Y7261928D01*
X449175001Y7261928D01*
X449348255Y7278992D01*
X449514851Y7329528D01*
X449668387Y7411595D01*
X449802962Y7522038D01*
X449875000Y7609816D01*
X449947038Y7522038D01*
X449965001Y7507296D01*
X449965000Y4545932D01*
X449960476Y4500000D01*
X449970325Y4400001D01*
X449978529Y4316709D01*
X450031993Y4140461D01*
X450065000Y4078708D01*
X450065001Y3145941D01*
X450060476Y3100000D01*
X450078529Y2916709D01*
X450131994Y2740460D01*
X450218815Y2578028D01*
X450335657Y2435656D01*
X450371336Y2406375D01*
X451297107Y1480604D01*
X451172038Y1377962D01*
X451166658Y1371406D01*
X451101185Y1451185D01*
X451004494Y1530537D01*
X450894180Y1589502D01*
X450774482Y1625812D01*
X450650000Y1638072D01*
X450360750Y1635000D01*
X450202000Y1476250D01*
X450202000Y427000D01*
X450222000Y427000D01*
X450222000Y173000D01*
X450202000Y173000D01*
X450202000Y-876250D01*
X450360750Y-1035000D01*
X450650000Y-1038072D01*
X450774482Y-1025812D01*
X450894180Y-989502D01*
X451004494Y-930537D01*
X451101185Y-851185D01*
X451166658Y-771406D01*
X451172038Y-777962D01*
X451306613Y-888405D01*
X451365001Y-919614D01*
X451365001Y-1554058D01*
X451360476Y-1600000D01*
X451378529Y-1783291D01*
X451419001Y-1916708D01*
X451431994Y-1959540D01*
X451518815Y-2121972D01*
X451635657Y-2264344D01*
X451671336Y-2293625D01*
X453139638Y-3761928D01*
X451750000Y-3761928D01*
X451576746Y-3778992D01*
X451410150Y-3829528D01*
X451256614Y-3911595D01*
X451122038Y-4022038D01*
X451059031Y-4098813D01*
X451030537Y-4045506D01*
X450951185Y-3948815D01*
X450854494Y-3869463D01*
X450744180Y-3810498D01*
X450624482Y-3774188D01*
X450500000Y-3761928D01*
X449485750Y-3765000D01*
X449327000Y-3923750D01*
X449327000Y-5073000D01*
X449347000Y-5073000D01*
X449347000Y-5327000D01*
X449327000Y-5327000D01*
X449327000Y-6476250D01*
X449485750Y-6635000D01*
X450500000Y-6638072D01*
X450624482Y-6625812D01*
X450744180Y-6589502D01*
X450854494Y-6530537D01*
X450951185Y-6451185D01*
X451030537Y-6354494D01*
X451059031Y-6301187D01*
X451122038Y-6377962D01*
X451256614Y-6488405D01*
X451410150Y-6570472D01*
X451576746Y-6621008D01*
X451750000Y-6638072D01*
X453850000Y-6638072D01*
X454023254Y-6621008D01*
X454189850Y-6570472D01*
X454343386Y-6488405D01*
X454477962Y-6377962D01*
X454588405Y-6243386D01*
X454592887Y-6235000D01*
X454654068Y-6235000D01*
X454700000Y-6239524D01*
X454745932Y-6235000D01*
X454883292Y-6221471D01*
X455059540Y-6168007D01*
X455221972Y-6081186D01*
X455364344Y-5964344D01*
X455393631Y-5928658D01*
X455828654Y-5493634D01*
X455864344Y-5464344D01*
X455981186Y-5321972D01*
X456068007Y-5159540D01*
X456098058Y-5060476D01*
X456121472Y-4983292D01*
X456139524Y-4800000D01*
X456135000Y-4754065D01*
X456135000Y-3945931D01*
X456139524Y-3900000D01*
X456135000Y-3854065D01*
X456135000Y-3487289D01*
X456687289Y-2935000D01*
X459186780Y-2935000D01*
X459222038Y-2977962D01*
X459356613Y-3088405D01*
X459510149Y-3170472D01*
X459676745Y-3221008D01*
X459849999Y-3238072D01*
X460750001Y-3238072D01*
X460923255Y-3221008D01*
X461089851Y-3170472D01*
X461243387Y-3088405D01*
X461315231Y-3029444D01*
X461356613Y-3063405D01*
X461510149Y-3145472D01*
X461676745Y-3196008D01*
X461849999Y-3213072D01*
X462038384Y-3213072D01*
X461925518Y-3224188D01*
X461900000Y-3231929D01*
X461874482Y-3224188D01*
X461750000Y-3211928D01*
X461250000Y-3211928D01*
X461125518Y-3224188D01*
X461005820Y-3260498D01*
X460895506Y-3319463D01*
X460798815Y-3398815D01*
X460719463Y-3495506D01*
X460660498Y-3605820D01*
X460624188Y-3725518D01*
X460611928Y-3850000D01*
X460611928Y-3956607D01*
X460578529Y-4066709D01*
X460565000Y-4204069D01*
X460565001Y-5204060D01*
X460565000Y-5204069D01*
X460565000Y-6145932D01*
X460578530Y-6283292D01*
X460611928Y-6393391D01*
X460611928Y-6411928D01*
X458710000Y-6411928D01*
X458585518Y-6424188D01*
X458465820Y-6460498D01*
X458355506Y-6519463D01*
X458258815Y-6598815D01*
X458179463Y-6695506D01*
X458120498Y-6805820D01*
X458084188Y-6925518D01*
X458071928Y-7050000D01*
X458071928Y-7550000D01*
X458084188Y-7674482D01*
X458091929Y-7700000D01*
X458084188Y-7725518D01*
X458071928Y-7850000D01*
X458071928Y-8350000D01*
X458084188Y-8474482D01*
X458091929Y-8500000D01*
X458084188Y-8525518D01*
X458071928Y-8650000D01*
X458071928Y-9150000D01*
X458084188Y-9274482D01*
X458091929Y-9300000D01*
X458084188Y-9325518D01*
X458071928Y-9450000D01*
X458071928Y-9950000D01*
X458084188Y-10074482D01*
X458091929Y-10100000D01*
X458084188Y-10125518D01*
X458071928Y-10250000D01*
X458071928Y-10750000D01*
X458084188Y-10874482D01*
X458091929Y-10900000D01*
X458084188Y-10925518D01*
X458071928Y-11050000D01*
X458071928Y-11550000D01*
X458084188Y-11674482D01*
X458091929Y-11700000D01*
X458084188Y-11725518D01*
X458071928Y-11850000D01*
X458071928Y-12350000D01*
X458084188Y-12474482D01*
X458091929Y-12500000D01*
X458084188Y-12525518D01*
X458071928Y-12650000D01*
X458071928Y-13150000D01*
X458084188Y-13274482D01*
X458091929Y-13300000D01*
X458084188Y-13325518D01*
X458071928Y-13450000D01*
X458071928Y-13950000D01*
X458084188Y-14074482D01*
X458091929Y-14100000D01*
X458084188Y-14125518D01*
X458071928Y-14250000D01*
X458071928Y-14750000D01*
X458084188Y-14874482D01*
X458091929Y-14900000D01*
X458084188Y-14925518D01*
X458071928Y-15050000D01*
X458071928Y-15550000D01*
X458084188Y-15674482D01*
X458091929Y-15700000D01*
X458084188Y-15725518D01*
X458071928Y-15850000D01*
X458071928Y-16350000D01*
X458084188Y-16474482D01*
X458120498Y-16594180D01*
X458179463Y-16704494D01*
X458258815Y-16801185D01*
X458355506Y-16880537D01*
X458465820Y-16939502D01*
X458585518Y-16975812D01*
X458710000Y-16988072D01*
X460612782Y-16988072D01*
X460615000Y-17064250D01*
X460773750Y-17223000D01*
X460891728Y-17223000D01*
X460883857Y-17227434D01*
X460788945Y-17308906D01*
X460711751Y-17407328D01*
X460655241Y-17518920D01*
X460625553Y-17625197D01*
X460615000Y-17635750D01*
X460612084Y-17735886D01*
X460613160Y-17750000D01*
X460612084Y-17764114D01*
X460615000Y-17864250D01*
X460625553Y-17874803D01*
X460655241Y-17981080D01*
X460711751Y-18092672D01*
X460755014Y-18147832D01*
X460712795Y-18201661D01*
X460656285Y-18313253D01*
X460624805Y-18425945D01*
X460615000Y-18435750D01*
X460612084Y-18535886D01*
X460613466Y-18554017D01*
X460613128Y-18558447D01*
X460616044Y-18658583D01*
X460622952Y-18665491D01*
X460655241Y-18781080D01*
X460711751Y-18892672D01*
X460788945Y-18991094D01*
X460882421Y-19071333D01*
X460774794Y-19071333D01*
X460616044Y-19230083D01*
X460613128Y-19330219D01*
X460622632Y-19454941D01*
X460656285Y-19575413D01*
X460712795Y-19687005D01*
X460789989Y-19785427D01*
X460884901Y-19866899D01*
X460993884Y-19928289D01*
X461112750Y-19967238D01*
X461219294Y-19979333D01*
X461378044Y-19820583D01*
X461378044Y-19185000D01*
X461412972Y-19185000D01*
X461412972Y-19344333D01*
X461425232Y-19468815D01*
X461461542Y-19588513D01*
X461520507Y-19698827D01*
X461599859Y-19795518D01*
X461624044Y-19815366D01*
X461624044Y-19820583D01*
X461782794Y-19979333D01*
X461889338Y-19967238D01*
X461902626Y-19962884D01*
X461926562Y-19970145D01*
X462051044Y-19982405D01*
X462551044Y-19982405D01*
X462675526Y-19970145D01*
X462699462Y-19962884D01*
X462712750Y-19967238D01*
X462819294Y-19979333D01*
X462978044Y-19820583D01*
X462978044Y-19815366D01*
X463002229Y-19795518D01*
X463081581Y-19698827D01*
X463101044Y-19662415D01*
X463120507Y-19698827D01*
X463199859Y-19795518D01*
X463224044Y-19815366D01*
X463224044Y-19820583D01*
X463382794Y-19979333D01*
X463489338Y-19967238D01*
X463502626Y-19962884D01*
X463526562Y-19970145D01*
X463651044Y-19982405D01*
X464151044Y-19982405D01*
X464275526Y-19970145D01*
X464301044Y-19962404D01*
X464326562Y-19970145D01*
X464451044Y-19982405D01*
X464951044Y-19982405D01*
X465075526Y-19970145D01*
X465101044Y-19962404D01*
X465126562Y-19970145D01*
X465251044Y-19982405D01*
X465751044Y-19982405D01*
X465875526Y-19970145D01*
X465901044Y-19962404D01*
X465926562Y-19970145D01*
X465962388Y-19973673D01*
X465929528Y-20035149D01*
X465878992Y-20201745D01*
X465861928Y-20374999D01*
X465861928Y-21025001D01*
X465878992Y-21198255D01*
X465929528Y-21364851D01*
X466011595Y-21518387D01*
X466122038Y-21652962D01*
X466128594Y-21658342D01*
X466048815Y-21723815D01*
X465969463Y-21820506D01*
X465910498Y-21930820D01*
X465874188Y-22050518D01*
X465861928Y-22175000D01*
X465865000Y-22464250D01*
X466023750Y-22623000D01*
X467073000Y-22623000D01*
X467073000Y-22603000D01*
X467327000Y-22603000D01*
X467327000Y-22623000D01*
X468376250Y-22623000D01*
X468535000Y-22464250D01*
X468538072Y-22175000D01*
X468536473Y-22158762D01*
X469717711Y-23340000D01*
X468536595Y-23340000D01*
X468538072Y-23325000D01*
X468535000Y-23035750D01*
X468376250Y-22877000D01*
X467327000Y-22877000D01*
X467327000Y-22897000D01*
X467073000Y-22897000D01*
X467073000Y-22877000D01*
X466023750Y-22877000D01*
X465865000Y-23035750D01*
X465861928Y-23325000D01*
X465863405Y-23340000D01*
X446660000Y-23340000D01*
X446660000Y-6000000D01*
X447261928Y-6000000D01*
X447274188Y-6124482D01*
X447310498Y-6244180D01*
X447369463Y-6354494D01*
X447448815Y-6451185D01*
X447545506Y-6530537D01*
X447655820Y-6589502D01*
X447775518Y-6625812D01*
X447900000Y-6638072D01*
X448914250Y-6635000D01*
X449073000Y-6476250D01*
X449073000Y-5327000D01*
X447423750Y-5327000D01*
X447265000Y-5485750D01*
X447261928Y-6000000D01*
X446660000Y-6000000D01*
X446660000Y-4400000D01*
X447261928Y-4400000D01*
X447265000Y-4914250D01*
X447423750Y-5073000D01*
X449073000Y-5073000D01*
X449073000Y-3923750D01*
X448914250Y-3765000D01*
X447900000Y-3761928D01*
X447775518Y-3774188D01*
X447655820Y-3810498D01*
X447545506Y-3869463D01*
X447448815Y-3948815D01*
X447369463Y-4045506D01*
X447310498Y-4155820D01*
X447274188Y-4275518D01*
X447261928Y-4400000D01*
X446660000Y-4400000D01*
X446660000Y-400000D01*
X448861928Y-400000D01*
X448874188Y-524482D01*
X448910498Y-644180D01*
X448969463Y-754494D01*
X449048815Y-851185D01*
X449145506Y-930537D01*
X449255820Y-989502D01*
X449375518Y-1025812D01*
X449500000Y-1038072D01*
X449789250Y-1035000D01*
X449948000Y-876250D01*
X449948000Y173000D01*
X449023750Y173000D01*
X448865000Y14250D01*
X448861928Y-400000D01*
X446660000Y-400000D01*
X446660000Y1000000D01*
X448861928Y1000000D01*
X448865000Y585750D01*
X449023750Y427000D01*
X449948000Y427000D01*
X449948000Y1476250D01*
X449789250Y1635000D01*
X449500000Y1638072D01*
X449375518Y1625812D01*
X449255820Y1589502D01*
X449145506Y1530537D01*
X449048815Y1451185D01*
X448969463Y1354494D01*
X448910498Y1244180D01*
X448874188Y1124482D01*
X448861928Y1000000D01*
X446660000Y1000000D01*
X446660000Y12000000D01*
X447336928Y12000000D01*
X447349188Y11875518D01*
X447385498Y11755820D01*
X447444463Y11645506D01*
X447523815Y11548815D01*
X447620506Y11469463D01*
X447730820Y11410498D01*
X447850518Y11374188D01*
X447975000Y11361928D01*
X448264250Y11365000D01*
X448423000Y11523750D01*
X448423000Y12573000D01*
X447498750Y12573000D01*
X447340000Y12414250D01*
X447336928Y12000000D01*
X446660000Y12000000D01*
X446660000Y13400000D01*
X447336928Y13400000D01*
X447340000Y12985750D01*
X447498750Y12827000D01*
X448423000Y12827000D01*
X448423000Y13876250D01*
X448264250Y14035000D01*
X447975000Y14038072D01*
X447850518Y14025812D01*
X447730820Y13989502D01*
X447620506Y13930537D01*
X447523815Y13851185D01*
X447444463Y13754494D01*
X447385498Y13644180D01*
X447349188Y13524482D01*
X447336928Y13400000D01*
X446660000Y13400000D01*
X446660000Y15340000D01*
X465709981Y15340000D01*
X465645506Y15305537D01*
G36*
X482522038Y-11402962D02*
G01*
X482528594Y-11408342D01*
X482448815Y-11473815D01*
X482369463Y-11570506D01*
X482310498Y-11680820D01*
X482274188Y-11800518D01*
X482261928Y-11925000D01*
X482265000Y-12214250D01*
X482423750Y-12373000D01*
X483473000Y-12373000D01*
X483473000Y-12353000D01*
X483727000Y-12353000D01*
X483727000Y-12373000D01*
X483747000Y-12373000D01*
X483747000Y-12627000D01*
X483727000Y-12627000D01*
X483727000Y-13551250D01*
X483885750Y-13710000D01*
X484165000Y-13712071D01*
X484165000Y-15012711D01*
X482471336Y-16706375D01*
X482435657Y-16735656D01*
X482318815Y-16878028D01*
X482266888Y-16975178D01*
X482231994Y-17040460D01*
X482178529Y-17216709D01*
X482160476Y-17400000D01*
X482165001Y-17445942D01*
X482165000Y-22265000D01*
X480888521Y-22265000D01*
X481103411Y-22175990D01*
X481346632Y-22013475D01*
X481553475Y-21806632D01*
X481715990Y-21563411D01*
X481827932Y-21293158D01*
X481885000Y-21006260D01*
X481885000Y-20713740D01*
X481827932Y-20426842D01*
X481715990Y-20156589D01*
X481553475Y-19913368D01*
X481346632Y-19706525D01*
X481172240Y-19590000D01*
X481346632Y-19473475D01*
X481553475Y-19266632D01*
X481715990Y-19023411D01*
X481827932Y-18753158D01*
X481885000Y-18466260D01*
X481885000Y-18173740D01*
X481827932Y-17886842D01*
X481715990Y-17616589D01*
X481553475Y-17373368D01*
X481346632Y-17166525D01*
X481164466Y-17044805D01*
X481281355Y-16975178D01*
X481497588Y-16780269D01*
X481671641Y-16546920D01*
X481796825Y-16284099D01*
X481841476Y-16136890D01*
X481720155Y-15907000D01*
X480527000Y-15907000D01*
X480527000Y-15927000D01*
X480273000Y-15927000D01*
X480273000Y-15907000D01*
X479079845Y-15907000D01*
X478958524Y-16136890D01*
X479003175Y-16284099D01*
X479128359Y-16546920D01*
X479302412Y-16780269D01*
X479518645Y-16975178D01*
X479635534Y-17044805D01*
X479453368Y-17166525D01*
X479246525Y-17373368D01*
X479167075Y-17492273D01*
X475734801Y-14060000D01*
X479161912Y-14060000D01*
X479246525Y-14186632D01*
X479453368Y-14393475D01*
X479635534Y-14515195D01*
X479518645Y-14584822D01*
X479302412Y-14779731D01*
X479128359Y-15013080D01*
X479003175Y-15275901D01*
X478958524Y-15423110D01*
X479079845Y-15653000D01*
X480273000Y-15653000D01*
X480273000Y-15633000D01*
X480527000Y-15633000D01*
X480527000Y-15653000D01*
X481720155Y-15653000D01*
X481841476Y-15423110D01*
X481796825Y-15275901D01*
X481671641Y-15013080D01*
X481497588Y-14779731D01*
X481281355Y-14584822D01*
X481164466Y-14515195D01*
X481346632Y-14393475D01*
X481553475Y-14186632D01*
X481715990Y-13943411D01*
X481827932Y-13673158D01*
X481885000Y-13386260D01*
X481885000Y-13093740D01*
X481881273Y-13075000D01*
X482261928Y-13075000D01*
X482274188Y-13199482D01*
X482310498Y-13319180D01*
X482369463Y-13429494D01*
X482448815Y-13526185D01*
X482545506Y-13605537D01*
X482655820Y-13664502D01*
X482775518Y-13700812D01*
X482900000Y-13713072D01*
X483314250Y-13710000D01*
X483473000Y-13551250D01*
X483473000Y-12627000D01*
X482423750Y-12627000D01*
X482265000Y-12785750D01*
X482261928Y-13075000D01*
X481881273Y-13075000D01*
X481827932Y-12806842D01*
X481715990Y-12536589D01*
X481553475Y-12293368D01*
X481421620Y-12161513D01*
X481494180Y-12139502D01*
X481604494Y-12080537D01*
X481701185Y-12001185D01*
X481780537Y-11904494D01*
X481839502Y-11794180D01*
X481875812Y-11674482D01*
X481879542Y-11636614D01*
X481895932Y-11635000D01*
X482033292Y-11621471D01*
X482209540Y-11568007D01*
X482371972Y-11481186D01*
X482500004Y-11376113D01*
X482522038Y-11402962D01*
G37*
X482522038Y-11402962D02*
X482528594Y-11408342D01*
X482448815Y-11473815D01*
X482369463Y-11570506D01*
X482310498Y-11680820D01*
X482274188Y-11800518D01*
X482261928Y-11925000D01*
X482265000Y-12214250D01*
X482423750Y-12373000D01*
X483473000Y-12373000D01*
X483473000Y-12353000D01*
X483727000Y-12353000D01*
X483727000Y-12373000D01*
X483747000Y-12373000D01*
X483747000Y-12627000D01*
X483727000Y-12627000D01*
X483727000Y-13551250D01*
X483885750Y-13710000D01*
X484165000Y-13712071D01*
X484165000Y-15012711D01*
X482471336Y-16706375D01*
X482435657Y-16735656D01*
X482318815Y-16878028D01*
X482266888Y-16975178D01*
X482231994Y-17040460D01*
X482178529Y-17216709D01*
X482160476Y-17400000D01*
X482165001Y-17445942D01*
X482165000Y-22265000D01*
X480888521Y-22265000D01*
X481103411Y-22175990D01*
X481346632Y-22013475D01*
X481553475Y-21806632D01*
X481715990Y-21563411D01*
X481827932Y-21293158D01*
X481885000Y-21006260D01*
X481885000Y-20713740D01*
X481827932Y-20426842D01*
X481715990Y-20156589D01*
X481553475Y-19913368D01*
X481346632Y-19706525D01*
X481172240Y-19590000D01*
X481346632Y-19473475D01*
X481553475Y-19266632D01*
X481715990Y-19023411D01*
X481827932Y-18753158D01*
X481885000Y-18466260D01*
X481885000Y-18173740D01*
X481827932Y-17886842D01*
X481715990Y-17616589D01*
X481553475Y-17373368D01*
X481346632Y-17166525D01*
X481164466Y-17044805D01*
X481281355Y-16975178D01*
X481497588Y-16780269D01*
X481671641Y-16546920D01*
X481796825Y-16284099D01*
X481841476Y-16136890D01*
X481720155Y-15907000D01*
X480527000Y-15907000D01*
X480527000Y-15927000D01*
X480273000Y-15927000D01*
X480273000Y-15907000D01*
X479079845Y-15907000D01*
X478958524Y-16136890D01*
X479003175Y-16284099D01*
X479128359Y-16546920D01*
X479302412Y-16780269D01*
X479518645Y-16975178D01*
X479635534Y-17044805D01*
X479453368Y-17166525D01*
X479246525Y-17373368D01*
X479167075Y-17492273D01*
X475734801Y-14060000D01*
X479161912Y-14060000D01*
X479246525Y-14186632D01*
X479453368Y-14393475D01*
X479635534Y-14515195D01*
X479518645Y-14584822D01*
X479302412Y-14779731D01*
X479128359Y-15013080D01*
X479003175Y-15275901D01*
X478958524Y-15423110D01*
X479079845Y-15653000D01*
X480273000Y-15653000D01*
X480273000Y-15633000D01*
X480527000Y-15633000D01*
X480527000Y-15653000D01*
X481720155Y-15653000D01*
X481841476Y-15423110D01*
X481796825Y-15275901D01*
X481671641Y-15013080D01*
X481497588Y-14779731D01*
X481281355Y-14584822D01*
X481164466Y-14515195D01*
X481346632Y-14393475D01*
X481553475Y-14186632D01*
X481715990Y-13943411D01*
X481827932Y-13673158D01*
X481885000Y-13386260D01*
X481885000Y-13093740D01*
X481881273Y-13075000D01*
X482261928Y-13075000D01*
X482274188Y-13199482D01*
X482310498Y-13319180D01*
X482369463Y-13429494D01*
X482448815Y-13526185D01*
X482545506Y-13605537D01*
X482655820Y-13664502D01*
X482775518Y-13700812D01*
X482900000Y-13713072D01*
X483314250Y-13710000D01*
X483473000Y-13551250D01*
X483473000Y-12627000D01*
X482423750Y-12627000D01*
X482265000Y-12785750D01*
X482261928Y-13075000D01*
X481881273Y-13075000D01*
X481827932Y-12806842D01*
X481715990Y-12536589D01*
X481553475Y-12293368D01*
X481421620Y-12161513D01*
X481494180Y-12139502D01*
X481604494Y-12080537D01*
X481701185Y-12001185D01*
X481780537Y-11904494D01*
X481839502Y-11794180D01*
X481875812Y-11674482D01*
X481879542Y-11636614D01*
X481895932Y-11635000D01*
X482033292Y-11621471D01*
X482209540Y-11568007D01*
X482371972Y-11481186D01*
X482500004Y-11376113D01*
X482522038Y-11402962D01*
G36*
X478336201Y-18811003D02*
G01*
X478359999Y-18840001D01*
X478475724Y-18934974D01*
X478607753Y-19005546D01*
X478751014Y-19049003D01*
X478862667Y-19060000D01*
X478862675Y-19060000D01*
X478900000Y-19063676D01*
X478937325Y-19060000D01*
X479108458Y-19060000D01*
X479246525Y-19266632D01*
X479453368Y-19473475D01*
X479627760Y-19590000D01*
X479453368Y-19706525D01*
X479246525Y-19913368D01*
X479161912Y-20040000D01*
X474371944Y-20040000D01*
X474370472Y-20035149D01*
X474288405Y-19881613D01*
X474177962Y-19747038D01*
X474171406Y-19741658D01*
X474251185Y-19676185D01*
X474330537Y-19579494D01*
X474389502Y-19469180D01*
X474425812Y-19349482D01*
X474438072Y-19225000D01*
X474435000Y-18935750D01*
X474276250Y-18777000D01*
X473227000Y-18777000D01*
X473227000Y-18797000D01*
X472973000Y-18797000D01*
X472973000Y-18777000D01*
X471923750Y-18777000D01*
X471765000Y-18935750D01*
X471761928Y-19225000D01*
X471774188Y-19349482D01*
X471810498Y-19469180D01*
X471869463Y-19579494D01*
X471948815Y-19676185D01*
X472028594Y-19741658D01*
X472022038Y-19747038D01*
X471911595Y-19881613D01*
X471829528Y-20035149D01*
X471828056Y-20040000D01*
X470560000Y-20040000D01*
X470560000Y-19981523D01*
X470675526Y-19970145D01*
X470795224Y-19933835D01*
X470905538Y-19874870D01*
X471002229Y-19795518D01*
X471081581Y-19698827D01*
X471140546Y-19588513D01*
X471176856Y-19468815D01*
X471189116Y-19344333D01*
X471189116Y-18544333D01*
X471188072Y-18533733D01*
X471188072Y-18075000D01*
X471761928Y-18075000D01*
X471765000Y-18364250D01*
X471923750Y-18523000D01*
X472973000Y-18523000D01*
X472973000Y-17598750D01*
X473227000Y-17598750D01*
X473227000Y-18523000D01*
X474276250Y-18523000D01*
X474435000Y-18364250D01*
X474438072Y-18075000D01*
X474425812Y-17950518D01*
X474389502Y-17830820D01*
X474330537Y-17720506D01*
X474251185Y-17623815D01*
X474154494Y-17544463D01*
X474044180Y-17485498D01*
X473924482Y-17449188D01*
X473800000Y-17436928D01*
X473385750Y-17440000D01*
X473227000Y-17598750D01*
X472973000Y-17598750D01*
X472814250Y-17440000D01*
X472400000Y-17436928D01*
X472275518Y-17449188D01*
X472155820Y-17485498D01*
X472045506Y-17544463D01*
X471948815Y-17623815D01*
X471869463Y-17720506D01*
X471810498Y-17830820D01*
X471774188Y-17950518D01*
X471761928Y-18075000D01*
X471188072Y-18075000D01*
X471188072Y-16988072D01*
X473100000Y-16988072D01*
X473224482Y-16975812D01*
X473344180Y-16939502D01*
X473454494Y-16880537D01*
X473551185Y-16801185D01*
X473630537Y-16704494D01*
X473689502Y-16594180D01*
X473725812Y-16474482D01*
X473738072Y-16350000D01*
X473738072Y-15850000D01*
X473726890Y-15736465D01*
X473768007Y-15659540D01*
X473821471Y-15483292D01*
X473839524Y-15300000D01*
X473821471Y-15116708D01*
X473768007Y-14940460D01*
X473726890Y-14863535D01*
X473738072Y-14750000D01*
X473738072Y-14514742D01*
X473739524Y-14500000D01*
X473738072Y-14485258D01*
X473738072Y-14274506D01*
X473765854Y-14240655D01*
X478336201Y-18811003D01*
G37*
X478336201Y-18811003D02*
X478359999Y-18840001D01*
X478475724Y-18934974D01*
X478607753Y-19005546D01*
X478751014Y-19049003D01*
X478862667Y-19060000D01*
X478862675Y-19060000D01*
X478900000Y-19063676D01*
X478937325Y-19060000D01*
X479108458Y-19060000D01*
X479246525Y-19266632D01*
X479453368Y-19473475D01*
X479627760Y-19590000D01*
X479453368Y-19706525D01*
X479246525Y-19913368D01*
X479161912Y-20040000D01*
X474371944Y-20040000D01*
X474370472Y-20035149D01*
X474288405Y-19881613D01*
X474177962Y-19747038D01*
X474171406Y-19741658D01*
X474251185Y-19676185D01*
X474330537Y-19579494D01*
X474389502Y-19469180D01*
X474425812Y-19349482D01*
X474438072Y-19225000D01*
X474435000Y-18935750D01*
X474276250Y-18777000D01*
X473227000Y-18777000D01*
X473227000Y-18797000D01*
X472973000Y-18797000D01*
X472973000Y-18777000D01*
X471923750Y-18777000D01*
X471765000Y-18935750D01*
X471761928Y-19225000D01*
X471774188Y-19349482D01*
X471810498Y-19469180D01*
X471869463Y-19579494D01*
X471948815Y-19676185D01*
X472028594Y-19741658D01*
X472022038Y-19747038D01*
X471911595Y-19881613D01*
X471829528Y-20035149D01*
X471828056Y-20040000D01*
X470560000Y-20040000D01*
X470560000Y-19981523D01*
X470675526Y-19970145D01*
X470795224Y-19933835D01*
X470905538Y-19874870D01*
X471002229Y-19795518D01*
X471081581Y-19698827D01*
X471140546Y-19588513D01*
X471176856Y-19468815D01*
X471189116Y-19344333D01*
X471189116Y-18544333D01*
X471188072Y-18533733D01*
X471188072Y-18075000D01*
X471761928Y-18075000D01*
X471765000Y-18364250D01*
X471923750Y-18523000D01*
X472973000Y-18523000D01*
X472973000Y-17598750D01*
X473227000Y-17598750D01*
X473227000Y-18523000D01*
X474276250Y-18523000D01*
X474435000Y-18364250D01*
X474438072Y-18075000D01*
X474425812Y-17950518D01*
X474389502Y-17830820D01*
X474330537Y-17720506D01*
X474251185Y-17623815D01*
X474154494Y-17544463D01*
X474044180Y-17485498D01*
X473924482Y-17449188D01*
X473800000Y-17436928D01*
X473385750Y-17440000D01*
X473227000Y-17598750D01*
X472973000Y-17598750D01*
X472814250Y-17440000D01*
X472400000Y-17436928D01*
X472275518Y-17449188D01*
X472155820Y-17485498D01*
X472045506Y-17544463D01*
X471948815Y-17623815D01*
X471869463Y-17720506D01*
X471810498Y-17830820D01*
X471774188Y-17950518D01*
X471761928Y-18075000D01*
X471188072Y-18075000D01*
X471188072Y-16988072D01*
X473100000Y-16988072D01*
X473224482Y-16975812D01*
X473344180Y-16939502D01*
X473454494Y-16880537D01*
X473551185Y-16801185D01*
X473630537Y-16704494D01*
X473689502Y-16594180D01*
X473725812Y-16474482D01*
X473738072Y-16350000D01*
X473738072Y-15850000D01*
X473726890Y-15736465D01*
X473768007Y-15659540D01*
X473821471Y-15483292D01*
X473839524Y-15300000D01*
X473821471Y-15116708D01*
X473768007Y-14940460D01*
X473726890Y-14863535D01*
X473738072Y-14750000D01*
X473738072Y-14514742D01*
X473739524Y-14500000D01*
X473738072Y-14485258D01*
X473738072Y-14274506D01*
X473765854Y-14240655D01*
X478336201Y-18811003D01*
G36*
X465519463Y-6804494D02*
G01*
X465598815Y-6901185D01*
X465623000Y-6921033D01*
X465623000Y-6926250D01*
X465781750Y-7085000D01*
X465888294Y-7072905D01*
X465901582Y-7068551D01*
X465925518Y-7075812D01*
X466050000Y-7088072D01*
X466550000Y-7088072D01*
X466674482Y-7075812D01*
X466700000Y-7068071D01*
X466725518Y-7075812D01*
X466850000Y-7088072D01*
X467010313Y-7088072D01*
X467031993Y-7159541D01*
X467118814Y-7321973D01*
X467235656Y-7464346D01*
X467271341Y-7493632D01*
X467545049Y-7767340D01*
X467475518Y-7774188D01*
X467355820Y-7810498D01*
X467245506Y-7869463D01*
X467150000Y-7947842D01*
X467054494Y-7869463D01*
X466944180Y-7810498D01*
X466824482Y-7774188D01*
X466700000Y-7761928D01*
X466185750Y-7765000D01*
X466027000Y-7923750D01*
X466027000Y-9073000D01*
X468273000Y-9073000D01*
X468273000Y-9053000D01*
X468527000Y-9053000D01*
X468527000Y-9073000D01*
X468547000Y-9073000D01*
X468547000Y-9327000D01*
X468527000Y-9327000D01*
X468527000Y-11573000D01*
X468547000Y-11573000D01*
X468547000Y-11827000D01*
X468527000Y-11827000D01*
X468527000Y-14073000D01*
X468547000Y-14073000D01*
X468547000Y-14327000D01*
X468527000Y-14327000D01*
X468527000Y-14347000D01*
X468273000Y-14347000D01*
X468273000Y-14327000D01*
X466027000Y-14327000D01*
X466027000Y-15476250D01*
X466185750Y-15635000D01*
X466700000Y-15638072D01*
X466743967Y-15633742D01*
X466471336Y-15906373D01*
X466435657Y-15935654D01*
X466318815Y-16078026D01*
X466270720Y-16168007D01*
X466231994Y-16240458D01*
X466210314Y-16311928D01*
X466050000Y-16311928D01*
X465925518Y-16324188D01*
X465900000Y-16331929D01*
X465874482Y-16324188D01*
X465750000Y-16311928D01*
X465250000Y-16311928D01*
X465125518Y-16324188D01*
X465100000Y-16331929D01*
X465074482Y-16324188D01*
X464950000Y-16311928D01*
X464450000Y-16311928D01*
X464325518Y-16324188D01*
X464300000Y-16331929D01*
X464274482Y-16324188D01*
X464150000Y-16311928D01*
X463650000Y-16311928D01*
X463525518Y-16324188D01*
X463501582Y-16331449D01*
X463488294Y-16327095D01*
X463381750Y-16315000D01*
X463223000Y-16473750D01*
X463223000Y-16478967D01*
X463198815Y-16498815D01*
X463119463Y-16595506D01*
X463100000Y-16631918D01*
X463080537Y-16595506D01*
X463001185Y-16498815D01*
X462977000Y-16478967D01*
X462977000Y-16473750D01*
X462818250Y-16315000D01*
X462711706Y-16327095D01*
X462698418Y-16331449D01*
X462674482Y-16324188D01*
X462550000Y-16311928D01*
X462050000Y-16311928D01*
X461925518Y-16324188D01*
X461901582Y-16331449D01*
X461888294Y-16327095D01*
X461781750Y-16315000D01*
X461737124Y-16359626D01*
X461738072Y-16350000D01*
X461738072Y-15850000D01*
X461725812Y-15725518D01*
X461718071Y-15700000D01*
X461725812Y-15674482D01*
X461738072Y-15550000D01*
X461738072Y-15050000D01*
X461733148Y-15000000D01*
X461961928Y-15000000D01*
X461974188Y-15124482D01*
X462010498Y-15244180D01*
X462069463Y-15354494D01*
X462148815Y-15451185D01*
X462245506Y-15530537D01*
X462355820Y-15589502D01*
X462475518Y-15625812D01*
X462600000Y-15638072D01*
X463114250Y-15635000D01*
X463273000Y-15476250D01*
X463273000Y-14327000D01*
X463527000Y-14327000D01*
X463527000Y-15476250D01*
X463685750Y-15635000D01*
X464200000Y-15638072D01*
X464324482Y-15625812D01*
X464444180Y-15589502D01*
X464554494Y-15530537D01*
X464650000Y-15452158D01*
X464745506Y-15530537D01*
X464855820Y-15589502D01*
X464975518Y-15625812D01*
X465100000Y-15638072D01*
X465614250Y-15635000D01*
X465773000Y-15476250D01*
X465773000Y-14327000D01*
X463527000Y-14327000D01*
X463273000Y-14327000D01*
X462123750Y-14327000D01*
X461965000Y-14485750D01*
X461961928Y-15000000D01*
X461733148Y-15000000D01*
X461725812Y-14925518D01*
X461718071Y-14900000D01*
X461725812Y-14874482D01*
X461738072Y-14750000D01*
X461738072Y-14250000D01*
X461725812Y-14125518D01*
X461718071Y-14100000D01*
X461725812Y-14074482D01*
X461738072Y-13950000D01*
X461738072Y-13450000D01*
X461725812Y-13325518D01*
X461718071Y-13300000D01*
X461725812Y-13274482D01*
X461738072Y-13150000D01*
X461738072Y-12650000D01*
X461725812Y-12525518D01*
X461718071Y-12500000D01*
X461961928Y-12500000D01*
X461974188Y-12624482D01*
X462010498Y-12744180D01*
X462069463Y-12854494D01*
X462147842Y-12950000D01*
X462069463Y-13045506D01*
X462010498Y-13155820D01*
X461974188Y-13275518D01*
X461961928Y-13400000D01*
X461965000Y-13914250D01*
X462123750Y-14073000D01*
X463273000Y-14073000D01*
X463273000Y-11827000D01*
X463527000Y-11827000D01*
X463527000Y-14073000D01*
X465773000Y-14073000D01*
X465773000Y-11827000D01*
X466027000Y-11827000D01*
X466027000Y-14073000D01*
X468273000Y-14073000D01*
X468273000Y-11827000D01*
X466027000Y-11827000D01*
X465773000Y-11827000D01*
X463527000Y-11827000D01*
X463273000Y-11827000D01*
X462123750Y-11827000D01*
X461965000Y-11985750D01*
X461961928Y-12500000D01*
X461718071Y-12500000D01*
X461725812Y-12474482D01*
X461738072Y-12350000D01*
X461738072Y-11850000D01*
X461725812Y-11725518D01*
X461718071Y-11700000D01*
X461725812Y-11674482D01*
X461738072Y-11550000D01*
X461738072Y-11050000D01*
X461725812Y-10925518D01*
X461718071Y-10900000D01*
X461725812Y-10874482D01*
X461738072Y-10750000D01*
X461738072Y-10250000D01*
X461725812Y-10125518D01*
X461718071Y-10100000D01*
X461725812Y-10074482D01*
X461733147Y-10000000D01*
X461961928Y-10000000D01*
X461974188Y-10124482D01*
X462010498Y-10244180D01*
X462069463Y-10354494D01*
X462147842Y-10450000D01*
X462069463Y-10545506D01*
X462010498Y-10655820D01*
X461974188Y-10775518D01*
X461961928Y-10900000D01*
X461965000Y-11414250D01*
X462123750Y-11573000D01*
X463273000Y-11573000D01*
X463273000Y-9327000D01*
X463527000Y-9327000D01*
X463527000Y-11573000D01*
X465773000Y-11573000D01*
X465773000Y-9327000D01*
X466027000Y-9327000D01*
X466027000Y-11573000D01*
X468273000Y-11573000D01*
X468273000Y-9327000D01*
X466027000Y-9327000D01*
X465773000Y-9327000D01*
X463527000Y-9327000D01*
X463273000Y-9327000D01*
X462123750Y-9327000D01*
X461965000Y-9485750D01*
X461961928Y-10000000D01*
X461733147Y-10000000D01*
X461738072Y-9950000D01*
X461738072Y-9450000D01*
X461725812Y-9325518D01*
X461718071Y-9300000D01*
X461725812Y-9274482D01*
X461738072Y-9150000D01*
X461738072Y-8650000D01*
X461725812Y-8525518D01*
X461718071Y-8500000D01*
X461725812Y-8474482D01*
X461733147Y-8400000D01*
X461961928Y-8400000D01*
X461965000Y-8914250D01*
X462123750Y-9073000D01*
X463273000Y-9073000D01*
X463273000Y-7923750D01*
X463527000Y-7923750D01*
X463527000Y-9073000D01*
X465773000Y-9073000D01*
X465773000Y-7923750D01*
X465614250Y-7765000D01*
X465100000Y-7761928D01*
X464975518Y-7774188D01*
X464855820Y-7810498D01*
X464745506Y-7869463D01*
X464650000Y-7947842D01*
X464554494Y-7869463D01*
X464444180Y-7810498D01*
X464324482Y-7774188D01*
X464200000Y-7761928D01*
X463685750Y-7765000D01*
X463527000Y-7923750D01*
X463273000Y-7923750D01*
X463114250Y-7765000D01*
X462600000Y-7761928D01*
X462475518Y-7774188D01*
X462355820Y-7810498D01*
X462245506Y-7869463D01*
X462148815Y-7948815D01*
X462069463Y-8045506D01*
X462010498Y-8155820D01*
X461974188Y-8275518D01*
X461961928Y-8400000D01*
X461733147Y-8400000D01*
X461738072Y-8350000D01*
X461738072Y-7850000D01*
X461725812Y-7725518D01*
X461718071Y-7700000D01*
X461725812Y-7674482D01*
X461738072Y-7550000D01*
X461738072Y-7088072D01*
X461750000Y-7088072D01*
X461874482Y-7075812D01*
X461900000Y-7068071D01*
X461925518Y-7075812D01*
X462050000Y-7088072D01*
X462550000Y-7088072D01*
X462674482Y-7075812D01*
X462700000Y-7068071D01*
X462725518Y-7075812D01*
X462785745Y-7081744D01*
X462916709Y-7121471D01*
X463100000Y-7139524D01*
X463283292Y-7121471D01*
X463414257Y-7081743D01*
X463474482Y-7075812D01*
X463500000Y-7068071D01*
X463525518Y-7075812D01*
X463650000Y-7088072D01*
X464150000Y-7088072D01*
X464274482Y-7075812D01*
X464300000Y-7068071D01*
X464325518Y-7075812D01*
X464450000Y-7088072D01*
X464950000Y-7088072D01*
X465074482Y-7075812D01*
X465098418Y-7068551D01*
X465111706Y-7072905D01*
X465218250Y-7085000D01*
X465377000Y-6926250D01*
X465377000Y-6921033D01*
X465401185Y-6901185D01*
X465480537Y-6804494D01*
X465500000Y-6768082D01*
X465519463Y-6804494D01*
G37*
X465519463Y-6804494D02*
X465598815Y-6901185D01*
X465623000Y-6921033D01*
X465623000Y-6926250D01*
X465781750Y-7085000D01*
X465888294Y-7072905D01*
X465901582Y-7068551D01*
X465925518Y-7075812D01*
X466050000Y-7088072D01*
X466550000Y-7088072D01*
X466674482Y-7075812D01*
X466700000Y-7068071D01*
X466725518Y-7075812D01*
X466850000Y-7088072D01*
X467010313Y-7088072D01*
X467031993Y-7159541D01*
X467118814Y-7321973D01*
X467235656Y-7464346D01*
X467271341Y-7493632D01*
X467545049Y-7767340D01*
X467475518Y-7774188D01*
X467355820Y-7810498D01*
X467245506Y-7869463D01*
X467150000Y-7947842D01*
X467054494Y-7869463D01*
X466944180Y-7810498D01*
X466824482Y-7774188D01*
X466700000Y-7761928D01*
X466185750Y-7765000D01*
X466027000Y-7923750D01*
X466027000Y-9073000D01*
X468273000Y-9073000D01*
X468273000Y-9053000D01*
X468527000Y-9053000D01*
X468527000Y-9073000D01*
X468547000Y-9073000D01*
X468547000Y-9327000D01*
X468527000Y-9327000D01*
X468527000Y-11573000D01*
X468547000Y-11573000D01*
X468547000Y-11827000D01*
X468527000Y-11827000D01*
X468527000Y-14073000D01*
X468547000Y-14073000D01*
X468547000Y-14327000D01*
X468527000Y-14327000D01*
X468527000Y-14347000D01*
X468273000Y-14347000D01*
X468273000Y-14327000D01*
X466027000Y-14327000D01*
X466027000Y-15476250D01*
X466185750Y-15635000D01*
X466700000Y-15638072D01*
X466743967Y-15633742D01*
X466471336Y-15906373D01*
X466435657Y-15935654D01*
X466318815Y-16078026D01*
X466270720Y-16168007D01*
X466231994Y-16240458D01*
X466210314Y-16311928D01*
X466050000Y-16311928D01*
X465925518Y-16324188D01*
X465900000Y-16331929D01*
X465874482Y-16324188D01*
X465750000Y-16311928D01*
X465250000Y-16311928D01*
X465125518Y-16324188D01*
X465100000Y-16331929D01*
X465074482Y-16324188D01*
X464950000Y-16311928D01*
X464450000Y-16311928D01*
X464325518Y-16324188D01*
X464300000Y-16331929D01*
X464274482Y-16324188D01*
X464150000Y-16311928D01*
X463650000Y-16311928D01*
X463525518Y-16324188D01*
X463501582Y-16331449D01*
X463488294Y-16327095D01*
X463381750Y-16315000D01*
X463223000Y-16473750D01*
X463223000Y-16478967D01*
X463198815Y-16498815D01*
X463119463Y-16595506D01*
X463100000Y-16631918D01*
X463080537Y-16595506D01*
X463001185Y-16498815D01*
X462977000Y-16478967D01*
X462977000Y-16473750D01*
X462818250Y-16315000D01*
X462711706Y-16327095D01*
X462698418Y-16331449D01*
X462674482Y-16324188D01*
X462550000Y-16311928D01*
X462050000Y-16311928D01*
X461925518Y-16324188D01*
X461901582Y-16331449D01*
X461888294Y-16327095D01*
X461781750Y-16315000D01*
X461737124Y-16359626D01*
X461738072Y-16350000D01*
X461738072Y-15850000D01*
X461725812Y-15725518D01*
X461718071Y-15700000D01*
X461725812Y-15674482D01*
X461738072Y-15550000D01*
X461738072Y-15050000D01*
X461733148Y-15000000D01*
X461961928Y-15000000D01*
X461974188Y-15124482D01*
X462010498Y-15244180D01*
X462069463Y-15354494D01*
X462148815Y-15451185D01*
X462245506Y-15530537D01*
X462355820Y-15589502D01*
X462475518Y-15625812D01*
X462600000Y-15638072D01*
X463114250Y-15635000D01*
X463273000Y-15476250D01*
X463273000Y-14327000D01*
X463527000Y-14327000D01*
X463527000Y-15476250D01*
X463685750Y-15635000D01*
X464200000Y-15638072D01*
X464324482Y-15625812D01*
X464444180Y-15589502D01*
X464554494Y-15530537D01*
X464650000Y-15452158D01*
X464745506Y-15530537D01*
X464855820Y-15589502D01*
X464975518Y-15625812D01*
X465100000Y-15638072D01*
X465614250Y-15635000D01*
X465773000Y-15476250D01*
X465773000Y-14327000D01*
X463527000Y-14327000D01*
X463273000Y-14327000D01*
X462123750Y-14327000D01*
X461965000Y-14485750D01*
X461961928Y-15000000D01*
X461733148Y-15000000D01*
X461725812Y-14925518D01*
X461718071Y-14900000D01*
X461725812Y-14874482D01*
X461738072Y-14750000D01*
X461738072Y-14250000D01*
X461725812Y-14125518D01*
X461718071Y-14100000D01*
X461725812Y-14074482D01*
X461738072Y-13950000D01*
X461738072Y-13450000D01*
X461725812Y-13325518D01*
X461718071Y-13300000D01*
X461725812Y-13274482D01*
X461738072Y-13150000D01*
X461738072Y-12650000D01*
X461725812Y-12525518D01*
X461718071Y-12500000D01*
X461961928Y-12500000D01*
X461974188Y-12624482D01*
X462010498Y-12744180D01*
X462069463Y-12854494D01*
X462147842Y-12950000D01*
X462069463Y-13045506D01*
X462010498Y-13155820D01*
X461974188Y-13275518D01*
X461961928Y-13400000D01*
X461965000Y-13914250D01*
X462123750Y-14073000D01*
X463273000Y-14073000D01*
X463273000Y-11827000D01*
X463527000Y-11827000D01*
X463527000Y-14073000D01*
X465773000Y-14073000D01*
X465773000Y-11827000D01*
X466027000Y-11827000D01*
X466027000Y-14073000D01*
X468273000Y-14073000D01*
X468273000Y-11827000D01*
X466027000Y-11827000D01*
X465773000Y-11827000D01*
X463527000Y-11827000D01*
X463273000Y-11827000D01*
X462123750Y-11827000D01*
X461965000Y-11985750D01*
X461961928Y-12500000D01*
X461718071Y-12500000D01*
X461725812Y-12474482D01*
X461738072Y-12350000D01*
X461738072Y-11850000D01*
X461725812Y-11725518D01*
X461718071Y-11700000D01*
X461725812Y-11674482D01*
X461738072Y-11550000D01*
X461738072Y-11050000D01*
X461725812Y-10925518D01*
X461718071Y-10900000D01*
X461725812Y-10874482D01*
X461738072Y-10750000D01*
X461738072Y-10250000D01*
X461725812Y-10125518D01*
X461718071Y-10100000D01*
X461725812Y-10074482D01*
X461733147Y-10000000D01*
X461961928Y-10000000D01*
X461974188Y-10124482D01*
X462010498Y-10244180D01*
X462069463Y-10354494D01*
X462147842Y-10450000D01*
X462069463Y-10545506D01*
X462010498Y-10655820D01*
X461974188Y-10775518D01*
X461961928Y-10900000D01*
X461965000Y-11414250D01*
X462123750Y-11573000D01*
X463273000Y-11573000D01*
X463273000Y-9327000D01*
X463527000Y-9327000D01*
X463527000Y-11573000D01*
X465773000Y-11573000D01*
X465773000Y-9327000D01*
X466027000Y-9327000D01*
X466027000Y-11573000D01*
X468273000Y-11573000D01*
X468273000Y-9327000D01*
X466027000Y-9327000D01*
X465773000Y-9327000D01*
X463527000Y-9327000D01*
X463273000Y-9327000D01*
X462123750Y-9327000D01*
X461965000Y-9485750D01*
X461961928Y-10000000D01*
X461733147Y-10000000D01*
X461738072Y-9950000D01*
X461738072Y-9450000D01*
X461725812Y-9325518D01*
X461718071Y-9300000D01*
X461725812Y-9274482D01*
X461738072Y-9150000D01*
X461738072Y-8650000D01*
X461725812Y-8525518D01*
X461718071Y-8500000D01*
X461725812Y-8474482D01*
X461733147Y-8400000D01*
X461961928Y-8400000D01*
X461965000Y-8914250D01*
X462123750Y-9073000D01*
X463273000Y-9073000D01*
X463273000Y-7923750D01*
X463527000Y-7923750D01*
X463527000Y-9073000D01*
X465773000Y-9073000D01*
X465773000Y-7923750D01*
X465614250Y-7765000D01*
X465100000Y-7761928D01*
X464975518Y-7774188D01*
X464855820Y-7810498D01*
X464745506Y-7869463D01*
X464650000Y-7947842D01*
X464554494Y-7869463D01*
X464444180Y-7810498D01*
X464324482Y-7774188D01*
X464200000Y-7761928D01*
X463685750Y-7765000D01*
X463527000Y-7923750D01*
X463273000Y-7923750D01*
X463114250Y-7765000D01*
X462600000Y-7761928D01*
X462475518Y-7774188D01*
X462355820Y-7810498D01*
X462245506Y-7869463D01*
X462148815Y-7948815D01*
X462069463Y-8045506D01*
X462010498Y-8155820D01*
X461974188Y-8275518D01*
X461961928Y-8400000D01*
X461733147Y-8400000D01*
X461738072Y-8350000D01*
X461738072Y-7850000D01*
X461725812Y-7725518D01*
X461718071Y-7700000D01*
X461725812Y-7674482D01*
X461738072Y-7550000D01*
X461738072Y-7088072D01*
X461750000Y-7088072D01*
X461874482Y-7075812D01*
X461900000Y-7068071D01*
X461925518Y-7075812D01*
X462050000Y-7088072D01*
X462550000Y-7088072D01*
X462674482Y-7075812D01*
X462700000Y-7068071D01*
X462725518Y-7075812D01*
X462785745Y-7081744D01*
X462916709Y-7121471D01*
X463100000Y-7139524D01*
X463283292Y-7121471D01*
X463414257Y-7081743D01*
X463474482Y-7075812D01*
X463500000Y-7068071D01*
X463525518Y-7075812D01*
X463650000Y-7088072D01*
X464150000Y-7088072D01*
X464274482Y-7075812D01*
X464300000Y-7068071D01*
X464325518Y-7075812D01*
X464450000Y-7088072D01*
X464950000Y-7088072D01*
X465074482Y-7075812D01*
X465098418Y-7068551D01*
X465111706Y-7072905D01*
X465218250Y-7085000D01*
X465377000Y-6926250D01*
X465377000Y-6921033D01*
X465401185Y-6901185D01*
X465480537Y-6804494D01*
X465500000Y-6768082D01*
X465519463Y-6804494D01*
G36*
X485340001Y-9917712D02*
G01*
X485293631Y-9871342D01*
X485264344Y-9835656D01*
X485121972Y-9718814D01*
X484959540Y-9631993D01*
X484783292Y-9578529D01*
X484741459Y-9574409D01*
X484677962Y-9497038D01*
X484543387Y-9386595D01*
X484389851Y-9304528D01*
X484223255Y-9253992D01*
X484050001Y-9236928D01*
X483149999Y-9236928D01*
X482976745Y-9253992D01*
X482810149Y-9304528D01*
X482656613Y-9386595D01*
X482561076Y-9465000D01*
X482245935Y-9465000D01*
X482200000Y-9460476D01*
X482016709Y-9478528D01*
X481851879Y-9528529D01*
X481840460Y-9531993D01*
X481809022Y-9548797D01*
X481780537Y-9495506D01*
X481701185Y-9398815D01*
X481604494Y-9319463D01*
X481494180Y-9260498D01*
X481374482Y-9224188D01*
X481250000Y-9211928D01*
X479550000Y-9211928D01*
X479425518Y-9224188D01*
X479305820Y-9260498D01*
X479195506Y-9319463D01*
X479098815Y-9398815D01*
X479019463Y-9495506D01*
X478960498Y-9605820D01*
X478924188Y-9725518D01*
X478911928Y-9850000D01*
X478911928Y-11550000D01*
X478924188Y-11674482D01*
X478960498Y-11794180D01*
X479019463Y-11904494D01*
X479098815Y-12001185D01*
X479195506Y-12080537D01*
X479305820Y-12139502D01*
X479378380Y-12161513D01*
X479246525Y-12293368D01*
X479084010Y-12536589D01*
X479082597Y-12540000D01*
X475214802Y-12540000D01*
X475212874Y-12538072D01*
X475300001Y-12538072D01*
X475473255Y-12521008D01*
X475639851Y-12470472D01*
X475793387Y-12388405D01*
X475927962Y-12277962D01*
X475933342Y-12271406D01*
X475998815Y-12351185D01*
X476095506Y-12430537D01*
X476205820Y-12489502D01*
X476325518Y-12525812D01*
X476450000Y-12538072D01*
X476739250Y-12535000D01*
X476898000Y-12376250D01*
X476898000Y-11327000D01*
X477152000Y-11327000D01*
X477152000Y-12376250D01*
X477310750Y-12535000D01*
X477600000Y-12538072D01*
X477724482Y-12525812D01*
X477844180Y-12489502D01*
X477954494Y-12430537D01*
X478051185Y-12351185D01*
X478130537Y-12254494D01*
X478189502Y-12144180D01*
X478225812Y-12024482D01*
X478238072Y-11900000D01*
X478235000Y-11485750D01*
X478076250Y-11327000D01*
X477152000Y-11327000D01*
X476898000Y-11327000D01*
X476878000Y-11327000D01*
X476878000Y-11073000D01*
X476898000Y-11073000D01*
X476898000Y-10023750D01*
X477152000Y-10023750D01*
X477152000Y-11073000D01*
X478076250Y-11073000D01*
X478235000Y-10914250D01*
X478238072Y-10500000D01*
X478225812Y-10375518D01*
X478189502Y-10255820D01*
X478130537Y-10145506D01*
X478051185Y-10048815D01*
X477954494Y-9969463D01*
X477844180Y-9910498D01*
X477724482Y-9874188D01*
X477600000Y-9861928D01*
X477310750Y-9865000D01*
X477152000Y-10023750D01*
X476898000Y-10023750D01*
X476739250Y-9865000D01*
X476450000Y-9861928D01*
X476325518Y-9874188D01*
X476205820Y-9910498D01*
X476095506Y-9969463D01*
X475998815Y-10048815D01*
X475933342Y-10128594D01*
X475927962Y-10122038D01*
X475793387Y-10011595D01*
X475639851Y-9929528D01*
X475473255Y-9878992D01*
X475300001Y-9861928D01*
X474649999Y-9861928D01*
X474476745Y-9878992D01*
X474310149Y-9929528D01*
X474156613Y-10011595D01*
X474022038Y-10122038D01*
X473911595Y-10256613D01*
X473829528Y-10410149D01*
X473790138Y-10540000D01*
X473479518Y-10540000D01*
X473454494Y-10519463D01*
X473418082Y-10500000D01*
X473454494Y-10480537D01*
X473551185Y-10401185D01*
X473571033Y-10377000D01*
X473576250Y-10377000D01*
X473735000Y-10218250D01*
X473725921Y-10138277D01*
X473768007Y-10059540D01*
X473821471Y-9883292D01*
X473839524Y-9700000D01*
X473821471Y-9516708D01*
X473788553Y-9408190D01*
X473868007Y-9259540D01*
X473921471Y-9083292D01*
X473939524Y-8900000D01*
X473921471Y-8716708D01*
X473868007Y-8540460D01*
X473788553Y-8391810D01*
X473821471Y-8283292D01*
X473839524Y-8100000D01*
X473821471Y-7916708D01*
X473768007Y-7740460D01*
X473746381Y-7700000D01*
X473768007Y-7659540D01*
X473821471Y-7483292D01*
X473839524Y-7300000D01*
X473821471Y-7116708D01*
X473768007Y-6940460D01*
X473681186Y-6778028D01*
X473662432Y-6755176D01*
X473630537Y-6695506D01*
X473551185Y-6598815D01*
X473454494Y-6519463D01*
X473344180Y-6460498D01*
X473271781Y-6438536D01*
X473259540Y-6431993D01*
X473083292Y-6378529D01*
X472945932Y-6365000D01*
X471223273Y-6365000D01*
X471235000Y-6245932D01*
X471235000Y-4204068D01*
X471221471Y-4066708D01*
X471188072Y-3956606D01*
X471188072Y-3850000D01*
X471175812Y-3725518D01*
X471139502Y-3605820D01*
X471080537Y-3495506D01*
X471001185Y-3398815D01*
X470904494Y-3319463D01*
X470794180Y-3260498D01*
X470674482Y-3224188D01*
X470550000Y-3211928D01*
X470050000Y-3211928D01*
X469925518Y-3224188D01*
X469900000Y-3231929D01*
X469874482Y-3224188D01*
X469750000Y-3211928D01*
X469250000Y-3211928D01*
X469125518Y-3224188D01*
X469101582Y-3231449D01*
X469088294Y-3227095D01*
X468981750Y-3215000D01*
X468835000Y-3361750D01*
X468835000Y-2674771D01*
X468952962Y-2577962D01*
X468958342Y-2571406D01*
X469023815Y-2651185D01*
X469120506Y-2730537D01*
X469230820Y-2789502D01*
X469350518Y-2825812D01*
X469475000Y-2838072D01*
X469764250Y-2835000D01*
X469923000Y-2676250D01*
X469923000Y-1627000D01*
X470177000Y-1627000D01*
X470177000Y-2676250D01*
X470335750Y-2835000D01*
X470625000Y-2838072D01*
X470749482Y-2825812D01*
X470869180Y-2789502D01*
X470979494Y-2730537D01*
X471076185Y-2651185D01*
X471155537Y-2554494D01*
X471214502Y-2444180D01*
X471250812Y-2324482D01*
X471263072Y-2200000D01*
X471260000Y-1785750D01*
X471101250Y-1627000D01*
X470177000Y-1627000D01*
X469923000Y-1627000D01*
X469903000Y-1627000D01*
X469903000Y-1373000D01*
X469923000Y-1373000D01*
X469923000Y473000D01*
X470177000Y473000D01*
X470177000Y-1373000D01*
X471101250Y-1373000D01*
X471260000Y-1214250D01*
X471263072Y-800000D01*
X471250812Y-675518D01*
X471214502Y-555820D01*
X471157939Y-450000D01*
X471214502Y-344180D01*
X471250812Y-224482D01*
X471263072Y-100000D01*
X471260000Y314250D01*
X471101250Y473000D01*
X470177000Y473000D01*
X469923000Y473000D01*
X469903000Y473000D01*
X469903000Y727000D01*
X469923000Y727000D01*
X469923000Y1776250D01*
X470177000Y1776250D01*
X470177000Y727000D01*
X471101250Y727000D01*
X471260000Y885750D01*
X471263072Y1300000D01*
X471250812Y1424482D01*
X471214502Y1544180D01*
X471155537Y1654494D01*
X471076185Y1751185D01*
X470979494Y1830537D01*
X470869180Y1889502D01*
X470749482Y1925812D01*
X470625000Y1938072D01*
X470335750Y1935000D01*
X470177000Y1776250D01*
X469923000Y1776250D01*
X469764250Y1935000D01*
X469475000Y1938072D01*
X469350518Y1925812D01*
X469230820Y1889502D01*
X469120506Y1830537D01*
X469023815Y1751185D01*
X468958342Y1671406D01*
X468952962Y1677962D01*
X468818387Y1788405D01*
X468664851Y1870472D01*
X468498255Y1921008D01*
X468325001Y1938072D01*
X467674999Y1938072D01*
X467501745Y1921008D01*
X467335149Y1870472D01*
X467181613Y1788405D01*
X467047038Y1677962D01*
X466936595Y1543387D01*
X466854528Y1389851D01*
X466803992Y1223255D01*
X466786928Y1050001D01*
X466786928Y149999D01*
X466803992Y-23255D01*
X466854528Y-189851D01*
X466936595Y-343387D01*
X466965001Y-378000D01*
X466965001Y-522000D01*
X466936595Y-556613D01*
X466854528Y-710149D01*
X466803992Y-876745D01*
X466786928Y-1049999D01*
X466786928Y-1950001D01*
X466803992Y-2123255D01*
X466847022Y-2265107D01*
X466845932Y-2265000D01*
X466800000Y-2260476D01*
X466754068Y-2265000D01*
X466687290Y-2265000D01*
X465793630Y-1371341D01*
X465764344Y-1335656D01*
X465621972Y-1218814D01*
X465602817Y-1208575D01*
X465588405Y-1181613D01*
X465477962Y-1047038D01*
X465471406Y-1041658D01*
X465551185Y-976185D01*
X465630537Y-879494D01*
X465689502Y-769180D01*
X465725812Y-649482D01*
X465738072Y-525000D01*
X465735000Y-235750D01*
X465576250Y-77000D01*
X464527000Y-77000D01*
X464527000Y-97000D01*
X464273000Y-97000D01*
X464273000Y-77000D01*
X462427000Y-77000D01*
X462427000Y-97000D01*
X462173000Y-97000D01*
X462173000Y-77000D01*
X461123750Y-77000D01*
X461098750Y-102000D01*
X460427000Y-102000D01*
X460427000Y-122000D01*
X460173000Y-122000D01*
X460173000Y-102000D01*
X459123750Y-102000D01*
X458965000Y-260750D01*
X458961928Y-550000D01*
X458974188Y-674482D01*
X459010498Y-794180D01*
X459069463Y-904494D01*
X459148815Y-1001185D01*
X459226574Y-1065000D01*
X456345931Y-1065000D01*
X456299999Y-1060476D01*
X456116708Y-1078529D01*
X455940460Y-1131993D01*
X455778028Y-1218814D01*
X455635656Y-1335656D01*
X455606370Y-1371341D01*
X454571336Y-2406375D01*
X454535657Y-2435656D01*
X454511575Y-2465000D01*
X454487290Y-2465000D01*
X453235000Y-1212711D01*
X453235000Y-556214D01*
X453270472Y-489851D01*
X453321008Y-323255D01*
X453338072Y-150001D01*
X453338072Y600000D01*
X458961928Y600000D01*
X458965000Y310750D01*
X459123750Y152000D01*
X460173000Y152000D01*
X460173000Y1076250D01*
X460427000Y1076250D01*
X460427000Y152000D01*
X461476250Y152000D01*
X461501250Y177000D01*
X462173000Y177000D01*
X462173000Y1101250D01*
X462427000Y1101250D01*
X462427000Y177000D01*
X464273000Y177000D01*
X464273000Y1101250D01*
X464527000Y1101250D01*
X464527000Y177000D01*
X465576250Y177000D01*
X465735000Y335750D01*
X465738072Y625000D01*
X465725812Y749482D01*
X465689502Y869180D01*
X465630537Y979494D01*
X465551185Y1076185D01*
X465454494Y1155537D01*
X465344180Y1214502D01*
X465224482Y1250812D01*
X465100000Y1263072D01*
X464685750Y1260000D01*
X464527000Y1101250D01*
X464273000Y1101250D01*
X464114250Y1260000D01*
X463700000Y1263072D01*
X463575518Y1250812D01*
X463455820Y1214502D01*
X463350000Y1157939D01*
X463244180Y1214502D01*
X463124482Y1250812D01*
X463000000Y1263072D01*
X462585750Y1260000D01*
X462427000Y1101250D01*
X462173000Y1101250D01*
X462014250Y1260000D01*
X461600000Y1263072D01*
X461475518Y1250812D01*
X461355820Y1214502D01*
X461276615Y1172165D01*
X461244180Y1189502D01*
X461124482Y1225812D01*
X461000000Y1238072D01*
X460585750Y1235000D01*
X460427000Y1076250D01*
X460173000Y1076250D01*
X460014250Y1235000D01*
X459600000Y1238072D01*
X459475518Y1225812D01*
X459355820Y1189502D01*
X459245506Y1130537D01*
X459148815Y1051185D01*
X459069463Y954494D01*
X459010498Y844180D01*
X458974188Y724482D01*
X458961928Y600000D01*
X453338072Y600000D01*
X453338072Y750001D01*
X453321008Y923255D01*
X453270472Y1089851D01*
X453235000Y1156214D01*
X453235000Y1754065D01*
X453239524Y1800000D01*
X453221472Y1983292D01*
X453168007Y2159541D01*
X453129280Y2231993D01*
X453081186Y2321972D01*
X452964344Y2464344D01*
X452928660Y2493629D01*
X451957289Y3465000D01*
X459754068Y3465000D01*
X459800000Y3460476D01*
X459845932Y3465000D01*
X459983292Y3478529D01*
X460159540Y3531993D01*
X460321972Y3618814D01*
X460464344Y3735656D01*
X460493630Y3771341D01*
X460528659Y3806370D01*
X460564344Y3835656D01*
X460681186Y3978028D01*
X460768007Y4140460D01*
X460821471Y4316708D01*
X460835000Y4454068D01*
X460835000Y4454069D01*
X460839524Y4499999D01*
X460835000Y4545931D01*
X460835000Y5592546D01*
X460894180Y5610498D01*
X461004494Y5669463D01*
X461050000Y5706809D01*
X461095506Y5669463D01*
X461163726Y5632998D01*
X461160476Y5600000D01*
X461178529Y5416708D01*
X461231993Y5240460D01*
X461318814Y5078028D01*
X461364819Y5021971D01*
X461435656Y4935656D01*
X461578028Y4818814D01*
X461740460Y4731993D01*
X461916708Y4678529D01*
X462100000Y4660476D01*
X462145932Y4665000D01*
X463954068Y4665000D01*
X464000000Y4660476D01*
X464045932Y4665000D01*
X464183292Y4678529D01*
X464359540Y4731993D01*
X464521972Y4818814D01*
X464664344Y4935656D01*
X464781186Y5078028D01*
X464868007Y5240460D01*
X464921471Y5416708D01*
X464939524Y5600000D01*
X464935000Y5645932D01*
X464935000Y8312711D01*
X466650000Y10027711D01*
X469306370Y7371341D01*
X469335656Y7335656D01*
X469478028Y7218814D01*
X469640460Y7131993D01*
X469712828Y7110041D01*
X469816708Y7078528D01*
X470000000Y7060476D01*
X470045935Y7065000D01*
X471754068Y7065000D01*
X471800000Y7060476D01*
X471845932Y7065000D01*
X472554068Y7065000D01*
X472600000Y7060476D01*
X472645932Y7065000D01*
X472783292Y7078529D01*
X472959540Y7131993D01*
X473121972Y7218814D01*
X473264344Y7335656D01*
X473285034Y7360867D01*
X478577972Y7360867D01*
X478640465Y7124550D01*
X478883178Y7011150D01*
X479143349Y6947281D01*
X479410982Y6935396D01*
X479675791Y6975952D01*
X479927600Y7067391D01*
X480034535Y7124550D01*
X480097028Y7360867D01*
X479337500Y8120395D01*
X478577972Y7360867D01*
X473285034Y7360867D01*
X473293630Y7371341D01*
X474093623Y8171334D01*
X474181185Y8278028D01*
X474268006Y8440459D01*
X474303727Y8558215D01*
X474941785Y9196273D01*
X475059540Y9231993D01*
X475221972Y9318814D01*
X475364344Y9435656D01*
X475481186Y9578028D01*
X475568007Y9740460D01*
X475621471Y9916708D01*
X475635000Y10054068D01*
X475635000Y10211457D01*
X475635657Y10210656D01*
X475671336Y10181375D01*
X477081374Y8771336D01*
X477110656Y8735656D01*
X477253028Y8618814D01*
X477415460Y8531993D01*
X477558749Y8488527D01*
X477591708Y8478529D01*
X477774999Y8460476D01*
X477820931Y8465000D01*
X477983486Y8465000D01*
X477972896Y8226518D01*
X478013452Y7961709D01*
X478104891Y7709900D01*
X478162050Y7602965D01*
X478398367Y7540472D01*
X479157895Y8300000D01*
X479143753Y8314143D01*
X479323358Y8493748D01*
X479337500Y8479605D01*
X479351643Y8493748D01*
X479531248Y8314143D01*
X479517105Y8300000D01*
X480276633Y7540472D01*
X480452233Y7586909D01*
X480449428Y7300000D01*
X480452500Y7268808D01*
X480452500Y7172998D01*
X480462452Y7172998D01*
X480497998Y7055820D01*
X480517821Y7018735D01*
X480494038Y6982391D01*
X480497909Y6944718D01*
X480590079Y6719467D01*
X480724422Y6516526D01*
X480895775Y6343693D01*
X481097554Y6207610D01*
X481322004Y6113507D01*
X481560500Y6065000D01*
X481910500Y6065000D01*
X481910500Y9673000D01*
X482164500Y9673000D01*
X482164500Y6065000D01*
X482514500Y6065000D01*
X482752996Y6113507D01*
X482977446Y6207610D01*
X483179225Y6343693D01*
X483350578Y6516526D01*
X483484921Y6719467D01*
X483577091Y6944718D01*
X483580962Y6982391D01*
X483557179Y7018735D01*
X483577002Y7055820D01*
X483612548Y7172998D01*
X483622500Y7172998D01*
X483622500Y7268808D01*
X483625572Y7300000D01*
X483622500Y7614250D01*
X483574060Y7662690D01*
X483484921Y7880533D01*
X483387963Y8027000D01*
X483463750Y8027000D01*
X483622500Y8185750D01*
X483625572Y8500000D01*
X483613312Y8624482D01*
X483577002Y8744180D01*
X483560528Y8775000D01*
X483577002Y8805820D01*
X483613312Y8925518D01*
X483625572Y9050000D01*
X483622500Y9514250D01*
X483463750Y9673000D01*
X482164500Y9673000D01*
X481910500Y9673000D01*
X481890500Y9673000D01*
X481890500Y9927000D01*
X481910500Y9927000D01*
X481910500Y11673000D01*
X482164500Y11673000D01*
X482164500Y9927000D01*
X483463750Y9927000D01*
X483622500Y10085750D01*
X483625572Y10550000D01*
X483613312Y10674482D01*
X483577002Y10794180D01*
X483573891Y10800000D01*
X483577002Y10805820D01*
X483613312Y10925518D01*
X483625572Y11050000D01*
X483622500Y11514250D01*
X483463750Y11673000D01*
X482164500Y11673000D01*
X481910500Y11673000D01*
X481890500Y11673000D01*
X481890500Y11927000D01*
X481910500Y11927000D01*
X481910500Y14447000D01*
X482164500Y14447000D01*
X482164500Y11927000D01*
X483463750Y11927000D01*
X483622500Y12085750D01*
X483625572Y12550000D01*
X483613312Y12674482D01*
X483577002Y12794180D01*
X483560528Y12825000D01*
X483577002Y12855820D01*
X483613312Y12975518D01*
X483625572Y13100000D01*
X483622500Y13414250D01*
X483463750Y13573000D01*
X483387963Y13573000D01*
X483484921Y13719467D01*
X483574060Y13937310D01*
X483622500Y13985750D01*
X483625572Y14300000D01*
X483622500Y14331192D01*
X483622500Y14427002D01*
X483612548Y14427002D01*
X483577002Y14544180D01*
X483557179Y14581265D01*
X483580962Y14617609D01*
X483577091Y14655282D01*
X483484921Y14880533D01*
X483350578Y15083474D01*
X483179225Y15256307D01*
X483055128Y15340000D01*
X485340000Y15340000D01*
X485340001Y-9917712D01*
G37*
X485340001Y-9917712D02*
X485293631Y-9871342D01*
X485264344Y-9835656D01*
X485121972Y-9718814D01*
X484959540Y-9631993D01*
X484783292Y-9578529D01*
X484741459Y-9574409D01*
X484677962Y-9497038D01*
X484543387Y-9386595D01*
X484389851Y-9304528D01*
X484223255Y-9253992D01*
X484050001Y-9236928D01*
X483149999Y-9236928D01*
X482976745Y-9253992D01*
X482810149Y-9304528D01*
X482656613Y-9386595D01*
X482561076Y-9465000D01*
X482245935Y-9465000D01*
X482200000Y-9460476D01*
X482016709Y-9478528D01*
X481851879Y-9528529D01*
X481840460Y-9531993D01*
X481809022Y-9548797D01*
X481780537Y-9495506D01*
X481701185Y-9398815D01*
X481604494Y-9319463D01*
X481494180Y-9260498D01*
X481374482Y-9224188D01*
X481250000Y-9211928D01*
X479550000Y-9211928D01*
X479425518Y-9224188D01*
X479305820Y-9260498D01*
X479195506Y-9319463D01*
X479098815Y-9398815D01*
X479019463Y-9495506D01*
X478960498Y-9605820D01*
X478924188Y-9725518D01*
X478911928Y-9850000D01*
X478911928Y-11550000D01*
X478924188Y-11674482D01*
X478960498Y-11794180D01*
X479019463Y-11904494D01*
X479098815Y-12001185D01*
X479195506Y-12080537D01*
X479305820Y-12139502D01*
X479378380Y-12161513D01*
X479246525Y-12293368D01*
X479084010Y-12536589D01*
X479082597Y-12540000D01*
X475214802Y-12540000D01*
X475212874Y-12538072D01*
X475300001Y-12538072D01*
X475473255Y-12521008D01*
X475639851Y-12470472D01*
X475793387Y-12388405D01*
X475927962Y-12277962D01*
X475933342Y-12271406D01*
X475998815Y-12351185D01*
X476095506Y-12430537D01*
X476205820Y-12489502D01*
X476325518Y-12525812D01*
X476450000Y-12538072D01*
X476739250Y-12535000D01*
X476898000Y-12376250D01*
X476898000Y-11327000D01*
X477152000Y-11327000D01*
X477152000Y-12376250D01*
X477310750Y-12535000D01*
X477600000Y-12538072D01*
X477724482Y-12525812D01*
X477844180Y-12489502D01*
X477954494Y-12430537D01*
X478051185Y-12351185D01*
X478130537Y-12254494D01*
X478189502Y-12144180D01*
X478225812Y-12024482D01*
X478238072Y-11900000D01*
X478235000Y-11485750D01*
X478076250Y-11327000D01*
X477152000Y-11327000D01*
X476898000Y-11327000D01*
X476878000Y-11327000D01*
X476878000Y-11073000D01*
X476898000Y-11073000D01*
X476898000Y-10023750D01*
X477152000Y-10023750D01*
X477152000Y-11073000D01*
X478076250Y-11073000D01*
X478235000Y-10914250D01*
X478238072Y-10500000D01*
X478225812Y-10375518D01*
X478189502Y-10255820D01*
X478130537Y-10145506D01*
X478051185Y-10048815D01*
X477954494Y-9969463D01*
X477844180Y-9910498D01*
X477724482Y-9874188D01*
X477600000Y-9861928D01*
X477310750Y-9865000D01*
X477152000Y-10023750D01*
X476898000Y-10023750D01*
X476739250Y-9865000D01*
X476450000Y-9861928D01*
X476325518Y-9874188D01*
X476205820Y-9910498D01*
X476095506Y-9969463D01*
X475998815Y-10048815D01*
X475933342Y-10128594D01*
X475927962Y-10122038D01*
X475793387Y-10011595D01*
X475639851Y-9929528D01*
X475473255Y-9878992D01*
X475300001Y-9861928D01*
X474649999Y-9861928D01*
X474476745Y-9878992D01*
X474310149Y-9929528D01*
X474156613Y-10011595D01*
X474022038Y-10122038D01*
X473911595Y-10256613D01*
X473829528Y-10410149D01*
X473790138Y-10540000D01*
X473479518Y-10540000D01*
X473454494Y-10519463D01*
X473418082Y-10500000D01*
X473454494Y-10480537D01*
X473551185Y-10401185D01*
X473571033Y-10377000D01*
X473576250Y-10377000D01*
X473735000Y-10218250D01*
X473725921Y-10138277D01*
X473768007Y-10059540D01*
X473821471Y-9883292D01*
X473839524Y-9700000D01*
X473821471Y-9516708D01*
X473788553Y-9408190D01*
X473868007Y-9259540D01*
X473921471Y-9083292D01*
X473939524Y-8900000D01*
X473921471Y-8716708D01*
X473868007Y-8540460D01*
X473788553Y-8391810D01*
X473821471Y-8283292D01*
X473839524Y-8100000D01*
X473821471Y-7916708D01*
X473768007Y-7740460D01*
X473746381Y-7700000D01*
X473768007Y-7659540D01*
X473821471Y-7483292D01*
X473839524Y-7300000D01*
X473821471Y-7116708D01*
X473768007Y-6940460D01*
X473681186Y-6778028D01*
X473662432Y-6755176D01*
X473630537Y-6695506D01*
X473551185Y-6598815D01*
X473454494Y-6519463D01*
X473344180Y-6460498D01*
X473271781Y-6438536D01*
X473259540Y-6431993D01*
X473083292Y-6378529D01*
X472945932Y-6365000D01*
X471223273Y-6365000D01*
X471235000Y-6245932D01*
X471235000Y-4204068D01*
X471221471Y-4066708D01*
X471188072Y-3956606D01*
X471188072Y-3850000D01*
X471175812Y-3725518D01*
X471139502Y-3605820D01*
X471080537Y-3495506D01*
X471001185Y-3398815D01*
X470904494Y-3319463D01*
X470794180Y-3260498D01*
X470674482Y-3224188D01*
X470550000Y-3211928D01*
X470050000Y-3211928D01*
X469925518Y-3224188D01*
X469900000Y-3231929D01*
X469874482Y-3224188D01*
X469750000Y-3211928D01*
X469250000Y-3211928D01*
X469125518Y-3224188D01*
X469101582Y-3231449D01*
X469088294Y-3227095D01*
X468981750Y-3215000D01*
X468835000Y-3361750D01*
X468835000Y-2674771D01*
X468952962Y-2577962D01*
X468958342Y-2571406D01*
X469023815Y-2651185D01*
X469120506Y-2730537D01*
X469230820Y-2789502D01*
X469350518Y-2825812D01*
X469475000Y-2838072D01*
X469764250Y-2835000D01*
X469923000Y-2676250D01*
X469923000Y-1627000D01*
X470177000Y-1627000D01*
X470177000Y-2676250D01*
X470335750Y-2835000D01*
X470625000Y-2838072D01*
X470749482Y-2825812D01*
X470869180Y-2789502D01*
X470979494Y-2730537D01*
X471076185Y-2651185D01*
X471155537Y-2554494D01*
X471214502Y-2444180D01*
X471250812Y-2324482D01*
X471263072Y-2200000D01*
X471260000Y-1785750D01*
X471101250Y-1627000D01*
X470177000Y-1627000D01*
X469923000Y-1627000D01*
X469903000Y-1627000D01*
X469903000Y-1373000D01*
X469923000Y-1373000D01*
X469923000Y473000D01*
X470177000Y473000D01*
X470177000Y-1373000D01*
X471101250Y-1373000D01*
X471260000Y-1214250D01*
X471263072Y-800000D01*
X471250812Y-675518D01*
X471214502Y-555820D01*
X471157939Y-450000D01*
X471214502Y-344180D01*
X471250812Y-224482D01*
X471263072Y-100000D01*
X471260000Y314250D01*
X471101250Y473000D01*
X470177000Y473000D01*
X469923000Y473000D01*
X469903000Y473000D01*
X469903000Y727000D01*
X469923000Y727000D01*
X469923000Y1776250D01*
X470177000Y1776250D01*
X470177000Y727000D01*
X471101250Y727000D01*
X471260000Y885750D01*
X471263072Y1300000D01*
X471250812Y1424482D01*
X471214502Y1544180D01*
X471155537Y1654494D01*
X471076185Y1751185D01*
X470979494Y1830537D01*
X470869180Y1889502D01*
X470749482Y1925812D01*
X470625000Y1938072D01*
X470335750Y1935000D01*
X470177000Y1776250D01*
X469923000Y1776250D01*
X469764250Y1935000D01*
X469475000Y1938072D01*
X469350518Y1925812D01*
X469230820Y1889502D01*
X469120506Y1830537D01*
X469023815Y1751185D01*
X468958342Y1671406D01*
X468952962Y1677962D01*
X468818387Y1788405D01*
X468664851Y1870472D01*
X468498255Y1921008D01*
X468325001Y1938072D01*
X467674999Y1938072D01*
X467501745Y1921008D01*
X467335149Y1870472D01*
X467181613Y1788405D01*
X467047038Y1677962D01*
X466936595Y1543387D01*
X466854528Y1389851D01*
X466803992Y1223255D01*
X466786928Y1050001D01*
X466786928Y149999D01*
X466803992Y-23255D01*
X466854528Y-189851D01*
X466936595Y-343387D01*
X466965001Y-378000D01*
X466965001Y-522000D01*
X466936595Y-556613D01*
X466854528Y-710149D01*
X466803992Y-876745D01*
X466786928Y-1049999D01*
X466786928Y-1950001D01*
X466803992Y-2123255D01*
X466847022Y-2265107D01*
X466845932Y-2265000D01*
X466800000Y-2260476D01*
X466754068Y-2265000D01*
X466687290Y-2265000D01*
X465793630Y-1371341D01*
X465764344Y-1335656D01*
X465621972Y-1218814D01*
X465602817Y-1208575D01*
X465588405Y-1181613D01*
X465477962Y-1047038D01*
X465471406Y-1041658D01*
X465551185Y-976185D01*
X465630537Y-879494D01*
X465689502Y-769180D01*
X465725812Y-649482D01*
X465738072Y-525000D01*
X465735000Y-235750D01*
X465576250Y-77000D01*
X464527000Y-77000D01*
X464527000Y-97000D01*
X464273000Y-97000D01*
X464273000Y-77000D01*
X462427000Y-77000D01*
X462427000Y-97000D01*
X462173000Y-97000D01*
X462173000Y-77000D01*
X461123750Y-77000D01*
X461098750Y-102000D01*
X460427000Y-102000D01*
X460427000Y-122000D01*
X460173000Y-122000D01*
X460173000Y-102000D01*
X459123750Y-102000D01*
X458965000Y-260750D01*
X458961928Y-550000D01*
X458974188Y-674482D01*
X459010498Y-794180D01*
X459069463Y-904494D01*
X459148815Y-1001185D01*
X459226574Y-1065000D01*
X456345931Y-1065000D01*
X456299999Y-1060476D01*
X456116708Y-1078529D01*
X455940460Y-1131993D01*
X455778028Y-1218814D01*
X455635656Y-1335656D01*
X455606370Y-1371341D01*
X454571336Y-2406375D01*
X454535657Y-2435656D01*
X454511575Y-2465000D01*
X454487290Y-2465000D01*
X453235000Y-1212711D01*
X453235000Y-556214D01*
X453270472Y-489851D01*
X453321008Y-323255D01*
X453338072Y-150001D01*
X453338072Y600000D01*
X458961928Y600000D01*
X458965000Y310750D01*
X459123750Y152000D01*
X460173000Y152000D01*
X460173000Y1076250D01*
X460427000Y1076250D01*
X460427000Y152000D01*
X461476250Y152000D01*
X461501250Y177000D01*
X462173000Y177000D01*
X462173000Y1101250D01*
X462427000Y1101250D01*
X462427000Y177000D01*
X464273000Y177000D01*
X464273000Y1101250D01*
X464527000Y1101250D01*
X464527000Y177000D01*
X465576250Y177000D01*
X465735000Y335750D01*
X465738072Y625000D01*
X465725812Y749482D01*
X465689502Y869180D01*
X465630537Y979494D01*
X465551185Y1076185D01*
X465454494Y1155537D01*
X465344180Y1214502D01*
X465224482Y1250812D01*
X465100000Y1263072D01*
X464685750Y1260000D01*
X464527000Y1101250D01*
X464273000Y1101250D01*
X464114250Y1260000D01*
X463700000Y1263072D01*
X463575518Y1250812D01*
X463455820Y1214502D01*
X463350000Y1157939D01*
X463244180Y1214502D01*
X463124482Y1250812D01*
X463000000Y1263072D01*
X462585750Y1260000D01*
X462427000Y1101250D01*
X462173000Y1101250D01*
X462014250Y1260000D01*
X461600000Y1263072D01*
X461475518Y1250812D01*
X461355820Y1214502D01*
X461276615Y1172165D01*
X461244180Y1189502D01*
X461124482Y1225812D01*
X461000000Y1238072D01*
X460585750Y1235000D01*
X460427000Y1076250D01*
X460173000Y1076250D01*
X460014250Y1235000D01*
X459600000Y1238072D01*
X459475518Y1225812D01*
X459355820Y1189502D01*
X459245506Y1130537D01*
X459148815Y1051185D01*
X459069463Y954494D01*
X459010498Y844180D01*
X458974188Y724482D01*
X458961928Y600000D01*
X453338072Y600000D01*
X453338072Y750001D01*
X453321008Y923255D01*
X453270472Y1089851D01*
X453235000Y1156214D01*
X453235000Y1754065D01*
X453239524Y1800000D01*
X453221472Y1983292D01*
X453168007Y2159541D01*
X453129280Y2231993D01*
X453081186Y2321972D01*
X452964344Y2464344D01*
X452928660Y2493629D01*
X451957289Y3465000D01*
X459754068Y3465000D01*
X459800000Y3460476D01*
X459845932Y3465000D01*
X459983292Y3478529D01*
X460159540Y3531993D01*
X460321972Y3618814D01*
X460464344Y3735656D01*
X460493630Y3771341D01*
X460528659Y3806370D01*
X460564344Y3835656D01*
X460681186Y3978028D01*
X460768007Y4140460D01*
X460821471Y4316708D01*
X460835000Y4454068D01*
X460835000Y4454069D01*
X460839524Y4499999D01*
X460835000Y4545931D01*
X460835000Y5592546D01*
X460894180Y5610498D01*
X461004494Y5669463D01*
X461050000Y5706809D01*
X461095506Y5669463D01*
X461163726Y5632998D01*
X461160476Y5600000D01*
X461178529Y5416708D01*
X461231993Y5240460D01*
X461318814Y5078028D01*
X461364819Y5021971D01*
X461435656Y4935656D01*
X461578028Y4818814D01*
X461740460Y4731993D01*
X461916708Y4678529D01*
X462100000Y4660476D01*
X462145932Y4665000D01*
X463954068Y4665000D01*
X464000000Y4660476D01*
X464045932Y4665000D01*
X464183292Y4678529D01*
X464359540Y4731993D01*
X464521972Y4818814D01*
X464664344Y4935656D01*
X464781186Y5078028D01*
X464868007Y5240460D01*
X464921471Y5416708D01*
X464939524Y5600000D01*
X464935000Y5645932D01*
X464935000Y8312711D01*
X466650000Y10027711D01*
X469306370Y7371341D01*
X469335656Y7335656D01*
X469478028Y7218814D01*
X469640460Y7131993D01*
X469712828Y7110041D01*
X469816708Y7078528D01*
X470000000Y7060476D01*
X470045935Y7065000D01*
X471754068Y7065000D01*
X471800000Y7060476D01*
X471845932Y7065000D01*
X472554068Y7065000D01*
X472600000Y7060476D01*
X472645932Y7065000D01*
X472783292Y7078529D01*
X472959540Y7131993D01*
X473121972Y7218814D01*
X473264344Y7335656D01*
X473285034Y7360867D01*
X478577972Y7360867D01*
X478640465Y7124550D01*
X478883178Y7011150D01*
X479143349Y6947281D01*
X479410982Y6935396D01*
X479675791Y6975952D01*
X479927600Y7067391D01*
X480034535Y7124550D01*
X480097028Y7360867D01*
X479337500Y8120395D01*
X478577972Y7360867D01*
X473285034Y7360867D01*
X473293630Y7371341D01*
X474093623Y8171334D01*
X474181185Y8278028D01*
X474268006Y8440459D01*
X474303727Y8558215D01*
X474941785Y9196273D01*
X475059540Y9231993D01*
X475221972Y9318814D01*
X475364344Y9435656D01*
X475481186Y9578028D01*
X475568007Y9740460D01*
X475621471Y9916708D01*
X475635000Y10054068D01*
X475635000Y10211457D01*
X475635657Y10210656D01*
X475671336Y10181375D01*
X477081374Y8771336D01*
X477110656Y8735656D01*
X477253028Y8618814D01*
X477415460Y8531993D01*
X477558749Y8488527D01*
X477591708Y8478529D01*
X477774999Y8460476D01*
X477820931Y8465000D01*
X477983486Y8465000D01*
X477972896Y8226518D01*
X478013452Y7961709D01*
X478104891Y7709900D01*
X478162050Y7602965D01*
X478398367Y7540472D01*
X479157895Y8300000D01*
X479143753Y8314143D01*
X479323358Y8493748D01*
X479337500Y8479605D01*
X479351643Y8493748D01*
X479531248Y8314143D01*
X479517105Y8300000D01*
X480276633Y7540472D01*
X480452233Y7586909D01*
X480449428Y7300000D01*
X480452500Y7268808D01*
X480452500Y7172998D01*
X480462452Y7172998D01*
X480497998Y7055820D01*
X480517821Y7018735D01*
X480494038Y6982391D01*
X480497909Y6944718D01*
X480590079Y6719467D01*
X480724422Y6516526D01*
X480895775Y6343693D01*
X481097554Y6207610D01*
X481322004Y6113507D01*
X481560500Y6065000D01*
X481910500Y6065000D01*
X481910500Y9673000D01*
X482164500Y9673000D01*
X482164500Y6065000D01*
X482514500Y6065000D01*
X482752996Y6113507D01*
X482977446Y6207610D01*
X483179225Y6343693D01*
X483350578Y6516526D01*
X483484921Y6719467D01*
X483577091Y6944718D01*
X483580962Y6982391D01*
X483557179Y7018735D01*
X483577002Y7055820D01*
X483612548Y7172998D01*
X483622500Y7172998D01*
X483622500Y7268808D01*
X483625572Y7300000D01*
X483622500Y7614250D01*
X483574060Y7662690D01*
X483484921Y7880533D01*
X483387963Y8027000D01*
X483463750Y8027000D01*
X483622500Y8185750D01*
X483625572Y8500000D01*
X483613312Y8624482D01*
X483577002Y8744180D01*
X483560528Y8775000D01*
X483577002Y8805820D01*
X483613312Y8925518D01*
X483625572Y9050000D01*
X483622500Y9514250D01*
X483463750Y9673000D01*
X482164500Y9673000D01*
X481910500Y9673000D01*
X481890500Y9673000D01*
X481890500Y9927000D01*
X481910500Y9927000D01*
X481910500Y11673000D01*
X482164500Y11673000D01*
X482164500Y9927000D01*
X483463750Y9927000D01*
X483622500Y10085750D01*
X483625572Y10550000D01*
X483613312Y10674482D01*
X483577002Y10794180D01*
X483573891Y10800000D01*
X483577002Y10805820D01*
X483613312Y10925518D01*
X483625572Y11050000D01*
X483622500Y11514250D01*
X483463750Y11673000D01*
X482164500Y11673000D01*
X481910500Y11673000D01*
X481890500Y11673000D01*
X481890500Y11927000D01*
X481910500Y11927000D01*
X481910500Y14447000D01*
X482164500Y14447000D01*
X482164500Y11927000D01*
X483463750Y11927000D01*
X483622500Y12085750D01*
X483625572Y12550000D01*
X483613312Y12674482D01*
X483577002Y12794180D01*
X483560528Y12825000D01*
X483577002Y12855820D01*
X483613312Y12975518D01*
X483625572Y13100000D01*
X483622500Y13414250D01*
X483463750Y13573000D01*
X483387963Y13573000D01*
X483484921Y13719467D01*
X483574060Y13937310D01*
X483622500Y13985750D01*
X483625572Y14300000D01*
X483622500Y14331192D01*
X483622500Y14427002D01*
X483612548Y14427002D01*
X483577002Y14544180D01*
X483557179Y14581265D01*
X483580962Y14617609D01*
X483577091Y14655282D01*
X483484921Y14880533D01*
X483350578Y15083474D01*
X483179225Y15256307D01*
X483055128Y15340000D01*
X485340000Y15340000D01*
X485340001Y-9917712D01*
M02*
