%FSLAX45Y45*%
G04 Gerber Fmt 4.5, Leading zero omitted, Abs format (unit mm)*
G04 Created by KiCad (PCBNEW (5.1.5)-3) date 2020-02-03 12:39:04*
%MOMM*%
%LPD*%
G04 APERTURE LIST*
%TA.AperFunction,Profile*%
%ADD10C,0.050000*%
%TD*%
%ADD11C,0.200000*%
%ADD12C,0.300000*%
G04 APERTURE END LIST*
D10*
X44600000Y1600000D02*
X48600000Y1600000D01*
X44600000Y-2400000D02*
X44600000Y1600000D01*
X48600000Y-2400000D02*
X44600000Y-2400000D01*
X48600000Y1600000D02*
X48600000Y-2400000D01*
D11*
D12*
X44883928Y-2868214D02*
X44883928Y-2568214D01*
X44955357Y-2568214D01*
X44998214Y-2582500D01*
X45026786Y-2611072D01*
X45041071Y-2639643D01*
X45055357Y-2696786D01*
X45055357Y-2739643D01*
X45041071Y-2796786D01*
X45026786Y-2825357D01*
X44998214Y-2853929D01*
X44955357Y-2868214D01*
X44883928Y-2868214D01*
X45183928Y-2868214D02*
X45183928Y-2668214D01*
X45183928Y-2725357D02*
X45198214Y-2696786D01*
X45212500Y-2682500D01*
X45241071Y-2668214D01*
X45269643Y-2668214D01*
X45369643Y-2868214D02*
X45369643Y-2668214D01*
X45369643Y-2568214D02*
X45355357Y-2582500D01*
X45369643Y-2596786D01*
X45383928Y-2582500D01*
X45369643Y-2568214D01*
X45369643Y-2596786D01*
X45555357Y-2868214D02*
X45526786Y-2853929D01*
X45512500Y-2825357D01*
X45512500Y-2568214D01*
X45712500Y-2868214D02*
X45683928Y-2853929D01*
X45669643Y-2825357D01*
X45669643Y-2568214D01*
X46055357Y-2868214D02*
X46055357Y-2568214D01*
X46155357Y-2782500D01*
X46255357Y-2568214D01*
X46255357Y-2868214D01*
X46526786Y-2868214D02*
X46526786Y-2711072D01*
X46512500Y-2682500D01*
X46483928Y-2668214D01*
X46426786Y-2668214D01*
X46398214Y-2682500D01*
X46526786Y-2853929D02*
X46498214Y-2868214D01*
X46426786Y-2868214D01*
X46398214Y-2853929D01*
X46383928Y-2825357D01*
X46383928Y-2796786D01*
X46398214Y-2768214D01*
X46426786Y-2753929D01*
X46498214Y-2753929D01*
X46526786Y-2739643D01*
X46669643Y-2668214D02*
X46669643Y-2968214D01*
X46669643Y-2682500D02*
X46698214Y-2668214D01*
X46755357Y-2668214D01*
X46783928Y-2682500D01*
X46798214Y-2696786D01*
X46812500Y-2725357D01*
X46812500Y-2811071D01*
X46798214Y-2839643D01*
X46783928Y-2853929D01*
X46755357Y-2868214D01*
X46698214Y-2868214D01*
X46669643Y-2853929D01*
X46941071Y-2839643D02*
X46955357Y-2853929D01*
X46941071Y-2868214D01*
X46926786Y-2853929D01*
X46941071Y-2839643D01*
X46941071Y-2868214D01*
X46941071Y-2682500D02*
X46955357Y-2696786D01*
X46941071Y-2711072D01*
X46926786Y-2696786D01*
X46941071Y-2682500D01*
X46941071Y-2711072D01*
M02*
