G04 #@! TF.GenerationSoftware,KiCad,Pcbnew,(5.1.5)-3*
G04 #@! TF.CreationDate,2020-02-03T12:38:55+01:00*
G04 #@! TF.ProjectId,Lab_1,4c61625f-312e-46b6-9963-61645f706362,rev?*
G04 #@! TF.SameCoordinates,Original*
G04 #@! TF.FileFunction,Copper,L2,Bot*
G04 #@! TF.FilePolarity,Positive*
%FSLAX46Y46*%
G04 Gerber Fmt 4.6, Leading zero omitted, Abs format (unit mm)*
G04 Created by KiCad (PCBNEW (5.1.5)-3) date 2020-02-03 12:38:55*
%MOMM*%
%LPD*%
G04 APERTURE LIST*
%ADD10R,1.700000X1.700000*%
%ADD11O,1.700000X1.700000*%
%ADD12C,1.450000*%
%ADD13O,1.900000X1.200000*%
%ADD14C,0.800000*%
%ADD15C,0.254000*%
G04 APERTURE END LIST*
D10*
X480400000Y-10700000D03*
D11*
X480400000Y-13240000D03*
X480400000Y-15780000D03*
X480400000Y-18320000D03*
X480400000Y-20860000D03*
D12*
X479337500Y8300000D03*
X479337500Y13300000D03*
D13*
X482037500Y7300000D03*
X482037500Y14300000D03*
D14*
X475400000Y-18200000D03*
X464700000Y-21800000D03*
D15*
G36*
X480895775Y15256307D02*
G01*
X480724422Y15083474D01*
X480590079Y14880533D01*
X480497909Y14655282D01*
X480494038Y14617609D01*
X480618769Y14427000D01*
X481910500Y14427000D01*
X481910500Y14447000D01*
X482164500Y14447000D01*
X482164500Y14427000D01*
X483456231Y14427000D01*
X483580962Y14617609D01*
X483577091Y14655282D01*
X483484921Y14880533D01*
X483350578Y15083474D01*
X483179225Y15256307D01*
X483055128Y15340000D01*
X485340000Y15340000D01*
X485340001Y-23340000D01*
X446660000Y-23340000D01*
X446660000Y-18173740D01*
X478915000Y-18173740D01*
X478915000Y-18466260D01*
X478972068Y-18753158D01*
X479084010Y-19023411D01*
X479246525Y-19266632D01*
X479453368Y-19473475D01*
X479627760Y-19590000D01*
X479453368Y-19706525D01*
X479246525Y-19913368D01*
X479084010Y-20156589D01*
X478972068Y-20426842D01*
X478915000Y-20713740D01*
X478915000Y-21006260D01*
X478972068Y-21293158D01*
X479084010Y-21563411D01*
X479246525Y-21806632D01*
X479453368Y-22013475D01*
X479696589Y-22175990D01*
X479966842Y-22287932D01*
X480253740Y-22345000D01*
X480546260Y-22345000D01*
X480833158Y-22287932D01*
X481103411Y-22175990D01*
X481346632Y-22013475D01*
X481553475Y-21806632D01*
X481715990Y-21563411D01*
X481827932Y-21293158D01*
X481885000Y-21006260D01*
X481885000Y-20713740D01*
X481827932Y-20426842D01*
X481715990Y-20156589D01*
X481553475Y-19913368D01*
X481346632Y-19706525D01*
X481172240Y-19590000D01*
X481346632Y-19473475D01*
X481553475Y-19266632D01*
X481715990Y-19023411D01*
X481827932Y-18753158D01*
X481885000Y-18466260D01*
X481885000Y-18173740D01*
X481827932Y-17886842D01*
X481715990Y-17616589D01*
X481553475Y-17373368D01*
X481346632Y-17166525D01*
X481164466Y-17044805D01*
X481281355Y-16975178D01*
X481497588Y-16780269D01*
X481671641Y-16546920D01*
X481796825Y-16284099D01*
X481841476Y-16136890D01*
X481720155Y-15907000D01*
X480527000Y-15907000D01*
X480527000Y-15927000D01*
X480273000Y-15927000D01*
X480273000Y-15907000D01*
X479079845Y-15907000D01*
X478958524Y-16136890D01*
X479003175Y-16284099D01*
X479128359Y-16546920D01*
X479302412Y-16780269D01*
X479518645Y-16975178D01*
X479635534Y-17044805D01*
X479453368Y-17166525D01*
X479246525Y-17373368D01*
X479084010Y-17616589D01*
X478972068Y-17886842D01*
X478915000Y-18173740D01*
X446660000Y-18173740D01*
X446660000Y-9850000D01*
X478911928Y-9850000D01*
X478911928Y-11550000D01*
X478924188Y-11674482D01*
X478960498Y-11794180D01*
X479019463Y-11904494D01*
X479098815Y-12001185D01*
X479195506Y-12080537D01*
X479305820Y-12139502D01*
X479378380Y-12161513D01*
X479246525Y-12293368D01*
X479084010Y-12536589D01*
X478972068Y-12806842D01*
X478915000Y-13093740D01*
X478915000Y-13386260D01*
X478972068Y-13673158D01*
X479084010Y-13943411D01*
X479246525Y-14186632D01*
X479453368Y-14393475D01*
X479635534Y-14515195D01*
X479518645Y-14584822D01*
X479302412Y-14779731D01*
X479128359Y-15013080D01*
X479003175Y-15275901D01*
X478958524Y-15423110D01*
X479079845Y-15653000D01*
X480273000Y-15653000D01*
X480273000Y-15633000D01*
X480527000Y-15633000D01*
X480527000Y-15653000D01*
X481720155Y-15653000D01*
X481841476Y-15423110D01*
X481796825Y-15275901D01*
X481671641Y-15013080D01*
X481497588Y-14779731D01*
X481281355Y-14584822D01*
X481164466Y-14515195D01*
X481346632Y-14393475D01*
X481553475Y-14186632D01*
X481715990Y-13943411D01*
X481827932Y-13673158D01*
X481885000Y-13386260D01*
X481885000Y-13093740D01*
X481827932Y-12806842D01*
X481715990Y-12536589D01*
X481553475Y-12293368D01*
X481421620Y-12161513D01*
X481494180Y-12139502D01*
X481604494Y-12080537D01*
X481701185Y-12001185D01*
X481780537Y-11904494D01*
X481839502Y-11794180D01*
X481875812Y-11674482D01*
X481888072Y-11550000D01*
X481888072Y-9850000D01*
X481875812Y-9725518D01*
X481839502Y-9605820D01*
X481780537Y-9495506D01*
X481701185Y-9398815D01*
X481604494Y-9319463D01*
X481494180Y-9260498D01*
X481374482Y-9224188D01*
X481250000Y-9211928D01*
X479550000Y-9211928D01*
X479425518Y-9224188D01*
X479305820Y-9260498D01*
X479195506Y-9319463D01*
X479098815Y-9398815D01*
X479019463Y-9495506D01*
X478960498Y-9605820D01*
X478924188Y-9725518D01*
X478911928Y-9850000D01*
X446660000Y-9850000D01*
X446660000Y7360867D01*
X478577972Y7360867D01*
X478640465Y7124550D01*
X478883178Y7011150D01*
X479143349Y6947281D01*
X479410982Y6935396D01*
X479675791Y6975952D01*
X479693523Y6982391D01*
X480494038Y6982391D01*
X480497909Y6944718D01*
X480590079Y6719467D01*
X480724422Y6516526D01*
X480895775Y6343693D01*
X481097554Y6207610D01*
X481322004Y6113507D01*
X481560500Y6065000D01*
X481910500Y6065000D01*
X481910500Y7173000D01*
X482164500Y7173000D01*
X482164500Y6065000D01*
X482514500Y6065000D01*
X482752996Y6113507D01*
X482977446Y6207610D01*
X483179225Y6343693D01*
X483350578Y6516526D01*
X483484921Y6719467D01*
X483577091Y6944718D01*
X483580962Y6982391D01*
X483456231Y7173000D01*
X482164500Y7173000D01*
X481910500Y7173000D01*
X480618769Y7173000D01*
X480494038Y6982391D01*
X479693523Y6982391D01*
X479927600Y7067391D01*
X480034535Y7124550D01*
X480097028Y7360867D01*
X479337500Y8120395D01*
X478577972Y7360867D01*
X446660000Y7360867D01*
X446660000Y8226518D01*
X477972896Y8226518D01*
X478013452Y7961709D01*
X478104891Y7709900D01*
X478162050Y7602965D01*
X478398367Y7540472D01*
X479157895Y8300000D01*
X479517105Y8300000D01*
X480276633Y7540472D01*
X480504997Y7600862D01*
X480618769Y7427000D01*
X481910500Y7427000D01*
X481910500Y8535000D01*
X482164500Y8535000D01*
X482164500Y7427000D01*
X483456231Y7427000D01*
X483580962Y7617609D01*
X483577091Y7655282D01*
X483484921Y7880533D01*
X483350578Y8083474D01*
X483179225Y8256307D01*
X482977446Y8392390D01*
X482752996Y8486493D01*
X482514500Y8535000D01*
X482164500Y8535000D01*
X481910500Y8535000D01*
X481560500Y8535000D01*
X481322004Y8486493D01*
X481097554Y8392390D01*
X480895775Y8256307D01*
X480724422Y8083474D01*
X480661329Y7988164D01*
X480690219Y8105849D01*
X480702104Y8373482D01*
X480661548Y8638291D01*
X480570109Y8890100D01*
X480512950Y8997035D01*
X480276633Y9059528D01*
X479517105Y8300000D01*
X479157895Y8300000D01*
X478398367Y9059528D01*
X478162050Y8997035D01*
X478048650Y8754322D01*
X477984781Y8494151D01*
X477972896Y8226518D01*
X446660000Y8226518D01*
X446660000Y9239133D01*
X478577972Y9239133D01*
X479337500Y8479605D01*
X480097028Y9239133D01*
X480034535Y9475450D01*
X479791822Y9588850D01*
X479531651Y9652719D01*
X479264018Y9664604D01*
X478999209Y9624048D01*
X478747400Y9532609D01*
X478640465Y9475450D01*
X478577972Y9239133D01*
X446660000Y9239133D01*
X446660000Y12360867D01*
X478577972Y12360867D01*
X478640465Y12124550D01*
X478883178Y12011150D01*
X479143349Y11947281D01*
X479410982Y11935396D01*
X479675791Y11975952D01*
X479927600Y12067391D01*
X480034535Y12124550D01*
X480097028Y12360867D01*
X479337500Y13120395D01*
X478577972Y12360867D01*
X446660000Y12360867D01*
X446660000Y13226518D01*
X477972896Y13226518D01*
X478013452Y12961709D01*
X478104891Y12709900D01*
X478162050Y12602965D01*
X478398367Y12540472D01*
X479157895Y13300000D01*
X479517105Y13300000D01*
X480276633Y12540472D01*
X480512950Y12602965D01*
X480626350Y12845678D01*
X480690219Y13105849D01*
X480702104Y13373482D01*
X480666885Y13603442D01*
X480724422Y13516526D01*
X480895775Y13343693D01*
X481097554Y13207610D01*
X481322004Y13113507D01*
X481560500Y13065000D01*
X481910500Y13065000D01*
X481910500Y14173000D01*
X482164500Y14173000D01*
X482164500Y13065000D01*
X482514500Y13065000D01*
X482752996Y13113507D01*
X482977446Y13207610D01*
X483179225Y13343693D01*
X483350578Y13516526D01*
X483484921Y13719467D01*
X483577091Y13944718D01*
X483580962Y13982391D01*
X483456231Y14173000D01*
X482164500Y14173000D01*
X481910500Y14173000D01*
X480618769Y14173000D01*
X480504997Y13999138D01*
X480276633Y14059528D01*
X479517105Y13300000D01*
X479157895Y13300000D01*
X478398367Y14059528D01*
X478162050Y13997035D01*
X478048650Y13754322D01*
X477984781Y13494151D01*
X477972896Y13226518D01*
X446660000Y13226518D01*
X446660000Y14239133D01*
X478577972Y14239133D01*
X479337500Y13479605D01*
X480097028Y14239133D01*
X480034535Y14475450D01*
X479791822Y14588850D01*
X479531651Y14652719D01*
X479264018Y14664604D01*
X478999209Y14624048D01*
X478747400Y14532609D01*
X478640465Y14475450D01*
X478577972Y14239133D01*
X446660000Y14239133D01*
X446660000Y15340000D01*
X481019872Y15340000D01*
X480895775Y15256307D01*
G37*
X480895775Y15256307D02*
X480724422Y15083474D01*
X480590079Y14880533D01*
X480497909Y14655282D01*
X480494038Y14617609D01*
X480618769Y14427000D01*
X481910500Y14427000D01*
X481910500Y14447000D01*
X482164500Y14447000D01*
X482164500Y14427000D01*
X483456231Y14427000D01*
X483580962Y14617609D01*
X483577091Y14655282D01*
X483484921Y14880533D01*
X483350578Y15083474D01*
X483179225Y15256307D01*
X483055128Y15340000D01*
X485340000Y15340000D01*
X485340001Y-23340000D01*
X446660000Y-23340000D01*
X446660000Y-18173740D01*
X478915000Y-18173740D01*
X478915000Y-18466260D01*
X478972068Y-18753158D01*
X479084010Y-19023411D01*
X479246525Y-19266632D01*
X479453368Y-19473475D01*
X479627760Y-19590000D01*
X479453368Y-19706525D01*
X479246525Y-19913368D01*
X479084010Y-20156589D01*
X478972068Y-20426842D01*
X478915000Y-20713740D01*
X478915000Y-21006260D01*
X478972068Y-21293158D01*
X479084010Y-21563411D01*
X479246525Y-21806632D01*
X479453368Y-22013475D01*
X479696589Y-22175990D01*
X479966842Y-22287932D01*
X480253740Y-22345000D01*
X480546260Y-22345000D01*
X480833158Y-22287932D01*
X481103411Y-22175990D01*
X481346632Y-22013475D01*
X481553475Y-21806632D01*
X481715990Y-21563411D01*
X481827932Y-21293158D01*
X481885000Y-21006260D01*
X481885000Y-20713740D01*
X481827932Y-20426842D01*
X481715990Y-20156589D01*
X481553475Y-19913368D01*
X481346632Y-19706525D01*
X481172240Y-19590000D01*
X481346632Y-19473475D01*
X481553475Y-19266632D01*
X481715990Y-19023411D01*
X481827932Y-18753158D01*
X481885000Y-18466260D01*
X481885000Y-18173740D01*
X481827932Y-17886842D01*
X481715990Y-17616589D01*
X481553475Y-17373368D01*
X481346632Y-17166525D01*
X481164466Y-17044805D01*
X481281355Y-16975178D01*
X481497588Y-16780269D01*
X481671641Y-16546920D01*
X481796825Y-16284099D01*
X481841476Y-16136890D01*
X481720155Y-15907000D01*
X480527000Y-15907000D01*
X480527000Y-15927000D01*
X480273000Y-15927000D01*
X480273000Y-15907000D01*
X479079845Y-15907000D01*
X478958524Y-16136890D01*
X479003175Y-16284099D01*
X479128359Y-16546920D01*
X479302412Y-16780269D01*
X479518645Y-16975178D01*
X479635534Y-17044805D01*
X479453368Y-17166525D01*
X479246525Y-17373368D01*
X479084010Y-17616589D01*
X478972068Y-17886842D01*
X478915000Y-18173740D01*
X446660000Y-18173740D01*
X446660000Y-9850000D01*
X478911928Y-9850000D01*
X478911928Y-11550000D01*
X478924188Y-11674482D01*
X478960498Y-11794180D01*
X479019463Y-11904494D01*
X479098815Y-12001185D01*
X479195506Y-12080537D01*
X479305820Y-12139502D01*
X479378380Y-12161513D01*
X479246525Y-12293368D01*
X479084010Y-12536589D01*
X478972068Y-12806842D01*
X478915000Y-13093740D01*
X478915000Y-13386260D01*
X478972068Y-13673158D01*
X479084010Y-13943411D01*
X479246525Y-14186632D01*
X479453368Y-14393475D01*
X479635534Y-14515195D01*
X479518645Y-14584822D01*
X479302412Y-14779731D01*
X479128359Y-15013080D01*
X479003175Y-15275901D01*
X478958524Y-15423110D01*
X479079845Y-15653000D01*
X480273000Y-15653000D01*
X480273000Y-15633000D01*
X480527000Y-15633000D01*
X480527000Y-15653000D01*
X481720155Y-15653000D01*
X481841476Y-15423110D01*
X481796825Y-15275901D01*
X481671641Y-15013080D01*
X481497588Y-14779731D01*
X481281355Y-14584822D01*
X481164466Y-14515195D01*
X481346632Y-14393475D01*
X481553475Y-14186632D01*
X481715990Y-13943411D01*
X481827932Y-13673158D01*
X481885000Y-13386260D01*
X481885000Y-13093740D01*
X481827932Y-12806842D01*
X481715990Y-12536589D01*
X481553475Y-12293368D01*
X481421620Y-12161513D01*
X481494180Y-12139502D01*
X481604494Y-12080537D01*
X481701185Y-12001185D01*
X481780537Y-11904494D01*
X481839502Y-11794180D01*
X481875812Y-11674482D01*
X481888072Y-11550000D01*
X481888072Y-9850000D01*
X481875812Y-9725518D01*
X481839502Y-9605820D01*
X481780537Y-9495506D01*
X481701185Y-9398815D01*
X481604494Y-9319463D01*
X481494180Y-9260498D01*
X481374482Y-9224188D01*
X481250000Y-9211928D01*
X479550000Y-9211928D01*
X479425518Y-9224188D01*
X479305820Y-9260498D01*
X479195506Y-9319463D01*
X479098815Y-9398815D01*
X479019463Y-9495506D01*
X478960498Y-9605820D01*
X478924188Y-9725518D01*
X478911928Y-9850000D01*
X446660000Y-9850000D01*
X446660000Y7360867D01*
X478577972Y7360867D01*
X478640465Y7124550D01*
X478883178Y7011150D01*
X479143349Y6947281D01*
X479410982Y6935396D01*
X479675791Y6975952D01*
X479693523Y6982391D01*
X480494038Y6982391D01*
X480497909Y6944718D01*
X480590079Y6719467D01*
X480724422Y6516526D01*
X480895775Y6343693D01*
X481097554Y6207610D01*
X481322004Y6113507D01*
X481560500Y6065000D01*
X481910500Y6065000D01*
X481910500Y7173000D01*
X482164500Y7173000D01*
X482164500Y6065000D01*
X482514500Y6065000D01*
X482752996Y6113507D01*
X482977446Y6207610D01*
X483179225Y6343693D01*
X483350578Y6516526D01*
X483484921Y6719467D01*
X483577091Y6944718D01*
X483580962Y6982391D01*
X483456231Y7173000D01*
X482164500Y7173000D01*
X481910500Y7173000D01*
X480618769Y7173000D01*
X480494038Y6982391D01*
X479693523Y6982391D01*
X479927600Y7067391D01*
X480034535Y7124550D01*
X480097028Y7360867D01*
X479337500Y8120395D01*
X478577972Y7360867D01*
X446660000Y7360867D01*
X446660000Y8226518D01*
X477972896Y8226518D01*
X478013452Y7961709D01*
X478104891Y7709900D01*
X478162050Y7602965D01*
X478398367Y7540472D01*
X479157895Y8300000D01*
X479517105Y8300000D01*
X480276633Y7540472D01*
X480504997Y7600862D01*
X480618769Y7427000D01*
X481910500Y7427000D01*
X481910500Y8535000D01*
X482164500Y8535000D01*
X482164500Y7427000D01*
X483456231Y7427000D01*
X483580962Y7617609D01*
X483577091Y7655282D01*
X483484921Y7880533D01*
X483350578Y8083474D01*
X483179225Y8256307D01*
X482977446Y8392390D01*
X482752996Y8486493D01*
X482514500Y8535000D01*
X482164500Y8535000D01*
X481910500Y8535000D01*
X481560500Y8535000D01*
X481322004Y8486493D01*
X481097554Y8392390D01*
X480895775Y8256307D01*
X480724422Y8083474D01*
X480661329Y7988164D01*
X480690219Y8105849D01*
X480702104Y8373482D01*
X480661548Y8638291D01*
X480570109Y8890100D01*
X480512950Y8997035D01*
X480276633Y9059528D01*
X479517105Y8300000D01*
X479157895Y8300000D01*
X478398367Y9059528D01*
X478162050Y8997035D01*
X478048650Y8754322D01*
X477984781Y8494151D01*
X477972896Y8226518D01*
X446660000Y8226518D01*
X446660000Y9239133D01*
X478577972Y9239133D01*
X479337500Y8479605D01*
X480097028Y9239133D01*
X480034535Y9475450D01*
X479791822Y9588850D01*
X479531651Y9652719D01*
X479264018Y9664604D01*
X478999209Y9624048D01*
X478747400Y9532609D01*
X478640465Y9475450D01*
X478577972Y9239133D01*
X446660000Y9239133D01*
X446660000Y12360867D01*
X478577972Y12360867D01*
X478640465Y12124550D01*
X478883178Y12011150D01*
X479143349Y11947281D01*
X479410982Y11935396D01*
X479675791Y11975952D01*
X479927600Y12067391D01*
X480034535Y12124550D01*
X480097028Y12360867D01*
X479337500Y13120395D01*
X478577972Y12360867D01*
X446660000Y12360867D01*
X446660000Y13226518D01*
X477972896Y13226518D01*
X478013452Y12961709D01*
X478104891Y12709900D01*
X478162050Y12602965D01*
X478398367Y12540472D01*
X479157895Y13300000D01*
X479517105Y13300000D01*
X480276633Y12540472D01*
X480512950Y12602965D01*
X480626350Y12845678D01*
X480690219Y13105849D01*
X480702104Y13373482D01*
X480666885Y13603442D01*
X480724422Y13516526D01*
X480895775Y13343693D01*
X481097554Y13207610D01*
X481322004Y13113507D01*
X481560500Y13065000D01*
X481910500Y13065000D01*
X481910500Y14173000D01*
X482164500Y14173000D01*
X482164500Y13065000D01*
X482514500Y13065000D01*
X482752996Y13113507D01*
X482977446Y13207610D01*
X483179225Y13343693D01*
X483350578Y13516526D01*
X483484921Y13719467D01*
X483577091Y13944718D01*
X483580962Y13982391D01*
X483456231Y14173000D01*
X482164500Y14173000D01*
X481910500Y14173000D01*
X480618769Y14173000D01*
X480504997Y13999138D01*
X480276633Y14059528D01*
X479517105Y13300000D01*
X479157895Y13300000D01*
X478398367Y14059528D01*
X478162050Y13997035D01*
X478048650Y13754322D01*
X477984781Y13494151D01*
X477972896Y13226518D01*
X446660000Y13226518D01*
X446660000Y14239133D01*
X478577972Y14239133D01*
X479337500Y13479605D01*
X480097028Y14239133D01*
X480034535Y14475450D01*
X479791822Y14588850D01*
X479531651Y14652719D01*
X479264018Y14664604D01*
X478999209Y14624048D01*
X478747400Y14532609D01*
X478640465Y14475450D01*
X478577972Y14239133D01*
X446660000Y14239133D01*
X446660000Y15340000D01*
X481019872Y15340000D01*
X480895775Y15256307D01*
M02*
