G04 #@! TF.GenerationSoftware,KiCad,Pcbnew,(5.1.5)-3*
G04 #@! TF.CreationDate,2020-02-03T12:38:55+01:00*
G04 #@! TF.ProjectId,Lab_1,4c61625f-312e-46b6-9963-61645f706362,rev?*
G04 #@! TF.SameCoordinates,Original*
G04 #@! TF.FileFunction,Soldermask,Bot*
G04 #@! TF.FilePolarity,Negative*
%FSLAX46Y46*%
G04 Gerber Fmt 4.6, Leading zero omitted, Abs format (unit mm)*
G04 Created by KiCad (PCBNEW (5.1.5)-3) date 2020-02-03 12:38:55*
%MOMM*%
%LPD*%
G04 APERTURE LIST*
%ADD10C,0.100000*%
G04 APERTURE END LIST*
D10*
G36*
X480513512Y-19963927D02*
G01*
X480662812Y-19993624D01*
X480826784Y-20061544D01*
X480974354Y-20160147D01*
X481099853Y-20285646D01*
X481198456Y-20433216D01*
X481266376Y-20597188D01*
X481301000Y-20771259D01*
X481301000Y-20948741D01*
X481266376Y-21122812D01*
X481198456Y-21286784D01*
X481099853Y-21434354D01*
X480974354Y-21559853D01*
X480826784Y-21658456D01*
X480662812Y-21726376D01*
X480513512Y-21756073D01*
X480488742Y-21761000D01*
X480311258Y-21761000D01*
X480286488Y-21756073D01*
X480137188Y-21726376D01*
X479973216Y-21658456D01*
X479825646Y-21559853D01*
X479700147Y-21434354D01*
X479601544Y-21286784D01*
X479533624Y-21122812D01*
X479499000Y-20948741D01*
X479499000Y-20771259D01*
X479533624Y-20597188D01*
X479601544Y-20433216D01*
X479700147Y-20285646D01*
X479825646Y-20160147D01*
X479973216Y-20061544D01*
X480137188Y-19993624D01*
X480286488Y-19963927D01*
X480311258Y-19959000D01*
X480488742Y-19959000D01*
X480513512Y-19963927D01*
G37*
G36*
X480513512Y-17423927D02*
G01*
X480662812Y-17453624D01*
X480826784Y-17521544D01*
X480974354Y-17620147D01*
X481099853Y-17745646D01*
X481198456Y-17893216D01*
X481266376Y-18057188D01*
X481301000Y-18231259D01*
X481301000Y-18408741D01*
X481266376Y-18582812D01*
X481198456Y-18746784D01*
X481099853Y-18894354D01*
X480974354Y-19019853D01*
X480826784Y-19118456D01*
X480662812Y-19186376D01*
X480513512Y-19216073D01*
X480488742Y-19221000D01*
X480311258Y-19221000D01*
X480286488Y-19216073D01*
X480137188Y-19186376D01*
X479973216Y-19118456D01*
X479825646Y-19019853D01*
X479700147Y-18894354D01*
X479601544Y-18746784D01*
X479533624Y-18582812D01*
X479499000Y-18408741D01*
X479499000Y-18231259D01*
X479533624Y-18057188D01*
X479601544Y-17893216D01*
X479700147Y-17745646D01*
X479825646Y-17620147D01*
X479973216Y-17521544D01*
X480137188Y-17453624D01*
X480286488Y-17423927D01*
X480311258Y-17419000D01*
X480488742Y-17419000D01*
X480513512Y-17423927D01*
G37*
G36*
X480513512Y-14883927D02*
G01*
X480662812Y-14913624D01*
X480826784Y-14981544D01*
X480974354Y-15080147D01*
X481099853Y-15205646D01*
X481198456Y-15353216D01*
X481266376Y-15517188D01*
X481301000Y-15691259D01*
X481301000Y-15868741D01*
X481266376Y-16042812D01*
X481198456Y-16206784D01*
X481099853Y-16354354D01*
X480974354Y-16479853D01*
X480826784Y-16578456D01*
X480662812Y-16646376D01*
X480513512Y-16676073D01*
X480488742Y-16681000D01*
X480311258Y-16681000D01*
X480286488Y-16676073D01*
X480137188Y-16646376D01*
X479973216Y-16578456D01*
X479825646Y-16479853D01*
X479700147Y-16354354D01*
X479601544Y-16206784D01*
X479533624Y-16042812D01*
X479499000Y-15868741D01*
X479499000Y-15691259D01*
X479533624Y-15517188D01*
X479601544Y-15353216D01*
X479700147Y-15205646D01*
X479825646Y-15080147D01*
X479973216Y-14981544D01*
X480137188Y-14913624D01*
X480286488Y-14883927D01*
X480311258Y-14879000D01*
X480488742Y-14879000D01*
X480513512Y-14883927D01*
G37*
G36*
X480513512Y-12343927D02*
G01*
X480662812Y-12373624D01*
X480826784Y-12441544D01*
X480974354Y-12540147D01*
X481099853Y-12665646D01*
X481198456Y-12813216D01*
X481266376Y-12977188D01*
X481301000Y-13151259D01*
X481301000Y-13328741D01*
X481266376Y-13502812D01*
X481198456Y-13666784D01*
X481099853Y-13814354D01*
X480974354Y-13939853D01*
X480826784Y-14038456D01*
X480662812Y-14106376D01*
X480513512Y-14136073D01*
X480488742Y-14141000D01*
X480311258Y-14141000D01*
X480286488Y-14136073D01*
X480137188Y-14106376D01*
X479973216Y-14038456D01*
X479825646Y-13939853D01*
X479700147Y-13814354D01*
X479601544Y-13666784D01*
X479533624Y-13502812D01*
X479499000Y-13328741D01*
X479499000Y-13151259D01*
X479533624Y-12977188D01*
X479601544Y-12813216D01*
X479700147Y-12665646D01*
X479825646Y-12540147D01*
X479973216Y-12441544D01*
X480137188Y-12373624D01*
X480286488Y-12343927D01*
X480311258Y-12339000D01*
X480488742Y-12339000D01*
X480513512Y-12343927D01*
G37*
G36*
X481301000Y-11601000D02*
G01*
X479499000Y-11601000D01*
X479499000Y-9799000D01*
X481301000Y-9799000D01*
X481301000Y-11601000D01*
G37*
G36*
X482451355Y7947860D02*
G01*
X482515118Y7941580D01*
X482605904Y7914040D01*
X482637836Y7904354D01*
X482750925Y7843906D01*
X482850054Y7762554D01*
X482931406Y7663425D01*
X482991854Y7550336D01*
X482991855Y7550332D01*
X483029080Y7427618D01*
X483041649Y7300000D01*
X483029080Y7172382D01*
X483001540Y7081596D01*
X482991854Y7049664D01*
X482931406Y6936575D01*
X482850054Y6837446D01*
X482750925Y6756094D01*
X482637836Y6695646D01*
X482605904Y6685960D01*
X482515118Y6658420D01*
X482451355Y6652140D01*
X482419474Y6649000D01*
X481655526Y6649000D01*
X481623645Y6652140D01*
X481559882Y6658420D01*
X481469096Y6685960D01*
X481437164Y6695646D01*
X481324075Y6756094D01*
X481224946Y6837446D01*
X481143594Y6936575D01*
X481083146Y7049664D01*
X481073460Y7081596D01*
X481045920Y7172382D01*
X481033351Y7300000D01*
X481045920Y7427618D01*
X481083145Y7550332D01*
X481083146Y7550336D01*
X481143594Y7663425D01*
X481224946Y7762554D01*
X481324075Y7843906D01*
X481437164Y7904354D01*
X481469096Y7914040D01*
X481559882Y7941580D01*
X481623645Y7947860D01*
X481655526Y7951000D01*
X482419474Y7951000D01*
X482451355Y7947860D01*
G37*
G36*
X479563848Y9046180D02*
G01*
X479563850Y9046179D01*
X479563851Y9046179D01*
X479705074Y8987683D01*
X479705077Y8987681D01*
X479832169Y8902761D01*
X479940261Y8794669D01*
X480025181Y8667577D01*
X480025183Y8667574D01*
X480083679Y8526351D01*
X480113500Y8376429D01*
X480113500Y8223571D01*
X480083679Y8073649D01*
X480025183Y7932426D01*
X480025181Y7932423D01*
X479940261Y7805331D01*
X479832169Y7697239D01*
X479705077Y7612319D01*
X479705074Y7612317D01*
X479563851Y7553821D01*
X479563850Y7553821D01*
X479563848Y7553820D01*
X479413931Y7524000D01*
X479261069Y7524000D01*
X479111152Y7553820D01*
X479111150Y7553821D01*
X479111149Y7553821D01*
X478969926Y7612317D01*
X478969923Y7612319D01*
X478842831Y7697239D01*
X478734739Y7805331D01*
X478649819Y7932423D01*
X478649817Y7932426D01*
X478591321Y8073649D01*
X478561500Y8223571D01*
X478561500Y8376429D01*
X478591321Y8526351D01*
X478649817Y8667574D01*
X478649819Y8667577D01*
X478734739Y8794669D01*
X478842831Y8902761D01*
X478969923Y8987681D01*
X478969926Y8987683D01*
X479111149Y9046179D01*
X479111150Y9046179D01*
X479111152Y9046180D01*
X479261069Y9076000D01*
X479413931Y9076000D01*
X479563848Y9046180D01*
G37*
G36*
X479563848Y14046180D02*
G01*
X479563850Y14046179D01*
X479563851Y14046179D01*
X479705074Y13987683D01*
X479705077Y13987681D01*
X479832169Y13902761D01*
X479940261Y13794669D01*
X480025181Y13667577D01*
X480025183Y13667574D01*
X480083679Y13526351D01*
X480113500Y13376429D01*
X480113500Y13223571D01*
X480083679Y13073649D01*
X480025183Y12932426D01*
X480025181Y12932423D01*
X479940261Y12805331D01*
X479832169Y12697239D01*
X479705077Y12612319D01*
X479705074Y12612317D01*
X479563851Y12553821D01*
X479563850Y12553821D01*
X479563848Y12553820D01*
X479413931Y12524000D01*
X479261069Y12524000D01*
X479111152Y12553820D01*
X479111150Y12553821D01*
X479111149Y12553821D01*
X478969926Y12612317D01*
X478969923Y12612319D01*
X478842831Y12697239D01*
X478734739Y12805331D01*
X478649819Y12932423D01*
X478649817Y12932426D01*
X478591321Y13073649D01*
X478561500Y13223571D01*
X478561500Y13376429D01*
X478591321Y13526351D01*
X478649817Y13667574D01*
X478649819Y13667577D01*
X478734739Y13794669D01*
X478842831Y13902761D01*
X478969923Y13987681D01*
X478969926Y13987683D01*
X479111149Y14046179D01*
X479111150Y14046179D01*
X479111152Y14046180D01*
X479261069Y14076000D01*
X479413931Y14076000D01*
X479563848Y14046180D01*
G37*
G36*
X482451355Y14947860D02*
G01*
X482515118Y14941580D01*
X482605904Y14914040D01*
X482637836Y14904354D01*
X482750925Y14843906D01*
X482850054Y14762554D01*
X482931406Y14663425D01*
X482991854Y14550336D01*
X482991855Y14550332D01*
X483029080Y14427618D01*
X483041649Y14300000D01*
X483029080Y14172382D01*
X483001540Y14081596D01*
X482991854Y14049664D01*
X482931406Y13936575D01*
X482850054Y13837446D01*
X482750925Y13756094D01*
X482637836Y13695646D01*
X482605904Y13685960D01*
X482515118Y13658420D01*
X482451355Y13652140D01*
X482419474Y13649000D01*
X481655526Y13649000D01*
X481623645Y13652140D01*
X481559882Y13658420D01*
X481469096Y13685960D01*
X481437164Y13695646D01*
X481324075Y13756094D01*
X481224946Y13837446D01*
X481143594Y13936575D01*
X481083146Y14049664D01*
X481073460Y14081596D01*
X481045920Y14172382D01*
X481033351Y14300000D01*
X481045920Y14427618D01*
X481083145Y14550332D01*
X481083146Y14550336D01*
X481143594Y14663425D01*
X481224946Y14762554D01*
X481324075Y14843906D01*
X481437164Y14904354D01*
X481469096Y14914040D01*
X481559882Y14941580D01*
X481623645Y14947860D01*
X481655526Y14951000D01*
X482419474Y14951000D01*
X482451355Y14947860D01*
G37*
M02*
