G04 #@! TF.GenerationSoftware,KiCad,Pcbnew,(5.1.5)-3*
G04 #@! TF.CreationDate,2020-02-14T11:51:11+01:00*
G04 #@! TF.ProjectId,Lab_1,4c61625f-312e-46b6-9963-61645f706362,rev?*
G04 #@! TF.SameCoordinates,Original*
G04 #@! TF.FileFunction,Other,Fab,Top*
%FSLAX46Y46*%
G04 Gerber Fmt 4.6, Leading zero omitted, Abs format (unit mm)*
G04 Created by KiCad (PCBNEW (5.1.5)-3) date 2020-02-14 11:51:11*
%MOMM*%
%LPD*%
G04 APERTURE LIST*
%ADD10C,0.100000*%
%ADD11C,0.120000*%
%ADD12C,0.150000*%
%ADD13C,0.080000*%
%ADD14C,0.075000*%
G04 APERTURE END LIST*
D10*
X87775000Y-104600000D02*
X85775000Y-104600000D01*
X87775000Y-103400000D02*
X87775000Y-104600000D01*
X85775000Y-103400000D02*
X87775000Y-103400000D01*
X85775000Y-104600000D02*
X85775000Y-103400000D01*
X73925000Y-103400000D02*
X75925000Y-103400000D01*
X73925000Y-104600000D02*
X73925000Y-103400000D01*
X75925000Y-104600000D02*
X73925000Y-104600000D01*
X75925000Y-103400000D02*
X75925000Y-104600000D01*
X89000000Y-97700000D02*
X89000000Y-99700000D01*
X87800000Y-97700000D02*
X89000000Y-97700000D01*
X87800000Y-99700000D02*
X87800000Y-97700000D01*
X89000000Y-99700000D02*
X87800000Y-99700000D01*
X83775000Y-104600000D02*
X83775000Y-103400000D01*
X81775000Y-104600000D02*
X83775000Y-104600000D01*
X81775000Y-103700000D02*
X81775000Y-104600000D01*
X82075000Y-103400000D02*
X81775000Y-103700000D01*
X83775000Y-103400000D02*
X82075000Y-103400000D01*
X77825000Y-103400000D02*
X77825000Y-104600000D01*
X79825000Y-103400000D02*
X77825000Y-103400000D01*
X79825000Y-104300000D02*
X79825000Y-103400000D01*
X79525000Y-104600000D02*
X79825000Y-104300000D01*
X77825000Y-104600000D02*
X79525000Y-104600000D01*
X71725714Y-142150000D02*
G75*
G03X71725714Y-142150000I-1750714J0D01*
G01*
X72975000Y-139150000D02*
X66975000Y-139150000D01*
X72975000Y-145150000D02*
X72975000Y-139150000D01*
X66975000Y-145150000D02*
X72975000Y-145150000D01*
X66975000Y-139150000D02*
X66975000Y-145150000D01*
X74600000Y-135575000D02*
X74600000Y-137575000D01*
X73400000Y-135575000D02*
X74600000Y-135575000D01*
X73400000Y-137575000D02*
X73400000Y-135575000D01*
X74600000Y-137575000D02*
X73400000Y-137575000D01*
X72000000Y-138100000D02*
X70000000Y-138100000D01*
X72000000Y-136900000D02*
X72000000Y-138100000D01*
X70000000Y-136900000D02*
X72000000Y-136900000D01*
X70000000Y-138100000D02*
X70000000Y-136900000D01*
X99400000Y-97900000D02*
X100600000Y-97900000D01*
X100600000Y-97900000D02*
X100600000Y-99900000D01*
X100600000Y-99900000D02*
X99400000Y-99900000D01*
X99400000Y-99900000D02*
X99400000Y-97900000D01*
X152700000Y-128975000D02*
X152700000Y-130975000D01*
X151500000Y-128975000D02*
X152700000Y-128975000D01*
X151500000Y-130975000D02*
X151500000Y-128975000D01*
X152700000Y-130975000D02*
X151500000Y-130975000D01*
X111000000Y-104000000D02*
X111000000Y-102000000D01*
X112200000Y-104000000D02*
X111000000Y-104000000D01*
X112200000Y-102000000D02*
X112200000Y-104000000D01*
X111000000Y-102000000D02*
X112200000Y-102000000D01*
X82425000Y-136700000D02*
X82425000Y-137900000D01*
X82425000Y-137900000D02*
X80425000Y-137900000D01*
X80425000Y-137900000D02*
X80425000Y-136700000D01*
X80425000Y-136700000D02*
X82425000Y-136700000D01*
X62800000Y-123400000D02*
X64000000Y-123400000D01*
X64000000Y-123400000D02*
X64000000Y-125400000D01*
X64000000Y-125400000D02*
X62800000Y-125400000D01*
X62800000Y-125400000D02*
X62800000Y-123400000D01*
X94725000Y-136200000D02*
X92725000Y-136200000D01*
X94725000Y-135000000D02*
X94725000Y-136200000D01*
X92725000Y-135000000D02*
X94725000Y-135000000D01*
X92725000Y-136200000D02*
X92725000Y-135000000D01*
X91200000Y-137675000D02*
X90000000Y-137675000D01*
X90000000Y-137675000D02*
X90000000Y-135675000D01*
X90000000Y-135675000D02*
X91200000Y-135675000D01*
X91200000Y-135675000D02*
X91200000Y-137675000D01*
X92675000Y-137100000D02*
X94675000Y-137100000D01*
X92675000Y-138300000D02*
X92675000Y-137100000D01*
X94675000Y-138300000D02*
X92675000Y-138300000D01*
X94675000Y-137100000D02*
X94675000Y-138300000D01*
X127475000Y-106000000D02*
X127475000Y-104800000D01*
X127475000Y-104800000D02*
X129475000Y-104800000D01*
X129475000Y-104800000D02*
X129475000Y-106000000D01*
X129475000Y-106000000D02*
X127475000Y-106000000D01*
X114300000Y-97400000D02*
X118900000Y-97400000D01*
X118900000Y-97400000D02*
X118900000Y-100400000D01*
X114300000Y-100400000D02*
X114300000Y-97400000D01*
X114300000Y-100400000D02*
X118900000Y-100400000D01*
X117249440Y-98898980D02*
X118151140Y-98898980D01*
X116098820Y-98898980D02*
X115100600Y-98898980D01*
X117249440Y-99699080D02*
X117249440Y-98098880D01*
X116098820Y-98149680D02*
X116098820Y-99699080D01*
X117249440Y-98898980D02*
X116098820Y-98149680D01*
X117249440Y-98898980D02*
X116098820Y-99699080D01*
X101880000Y-102670000D02*
X107680000Y-102670000D01*
X107680000Y-102670000D02*
X107680000Y-97590000D01*
X107680000Y-97590000D02*
X101880000Y-97590000D01*
X101880000Y-97590000D02*
X101880000Y-102670000D01*
X104300000Y-102670000D02*
X104800000Y-101962893D01*
X104800000Y-101962893D02*
X105300000Y-102670000D01*
X147065000Y-112430000D02*
X148970000Y-112430000D01*
X148970000Y-112430000D02*
X148970000Y-135290000D01*
X148970000Y-135290000D02*
X146430000Y-135290000D01*
X146430000Y-135290000D02*
X146430000Y-113065000D01*
X146430000Y-113065000D02*
X147065000Y-112430000D01*
X66065000Y-111030000D02*
X67970000Y-111030000D01*
X67970000Y-111030000D02*
X67970000Y-128810000D01*
X67970000Y-128810000D02*
X65430000Y-128810000D01*
X65430000Y-128810000D02*
X65430000Y-111665000D01*
X65430000Y-111665000D02*
X66065000Y-111030000D01*
X91775000Y-140300000D02*
X91475000Y-140000000D01*
X92075000Y-140000000D02*
X91775000Y-140300000D01*
X91825000Y-141300000D02*
G75*
G03X91825000Y-141300000I-50000J0D01*
G01*
X91900000Y-141300000D02*
G75*
G03X91900000Y-141300000I-125000J0D01*
G01*
X92675000Y-141300000D02*
G75*
G03X92675000Y-141300000I-900000J0D01*
G01*
X93075000Y-142600000D02*
X90475000Y-142600000D01*
X93075000Y-142600000D02*
X93075000Y-140300000D01*
X93075000Y-140300000D02*
X92775000Y-140000000D01*
X90475000Y-142600000D02*
X90475000Y-140000000D01*
X92775000Y-140000000D02*
X90475000Y-140000000D01*
X91975000Y-141300000D02*
G75*
G03X91975000Y-141300000I-200000J0D01*
G01*
X90800000Y-97975000D02*
X92000000Y-97975000D01*
X92000000Y-97975000D02*
X92000000Y-99975000D01*
X92000000Y-99975000D02*
X90800000Y-99975000D01*
X90800000Y-99975000D02*
X90800000Y-97975000D01*
X93575000Y-102400000D02*
X93575000Y-101200000D01*
X93575000Y-101200000D02*
X95575000Y-101200000D01*
X95575000Y-101200000D02*
X95575000Y-102400000D01*
X95575000Y-102400000D02*
X93575000Y-102400000D01*
X141500000Y-101375000D02*
X142700000Y-101375000D01*
X142700000Y-101375000D02*
X142700000Y-103375000D01*
X142700000Y-103375000D02*
X141500000Y-103375000D01*
X141500000Y-103375000D02*
X141500000Y-101375000D01*
X85800000Y-135725000D02*
X85800000Y-137725000D01*
X84600000Y-135725000D02*
X85800000Y-135725000D01*
X84600000Y-137725000D02*
X84600000Y-135725000D01*
X85800000Y-137725000D02*
X84600000Y-137725000D01*
X61925000Y-116900000D02*
X63925000Y-116900000D01*
X61925000Y-118100000D02*
X61925000Y-116900000D01*
X63925000Y-118100000D02*
X61925000Y-118100000D01*
X63925000Y-116900000D02*
X63925000Y-118100000D01*
X77975000Y-139150000D02*
X77975000Y-145150000D01*
X77975000Y-145150000D02*
X83975000Y-145150000D01*
X83975000Y-145150000D02*
X83975000Y-139150000D01*
X83975000Y-139150000D02*
X77975000Y-139150000D01*
X82725714Y-142150000D02*
G75*
G03X82725714Y-142150000I-1750714J0D01*
G01*
D11*
X122450000Y-107240000D02*
X124950000Y-107240000D01*
X124950000Y-107240000D02*
X124950000Y-97240000D01*
X124950000Y-97240000D02*
X122450000Y-97240000D01*
X122450000Y-107240000D02*
X122450000Y-97240000D01*
D10*
X100120000Y-140825000D02*
X103045000Y-140825000D01*
X103045000Y-140825000D02*
X103045000Y-145725000D01*
X103045000Y-145725000D02*
X99145000Y-145725000D01*
X99145000Y-145725000D02*
X99145000Y-141800000D01*
X99145000Y-141800000D02*
X100120000Y-140825000D01*
X85800000Y-100670000D02*
X82900000Y-100670000D01*
X82900000Y-100670000D02*
X82900000Y-98910000D01*
X85350000Y-98910000D02*
X82900000Y-98910000D01*
X85800000Y-100670000D02*
X85800000Y-99360000D01*
X85350000Y-98910000D02*
X85800000Y-99360000D01*
X128800000Y-98200000D02*
X129450000Y-98850000D01*
X129450000Y-100000000D02*
X129450000Y-98850000D01*
X128800000Y-98200000D02*
X126350000Y-98200000D01*
X126350000Y-100000000D02*
X126350000Y-98200000D01*
X129450000Y-100000000D02*
X126350000Y-100000000D01*
X96580000Y-99900000D02*
X96130000Y-100350000D01*
X94820000Y-100350000D02*
X96130000Y-100350000D01*
X96580000Y-99900000D02*
X96580000Y-97450000D01*
X94820000Y-97450000D02*
X96580000Y-97450000D01*
X94820000Y-100350000D02*
X94820000Y-97450000D01*
X144025000Y-141200000D02*
X144025000Y-142400000D01*
X144025000Y-142400000D02*
X142025000Y-142400000D01*
X142025000Y-142400000D02*
X142025000Y-141200000D01*
X142025000Y-141200000D02*
X144025000Y-141200000D01*
X106000000Y-112500000D02*
X104000000Y-112500000D01*
X106000000Y-111300000D02*
X106000000Y-112500000D01*
X104000000Y-111300000D02*
X106000000Y-111300000D01*
X104000000Y-112500000D02*
X104000000Y-111300000D01*
X105975000Y-110300000D02*
X103975000Y-110300000D01*
X105975000Y-109100000D02*
X105975000Y-110300000D01*
X103975000Y-109100000D02*
X105975000Y-109100000D01*
X103975000Y-110300000D02*
X103975000Y-109100000D01*
X102400000Y-111975000D02*
X101200000Y-111975000D01*
X101200000Y-111975000D02*
X101200000Y-109975000D01*
X101200000Y-109975000D02*
X102400000Y-109975000D01*
X102400000Y-109975000D02*
X102400000Y-111975000D01*
X100200000Y-109975000D02*
X100200000Y-111975000D01*
X99000000Y-109975000D02*
X100200000Y-109975000D01*
X99000000Y-111975000D02*
X99000000Y-109975000D01*
X100200000Y-111975000D02*
X99000000Y-111975000D01*
X98100000Y-111925000D02*
X96900000Y-111925000D01*
X96900000Y-111925000D02*
X96900000Y-109925000D01*
X96900000Y-109925000D02*
X98100000Y-109925000D01*
X98100000Y-109925000D02*
X98100000Y-111925000D01*
X100925000Y-134800000D02*
X102925000Y-134800000D01*
X100925000Y-136000000D02*
X100925000Y-134800000D01*
X102925000Y-136000000D02*
X100925000Y-136000000D01*
X102925000Y-134800000D02*
X102925000Y-136000000D01*
X72300000Y-97700000D02*
X73500000Y-97700000D01*
X73500000Y-97700000D02*
X73500000Y-99700000D01*
X73500000Y-99700000D02*
X72300000Y-99700000D01*
X72300000Y-99700000D02*
X72300000Y-97700000D01*
X75300000Y-100574773D02*
X75700000Y-100574773D01*
X75500000Y-100774773D02*
X75500000Y-100374773D01*
X77650000Y-101350000D02*
X78650000Y-100350000D01*
X75350000Y-101350000D02*
X74350000Y-100350000D01*
X75350000Y-101350000D02*
X77650000Y-101350000D01*
X78650000Y-100350000D02*
X78650000Y-97050000D01*
X74350000Y-100350000D02*
X74350000Y-97050000D01*
X74350000Y-97050000D02*
X78650000Y-97050000D01*
X78500000Y-99200000D02*
G75*
G03X78500000Y-99200000I-2000000J0D01*
G01*
X80700000Y-99625000D02*
X79500000Y-99625000D01*
X79500000Y-99625000D02*
X79500000Y-97625000D01*
X79500000Y-97625000D02*
X80700000Y-97625000D01*
X80700000Y-97625000D02*
X80700000Y-99625000D01*
X136600000Y-99400000D02*
X134600000Y-99400000D01*
X136600000Y-98200000D02*
X136600000Y-99400000D01*
X134600000Y-98200000D02*
X136600000Y-98200000D01*
X134600000Y-99400000D02*
X134600000Y-98200000D01*
X137800000Y-104000000D02*
G75*
G03X137800000Y-104000000I-2000000J0D01*
G01*
X137950000Y-101850000D02*
X137950000Y-106150000D01*
X134650000Y-101850000D02*
X137950000Y-101850000D01*
X134650000Y-106150000D02*
X137950000Y-106150000D01*
X133650000Y-102850000D02*
X133650000Y-105150000D01*
X133650000Y-102850000D02*
X134650000Y-101850000D01*
X133650000Y-105150000D02*
X134650000Y-106150000D01*
X134225227Y-103000000D02*
X134625227Y-103000000D01*
X134425227Y-102800000D02*
X134425227Y-103200000D01*
X145070000Y-144065000D02*
X145070000Y-145970000D01*
X145070000Y-145970000D02*
X132370000Y-145970000D01*
X132370000Y-145970000D02*
X132370000Y-143430000D01*
X132370000Y-143430000D02*
X144435000Y-143430000D01*
X144435000Y-143430000D02*
X145070000Y-144065000D01*
X64850000Y-105050000D02*
X69850000Y-105050000D01*
X65548296Y-98300000D02*
X65548296Y-104300000D01*
X64848296Y-97550000D02*
X64848296Y-105050000D01*
X69850000Y-97550000D02*
X69850000Y-105050000D01*
X64850000Y-97550000D02*
X69850000Y-97550000D01*
X69950000Y-100000000D02*
X70150000Y-99800000D01*
X70150000Y-100200000D02*
X69950000Y-100000000D01*
X70360000Y-99800000D02*
X70360000Y-100200000D01*
X70360000Y-99800000D02*
X70150000Y-99800000D01*
X70360000Y-100200000D02*
X70150000Y-100200000D01*
X130100000Y-145775000D02*
X130100000Y-143775000D01*
X131300000Y-145775000D02*
X130100000Y-145775000D01*
X131300000Y-143775000D02*
X131300000Y-145775000D01*
X130100000Y-143775000D02*
X131300000Y-143775000D01*
X110000000Y-115475000D02*
X108800000Y-115475000D01*
X108800000Y-115475000D02*
X108800000Y-113475000D01*
X108800000Y-113475000D02*
X110000000Y-113475000D01*
X110000000Y-113475000D02*
X110000000Y-115475000D01*
X107550000Y-116420000D02*
X107550000Y-127920000D01*
X107550000Y-127920000D02*
X95950000Y-127920000D01*
X95950000Y-115420000D02*
X95950000Y-127920000D01*
X106550000Y-115410000D02*
X95950000Y-115410000D01*
X107550000Y-116420000D02*
X106550000Y-115420000D01*
D12*
X86013095Y-105102380D02*
X85822619Y-105102380D01*
X85727380Y-105150000D01*
X85679761Y-105197619D01*
X85584523Y-105340476D01*
X85536904Y-105530952D01*
X85536904Y-105911904D01*
X85584523Y-106007142D01*
X85632142Y-106054761D01*
X85727380Y-106102380D01*
X85917857Y-106102380D01*
X86013095Y-106054761D01*
X86060714Y-106007142D01*
X86108333Y-105911904D01*
X86108333Y-105673809D01*
X86060714Y-105578571D01*
X86013095Y-105530952D01*
X85917857Y-105483333D01*
X85727380Y-105483333D01*
X85632142Y-105530952D01*
X85584523Y-105578571D01*
X85536904Y-105673809D01*
X86679761Y-105530952D02*
X86584523Y-105483333D01*
X86536904Y-105435714D01*
X86489285Y-105340476D01*
X86489285Y-105292857D01*
X86536904Y-105197619D01*
X86584523Y-105150000D01*
X86679761Y-105102380D01*
X86870238Y-105102380D01*
X86965476Y-105150000D01*
X87013095Y-105197619D01*
X87060714Y-105292857D01*
X87060714Y-105340476D01*
X87013095Y-105435714D01*
X86965476Y-105483333D01*
X86870238Y-105530952D01*
X86679761Y-105530952D01*
X86584523Y-105578571D01*
X86536904Y-105626190D01*
X86489285Y-105721428D01*
X86489285Y-105911904D01*
X86536904Y-106007142D01*
X86584523Y-106054761D01*
X86679761Y-106102380D01*
X86870238Y-106102380D01*
X86965476Y-106054761D01*
X87013095Y-106007142D01*
X87060714Y-105911904D01*
X87060714Y-105721428D01*
X87013095Y-105626190D01*
X86965476Y-105578571D01*
X86870238Y-105530952D01*
X87679761Y-105102380D02*
X87775000Y-105102380D01*
X87870238Y-105150000D01*
X87917857Y-105197619D01*
X87965476Y-105292857D01*
X88013095Y-105483333D01*
X88013095Y-105721428D01*
X87965476Y-105911904D01*
X87917857Y-106007142D01*
X87870238Y-106054761D01*
X87775000Y-106102380D01*
X87679761Y-106102380D01*
X87584523Y-106054761D01*
X87536904Y-106007142D01*
X87489285Y-105911904D01*
X87441666Y-105721428D01*
X87441666Y-105483333D01*
X87489285Y-105292857D01*
X87536904Y-105197619D01*
X87584523Y-105150000D01*
X87679761Y-105102380D01*
D13*
X86453571Y-104226190D02*
X86286904Y-103988095D01*
X86167857Y-104226190D02*
X86167857Y-103726190D01*
X86358333Y-103726190D01*
X86405952Y-103750000D01*
X86429761Y-103773809D01*
X86453571Y-103821428D01*
X86453571Y-103892857D01*
X86429761Y-103940476D01*
X86405952Y-103964285D01*
X86358333Y-103988095D01*
X86167857Y-103988095D01*
X86929761Y-104226190D02*
X86644047Y-104226190D01*
X86786904Y-104226190D02*
X86786904Y-103726190D01*
X86739285Y-103797619D01*
X86691666Y-103845238D01*
X86644047Y-103869047D01*
X87239285Y-103726190D02*
X87286904Y-103726190D01*
X87334523Y-103750000D01*
X87358333Y-103773809D01*
X87382142Y-103821428D01*
X87405952Y-103916666D01*
X87405952Y-104035714D01*
X87382142Y-104130952D01*
X87358333Y-104178571D01*
X87334523Y-104202380D01*
X87286904Y-104226190D01*
X87239285Y-104226190D01*
X87191666Y-104202380D01*
X87167857Y-104178571D01*
X87144047Y-104130952D01*
X87120238Y-104035714D01*
X87120238Y-103916666D01*
X87144047Y-103821428D01*
X87167857Y-103773809D01*
X87191666Y-103750000D01*
X87239285Y-103726190D01*
D12*
X74163095Y-101802380D02*
X73972619Y-101802380D01*
X73877380Y-101850000D01*
X73829761Y-101897619D01*
X73734523Y-102040476D01*
X73686904Y-102230952D01*
X73686904Y-102611904D01*
X73734523Y-102707142D01*
X73782142Y-102754761D01*
X73877380Y-102802380D01*
X74067857Y-102802380D01*
X74163095Y-102754761D01*
X74210714Y-102707142D01*
X74258333Y-102611904D01*
X74258333Y-102373809D01*
X74210714Y-102278571D01*
X74163095Y-102230952D01*
X74067857Y-102183333D01*
X73877380Y-102183333D01*
X73782142Y-102230952D01*
X73734523Y-102278571D01*
X73686904Y-102373809D01*
X74829761Y-102230952D02*
X74734523Y-102183333D01*
X74686904Y-102135714D01*
X74639285Y-102040476D01*
X74639285Y-101992857D01*
X74686904Y-101897619D01*
X74734523Y-101850000D01*
X74829761Y-101802380D01*
X75020238Y-101802380D01*
X75115476Y-101850000D01*
X75163095Y-101897619D01*
X75210714Y-101992857D01*
X75210714Y-102040476D01*
X75163095Y-102135714D01*
X75115476Y-102183333D01*
X75020238Y-102230952D01*
X74829761Y-102230952D01*
X74734523Y-102278571D01*
X74686904Y-102326190D01*
X74639285Y-102421428D01*
X74639285Y-102611904D01*
X74686904Y-102707142D01*
X74734523Y-102754761D01*
X74829761Y-102802380D01*
X75020238Y-102802380D01*
X75115476Y-102754761D01*
X75163095Y-102707142D01*
X75210714Y-102611904D01*
X75210714Y-102421428D01*
X75163095Y-102326190D01*
X75115476Y-102278571D01*
X75020238Y-102230952D01*
X75829761Y-101802380D02*
X75925000Y-101802380D01*
X76020238Y-101850000D01*
X76067857Y-101897619D01*
X76115476Y-101992857D01*
X76163095Y-102183333D01*
X76163095Y-102421428D01*
X76115476Y-102611904D01*
X76067857Y-102707142D01*
X76020238Y-102754761D01*
X75925000Y-102802380D01*
X75829761Y-102802380D01*
X75734523Y-102754761D01*
X75686904Y-102707142D01*
X75639285Y-102611904D01*
X75591666Y-102421428D01*
X75591666Y-102183333D01*
X75639285Y-101992857D01*
X75686904Y-101897619D01*
X75734523Y-101850000D01*
X75829761Y-101802380D01*
D13*
X74841666Y-104226190D02*
X74675000Y-103988095D01*
X74555952Y-104226190D02*
X74555952Y-103726190D01*
X74746428Y-103726190D01*
X74794047Y-103750000D01*
X74817857Y-103773809D01*
X74841666Y-103821428D01*
X74841666Y-103892857D01*
X74817857Y-103940476D01*
X74794047Y-103964285D01*
X74746428Y-103988095D01*
X74555952Y-103988095D01*
X75270238Y-103892857D02*
X75270238Y-104226190D01*
X75151190Y-103702380D02*
X75032142Y-104059523D01*
X75341666Y-104059523D01*
D12*
X90502380Y-100247619D02*
X90502380Y-100819047D01*
X90502380Y-100533333D02*
X89502380Y-100533333D01*
X89645238Y-100628571D01*
X89740476Y-100723809D01*
X89788095Y-100819047D01*
X89502380Y-99628571D02*
X89502380Y-99533333D01*
X89550000Y-99438095D01*
X89597619Y-99390476D01*
X89692857Y-99342857D01*
X89883333Y-99295238D01*
X90121428Y-99295238D01*
X90311904Y-99342857D01*
X90407142Y-99390476D01*
X90454761Y-99438095D01*
X90502380Y-99533333D01*
X90502380Y-99628571D01*
X90454761Y-99723809D01*
X90407142Y-99771428D01*
X90311904Y-99819047D01*
X90121428Y-99866666D01*
X89883333Y-99866666D01*
X89692857Y-99819047D01*
X89597619Y-99771428D01*
X89550000Y-99723809D01*
X89502380Y-99628571D01*
X89502380Y-98676190D02*
X89502380Y-98580952D01*
X89550000Y-98485714D01*
X89597619Y-98438095D01*
X89692857Y-98390476D01*
X89883333Y-98342857D01*
X90121428Y-98342857D01*
X90311904Y-98390476D01*
X90407142Y-98438095D01*
X90454761Y-98485714D01*
X90502380Y-98580952D01*
X90502380Y-98676190D01*
X90454761Y-98771428D01*
X90407142Y-98819047D01*
X90311904Y-98866666D01*
X90121428Y-98914285D01*
X89883333Y-98914285D01*
X89692857Y-98866666D01*
X89597619Y-98819047D01*
X89550000Y-98771428D01*
X89502380Y-98676190D01*
X89835714Y-97914285D02*
X90502380Y-97914285D01*
X89930952Y-97914285D02*
X89883333Y-97866666D01*
X89835714Y-97771428D01*
X89835714Y-97628571D01*
X89883333Y-97533333D01*
X89978571Y-97485714D01*
X90502380Y-97485714D01*
X89978571Y-96676190D02*
X89978571Y-97009523D01*
X90502380Y-97009523D02*
X89502380Y-97009523D01*
X89502380Y-96533333D01*
D13*
X88578571Y-99021428D02*
X88602380Y-99045238D01*
X88626190Y-99116666D01*
X88626190Y-99164285D01*
X88602380Y-99235714D01*
X88554761Y-99283333D01*
X88507142Y-99307142D01*
X88411904Y-99330952D01*
X88340476Y-99330952D01*
X88245238Y-99307142D01*
X88197619Y-99283333D01*
X88150000Y-99235714D01*
X88126190Y-99164285D01*
X88126190Y-99116666D01*
X88150000Y-99045238D01*
X88173809Y-99021428D01*
X88173809Y-98830952D02*
X88150000Y-98807142D01*
X88126190Y-98759523D01*
X88126190Y-98640476D01*
X88150000Y-98592857D01*
X88173809Y-98569047D01*
X88221428Y-98545238D01*
X88269047Y-98545238D01*
X88340476Y-98569047D01*
X88626190Y-98854761D01*
X88626190Y-98545238D01*
X88126190Y-98378571D02*
X88126190Y-98069047D01*
X88316666Y-98235714D01*
X88316666Y-98164285D01*
X88340476Y-98116666D01*
X88364285Y-98092857D01*
X88411904Y-98069047D01*
X88530952Y-98069047D01*
X88578571Y-98092857D01*
X88602380Y-98116666D01*
X88626190Y-98164285D01*
X88626190Y-98307142D01*
X88602380Y-98354761D01*
X88578571Y-98378571D01*
D12*
X82132142Y-106102380D02*
X81655952Y-106102380D01*
X81655952Y-105102380D01*
X82465476Y-105578571D02*
X82798809Y-105578571D01*
X82941666Y-106102380D02*
X82465476Y-106102380D01*
X82465476Y-105102380D01*
X82941666Y-105102380D01*
X83370238Y-106102380D02*
X83370238Y-105102380D01*
X83608333Y-105102380D01*
X83751190Y-105150000D01*
X83846428Y-105245238D01*
X83894047Y-105340476D01*
X83941666Y-105530952D01*
X83941666Y-105673809D01*
X83894047Y-105864285D01*
X83846428Y-105959523D01*
X83751190Y-106054761D01*
X83608333Y-106102380D01*
X83370238Y-106102380D01*
D13*
X82405952Y-104226190D02*
X82405952Y-103726190D01*
X82525000Y-103726190D01*
X82596428Y-103750000D01*
X82644047Y-103797619D01*
X82667857Y-103845238D01*
X82691666Y-103940476D01*
X82691666Y-104011904D01*
X82667857Y-104107142D01*
X82644047Y-104154761D01*
X82596428Y-104202380D01*
X82525000Y-104226190D01*
X82405952Y-104226190D01*
X82858333Y-103726190D02*
X83167857Y-103726190D01*
X83001190Y-103916666D01*
X83072619Y-103916666D01*
X83120238Y-103940476D01*
X83144047Y-103964285D01*
X83167857Y-104011904D01*
X83167857Y-104130952D01*
X83144047Y-104178571D01*
X83120238Y-104202380D01*
X83072619Y-104226190D01*
X82929761Y-104226190D01*
X82882142Y-104202380D01*
X82858333Y-104178571D01*
D12*
X78182142Y-102802380D02*
X77705952Y-102802380D01*
X77705952Y-101802380D01*
X78515476Y-102278571D02*
X78848809Y-102278571D01*
X78991666Y-102802380D02*
X78515476Y-102802380D01*
X78515476Y-101802380D01*
X78991666Y-101802380D01*
X79420238Y-102802380D02*
X79420238Y-101802380D01*
X79658333Y-101802380D01*
X79801190Y-101850000D01*
X79896428Y-101945238D01*
X79944047Y-102040476D01*
X79991666Y-102230952D01*
X79991666Y-102373809D01*
X79944047Y-102564285D01*
X79896428Y-102659523D01*
X79801190Y-102754761D01*
X79658333Y-102802380D01*
X79420238Y-102802380D01*
D13*
X78455952Y-104226190D02*
X78455952Y-103726190D01*
X78575000Y-103726190D01*
X78646428Y-103750000D01*
X78694047Y-103797619D01*
X78717857Y-103845238D01*
X78741666Y-103940476D01*
X78741666Y-104011904D01*
X78717857Y-104107142D01*
X78694047Y-104154761D01*
X78646428Y-104202380D01*
X78575000Y-104226190D01*
X78455952Y-104226190D01*
X78932142Y-103773809D02*
X78955952Y-103750000D01*
X79003571Y-103726190D01*
X79122619Y-103726190D01*
X79170238Y-103750000D01*
X79194047Y-103773809D01*
X79217857Y-103821428D01*
X79217857Y-103869047D01*
X79194047Y-103940476D01*
X78908333Y-104226190D01*
X79217857Y-104226190D01*
D12*
X66927380Y-146704761D02*
X67070238Y-146752380D01*
X67308333Y-146752380D01*
X67403571Y-146704761D01*
X67451190Y-146657142D01*
X67498809Y-146561904D01*
X67498809Y-146466666D01*
X67451190Y-146371428D01*
X67403571Y-146323809D01*
X67308333Y-146276190D01*
X67117857Y-146228571D01*
X67022619Y-146180952D01*
X66975000Y-146133333D01*
X66927380Y-146038095D01*
X66927380Y-145942857D01*
X66975000Y-145847619D01*
X67022619Y-145800000D01*
X67117857Y-145752380D01*
X67355952Y-145752380D01*
X67498809Y-145800000D01*
X67832142Y-145752380D02*
X68070238Y-146752380D01*
X68260714Y-146038095D01*
X68451190Y-146752380D01*
X68689285Y-145752380D01*
X68832142Y-146847619D02*
X69594047Y-146847619D01*
X69832142Y-146752380D02*
X69832142Y-145752380D01*
X70213095Y-145752380D01*
X70308333Y-145800000D01*
X70355952Y-145847619D01*
X70403571Y-145942857D01*
X70403571Y-146085714D01*
X70355952Y-146180952D01*
X70308333Y-146228571D01*
X70213095Y-146276190D01*
X69832142Y-146276190D01*
X71260714Y-146085714D02*
X71260714Y-146752380D01*
X70832142Y-146085714D02*
X70832142Y-146609523D01*
X70879761Y-146704761D01*
X70975000Y-146752380D01*
X71117857Y-146752380D01*
X71213095Y-146704761D01*
X71260714Y-146657142D01*
X71689285Y-146704761D02*
X71784523Y-146752380D01*
X71975000Y-146752380D01*
X72070238Y-146704761D01*
X72117857Y-146609523D01*
X72117857Y-146561904D01*
X72070238Y-146466666D01*
X71975000Y-146419047D01*
X71832142Y-146419047D01*
X71736904Y-146371428D01*
X71689285Y-146276190D01*
X71689285Y-146228571D01*
X71736904Y-146133333D01*
X71832142Y-146085714D01*
X71975000Y-146085714D01*
X72070238Y-146133333D01*
X72546428Y-146752380D02*
X72546428Y-145752380D01*
X72975000Y-146752380D02*
X72975000Y-146228571D01*
X72927380Y-146133333D01*
X72832142Y-146085714D01*
X72689285Y-146085714D01*
X72594047Y-146133333D01*
X72546428Y-146180952D01*
X68641666Y-138504761D02*
X68784523Y-138552380D01*
X69022619Y-138552380D01*
X69117857Y-138504761D01*
X69165476Y-138457142D01*
X69213095Y-138361904D01*
X69213095Y-138266666D01*
X69165476Y-138171428D01*
X69117857Y-138123809D01*
X69022619Y-138076190D01*
X68832142Y-138028571D01*
X68736904Y-137980952D01*
X68689285Y-137933333D01*
X68641666Y-137838095D01*
X68641666Y-137742857D01*
X68689285Y-137647619D01*
X68736904Y-137600000D01*
X68832142Y-137552380D01*
X69070238Y-137552380D01*
X69213095Y-137600000D01*
X69546428Y-137552380D02*
X69784523Y-138552380D01*
X69975000Y-137838095D01*
X70165476Y-138552380D01*
X70403571Y-137552380D01*
X70689285Y-137552380D02*
X71308333Y-137552380D01*
X70975000Y-137933333D01*
X71117857Y-137933333D01*
X71213095Y-137980952D01*
X71260714Y-138028571D01*
X71308333Y-138123809D01*
X71308333Y-138361904D01*
X71260714Y-138457142D01*
X71213095Y-138504761D01*
X71117857Y-138552380D01*
X70832142Y-138552380D01*
X70736904Y-138504761D01*
X70689285Y-138457142D01*
X76102380Y-136694047D02*
X76102380Y-137265476D01*
X76102380Y-136979761D02*
X75102380Y-136979761D01*
X75245238Y-137075000D01*
X75340476Y-137170238D01*
X75388095Y-137265476D01*
X76102380Y-136265476D02*
X75102380Y-136265476D01*
X75721428Y-136170238D02*
X76102380Y-135884523D01*
X75435714Y-135884523D02*
X75816666Y-136265476D01*
D13*
X74226190Y-136658333D02*
X73988095Y-136825000D01*
X74226190Y-136944047D02*
X73726190Y-136944047D01*
X73726190Y-136753571D01*
X73750000Y-136705952D01*
X73773809Y-136682142D01*
X73821428Y-136658333D01*
X73892857Y-136658333D01*
X73940476Y-136682142D01*
X73964285Y-136705952D01*
X73988095Y-136753571D01*
X73988095Y-136944047D01*
X73726190Y-136491666D02*
X73726190Y-136182142D01*
X73916666Y-136348809D01*
X73916666Y-136277380D01*
X73940476Y-136229761D01*
X73964285Y-136205952D01*
X74011904Y-136182142D01*
X74130952Y-136182142D01*
X74178571Y-136205952D01*
X74202380Y-136229761D01*
X74226190Y-136277380D01*
X74226190Y-136420238D01*
X74202380Y-136467857D01*
X74178571Y-136491666D01*
D12*
X70357142Y-139602380D02*
X69785714Y-139602380D01*
X70071428Y-139602380D02*
X70071428Y-138602380D01*
X69976190Y-138745238D01*
X69880952Y-138840476D01*
X69785714Y-138888095D01*
X70976190Y-138602380D02*
X71071428Y-138602380D01*
X71166666Y-138650000D01*
X71214285Y-138697619D01*
X71261904Y-138792857D01*
X71309523Y-138983333D01*
X71309523Y-139221428D01*
X71261904Y-139411904D01*
X71214285Y-139507142D01*
X71166666Y-139554761D01*
X71071428Y-139602380D01*
X70976190Y-139602380D01*
X70880952Y-139554761D01*
X70833333Y-139507142D01*
X70785714Y-139411904D01*
X70738095Y-139221428D01*
X70738095Y-138983333D01*
X70785714Y-138792857D01*
X70833333Y-138697619D01*
X70880952Y-138650000D01*
X70976190Y-138602380D01*
X72166666Y-138935714D02*
X72166666Y-139602380D01*
X71738095Y-138935714D02*
X71738095Y-139459523D01*
X71785714Y-139554761D01*
X71880952Y-139602380D01*
X72023809Y-139602380D01*
X72119047Y-139554761D01*
X72166666Y-139507142D01*
D13*
X70678571Y-137678571D02*
X70654761Y-137702380D01*
X70583333Y-137726190D01*
X70535714Y-137726190D01*
X70464285Y-137702380D01*
X70416666Y-137654761D01*
X70392857Y-137607142D01*
X70369047Y-137511904D01*
X70369047Y-137440476D01*
X70392857Y-137345238D01*
X70416666Y-137297619D01*
X70464285Y-137250000D01*
X70535714Y-137226190D01*
X70583333Y-137226190D01*
X70654761Y-137250000D01*
X70678571Y-137273809D01*
X70869047Y-137273809D02*
X70892857Y-137250000D01*
X70940476Y-137226190D01*
X71059523Y-137226190D01*
X71107142Y-137250000D01*
X71130952Y-137273809D01*
X71154761Y-137321428D01*
X71154761Y-137369047D01*
X71130952Y-137440476D01*
X70845238Y-137726190D01*
X71154761Y-137726190D01*
X71345238Y-137273809D02*
X71369047Y-137250000D01*
X71416666Y-137226190D01*
X71535714Y-137226190D01*
X71583333Y-137250000D01*
X71607142Y-137273809D01*
X71630952Y-137321428D01*
X71630952Y-137369047D01*
X71607142Y-137440476D01*
X71321428Y-137726190D01*
X71630952Y-137726190D01*
D12*
X98802380Y-100019047D02*
X98802380Y-100590476D01*
X98802380Y-100304761D02*
X97802380Y-100304761D01*
X97945238Y-100400000D01*
X98040476Y-100495238D01*
X98088095Y-100590476D01*
X97802380Y-99400000D02*
X97802380Y-99304761D01*
X97850000Y-99209523D01*
X97897619Y-99161904D01*
X97992857Y-99114285D01*
X98183333Y-99066666D01*
X98421428Y-99066666D01*
X98611904Y-99114285D01*
X98707142Y-99161904D01*
X98754761Y-99209523D01*
X98802380Y-99304761D01*
X98802380Y-99400000D01*
X98754761Y-99495238D01*
X98707142Y-99542857D01*
X98611904Y-99590476D01*
X98421428Y-99638095D01*
X98183333Y-99638095D01*
X97992857Y-99590476D01*
X97897619Y-99542857D01*
X97850000Y-99495238D01*
X97802380Y-99400000D01*
X97802380Y-98447619D02*
X97802380Y-98352380D01*
X97850000Y-98257142D01*
X97897619Y-98209523D01*
X97992857Y-98161904D01*
X98183333Y-98114285D01*
X98421428Y-98114285D01*
X98611904Y-98161904D01*
X98707142Y-98209523D01*
X98754761Y-98257142D01*
X98802380Y-98352380D01*
X98802380Y-98447619D01*
X98754761Y-98542857D01*
X98707142Y-98590476D01*
X98611904Y-98638095D01*
X98421428Y-98685714D01*
X98183333Y-98685714D01*
X97992857Y-98638095D01*
X97897619Y-98590476D01*
X97850000Y-98542857D01*
X97802380Y-98447619D01*
X98135714Y-97685714D02*
X98802380Y-97685714D01*
X98230952Y-97685714D02*
X98183333Y-97638095D01*
X98135714Y-97542857D01*
X98135714Y-97400000D01*
X98183333Y-97304761D01*
X98278571Y-97257142D01*
X98802380Y-97257142D01*
D13*
X100178571Y-99221428D02*
X100202380Y-99245238D01*
X100226190Y-99316666D01*
X100226190Y-99364285D01*
X100202380Y-99435714D01*
X100154761Y-99483333D01*
X100107142Y-99507142D01*
X100011904Y-99530952D01*
X99940476Y-99530952D01*
X99845238Y-99507142D01*
X99797619Y-99483333D01*
X99750000Y-99435714D01*
X99726190Y-99364285D01*
X99726190Y-99316666D01*
X99750000Y-99245238D01*
X99773809Y-99221428D01*
X100226190Y-98745238D02*
X100226190Y-99030952D01*
X100226190Y-98888095D02*
X99726190Y-98888095D01*
X99797619Y-98935714D01*
X99845238Y-98983333D01*
X99869047Y-99030952D01*
X99726190Y-98578571D02*
X99726190Y-98269047D01*
X99916666Y-98435714D01*
X99916666Y-98364285D01*
X99940476Y-98316666D01*
X99964285Y-98292857D01*
X100011904Y-98269047D01*
X100130952Y-98269047D01*
X100178571Y-98292857D01*
X100202380Y-98316666D01*
X100226190Y-98364285D01*
X100226190Y-98507142D01*
X100202380Y-98554761D01*
X100178571Y-98578571D01*
D12*
X154202380Y-131094047D02*
X154202380Y-131665476D01*
X154202380Y-131379761D02*
X153202380Y-131379761D01*
X153345238Y-131475000D01*
X153440476Y-131570238D01*
X153488095Y-131665476D01*
X153202380Y-130475000D02*
X153202380Y-130379761D01*
X153250000Y-130284523D01*
X153297619Y-130236904D01*
X153392857Y-130189285D01*
X153583333Y-130141666D01*
X153821428Y-130141666D01*
X154011904Y-130189285D01*
X154107142Y-130236904D01*
X154154761Y-130284523D01*
X154202380Y-130379761D01*
X154202380Y-130475000D01*
X154154761Y-130570238D01*
X154107142Y-130617857D01*
X154011904Y-130665476D01*
X153821428Y-130713095D01*
X153583333Y-130713095D01*
X153392857Y-130665476D01*
X153297619Y-130617857D01*
X153250000Y-130570238D01*
X153202380Y-130475000D01*
X153202380Y-129522619D02*
X153202380Y-129427380D01*
X153250000Y-129332142D01*
X153297619Y-129284523D01*
X153392857Y-129236904D01*
X153583333Y-129189285D01*
X153821428Y-129189285D01*
X154011904Y-129236904D01*
X154107142Y-129284523D01*
X154154761Y-129332142D01*
X154202380Y-129427380D01*
X154202380Y-129522619D01*
X154154761Y-129617857D01*
X154107142Y-129665476D01*
X154011904Y-129713095D01*
X153821428Y-129760714D01*
X153583333Y-129760714D01*
X153392857Y-129713095D01*
X153297619Y-129665476D01*
X153250000Y-129617857D01*
X153202380Y-129522619D01*
X153535714Y-128760714D02*
X154202380Y-128760714D01*
X153630952Y-128760714D02*
X153583333Y-128713095D01*
X153535714Y-128617857D01*
X153535714Y-128475000D01*
X153583333Y-128379761D01*
X153678571Y-128332142D01*
X154202380Y-128332142D01*
D13*
X152278571Y-130296428D02*
X152302380Y-130320238D01*
X152326190Y-130391666D01*
X152326190Y-130439285D01*
X152302380Y-130510714D01*
X152254761Y-130558333D01*
X152207142Y-130582142D01*
X152111904Y-130605952D01*
X152040476Y-130605952D01*
X151945238Y-130582142D01*
X151897619Y-130558333D01*
X151850000Y-130510714D01*
X151826190Y-130439285D01*
X151826190Y-130391666D01*
X151850000Y-130320238D01*
X151873809Y-130296428D01*
X152326190Y-129820238D02*
X152326190Y-130105952D01*
X152326190Y-129963095D02*
X151826190Y-129963095D01*
X151897619Y-130010714D01*
X151945238Y-130058333D01*
X151969047Y-130105952D01*
X151992857Y-129391666D02*
X152326190Y-129391666D01*
X151802380Y-129510714D02*
X152159523Y-129629761D01*
X152159523Y-129320238D01*
D12*
X110402380Y-104119047D02*
X110402380Y-104690476D01*
X110402380Y-104404761D02*
X109402380Y-104404761D01*
X109545238Y-104500000D01*
X109640476Y-104595238D01*
X109688095Y-104690476D01*
X109402380Y-103500000D02*
X109402380Y-103404761D01*
X109450000Y-103309523D01*
X109497619Y-103261904D01*
X109592857Y-103214285D01*
X109783333Y-103166666D01*
X110021428Y-103166666D01*
X110211904Y-103214285D01*
X110307142Y-103261904D01*
X110354761Y-103309523D01*
X110402380Y-103404761D01*
X110402380Y-103500000D01*
X110354761Y-103595238D01*
X110307142Y-103642857D01*
X110211904Y-103690476D01*
X110021428Y-103738095D01*
X109783333Y-103738095D01*
X109592857Y-103690476D01*
X109497619Y-103642857D01*
X109450000Y-103595238D01*
X109402380Y-103500000D01*
X109402380Y-102547619D02*
X109402380Y-102452380D01*
X109450000Y-102357142D01*
X109497619Y-102309523D01*
X109592857Y-102261904D01*
X109783333Y-102214285D01*
X110021428Y-102214285D01*
X110211904Y-102261904D01*
X110307142Y-102309523D01*
X110354761Y-102357142D01*
X110402380Y-102452380D01*
X110402380Y-102547619D01*
X110354761Y-102642857D01*
X110307142Y-102690476D01*
X110211904Y-102738095D01*
X110021428Y-102785714D01*
X109783333Y-102785714D01*
X109592857Y-102738095D01*
X109497619Y-102690476D01*
X109450000Y-102642857D01*
X109402380Y-102547619D01*
X109735714Y-101785714D02*
X110402380Y-101785714D01*
X109830952Y-101785714D02*
X109783333Y-101738095D01*
X109735714Y-101642857D01*
X109735714Y-101500000D01*
X109783333Y-101404761D01*
X109878571Y-101357142D01*
X110402380Y-101357142D01*
D13*
X111778571Y-103321428D02*
X111802380Y-103345238D01*
X111826190Y-103416666D01*
X111826190Y-103464285D01*
X111802380Y-103535714D01*
X111754761Y-103583333D01*
X111707142Y-103607142D01*
X111611904Y-103630952D01*
X111540476Y-103630952D01*
X111445238Y-103607142D01*
X111397619Y-103583333D01*
X111350000Y-103535714D01*
X111326190Y-103464285D01*
X111326190Y-103416666D01*
X111350000Y-103345238D01*
X111373809Y-103321428D01*
X111826190Y-102845238D02*
X111826190Y-103130952D01*
X111826190Y-102988095D02*
X111326190Y-102988095D01*
X111397619Y-103035714D01*
X111445238Y-103083333D01*
X111469047Y-103130952D01*
X111326190Y-102392857D02*
X111326190Y-102630952D01*
X111564285Y-102654761D01*
X111540476Y-102630952D01*
X111516666Y-102583333D01*
X111516666Y-102464285D01*
X111540476Y-102416666D01*
X111564285Y-102392857D01*
X111611904Y-102369047D01*
X111730952Y-102369047D01*
X111778571Y-102392857D01*
X111802380Y-102416666D01*
X111826190Y-102464285D01*
X111826190Y-102583333D01*
X111802380Y-102630952D01*
X111778571Y-102654761D01*
D12*
X80782142Y-136102380D02*
X80210714Y-136102380D01*
X80496428Y-136102380D02*
X80496428Y-135102380D01*
X80401190Y-135245238D01*
X80305952Y-135340476D01*
X80210714Y-135388095D01*
X81401190Y-135102380D02*
X81496428Y-135102380D01*
X81591666Y-135150000D01*
X81639285Y-135197619D01*
X81686904Y-135292857D01*
X81734523Y-135483333D01*
X81734523Y-135721428D01*
X81686904Y-135911904D01*
X81639285Y-136007142D01*
X81591666Y-136054761D01*
X81496428Y-136102380D01*
X81401190Y-136102380D01*
X81305952Y-136054761D01*
X81258333Y-136007142D01*
X81210714Y-135911904D01*
X81163095Y-135721428D01*
X81163095Y-135483333D01*
X81210714Y-135292857D01*
X81258333Y-135197619D01*
X81305952Y-135150000D01*
X81401190Y-135102380D01*
X82591666Y-135435714D02*
X82591666Y-136102380D01*
X82163095Y-135435714D02*
X82163095Y-135959523D01*
X82210714Y-136054761D01*
X82305952Y-136102380D01*
X82448809Y-136102380D01*
X82544047Y-136054761D01*
X82591666Y-136007142D01*
D13*
X81103571Y-137478571D02*
X81079761Y-137502380D01*
X81008333Y-137526190D01*
X80960714Y-137526190D01*
X80889285Y-137502380D01*
X80841666Y-137454761D01*
X80817857Y-137407142D01*
X80794047Y-137311904D01*
X80794047Y-137240476D01*
X80817857Y-137145238D01*
X80841666Y-137097619D01*
X80889285Y-137050000D01*
X80960714Y-137026190D01*
X81008333Y-137026190D01*
X81079761Y-137050000D01*
X81103571Y-137073809D01*
X81579761Y-137526190D02*
X81294047Y-137526190D01*
X81436904Y-137526190D02*
X81436904Y-137026190D01*
X81389285Y-137097619D01*
X81341666Y-137145238D01*
X81294047Y-137169047D01*
X82008333Y-137026190D02*
X81913095Y-137026190D01*
X81865476Y-137050000D01*
X81841666Y-137073809D01*
X81794047Y-137145238D01*
X81770238Y-137240476D01*
X81770238Y-137430952D01*
X81794047Y-137478571D01*
X81817857Y-137502380D01*
X81865476Y-137526190D01*
X81960714Y-137526190D01*
X82008333Y-137502380D01*
X82032142Y-137478571D01*
X82055952Y-137430952D01*
X82055952Y-137311904D01*
X82032142Y-137264285D01*
X82008333Y-137240476D01*
X81960714Y-137216666D01*
X81865476Y-137216666D01*
X81817857Y-137240476D01*
X81794047Y-137264285D01*
X81770238Y-137311904D01*
D12*
X62202380Y-125042857D02*
X62202380Y-125614285D01*
X62202380Y-125328571D02*
X61202380Y-125328571D01*
X61345238Y-125423809D01*
X61440476Y-125519047D01*
X61488095Y-125614285D01*
X61202380Y-124423809D02*
X61202380Y-124328571D01*
X61250000Y-124233333D01*
X61297619Y-124185714D01*
X61392857Y-124138095D01*
X61583333Y-124090476D01*
X61821428Y-124090476D01*
X62011904Y-124138095D01*
X62107142Y-124185714D01*
X62154761Y-124233333D01*
X62202380Y-124328571D01*
X62202380Y-124423809D01*
X62154761Y-124519047D01*
X62107142Y-124566666D01*
X62011904Y-124614285D01*
X61821428Y-124661904D01*
X61583333Y-124661904D01*
X61392857Y-124614285D01*
X61297619Y-124566666D01*
X61250000Y-124519047D01*
X61202380Y-124423809D01*
X61535714Y-123233333D02*
X62202380Y-123233333D01*
X61535714Y-123661904D02*
X62059523Y-123661904D01*
X62154761Y-123614285D01*
X62202380Y-123519047D01*
X62202380Y-123376190D01*
X62154761Y-123280952D01*
X62107142Y-123233333D01*
D13*
X63578571Y-124721428D02*
X63602380Y-124745238D01*
X63626190Y-124816666D01*
X63626190Y-124864285D01*
X63602380Y-124935714D01*
X63554761Y-124983333D01*
X63507142Y-125007142D01*
X63411904Y-125030952D01*
X63340476Y-125030952D01*
X63245238Y-125007142D01*
X63197619Y-124983333D01*
X63150000Y-124935714D01*
X63126190Y-124864285D01*
X63126190Y-124816666D01*
X63150000Y-124745238D01*
X63173809Y-124721428D01*
X63626190Y-124245238D02*
X63626190Y-124530952D01*
X63626190Y-124388095D02*
X63126190Y-124388095D01*
X63197619Y-124435714D01*
X63245238Y-124483333D01*
X63269047Y-124530952D01*
X63126190Y-124078571D02*
X63126190Y-123745238D01*
X63626190Y-123959523D01*
D12*
X92605952Y-137702380D02*
X92034523Y-137702380D01*
X92320238Y-137702380D02*
X92320238Y-136702380D01*
X92225000Y-136845238D01*
X92129761Y-136940476D01*
X92034523Y-136988095D01*
X93225000Y-136702380D02*
X93320238Y-136702380D01*
X93415476Y-136750000D01*
X93463095Y-136797619D01*
X93510714Y-136892857D01*
X93558333Y-137083333D01*
X93558333Y-137321428D01*
X93510714Y-137511904D01*
X93463095Y-137607142D01*
X93415476Y-137654761D01*
X93320238Y-137702380D01*
X93225000Y-137702380D01*
X93129761Y-137654761D01*
X93082142Y-137607142D01*
X93034523Y-137511904D01*
X92986904Y-137321428D01*
X92986904Y-137083333D01*
X93034523Y-136892857D01*
X93082142Y-136797619D01*
X93129761Y-136750000D01*
X93225000Y-136702380D01*
X94177380Y-136702380D02*
X94272619Y-136702380D01*
X94367857Y-136750000D01*
X94415476Y-136797619D01*
X94463095Y-136892857D01*
X94510714Y-137083333D01*
X94510714Y-137321428D01*
X94463095Y-137511904D01*
X94415476Y-137607142D01*
X94367857Y-137654761D01*
X94272619Y-137702380D01*
X94177380Y-137702380D01*
X94082142Y-137654761D01*
X94034523Y-137607142D01*
X93986904Y-137511904D01*
X93939285Y-137321428D01*
X93939285Y-137083333D01*
X93986904Y-136892857D01*
X94034523Y-136797619D01*
X94082142Y-136750000D01*
X94177380Y-136702380D01*
X94939285Y-137035714D02*
X94939285Y-137702380D01*
X94939285Y-137130952D02*
X94986904Y-137083333D01*
X95082142Y-137035714D01*
X95225000Y-137035714D01*
X95320238Y-137083333D01*
X95367857Y-137178571D01*
X95367857Y-137702380D01*
D13*
X93403571Y-135778571D02*
X93379761Y-135802380D01*
X93308333Y-135826190D01*
X93260714Y-135826190D01*
X93189285Y-135802380D01*
X93141666Y-135754761D01*
X93117857Y-135707142D01*
X93094047Y-135611904D01*
X93094047Y-135540476D01*
X93117857Y-135445238D01*
X93141666Y-135397619D01*
X93189285Y-135350000D01*
X93260714Y-135326190D01*
X93308333Y-135326190D01*
X93379761Y-135350000D01*
X93403571Y-135373809D01*
X93879761Y-135826190D02*
X93594047Y-135826190D01*
X93736904Y-135826190D02*
X93736904Y-135326190D01*
X93689285Y-135397619D01*
X93641666Y-135445238D01*
X93594047Y-135469047D01*
X94165476Y-135540476D02*
X94117857Y-135516666D01*
X94094047Y-135492857D01*
X94070238Y-135445238D01*
X94070238Y-135421428D01*
X94094047Y-135373809D01*
X94117857Y-135350000D01*
X94165476Y-135326190D01*
X94260714Y-135326190D01*
X94308333Y-135350000D01*
X94332142Y-135373809D01*
X94355952Y-135421428D01*
X94355952Y-135445238D01*
X94332142Y-135492857D01*
X94308333Y-135516666D01*
X94260714Y-135540476D01*
X94165476Y-135540476D01*
X94117857Y-135564285D01*
X94094047Y-135588095D01*
X94070238Y-135635714D01*
X94070238Y-135730952D01*
X94094047Y-135778571D01*
X94117857Y-135802380D01*
X94165476Y-135826190D01*
X94260714Y-135826190D01*
X94308333Y-135802380D01*
X94332142Y-135778571D01*
X94355952Y-135730952D01*
X94355952Y-135635714D01*
X94332142Y-135588095D01*
X94308333Y-135564285D01*
X94260714Y-135540476D01*
D12*
X92702380Y-137794047D02*
X92702380Y-138365476D01*
X92702380Y-138079761D02*
X91702380Y-138079761D01*
X91845238Y-138175000D01*
X91940476Y-138270238D01*
X91988095Y-138365476D01*
X91702380Y-137175000D02*
X91702380Y-137079761D01*
X91750000Y-136984523D01*
X91797619Y-136936904D01*
X91892857Y-136889285D01*
X92083333Y-136841666D01*
X92321428Y-136841666D01*
X92511904Y-136889285D01*
X92607142Y-136936904D01*
X92654761Y-136984523D01*
X92702380Y-137079761D01*
X92702380Y-137175000D01*
X92654761Y-137270238D01*
X92607142Y-137317857D01*
X92511904Y-137365476D01*
X92321428Y-137413095D01*
X92083333Y-137413095D01*
X91892857Y-137365476D01*
X91797619Y-137317857D01*
X91750000Y-137270238D01*
X91702380Y-137175000D01*
X91702380Y-136222619D02*
X91702380Y-136127380D01*
X91750000Y-136032142D01*
X91797619Y-135984523D01*
X91892857Y-135936904D01*
X92083333Y-135889285D01*
X92321428Y-135889285D01*
X92511904Y-135936904D01*
X92607142Y-135984523D01*
X92654761Y-136032142D01*
X92702380Y-136127380D01*
X92702380Y-136222619D01*
X92654761Y-136317857D01*
X92607142Y-136365476D01*
X92511904Y-136413095D01*
X92321428Y-136460714D01*
X92083333Y-136460714D01*
X91892857Y-136413095D01*
X91797619Y-136365476D01*
X91750000Y-136317857D01*
X91702380Y-136222619D01*
X92035714Y-135460714D02*
X93035714Y-135460714D01*
X92083333Y-135460714D02*
X92035714Y-135365476D01*
X92035714Y-135175000D01*
X92083333Y-135079761D01*
X92130952Y-135032142D01*
X92226190Y-134984523D01*
X92511904Y-134984523D01*
X92607142Y-135032142D01*
X92654761Y-135079761D01*
X92702380Y-135175000D01*
X92702380Y-135365476D01*
X92654761Y-135460714D01*
D13*
X90778571Y-136996428D02*
X90802380Y-137020238D01*
X90826190Y-137091666D01*
X90826190Y-137139285D01*
X90802380Y-137210714D01*
X90754761Y-137258333D01*
X90707142Y-137282142D01*
X90611904Y-137305952D01*
X90540476Y-137305952D01*
X90445238Y-137282142D01*
X90397619Y-137258333D01*
X90350000Y-137210714D01*
X90326190Y-137139285D01*
X90326190Y-137091666D01*
X90350000Y-137020238D01*
X90373809Y-136996428D01*
X90826190Y-136520238D02*
X90826190Y-136805952D01*
X90826190Y-136663095D02*
X90326190Y-136663095D01*
X90397619Y-136710714D01*
X90445238Y-136758333D01*
X90469047Y-136805952D01*
X90826190Y-136282142D02*
X90826190Y-136186904D01*
X90802380Y-136139285D01*
X90778571Y-136115476D01*
X90707142Y-136067857D01*
X90611904Y-136044047D01*
X90421428Y-136044047D01*
X90373809Y-136067857D01*
X90350000Y-136091666D01*
X90326190Y-136139285D01*
X90326190Y-136234523D01*
X90350000Y-136282142D01*
X90373809Y-136305952D01*
X90421428Y-136329761D01*
X90540476Y-136329761D01*
X90588095Y-136305952D01*
X90611904Y-136282142D01*
X90635714Y-136234523D01*
X90635714Y-136139285D01*
X90611904Y-136091666D01*
X90588095Y-136067857D01*
X90540476Y-136044047D01*
D12*
X92555952Y-136502380D02*
X91984523Y-136502380D01*
X92270238Y-136502380D02*
X92270238Y-135502380D01*
X92175000Y-135645238D01*
X92079761Y-135740476D01*
X91984523Y-135788095D01*
X93175000Y-135502380D02*
X93270238Y-135502380D01*
X93365476Y-135550000D01*
X93413095Y-135597619D01*
X93460714Y-135692857D01*
X93508333Y-135883333D01*
X93508333Y-136121428D01*
X93460714Y-136311904D01*
X93413095Y-136407142D01*
X93365476Y-136454761D01*
X93270238Y-136502380D01*
X93175000Y-136502380D01*
X93079761Y-136454761D01*
X93032142Y-136407142D01*
X92984523Y-136311904D01*
X92936904Y-136121428D01*
X92936904Y-135883333D01*
X92984523Y-135692857D01*
X93032142Y-135597619D01*
X93079761Y-135550000D01*
X93175000Y-135502380D01*
X94127380Y-135502380D02*
X94222619Y-135502380D01*
X94317857Y-135550000D01*
X94365476Y-135597619D01*
X94413095Y-135692857D01*
X94460714Y-135883333D01*
X94460714Y-136121428D01*
X94413095Y-136311904D01*
X94365476Y-136407142D01*
X94317857Y-136454761D01*
X94222619Y-136502380D01*
X94127380Y-136502380D01*
X94032142Y-136454761D01*
X93984523Y-136407142D01*
X93936904Y-136311904D01*
X93889285Y-136121428D01*
X93889285Y-135883333D01*
X93936904Y-135692857D01*
X93984523Y-135597619D01*
X94032142Y-135550000D01*
X94127380Y-135502380D01*
X94889285Y-135835714D02*
X94889285Y-136502380D01*
X94889285Y-135930952D02*
X94936904Y-135883333D01*
X95032142Y-135835714D01*
X95175000Y-135835714D01*
X95270238Y-135883333D01*
X95317857Y-135978571D01*
X95317857Y-136502380D01*
D13*
X93353571Y-137878571D02*
X93329761Y-137902380D01*
X93258333Y-137926190D01*
X93210714Y-137926190D01*
X93139285Y-137902380D01*
X93091666Y-137854761D01*
X93067857Y-137807142D01*
X93044047Y-137711904D01*
X93044047Y-137640476D01*
X93067857Y-137545238D01*
X93091666Y-137497619D01*
X93139285Y-137450000D01*
X93210714Y-137426190D01*
X93258333Y-137426190D01*
X93329761Y-137450000D01*
X93353571Y-137473809D01*
X93544047Y-137473809D02*
X93567857Y-137450000D01*
X93615476Y-137426190D01*
X93734523Y-137426190D01*
X93782142Y-137450000D01*
X93805952Y-137473809D01*
X93829761Y-137521428D01*
X93829761Y-137569047D01*
X93805952Y-137640476D01*
X93520238Y-137926190D01*
X93829761Y-137926190D01*
X94139285Y-137426190D02*
X94186904Y-137426190D01*
X94234523Y-137450000D01*
X94258333Y-137473809D01*
X94282142Y-137521428D01*
X94305952Y-137616666D01*
X94305952Y-137735714D01*
X94282142Y-137830952D01*
X94258333Y-137878571D01*
X94234523Y-137902380D01*
X94186904Y-137926190D01*
X94139285Y-137926190D01*
X94091666Y-137902380D01*
X94067857Y-137878571D01*
X94044047Y-137830952D01*
X94020238Y-137735714D01*
X94020238Y-137616666D01*
X94044047Y-137521428D01*
X94067857Y-137473809D01*
X94091666Y-137450000D01*
X94139285Y-137426190D01*
D12*
X128784523Y-107407142D02*
X128736904Y-107454761D01*
X128594047Y-107502380D01*
X128498809Y-107502380D01*
X128355952Y-107454761D01*
X128260714Y-107359523D01*
X128213095Y-107264285D01*
X128165476Y-107073809D01*
X128165476Y-106930952D01*
X128213095Y-106740476D01*
X128260714Y-106645238D01*
X128355952Y-106550000D01*
X128498809Y-106502380D01*
X128594047Y-106502380D01*
X128736904Y-106550000D01*
X128784523Y-106597619D01*
D13*
X128153571Y-105578571D02*
X128129761Y-105602380D01*
X128058333Y-105626190D01*
X128010714Y-105626190D01*
X127939285Y-105602380D01*
X127891666Y-105554761D01*
X127867857Y-105507142D01*
X127844047Y-105411904D01*
X127844047Y-105340476D01*
X127867857Y-105245238D01*
X127891666Y-105197619D01*
X127939285Y-105150000D01*
X128010714Y-105126190D01*
X128058333Y-105126190D01*
X128129761Y-105150000D01*
X128153571Y-105173809D01*
X128344047Y-105173809D02*
X128367857Y-105150000D01*
X128415476Y-105126190D01*
X128534523Y-105126190D01*
X128582142Y-105150000D01*
X128605952Y-105173809D01*
X128629761Y-105221428D01*
X128629761Y-105269047D01*
X128605952Y-105340476D01*
X128320238Y-105626190D01*
X128629761Y-105626190D01*
X129105952Y-105626190D02*
X128820238Y-105626190D01*
X128963095Y-105626190D02*
X128963095Y-105126190D01*
X128915476Y-105197619D01*
X128867857Y-105245238D01*
X128820238Y-105269047D01*
D12*
X113695238Y-96228571D02*
X113838095Y-96276190D01*
X113885714Y-96323809D01*
X113933333Y-96419047D01*
X113933333Y-96561904D01*
X113885714Y-96657142D01*
X113838095Y-96704761D01*
X113742857Y-96752380D01*
X113361904Y-96752380D01*
X113361904Y-95752380D01*
X113695238Y-95752380D01*
X113790476Y-95800000D01*
X113838095Y-95847619D01*
X113885714Y-95942857D01*
X113885714Y-96038095D01*
X113838095Y-96133333D01*
X113790476Y-96180952D01*
X113695238Y-96228571D01*
X113361904Y-96228571D01*
X114885714Y-96752380D02*
X114314285Y-96752380D01*
X114600000Y-96752380D02*
X114600000Y-95752380D01*
X114504761Y-95895238D01*
X114409523Y-95990476D01*
X114314285Y-96038095D01*
X115742857Y-96085714D02*
X115742857Y-96752380D01*
X115504761Y-95704761D02*
X115266666Y-96419047D01*
X115885714Y-96419047D01*
X116457142Y-95752380D02*
X116552380Y-95752380D01*
X116647619Y-95800000D01*
X116695238Y-95847619D01*
X116742857Y-95942857D01*
X116790476Y-96133333D01*
X116790476Y-96371428D01*
X116742857Y-96561904D01*
X116695238Y-96657142D01*
X116647619Y-96704761D01*
X116552380Y-96752380D01*
X116457142Y-96752380D01*
X116361904Y-96704761D01*
X116314285Y-96657142D01*
X116266666Y-96561904D01*
X116219047Y-96371428D01*
X116219047Y-96133333D01*
X116266666Y-95942857D01*
X116314285Y-95847619D01*
X116361904Y-95800000D01*
X116457142Y-95752380D01*
X117219047Y-96371428D02*
X117980952Y-96371428D01*
X118457142Y-96228571D02*
X118790476Y-96228571D01*
X118933333Y-96752380D02*
X118457142Y-96752380D01*
X118457142Y-95752380D01*
X118933333Y-95752380D01*
X119266666Y-95752380D02*
X119885714Y-95752380D01*
X119552380Y-96133333D01*
X119695238Y-96133333D01*
X119790476Y-96180952D01*
X119838095Y-96228571D01*
X119885714Y-96323809D01*
X119885714Y-96561904D01*
X119838095Y-96657142D01*
X119790476Y-96704761D01*
X119695238Y-96752380D01*
X119409523Y-96752380D01*
X119314285Y-96704761D01*
X119266666Y-96657142D01*
X115861904Y-101852380D02*
X115861904Y-100852380D01*
X116100000Y-100852380D01*
X116242857Y-100900000D01*
X116338095Y-100995238D01*
X116385714Y-101090476D01*
X116433333Y-101280952D01*
X116433333Y-101423809D01*
X116385714Y-101614285D01*
X116338095Y-101709523D01*
X116242857Y-101804761D01*
X116100000Y-101852380D01*
X115861904Y-101852380D01*
X117385714Y-101852380D02*
X116814285Y-101852380D01*
X117100000Y-101852380D02*
X117100000Y-100852380D01*
X117004761Y-100995238D01*
X116909523Y-101090476D01*
X116814285Y-101138095D01*
X109237142Y-105963333D02*
X109284761Y-106010952D01*
X109332380Y-106153809D01*
X109332380Y-106249047D01*
X109284761Y-106391904D01*
X109189523Y-106487142D01*
X109094285Y-106534761D01*
X108903809Y-106582380D01*
X108760952Y-106582380D01*
X108570476Y-106534761D01*
X108475238Y-106487142D01*
X108380000Y-106391904D01*
X108332380Y-106249047D01*
X108332380Y-106153809D01*
X108380000Y-106010952D01*
X108427619Y-105963333D01*
X109332380Y-105391904D02*
X109284761Y-105487142D01*
X109237142Y-105534761D01*
X109141904Y-105582380D01*
X108856190Y-105582380D01*
X108760952Y-105534761D01*
X108713333Y-105487142D01*
X108665714Y-105391904D01*
X108665714Y-105249047D01*
X108713333Y-105153809D01*
X108760952Y-105106190D01*
X108856190Y-105058571D01*
X109141904Y-105058571D01*
X109237142Y-105106190D01*
X109284761Y-105153809D01*
X109332380Y-105249047D01*
X109332380Y-105391904D01*
X108665714Y-104630000D02*
X109332380Y-104630000D01*
X108760952Y-104630000D02*
X108713333Y-104582380D01*
X108665714Y-104487142D01*
X108665714Y-104344285D01*
X108713333Y-104249047D01*
X108808571Y-104201428D01*
X109332380Y-104201428D01*
X108665714Y-103725238D02*
X109332380Y-103725238D01*
X108760952Y-103725238D02*
X108713333Y-103677619D01*
X108665714Y-103582380D01*
X108665714Y-103439523D01*
X108713333Y-103344285D01*
X108808571Y-103296666D01*
X109332380Y-103296666D01*
X109427619Y-103058571D02*
X109427619Y-102296666D01*
X108332380Y-101868095D02*
X108332380Y-101772857D01*
X108380000Y-101677619D01*
X108427619Y-101630000D01*
X108522857Y-101582380D01*
X108713333Y-101534761D01*
X108951428Y-101534761D01*
X109141904Y-101582380D01*
X109237142Y-101630000D01*
X109284761Y-101677619D01*
X109332380Y-101772857D01*
X109332380Y-101868095D01*
X109284761Y-101963333D01*
X109237142Y-102010952D01*
X109141904Y-102058571D01*
X108951428Y-102106190D01*
X108713333Y-102106190D01*
X108522857Y-102058571D01*
X108427619Y-102010952D01*
X108380000Y-101963333D01*
X108332380Y-101868095D01*
X109332380Y-100582380D02*
X109332380Y-101153809D01*
X109332380Y-100868095D02*
X108332380Y-100868095D01*
X108475238Y-100963333D01*
X108570476Y-101058571D01*
X108618095Y-101153809D01*
X109332380Y-100249047D02*
X108665714Y-99725238D01*
X108665714Y-100249047D02*
X109332380Y-99725238D01*
X108332380Y-99153809D02*
X108332380Y-99058571D01*
X108380000Y-98963333D01*
X108427619Y-98915714D01*
X108522857Y-98868095D01*
X108713333Y-98820476D01*
X108951428Y-98820476D01*
X109141904Y-98868095D01*
X109237142Y-98915714D01*
X109284761Y-98963333D01*
X109332380Y-99058571D01*
X109332380Y-99153809D01*
X109284761Y-99249047D01*
X109237142Y-99296666D01*
X109141904Y-99344285D01*
X108951428Y-99391904D01*
X108713333Y-99391904D01*
X108522857Y-99344285D01*
X108427619Y-99296666D01*
X108380000Y-99249047D01*
X108332380Y-99153809D01*
X108427619Y-98439523D02*
X108380000Y-98391904D01*
X108332380Y-98296666D01*
X108332380Y-98058571D01*
X108380000Y-97963333D01*
X108427619Y-97915714D01*
X108522857Y-97868095D01*
X108618095Y-97868095D01*
X108760952Y-97915714D01*
X109332380Y-98487142D01*
X109332380Y-97868095D01*
X109427619Y-97677619D02*
X109427619Y-96915714D01*
X109332380Y-96677619D02*
X108332380Y-96677619D01*
X109046666Y-96344285D01*
X108332380Y-96010952D01*
X109332380Y-96010952D01*
X109332380Y-95106190D02*
X108808571Y-95106190D01*
X108713333Y-95153809D01*
X108665714Y-95249047D01*
X108665714Y-95439523D01*
X108713333Y-95534761D01*
X109284761Y-95106190D02*
X109332380Y-95201428D01*
X109332380Y-95439523D01*
X109284761Y-95534761D01*
X109189523Y-95582380D01*
X109094285Y-95582380D01*
X108999047Y-95534761D01*
X108951428Y-95439523D01*
X108951428Y-95201428D01*
X108903809Y-95106190D01*
X109332380Y-94487142D02*
X109284761Y-94582380D01*
X109189523Y-94630000D01*
X108332380Y-94630000D01*
X109284761Y-93725238D02*
X109332380Y-93820476D01*
X109332380Y-94010952D01*
X109284761Y-94106190D01*
X109189523Y-94153809D01*
X108808571Y-94153809D01*
X108713333Y-94106190D01*
X108665714Y-94010952D01*
X108665714Y-93820476D01*
X108713333Y-93725238D01*
X108808571Y-93677619D01*
X108903809Y-93677619D01*
X108999047Y-94153809D01*
X102032380Y-100463333D02*
X102746666Y-100463333D01*
X102889523Y-100510952D01*
X102984761Y-100606190D01*
X103032380Y-100749047D01*
X103032380Y-100844285D01*
X102127619Y-100034761D02*
X102080000Y-99987142D01*
X102032380Y-99891904D01*
X102032380Y-99653809D01*
X102080000Y-99558571D01*
X102127619Y-99510952D01*
X102222857Y-99463333D01*
X102318095Y-99463333D01*
X102460952Y-99510952D01*
X103032380Y-100082380D01*
X103032380Y-99463333D01*
X137938095Y-136707142D02*
X137890476Y-136754761D01*
X137747619Y-136802380D01*
X137652380Y-136802380D01*
X137509523Y-136754761D01*
X137414285Y-136659523D01*
X137366666Y-136564285D01*
X137319047Y-136373809D01*
X137319047Y-136230952D01*
X137366666Y-136040476D01*
X137414285Y-135945238D01*
X137509523Y-135850000D01*
X137652380Y-135802380D01*
X137747619Y-135802380D01*
X137890476Y-135850000D01*
X137938095Y-135897619D01*
X138509523Y-136802380D02*
X138414285Y-136754761D01*
X138366666Y-136707142D01*
X138319047Y-136611904D01*
X138319047Y-136326190D01*
X138366666Y-136230952D01*
X138414285Y-136183333D01*
X138509523Y-136135714D01*
X138652380Y-136135714D01*
X138747619Y-136183333D01*
X138795238Y-136230952D01*
X138842857Y-136326190D01*
X138842857Y-136611904D01*
X138795238Y-136707142D01*
X138747619Y-136754761D01*
X138652380Y-136802380D01*
X138509523Y-136802380D01*
X139271428Y-136135714D02*
X139271428Y-136802380D01*
X139271428Y-136230952D02*
X139319047Y-136183333D01*
X139414285Y-136135714D01*
X139557142Y-136135714D01*
X139652380Y-136183333D01*
X139700000Y-136278571D01*
X139700000Y-136802380D01*
X140176190Y-136135714D02*
X140176190Y-136802380D01*
X140176190Y-136230952D02*
X140223809Y-136183333D01*
X140319047Y-136135714D01*
X140461904Y-136135714D01*
X140557142Y-136183333D01*
X140604761Y-136278571D01*
X140604761Y-136802380D01*
X141461904Y-136754761D02*
X141366666Y-136802380D01*
X141176190Y-136802380D01*
X141080952Y-136754761D01*
X141033333Y-136659523D01*
X141033333Y-136278571D01*
X141080952Y-136183333D01*
X141176190Y-136135714D01*
X141366666Y-136135714D01*
X141461904Y-136183333D01*
X141509523Y-136278571D01*
X141509523Y-136373809D01*
X141033333Y-136469047D01*
X142366666Y-136754761D02*
X142271428Y-136802380D01*
X142080952Y-136802380D01*
X141985714Y-136754761D01*
X141938095Y-136707142D01*
X141890476Y-136611904D01*
X141890476Y-136326190D01*
X141938095Y-136230952D01*
X141985714Y-136183333D01*
X142080952Y-136135714D01*
X142271428Y-136135714D01*
X142366666Y-136183333D01*
X142652380Y-136135714D02*
X143033333Y-136135714D01*
X142795238Y-135802380D02*
X142795238Y-136659523D01*
X142842857Y-136754761D01*
X142938095Y-136802380D01*
X143033333Y-136802380D01*
X143366666Y-136802380D02*
X143366666Y-136135714D01*
X143366666Y-135802380D02*
X143319047Y-135850000D01*
X143366666Y-135897619D01*
X143414285Y-135850000D01*
X143366666Y-135802380D01*
X143366666Y-135897619D01*
X143985714Y-136802380D02*
X143890476Y-136754761D01*
X143842857Y-136707142D01*
X143795238Y-136611904D01*
X143795238Y-136326190D01*
X143842857Y-136230952D01*
X143890476Y-136183333D01*
X143985714Y-136135714D01*
X144128571Y-136135714D01*
X144223809Y-136183333D01*
X144271428Y-136230952D01*
X144319047Y-136326190D01*
X144319047Y-136611904D01*
X144271428Y-136707142D01*
X144223809Y-136754761D01*
X144128571Y-136802380D01*
X143985714Y-136802380D01*
X144747619Y-136135714D02*
X144747619Y-136802380D01*
X144747619Y-136230952D02*
X144795238Y-136183333D01*
X144890476Y-136135714D01*
X145033333Y-136135714D01*
X145128571Y-136183333D01*
X145176190Y-136278571D01*
X145176190Y-136802380D01*
X146747619Y-136278571D02*
X146414285Y-136278571D01*
X146414285Y-136802380D02*
X146414285Y-135802380D01*
X146890476Y-135802380D01*
X147414285Y-136802380D02*
X147319047Y-136754761D01*
X147271428Y-136707142D01*
X147223809Y-136611904D01*
X147223809Y-136326190D01*
X147271428Y-136230952D01*
X147319047Y-136183333D01*
X147414285Y-136135714D01*
X147557142Y-136135714D01*
X147652380Y-136183333D01*
X147700000Y-136230952D01*
X147747619Y-136326190D01*
X147747619Y-136611904D01*
X147700000Y-136707142D01*
X147652380Y-136754761D01*
X147557142Y-136802380D01*
X147414285Y-136802380D01*
X148176190Y-136802380D02*
X148176190Y-136135714D01*
X148176190Y-136326190D02*
X148223809Y-136230952D01*
X148271428Y-136183333D01*
X148366666Y-136135714D01*
X148461904Y-136135714D01*
X150080952Y-135850000D02*
X149985714Y-135802380D01*
X149842857Y-135802380D01*
X149700000Y-135850000D01*
X149604761Y-135945238D01*
X149557142Y-136040476D01*
X149509523Y-136230952D01*
X149509523Y-136373809D01*
X149557142Y-136564285D01*
X149604761Y-136659523D01*
X149700000Y-136754761D01*
X149842857Y-136802380D01*
X149938095Y-136802380D01*
X150080952Y-136754761D01*
X150128571Y-136707142D01*
X150128571Y-136373809D01*
X149938095Y-136373809D01*
X150557142Y-136802380D02*
X150557142Y-135802380D01*
X150938095Y-135802380D01*
X151033333Y-135850000D01*
X151080952Y-135897619D01*
X151128571Y-135992857D01*
X151128571Y-136135714D01*
X151080952Y-136230952D01*
X151033333Y-136278571D01*
X150938095Y-136326190D01*
X150557142Y-136326190D01*
X151509523Y-136754761D02*
X151652380Y-136802380D01*
X151890476Y-136802380D01*
X151985714Y-136754761D01*
X152033333Y-136707142D01*
X152080952Y-136611904D01*
X152080952Y-136516666D01*
X152033333Y-136421428D01*
X151985714Y-136373809D01*
X151890476Y-136326190D01*
X151700000Y-136278571D01*
X151604761Y-136230952D01*
X151557142Y-136183333D01*
X151509523Y-136088095D01*
X151509523Y-135992857D01*
X151557142Y-135897619D01*
X151604761Y-135850000D01*
X151700000Y-135802380D01*
X151938095Y-135802380D01*
X152080952Y-135850000D01*
X153271428Y-136802380D02*
X153271428Y-135802380D01*
X153604761Y-136516666D01*
X153938095Y-135802380D01*
X153938095Y-136802380D01*
X154557142Y-136802380D02*
X154461904Y-136754761D01*
X154414285Y-136707142D01*
X154366666Y-136611904D01*
X154366666Y-136326190D01*
X154414285Y-136230952D01*
X154461904Y-136183333D01*
X154557142Y-136135714D01*
X154700000Y-136135714D01*
X154795238Y-136183333D01*
X154842857Y-136230952D01*
X154890476Y-136326190D01*
X154890476Y-136611904D01*
X154842857Y-136707142D01*
X154795238Y-136754761D01*
X154700000Y-136802380D01*
X154557142Y-136802380D01*
X155747619Y-136802380D02*
X155747619Y-135802380D01*
X155747619Y-136754761D02*
X155652380Y-136802380D01*
X155461904Y-136802380D01*
X155366666Y-136754761D01*
X155319047Y-136707142D01*
X155271428Y-136611904D01*
X155271428Y-136326190D01*
X155319047Y-136230952D01*
X155366666Y-136183333D01*
X155461904Y-136135714D01*
X155652380Y-136135714D01*
X155747619Y-136183333D01*
X156652380Y-136135714D02*
X156652380Y-136802380D01*
X156223809Y-136135714D02*
X156223809Y-136659523D01*
X156271428Y-136754761D01*
X156366666Y-136802380D01*
X156509523Y-136802380D01*
X156604761Y-136754761D01*
X156652380Y-136707142D01*
X157271428Y-136802380D02*
X157176190Y-136754761D01*
X157128571Y-136659523D01*
X157128571Y-135802380D01*
X158033333Y-136754761D02*
X157938095Y-136802380D01*
X157747619Y-136802380D01*
X157652380Y-136754761D01*
X157604761Y-136659523D01*
X157604761Y-136278571D01*
X157652380Y-136183333D01*
X157747619Y-136135714D01*
X157938095Y-136135714D01*
X158033333Y-136183333D01*
X158080952Y-136278571D01*
X158080952Y-136373809D01*
X157604761Y-136469047D01*
X147152380Y-124193333D02*
X147866666Y-124193333D01*
X148009523Y-124240952D01*
X148104761Y-124336190D01*
X148152380Y-124479047D01*
X148152380Y-124574285D01*
X147485714Y-123288571D02*
X148152380Y-123288571D01*
X147104761Y-123526666D02*
X147819047Y-123764761D01*
X147819047Y-123145714D01*
X56604761Y-130227142D02*
X56557142Y-130274761D01*
X56414285Y-130322380D01*
X56319047Y-130322380D01*
X56176190Y-130274761D01*
X56080952Y-130179523D01*
X56033333Y-130084285D01*
X55985714Y-129893809D01*
X55985714Y-129750952D01*
X56033333Y-129560476D01*
X56080952Y-129465238D01*
X56176190Y-129370000D01*
X56319047Y-129322380D01*
X56414285Y-129322380D01*
X56557142Y-129370000D01*
X56604761Y-129417619D01*
X57176190Y-130322380D02*
X57080952Y-130274761D01*
X57033333Y-130227142D01*
X56985714Y-130131904D01*
X56985714Y-129846190D01*
X57033333Y-129750952D01*
X57080952Y-129703333D01*
X57176190Y-129655714D01*
X57319047Y-129655714D01*
X57414285Y-129703333D01*
X57461904Y-129750952D01*
X57509523Y-129846190D01*
X57509523Y-130131904D01*
X57461904Y-130227142D01*
X57414285Y-130274761D01*
X57319047Y-130322380D01*
X57176190Y-130322380D01*
X57938095Y-129655714D02*
X57938095Y-130322380D01*
X57938095Y-129750952D02*
X57985714Y-129703333D01*
X58080952Y-129655714D01*
X58223809Y-129655714D01*
X58319047Y-129703333D01*
X58366666Y-129798571D01*
X58366666Y-130322380D01*
X58842857Y-129655714D02*
X58842857Y-130322380D01*
X58842857Y-129750952D02*
X58890476Y-129703333D01*
X58985714Y-129655714D01*
X59128571Y-129655714D01*
X59223809Y-129703333D01*
X59271428Y-129798571D01*
X59271428Y-130322380D01*
X60128571Y-130274761D02*
X60033333Y-130322380D01*
X59842857Y-130322380D01*
X59747619Y-130274761D01*
X59699999Y-130179523D01*
X59699999Y-129798571D01*
X59747619Y-129703333D01*
X59842857Y-129655714D01*
X60033333Y-129655714D01*
X60128571Y-129703333D01*
X60176190Y-129798571D01*
X60176190Y-129893809D01*
X59699999Y-129989047D01*
X61033333Y-130274761D02*
X60938095Y-130322380D01*
X60747619Y-130322380D01*
X60652380Y-130274761D01*
X60604761Y-130227142D01*
X60557142Y-130131904D01*
X60557142Y-129846190D01*
X60604761Y-129750952D01*
X60652380Y-129703333D01*
X60747619Y-129655714D01*
X60938095Y-129655714D01*
X61033333Y-129703333D01*
X61319047Y-129655714D02*
X61699999Y-129655714D01*
X61461904Y-129322380D02*
X61461904Y-130179523D01*
X61509523Y-130274761D01*
X61604761Y-130322380D01*
X61699999Y-130322380D01*
X62033333Y-130322380D02*
X62033333Y-129655714D01*
X62033333Y-129322380D02*
X61985714Y-129370000D01*
X62033333Y-129417619D01*
X62080952Y-129370000D01*
X62033333Y-129322380D01*
X62033333Y-129417619D01*
X62652380Y-130322380D02*
X62557142Y-130274761D01*
X62509523Y-130227142D01*
X62461904Y-130131904D01*
X62461904Y-129846190D01*
X62509523Y-129750952D01*
X62557142Y-129703333D01*
X62652380Y-129655714D01*
X62795238Y-129655714D01*
X62890476Y-129703333D01*
X62938095Y-129750952D01*
X62985714Y-129846190D01*
X62985714Y-130131904D01*
X62938095Y-130227142D01*
X62890476Y-130274761D01*
X62795238Y-130322380D01*
X62652380Y-130322380D01*
X63414285Y-129655714D02*
X63414285Y-130322380D01*
X63414285Y-129750952D02*
X63461904Y-129703333D01*
X63557142Y-129655714D01*
X63699999Y-129655714D01*
X63795238Y-129703333D01*
X63842857Y-129798571D01*
X63842857Y-130322380D01*
X64938095Y-129655714D02*
X65319047Y-129655714D01*
X65080952Y-130322380D02*
X65080952Y-129465238D01*
X65128571Y-129370000D01*
X65223809Y-129322380D01*
X65319047Y-129322380D01*
X65795238Y-130322380D02*
X65699999Y-130274761D01*
X65652380Y-130227142D01*
X65604761Y-130131904D01*
X65604761Y-129846190D01*
X65652380Y-129750952D01*
X65699999Y-129703333D01*
X65795238Y-129655714D01*
X65938095Y-129655714D01*
X66033333Y-129703333D01*
X66080952Y-129750952D01*
X66128571Y-129846190D01*
X66128571Y-130131904D01*
X66080952Y-130227142D01*
X66033333Y-130274761D01*
X65938095Y-130322380D01*
X65795238Y-130322380D01*
X66557142Y-130322380D02*
X66557142Y-129655714D01*
X66557142Y-129846190D02*
X66604761Y-129750952D01*
X66652380Y-129703333D01*
X66747619Y-129655714D01*
X66842857Y-129655714D01*
X68128571Y-129322380D02*
X68319047Y-129322380D01*
X68414285Y-129370000D01*
X68509523Y-129465238D01*
X68557142Y-129655714D01*
X68557142Y-129989047D01*
X68509523Y-130179523D01*
X68414285Y-130274761D01*
X68319047Y-130322380D01*
X68128571Y-130322380D01*
X68033333Y-130274761D01*
X67938095Y-130179523D01*
X67890476Y-129989047D01*
X67890476Y-129655714D01*
X67938095Y-129465238D01*
X68033333Y-129370000D01*
X68128571Y-129322380D01*
X69461904Y-130322380D02*
X68985714Y-130322380D01*
X68985714Y-129322380D01*
X69795238Y-129798571D02*
X70128571Y-129798571D01*
X70271428Y-130322380D02*
X69795238Y-130322380D01*
X69795238Y-129322380D01*
X70271428Y-129322380D01*
X70700000Y-130322380D02*
X70700000Y-129322380D01*
X70938095Y-129322380D01*
X71080952Y-129370000D01*
X71176190Y-129465238D01*
X71223809Y-129560476D01*
X71271428Y-129750952D01*
X71271428Y-129893809D01*
X71223809Y-130084285D01*
X71176190Y-130179523D01*
X71080952Y-130274761D01*
X70938095Y-130322380D01*
X70700000Y-130322380D01*
X72461904Y-130322380D02*
X72461904Y-129322380D01*
X72700000Y-129322380D01*
X72842857Y-129370000D01*
X72938095Y-129465238D01*
X72985714Y-129560476D01*
X73033333Y-129750952D01*
X73033333Y-129893809D01*
X72985714Y-130084285D01*
X72938095Y-130179523D01*
X72842857Y-130274761D01*
X72700000Y-130322380D01*
X72461904Y-130322380D01*
X73461904Y-130322380D02*
X73461904Y-129655714D01*
X73461904Y-129322380D02*
X73414285Y-129370000D01*
X73461904Y-129417619D01*
X73509523Y-129370000D01*
X73461904Y-129322380D01*
X73461904Y-129417619D01*
X73890476Y-130274761D02*
X73985714Y-130322380D01*
X74176190Y-130322380D01*
X74271428Y-130274761D01*
X74319047Y-130179523D01*
X74319047Y-130131904D01*
X74271428Y-130036666D01*
X74176190Y-129989047D01*
X74033333Y-129989047D01*
X73938095Y-129941428D01*
X73890476Y-129846190D01*
X73890476Y-129798571D01*
X73938095Y-129703333D01*
X74033333Y-129655714D01*
X74176190Y-129655714D01*
X74271428Y-129703333D01*
X74747619Y-129655714D02*
X74747619Y-130655714D01*
X74747619Y-129703333D02*
X74842857Y-129655714D01*
X75033333Y-129655714D01*
X75128571Y-129703333D01*
X75176190Y-129750952D01*
X75223809Y-129846190D01*
X75223809Y-130131904D01*
X75176190Y-130227142D01*
X75128571Y-130274761D01*
X75033333Y-130322380D01*
X74842857Y-130322380D01*
X74747619Y-130274761D01*
X75795238Y-130322380D02*
X75700000Y-130274761D01*
X75652380Y-130179523D01*
X75652380Y-129322380D01*
X76604761Y-130322380D02*
X76604761Y-129798571D01*
X76557142Y-129703333D01*
X76461904Y-129655714D01*
X76271428Y-129655714D01*
X76176190Y-129703333D01*
X76604761Y-130274761D02*
X76509523Y-130322380D01*
X76271428Y-130322380D01*
X76176190Y-130274761D01*
X76128571Y-130179523D01*
X76128571Y-130084285D01*
X76176190Y-129989047D01*
X76271428Y-129941428D01*
X76509523Y-129941428D01*
X76604761Y-129893809D01*
X76985714Y-129655714D02*
X77223809Y-130322380D01*
X77461904Y-129655714D02*
X77223809Y-130322380D01*
X77128571Y-130560476D01*
X77080952Y-130608095D01*
X76985714Y-130655714D01*
X66152380Y-120253333D02*
X66866666Y-120253333D01*
X67009523Y-120300952D01*
X67104761Y-120396190D01*
X67152380Y-120539047D01*
X67152380Y-120634285D01*
X66152380Y-119300952D02*
X66152380Y-119777142D01*
X66628571Y-119824761D01*
X66580952Y-119777142D01*
X66533333Y-119681904D01*
X66533333Y-119443809D01*
X66580952Y-119348571D01*
X66628571Y-119300952D01*
X66723809Y-119253333D01*
X66961904Y-119253333D01*
X67057142Y-119300952D01*
X67104761Y-119348571D01*
X67152380Y-119443809D01*
X67152380Y-119681904D01*
X67104761Y-119777142D01*
X67057142Y-119824761D01*
X87584523Y-144959142D02*
X87536904Y-145006761D01*
X87394047Y-145054380D01*
X87298809Y-145054380D01*
X87155952Y-145006761D01*
X87060714Y-144911523D01*
X87013095Y-144816285D01*
X86965476Y-144625809D01*
X86965476Y-144482952D01*
X87013095Y-144292476D01*
X87060714Y-144197238D01*
X87155952Y-144102000D01*
X87298809Y-144054380D01*
X87394047Y-144054380D01*
X87536904Y-144102000D01*
X87584523Y-144149619D01*
X88155952Y-145054380D02*
X88060714Y-145006761D01*
X88013095Y-144959142D01*
X87965476Y-144863904D01*
X87965476Y-144578190D01*
X88013095Y-144482952D01*
X88060714Y-144435333D01*
X88155952Y-144387714D01*
X88298809Y-144387714D01*
X88394047Y-144435333D01*
X88441666Y-144482952D01*
X88489285Y-144578190D01*
X88489285Y-144863904D01*
X88441666Y-144959142D01*
X88394047Y-145006761D01*
X88298809Y-145054380D01*
X88155952Y-145054380D01*
X88917857Y-144387714D02*
X88917857Y-145054380D01*
X88917857Y-144482952D02*
X88965476Y-144435333D01*
X89060714Y-144387714D01*
X89203571Y-144387714D01*
X89298809Y-144435333D01*
X89346428Y-144530571D01*
X89346428Y-145054380D01*
X89822619Y-144387714D02*
X89822619Y-145054380D01*
X89822619Y-144482952D02*
X89870238Y-144435333D01*
X89965476Y-144387714D01*
X90108333Y-144387714D01*
X90203571Y-144435333D01*
X90251190Y-144530571D01*
X90251190Y-145054380D01*
X90489285Y-145149619D02*
X91251190Y-145149619D01*
X92060714Y-144959142D02*
X92013095Y-145006761D01*
X91870238Y-145054380D01*
X91775000Y-145054380D01*
X91632142Y-145006761D01*
X91536904Y-144911523D01*
X91489285Y-144816285D01*
X91441666Y-144625809D01*
X91441666Y-144482952D01*
X91489285Y-144292476D01*
X91536904Y-144197238D01*
X91632142Y-144102000D01*
X91775000Y-144054380D01*
X91870238Y-144054380D01*
X92013095Y-144102000D01*
X92060714Y-144149619D01*
X92632142Y-145054380D02*
X92536904Y-145006761D01*
X92489285Y-144959142D01*
X92441666Y-144863904D01*
X92441666Y-144578190D01*
X92489285Y-144482952D01*
X92536904Y-144435333D01*
X92632142Y-144387714D01*
X92775000Y-144387714D01*
X92870238Y-144435333D01*
X92917857Y-144482952D01*
X92965476Y-144578190D01*
X92965476Y-144863904D01*
X92917857Y-144959142D01*
X92870238Y-145006761D01*
X92775000Y-145054380D01*
X92632142Y-145054380D01*
X93822619Y-145054380D02*
X93822619Y-144530571D01*
X93775000Y-144435333D01*
X93679761Y-144387714D01*
X93489285Y-144387714D01*
X93394047Y-144435333D01*
X93822619Y-145006761D02*
X93727380Y-145054380D01*
X93489285Y-145054380D01*
X93394047Y-145006761D01*
X93346428Y-144911523D01*
X93346428Y-144816285D01*
X93394047Y-144721047D01*
X93489285Y-144673428D01*
X93727380Y-144673428D01*
X93822619Y-144625809D01*
X94203571Y-145054380D02*
X94727380Y-144387714D01*
X94203571Y-144387714D02*
X94727380Y-145054380D01*
X95108333Y-145054380D02*
X95108333Y-144387714D01*
X95108333Y-144054380D02*
X95060714Y-144102000D01*
X95108333Y-144149619D01*
X95155952Y-144102000D01*
X95108333Y-144054380D01*
X95108333Y-144149619D01*
X96013095Y-145054380D02*
X96013095Y-144530571D01*
X95965476Y-144435333D01*
X95870238Y-144387714D01*
X95679761Y-144387714D01*
X95584523Y-144435333D01*
X96013095Y-145006761D02*
X95917857Y-145054380D01*
X95679761Y-145054380D01*
X95584523Y-145006761D01*
X95536904Y-144911523D01*
X95536904Y-144816285D01*
X95584523Y-144721047D01*
X95679761Y-144673428D01*
X95917857Y-144673428D01*
X96013095Y-144625809D01*
X96632142Y-145054380D02*
X96536904Y-145006761D01*
X96489285Y-144911523D01*
X96489285Y-144054380D01*
X91441666Y-137252380D02*
X91441666Y-137966666D01*
X91394047Y-138109523D01*
X91298809Y-138204761D01*
X91155952Y-138252380D01*
X91060714Y-138252380D01*
X92346428Y-137252380D02*
X92155952Y-137252380D01*
X92060714Y-137300000D01*
X92013095Y-137347619D01*
X91917857Y-137490476D01*
X91870238Y-137680952D01*
X91870238Y-138061904D01*
X91917857Y-138157142D01*
X91965476Y-138204761D01*
X92060714Y-138252380D01*
X92251190Y-138252380D01*
X92346428Y-138204761D01*
X92394047Y-138157142D01*
X92441666Y-138061904D01*
X92441666Y-137823809D01*
X92394047Y-137728571D01*
X92346428Y-137680952D01*
X92251190Y-137633333D01*
X92060714Y-137633333D01*
X91965476Y-137680952D01*
X91917857Y-137728571D01*
X91870238Y-137823809D01*
X90202380Y-99094047D02*
X90202380Y-99665476D01*
X90202380Y-99379761D02*
X89202380Y-99379761D01*
X89345238Y-99475000D01*
X89440476Y-99570238D01*
X89488095Y-99665476D01*
X90202380Y-98665476D02*
X89202380Y-98665476D01*
X89821428Y-98570238D02*
X90202380Y-98284523D01*
X89535714Y-98284523D02*
X89916666Y-98665476D01*
D13*
X91626190Y-99058333D02*
X91388095Y-99225000D01*
X91626190Y-99344047D02*
X91126190Y-99344047D01*
X91126190Y-99153571D01*
X91150000Y-99105952D01*
X91173809Y-99082142D01*
X91221428Y-99058333D01*
X91292857Y-99058333D01*
X91340476Y-99082142D01*
X91364285Y-99105952D01*
X91388095Y-99153571D01*
X91388095Y-99344047D01*
X91126190Y-98605952D02*
X91126190Y-98844047D01*
X91364285Y-98867857D01*
X91340476Y-98844047D01*
X91316666Y-98796428D01*
X91316666Y-98677380D01*
X91340476Y-98629761D01*
X91364285Y-98605952D01*
X91411904Y-98582142D01*
X91530952Y-98582142D01*
X91578571Y-98605952D01*
X91602380Y-98629761D01*
X91626190Y-98677380D01*
X91626190Y-98796428D01*
X91602380Y-98844047D01*
X91578571Y-98867857D01*
D12*
X93884523Y-103902380D02*
X93313095Y-103902380D01*
X93598809Y-103902380D02*
X93598809Y-102902380D01*
X93503571Y-103045238D01*
X93408333Y-103140476D01*
X93313095Y-103188095D01*
X94503571Y-102902380D02*
X94598809Y-102902380D01*
X94694047Y-102950000D01*
X94741666Y-102997619D01*
X94789285Y-103092857D01*
X94836904Y-103283333D01*
X94836904Y-103521428D01*
X94789285Y-103711904D01*
X94741666Y-103807142D01*
X94694047Y-103854761D01*
X94598809Y-103902380D01*
X94503571Y-103902380D01*
X94408333Y-103854761D01*
X94360714Y-103807142D01*
X94313095Y-103711904D01*
X94265476Y-103521428D01*
X94265476Y-103283333D01*
X94313095Y-103092857D01*
X94360714Y-102997619D01*
X94408333Y-102950000D01*
X94503571Y-102902380D01*
X95265476Y-103902380D02*
X95265476Y-102902380D01*
X95836904Y-103902380D02*
X95408333Y-103330952D01*
X95836904Y-102902380D02*
X95265476Y-103473809D01*
D13*
X94491666Y-102026190D02*
X94325000Y-101788095D01*
X94205952Y-102026190D02*
X94205952Y-101526190D01*
X94396428Y-101526190D01*
X94444047Y-101550000D01*
X94467857Y-101573809D01*
X94491666Y-101621428D01*
X94491666Y-101692857D01*
X94467857Y-101740476D01*
X94444047Y-101764285D01*
X94396428Y-101788095D01*
X94205952Y-101788095D01*
X94920238Y-101526190D02*
X94825000Y-101526190D01*
X94777380Y-101550000D01*
X94753571Y-101573809D01*
X94705952Y-101645238D01*
X94682142Y-101740476D01*
X94682142Y-101930952D01*
X94705952Y-101978571D01*
X94729761Y-102002380D01*
X94777380Y-102026190D01*
X94872619Y-102026190D01*
X94920238Y-102002380D01*
X94944047Y-101978571D01*
X94967857Y-101930952D01*
X94967857Y-101811904D01*
X94944047Y-101764285D01*
X94920238Y-101740476D01*
X94872619Y-101716666D01*
X94777380Y-101716666D01*
X94729761Y-101740476D01*
X94705952Y-101764285D01*
X94682142Y-101811904D01*
D12*
X140902380Y-102970238D02*
X140902380Y-103541666D01*
X140902380Y-103255952D02*
X139902380Y-103255952D01*
X140045238Y-103351190D01*
X140140476Y-103446428D01*
X140188095Y-103541666D01*
X139902380Y-102351190D02*
X139902380Y-102255952D01*
X139950000Y-102160714D01*
X139997619Y-102113095D01*
X140092857Y-102065476D01*
X140283333Y-102017857D01*
X140521428Y-102017857D01*
X140711904Y-102065476D01*
X140807142Y-102113095D01*
X140854761Y-102160714D01*
X140902380Y-102255952D01*
X140902380Y-102351190D01*
X140854761Y-102446428D01*
X140807142Y-102494047D01*
X140711904Y-102541666D01*
X140521428Y-102589285D01*
X140283333Y-102589285D01*
X140092857Y-102541666D01*
X139997619Y-102494047D01*
X139950000Y-102446428D01*
X139902380Y-102351190D01*
X140902380Y-101589285D02*
X139902380Y-101589285D01*
X140521428Y-101494047D02*
X140902380Y-101208333D01*
X140235714Y-101208333D02*
X140616666Y-101589285D01*
D13*
X142326190Y-102458333D02*
X142088095Y-102625000D01*
X142326190Y-102744047D02*
X141826190Y-102744047D01*
X141826190Y-102553571D01*
X141850000Y-102505952D01*
X141873809Y-102482142D01*
X141921428Y-102458333D01*
X141992857Y-102458333D01*
X142040476Y-102482142D01*
X142064285Y-102505952D01*
X142088095Y-102553571D01*
X142088095Y-102744047D01*
X141826190Y-102291666D02*
X141826190Y-101958333D01*
X142326190Y-102172619D01*
D12*
X87302380Y-136844047D02*
X87302380Y-137415476D01*
X87302380Y-137129761D02*
X86302380Y-137129761D01*
X86445238Y-137225000D01*
X86540476Y-137320238D01*
X86588095Y-137415476D01*
X87302380Y-136415476D02*
X86302380Y-136415476D01*
X86921428Y-136320238D02*
X87302380Y-136034523D01*
X86635714Y-136034523D02*
X87016666Y-136415476D01*
D13*
X85426190Y-136808333D02*
X85188095Y-136975000D01*
X85426190Y-137094047D02*
X84926190Y-137094047D01*
X84926190Y-136903571D01*
X84950000Y-136855952D01*
X84973809Y-136832142D01*
X85021428Y-136808333D01*
X85092857Y-136808333D01*
X85140476Y-136832142D01*
X85164285Y-136855952D01*
X85188095Y-136903571D01*
X85188095Y-137094047D01*
X85140476Y-136522619D02*
X85116666Y-136570238D01*
X85092857Y-136594047D01*
X85045238Y-136617857D01*
X85021428Y-136617857D01*
X84973809Y-136594047D01*
X84950000Y-136570238D01*
X84926190Y-136522619D01*
X84926190Y-136427380D01*
X84950000Y-136379761D01*
X84973809Y-136355952D01*
X85021428Y-136332142D01*
X85045238Y-136332142D01*
X85092857Y-136355952D01*
X85116666Y-136379761D01*
X85140476Y-136427380D01*
X85140476Y-136522619D01*
X85164285Y-136570238D01*
X85188095Y-136594047D01*
X85235714Y-136617857D01*
X85330952Y-136617857D01*
X85378571Y-136594047D01*
X85402380Y-136570238D01*
X85426190Y-136522619D01*
X85426190Y-136427380D01*
X85402380Y-136379761D01*
X85378571Y-136355952D01*
X85330952Y-136332142D01*
X85235714Y-136332142D01*
X85188095Y-136355952D01*
X85164285Y-136379761D01*
X85140476Y-136427380D01*
D12*
X62805952Y-116302380D02*
X62234523Y-116302380D01*
X62520238Y-116302380D02*
X62520238Y-115302380D01*
X62425000Y-115445238D01*
X62329761Y-115540476D01*
X62234523Y-115588095D01*
X63234523Y-116302380D02*
X63234523Y-115302380D01*
X63329761Y-115921428D02*
X63615476Y-116302380D01*
X63615476Y-115635714D02*
X63234523Y-116016666D01*
D13*
X62841666Y-117726190D02*
X62675000Y-117488095D01*
X62555952Y-117726190D02*
X62555952Y-117226190D01*
X62746428Y-117226190D01*
X62794047Y-117250000D01*
X62817857Y-117273809D01*
X62841666Y-117321428D01*
X62841666Y-117392857D01*
X62817857Y-117440476D01*
X62794047Y-117464285D01*
X62746428Y-117488095D01*
X62555952Y-117488095D01*
X63079761Y-117726190D02*
X63175000Y-117726190D01*
X63222619Y-117702380D01*
X63246428Y-117678571D01*
X63294047Y-117607142D01*
X63317857Y-117511904D01*
X63317857Y-117321428D01*
X63294047Y-117273809D01*
X63270238Y-117250000D01*
X63222619Y-117226190D01*
X63127380Y-117226190D01*
X63079761Y-117250000D01*
X63055952Y-117273809D01*
X63032142Y-117321428D01*
X63032142Y-117440476D01*
X63055952Y-117488095D01*
X63079761Y-117511904D01*
X63127380Y-117535714D01*
X63222619Y-117535714D01*
X63270238Y-117511904D01*
X63294047Y-117488095D01*
X63317857Y-117440476D01*
D12*
X77927380Y-146704761D02*
X78070238Y-146752380D01*
X78308333Y-146752380D01*
X78403571Y-146704761D01*
X78451190Y-146657142D01*
X78498809Y-146561904D01*
X78498809Y-146466666D01*
X78451190Y-146371428D01*
X78403571Y-146323809D01*
X78308333Y-146276190D01*
X78117857Y-146228571D01*
X78022619Y-146180952D01*
X77975000Y-146133333D01*
X77927380Y-146038095D01*
X77927380Y-145942857D01*
X77975000Y-145847619D01*
X78022619Y-145800000D01*
X78117857Y-145752380D01*
X78355952Y-145752380D01*
X78498809Y-145800000D01*
X78832142Y-145752380D02*
X79070238Y-146752380D01*
X79260714Y-146038095D01*
X79451190Y-146752380D01*
X79689285Y-145752380D01*
X79832142Y-146847619D02*
X80594047Y-146847619D01*
X80832142Y-146752380D02*
X80832142Y-145752380D01*
X81213095Y-145752380D01*
X81308333Y-145800000D01*
X81355952Y-145847619D01*
X81403571Y-145942857D01*
X81403571Y-146085714D01*
X81355952Y-146180952D01*
X81308333Y-146228571D01*
X81213095Y-146276190D01*
X80832142Y-146276190D01*
X82260714Y-146085714D02*
X82260714Y-146752380D01*
X81832142Y-146085714D02*
X81832142Y-146609523D01*
X81879761Y-146704761D01*
X81975000Y-146752380D01*
X82117857Y-146752380D01*
X82213095Y-146704761D01*
X82260714Y-146657142D01*
X82689285Y-146704761D02*
X82784523Y-146752380D01*
X82975000Y-146752380D01*
X83070238Y-146704761D01*
X83117857Y-146609523D01*
X83117857Y-146561904D01*
X83070238Y-146466666D01*
X82975000Y-146419047D01*
X82832142Y-146419047D01*
X82736904Y-146371428D01*
X82689285Y-146276190D01*
X82689285Y-146228571D01*
X82736904Y-146133333D01*
X82832142Y-146085714D01*
X82975000Y-146085714D01*
X83070238Y-146133333D01*
X83546428Y-146752380D02*
X83546428Y-145752380D01*
X83975000Y-146752380D02*
X83975000Y-146228571D01*
X83927380Y-146133333D01*
X83832142Y-146085714D01*
X83689285Y-146085714D01*
X83594047Y-146133333D01*
X83546428Y-146180952D01*
X79641666Y-138504761D02*
X79784523Y-138552380D01*
X80022619Y-138552380D01*
X80117857Y-138504761D01*
X80165476Y-138457142D01*
X80213095Y-138361904D01*
X80213095Y-138266666D01*
X80165476Y-138171428D01*
X80117857Y-138123809D01*
X80022619Y-138076190D01*
X79832142Y-138028571D01*
X79736904Y-137980952D01*
X79689285Y-137933333D01*
X79641666Y-137838095D01*
X79641666Y-137742857D01*
X79689285Y-137647619D01*
X79736904Y-137600000D01*
X79832142Y-137552380D01*
X80070238Y-137552380D01*
X80213095Y-137600000D01*
X80546428Y-137552380D02*
X80784523Y-138552380D01*
X80975000Y-137838095D01*
X81165476Y-138552380D01*
X81403571Y-137552380D01*
X82308333Y-138552380D02*
X81736904Y-138552380D01*
X82022619Y-138552380D02*
X82022619Y-137552380D01*
X81927380Y-137695238D01*
X81832142Y-137790476D01*
X81736904Y-137838095D01*
X128314761Y-105285238D02*
X128362380Y-105142380D01*
X128362380Y-104904285D01*
X128314761Y-104809047D01*
X128267142Y-104761428D01*
X128171904Y-104713809D01*
X128076666Y-104713809D01*
X127981428Y-104761428D01*
X127933809Y-104809047D01*
X127886190Y-104904285D01*
X127838571Y-105094761D01*
X127790952Y-105190000D01*
X127743333Y-105237619D01*
X127648095Y-105285238D01*
X127552857Y-105285238D01*
X127457619Y-105237619D01*
X127410000Y-105190000D01*
X127362380Y-105094761D01*
X127362380Y-104856666D01*
X127410000Y-104713809D01*
X127362380Y-104380476D02*
X128362380Y-104142380D01*
X127648095Y-103951904D01*
X128362380Y-103761428D01*
X127362380Y-103523333D01*
X128457619Y-103380476D02*
X128457619Y-102618571D01*
X128314761Y-102428095D02*
X128362380Y-102285238D01*
X128362380Y-102047142D01*
X128314761Y-101951904D01*
X128267142Y-101904285D01*
X128171904Y-101856666D01*
X128076666Y-101856666D01*
X127981428Y-101904285D01*
X127933809Y-101951904D01*
X127886190Y-102047142D01*
X127838571Y-102237619D01*
X127790952Y-102332857D01*
X127743333Y-102380476D01*
X127648095Y-102428095D01*
X127552857Y-102428095D01*
X127457619Y-102380476D01*
X127410000Y-102332857D01*
X127362380Y-102237619D01*
X127362380Y-101999523D01*
X127410000Y-101856666D01*
X128362380Y-101428095D02*
X127362380Y-101428095D01*
X127362380Y-101047142D01*
X127410000Y-100951904D01*
X127457619Y-100904285D01*
X127552857Y-100856666D01*
X127695714Y-100856666D01*
X127790952Y-100904285D01*
X127838571Y-100951904D01*
X127886190Y-101047142D01*
X127886190Y-101428095D01*
X128362380Y-100428095D02*
X127362380Y-100428095D01*
X127362380Y-100190000D01*
X127410000Y-100047142D01*
X127505238Y-99951904D01*
X127600476Y-99904285D01*
X127790952Y-99856666D01*
X127933809Y-99856666D01*
X128124285Y-99904285D01*
X128219523Y-99951904D01*
X128314761Y-100047142D01*
X128362380Y-100190000D01*
X128362380Y-100428095D01*
X127362380Y-99570952D02*
X127362380Y-98999523D01*
X128362380Y-99285238D02*
X127362380Y-99285238D01*
X97904523Y-146127380D02*
X98475952Y-146127380D01*
X98190238Y-147127380D02*
X98190238Y-146127380D01*
X98809285Y-147127380D02*
X98809285Y-146127380D01*
X99142619Y-146841666D01*
X99475952Y-146127380D01*
X99475952Y-147127380D01*
X99952142Y-147127380D02*
X99952142Y-146127380D01*
X100333095Y-146127380D01*
X100428333Y-146175000D01*
X100475952Y-146222619D01*
X100523571Y-146317857D01*
X100523571Y-146460714D01*
X100475952Y-146555952D01*
X100428333Y-146603571D01*
X100333095Y-146651190D01*
X99952142Y-146651190D01*
X100856904Y-146127380D02*
X101475952Y-146127380D01*
X101142619Y-146508333D01*
X101285476Y-146508333D01*
X101380714Y-146555952D01*
X101428333Y-146603571D01*
X101475952Y-146698809D01*
X101475952Y-146936904D01*
X101428333Y-147032142D01*
X101380714Y-147079761D01*
X101285476Y-147127380D01*
X100999761Y-147127380D01*
X100904523Y-147079761D01*
X100856904Y-147032142D01*
X102333095Y-146127380D02*
X102142619Y-146127380D01*
X102047380Y-146175000D01*
X101999761Y-146222619D01*
X101904523Y-146365476D01*
X101856904Y-146555952D01*
X101856904Y-146936904D01*
X101904523Y-147032142D01*
X101952142Y-147079761D01*
X102047380Y-147127380D01*
X102237857Y-147127380D01*
X102333095Y-147079761D01*
X102380714Y-147032142D01*
X102428333Y-146936904D01*
X102428333Y-146698809D01*
X102380714Y-146603571D01*
X102333095Y-146555952D01*
X102237857Y-146508333D01*
X102047380Y-146508333D01*
X101952142Y-146555952D01*
X101904523Y-146603571D01*
X101856904Y-146698809D01*
X102761666Y-147127380D02*
X103285476Y-146460714D01*
X102761666Y-146460714D02*
X103285476Y-147127380D01*
X103618809Y-147079761D02*
X103761666Y-147127380D01*
X103999761Y-147127380D01*
X104095000Y-147079761D01*
X104142619Y-147032142D01*
X104190238Y-146936904D01*
X104190238Y-146841666D01*
X104142619Y-146746428D01*
X104095000Y-146698809D01*
X103999761Y-146651190D01*
X103809285Y-146603571D01*
X103714047Y-146555952D01*
X103666428Y-146508333D01*
X103618809Y-146413095D01*
X103618809Y-146317857D01*
X103666428Y-146222619D01*
X103714047Y-146175000D01*
X103809285Y-146127380D01*
X104047380Y-146127380D01*
X104190238Y-146175000D01*
X96358333Y-142738333D02*
X96918333Y-142738333D01*
X96638333Y-143718333D02*
X96638333Y-142738333D01*
X97618333Y-143671666D02*
X97525000Y-143718333D01*
X97338333Y-143718333D01*
X97245000Y-143671666D01*
X97198333Y-143578333D01*
X97198333Y-143205000D01*
X97245000Y-143111666D01*
X97338333Y-143065000D01*
X97525000Y-143065000D01*
X97618333Y-143111666D01*
X97665000Y-143205000D01*
X97665000Y-143298333D01*
X97198333Y-143391666D01*
X98085000Y-143718333D02*
X98085000Y-143065000D01*
X98085000Y-143158333D02*
X98131666Y-143111666D01*
X98225000Y-143065000D01*
X98365000Y-143065000D01*
X98458333Y-143111666D01*
X98505000Y-143205000D01*
X98505000Y-143718333D01*
X98505000Y-143205000D02*
X98551666Y-143111666D01*
X98645000Y-143065000D01*
X98785000Y-143065000D01*
X98878333Y-143111666D01*
X98925000Y-143205000D01*
X98925000Y-143718333D01*
X99391666Y-143065000D02*
X99391666Y-144045000D01*
X99391666Y-143111666D02*
X99485000Y-143065000D01*
X99671666Y-143065000D01*
X99765000Y-143111666D01*
X99811666Y-143158333D01*
X99858333Y-143251666D01*
X99858333Y-143531666D01*
X99811666Y-143625000D01*
X99765000Y-143671666D01*
X99671666Y-143718333D01*
X99485000Y-143718333D01*
X99391666Y-143671666D01*
X100231666Y-143671666D02*
X100371666Y-143718333D01*
X100605000Y-143718333D01*
X100698333Y-143671666D01*
X100745000Y-143625000D01*
X100791666Y-143531666D01*
X100791666Y-143438333D01*
X100745000Y-143345000D01*
X100698333Y-143298333D01*
X100605000Y-143251666D01*
X100418333Y-143205000D01*
X100325000Y-143158333D01*
X100278333Y-143111666D01*
X100231666Y-143018333D01*
X100231666Y-142925000D01*
X100278333Y-142831666D01*
X100325000Y-142785000D01*
X100418333Y-142738333D01*
X100651666Y-142738333D01*
X100791666Y-142785000D01*
X101585000Y-143671666D02*
X101491666Y-143718333D01*
X101305000Y-143718333D01*
X101211666Y-143671666D01*
X101165000Y-143578333D01*
X101165000Y-143205000D01*
X101211666Y-143111666D01*
X101305000Y-143065000D01*
X101491666Y-143065000D01*
X101585000Y-143111666D01*
X101631666Y-143205000D01*
X101631666Y-143298333D01*
X101165000Y-143391666D01*
X102051666Y-143065000D02*
X102051666Y-143718333D01*
X102051666Y-143158333D02*
X102098333Y-143111666D01*
X102191666Y-143065000D01*
X102331666Y-143065000D01*
X102425000Y-143111666D01*
X102471666Y-143205000D01*
X102471666Y-143718333D01*
X102891666Y-143671666D02*
X102985000Y-143718333D01*
X103171666Y-143718333D01*
X103265000Y-143671666D01*
X103311666Y-143578333D01*
X103311666Y-143531666D01*
X103265000Y-143438333D01*
X103171666Y-143391666D01*
X103031666Y-143391666D01*
X102938333Y-143345000D01*
X102891666Y-143251666D01*
X102891666Y-143205000D01*
X102938333Y-143111666D01*
X103031666Y-143065000D01*
X103171666Y-143065000D01*
X103265000Y-143111666D01*
X103871666Y-143718333D02*
X103778333Y-143671666D01*
X103731666Y-143625000D01*
X103685000Y-143531666D01*
X103685000Y-143251666D01*
X103731666Y-143158333D01*
X103778333Y-143111666D01*
X103871666Y-143065000D01*
X104011666Y-143065000D01*
X104105000Y-143111666D01*
X104151666Y-143158333D01*
X104198333Y-143251666D01*
X104198333Y-143531666D01*
X104151666Y-143625000D01*
X104105000Y-143671666D01*
X104011666Y-143718333D01*
X103871666Y-143718333D01*
X104618333Y-143718333D02*
X104618333Y-143065000D01*
X104618333Y-143251666D02*
X104665000Y-143158333D01*
X104711666Y-143111666D01*
X104805000Y-143065000D01*
X104898333Y-143065000D01*
X105738333Y-143718333D02*
X105178333Y-143718333D01*
X105458333Y-143718333D02*
X105458333Y-142738333D01*
X105365000Y-142878333D01*
X105271666Y-142971666D01*
X105178333Y-143018333D01*
X107766666Y-100202380D02*
X108338095Y-100202380D01*
X108052380Y-101202380D02*
X108052380Y-100202380D01*
X109052380Y-101154761D02*
X108957142Y-101202380D01*
X108766666Y-101202380D01*
X108671428Y-101154761D01*
X108623809Y-101059523D01*
X108623809Y-100678571D01*
X108671428Y-100583333D01*
X108766666Y-100535714D01*
X108957142Y-100535714D01*
X109052380Y-100583333D01*
X109100000Y-100678571D01*
X109100000Y-100773809D01*
X108623809Y-100869047D01*
X109480952Y-101154761D02*
X109576190Y-101202380D01*
X109766666Y-101202380D01*
X109861904Y-101154761D01*
X109909523Y-101059523D01*
X109909523Y-101011904D01*
X109861904Y-100916666D01*
X109766666Y-100869047D01*
X109623809Y-100869047D01*
X109528571Y-100821428D01*
X109480952Y-100726190D01*
X109480952Y-100678571D01*
X109528571Y-100583333D01*
X109623809Y-100535714D01*
X109766666Y-100535714D01*
X109861904Y-100583333D01*
X110195238Y-100535714D02*
X110576190Y-100535714D01*
X110338095Y-100202380D02*
X110338095Y-101059523D01*
X110385714Y-101154761D01*
X110480952Y-101202380D01*
X110576190Y-101202380D01*
X110909523Y-101202380D02*
X110909523Y-100202380D01*
X111290476Y-100202380D01*
X111385714Y-100250000D01*
X111433333Y-100297619D01*
X111480952Y-100392857D01*
X111480952Y-100535714D01*
X111433333Y-100630952D01*
X111385714Y-100678571D01*
X111290476Y-100726190D01*
X110909523Y-100726190D01*
X112052380Y-101202380D02*
X111957142Y-101154761D01*
X111909523Y-101107142D01*
X111861904Y-101011904D01*
X111861904Y-100726190D01*
X111909523Y-100630952D01*
X111957142Y-100583333D01*
X112052380Y-100535714D01*
X112195238Y-100535714D01*
X112290476Y-100583333D01*
X112338095Y-100630952D01*
X112385714Y-100726190D01*
X112385714Y-101011904D01*
X112338095Y-101107142D01*
X112290476Y-101154761D01*
X112195238Y-101202380D01*
X112052380Y-101202380D01*
X112814285Y-101202380D02*
X112814285Y-100535714D01*
X112814285Y-100202380D02*
X112766666Y-100250000D01*
X112814285Y-100297619D01*
X112861904Y-100250000D01*
X112814285Y-100202380D01*
X112814285Y-100297619D01*
X113290476Y-100535714D02*
X113290476Y-101202380D01*
X113290476Y-100630952D02*
X113338095Y-100583333D01*
X113433333Y-100535714D01*
X113576190Y-100535714D01*
X113671428Y-100583333D01*
X113719047Y-100678571D01*
X113719047Y-101202380D01*
X114052380Y-100535714D02*
X114433333Y-100535714D01*
X114195238Y-100202380D02*
X114195238Y-101059523D01*
X114242857Y-101154761D01*
X114338095Y-101202380D01*
X114433333Y-101202380D01*
X109838095Y-96802380D02*
X110409523Y-96802380D01*
X110123809Y-97802380D02*
X110123809Y-96802380D01*
X110742857Y-97802380D02*
X110742857Y-96802380D01*
X111123809Y-96802380D01*
X111219047Y-96850000D01*
X111266666Y-96897619D01*
X111314285Y-96992857D01*
X111314285Y-97135714D01*
X111266666Y-97230952D01*
X111219047Y-97278571D01*
X111123809Y-97326190D01*
X110742857Y-97326190D01*
X112266666Y-97802380D02*
X111695238Y-97802380D01*
X111980952Y-97802380D02*
X111980952Y-96802380D01*
X111885714Y-96945238D01*
X111790476Y-97040476D01*
X111695238Y-97088095D01*
X82302380Y-101766190D02*
X81826190Y-102099523D01*
X82302380Y-102337619D02*
X81302380Y-102337619D01*
X81302380Y-101956666D01*
X81350000Y-101861428D01*
X81397619Y-101813809D01*
X81492857Y-101766190D01*
X81635714Y-101766190D01*
X81730952Y-101813809D01*
X81778571Y-101861428D01*
X81826190Y-101956666D01*
X81826190Y-102337619D01*
X81302380Y-101480476D02*
X81302380Y-100909047D01*
X82302380Y-101194761D02*
X81302380Y-101194761D01*
X82302380Y-100528095D02*
X82302380Y-100337619D01*
X82254761Y-100242380D01*
X82207142Y-100194761D01*
X82064285Y-100099523D01*
X81873809Y-100051904D01*
X81492857Y-100051904D01*
X81397619Y-100099523D01*
X81350000Y-100147142D01*
X81302380Y-100242380D01*
X81302380Y-100432857D01*
X81350000Y-100528095D01*
X81397619Y-100575714D01*
X81492857Y-100623333D01*
X81730952Y-100623333D01*
X81826190Y-100575714D01*
X81873809Y-100528095D01*
X81921428Y-100432857D01*
X81921428Y-100242380D01*
X81873809Y-100147142D01*
X81826190Y-100099523D01*
X81730952Y-100051904D01*
X81302380Y-99718571D02*
X81302380Y-99051904D01*
X82302380Y-99480476D01*
X81302380Y-98480476D02*
X81302380Y-98385238D01*
X81350000Y-98290000D01*
X81397619Y-98242380D01*
X81492857Y-98194761D01*
X81683333Y-98147142D01*
X81921428Y-98147142D01*
X82111904Y-98194761D01*
X82207142Y-98242380D01*
X82254761Y-98290000D01*
X82302380Y-98385238D01*
X82302380Y-98480476D01*
X82254761Y-98575714D01*
X82207142Y-98623333D01*
X82111904Y-98670952D01*
X81921428Y-98718571D01*
X81683333Y-98718571D01*
X81492857Y-98670952D01*
X81397619Y-98623333D01*
X81350000Y-98575714D01*
X81302380Y-98480476D01*
X82302380Y-97194761D02*
X82302380Y-97766190D01*
X82302380Y-97480476D02*
X81302380Y-97480476D01*
X81445238Y-97575714D01*
X81540476Y-97670952D01*
X81588095Y-97766190D01*
D14*
X83969047Y-99516190D02*
X83969047Y-99920952D01*
X83992857Y-99968571D01*
X84016666Y-99992380D01*
X84064285Y-100016190D01*
X84159523Y-100016190D01*
X84207142Y-99992380D01*
X84230952Y-99968571D01*
X84254761Y-99920952D01*
X84254761Y-99516190D01*
X84445238Y-99516190D02*
X84754761Y-99516190D01*
X84588095Y-99706666D01*
X84659523Y-99706666D01*
X84707142Y-99730476D01*
X84730952Y-99754285D01*
X84754761Y-99801904D01*
X84754761Y-99920952D01*
X84730952Y-99968571D01*
X84707142Y-99992380D01*
X84659523Y-100016190D01*
X84516666Y-100016190D01*
X84469047Y-99992380D01*
X84445238Y-99968571D01*
D12*
X125404761Y-106528571D02*
X125452380Y-106385714D01*
X125452380Y-106147619D01*
X125404761Y-106052380D01*
X125357142Y-106004761D01*
X125261904Y-105957142D01*
X125166666Y-105957142D01*
X125071428Y-106004761D01*
X125023809Y-106052380D01*
X124976190Y-106147619D01*
X124928571Y-106338095D01*
X124880952Y-106433333D01*
X124833333Y-106480952D01*
X124738095Y-106528571D01*
X124642857Y-106528571D01*
X124547619Y-106480952D01*
X124500000Y-106433333D01*
X124452380Y-106338095D01*
X124452380Y-106100000D01*
X124500000Y-105957142D01*
X125452380Y-105528571D02*
X124452380Y-105528571D01*
X124452380Y-105147619D01*
X124500000Y-105052380D01*
X124547619Y-105004761D01*
X124642857Y-104957142D01*
X124785714Y-104957142D01*
X124880952Y-105004761D01*
X124928571Y-105052380D01*
X124976190Y-105147619D01*
X124976190Y-105528571D01*
X124452380Y-104623809D02*
X125452380Y-103957142D01*
X124452380Y-103957142D02*
X125452380Y-104623809D01*
X124452380Y-103671428D02*
X124452380Y-103052380D01*
X124833333Y-103385714D01*
X124833333Y-103242857D01*
X124880952Y-103147619D01*
X124928571Y-103100000D01*
X125023809Y-103052380D01*
X125261904Y-103052380D01*
X125357142Y-103100000D01*
X125404761Y-103147619D01*
X125452380Y-103242857D01*
X125452380Y-103528571D01*
X125404761Y-103623809D01*
X125357142Y-103671428D01*
X124880952Y-102480952D02*
X124833333Y-102576190D01*
X124785714Y-102623809D01*
X124690476Y-102671428D01*
X124642857Y-102671428D01*
X124547619Y-102623809D01*
X124500000Y-102576190D01*
X124452380Y-102480952D01*
X124452380Y-102290476D01*
X124500000Y-102195238D01*
X124547619Y-102147619D01*
X124642857Y-102100000D01*
X124690476Y-102100000D01*
X124785714Y-102147619D01*
X124833333Y-102195238D01*
X124880952Y-102290476D01*
X124880952Y-102480952D01*
X124928571Y-102576190D01*
X124976190Y-102623809D01*
X125071428Y-102671428D01*
X125261904Y-102671428D01*
X125357142Y-102623809D01*
X125404761Y-102576190D01*
X125452380Y-102480952D01*
X125452380Y-102290476D01*
X125404761Y-102195238D01*
X125357142Y-102147619D01*
X125261904Y-102100000D01*
X125071428Y-102100000D01*
X124976190Y-102147619D01*
X124928571Y-102195238D01*
X124880952Y-102290476D01*
X125452380Y-101147619D02*
X125452380Y-101719047D01*
X125452380Y-101433333D02*
X124452380Y-101433333D01*
X124595238Y-101528571D01*
X124690476Y-101623809D01*
X124738095Y-101719047D01*
X125452380Y-100671428D02*
X125452380Y-100480952D01*
X125404761Y-100385714D01*
X125357142Y-100338095D01*
X125214285Y-100242857D01*
X125023809Y-100195238D01*
X124642857Y-100195238D01*
X124547619Y-100242857D01*
X124500000Y-100290476D01*
X124452380Y-100385714D01*
X124452380Y-100576190D01*
X124500000Y-100671428D01*
X124547619Y-100719047D01*
X124642857Y-100766666D01*
X124880952Y-100766666D01*
X124976190Y-100719047D01*
X125023809Y-100671428D01*
X125071428Y-100576190D01*
X125071428Y-100385714D01*
X125023809Y-100290476D01*
X124976190Y-100242857D01*
X124880952Y-100195238D01*
X125452380Y-99766666D02*
X124452380Y-99766666D01*
X125166666Y-99433333D01*
X124452380Y-99100000D01*
X125452380Y-99100000D01*
X124452380Y-98147619D02*
X124452380Y-98623809D01*
X124928571Y-98671428D01*
X124880952Y-98623809D01*
X124833333Y-98528571D01*
X124833333Y-98290476D01*
X124880952Y-98195238D01*
X124928571Y-98147619D01*
X125023809Y-98100000D01*
X125261904Y-98100000D01*
X125357142Y-98147619D01*
X125404761Y-98195238D01*
X125452380Y-98290476D01*
X125452380Y-98528571D01*
X125404761Y-98623809D01*
X125357142Y-98671428D01*
X125071428Y-97671428D02*
X125071428Y-96909523D01*
X125452380Y-95957142D02*
X125452380Y-96433333D01*
X124452380Y-96433333D01*
X125071428Y-95623809D02*
X125071428Y-94861904D01*
X124452380Y-94480952D02*
X124452380Y-93861904D01*
X124833333Y-94195238D01*
X124833333Y-94052380D01*
X124880952Y-93957142D01*
X124928571Y-93909523D01*
X125023809Y-93861904D01*
X125261904Y-93861904D01*
X125357142Y-93909523D01*
X125404761Y-93957142D01*
X125452380Y-94052380D01*
X125452380Y-94338095D01*
X125404761Y-94433333D01*
X125357142Y-94480952D01*
X125071428Y-93433333D02*
X125071428Y-92671428D01*
X124452380Y-92290476D02*
X124452380Y-91671428D01*
X124833333Y-92004761D01*
X124833333Y-91861904D01*
X124880952Y-91766666D01*
X124928571Y-91719047D01*
X125023809Y-91671428D01*
X125261904Y-91671428D01*
X125357142Y-91719047D01*
X125404761Y-91766666D01*
X125452380Y-91861904D01*
X125452380Y-92147619D01*
X125404761Y-92242857D01*
X125357142Y-92290476D01*
D14*
X127519047Y-98826190D02*
X127519047Y-99230952D01*
X127542857Y-99278571D01*
X127566666Y-99302380D01*
X127614285Y-99326190D01*
X127709523Y-99326190D01*
X127757142Y-99302380D01*
X127780952Y-99278571D01*
X127804761Y-99230952D01*
X127804761Y-98826190D01*
X128257142Y-98992857D02*
X128257142Y-99326190D01*
X128138095Y-98802380D02*
X128019047Y-99159523D01*
X128328571Y-99159523D01*
D12*
X89366666Y-96852380D02*
X89366666Y-95852380D01*
X89700000Y-96566666D01*
X90033333Y-95852380D01*
X90033333Y-96852380D01*
X91080952Y-96757142D02*
X91033333Y-96804761D01*
X90890476Y-96852380D01*
X90795238Y-96852380D01*
X90652380Y-96804761D01*
X90557142Y-96709523D01*
X90509523Y-96614285D01*
X90461904Y-96423809D01*
X90461904Y-96280952D01*
X90509523Y-96090476D01*
X90557142Y-95995238D01*
X90652380Y-95900000D01*
X90795238Y-95852380D01*
X90890476Y-95852380D01*
X91033333Y-95900000D01*
X91080952Y-95947619D01*
X91509523Y-96852380D02*
X91509523Y-95852380D01*
X91890476Y-95852380D01*
X91985714Y-95900000D01*
X92033333Y-95947619D01*
X92080952Y-96042857D01*
X92080952Y-96185714D01*
X92033333Y-96280952D01*
X91985714Y-96328571D01*
X91890476Y-96376190D01*
X91509523Y-96376190D01*
X92414285Y-95852380D02*
X93080952Y-95852380D01*
X92652380Y-96852380D01*
X93366666Y-95852380D02*
X93985714Y-95852380D01*
X93652380Y-96233333D01*
X93795238Y-96233333D01*
X93890476Y-96280952D01*
X93938095Y-96328571D01*
X93985714Y-96423809D01*
X93985714Y-96661904D01*
X93938095Y-96757142D01*
X93890476Y-96804761D01*
X93795238Y-96852380D01*
X93509523Y-96852380D01*
X93414285Y-96804761D01*
X93366666Y-96757142D01*
X94557142Y-96280952D02*
X94461904Y-96233333D01*
X94414285Y-96185714D01*
X94366666Y-96090476D01*
X94366666Y-96042857D01*
X94414285Y-95947619D01*
X94461904Y-95900000D01*
X94557142Y-95852380D01*
X94747619Y-95852380D01*
X94842857Y-95900000D01*
X94890476Y-95947619D01*
X94938095Y-96042857D01*
X94938095Y-96090476D01*
X94890476Y-96185714D01*
X94842857Y-96233333D01*
X94747619Y-96280952D01*
X94557142Y-96280952D01*
X94461904Y-96328571D01*
X94414285Y-96376190D01*
X94366666Y-96471428D01*
X94366666Y-96661904D01*
X94414285Y-96757142D01*
X94461904Y-96804761D01*
X94557142Y-96852380D01*
X94747619Y-96852380D01*
X94842857Y-96804761D01*
X94890476Y-96757142D01*
X94938095Y-96661904D01*
X94938095Y-96471428D01*
X94890476Y-96376190D01*
X94842857Y-96328571D01*
X94747619Y-96280952D01*
X95271428Y-95852380D02*
X95890476Y-95852380D01*
X95557142Y-96233333D01*
X95700000Y-96233333D01*
X95795238Y-96280952D01*
X95842857Y-96328571D01*
X95890476Y-96423809D01*
X95890476Y-96661904D01*
X95842857Y-96757142D01*
X95795238Y-96804761D01*
X95700000Y-96852380D01*
X95414285Y-96852380D01*
X95319047Y-96804761D01*
X95271428Y-96757142D01*
X96842857Y-96852380D02*
X96271428Y-96852380D01*
X96557142Y-96852380D02*
X96557142Y-95852380D01*
X96461904Y-95995238D01*
X96366666Y-96090476D01*
X96271428Y-96138095D01*
X97271428Y-96471428D02*
X98033333Y-96471428D01*
X98461904Y-95947619D02*
X98509523Y-95900000D01*
X98604761Y-95852380D01*
X98842857Y-95852380D01*
X98938095Y-95900000D01*
X98985714Y-95947619D01*
X99033333Y-96042857D01*
X99033333Y-96138095D01*
X98985714Y-96280952D01*
X98414285Y-96852380D01*
X99033333Y-96852380D01*
X99461904Y-96471428D02*
X100223809Y-96471428D01*
X100890476Y-95852380D02*
X101080952Y-95852380D01*
X101176190Y-95900000D01*
X101271428Y-95995238D01*
X101319047Y-96185714D01*
X101319047Y-96519047D01*
X101271428Y-96709523D01*
X101176190Y-96804761D01*
X101080952Y-96852380D01*
X100890476Y-96852380D01*
X100795238Y-96804761D01*
X100700000Y-96709523D01*
X100652380Y-96519047D01*
X100652380Y-96185714D01*
X100700000Y-95995238D01*
X100795238Y-95900000D01*
X100890476Y-95852380D01*
X101604761Y-95852380D02*
X102176190Y-95852380D01*
X101890476Y-96852380D02*
X101890476Y-95852380D01*
D14*
X95426190Y-99280952D02*
X95830952Y-99280952D01*
X95878571Y-99257142D01*
X95902380Y-99233333D01*
X95926190Y-99185714D01*
X95926190Y-99090476D01*
X95902380Y-99042857D01*
X95878571Y-99019047D01*
X95830952Y-98995238D01*
X95426190Y-98995238D01*
X95426190Y-98519047D02*
X95426190Y-98757142D01*
X95664285Y-98780952D01*
X95640476Y-98757142D01*
X95616666Y-98709523D01*
X95616666Y-98590476D01*
X95640476Y-98542857D01*
X95664285Y-98519047D01*
X95711904Y-98495238D01*
X95830952Y-98495238D01*
X95878571Y-98519047D01*
X95902380Y-98542857D01*
X95926190Y-98590476D01*
X95926190Y-98709523D01*
X95902380Y-98757142D01*
X95878571Y-98780952D01*
D12*
X141477380Y-140602380D02*
X140905952Y-140602380D01*
X141191666Y-140602380D02*
X141191666Y-139602380D01*
X141096428Y-139745238D01*
X141001190Y-139840476D01*
X140905952Y-139888095D01*
X142096428Y-139602380D02*
X142191666Y-139602380D01*
X142286904Y-139650000D01*
X142334523Y-139697619D01*
X142382142Y-139792857D01*
X142429761Y-139983333D01*
X142429761Y-140221428D01*
X142382142Y-140411904D01*
X142334523Y-140507142D01*
X142286904Y-140554761D01*
X142191666Y-140602380D01*
X142096428Y-140602380D01*
X142001190Y-140554761D01*
X141953571Y-140507142D01*
X141905952Y-140411904D01*
X141858333Y-140221428D01*
X141858333Y-139983333D01*
X141905952Y-139792857D01*
X141953571Y-139697619D01*
X142001190Y-139650000D01*
X142096428Y-139602380D01*
X143048809Y-139602380D02*
X143144047Y-139602380D01*
X143239285Y-139650000D01*
X143286904Y-139697619D01*
X143334523Y-139792857D01*
X143382142Y-139983333D01*
X143382142Y-140221428D01*
X143334523Y-140411904D01*
X143286904Y-140507142D01*
X143239285Y-140554761D01*
X143144047Y-140602380D01*
X143048809Y-140602380D01*
X142953571Y-140554761D01*
X142905952Y-140507142D01*
X142858333Y-140411904D01*
X142810714Y-140221428D01*
X142810714Y-139983333D01*
X142858333Y-139792857D01*
X142905952Y-139697619D01*
X142953571Y-139650000D01*
X143048809Y-139602380D01*
X143810714Y-139935714D02*
X143810714Y-140602380D01*
X143810714Y-140030952D02*
X143858333Y-139983333D01*
X143953571Y-139935714D01*
X144096428Y-139935714D01*
X144191666Y-139983333D01*
X144239285Y-140078571D01*
X144239285Y-140602380D01*
X145048809Y-140078571D02*
X144715476Y-140078571D01*
X144715476Y-140602380D02*
X144715476Y-139602380D01*
X145191666Y-139602380D01*
D13*
X142941666Y-141978571D02*
X142917857Y-142002380D01*
X142846428Y-142026190D01*
X142798809Y-142026190D01*
X142727380Y-142002380D01*
X142679761Y-141954761D01*
X142655952Y-141907142D01*
X142632142Y-141811904D01*
X142632142Y-141740476D01*
X142655952Y-141645238D01*
X142679761Y-141597619D01*
X142727380Y-141550000D01*
X142798809Y-141526190D01*
X142846428Y-141526190D01*
X142917857Y-141550000D01*
X142941666Y-141573809D01*
X143417857Y-142026190D02*
X143132142Y-142026190D01*
X143275000Y-142026190D02*
X143275000Y-141526190D01*
X143227380Y-141597619D01*
X143179761Y-141645238D01*
X143132142Y-141669047D01*
D12*
X103880952Y-114002380D02*
X103309523Y-114002380D01*
X103595238Y-114002380D02*
X103595238Y-113002380D01*
X103500000Y-113145238D01*
X103404761Y-113240476D01*
X103309523Y-113288095D01*
X104500000Y-113002380D02*
X104595238Y-113002380D01*
X104690476Y-113050000D01*
X104738095Y-113097619D01*
X104785714Y-113192857D01*
X104833333Y-113383333D01*
X104833333Y-113621428D01*
X104785714Y-113811904D01*
X104738095Y-113907142D01*
X104690476Y-113954761D01*
X104595238Y-114002380D01*
X104500000Y-114002380D01*
X104404761Y-113954761D01*
X104357142Y-113907142D01*
X104309523Y-113811904D01*
X104261904Y-113621428D01*
X104261904Y-113383333D01*
X104309523Y-113192857D01*
X104357142Y-113097619D01*
X104404761Y-113050000D01*
X104500000Y-113002380D01*
X105452380Y-113002380D02*
X105547619Y-113002380D01*
X105642857Y-113050000D01*
X105690476Y-113097619D01*
X105738095Y-113192857D01*
X105785714Y-113383333D01*
X105785714Y-113621428D01*
X105738095Y-113811904D01*
X105690476Y-113907142D01*
X105642857Y-113954761D01*
X105547619Y-114002380D01*
X105452380Y-114002380D01*
X105357142Y-113954761D01*
X105309523Y-113907142D01*
X105261904Y-113811904D01*
X105214285Y-113621428D01*
X105214285Y-113383333D01*
X105261904Y-113192857D01*
X105309523Y-113097619D01*
X105357142Y-113050000D01*
X105452380Y-113002380D01*
X106214285Y-113335714D02*
X106214285Y-114002380D01*
X106214285Y-113430952D02*
X106261904Y-113383333D01*
X106357142Y-113335714D01*
X106500000Y-113335714D01*
X106595238Y-113383333D01*
X106642857Y-113478571D01*
X106642857Y-114002380D01*
D13*
X104916666Y-112078571D02*
X104892857Y-112102380D01*
X104821428Y-112126190D01*
X104773809Y-112126190D01*
X104702380Y-112102380D01*
X104654761Y-112054761D01*
X104630952Y-112007142D01*
X104607142Y-111911904D01*
X104607142Y-111840476D01*
X104630952Y-111745238D01*
X104654761Y-111697619D01*
X104702380Y-111650000D01*
X104773809Y-111626190D01*
X104821428Y-111626190D01*
X104892857Y-111650000D01*
X104916666Y-111673809D01*
X105107142Y-111673809D02*
X105130952Y-111650000D01*
X105178571Y-111626190D01*
X105297619Y-111626190D01*
X105345238Y-111650000D01*
X105369047Y-111673809D01*
X105392857Y-111721428D01*
X105392857Y-111769047D01*
X105369047Y-111840476D01*
X105083333Y-112126190D01*
X105392857Y-112126190D01*
D12*
X103427380Y-111802380D02*
X102855952Y-111802380D01*
X103141666Y-111802380D02*
X103141666Y-110802380D01*
X103046428Y-110945238D01*
X102951190Y-111040476D01*
X102855952Y-111088095D01*
X104046428Y-110802380D02*
X104141666Y-110802380D01*
X104236904Y-110850000D01*
X104284523Y-110897619D01*
X104332142Y-110992857D01*
X104379761Y-111183333D01*
X104379761Y-111421428D01*
X104332142Y-111611904D01*
X104284523Y-111707142D01*
X104236904Y-111754761D01*
X104141666Y-111802380D01*
X104046428Y-111802380D01*
X103951190Y-111754761D01*
X103903571Y-111707142D01*
X103855952Y-111611904D01*
X103808333Y-111421428D01*
X103808333Y-111183333D01*
X103855952Y-110992857D01*
X103903571Y-110897619D01*
X103951190Y-110850000D01*
X104046428Y-110802380D01*
X104998809Y-110802380D02*
X105094047Y-110802380D01*
X105189285Y-110850000D01*
X105236904Y-110897619D01*
X105284523Y-110992857D01*
X105332142Y-111183333D01*
X105332142Y-111421428D01*
X105284523Y-111611904D01*
X105236904Y-111707142D01*
X105189285Y-111754761D01*
X105094047Y-111802380D01*
X104998809Y-111802380D01*
X104903571Y-111754761D01*
X104855952Y-111707142D01*
X104808333Y-111611904D01*
X104760714Y-111421428D01*
X104760714Y-111183333D01*
X104808333Y-110992857D01*
X104855952Y-110897619D01*
X104903571Y-110850000D01*
X104998809Y-110802380D01*
X105760714Y-111135714D02*
X105760714Y-111802380D01*
X105760714Y-111230952D02*
X105808333Y-111183333D01*
X105903571Y-111135714D01*
X106046428Y-111135714D01*
X106141666Y-111183333D01*
X106189285Y-111278571D01*
X106189285Y-111802380D01*
X106998809Y-111278571D02*
X106665476Y-111278571D01*
X106665476Y-111802380D02*
X106665476Y-110802380D01*
X107141666Y-110802380D01*
D13*
X104891666Y-109878571D02*
X104867857Y-109902380D01*
X104796428Y-109926190D01*
X104748809Y-109926190D01*
X104677380Y-109902380D01*
X104629761Y-109854761D01*
X104605952Y-109807142D01*
X104582142Y-109711904D01*
X104582142Y-109640476D01*
X104605952Y-109545238D01*
X104629761Y-109497619D01*
X104677380Y-109450000D01*
X104748809Y-109426190D01*
X104796428Y-109426190D01*
X104867857Y-109450000D01*
X104891666Y-109473809D01*
X105058333Y-109426190D02*
X105367857Y-109426190D01*
X105201190Y-109616666D01*
X105272619Y-109616666D01*
X105320238Y-109640476D01*
X105344047Y-109664285D01*
X105367857Y-109711904D01*
X105367857Y-109830952D01*
X105344047Y-109878571D01*
X105320238Y-109902380D01*
X105272619Y-109926190D01*
X105129761Y-109926190D01*
X105082142Y-109902380D01*
X105058333Y-109878571D01*
D12*
X103902380Y-112046428D02*
X103902380Y-112617857D01*
X103902380Y-112332142D02*
X102902380Y-112332142D01*
X103045238Y-112427380D01*
X103140476Y-112522619D01*
X103188095Y-112617857D01*
X102902380Y-111427380D02*
X102902380Y-111332142D01*
X102950000Y-111236904D01*
X102997619Y-111189285D01*
X103092857Y-111141666D01*
X103283333Y-111094047D01*
X103521428Y-111094047D01*
X103711904Y-111141666D01*
X103807142Y-111189285D01*
X103854761Y-111236904D01*
X103902380Y-111332142D01*
X103902380Y-111427380D01*
X103854761Y-111522619D01*
X103807142Y-111570238D01*
X103711904Y-111617857D01*
X103521428Y-111665476D01*
X103283333Y-111665476D01*
X103092857Y-111617857D01*
X102997619Y-111570238D01*
X102950000Y-111522619D01*
X102902380Y-111427380D01*
X103235714Y-110236904D02*
X103902380Y-110236904D01*
X103235714Y-110665476D02*
X103759523Y-110665476D01*
X103854761Y-110617857D01*
X103902380Y-110522619D01*
X103902380Y-110379761D01*
X103854761Y-110284523D01*
X103807142Y-110236904D01*
X103378571Y-109427380D02*
X103378571Y-109760714D01*
X103902380Y-109760714D02*
X102902380Y-109760714D01*
X102902380Y-109284523D01*
D13*
X101978571Y-111058333D02*
X102002380Y-111082142D01*
X102026190Y-111153571D01*
X102026190Y-111201190D01*
X102002380Y-111272619D01*
X101954761Y-111320238D01*
X101907142Y-111344047D01*
X101811904Y-111367857D01*
X101740476Y-111367857D01*
X101645238Y-111344047D01*
X101597619Y-111320238D01*
X101550000Y-111272619D01*
X101526190Y-111201190D01*
X101526190Y-111153571D01*
X101550000Y-111082142D01*
X101573809Y-111058333D01*
X101692857Y-110629761D02*
X102026190Y-110629761D01*
X101502380Y-110748809D02*
X101859523Y-110867857D01*
X101859523Y-110558333D01*
D12*
X101702380Y-112094047D02*
X101702380Y-112665476D01*
X101702380Y-112379761D02*
X100702380Y-112379761D01*
X100845238Y-112475000D01*
X100940476Y-112570238D01*
X100988095Y-112665476D01*
X100702380Y-111475000D02*
X100702380Y-111379761D01*
X100750000Y-111284523D01*
X100797619Y-111236904D01*
X100892857Y-111189285D01*
X101083333Y-111141666D01*
X101321428Y-111141666D01*
X101511904Y-111189285D01*
X101607142Y-111236904D01*
X101654761Y-111284523D01*
X101702380Y-111379761D01*
X101702380Y-111475000D01*
X101654761Y-111570238D01*
X101607142Y-111617857D01*
X101511904Y-111665476D01*
X101321428Y-111713095D01*
X101083333Y-111713095D01*
X100892857Y-111665476D01*
X100797619Y-111617857D01*
X100750000Y-111570238D01*
X100702380Y-111475000D01*
X100702380Y-110522619D02*
X100702380Y-110427380D01*
X100750000Y-110332142D01*
X100797619Y-110284523D01*
X100892857Y-110236904D01*
X101083333Y-110189285D01*
X101321428Y-110189285D01*
X101511904Y-110236904D01*
X101607142Y-110284523D01*
X101654761Y-110332142D01*
X101702380Y-110427380D01*
X101702380Y-110522619D01*
X101654761Y-110617857D01*
X101607142Y-110665476D01*
X101511904Y-110713095D01*
X101321428Y-110760714D01*
X101083333Y-110760714D01*
X100892857Y-110713095D01*
X100797619Y-110665476D01*
X100750000Y-110617857D01*
X100702380Y-110522619D01*
X101035714Y-109760714D02*
X101702380Y-109760714D01*
X101130952Y-109760714D02*
X101083333Y-109713095D01*
X101035714Y-109617857D01*
X101035714Y-109475000D01*
X101083333Y-109379761D01*
X101178571Y-109332142D01*
X101702380Y-109332142D01*
D13*
X99778571Y-111058333D02*
X99802380Y-111082142D01*
X99826190Y-111153571D01*
X99826190Y-111201190D01*
X99802380Y-111272619D01*
X99754761Y-111320238D01*
X99707142Y-111344047D01*
X99611904Y-111367857D01*
X99540476Y-111367857D01*
X99445238Y-111344047D01*
X99397619Y-111320238D01*
X99350000Y-111272619D01*
X99326190Y-111201190D01*
X99326190Y-111153571D01*
X99350000Y-111082142D01*
X99373809Y-111058333D01*
X99326190Y-110605952D02*
X99326190Y-110844047D01*
X99564285Y-110867857D01*
X99540476Y-110844047D01*
X99516666Y-110796428D01*
X99516666Y-110677380D01*
X99540476Y-110629761D01*
X99564285Y-110605952D01*
X99611904Y-110582142D01*
X99730952Y-110582142D01*
X99778571Y-110605952D01*
X99802380Y-110629761D01*
X99826190Y-110677380D01*
X99826190Y-110796428D01*
X99802380Y-110844047D01*
X99778571Y-110867857D01*
D12*
X99602380Y-112472619D02*
X99602380Y-113044047D01*
X99602380Y-112758333D02*
X98602380Y-112758333D01*
X98745238Y-112853571D01*
X98840476Y-112948809D01*
X98888095Y-113044047D01*
X98602380Y-111853571D02*
X98602380Y-111758333D01*
X98650000Y-111663095D01*
X98697619Y-111615476D01*
X98792857Y-111567857D01*
X98983333Y-111520238D01*
X99221428Y-111520238D01*
X99411904Y-111567857D01*
X99507142Y-111615476D01*
X99554761Y-111663095D01*
X99602380Y-111758333D01*
X99602380Y-111853571D01*
X99554761Y-111948809D01*
X99507142Y-111996428D01*
X99411904Y-112044047D01*
X99221428Y-112091666D01*
X98983333Y-112091666D01*
X98792857Y-112044047D01*
X98697619Y-111996428D01*
X98650000Y-111948809D01*
X98602380Y-111853571D01*
X98602380Y-110901190D02*
X98602380Y-110805952D01*
X98650000Y-110710714D01*
X98697619Y-110663095D01*
X98792857Y-110615476D01*
X98983333Y-110567857D01*
X99221428Y-110567857D01*
X99411904Y-110615476D01*
X99507142Y-110663095D01*
X99554761Y-110710714D01*
X99602380Y-110805952D01*
X99602380Y-110901190D01*
X99554761Y-110996428D01*
X99507142Y-111044047D01*
X99411904Y-111091666D01*
X99221428Y-111139285D01*
X98983333Y-111139285D01*
X98792857Y-111091666D01*
X98697619Y-111044047D01*
X98650000Y-110996428D01*
X98602380Y-110901190D01*
X98935714Y-110139285D02*
X99602380Y-110139285D01*
X99030952Y-110139285D02*
X98983333Y-110091666D01*
X98935714Y-109996428D01*
X98935714Y-109853571D01*
X98983333Y-109758333D01*
X99078571Y-109710714D01*
X99602380Y-109710714D01*
X99078571Y-108901190D02*
X99078571Y-109234523D01*
X99602380Y-109234523D02*
X98602380Y-109234523D01*
X98602380Y-108758333D01*
D13*
X97678571Y-111008333D02*
X97702380Y-111032142D01*
X97726190Y-111103571D01*
X97726190Y-111151190D01*
X97702380Y-111222619D01*
X97654761Y-111270238D01*
X97607142Y-111294047D01*
X97511904Y-111317857D01*
X97440476Y-111317857D01*
X97345238Y-111294047D01*
X97297619Y-111270238D01*
X97250000Y-111222619D01*
X97226190Y-111151190D01*
X97226190Y-111103571D01*
X97250000Y-111032142D01*
X97273809Y-111008333D01*
X97226190Y-110579761D02*
X97226190Y-110675000D01*
X97250000Y-110722619D01*
X97273809Y-110746428D01*
X97345238Y-110794047D01*
X97440476Y-110817857D01*
X97630952Y-110817857D01*
X97678571Y-110794047D01*
X97702380Y-110770238D01*
X97726190Y-110722619D01*
X97726190Y-110627380D01*
X97702380Y-110579761D01*
X97678571Y-110555952D01*
X97630952Y-110532142D01*
X97511904Y-110532142D01*
X97464285Y-110555952D01*
X97440476Y-110579761D01*
X97416666Y-110627380D01*
X97416666Y-110722619D01*
X97440476Y-110770238D01*
X97464285Y-110794047D01*
X97511904Y-110817857D01*
D12*
X101329761Y-134202380D02*
X100758333Y-134202380D01*
X101044047Y-134202380D02*
X101044047Y-133202380D01*
X100948809Y-133345238D01*
X100853571Y-133440476D01*
X100758333Y-133488095D01*
X102186904Y-133535714D02*
X102186904Y-134202380D01*
X101758333Y-133535714D02*
X101758333Y-134059523D01*
X101805952Y-134154761D01*
X101901190Y-134202380D01*
X102044047Y-134202380D01*
X102139285Y-134154761D01*
X102186904Y-134107142D01*
X102996428Y-133678571D02*
X102663095Y-133678571D01*
X102663095Y-134202380D02*
X102663095Y-133202380D01*
X103139285Y-133202380D01*
D13*
X101841666Y-135578571D02*
X101817857Y-135602380D01*
X101746428Y-135626190D01*
X101698809Y-135626190D01*
X101627380Y-135602380D01*
X101579761Y-135554761D01*
X101555952Y-135507142D01*
X101532142Y-135411904D01*
X101532142Y-135340476D01*
X101555952Y-135245238D01*
X101579761Y-135197619D01*
X101627380Y-135150000D01*
X101698809Y-135126190D01*
X101746428Y-135126190D01*
X101817857Y-135150000D01*
X101841666Y-135173809D01*
X102008333Y-135126190D02*
X102341666Y-135126190D01*
X102127380Y-135626190D01*
D12*
X71702380Y-100247619D02*
X71702380Y-100819047D01*
X71702380Y-100533333D02*
X70702380Y-100533333D01*
X70845238Y-100628571D01*
X70940476Y-100723809D01*
X70988095Y-100819047D01*
X70702380Y-99628571D02*
X70702380Y-99533333D01*
X70750000Y-99438095D01*
X70797619Y-99390476D01*
X70892857Y-99342857D01*
X71083333Y-99295238D01*
X71321428Y-99295238D01*
X71511904Y-99342857D01*
X71607142Y-99390476D01*
X71654761Y-99438095D01*
X71702380Y-99533333D01*
X71702380Y-99628571D01*
X71654761Y-99723809D01*
X71607142Y-99771428D01*
X71511904Y-99819047D01*
X71321428Y-99866666D01*
X71083333Y-99866666D01*
X70892857Y-99819047D01*
X70797619Y-99771428D01*
X70750000Y-99723809D01*
X70702380Y-99628571D01*
X70702380Y-98676190D02*
X70702380Y-98580952D01*
X70750000Y-98485714D01*
X70797619Y-98438095D01*
X70892857Y-98390476D01*
X71083333Y-98342857D01*
X71321428Y-98342857D01*
X71511904Y-98390476D01*
X71607142Y-98438095D01*
X71654761Y-98485714D01*
X71702380Y-98580952D01*
X71702380Y-98676190D01*
X71654761Y-98771428D01*
X71607142Y-98819047D01*
X71511904Y-98866666D01*
X71321428Y-98914285D01*
X71083333Y-98914285D01*
X70892857Y-98866666D01*
X70797619Y-98819047D01*
X70750000Y-98771428D01*
X70702380Y-98676190D01*
X71035714Y-97914285D02*
X71702380Y-97914285D01*
X71130952Y-97914285D02*
X71083333Y-97866666D01*
X71035714Y-97771428D01*
X71035714Y-97628571D01*
X71083333Y-97533333D01*
X71178571Y-97485714D01*
X71702380Y-97485714D01*
X71178571Y-96676190D02*
X71178571Y-97009523D01*
X71702380Y-97009523D02*
X70702380Y-97009523D01*
X70702380Y-96533333D01*
D13*
X73078571Y-98783333D02*
X73102380Y-98807142D01*
X73126190Y-98878571D01*
X73126190Y-98926190D01*
X73102380Y-98997619D01*
X73054761Y-99045238D01*
X73007142Y-99069047D01*
X72911904Y-99092857D01*
X72840476Y-99092857D01*
X72745238Y-99069047D01*
X72697619Y-99045238D01*
X72650000Y-98997619D01*
X72626190Y-98926190D01*
X72626190Y-98878571D01*
X72650000Y-98807142D01*
X72673809Y-98783333D01*
X72840476Y-98497619D02*
X72816666Y-98545238D01*
X72792857Y-98569047D01*
X72745238Y-98592857D01*
X72721428Y-98592857D01*
X72673809Y-98569047D01*
X72650000Y-98545238D01*
X72626190Y-98497619D01*
X72626190Y-98402380D01*
X72650000Y-98354761D01*
X72673809Y-98330952D01*
X72721428Y-98307142D01*
X72745238Y-98307142D01*
X72792857Y-98330952D01*
X72816666Y-98354761D01*
X72840476Y-98402380D01*
X72840476Y-98497619D01*
X72864285Y-98545238D01*
X72888095Y-98569047D01*
X72935714Y-98592857D01*
X73030952Y-98592857D01*
X73078571Y-98569047D01*
X73102380Y-98545238D01*
X73126190Y-98497619D01*
X73126190Y-98402380D01*
X73102380Y-98354761D01*
X73078571Y-98330952D01*
X73030952Y-98307142D01*
X72935714Y-98307142D01*
X72888095Y-98330952D01*
X72864285Y-98354761D01*
X72840476Y-98402380D01*
D12*
X80152380Y-100271428D02*
X80152380Y-100842857D01*
X80152380Y-100557142D02*
X79152380Y-100557142D01*
X79295238Y-100652380D01*
X79390476Y-100747619D01*
X79438095Y-100842857D01*
X79152380Y-99652380D02*
X79152380Y-99557142D01*
X79200000Y-99461904D01*
X79247619Y-99414285D01*
X79342857Y-99366666D01*
X79533333Y-99319047D01*
X79771428Y-99319047D01*
X79961904Y-99366666D01*
X80057142Y-99414285D01*
X80104761Y-99461904D01*
X80152380Y-99557142D01*
X80152380Y-99652380D01*
X80104761Y-99747619D01*
X80057142Y-99795238D01*
X79961904Y-99842857D01*
X79771428Y-99890476D01*
X79533333Y-99890476D01*
X79342857Y-99842857D01*
X79247619Y-99795238D01*
X79200000Y-99747619D01*
X79152380Y-99652380D01*
X79485714Y-98461904D02*
X80152380Y-98461904D01*
X79485714Y-98890476D02*
X80009523Y-98890476D01*
X80104761Y-98842857D01*
X80152380Y-98747619D01*
X80152380Y-98604761D01*
X80104761Y-98509523D01*
X80057142Y-98461904D01*
X79628571Y-97652380D02*
X79628571Y-97985714D01*
X80152380Y-97985714D02*
X79152380Y-97985714D01*
X79152380Y-97509523D01*
D11*
X76785714Y-99333333D02*
X76823809Y-99371428D01*
X76861904Y-99485714D01*
X76861904Y-99561904D01*
X76823809Y-99676190D01*
X76747619Y-99752380D01*
X76671428Y-99790476D01*
X76519047Y-99828571D01*
X76404761Y-99828571D01*
X76252380Y-99790476D01*
X76176190Y-99752380D01*
X76100000Y-99676190D01*
X76061904Y-99561904D01*
X76061904Y-99485714D01*
X76100000Y-99371428D01*
X76138095Y-99333333D01*
X76861904Y-98952380D02*
X76861904Y-98800000D01*
X76823809Y-98723809D01*
X76785714Y-98685714D01*
X76671428Y-98609523D01*
X76519047Y-98571428D01*
X76214285Y-98571428D01*
X76138095Y-98609523D01*
X76100000Y-98647619D01*
X76061904Y-98723809D01*
X76061904Y-98876190D01*
X76100000Y-98952380D01*
X76138095Y-98990476D01*
X76214285Y-99028571D01*
X76404761Y-99028571D01*
X76480952Y-98990476D01*
X76519047Y-98952380D01*
X76557142Y-98876190D01*
X76557142Y-98723809D01*
X76519047Y-98647619D01*
X76480952Y-98609523D01*
X76404761Y-98571428D01*
D12*
X82202380Y-100172619D02*
X82202380Y-100744047D01*
X82202380Y-100458333D02*
X81202380Y-100458333D01*
X81345238Y-100553571D01*
X81440476Y-100648809D01*
X81488095Y-100744047D01*
X81202380Y-99553571D02*
X81202380Y-99458333D01*
X81250000Y-99363095D01*
X81297619Y-99315476D01*
X81392857Y-99267857D01*
X81583333Y-99220238D01*
X81821428Y-99220238D01*
X82011904Y-99267857D01*
X82107142Y-99315476D01*
X82154761Y-99363095D01*
X82202380Y-99458333D01*
X82202380Y-99553571D01*
X82154761Y-99648809D01*
X82107142Y-99696428D01*
X82011904Y-99744047D01*
X81821428Y-99791666D01*
X81583333Y-99791666D01*
X81392857Y-99744047D01*
X81297619Y-99696428D01*
X81250000Y-99648809D01*
X81202380Y-99553571D01*
X81202380Y-98601190D02*
X81202380Y-98505952D01*
X81250000Y-98410714D01*
X81297619Y-98363095D01*
X81392857Y-98315476D01*
X81583333Y-98267857D01*
X81821428Y-98267857D01*
X82011904Y-98315476D01*
X82107142Y-98363095D01*
X82154761Y-98410714D01*
X82202380Y-98505952D01*
X82202380Y-98601190D01*
X82154761Y-98696428D01*
X82107142Y-98744047D01*
X82011904Y-98791666D01*
X81821428Y-98839285D01*
X81583333Y-98839285D01*
X81392857Y-98791666D01*
X81297619Y-98744047D01*
X81250000Y-98696428D01*
X81202380Y-98601190D01*
X81535714Y-97839285D02*
X82202380Y-97839285D01*
X81630952Y-97839285D02*
X81583333Y-97791666D01*
X81535714Y-97696428D01*
X81535714Y-97553571D01*
X81583333Y-97458333D01*
X81678571Y-97410714D01*
X82202380Y-97410714D01*
X81678571Y-96601190D02*
X81678571Y-96934523D01*
X82202380Y-96934523D02*
X81202380Y-96934523D01*
X81202380Y-96458333D01*
D13*
X80278571Y-98946428D02*
X80302380Y-98970238D01*
X80326190Y-99041666D01*
X80326190Y-99089285D01*
X80302380Y-99160714D01*
X80254761Y-99208333D01*
X80207142Y-99232142D01*
X80111904Y-99255952D01*
X80040476Y-99255952D01*
X79945238Y-99232142D01*
X79897619Y-99208333D01*
X79850000Y-99160714D01*
X79826190Y-99089285D01*
X79826190Y-99041666D01*
X79850000Y-98970238D01*
X79873809Y-98946428D01*
X80326190Y-98470238D02*
X80326190Y-98755952D01*
X80326190Y-98613095D02*
X79826190Y-98613095D01*
X79897619Y-98660714D01*
X79945238Y-98708333D01*
X79969047Y-98755952D01*
X79826190Y-98160714D02*
X79826190Y-98113095D01*
X79850000Y-98065476D01*
X79873809Y-98041666D01*
X79921428Y-98017857D01*
X80016666Y-97994047D01*
X80135714Y-97994047D01*
X80230952Y-98017857D01*
X80278571Y-98041666D01*
X80302380Y-98065476D01*
X80326190Y-98113095D01*
X80326190Y-98160714D01*
X80302380Y-98208333D01*
X80278571Y-98232142D01*
X80230952Y-98255952D01*
X80135714Y-98279761D01*
X80016666Y-98279761D01*
X79921428Y-98255952D01*
X79873809Y-98232142D01*
X79850000Y-98208333D01*
X79826190Y-98160714D01*
D12*
X134052380Y-100902380D02*
X133480952Y-100902380D01*
X133766666Y-100902380D02*
X133766666Y-99902380D01*
X133671428Y-100045238D01*
X133576190Y-100140476D01*
X133480952Y-100188095D01*
X134671428Y-99902380D02*
X134766666Y-99902380D01*
X134861904Y-99950000D01*
X134909523Y-99997619D01*
X134957142Y-100092857D01*
X135004761Y-100283333D01*
X135004761Y-100521428D01*
X134957142Y-100711904D01*
X134909523Y-100807142D01*
X134861904Y-100854761D01*
X134766666Y-100902380D01*
X134671428Y-100902380D01*
X134576190Y-100854761D01*
X134528571Y-100807142D01*
X134480952Y-100711904D01*
X134433333Y-100521428D01*
X134433333Y-100283333D01*
X134480952Y-100092857D01*
X134528571Y-99997619D01*
X134576190Y-99950000D01*
X134671428Y-99902380D01*
X135623809Y-99902380D02*
X135719047Y-99902380D01*
X135814285Y-99950000D01*
X135861904Y-99997619D01*
X135909523Y-100092857D01*
X135957142Y-100283333D01*
X135957142Y-100521428D01*
X135909523Y-100711904D01*
X135861904Y-100807142D01*
X135814285Y-100854761D01*
X135719047Y-100902380D01*
X135623809Y-100902380D01*
X135528571Y-100854761D01*
X135480952Y-100807142D01*
X135433333Y-100711904D01*
X135385714Y-100521428D01*
X135385714Y-100283333D01*
X135433333Y-100092857D01*
X135480952Y-99997619D01*
X135528571Y-99950000D01*
X135623809Y-99902380D01*
X136385714Y-100235714D02*
X136385714Y-100902380D01*
X136385714Y-100330952D02*
X136433333Y-100283333D01*
X136528571Y-100235714D01*
X136671428Y-100235714D01*
X136766666Y-100283333D01*
X136814285Y-100378571D01*
X136814285Y-100902380D01*
X137623809Y-100378571D02*
X137290476Y-100378571D01*
X137290476Y-100902380D02*
X137290476Y-99902380D01*
X137766666Y-99902380D01*
D13*
X135278571Y-98978571D02*
X135254761Y-99002380D01*
X135183333Y-99026190D01*
X135135714Y-99026190D01*
X135064285Y-99002380D01*
X135016666Y-98954761D01*
X134992857Y-98907142D01*
X134969047Y-98811904D01*
X134969047Y-98740476D01*
X134992857Y-98645238D01*
X135016666Y-98597619D01*
X135064285Y-98550000D01*
X135135714Y-98526190D01*
X135183333Y-98526190D01*
X135254761Y-98550000D01*
X135278571Y-98573809D01*
X135754761Y-99026190D02*
X135469047Y-99026190D01*
X135611904Y-99026190D02*
X135611904Y-98526190D01*
X135564285Y-98597619D01*
X135516666Y-98645238D01*
X135469047Y-98669047D01*
X136230952Y-99026190D02*
X135945238Y-99026190D01*
X136088095Y-99026190D02*
X136088095Y-98526190D01*
X136040476Y-98597619D01*
X135992857Y-98645238D01*
X135945238Y-98669047D01*
D12*
X134728571Y-107652380D02*
X134157142Y-107652380D01*
X134442857Y-107652380D02*
X134442857Y-106652380D01*
X134347619Y-106795238D01*
X134252380Y-106890476D01*
X134157142Y-106938095D01*
X135347619Y-106652380D02*
X135442857Y-106652380D01*
X135538095Y-106700000D01*
X135585714Y-106747619D01*
X135633333Y-106842857D01*
X135680952Y-107033333D01*
X135680952Y-107271428D01*
X135633333Y-107461904D01*
X135585714Y-107557142D01*
X135538095Y-107604761D01*
X135442857Y-107652380D01*
X135347619Y-107652380D01*
X135252380Y-107604761D01*
X135204761Y-107557142D01*
X135157142Y-107461904D01*
X135109523Y-107271428D01*
X135109523Y-107033333D01*
X135157142Y-106842857D01*
X135204761Y-106747619D01*
X135252380Y-106700000D01*
X135347619Y-106652380D01*
X136538095Y-106985714D02*
X136538095Y-107652380D01*
X136109523Y-106985714D02*
X136109523Y-107509523D01*
X136157142Y-107604761D01*
X136252380Y-107652380D01*
X136395238Y-107652380D01*
X136490476Y-107604761D01*
X136538095Y-107557142D01*
X137347619Y-107128571D02*
X137014285Y-107128571D01*
X137014285Y-107652380D02*
X137014285Y-106652380D01*
X137490476Y-106652380D01*
D11*
X135285714Y-104285714D02*
X135247619Y-104323809D01*
X135133333Y-104361904D01*
X135057142Y-104361904D01*
X134942857Y-104323809D01*
X134866666Y-104247619D01*
X134828571Y-104171428D01*
X134790476Y-104019047D01*
X134790476Y-103904761D01*
X134828571Y-103752380D01*
X134866666Y-103676190D01*
X134942857Y-103600000D01*
X135057142Y-103561904D01*
X135133333Y-103561904D01*
X135247619Y-103600000D01*
X135285714Y-103638095D01*
X136047619Y-104361904D02*
X135590476Y-104361904D01*
X135819047Y-104361904D02*
X135819047Y-103561904D01*
X135742857Y-103676190D01*
X135666666Y-103752380D01*
X135590476Y-103790476D01*
X136352380Y-103638095D02*
X136390476Y-103600000D01*
X136466666Y-103561904D01*
X136657142Y-103561904D01*
X136733333Y-103600000D01*
X136771428Y-103638095D01*
X136809523Y-103714285D01*
X136809523Y-103790476D01*
X136771428Y-103904761D01*
X136314285Y-104361904D01*
X136809523Y-104361904D01*
D12*
X131667142Y-150533333D02*
X131714761Y-150580952D01*
X131762380Y-150723809D01*
X131762380Y-150819047D01*
X131714761Y-150961904D01*
X131619523Y-151057142D01*
X131524285Y-151104761D01*
X131333809Y-151152380D01*
X131190952Y-151152380D01*
X131000476Y-151104761D01*
X130905238Y-151057142D01*
X130810000Y-150961904D01*
X130762380Y-150819047D01*
X130762380Y-150723809D01*
X130810000Y-150580952D01*
X130857619Y-150533333D01*
X131762380Y-149961904D02*
X131714761Y-150057142D01*
X131667142Y-150104761D01*
X131571904Y-150152380D01*
X131286190Y-150152380D01*
X131190952Y-150104761D01*
X131143333Y-150057142D01*
X131095714Y-149961904D01*
X131095714Y-149819047D01*
X131143333Y-149723809D01*
X131190952Y-149676190D01*
X131286190Y-149628571D01*
X131571904Y-149628571D01*
X131667142Y-149676190D01*
X131714761Y-149723809D01*
X131762380Y-149819047D01*
X131762380Y-149961904D01*
X131095714Y-149200000D02*
X131762380Y-149200000D01*
X131190952Y-149200000D02*
X131143333Y-149152380D01*
X131095714Y-149057142D01*
X131095714Y-148914285D01*
X131143333Y-148819047D01*
X131238571Y-148771428D01*
X131762380Y-148771428D01*
X131095714Y-148295238D02*
X131762380Y-148295238D01*
X131190952Y-148295238D02*
X131143333Y-148247619D01*
X131095714Y-148152380D01*
X131095714Y-148009523D01*
X131143333Y-147914285D01*
X131238571Y-147866666D01*
X131762380Y-147866666D01*
X131857619Y-147628571D02*
X131857619Y-146866666D01*
X130762380Y-146438095D02*
X130762380Y-146342857D01*
X130810000Y-146247619D01*
X130857619Y-146200000D01*
X130952857Y-146152380D01*
X131143333Y-146104761D01*
X131381428Y-146104761D01*
X131571904Y-146152380D01*
X131667142Y-146200000D01*
X131714761Y-146247619D01*
X131762380Y-146342857D01*
X131762380Y-146438095D01*
X131714761Y-146533333D01*
X131667142Y-146580952D01*
X131571904Y-146628571D01*
X131381428Y-146676190D01*
X131143333Y-146676190D01*
X130952857Y-146628571D01*
X130857619Y-146580952D01*
X130810000Y-146533333D01*
X130762380Y-146438095D01*
X131762380Y-145152380D02*
X131762380Y-145723809D01*
X131762380Y-145438095D02*
X130762380Y-145438095D01*
X130905238Y-145533333D01*
X131000476Y-145628571D01*
X131048095Y-145723809D01*
X131762380Y-144819047D02*
X131095714Y-144295238D01*
X131095714Y-144819047D02*
X131762380Y-144295238D01*
X130762380Y-143723809D02*
X130762380Y-143628571D01*
X130810000Y-143533333D01*
X130857619Y-143485714D01*
X130952857Y-143438095D01*
X131143333Y-143390476D01*
X131381428Y-143390476D01*
X131571904Y-143438095D01*
X131667142Y-143485714D01*
X131714761Y-143533333D01*
X131762380Y-143628571D01*
X131762380Y-143723809D01*
X131714761Y-143819047D01*
X131667142Y-143866666D01*
X131571904Y-143914285D01*
X131381428Y-143961904D01*
X131143333Y-143961904D01*
X130952857Y-143914285D01*
X130857619Y-143866666D01*
X130810000Y-143819047D01*
X130762380Y-143723809D01*
X130762380Y-142485714D02*
X130762380Y-142961904D01*
X131238571Y-143009523D01*
X131190952Y-142961904D01*
X131143333Y-142866666D01*
X131143333Y-142628571D01*
X131190952Y-142533333D01*
X131238571Y-142485714D01*
X131333809Y-142438095D01*
X131571904Y-142438095D01*
X131667142Y-142485714D01*
X131714761Y-142533333D01*
X131762380Y-142628571D01*
X131762380Y-142866666D01*
X131714761Y-142961904D01*
X131667142Y-143009523D01*
X131857619Y-142247619D02*
X131857619Y-141485714D01*
X131762380Y-141247619D02*
X130762380Y-141247619D01*
X131476666Y-140914285D01*
X130762380Y-140580952D01*
X131762380Y-140580952D01*
X131762380Y-139676190D02*
X131238571Y-139676190D01*
X131143333Y-139723809D01*
X131095714Y-139819047D01*
X131095714Y-140009523D01*
X131143333Y-140104761D01*
X131714761Y-139676190D02*
X131762380Y-139771428D01*
X131762380Y-140009523D01*
X131714761Y-140104761D01*
X131619523Y-140152380D01*
X131524285Y-140152380D01*
X131429047Y-140104761D01*
X131381428Y-140009523D01*
X131381428Y-139771428D01*
X131333809Y-139676190D01*
X131762380Y-139057142D02*
X131714761Y-139152380D01*
X131619523Y-139200000D01*
X130762380Y-139200000D01*
X131714761Y-138295238D02*
X131762380Y-138390476D01*
X131762380Y-138580952D01*
X131714761Y-138676190D01*
X131619523Y-138723809D01*
X131238571Y-138723809D01*
X131143333Y-138676190D01*
X131095714Y-138580952D01*
X131095714Y-138390476D01*
X131143333Y-138295238D01*
X131238571Y-138247619D01*
X131333809Y-138247619D01*
X131429047Y-138723809D01*
X138386666Y-144152380D02*
X138386666Y-144866666D01*
X138339047Y-145009523D01*
X138243809Y-145104761D01*
X138100952Y-145152380D01*
X138005714Y-145152380D01*
X139386666Y-145152380D02*
X138815238Y-145152380D01*
X139100952Y-145152380D02*
X139100952Y-144152380D01*
X139005714Y-144295238D01*
X138910476Y-144390476D01*
X138815238Y-144438095D01*
X63352380Y-104647619D02*
X64161904Y-104647619D01*
X64257142Y-104600000D01*
X64304761Y-104552380D01*
X64352380Y-104457142D01*
X64352380Y-104266666D01*
X64304761Y-104171428D01*
X64257142Y-104123809D01*
X64161904Y-104076190D01*
X63352380Y-104076190D01*
X64304761Y-103647619D02*
X64352380Y-103504761D01*
X64352380Y-103266666D01*
X64304761Y-103171428D01*
X64257142Y-103123809D01*
X64161904Y-103076190D01*
X64066666Y-103076190D01*
X63971428Y-103123809D01*
X63923809Y-103171428D01*
X63876190Y-103266666D01*
X63828571Y-103457142D01*
X63780952Y-103552380D01*
X63733333Y-103600000D01*
X63638095Y-103647619D01*
X63542857Y-103647619D01*
X63447619Y-103600000D01*
X63400000Y-103552380D01*
X63352380Y-103457142D01*
X63352380Y-103219047D01*
X63400000Y-103076190D01*
X63828571Y-102314285D02*
X63876190Y-102171428D01*
X63923809Y-102123809D01*
X64019047Y-102076190D01*
X64161904Y-102076190D01*
X64257142Y-102123809D01*
X64304761Y-102171428D01*
X64352380Y-102266666D01*
X64352380Y-102647619D01*
X63352380Y-102647619D01*
X63352380Y-102314285D01*
X63400000Y-102219047D01*
X63447619Y-102171428D01*
X63542857Y-102123809D01*
X63638095Y-102123809D01*
X63733333Y-102171428D01*
X63780952Y-102219047D01*
X63828571Y-102314285D01*
X63828571Y-102647619D01*
X64447619Y-101885714D02*
X64447619Y-101123809D01*
X63352380Y-100695238D02*
X63352380Y-100504761D01*
X63400000Y-100409523D01*
X63495238Y-100314285D01*
X63685714Y-100266666D01*
X64019047Y-100266666D01*
X64209523Y-100314285D01*
X64304761Y-100409523D01*
X64352380Y-100504761D01*
X64352380Y-100695238D01*
X64304761Y-100790476D01*
X64209523Y-100885714D01*
X64019047Y-100933333D01*
X63685714Y-100933333D01*
X63495238Y-100885714D01*
X63400000Y-100790476D01*
X63352380Y-100695238D01*
X63352380Y-99980952D02*
X63352380Y-99409523D01*
X64352380Y-99695238D02*
X63352380Y-99695238D01*
X63400000Y-98552380D02*
X63352380Y-98647619D01*
X63352380Y-98790476D01*
X63400000Y-98933333D01*
X63495238Y-99028571D01*
X63590476Y-99076190D01*
X63780952Y-99123809D01*
X63923809Y-99123809D01*
X64114285Y-99076190D01*
X64209523Y-99028571D01*
X64304761Y-98933333D01*
X64352380Y-98790476D01*
X64352380Y-98695238D01*
X64304761Y-98552380D01*
X64257142Y-98504761D01*
X63923809Y-98504761D01*
X63923809Y-98695238D01*
X66802380Y-101633333D02*
X67516666Y-101633333D01*
X67659523Y-101680952D01*
X67754761Y-101776190D01*
X67802380Y-101919047D01*
X67802380Y-102014285D01*
X66802380Y-101252380D02*
X66802380Y-100633333D01*
X67183333Y-100966666D01*
X67183333Y-100823809D01*
X67230952Y-100728571D01*
X67278571Y-100680952D01*
X67373809Y-100633333D01*
X67611904Y-100633333D01*
X67707142Y-100680952D01*
X67754761Y-100728571D01*
X67802380Y-100823809D01*
X67802380Y-101109523D01*
X67754761Y-101204761D01*
X67707142Y-101252380D01*
X129502380Y-145370238D02*
X129502380Y-145941666D01*
X129502380Y-145655952D02*
X128502380Y-145655952D01*
X128645238Y-145751190D01*
X128740476Y-145846428D01*
X128788095Y-145941666D01*
X128502380Y-144751190D02*
X128502380Y-144655952D01*
X128550000Y-144560714D01*
X128597619Y-144513095D01*
X128692857Y-144465476D01*
X128883333Y-144417857D01*
X129121428Y-144417857D01*
X129311904Y-144465476D01*
X129407142Y-144513095D01*
X129454761Y-144560714D01*
X129502380Y-144655952D01*
X129502380Y-144751190D01*
X129454761Y-144846428D01*
X129407142Y-144894047D01*
X129311904Y-144941666D01*
X129121428Y-144989285D01*
X128883333Y-144989285D01*
X128692857Y-144941666D01*
X128597619Y-144894047D01*
X128550000Y-144846428D01*
X128502380Y-144751190D01*
X129502380Y-143989285D02*
X128502380Y-143989285D01*
X129121428Y-143894047D02*
X129502380Y-143608333D01*
X128835714Y-143608333D02*
X129216666Y-143989285D01*
D13*
X130926190Y-144858333D02*
X130688095Y-145025000D01*
X130926190Y-145144047D02*
X130426190Y-145144047D01*
X130426190Y-144953571D01*
X130450000Y-144905952D01*
X130473809Y-144882142D01*
X130521428Y-144858333D01*
X130592857Y-144858333D01*
X130640476Y-144882142D01*
X130664285Y-144905952D01*
X130688095Y-144953571D01*
X130688095Y-145144047D01*
X130926190Y-144382142D02*
X130926190Y-144667857D01*
X130926190Y-144525000D02*
X130426190Y-144525000D01*
X130497619Y-144572619D01*
X130545238Y-144620238D01*
X130569047Y-144667857D01*
D12*
X111502380Y-115070238D02*
X111502380Y-115641666D01*
X111502380Y-115355952D02*
X110502380Y-115355952D01*
X110645238Y-115451190D01*
X110740476Y-115546428D01*
X110788095Y-115641666D01*
X110502380Y-114451190D02*
X110502380Y-114355952D01*
X110550000Y-114260714D01*
X110597619Y-114213095D01*
X110692857Y-114165476D01*
X110883333Y-114117857D01*
X111121428Y-114117857D01*
X111311904Y-114165476D01*
X111407142Y-114213095D01*
X111454761Y-114260714D01*
X111502380Y-114355952D01*
X111502380Y-114451190D01*
X111454761Y-114546428D01*
X111407142Y-114594047D01*
X111311904Y-114641666D01*
X111121428Y-114689285D01*
X110883333Y-114689285D01*
X110692857Y-114641666D01*
X110597619Y-114594047D01*
X110550000Y-114546428D01*
X110502380Y-114451190D01*
X111502380Y-113689285D02*
X110502380Y-113689285D01*
X111121428Y-113594047D02*
X111502380Y-113308333D01*
X110835714Y-113308333D02*
X111216666Y-113689285D01*
D13*
X109626190Y-114558333D02*
X109388095Y-114725000D01*
X109626190Y-114844047D02*
X109126190Y-114844047D01*
X109126190Y-114653571D01*
X109150000Y-114605952D01*
X109173809Y-114582142D01*
X109221428Y-114558333D01*
X109292857Y-114558333D01*
X109340476Y-114582142D01*
X109364285Y-114605952D01*
X109388095Y-114653571D01*
X109388095Y-114844047D01*
X109173809Y-114367857D02*
X109150000Y-114344047D01*
X109126190Y-114296428D01*
X109126190Y-114177380D01*
X109150000Y-114129761D01*
X109173809Y-114105952D01*
X109221428Y-114082142D01*
X109269047Y-114082142D01*
X109340476Y-114105952D01*
X109626190Y-114391666D01*
X109626190Y-114082142D01*
D12*
X94907142Y-127860476D02*
X94954761Y-127908095D01*
X95002380Y-128050952D01*
X95002380Y-128146190D01*
X94954761Y-128289047D01*
X94859523Y-128384285D01*
X94764285Y-128431904D01*
X94573809Y-128479523D01*
X94430952Y-128479523D01*
X94240476Y-128431904D01*
X94145238Y-128384285D01*
X94050000Y-128289047D01*
X94002380Y-128146190D01*
X94002380Y-128050952D01*
X94050000Y-127908095D01*
X94097619Y-127860476D01*
X95002380Y-127431904D02*
X94002380Y-127431904D01*
X94716666Y-127098571D01*
X94002380Y-126765238D01*
X95002380Y-126765238D01*
X94002380Y-126384285D02*
X95002380Y-126146190D01*
X94288095Y-125955714D01*
X95002380Y-125765238D01*
X94002380Y-125527142D01*
X94002380Y-125241428D02*
X95002380Y-124574761D01*
X94002380Y-124574761D02*
X95002380Y-125241428D01*
X95002380Y-123670000D02*
X95002380Y-124241428D01*
X95002380Y-123955714D02*
X94002380Y-123955714D01*
X94145238Y-124050952D01*
X94240476Y-124146190D01*
X94288095Y-124241428D01*
X94002380Y-123336666D02*
X94002380Y-122670000D01*
X95002380Y-123336666D01*
X95002380Y-122670000D01*
X94002380Y-122384285D02*
X94002380Y-121717619D01*
X95002380Y-122384285D01*
X95002380Y-121717619D01*
X94716666Y-121384285D02*
X94716666Y-120908095D01*
X95002380Y-121479523D02*
X94002380Y-121146190D01*
X95002380Y-120812857D01*
X94478571Y-120146190D02*
X94526190Y-120003333D01*
X94573809Y-119955714D01*
X94669047Y-119908095D01*
X94811904Y-119908095D01*
X94907142Y-119955714D01*
X94954761Y-120003333D01*
X95002380Y-120098571D01*
X95002380Y-120479523D01*
X94002380Y-120479523D01*
X94002380Y-120146190D01*
X94050000Y-120050952D01*
X94097619Y-120003333D01*
X94192857Y-119955714D01*
X94288095Y-119955714D01*
X94383333Y-120003333D01*
X94430952Y-120050952D01*
X94478571Y-120146190D01*
X94478571Y-120479523D01*
X94002380Y-119574761D02*
X94002380Y-118908095D01*
X95002380Y-119574761D01*
X95002380Y-118908095D01*
X94621428Y-118527142D02*
X94621428Y-117765238D01*
X94002380Y-117098571D02*
X94002380Y-117003333D01*
X94050000Y-116908095D01*
X94097619Y-116860476D01*
X94192857Y-116812857D01*
X94383333Y-116765238D01*
X94621428Y-116765238D01*
X94811904Y-116812857D01*
X94907142Y-116860476D01*
X94954761Y-116908095D01*
X95002380Y-117003333D01*
X95002380Y-117098571D01*
X94954761Y-117193809D01*
X94907142Y-117241428D01*
X94811904Y-117289047D01*
X94621428Y-117336666D01*
X94383333Y-117336666D01*
X94192857Y-117289047D01*
X94097619Y-117241428D01*
X94050000Y-117193809D01*
X94002380Y-117098571D01*
X94002380Y-116431904D02*
X94002380Y-115765238D01*
X95002380Y-116193809D01*
X94430952Y-115241428D02*
X94383333Y-115336666D01*
X94335714Y-115384285D01*
X94240476Y-115431904D01*
X94192857Y-115431904D01*
X94097619Y-115384285D01*
X94050000Y-115336666D01*
X94002380Y-115241428D01*
X94002380Y-115050952D01*
X94050000Y-114955714D01*
X94097619Y-114908095D01*
X94192857Y-114860476D01*
X94240476Y-114860476D01*
X94335714Y-114908095D01*
X94383333Y-114955714D01*
X94430952Y-115050952D01*
X94430952Y-115241428D01*
X94478571Y-115336666D01*
X94526190Y-115384285D01*
X94621428Y-115431904D01*
X94811904Y-115431904D01*
X94907142Y-115384285D01*
X94954761Y-115336666D01*
X95002380Y-115241428D01*
X95002380Y-115050952D01*
X94954761Y-114955714D01*
X94907142Y-114908095D01*
X94811904Y-114860476D01*
X94621428Y-114860476D01*
X94526190Y-114908095D01*
X94478571Y-114955714D01*
X94430952Y-115050952D01*
X101252380Y-122361904D02*
X102061904Y-122361904D01*
X102157142Y-122314285D01*
X102204761Y-122266666D01*
X102252380Y-122171428D01*
X102252380Y-121980952D01*
X102204761Y-121885714D01*
X102157142Y-121838095D01*
X102061904Y-121790476D01*
X101252380Y-121790476D01*
X102252380Y-120790476D02*
X102252380Y-121361904D01*
X102252380Y-121076190D02*
X101252380Y-121076190D01*
X101395238Y-121171428D01*
X101490476Y-121266666D01*
X101538095Y-121361904D01*
M02*
