G04 #@! TF.GenerationSoftware,KiCad,Pcbnew,(5.1.5)-3*
G04 #@! TF.CreationDate,2020-02-14T11:51:10+01:00*
G04 #@! TF.ProjectId,Lab_1,4c61625f-312e-46b6-9963-61645f706362,rev?*
G04 #@! TF.SameCoordinates,Original*
G04 #@! TF.FileFunction,Copper,L2,Bot*
G04 #@! TF.FilePolarity,Positive*
%FSLAX46Y46*%
G04 Gerber Fmt 4.6, Leading zero omitted, Abs format (unit mm)*
G04 Created by KiCad (PCBNEW (5.1.5)-3) date 2020-02-14 11:51:10*
%MOMM*%
%LPD*%
G04 APERTURE LIST*
%ADD10C,0.100000*%
%ADD11O,2.200000X1.740000*%
%ADD12R,1.700000X1.700000*%
%ADD13O,1.700000X1.700000*%
%ADD14C,1.450000*%
%ADD15O,1.900000X1.200000*%
%ADD16C,0.800000*%
%ADD17C,0.600000*%
%ADD18C,0.250000*%
%ADD19C,0.254000*%
G04 APERTURE END LIST*
G04 #@! TA.AperFunction,ComponentPad*
D10*
G36*
X105674505Y-100531204D02*
G01*
X105698773Y-100534804D01*
X105722572Y-100540765D01*
X105745671Y-100549030D01*
X105767850Y-100559520D01*
X105788893Y-100572132D01*
X105808599Y-100586747D01*
X105826777Y-100603223D01*
X105843253Y-100621401D01*
X105857868Y-100641107D01*
X105870480Y-100662150D01*
X105880970Y-100684329D01*
X105889235Y-100707428D01*
X105895196Y-100731227D01*
X105898796Y-100755495D01*
X105900000Y-100779999D01*
X105900000Y-102020001D01*
X105898796Y-102044505D01*
X105895196Y-102068773D01*
X105889235Y-102092572D01*
X105880970Y-102115671D01*
X105870480Y-102137850D01*
X105857868Y-102158893D01*
X105843253Y-102178599D01*
X105826777Y-102196777D01*
X105808599Y-102213253D01*
X105788893Y-102227868D01*
X105767850Y-102240480D01*
X105745671Y-102250970D01*
X105722572Y-102259235D01*
X105698773Y-102265196D01*
X105674505Y-102268796D01*
X105650001Y-102270000D01*
X103949999Y-102270000D01*
X103925495Y-102268796D01*
X103901227Y-102265196D01*
X103877428Y-102259235D01*
X103854329Y-102250970D01*
X103832150Y-102240480D01*
X103811107Y-102227868D01*
X103791401Y-102213253D01*
X103773223Y-102196777D01*
X103756747Y-102178599D01*
X103742132Y-102158893D01*
X103729520Y-102137850D01*
X103719030Y-102115671D01*
X103710765Y-102092572D01*
X103704804Y-102068773D01*
X103701204Y-102044505D01*
X103700000Y-102020001D01*
X103700000Y-100779999D01*
X103701204Y-100755495D01*
X103704804Y-100731227D01*
X103710765Y-100707428D01*
X103719030Y-100684329D01*
X103729520Y-100662150D01*
X103742132Y-100641107D01*
X103756747Y-100621401D01*
X103773223Y-100603223D01*
X103791401Y-100586747D01*
X103811107Y-100572132D01*
X103832150Y-100559520D01*
X103854329Y-100549030D01*
X103877428Y-100540765D01*
X103901227Y-100534804D01*
X103925495Y-100531204D01*
X103949999Y-100530000D01*
X105650001Y-100530000D01*
X105674505Y-100531204D01*
G37*
G04 #@! TD.AperFunction*
D11*
X104800000Y-98860000D03*
D12*
X147700000Y-113700000D03*
D13*
X147700000Y-116240000D03*
X147700000Y-118780000D03*
X147700000Y-121320000D03*
X147700000Y-123860000D03*
X147700000Y-126400000D03*
X147700000Y-128940000D03*
X147700000Y-131480000D03*
X147700000Y-134020000D03*
D12*
X66700000Y-112300000D03*
D13*
X66700000Y-114840000D03*
X66700000Y-117380000D03*
X66700000Y-119920000D03*
X66700000Y-122460000D03*
X66700000Y-125000000D03*
X66700000Y-127540000D03*
D12*
X143800000Y-144700000D03*
D13*
X141260000Y-144700000D03*
X138720000Y-144700000D03*
X136180000Y-144700000D03*
X133640000Y-144700000D03*
D14*
X69700000Y-98800000D03*
X69700000Y-103800000D03*
D15*
X67000000Y-97800000D03*
X67000000Y-104800000D03*
D16*
X133200000Y-104100000D03*
X104900000Y-146600000D03*
X64800000Y-125600000D03*
X61900000Y-117500000D03*
X93870000Y-123670000D03*
X92030000Y-121270000D03*
X93830000Y-122070000D03*
X92870000Y-122870000D03*
X70489999Y-115689999D03*
X106100000Y-130100000D03*
X109770000Y-126070000D03*
X85600000Y-134600000D03*
X110200000Y-132000000D03*
X74000000Y-133500000D03*
X92630000Y-119670000D03*
X86900000Y-120400000D03*
X95700000Y-98900000D03*
X80900000Y-101800000D03*
X127900000Y-99200000D03*
X152200000Y-102900000D03*
X94700000Y-129100000D03*
X149100000Y-107500000D03*
X79200000Y-114300000D03*
X130600000Y-112600000D03*
X116800000Y-139700000D03*
X73700000Y-126300000D03*
X63000000Y-143400000D03*
X70900000Y-106400000D03*
D17*
X105299999Y-146999999D02*
X104900000Y-146600000D01*
X106000000Y-147700000D02*
X105299999Y-146999999D01*
X149100000Y-147700000D02*
X106000000Y-147700000D01*
X151500000Y-145300000D02*
X149100000Y-147700000D01*
X133200000Y-104100000D02*
X140700002Y-104100000D01*
X146500002Y-109900000D02*
X149900000Y-109900000D01*
X140700002Y-104100000D02*
X146500002Y-109900000D01*
X149900000Y-109900000D02*
X151500000Y-111500000D01*
X151500000Y-111500000D02*
X151500000Y-145300000D01*
X64800000Y-135500000D02*
X64800000Y-125600000D01*
X104900000Y-146600000D02*
X75900000Y-146600000D01*
X75900000Y-146600000D02*
X64800000Y-135500000D01*
X61900000Y-117500000D02*
X61900000Y-119100000D01*
X64800000Y-122000000D02*
X64800000Y-125600000D01*
X61900000Y-119100000D02*
X64800000Y-122000000D01*
D18*
X132170000Y-123670000D02*
X145000000Y-136500000D01*
X93870000Y-123670000D02*
X132170000Y-123670000D01*
X145000000Y-136500000D02*
X149500000Y-136500000D01*
X149500000Y-136500000D02*
X150200000Y-135800000D01*
X150200000Y-135800000D02*
X150200000Y-123800000D01*
X150200000Y-123800000D02*
X147700000Y-121300000D01*
X93470000Y-121270000D02*
X92030000Y-121270000D01*
X147700000Y-123900000D02*
X146800000Y-123900000D01*
X144170000Y-121270000D02*
X93470000Y-121270000D01*
X146800000Y-123900000D02*
X144170000Y-121270000D01*
X94395685Y-122070000D02*
X93830000Y-122070000D01*
X142167919Y-122070000D02*
X94395685Y-122070000D01*
X146497919Y-126400000D02*
X142167919Y-122070000D01*
X147700000Y-126400000D02*
X146497919Y-126400000D01*
X136550000Y-122870000D02*
X92870000Y-122870000D01*
X147700000Y-134020000D02*
X136550000Y-122870000D01*
X106100000Y-126800000D02*
X105400000Y-126100000D01*
X80900000Y-126100000D02*
X70489999Y-115689999D01*
X105400000Y-126100000D02*
X80900000Y-126100000D01*
X106100000Y-130100000D02*
X106100000Y-126800000D01*
X108673002Y-134600000D02*
X111300000Y-131973002D01*
X85600000Y-134600000D02*
X108673002Y-134600000D01*
X111300000Y-127600000D02*
X109770000Y-126070000D01*
X111300000Y-131973002D02*
X111300000Y-127600000D01*
X110200000Y-132000000D02*
X109800001Y-132399999D01*
X75100001Y-132399999D02*
X74000000Y-133500000D01*
X109800001Y-132399999D02*
X75100001Y-132399999D01*
X91900000Y-120400000D02*
X92630000Y-119670000D01*
X86900000Y-120400000D02*
X91900000Y-120400000D01*
D19*
G36*
X154073467Y-149172733D02*
G01*
X59426764Y-148973267D01*
X59367856Y-117398061D01*
X60865000Y-117398061D01*
X60865000Y-117601939D01*
X60904774Y-117801898D01*
X60965000Y-117947296D01*
X60965001Y-119054059D01*
X60960476Y-119100000D01*
X60978529Y-119283291D01*
X61015381Y-119404774D01*
X61031994Y-119459540D01*
X61118815Y-119621972D01*
X61235657Y-119764344D01*
X61271336Y-119793625D01*
X63865000Y-122387290D01*
X63865001Y-125152703D01*
X63804774Y-125298102D01*
X63765000Y-125498061D01*
X63765000Y-125701939D01*
X63804774Y-125901898D01*
X63865001Y-126047298D01*
X63865000Y-135454068D01*
X63860476Y-135500000D01*
X63865000Y-135545931D01*
X63878529Y-135683291D01*
X63931993Y-135859539D01*
X64018814Y-136021971D01*
X64135656Y-136164344D01*
X64171341Y-136193630D01*
X75206370Y-147228659D01*
X75235656Y-147264344D01*
X75378028Y-147381186D01*
X75483880Y-147437765D01*
X75540459Y-147468007D01*
X75716708Y-147521472D01*
X75900000Y-147539524D01*
X75945935Y-147535000D01*
X104452705Y-147535000D01*
X104555142Y-147577431D01*
X105306370Y-148328659D01*
X105335656Y-148364344D01*
X105478028Y-148481186D01*
X105640460Y-148568007D01*
X105816708Y-148621471D01*
X106000000Y-148639524D01*
X106045932Y-148635000D01*
X149054068Y-148635000D01*
X149100000Y-148639524D01*
X149145932Y-148635000D01*
X149283292Y-148621471D01*
X149459540Y-148568007D01*
X149621972Y-148481186D01*
X149764344Y-148364344D01*
X149793630Y-148328659D01*
X152128659Y-145993630D01*
X152164344Y-145964344D01*
X152281186Y-145821972D01*
X152355577Y-145682795D01*
X152368007Y-145659541D01*
X152421472Y-145483292D01*
X152439524Y-145300000D01*
X152435000Y-145254065D01*
X152435000Y-111545935D01*
X152439524Y-111500000D01*
X152421472Y-111316708D01*
X152368007Y-111140459D01*
X152337765Y-111083880D01*
X152281186Y-110978028D01*
X152164344Y-110835656D01*
X152128660Y-110806371D01*
X150593630Y-109271341D01*
X150564344Y-109235656D01*
X150421972Y-109118814D01*
X150259540Y-109031993D01*
X150083292Y-108978529D01*
X149945932Y-108965000D01*
X149900000Y-108960476D01*
X149854068Y-108965000D01*
X146887291Y-108965000D01*
X141393632Y-103471341D01*
X141364346Y-103435656D01*
X141221974Y-103318814D01*
X141059542Y-103231993D01*
X140883294Y-103178529D01*
X140745934Y-103165000D01*
X140700002Y-103160476D01*
X140654070Y-103165000D01*
X133647295Y-103165000D01*
X133501898Y-103104774D01*
X133301939Y-103065000D01*
X133098061Y-103065000D01*
X132898102Y-103104774D01*
X132709744Y-103182795D01*
X132540226Y-103296063D01*
X132396063Y-103440226D01*
X132282795Y-103609744D01*
X132204774Y-103798102D01*
X132165000Y-103998061D01*
X132165000Y-104201939D01*
X132204774Y-104401898D01*
X132282795Y-104590256D01*
X132396063Y-104759774D01*
X132540226Y-104903937D01*
X132709744Y-105017205D01*
X132898102Y-105095226D01*
X133098061Y-105135000D01*
X133301939Y-105135000D01*
X133501898Y-105095226D01*
X133647295Y-105035000D01*
X140312713Y-105035000D01*
X145806372Y-110528659D01*
X145835658Y-110564344D01*
X145978030Y-110681186D01*
X146048428Y-110718814D01*
X146140461Y-110768007D01*
X146316710Y-110821472D01*
X146500002Y-110839524D01*
X146545937Y-110835000D01*
X149512711Y-110835000D01*
X150565000Y-111887289D01*
X150565000Y-123090198D01*
X149144528Y-121669726D01*
X149185000Y-121466260D01*
X149185000Y-121173740D01*
X149127932Y-120886842D01*
X149015990Y-120616589D01*
X148853475Y-120373368D01*
X148646632Y-120166525D01*
X148472240Y-120050000D01*
X148646632Y-119933475D01*
X148853475Y-119726632D01*
X149015990Y-119483411D01*
X149127932Y-119213158D01*
X149185000Y-118926260D01*
X149185000Y-118633740D01*
X149127932Y-118346842D01*
X149015990Y-118076589D01*
X148853475Y-117833368D01*
X148646632Y-117626525D01*
X148472240Y-117510000D01*
X148646632Y-117393475D01*
X148853475Y-117186632D01*
X149015990Y-116943411D01*
X149127932Y-116673158D01*
X149185000Y-116386260D01*
X149185000Y-116093740D01*
X149127932Y-115806842D01*
X149015990Y-115536589D01*
X148853475Y-115293368D01*
X148721620Y-115161513D01*
X148794180Y-115139502D01*
X148904494Y-115080537D01*
X149001185Y-115001185D01*
X149080537Y-114904494D01*
X149139502Y-114794180D01*
X149175812Y-114674482D01*
X149188072Y-114550000D01*
X149188072Y-112850000D01*
X149175812Y-112725518D01*
X149139502Y-112605820D01*
X149080537Y-112495506D01*
X149001185Y-112398815D01*
X148904494Y-112319463D01*
X148794180Y-112260498D01*
X148674482Y-112224188D01*
X148550000Y-112211928D01*
X146850000Y-112211928D01*
X146725518Y-112224188D01*
X146605820Y-112260498D01*
X146495506Y-112319463D01*
X146398815Y-112398815D01*
X146319463Y-112495506D01*
X146260498Y-112605820D01*
X146224188Y-112725518D01*
X146211928Y-112850000D01*
X146211928Y-114550000D01*
X146224188Y-114674482D01*
X146260498Y-114794180D01*
X146319463Y-114904494D01*
X146398815Y-115001185D01*
X146495506Y-115080537D01*
X146605820Y-115139502D01*
X146678380Y-115161513D01*
X146546525Y-115293368D01*
X146384010Y-115536589D01*
X146272068Y-115806842D01*
X146215000Y-116093740D01*
X146215000Y-116386260D01*
X146272068Y-116673158D01*
X146384010Y-116943411D01*
X146546525Y-117186632D01*
X146753368Y-117393475D01*
X146927760Y-117510000D01*
X146753368Y-117626525D01*
X146546525Y-117833368D01*
X146384010Y-118076589D01*
X146272068Y-118346842D01*
X146215000Y-118633740D01*
X146215000Y-118926260D01*
X146272068Y-119213158D01*
X146384010Y-119483411D01*
X146546525Y-119726632D01*
X146753368Y-119933475D01*
X146927760Y-120050000D01*
X146753368Y-120166525D01*
X146546525Y-120373368D01*
X146384010Y-120616589D01*
X146272068Y-120886842D01*
X146215000Y-121173740D01*
X146215000Y-121466260D01*
X146272068Y-121753158D01*
X146384010Y-122023411D01*
X146546525Y-122266632D01*
X146753368Y-122473475D01*
X146927760Y-122590000D01*
X146753368Y-122706525D01*
X146717347Y-122742546D01*
X144733804Y-120759003D01*
X144710001Y-120729999D01*
X144594276Y-120635026D01*
X144462247Y-120564454D01*
X144318986Y-120520997D01*
X144207333Y-120510000D01*
X144207322Y-120510000D01*
X144170000Y-120506324D01*
X144132678Y-120510000D01*
X93235802Y-120510000D01*
X93289774Y-120473937D01*
X93433937Y-120329774D01*
X93547205Y-120160256D01*
X93625226Y-119971898D01*
X93665000Y-119771939D01*
X93665000Y-119568061D01*
X93625226Y-119368102D01*
X93547205Y-119179744D01*
X93433937Y-119010226D01*
X93289774Y-118866063D01*
X93120256Y-118752795D01*
X92931898Y-118674774D01*
X92731939Y-118635000D01*
X92528061Y-118635000D01*
X92328102Y-118674774D01*
X92139744Y-118752795D01*
X91970226Y-118866063D01*
X91826063Y-119010226D01*
X91712795Y-119179744D01*
X91634774Y-119368102D01*
X91595000Y-119568061D01*
X91595000Y-119630199D01*
X91585199Y-119640000D01*
X87603711Y-119640000D01*
X87559774Y-119596063D01*
X87390256Y-119482795D01*
X87201898Y-119404774D01*
X87001939Y-119365000D01*
X86798061Y-119365000D01*
X86598102Y-119404774D01*
X86409744Y-119482795D01*
X86240226Y-119596063D01*
X86096063Y-119740226D01*
X85982795Y-119909744D01*
X85904774Y-120098102D01*
X85865000Y-120298061D01*
X85865000Y-120501939D01*
X85904774Y-120701898D01*
X85982795Y-120890256D01*
X86096063Y-121059774D01*
X86240226Y-121203937D01*
X86409744Y-121317205D01*
X86598102Y-121395226D01*
X86798061Y-121435000D01*
X87001939Y-121435000D01*
X87201898Y-121395226D01*
X87390256Y-121317205D01*
X87559774Y-121203937D01*
X87603711Y-121160000D01*
X90996603Y-121160000D01*
X90995000Y-121168061D01*
X90995000Y-121371939D01*
X91034774Y-121571898D01*
X91112795Y-121760256D01*
X91226063Y-121929774D01*
X91370226Y-122073937D01*
X91539744Y-122187205D01*
X91728102Y-122265226D01*
X91928061Y-122305000D01*
X92002737Y-122305000D01*
X91952795Y-122379744D01*
X91874774Y-122568102D01*
X91835000Y-122768061D01*
X91835000Y-122971939D01*
X91874774Y-123171898D01*
X91952795Y-123360256D01*
X92066063Y-123529774D01*
X92210226Y-123673937D01*
X92379744Y-123787205D01*
X92568102Y-123865226D01*
X92768061Y-123905000D01*
X92861467Y-123905000D01*
X92874774Y-123971898D01*
X92952795Y-124160256D01*
X93066063Y-124329774D01*
X93210226Y-124473937D01*
X93379744Y-124587205D01*
X93568102Y-124665226D01*
X93768061Y-124705000D01*
X93971939Y-124705000D01*
X94171898Y-124665226D01*
X94360256Y-124587205D01*
X94529774Y-124473937D01*
X94573711Y-124430000D01*
X131855199Y-124430000D01*
X144436201Y-137011003D01*
X144459999Y-137040001D01*
X144488997Y-137063799D01*
X144575723Y-137134974D01*
X144707753Y-137205546D01*
X144851014Y-137249003D01*
X144962667Y-137260000D01*
X144962677Y-137260000D01*
X144999999Y-137263676D01*
X145037322Y-137260000D01*
X149462678Y-137260000D01*
X149500000Y-137263676D01*
X149537322Y-137260000D01*
X149537333Y-137260000D01*
X149648986Y-137249003D01*
X149792247Y-137205546D01*
X149924276Y-137134974D01*
X150040001Y-137040001D01*
X150063803Y-137010998D01*
X150565001Y-136509802D01*
X150565001Y-144912710D01*
X148712711Y-146765000D01*
X106387289Y-146765000D01*
X105877431Y-146255142D01*
X105817205Y-146109744D01*
X105703937Y-145940226D01*
X105559774Y-145796063D01*
X105390256Y-145682795D01*
X105201898Y-145604774D01*
X105001939Y-145565000D01*
X104798061Y-145565000D01*
X104598102Y-145604774D01*
X104452705Y-145665000D01*
X76287289Y-145665000D01*
X75176029Y-144553740D01*
X132155000Y-144553740D01*
X132155000Y-144846260D01*
X132212068Y-145133158D01*
X132324010Y-145403411D01*
X132486525Y-145646632D01*
X132693368Y-145853475D01*
X132936589Y-146015990D01*
X133206842Y-146127932D01*
X133493740Y-146185000D01*
X133786260Y-146185000D01*
X134073158Y-146127932D01*
X134343411Y-146015990D01*
X134586632Y-145853475D01*
X134793475Y-145646632D01*
X134910000Y-145472240D01*
X135026525Y-145646632D01*
X135233368Y-145853475D01*
X135476589Y-146015990D01*
X135746842Y-146127932D01*
X136033740Y-146185000D01*
X136326260Y-146185000D01*
X136613158Y-146127932D01*
X136883411Y-146015990D01*
X137126632Y-145853475D01*
X137333475Y-145646632D01*
X137455195Y-145464466D01*
X137524822Y-145581355D01*
X137719731Y-145797588D01*
X137953080Y-145971641D01*
X138215901Y-146096825D01*
X138363110Y-146141476D01*
X138593000Y-146020155D01*
X138593000Y-144827000D01*
X138573000Y-144827000D01*
X138573000Y-144573000D01*
X138593000Y-144573000D01*
X138593000Y-143379845D01*
X138847000Y-143379845D01*
X138847000Y-144573000D01*
X138867000Y-144573000D01*
X138867000Y-144827000D01*
X138847000Y-144827000D01*
X138847000Y-146020155D01*
X139076890Y-146141476D01*
X139224099Y-146096825D01*
X139486920Y-145971641D01*
X139720269Y-145797588D01*
X139915178Y-145581355D01*
X139984805Y-145464466D01*
X140106525Y-145646632D01*
X140313368Y-145853475D01*
X140556589Y-146015990D01*
X140826842Y-146127932D01*
X141113740Y-146185000D01*
X141406260Y-146185000D01*
X141693158Y-146127932D01*
X141963411Y-146015990D01*
X142206632Y-145853475D01*
X142338487Y-145721620D01*
X142360498Y-145794180D01*
X142419463Y-145904494D01*
X142498815Y-146001185D01*
X142595506Y-146080537D01*
X142705820Y-146139502D01*
X142825518Y-146175812D01*
X142950000Y-146188072D01*
X144650000Y-146188072D01*
X144774482Y-146175812D01*
X144894180Y-146139502D01*
X145004494Y-146080537D01*
X145101185Y-146001185D01*
X145180537Y-145904494D01*
X145239502Y-145794180D01*
X145275812Y-145674482D01*
X145288072Y-145550000D01*
X145288072Y-143850000D01*
X145275812Y-143725518D01*
X145239502Y-143605820D01*
X145180537Y-143495506D01*
X145101185Y-143398815D01*
X145004494Y-143319463D01*
X144894180Y-143260498D01*
X144774482Y-143224188D01*
X144650000Y-143211928D01*
X142950000Y-143211928D01*
X142825518Y-143224188D01*
X142705820Y-143260498D01*
X142595506Y-143319463D01*
X142498815Y-143398815D01*
X142419463Y-143495506D01*
X142360498Y-143605820D01*
X142338487Y-143678380D01*
X142206632Y-143546525D01*
X141963411Y-143384010D01*
X141693158Y-143272068D01*
X141406260Y-143215000D01*
X141113740Y-143215000D01*
X140826842Y-143272068D01*
X140556589Y-143384010D01*
X140313368Y-143546525D01*
X140106525Y-143753368D01*
X139984805Y-143935534D01*
X139915178Y-143818645D01*
X139720269Y-143602412D01*
X139486920Y-143428359D01*
X139224099Y-143303175D01*
X139076890Y-143258524D01*
X138847000Y-143379845D01*
X138593000Y-143379845D01*
X138363110Y-143258524D01*
X138215901Y-143303175D01*
X137953080Y-143428359D01*
X137719731Y-143602412D01*
X137524822Y-143818645D01*
X137455195Y-143935534D01*
X137333475Y-143753368D01*
X137126632Y-143546525D01*
X136883411Y-143384010D01*
X136613158Y-143272068D01*
X136326260Y-143215000D01*
X136033740Y-143215000D01*
X135746842Y-143272068D01*
X135476589Y-143384010D01*
X135233368Y-143546525D01*
X135026525Y-143753368D01*
X134910000Y-143927760D01*
X134793475Y-143753368D01*
X134586632Y-143546525D01*
X134343411Y-143384010D01*
X134073158Y-143272068D01*
X133786260Y-143215000D01*
X133493740Y-143215000D01*
X133206842Y-143272068D01*
X132936589Y-143384010D01*
X132693368Y-143546525D01*
X132486525Y-143753368D01*
X132324010Y-143996589D01*
X132212068Y-144266842D01*
X132155000Y-144553740D01*
X75176029Y-144553740D01*
X65735000Y-135112711D01*
X65735000Y-133398061D01*
X72965000Y-133398061D01*
X72965000Y-133601939D01*
X73004774Y-133801898D01*
X73082795Y-133990256D01*
X73196063Y-134159774D01*
X73340226Y-134303937D01*
X73509744Y-134417205D01*
X73698102Y-134495226D01*
X73898061Y-134535000D01*
X74101939Y-134535000D01*
X74301898Y-134495226D01*
X74490256Y-134417205D01*
X74659774Y-134303937D01*
X74803937Y-134159774D01*
X74917205Y-133990256D01*
X74995226Y-133801898D01*
X75035000Y-133601939D01*
X75035000Y-133539801D01*
X75414803Y-133159999D01*
X109038202Y-133159999D01*
X108358201Y-133840000D01*
X86303711Y-133840000D01*
X86259774Y-133796063D01*
X86090256Y-133682795D01*
X85901898Y-133604774D01*
X85701939Y-133565000D01*
X85498061Y-133565000D01*
X85298102Y-133604774D01*
X85109744Y-133682795D01*
X84940226Y-133796063D01*
X84796063Y-133940226D01*
X84682795Y-134109744D01*
X84604774Y-134298102D01*
X84565000Y-134498061D01*
X84565000Y-134701939D01*
X84604774Y-134901898D01*
X84682795Y-135090256D01*
X84796063Y-135259774D01*
X84940226Y-135403937D01*
X85109744Y-135517205D01*
X85298102Y-135595226D01*
X85498061Y-135635000D01*
X85701939Y-135635000D01*
X85901898Y-135595226D01*
X86090256Y-135517205D01*
X86259774Y-135403937D01*
X86303711Y-135360000D01*
X108635680Y-135360000D01*
X108673002Y-135363676D01*
X108710324Y-135360000D01*
X108710335Y-135360000D01*
X108821988Y-135349003D01*
X108965249Y-135305546D01*
X109097278Y-135234974D01*
X109213003Y-135140001D01*
X109236806Y-135110997D01*
X111811004Y-132536800D01*
X111840001Y-132513003D01*
X111934974Y-132397278D01*
X112005546Y-132265249D01*
X112049003Y-132121988D01*
X112060000Y-132010335D01*
X112060000Y-132010326D01*
X112063676Y-131973003D01*
X112060000Y-131935680D01*
X112060000Y-127637325D01*
X112063676Y-127600000D01*
X112060000Y-127562675D01*
X112060000Y-127562667D01*
X112049003Y-127451014D01*
X112005546Y-127307753D01*
X111934974Y-127175724D01*
X111840001Y-127059999D01*
X111811003Y-127036201D01*
X110805000Y-126030199D01*
X110805000Y-125968061D01*
X110765226Y-125768102D01*
X110687205Y-125579744D01*
X110573937Y-125410226D01*
X110429774Y-125266063D01*
X110260256Y-125152795D01*
X110071898Y-125074774D01*
X109871939Y-125035000D01*
X109668061Y-125035000D01*
X109468102Y-125074774D01*
X109279744Y-125152795D01*
X109110226Y-125266063D01*
X108966063Y-125410226D01*
X108852795Y-125579744D01*
X108774774Y-125768102D01*
X108735000Y-125968061D01*
X108735000Y-126171939D01*
X108774774Y-126371898D01*
X108852795Y-126560256D01*
X108966063Y-126729774D01*
X109110226Y-126873937D01*
X109279744Y-126987205D01*
X109468102Y-127065226D01*
X109668061Y-127105000D01*
X109730199Y-127105000D01*
X110540001Y-127914803D01*
X110540000Y-131020557D01*
X110501898Y-131004774D01*
X110301939Y-130965000D01*
X110098061Y-130965000D01*
X109898102Y-131004774D01*
X109709744Y-131082795D01*
X109540226Y-131196063D01*
X109396063Y-131340226D01*
X109282795Y-131509744D01*
X109228841Y-131639999D01*
X75137323Y-131639999D01*
X75100000Y-131636323D01*
X75062677Y-131639999D01*
X75062668Y-131639999D01*
X74951015Y-131650996D01*
X74807754Y-131694453D01*
X74675725Y-131765025D01*
X74560000Y-131859998D01*
X74536202Y-131888996D01*
X73960199Y-132465000D01*
X73898061Y-132465000D01*
X73698102Y-132504774D01*
X73509744Y-132582795D01*
X73340226Y-132696063D01*
X73196063Y-132840226D01*
X73082795Y-133009744D01*
X73004774Y-133198102D01*
X72965000Y-133398061D01*
X65735000Y-133398061D01*
X65735000Y-128659782D01*
X65818645Y-128735178D01*
X66068748Y-128884157D01*
X66343109Y-128981481D01*
X66573000Y-128860814D01*
X66573000Y-127667000D01*
X66827000Y-127667000D01*
X66827000Y-128860814D01*
X67056891Y-128981481D01*
X67331252Y-128884157D01*
X67581355Y-128735178D01*
X67797588Y-128540269D01*
X67971641Y-128306920D01*
X68096825Y-128044099D01*
X68141476Y-127896890D01*
X68020155Y-127667000D01*
X66827000Y-127667000D01*
X66573000Y-127667000D01*
X66553000Y-127667000D01*
X66553000Y-127413000D01*
X66573000Y-127413000D01*
X66573000Y-127393000D01*
X66827000Y-127393000D01*
X66827000Y-127413000D01*
X68020155Y-127413000D01*
X68141476Y-127183110D01*
X68096825Y-127035901D01*
X67971641Y-126773080D01*
X67797588Y-126539731D01*
X67581355Y-126344822D01*
X67464466Y-126275195D01*
X67646632Y-126153475D01*
X67853475Y-125946632D01*
X68015990Y-125703411D01*
X68127932Y-125433158D01*
X68185000Y-125146260D01*
X68185000Y-124853740D01*
X68127932Y-124566842D01*
X68015990Y-124296589D01*
X67853475Y-124053368D01*
X67646632Y-123846525D01*
X67472240Y-123730000D01*
X67646632Y-123613475D01*
X67853475Y-123406632D01*
X68015990Y-123163411D01*
X68127932Y-122893158D01*
X68185000Y-122606260D01*
X68185000Y-122313740D01*
X68127932Y-122026842D01*
X68015990Y-121756589D01*
X67853475Y-121513368D01*
X67646632Y-121306525D01*
X67472240Y-121190000D01*
X67646632Y-121073475D01*
X67853475Y-120866632D01*
X68015990Y-120623411D01*
X68127932Y-120353158D01*
X68185000Y-120066260D01*
X68185000Y-119773740D01*
X68127932Y-119486842D01*
X68015990Y-119216589D01*
X67853475Y-118973368D01*
X67646632Y-118766525D01*
X67472240Y-118650000D01*
X67646632Y-118533475D01*
X67853475Y-118326632D01*
X68015990Y-118083411D01*
X68127932Y-117813158D01*
X68185000Y-117526260D01*
X68185000Y-117233740D01*
X68127932Y-116946842D01*
X68015990Y-116676589D01*
X67853475Y-116433368D01*
X67646632Y-116226525D01*
X67472240Y-116110000D01*
X67646632Y-115993475D01*
X67853475Y-115786632D01*
X67986156Y-115588060D01*
X69454999Y-115588060D01*
X69454999Y-115791938D01*
X69494773Y-115991897D01*
X69572794Y-116180255D01*
X69686062Y-116349773D01*
X69830225Y-116493936D01*
X69999743Y-116607204D01*
X70188101Y-116685225D01*
X70388060Y-116724999D01*
X70450198Y-116724999D01*
X80336200Y-126611002D01*
X80359999Y-126640001D01*
X80388997Y-126663799D01*
X80475724Y-126734974D01*
X80607753Y-126805546D01*
X80751014Y-126849003D01*
X80900000Y-126863677D01*
X80937333Y-126860000D01*
X105085198Y-126860000D01*
X105340001Y-127114803D01*
X105340000Y-129396289D01*
X105296063Y-129440226D01*
X105182795Y-129609744D01*
X105104774Y-129798102D01*
X105065000Y-129998061D01*
X105065000Y-130201939D01*
X105104774Y-130401898D01*
X105182795Y-130590256D01*
X105296063Y-130759774D01*
X105440226Y-130903937D01*
X105609744Y-131017205D01*
X105798102Y-131095226D01*
X105998061Y-131135000D01*
X106201939Y-131135000D01*
X106401898Y-131095226D01*
X106590256Y-131017205D01*
X106759774Y-130903937D01*
X106903937Y-130759774D01*
X107017205Y-130590256D01*
X107095226Y-130401898D01*
X107135000Y-130201939D01*
X107135000Y-129998061D01*
X107095226Y-129798102D01*
X107017205Y-129609744D01*
X106903937Y-129440226D01*
X106860000Y-129396289D01*
X106860000Y-126837322D01*
X106863676Y-126799999D01*
X106860000Y-126762676D01*
X106860000Y-126762667D01*
X106849003Y-126651014D01*
X106805546Y-126507753D01*
X106734974Y-126375724D01*
X106721811Y-126359685D01*
X106663799Y-126288996D01*
X106663795Y-126288992D01*
X106640001Y-126259999D01*
X106611008Y-126236205D01*
X105963803Y-125589002D01*
X105940001Y-125559999D01*
X105824276Y-125465026D01*
X105692247Y-125394454D01*
X105548986Y-125350997D01*
X105437333Y-125340000D01*
X105437322Y-125340000D01*
X105400000Y-125336324D01*
X105362678Y-125340000D01*
X81214802Y-125340000D01*
X71524999Y-115650198D01*
X71524999Y-115588060D01*
X71485225Y-115388101D01*
X71407204Y-115199743D01*
X71293936Y-115030225D01*
X71149773Y-114886062D01*
X70980255Y-114772794D01*
X70791897Y-114694773D01*
X70591938Y-114654999D01*
X70388060Y-114654999D01*
X70188101Y-114694773D01*
X69999743Y-114772794D01*
X69830225Y-114886062D01*
X69686062Y-115030225D01*
X69572794Y-115199743D01*
X69494773Y-115388101D01*
X69454999Y-115588060D01*
X67986156Y-115588060D01*
X68015990Y-115543411D01*
X68127932Y-115273158D01*
X68185000Y-114986260D01*
X68185000Y-114693740D01*
X68127932Y-114406842D01*
X68015990Y-114136589D01*
X67853475Y-113893368D01*
X67721620Y-113761513D01*
X67794180Y-113739502D01*
X67904494Y-113680537D01*
X68001185Y-113601185D01*
X68080537Y-113504494D01*
X68139502Y-113394180D01*
X68175812Y-113274482D01*
X68188072Y-113150000D01*
X68188072Y-111450000D01*
X68175812Y-111325518D01*
X68139502Y-111205820D01*
X68080537Y-111095506D01*
X68001185Y-110998815D01*
X67904494Y-110919463D01*
X67794180Y-110860498D01*
X67674482Y-110824188D01*
X67550000Y-110811928D01*
X65850000Y-110811928D01*
X65725518Y-110824188D01*
X65605820Y-110860498D01*
X65495506Y-110919463D01*
X65398815Y-110998815D01*
X65319463Y-111095506D01*
X65260498Y-111205820D01*
X65224188Y-111325518D01*
X65211928Y-111450000D01*
X65211928Y-113150000D01*
X65224188Y-113274482D01*
X65260498Y-113394180D01*
X65319463Y-113504494D01*
X65398815Y-113601185D01*
X65495506Y-113680537D01*
X65605820Y-113739502D01*
X65678380Y-113761513D01*
X65546525Y-113893368D01*
X65384010Y-114136589D01*
X65272068Y-114406842D01*
X65215000Y-114693740D01*
X65215000Y-114986260D01*
X65272068Y-115273158D01*
X65384010Y-115543411D01*
X65546525Y-115786632D01*
X65753368Y-115993475D01*
X65927760Y-116110000D01*
X65753368Y-116226525D01*
X65546525Y-116433368D01*
X65384010Y-116676589D01*
X65272068Y-116946842D01*
X65215000Y-117233740D01*
X65215000Y-117526260D01*
X65272068Y-117813158D01*
X65384010Y-118083411D01*
X65546525Y-118326632D01*
X65753368Y-118533475D01*
X65927760Y-118650000D01*
X65753368Y-118766525D01*
X65546525Y-118973368D01*
X65384010Y-119216589D01*
X65272068Y-119486842D01*
X65215000Y-119773740D01*
X65215000Y-120066260D01*
X65272068Y-120353158D01*
X65384010Y-120623411D01*
X65546525Y-120866632D01*
X65753368Y-121073475D01*
X65927760Y-121190000D01*
X65753368Y-121306525D01*
X65581423Y-121478470D01*
X65581186Y-121478028D01*
X65464344Y-121335656D01*
X65428666Y-121306376D01*
X62835000Y-118712711D01*
X62835000Y-117947295D01*
X62895226Y-117801898D01*
X62935000Y-117601939D01*
X62935000Y-117398061D01*
X62895226Y-117198102D01*
X62817205Y-117009744D01*
X62703937Y-116840226D01*
X62559774Y-116696063D01*
X62390256Y-116582795D01*
X62201898Y-116504774D01*
X62001939Y-116465000D01*
X61798061Y-116465000D01*
X61598102Y-116504774D01*
X61409744Y-116582795D01*
X61240226Y-116696063D01*
X61096063Y-116840226D01*
X60982795Y-117009744D01*
X60904774Y-117198102D01*
X60865000Y-117398061D01*
X59367856Y-117398061D01*
X59344945Y-105117609D01*
X65456538Y-105117609D01*
X65460409Y-105155282D01*
X65552579Y-105380533D01*
X65686922Y-105583474D01*
X65858275Y-105756307D01*
X66060054Y-105892390D01*
X66284504Y-105986493D01*
X66523000Y-106035000D01*
X66873000Y-106035000D01*
X66873000Y-104927000D01*
X67127000Y-104927000D01*
X67127000Y-106035000D01*
X67477000Y-106035000D01*
X67715496Y-105986493D01*
X67939946Y-105892390D01*
X68141725Y-105756307D01*
X68313078Y-105583474D01*
X68447421Y-105380533D01*
X68539591Y-105155282D01*
X68543462Y-105117609D01*
X68418731Y-104927000D01*
X67127000Y-104927000D01*
X66873000Y-104927000D01*
X65581269Y-104927000D01*
X65456538Y-105117609D01*
X59344945Y-105117609D01*
X59344239Y-104739133D01*
X68940472Y-104739133D01*
X69002965Y-104975450D01*
X69245678Y-105088850D01*
X69505849Y-105152719D01*
X69773482Y-105164604D01*
X70038291Y-105124048D01*
X70290100Y-105032609D01*
X70397035Y-104975450D01*
X70459528Y-104739133D01*
X69700000Y-103979605D01*
X68940472Y-104739133D01*
X59344239Y-104739133D01*
X59343760Y-104482391D01*
X65456538Y-104482391D01*
X65581269Y-104673000D01*
X66873000Y-104673000D01*
X66873000Y-103565000D01*
X67127000Y-103565000D01*
X67127000Y-104673000D01*
X68418731Y-104673000D01*
X68532503Y-104499138D01*
X68760867Y-104559528D01*
X69520395Y-103800000D01*
X69879605Y-103800000D01*
X70639133Y-104559528D01*
X70875450Y-104497035D01*
X70988850Y-104254322D01*
X71052719Y-103994151D01*
X71064604Y-103726518D01*
X71024048Y-103461709D01*
X70932609Y-103209900D01*
X70875450Y-103102965D01*
X70639133Y-103040472D01*
X69879605Y-103800000D01*
X69520395Y-103800000D01*
X68760867Y-103040472D01*
X68524550Y-103102965D01*
X68411150Y-103345678D01*
X68347281Y-103605849D01*
X68335396Y-103873482D01*
X68370615Y-104103442D01*
X68313078Y-104016526D01*
X68141725Y-103843693D01*
X67939946Y-103707610D01*
X67715496Y-103613507D01*
X67477000Y-103565000D01*
X67127000Y-103565000D01*
X66873000Y-103565000D01*
X66523000Y-103565000D01*
X66284504Y-103613507D01*
X66060054Y-103707610D01*
X65858275Y-103843693D01*
X65686922Y-104016526D01*
X65552579Y-104219467D01*
X65460409Y-104444718D01*
X65456538Y-104482391D01*
X59343760Y-104482391D01*
X59340735Y-102860867D01*
X68940472Y-102860867D01*
X69700000Y-103620395D01*
X70459528Y-102860867D01*
X70397035Y-102624550D01*
X70154322Y-102511150D01*
X69894151Y-102447281D01*
X69626518Y-102435396D01*
X69361709Y-102475952D01*
X69109900Y-102567391D01*
X69002965Y-102624550D01*
X68940472Y-102860867D01*
X59340735Y-102860867D01*
X59334911Y-99739133D01*
X68940472Y-99739133D01*
X69002965Y-99975450D01*
X69245678Y-100088850D01*
X69505849Y-100152719D01*
X69773482Y-100164604D01*
X70038291Y-100124048D01*
X70290100Y-100032609D01*
X70397035Y-99975450D01*
X70459528Y-99739133D01*
X69700000Y-98979605D01*
X68940472Y-99739133D01*
X59334911Y-99739133D01*
X59331885Y-98117609D01*
X65456538Y-98117609D01*
X65460409Y-98155282D01*
X65552579Y-98380533D01*
X65686922Y-98583474D01*
X65858275Y-98756307D01*
X66060054Y-98892390D01*
X66284504Y-98986493D01*
X66523000Y-99035000D01*
X66873000Y-99035000D01*
X66873000Y-97927000D01*
X67127000Y-97927000D01*
X67127000Y-99035000D01*
X67477000Y-99035000D01*
X67715496Y-98986493D01*
X67939946Y-98892390D01*
X68141725Y-98756307D01*
X68313078Y-98583474D01*
X68376171Y-98488164D01*
X68347281Y-98605849D01*
X68335396Y-98873482D01*
X68375952Y-99138291D01*
X68467391Y-99390100D01*
X68524550Y-99497035D01*
X68760867Y-99559528D01*
X69520395Y-98800000D01*
X69879605Y-98800000D01*
X70639133Y-99559528D01*
X70875450Y-99497035D01*
X70988850Y-99254322D01*
X71052719Y-98994151D01*
X71058676Y-98860000D01*
X103057718Y-98860000D01*
X103086776Y-99155032D01*
X103172834Y-99438725D01*
X103312583Y-99700179D01*
X103500655Y-99929345D01*
X103566114Y-99983066D01*
X103456613Y-100041595D01*
X103322038Y-100152038D01*
X103211595Y-100286613D01*
X103129528Y-100440149D01*
X103078992Y-100606745D01*
X103061928Y-100779999D01*
X103061928Y-102020001D01*
X103078992Y-102193255D01*
X103129528Y-102359851D01*
X103211595Y-102513387D01*
X103322038Y-102647962D01*
X103456613Y-102758405D01*
X103610149Y-102840472D01*
X103776745Y-102891008D01*
X103949999Y-102908072D01*
X105650001Y-102908072D01*
X105823255Y-102891008D01*
X105989851Y-102840472D01*
X106143387Y-102758405D01*
X106277962Y-102647962D01*
X106388405Y-102513387D01*
X106470472Y-102359851D01*
X106521008Y-102193255D01*
X106538072Y-102020001D01*
X106538072Y-100779999D01*
X106521008Y-100606745D01*
X106470472Y-100440149D01*
X106388405Y-100286613D01*
X106277962Y-100152038D01*
X106143387Y-100041595D01*
X106033886Y-99983066D01*
X106099345Y-99929345D01*
X106287417Y-99700179D01*
X106427166Y-99438725D01*
X106513224Y-99155032D01*
X106542282Y-98860000D01*
X106513224Y-98564968D01*
X106427166Y-98281275D01*
X106287417Y-98019821D01*
X106099345Y-97790655D01*
X105870179Y-97602583D01*
X105608725Y-97462834D01*
X105325032Y-97376776D01*
X105103936Y-97355000D01*
X104496064Y-97355000D01*
X104274968Y-97376776D01*
X103991275Y-97462834D01*
X103729821Y-97602583D01*
X103500655Y-97790655D01*
X103312583Y-98019821D01*
X103172834Y-98281275D01*
X103086776Y-98564968D01*
X103057718Y-98860000D01*
X71058676Y-98860000D01*
X71064604Y-98726518D01*
X71024048Y-98461709D01*
X70932609Y-98209900D01*
X70875450Y-98102965D01*
X70639133Y-98040472D01*
X69879605Y-98800000D01*
X69520395Y-98800000D01*
X68760867Y-98040472D01*
X68532503Y-98100862D01*
X68418731Y-97927000D01*
X67127000Y-97927000D01*
X66873000Y-97927000D01*
X65581269Y-97927000D01*
X65456538Y-98117609D01*
X59331885Y-98117609D01*
X59331407Y-97860867D01*
X68940472Y-97860867D01*
X69700000Y-98620395D01*
X70459528Y-97860867D01*
X70397035Y-97624550D01*
X70154322Y-97511150D01*
X69894151Y-97447281D01*
X69626518Y-97435396D01*
X69361709Y-97475952D01*
X69109900Y-97567391D01*
X69002965Y-97624550D01*
X68940472Y-97860867D01*
X59331407Y-97860867D01*
X59330700Y-97482391D01*
X65456538Y-97482391D01*
X65581269Y-97673000D01*
X66873000Y-97673000D01*
X66873000Y-96565000D01*
X67127000Y-96565000D01*
X67127000Y-97673000D01*
X68418731Y-97673000D01*
X68543462Y-97482391D01*
X68539591Y-97444718D01*
X68447421Y-97219467D01*
X68313078Y-97016526D01*
X68141725Y-96843693D01*
X67939946Y-96707610D01*
X67715496Y-96613507D01*
X67477000Y-96565000D01*
X67127000Y-96565000D01*
X66873000Y-96565000D01*
X66523000Y-96565000D01*
X66284504Y-96613507D01*
X66060054Y-96707610D01*
X65858275Y-96843693D01*
X65686922Y-97016526D01*
X65552579Y-97219467D01*
X65460409Y-97444718D01*
X65456538Y-97482391D01*
X59330700Y-97482391D01*
X59327236Y-95626200D01*
X154272529Y-95027805D01*
X154073467Y-149172733D01*
G37*
X154073467Y-149172733D02*
X59426764Y-148973267D01*
X59367856Y-117398061D01*
X60865000Y-117398061D01*
X60865000Y-117601939D01*
X60904774Y-117801898D01*
X60965000Y-117947296D01*
X60965001Y-119054059D01*
X60960476Y-119100000D01*
X60978529Y-119283291D01*
X61015381Y-119404774D01*
X61031994Y-119459540D01*
X61118815Y-119621972D01*
X61235657Y-119764344D01*
X61271336Y-119793625D01*
X63865000Y-122387290D01*
X63865001Y-125152703D01*
X63804774Y-125298102D01*
X63765000Y-125498061D01*
X63765000Y-125701939D01*
X63804774Y-125901898D01*
X63865001Y-126047298D01*
X63865000Y-135454068D01*
X63860476Y-135500000D01*
X63865000Y-135545931D01*
X63878529Y-135683291D01*
X63931993Y-135859539D01*
X64018814Y-136021971D01*
X64135656Y-136164344D01*
X64171341Y-136193630D01*
X75206370Y-147228659D01*
X75235656Y-147264344D01*
X75378028Y-147381186D01*
X75483880Y-147437765D01*
X75540459Y-147468007D01*
X75716708Y-147521472D01*
X75900000Y-147539524D01*
X75945935Y-147535000D01*
X104452705Y-147535000D01*
X104555142Y-147577431D01*
X105306370Y-148328659D01*
X105335656Y-148364344D01*
X105478028Y-148481186D01*
X105640460Y-148568007D01*
X105816708Y-148621471D01*
X106000000Y-148639524D01*
X106045932Y-148635000D01*
X149054068Y-148635000D01*
X149100000Y-148639524D01*
X149145932Y-148635000D01*
X149283292Y-148621471D01*
X149459540Y-148568007D01*
X149621972Y-148481186D01*
X149764344Y-148364344D01*
X149793630Y-148328659D01*
X152128659Y-145993630D01*
X152164344Y-145964344D01*
X152281186Y-145821972D01*
X152355577Y-145682795D01*
X152368007Y-145659541D01*
X152421472Y-145483292D01*
X152439524Y-145300000D01*
X152435000Y-145254065D01*
X152435000Y-111545935D01*
X152439524Y-111500000D01*
X152421472Y-111316708D01*
X152368007Y-111140459D01*
X152337765Y-111083880D01*
X152281186Y-110978028D01*
X152164344Y-110835656D01*
X152128660Y-110806371D01*
X150593630Y-109271341D01*
X150564344Y-109235656D01*
X150421972Y-109118814D01*
X150259540Y-109031993D01*
X150083292Y-108978529D01*
X149945932Y-108965000D01*
X149900000Y-108960476D01*
X149854068Y-108965000D01*
X146887291Y-108965000D01*
X141393632Y-103471341D01*
X141364346Y-103435656D01*
X141221974Y-103318814D01*
X141059542Y-103231993D01*
X140883294Y-103178529D01*
X140745934Y-103165000D01*
X140700002Y-103160476D01*
X140654070Y-103165000D01*
X133647295Y-103165000D01*
X133501898Y-103104774D01*
X133301939Y-103065000D01*
X133098061Y-103065000D01*
X132898102Y-103104774D01*
X132709744Y-103182795D01*
X132540226Y-103296063D01*
X132396063Y-103440226D01*
X132282795Y-103609744D01*
X132204774Y-103798102D01*
X132165000Y-103998061D01*
X132165000Y-104201939D01*
X132204774Y-104401898D01*
X132282795Y-104590256D01*
X132396063Y-104759774D01*
X132540226Y-104903937D01*
X132709744Y-105017205D01*
X132898102Y-105095226D01*
X133098061Y-105135000D01*
X133301939Y-105135000D01*
X133501898Y-105095226D01*
X133647295Y-105035000D01*
X140312713Y-105035000D01*
X145806372Y-110528659D01*
X145835658Y-110564344D01*
X145978030Y-110681186D01*
X146048428Y-110718814D01*
X146140461Y-110768007D01*
X146316710Y-110821472D01*
X146500002Y-110839524D01*
X146545937Y-110835000D01*
X149512711Y-110835000D01*
X150565000Y-111887289D01*
X150565000Y-123090198D01*
X149144528Y-121669726D01*
X149185000Y-121466260D01*
X149185000Y-121173740D01*
X149127932Y-120886842D01*
X149015990Y-120616589D01*
X148853475Y-120373368D01*
X148646632Y-120166525D01*
X148472240Y-120050000D01*
X148646632Y-119933475D01*
X148853475Y-119726632D01*
X149015990Y-119483411D01*
X149127932Y-119213158D01*
X149185000Y-118926260D01*
X149185000Y-118633740D01*
X149127932Y-118346842D01*
X149015990Y-118076589D01*
X148853475Y-117833368D01*
X148646632Y-117626525D01*
X148472240Y-117510000D01*
X148646632Y-117393475D01*
X148853475Y-117186632D01*
X149015990Y-116943411D01*
X149127932Y-116673158D01*
X149185000Y-116386260D01*
X149185000Y-116093740D01*
X149127932Y-115806842D01*
X149015990Y-115536589D01*
X148853475Y-115293368D01*
X148721620Y-115161513D01*
X148794180Y-115139502D01*
X148904494Y-115080537D01*
X149001185Y-115001185D01*
X149080537Y-114904494D01*
X149139502Y-114794180D01*
X149175812Y-114674482D01*
X149188072Y-114550000D01*
X149188072Y-112850000D01*
X149175812Y-112725518D01*
X149139502Y-112605820D01*
X149080537Y-112495506D01*
X149001185Y-112398815D01*
X148904494Y-112319463D01*
X148794180Y-112260498D01*
X148674482Y-112224188D01*
X148550000Y-112211928D01*
X146850000Y-112211928D01*
X146725518Y-112224188D01*
X146605820Y-112260498D01*
X146495506Y-112319463D01*
X146398815Y-112398815D01*
X146319463Y-112495506D01*
X146260498Y-112605820D01*
X146224188Y-112725518D01*
X146211928Y-112850000D01*
X146211928Y-114550000D01*
X146224188Y-114674482D01*
X146260498Y-114794180D01*
X146319463Y-114904494D01*
X146398815Y-115001185D01*
X146495506Y-115080537D01*
X146605820Y-115139502D01*
X146678380Y-115161513D01*
X146546525Y-115293368D01*
X146384010Y-115536589D01*
X146272068Y-115806842D01*
X146215000Y-116093740D01*
X146215000Y-116386260D01*
X146272068Y-116673158D01*
X146384010Y-116943411D01*
X146546525Y-117186632D01*
X146753368Y-117393475D01*
X146927760Y-117510000D01*
X146753368Y-117626525D01*
X146546525Y-117833368D01*
X146384010Y-118076589D01*
X146272068Y-118346842D01*
X146215000Y-118633740D01*
X146215000Y-118926260D01*
X146272068Y-119213158D01*
X146384010Y-119483411D01*
X146546525Y-119726632D01*
X146753368Y-119933475D01*
X146927760Y-120050000D01*
X146753368Y-120166525D01*
X146546525Y-120373368D01*
X146384010Y-120616589D01*
X146272068Y-120886842D01*
X146215000Y-121173740D01*
X146215000Y-121466260D01*
X146272068Y-121753158D01*
X146384010Y-122023411D01*
X146546525Y-122266632D01*
X146753368Y-122473475D01*
X146927760Y-122590000D01*
X146753368Y-122706525D01*
X146717347Y-122742546D01*
X144733804Y-120759003D01*
X144710001Y-120729999D01*
X144594276Y-120635026D01*
X144462247Y-120564454D01*
X144318986Y-120520997D01*
X144207333Y-120510000D01*
X144207322Y-120510000D01*
X144170000Y-120506324D01*
X144132678Y-120510000D01*
X93235802Y-120510000D01*
X93289774Y-120473937D01*
X93433937Y-120329774D01*
X93547205Y-120160256D01*
X93625226Y-119971898D01*
X93665000Y-119771939D01*
X93665000Y-119568061D01*
X93625226Y-119368102D01*
X93547205Y-119179744D01*
X93433937Y-119010226D01*
X93289774Y-118866063D01*
X93120256Y-118752795D01*
X92931898Y-118674774D01*
X92731939Y-118635000D01*
X92528061Y-118635000D01*
X92328102Y-118674774D01*
X92139744Y-118752795D01*
X91970226Y-118866063D01*
X91826063Y-119010226D01*
X91712795Y-119179744D01*
X91634774Y-119368102D01*
X91595000Y-119568061D01*
X91595000Y-119630199D01*
X91585199Y-119640000D01*
X87603711Y-119640000D01*
X87559774Y-119596063D01*
X87390256Y-119482795D01*
X87201898Y-119404774D01*
X87001939Y-119365000D01*
X86798061Y-119365000D01*
X86598102Y-119404774D01*
X86409744Y-119482795D01*
X86240226Y-119596063D01*
X86096063Y-119740226D01*
X85982795Y-119909744D01*
X85904774Y-120098102D01*
X85865000Y-120298061D01*
X85865000Y-120501939D01*
X85904774Y-120701898D01*
X85982795Y-120890256D01*
X86096063Y-121059774D01*
X86240226Y-121203937D01*
X86409744Y-121317205D01*
X86598102Y-121395226D01*
X86798061Y-121435000D01*
X87001939Y-121435000D01*
X87201898Y-121395226D01*
X87390256Y-121317205D01*
X87559774Y-121203937D01*
X87603711Y-121160000D01*
X90996603Y-121160000D01*
X90995000Y-121168061D01*
X90995000Y-121371939D01*
X91034774Y-121571898D01*
X91112795Y-121760256D01*
X91226063Y-121929774D01*
X91370226Y-122073937D01*
X91539744Y-122187205D01*
X91728102Y-122265226D01*
X91928061Y-122305000D01*
X92002737Y-122305000D01*
X91952795Y-122379744D01*
X91874774Y-122568102D01*
X91835000Y-122768061D01*
X91835000Y-122971939D01*
X91874774Y-123171898D01*
X91952795Y-123360256D01*
X92066063Y-123529774D01*
X92210226Y-123673937D01*
X92379744Y-123787205D01*
X92568102Y-123865226D01*
X92768061Y-123905000D01*
X92861467Y-123905000D01*
X92874774Y-123971898D01*
X92952795Y-124160256D01*
X93066063Y-124329774D01*
X93210226Y-124473937D01*
X93379744Y-124587205D01*
X93568102Y-124665226D01*
X93768061Y-124705000D01*
X93971939Y-124705000D01*
X94171898Y-124665226D01*
X94360256Y-124587205D01*
X94529774Y-124473937D01*
X94573711Y-124430000D01*
X131855199Y-124430000D01*
X144436201Y-137011003D01*
X144459999Y-137040001D01*
X144488997Y-137063799D01*
X144575723Y-137134974D01*
X144707753Y-137205546D01*
X144851014Y-137249003D01*
X144962667Y-137260000D01*
X144962677Y-137260000D01*
X144999999Y-137263676D01*
X145037322Y-137260000D01*
X149462678Y-137260000D01*
X149500000Y-137263676D01*
X149537322Y-137260000D01*
X149537333Y-137260000D01*
X149648986Y-137249003D01*
X149792247Y-137205546D01*
X149924276Y-137134974D01*
X150040001Y-137040001D01*
X150063803Y-137010998D01*
X150565001Y-136509802D01*
X150565001Y-144912710D01*
X148712711Y-146765000D01*
X106387289Y-146765000D01*
X105877431Y-146255142D01*
X105817205Y-146109744D01*
X105703937Y-145940226D01*
X105559774Y-145796063D01*
X105390256Y-145682795D01*
X105201898Y-145604774D01*
X105001939Y-145565000D01*
X104798061Y-145565000D01*
X104598102Y-145604774D01*
X104452705Y-145665000D01*
X76287289Y-145665000D01*
X75176029Y-144553740D01*
X132155000Y-144553740D01*
X132155000Y-144846260D01*
X132212068Y-145133158D01*
X132324010Y-145403411D01*
X132486525Y-145646632D01*
X132693368Y-145853475D01*
X132936589Y-146015990D01*
X133206842Y-146127932D01*
X133493740Y-146185000D01*
X133786260Y-146185000D01*
X134073158Y-146127932D01*
X134343411Y-146015990D01*
X134586632Y-145853475D01*
X134793475Y-145646632D01*
X134910000Y-145472240D01*
X135026525Y-145646632D01*
X135233368Y-145853475D01*
X135476589Y-146015990D01*
X135746842Y-146127932D01*
X136033740Y-146185000D01*
X136326260Y-146185000D01*
X136613158Y-146127932D01*
X136883411Y-146015990D01*
X137126632Y-145853475D01*
X137333475Y-145646632D01*
X137455195Y-145464466D01*
X137524822Y-145581355D01*
X137719731Y-145797588D01*
X137953080Y-145971641D01*
X138215901Y-146096825D01*
X138363110Y-146141476D01*
X138593000Y-146020155D01*
X138593000Y-144827000D01*
X138573000Y-144827000D01*
X138573000Y-144573000D01*
X138593000Y-144573000D01*
X138593000Y-143379845D01*
X138847000Y-143379845D01*
X138847000Y-144573000D01*
X138867000Y-144573000D01*
X138867000Y-144827000D01*
X138847000Y-144827000D01*
X138847000Y-146020155D01*
X139076890Y-146141476D01*
X139224099Y-146096825D01*
X139486920Y-145971641D01*
X139720269Y-145797588D01*
X139915178Y-145581355D01*
X139984805Y-145464466D01*
X140106525Y-145646632D01*
X140313368Y-145853475D01*
X140556589Y-146015990D01*
X140826842Y-146127932D01*
X141113740Y-146185000D01*
X141406260Y-146185000D01*
X141693158Y-146127932D01*
X141963411Y-146015990D01*
X142206632Y-145853475D01*
X142338487Y-145721620D01*
X142360498Y-145794180D01*
X142419463Y-145904494D01*
X142498815Y-146001185D01*
X142595506Y-146080537D01*
X142705820Y-146139502D01*
X142825518Y-146175812D01*
X142950000Y-146188072D01*
X144650000Y-146188072D01*
X144774482Y-146175812D01*
X144894180Y-146139502D01*
X145004494Y-146080537D01*
X145101185Y-146001185D01*
X145180537Y-145904494D01*
X145239502Y-145794180D01*
X145275812Y-145674482D01*
X145288072Y-145550000D01*
X145288072Y-143850000D01*
X145275812Y-143725518D01*
X145239502Y-143605820D01*
X145180537Y-143495506D01*
X145101185Y-143398815D01*
X145004494Y-143319463D01*
X144894180Y-143260498D01*
X144774482Y-143224188D01*
X144650000Y-143211928D01*
X142950000Y-143211928D01*
X142825518Y-143224188D01*
X142705820Y-143260498D01*
X142595506Y-143319463D01*
X142498815Y-143398815D01*
X142419463Y-143495506D01*
X142360498Y-143605820D01*
X142338487Y-143678380D01*
X142206632Y-143546525D01*
X141963411Y-143384010D01*
X141693158Y-143272068D01*
X141406260Y-143215000D01*
X141113740Y-143215000D01*
X140826842Y-143272068D01*
X140556589Y-143384010D01*
X140313368Y-143546525D01*
X140106525Y-143753368D01*
X139984805Y-143935534D01*
X139915178Y-143818645D01*
X139720269Y-143602412D01*
X139486920Y-143428359D01*
X139224099Y-143303175D01*
X139076890Y-143258524D01*
X138847000Y-143379845D01*
X138593000Y-143379845D01*
X138363110Y-143258524D01*
X138215901Y-143303175D01*
X137953080Y-143428359D01*
X137719731Y-143602412D01*
X137524822Y-143818645D01*
X137455195Y-143935534D01*
X137333475Y-143753368D01*
X137126632Y-143546525D01*
X136883411Y-143384010D01*
X136613158Y-143272068D01*
X136326260Y-143215000D01*
X136033740Y-143215000D01*
X135746842Y-143272068D01*
X135476589Y-143384010D01*
X135233368Y-143546525D01*
X135026525Y-143753368D01*
X134910000Y-143927760D01*
X134793475Y-143753368D01*
X134586632Y-143546525D01*
X134343411Y-143384010D01*
X134073158Y-143272068D01*
X133786260Y-143215000D01*
X133493740Y-143215000D01*
X133206842Y-143272068D01*
X132936589Y-143384010D01*
X132693368Y-143546525D01*
X132486525Y-143753368D01*
X132324010Y-143996589D01*
X132212068Y-144266842D01*
X132155000Y-144553740D01*
X75176029Y-144553740D01*
X65735000Y-135112711D01*
X65735000Y-133398061D01*
X72965000Y-133398061D01*
X72965000Y-133601939D01*
X73004774Y-133801898D01*
X73082795Y-133990256D01*
X73196063Y-134159774D01*
X73340226Y-134303937D01*
X73509744Y-134417205D01*
X73698102Y-134495226D01*
X73898061Y-134535000D01*
X74101939Y-134535000D01*
X74301898Y-134495226D01*
X74490256Y-134417205D01*
X74659774Y-134303937D01*
X74803937Y-134159774D01*
X74917205Y-133990256D01*
X74995226Y-133801898D01*
X75035000Y-133601939D01*
X75035000Y-133539801D01*
X75414803Y-133159999D01*
X109038202Y-133159999D01*
X108358201Y-133840000D01*
X86303711Y-133840000D01*
X86259774Y-133796063D01*
X86090256Y-133682795D01*
X85901898Y-133604774D01*
X85701939Y-133565000D01*
X85498061Y-133565000D01*
X85298102Y-133604774D01*
X85109744Y-133682795D01*
X84940226Y-133796063D01*
X84796063Y-133940226D01*
X84682795Y-134109744D01*
X84604774Y-134298102D01*
X84565000Y-134498061D01*
X84565000Y-134701939D01*
X84604774Y-134901898D01*
X84682795Y-135090256D01*
X84796063Y-135259774D01*
X84940226Y-135403937D01*
X85109744Y-135517205D01*
X85298102Y-135595226D01*
X85498061Y-135635000D01*
X85701939Y-135635000D01*
X85901898Y-135595226D01*
X86090256Y-135517205D01*
X86259774Y-135403937D01*
X86303711Y-135360000D01*
X108635680Y-135360000D01*
X108673002Y-135363676D01*
X108710324Y-135360000D01*
X108710335Y-135360000D01*
X108821988Y-135349003D01*
X108965249Y-135305546D01*
X109097278Y-135234974D01*
X109213003Y-135140001D01*
X109236806Y-135110997D01*
X111811004Y-132536800D01*
X111840001Y-132513003D01*
X111934974Y-132397278D01*
X112005546Y-132265249D01*
X112049003Y-132121988D01*
X112060000Y-132010335D01*
X112060000Y-132010326D01*
X112063676Y-131973003D01*
X112060000Y-131935680D01*
X112060000Y-127637325D01*
X112063676Y-127600000D01*
X112060000Y-127562675D01*
X112060000Y-127562667D01*
X112049003Y-127451014D01*
X112005546Y-127307753D01*
X111934974Y-127175724D01*
X111840001Y-127059999D01*
X111811003Y-127036201D01*
X110805000Y-126030199D01*
X110805000Y-125968061D01*
X110765226Y-125768102D01*
X110687205Y-125579744D01*
X110573937Y-125410226D01*
X110429774Y-125266063D01*
X110260256Y-125152795D01*
X110071898Y-125074774D01*
X109871939Y-125035000D01*
X109668061Y-125035000D01*
X109468102Y-125074774D01*
X109279744Y-125152795D01*
X109110226Y-125266063D01*
X108966063Y-125410226D01*
X108852795Y-125579744D01*
X108774774Y-125768102D01*
X108735000Y-125968061D01*
X108735000Y-126171939D01*
X108774774Y-126371898D01*
X108852795Y-126560256D01*
X108966063Y-126729774D01*
X109110226Y-126873937D01*
X109279744Y-126987205D01*
X109468102Y-127065226D01*
X109668061Y-127105000D01*
X109730199Y-127105000D01*
X110540001Y-127914803D01*
X110540000Y-131020557D01*
X110501898Y-131004774D01*
X110301939Y-130965000D01*
X110098061Y-130965000D01*
X109898102Y-131004774D01*
X109709744Y-131082795D01*
X109540226Y-131196063D01*
X109396063Y-131340226D01*
X109282795Y-131509744D01*
X109228841Y-131639999D01*
X75137323Y-131639999D01*
X75100000Y-131636323D01*
X75062677Y-131639999D01*
X75062668Y-131639999D01*
X74951015Y-131650996D01*
X74807754Y-131694453D01*
X74675725Y-131765025D01*
X74560000Y-131859998D01*
X74536202Y-131888996D01*
X73960199Y-132465000D01*
X73898061Y-132465000D01*
X73698102Y-132504774D01*
X73509744Y-132582795D01*
X73340226Y-132696063D01*
X73196063Y-132840226D01*
X73082795Y-133009744D01*
X73004774Y-133198102D01*
X72965000Y-133398061D01*
X65735000Y-133398061D01*
X65735000Y-128659782D01*
X65818645Y-128735178D01*
X66068748Y-128884157D01*
X66343109Y-128981481D01*
X66573000Y-128860814D01*
X66573000Y-127667000D01*
X66827000Y-127667000D01*
X66827000Y-128860814D01*
X67056891Y-128981481D01*
X67331252Y-128884157D01*
X67581355Y-128735178D01*
X67797588Y-128540269D01*
X67971641Y-128306920D01*
X68096825Y-128044099D01*
X68141476Y-127896890D01*
X68020155Y-127667000D01*
X66827000Y-127667000D01*
X66573000Y-127667000D01*
X66553000Y-127667000D01*
X66553000Y-127413000D01*
X66573000Y-127413000D01*
X66573000Y-127393000D01*
X66827000Y-127393000D01*
X66827000Y-127413000D01*
X68020155Y-127413000D01*
X68141476Y-127183110D01*
X68096825Y-127035901D01*
X67971641Y-126773080D01*
X67797588Y-126539731D01*
X67581355Y-126344822D01*
X67464466Y-126275195D01*
X67646632Y-126153475D01*
X67853475Y-125946632D01*
X68015990Y-125703411D01*
X68127932Y-125433158D01*
X68185000Y-125146260D01*
X68185000Y-124853740D01*
X68127932Y-124566842D01*
X68015990Y-124296589D01*
X67853475Y-124053368D01*
X67646632Y-123846525D01*
X67472240Y-123730000D01*
X67646632Y-123613475D01*
X67853475Y-123406632D01*
X68015990Y-123163411D01*
X68127932Y-122893158D01*
X68185000Y-122606260D01*
X68185000Y-122313740D01*
X68127932Y-122026842D01*
X68015990Y-121756589D01*
X67853475Y-121513368D01*
X67646632Y-121306525D01*
X67472240Y-121190000D01*
X67646632Y-121073475D01*
X67853475Y-120866632D01*
X68015990Y-120623411D01*
X68127932Y-120353158D01*
X68185000Y-120066260D01*
X68185000Y-119773740D01*
X68127932Y-119486842D01*
X68015990Y-119216589D01*
X67853475Y-118973368D01*
X67646632Y-118766525D01*
X67472240Y-118650000D01*
X67646632Y-118533475D01*
X67853475Y-118326632D01*
X68015990Y-118083411D01*
X68127932Y-117813158D01*
X68185000Y-117526260D01*
X68185000Y-117233740D01*
X68127932Y-116946842D01*
X68015990Y-116676589D01*
X67853475Y-116433368D01*
X67646632Y-116226525D01*
X67472240Y-116110000D01*
X67646632Y-115993475D01*
X67853475Y-115786632D01*
X67986156Y-115588060D01*
X69454999Y-115588060D01*
X69454999Y-115791938D01*
X69494773Y-115991897D01*
X69572794Y-116180255D01*
X69686062Y-116349773D01*
X69830225Y-116493936D01*
X69999743Y-116607204D01*
X70188101Y-116685225D01*
X70388060Y-116724999D01*
X70450198Y-116724999D01*
X80336200Y-126611002D01*
X80359999Y-126640001D01*
X80388997Y-126663799D01*
X80475724Y-126734974D01*
X80607753Y-126805546D01*
X80751014Y-126849003D01*
X80900000Y-126863677D01*
X80937333Y-126860000D01*
X105085198Y-126860000D01*
X105340001Y-127114803D01*
X105340000Y-129396289D01*
X105296063Y-129440226D01*
X105182795Y-129609744D01*
X105104774Y-129798102D01*
X105065000Y-129998061D01*
X105065000Y-130201939D01*
X105104774Y-130401898D01*
X105182795Y-130590256D01*
X105296063Y-130759774D01*
X105440226Y-130903937D01*
X105609744Y-131017205D01*
X105798102Y-131095226D01*
X105998061Y-131135000D01*
X106201939Y-131135000D01*
X106401898Y-131095226D01*
X106590256Y-131017205D01*
X106759774Y-130903937D01*
X106903937Y-130759774D01*
X107017205Y-130590256D01*
X107095226Y-130401898D01*
X107135000Y-130201939D01*
X107135000Y-129998061D01*
X107095226Y-129798102D01*
X107017205Y-129609744D01*
X106903937Y-129440226D01*
X106860000Y-129396289D01*
X106860000Y-126837322D01*
X106863676Y-126799999D01*
X106860000Y-126762676D01*
X106860000Y-126762667D01*
X106849003Y-126651014D01*
X106805546Y-126507753D01*
X106734974Y-126375724D01*
X106721811Y-126359685D01*
X106663799Y-126288996D01*
X106663795Y-126288992D01*
X106640001Y-126259999D01*
X106611008Y-126236205D01*
X105963803Y-125589002D01*
X105940001Y-125559999D01*
X105824276Y-125465026D01*
X105692247Y-125394454D01*
X105548986Y-125350997D01*
X105437333Y-125340000D01*
X105437322Y-125340000D01*
X105400000Y-125336324D01*
X105362678Y-125340000D01*
X81214802Y-125340000D01*
X71524999Y-115650198D01*
X71524999Y-115588060D01*
X71485225Y-115388101D01*
X71407204Y-115199743D01*
X71293936Y-115030225D01*
X71149773Y-114886062D01*
X70980255Y-114772794D01*
X70791897Y-114694773D01*
X70591938Y-114654999D01*
X70388060Y-114654999D01*
X70188101Y-114694773D01*
X69999743Y-114772794D01*
X69830225Y-114886062D01*
X69686062Y-115030225D01*
X69572794Y-115199743D01*
X69494773Y-115388101D01*
X69454999Y-115588060D01*
X67986156Y-115588060D01*
X68015990Y-115543411D01*
X68127932Y-115273158D01*
X68185000Y-114986260D01*
X68185000Y-114693740D01*
X68127932Y-114406842D01*
X68015990Y-114136589D01*
X67853475Y-113893368D01*
X67721620Y-113761513D01*
X67794180Y-113739502D01*
X67904494Y-113680537D01*
X68001185Y-113601185D01*
X68080537Y-113504494D01*
X68139502Y-113394180D01*
X68175812Y-113274482D01*
X68188072Y-113150000D01*
X68188072Y-111450000D01*
X68175812Y-111325518D01*
X68139502Y-111205820D01*
X68080537Y-111095506D01*
X68001185Y-110998815D01*
X67904494Y-110919463D01*
X67794180Y-110860498D01*
X67674482Y-110824188D01*
X67550000Y-110811928D01*
X65850000Y-110811928D01*
X65725518Y-110824188D01*
X65605820Y-110860498D01*
X65495506Y-110919463D01*
X65398815Y-110998815D01*
X65319463Y-111095506D01*
X65260498Y-111205820D01*
X65224188Y-111325518D01*
X65211928Y-111450000D01*
X65211928Y-113150000D01*
X65224188Y-113274482D01*
X65260498Y-113394180D01*
X65319463Y-113504494D01*
X65398815Y-113601185D01*
X65495506Y-113680537D01*
X65605820Y-113739502D01*
X65678380Y-113761513D01*
X65546525Y-113893368D01*
X65384010Y-114136589D01*
X65272068Y-114406842D01*
X65215000Y-114693740D01*
X65215000Y-114986260D01*
X65272068Y-115273158D01*
X65384010Y-115543411D01*
X65546525Y-115786632D01*
X65753368Y-115993475D01*
X65927760Y-116110000D01*
X65753368Y-116226525D01*
X65546525Y-116433368D01*
X65384010Y-116676589D01*
X65272068Y-116946842D01*
X65215000Y-117233740D01*
X65215000Y-117526260D01*
X65272068Y-117813158D01*
X65384010Y-118083411D01*
X65546525Y-118326632D01*
X65753368Y-118533475D01*
X65927760Y-118650000D01*
X65753368Y-118766525D01*
X65546525Y-118973368D01*
X65384010Y-119216589D01*
X65272068Y-119486842D01*
X65215000Y-119773740D01*
X65215000Y-120066260D01*
X65272068Y-120353158D01*
X65384010Y-120623411D01*
X65546525Y-120866632D01*
X65753368Y-121073475D01*
X65927760Y-121190000D01*
X65753368Y-121306525D01*
X65581423Y-121478470D01*
X65581186Y-121478028D01*
X65464344Y-121335656D01*
X65428666Y-121306376D01*
X62835000Y-118712711D01*
X62835000Y-117947295D01*
X62895226Y-117801898D01*
X62935000Y-117601939D01*
X62935000Y-117398061D01*
X62895226Y-117198102D01*
X62817205Y-117009744D01*
X62703937Y-116840226D01*
X62559774Y-116696063D01*
X62390256Y-116582795D01*
X62201898Y-116504774D01*
X62001939Y-116465000D01*
X61798061Y-116465000D01*
X61598102Y-116504774D01*
X61409744Y-116582795D01*
X61240226Y-116696063D01*
X61096063Y-116840226D01*
X60982795Y-117009744D01*
X60904774Y-117198102D01*
X60865000Y-117398061D01*
X59367856Y-117398061D01*
X59344945Y-105117609D01*
X65456538Y-105117609D01*
X65460409Y-105155282D01*
X65552579Y-105380533D01*
X65686922Y-105583474D01*
X65858275Y-105756307D01*
X66060054Y-105892390D01*
X66284504Y-105986493D01*
X66523000Y-106035000D01*
X66873000Y-106035000D01*
X66873000Y-104927000D01*
X67127000Y-104927000D01*
X67127000Y-106035000D01*
X67477000Y-106035000D01*
X67715496Y-105986493D01*
X67939946Y-105892390D01*
X68141725Y-105756307D01*
X68313078Y-105583474D01*
X68447421Y-105380533D01*
X68539591Y-105155282D01*
X68543462Y-105117609D01*
X68418731Y-104927000D01*
X67127000Y-104927000D01*
X66873000Y-104927000D01*
X65581269Y-104927000D01*
X65456538Y-105117609D01*
X59344945Y-105117609D01*
X59344239Y-104739133D01*
X68940472Y-104739133D01*
X69002965Y-104975450D01*
X69245678Y-105088850D01*
X69505849Y-105152719D01*
X69773482Y-105164604D01*
X70038291Y-105124048D01*
X70290100Y-105032609D01*
X70397035Y-104975450D01*
X70459528Y-104739133D01*
X69700000Y-103979605D01*
X68940472Y-104739133D01*
X59344239Y-104739133D01*
X59343760Y-104482391D01*
X65456538Y-104482391D01*
X65581269Y-104673000D01*
X66873000Y-104673000D01*
X66873000Y-103565000D01*
X67127000Y-103565000D01*
X67127000Y-104673000D01*
X68418731Y-104673000D01*
X68532503Y-104499138D01*
X68760867Y-104559528D01*
X69520395Y-103800000D01*
X69879605Y-103800000D01*
X70639133Y-104559528D01*
X70875450Y-104497035D01*
X70988850Y-104254322D01*
X71052719Y-103994151D01*
X71064604Y-103726518D01*
X71024048Y-103461709D01*
X70932609Y-103209900D01*
X70875450Y-103102965D01*
X70639133Y-103040472D01*
X69879605Y-103800000D01*
X69520395Y-103800000D01*
X68760867Y-103040472D01*
X68524550Y-103102965D01*
X68411150Y-103345678D01*
X68347281Y-103605849D01*
X68335396Y-103873482D01*
X68370615Y-104103442D01*
X68313078Y-104016526D01*
X68141725Y-103843693D01*
X67939946Y-103707610D01*
X67715496Y-103613507D01*
X67477000Y-103565000D01*
X67127000Y-103565000D01*
X66873000Y-103565000D01*
X66523000Y-103565000D01*
X66284504Y-103613507D01*
X66060054Y-103707610D01*
X65858275Y-103843693D01*
X65686922Y-104016526D01*
X65552579Y-104219467D01*
X65460409Y-104444718D01*
X65456538Y-104482391D01*
X59343760Y-104482391D01*
X59340735Y-102860867D01*
X68940472Y-102860867D01*
X69700000Y-103620395D01*
X70459528Y-102860867D01*
X70397035Y-102624550D01*
X70154322Y-102511150D01*
X69894151Y-102447281D01*
X69626518Y-102435396D01*
X69361709Y-102475952D01*
X69109900Y-102567391D01*
X69002965Y-102624550D01*
X68940472Y-102860867D01*
X59340735Y-102860867D01*
X59334911Y-99739133D01*
X68940472Y-99739133D01*
X69002965Y-99975450D01*
X69245678Y-100088850D01*
X69505849Y-100152719D01*
X69773482Y-100164604D01*
X70038291Y-100124048D01*
X70290100Y-100032609D01*
X70397035Y-99975450D01*
X70459528Y-99739133D01*
X69700000Y-98979605D01*
X68940472Y-99739133D01*
X59334911Y-99739133D01*
X59331885Y-98117609D01*
X65456538Y-98117609D01*
X65460409Y-98155282D01*
X65552579Y-98380533D01*
X65686922Y-98583474D01*
X65858275Y-98756307D01*
X66060054Y-98892390D01*
X66284504Y-98986493D01*
X66523000Y-99035000D01*
X66873000Y-99035000D01*
X66873000Y-97927000D01*
X67127000Y-97927000D01*
X67127000Y-99035000D01*
X67477000Y-99035000D01*
X67715496Y-98986493D01*
X67939946Y-98892390D01*
X68141725Y-98756307D01*
X68313078Y-98583474D01*
X68376171Y-98488164D01*
X68347281Y-98605849D01*
X68335396Y-98873482D01*
X68375952Y-99138291D01*
X68467391Y-99390100D01*
X68524550Y-99497035D01*
X68760867Y-99559528D01*
X69520395Y-98800000D01*
X69879605Y-98800000D01*
X70639133Y-99559528D01*
X70875450Y-99497035D01*
X70988850Y-99254322D01*
X71052719Y-98994151D01*
X71058676Y-98860000D01*
X103057718Y-98860000D01*
X103086776Y-99155032D01*
X103172834Y-99438725D01*
X103312583Y-99700179D01*
X103500655Y-99929345D01*
X103566114Y-99983066D01*
X103456613Y-100041595D01*
X103322038Y-100152038D01*
X103211595Y-100286613D01*
X103129528Y-100440149D01*
X103078992Y-100606745D01*
X103061928Y-100779999D01*
X103061928Y-102020001D01*
X103078992Y-102193255D01*
X103129528Y-102359851D01*
X103211595Y-102513387D01*
X103322038Y-102647962D01*
X103456613Y-102758405D01*
X103610149Y-102840472D01*
X103776745Y-102891008D01*
X103949999Y-102908072D01*
X105650001Y-102908072D01*
X105823255Y-102891008D01*
X105989851Y-102840472D01*
X106143387Y-102758405D01*
X106277962Y-102647962D01*
X106388405Y-102513387D01*
X106470472Y-102359851D01*
X106521008Y-102193255D01*
X106538072Y-102020001D01*
X106538072Y-100779999D01*
X106521008Y-100606745D01*
X106470472Y-100440149D01*
X106388405Y-100286613D01*
X106277962Y-100152038D01*
X106143387Y-100041595D01*
X106033886Y-99983066D01*
X106099345Y-99929345D01*
X106287417Y-99700179D01*
X106427166Y-99438725D01*
X106513224Y-99155032D01*
X106542282Y-98860000D01*
X106513224Y-98564968D01*
X106427166Y-98281275D01*
X106287417Y-98019821D01*
X106099345Y-97790655D01*
X105870179Y-97602583D01*
X105608725Y-97462834D01*
X105325032Y-97376776D01*
X105103936Y-97355000D01*
X104496064Y-97355000D01*
X104274968Y-97376776D01*
X103991275Y-97462834D01*
X103729821Y-97602583D01*
X103500655Y-97790655D01*
X103312583Y-98019821D01*
X103172834Y-98281275D01*
X103086776Y-98564968D01*
X103057718Y-98860000D01*
X71058676Y-98860000D01*
X71064604Y-98726518D01*
X71024048Y-98461709D01*
X70932609Y-98209900D01*
X70875450Y-98102965D01*
X70639133Y-98040472D01*
X69879605Y-98800000D01*
X69520395Y-98800000D01*
X68760867Y-98040472D01*
X68532503Y-98100862D01*
X68418731Y-97927000D01*
X67127000Y-97927000D01*
X66873000Y-97927000D01*
X65581269Y-97927000D01*
X65456538Y-98117609D01*
X59331885Y-98117609D01*
X59331407Y-97860867D01*
X68940472Y-97860867D01*
X69700000Y-98620395D01*
X70459528Y-97860867D01*
X70397035Y-97624550D01*
X70154322Y-97511150D01*
X69894151Y-97447281D01*
X69626518Y-97435396D01*
X69361709Y-97475952D01*
X69109900Y-97567391D01*
X69002965Y-97624550D01*
X68940472Y-97860867D01*
X59331407Y-97860867D01*
X59330700Y-97482391D01*
X65456538Y-97482391D01*
X65581269Y-97673000D01*
X66873000Y-97673000D01*
X66873000Y-96565000D01*
X67127000Y-96565000D01*
X67127000Y-97673000D01*
X68418731Y-97673000D01*
X68543462Y-97482391D01*
X68539591Y-97444718D01*
X68447421Y-97219467D01*
X68313078Y-97016526D01*
X68141725Y-96843693D01*
X67939946Y-96707610D01*
X67715496Y-96613507D01*
X67477000Y-96565000D01*
X67127000Y-96565000D01*
X66873000Y-96565000D01*
X66523000Y-96565000D01*
X66284504Y-96613507D01*
X66060054Y-96707610D01*
X65858275Y-96843693D01*
X65686922Y-97016526D01*
X65552579Y-97219467D01*
X65460409Y-97444718D01*
X65456538Y-97482391D01*
X59330700Y-97482391D01*
X59327236Y-95626200D01*
X154272529Y-95027805D01*
X154073467Y-149172733D01*
G36*
X145934120Y-126911003D02*
G01*
X145957918Y-126940001D01*
X146073643Y-127034974D01*
X146205672Y-127105546D01*
X146348933Y-127149003D01*
X146419091Y-127155913D01*
X146546525Y-127346632D01*
X146753368Y-127553475D01*
X146935534Y-127675195D01*
X146818645Y-127744822D01*
X146602412Y-127939731D01*
X146428359Y-128173080D01*
X146303175Y-128435901D01*
X146258524Y-128583110D01*
X146379845Y-128813000D01*
X147573000Y-128813000D01*
X147573000Y-128793000D01*
X147827000Y-128793000D01*
X147827000Y-128813000D01*
X149020155Y-128813000D01*
X149141476Y-128583110D01*
X149096825Y-128435901D01*
X148971641Y-128173080D01*
X148797588Y-127939731D01*
X148581355Y-127744822D01*
X148464466Y-127675195D01*
X148646632Y-127553475D01*
X148853475Y-127346632D01*
X149015990Y-127103411D01*
X149127932Y-126833158D01*
X149185000Y-126546260D01*
X149185000Y-126253740D01*
X149127932Y-125966842D01*
X149015990Y-125696589D01*
X148853475Y-125453368D01*
X148646632Y-125246525D01*
X148472240Y-125130000D01*
X148646632Y-125013475D01*
X148853475Y-124806632D01*
X149015990Y-124563411D01*
X149127932Y-124293158D01*
X149185000Y-124006260D01*
X149185000Y-123859802D01*
X149440001Y-124114803D01*
X149440000Y-135485198D01*
X149185198Y-135740000D01*
X145314802Y-135740000D01*
X133204801Y-123630000D01*
X136235199Y-123630000D01*
X146258790Y-133653592D01*
X146215000Y-133873740D01*
X146215000Y-134166260D01*
X146272068Y-134453158D01*
X146384010Y-134723411D01*
X146546525Y-134966632D01*
X146753368Y-135173475D01*
X146996589Y-135335990D01*
X147266842Y-135447932D01*
X147553740Y-135505000D01*
X147846260Y-135505000D01*
X148133158Y-135447932D01*
X148403411Y-135335990D01*
X148646632Y-135173475D01*
X148853475Y-134966632D01*
X149015990Y-134723411D01*
X149127932Y-134453158D01*
X149185000Y-134166260D01*
X149185000Y-133873740D01*
X149127932Y-133586842D01*
X149015990Y-133316589D01*
X148853475Y-133073368D01*
X148646632Y-132866525D01*
X148472240Y-132750000D01*
X148646632Y-132633475D01*
X148853475Y-132426632D01*
X149015990Y-132183411D01*
X149127932Y-131913158D01*
X149185000Y-131626260D01*
X149185000Y-131333740D01*
X149127932Y-131046842D01*
X149015990Y-130776589D01*
X148853475Y-130533368D01*
X148646632Y-130326525D01*
X148464466Y-130204805D01*
X148581355Y-130135178D01*
X148797588Y-129940269D01*
X148971641Y-129706920D01*
X149096825Y-129444099D01*
X149141476Y-129296890D01*
X149020155Y-129067000D01*
X147827000Y-129067000D01*
X147827000Y-129087000D01*
X147573000Y-129087000D01*
X147573000Y-129067000D01*
X146379845Y-129067000D01*
X146258524Y-129296890D01*
X146303175Y-129444099D01*
X146428359Y-129706920D01*
X146602412Y-129940269D01*
X146818645Y-130135178D01*
X146935534Y-130204805D01*
X146753368Y-130326525D01*
X146546525Y-130533368D01*
X146384010Y-130776589D01*
X146272068Y-131046842D01*
X146215000Y-131333740D01*
X146215000Y-131460198D01*
X137584801Y-122830000D01*
X141853118Y-122830000D01*
X145934120Y-126911003D01*
G37*
X145934120Y-126911003D02*
X145957918Y-126940001D01*
X146073643Y-127034974D01*
X146205672Y-127105546D01*
X146348933Y-127149003D01*
X146419091Y-127155913D01*
X146546525Y-127346632D01*
X146753368Y-127553475D01*
X146935534Y-127675195D01*
X146818645Y-127744822D01*
X146602412Y-127939731D01*
X146428359Y-128173080D01*
X146303175Y-128435901D01*
X146258524Y-128583110D01*
X146379845Y-128813000D01*
X147573000Y-128813000D01*
X147573000Y-128793000D01*
X147827000Y-128793000D01*
X147827000Y-128813000D01*
X149020155Y-128813000D01*
X149141476Y-128583110D01*
X149096825Y-128435901D01*
X148971641Y-128173080D01*
X148797588Y-127939731D01*
X148581355Y-127744822D01*
X148464466Y-127675195D01*
X148646632Y-127553475D01*
X148853475Y-127346632D01*
X149015990Y-127103411D01*
X149127932Y-126833158D01*
X149185000Y-126546260D01*
X149185000Y-126253740D01*
X149127932Y-125966842D01*
X149015990Y-125696589D01*
X148853475Y-125453368D01*
X148646632Y-125246525D01*
X148472240Y-125130000D01*
X148646632Y-125013475D01*
X148853475Y-124806632D01*
X149015990Y-124563411D01*
X149127932Y-124293158D01*
X149185000Y-124006260D01*
X149185000Y-123859802D01*
X149440001Y-124114803D01*
X149440000Y-135485198D01*
X149185198Y-135740000D01*
X145314802Y-135740000D01*
X133204801Y-123630000D01*
X136235199Y-123630000D01*
X146258790Y-133653592D01*
X146215000Y-133873740D01*
X146215000Y-134166260D01*
X146272068Y-134453158D01*
X146384010Y-134723411D01*
X146546525Y-134966632D01*
X146753368Y-135173475D01*
X146996589Y-135335990D01*
X147266842Y-135447932D01*
X147553740Y-135505000D01*
X147846260Y-135505000D01*
X148133158Y-135447932D01*
X148403411Y-135335990D01*
X148646632Y-135173475D01*
X148853475Y-134966632D01*
X149015990Y-134723411D01*
X149127932Y-134453158D01*
X149185000Y-134166260D01*
X149185000Y-133873740D01*
X149127932Y-133586842D01*
X149015990Y-133316589D01*
X148853475Y-133073368D01*
X148646632Y-132866525D01*
X148472240Y-132750000D01*
X148646632Y-132633475D01*
X148853475Y-132426632D01*
X149015990Y-132183411D01*
X149127932Y-131913158D01*
X149185000Y-131626260D01*
X149185000Y-131333740D01*
X149127932Y-131046842D01*
X149015990Y-130776589D01*
X148853475Y-130533368D01*
X148646632Y-130326525D01*
X148464466Y-130204805D01*
X148581355Y-130135178D01*
X148797588Y-129940269D01*
X148971641Y-129706920D01*
X149096825Y-129444099D01*
X149141476Y-129296890D01*
X149020155Y-129067000D01*
X147827000Y-129067000D01*
X147827000Y-129087000D01*
X147573000Y-129087000D01*
X147573000Y-129067000D01*
X146379845Y-129067000D01*
X146258524Y-129296890D01*
X146303175Y-129444099D01*
X146428359Y-129706920D01*
X146602412Y-129940269D01*
X146818645Y-130135178D01*
X146935534Y-130204805D01*
X146753368Y-130326525D01*
X146546525Y-130533368D01*
X146384010Y-130776589D01*
X146272068Y-131046842D01*
X146215000Y-131333740D01*
X146215000Y-131460198D01*
X137584801Y-122830000D01*
X141853118Y-122830000D01*
X145934120Y-126911003D01*
M02*
