G04 #@! TF.GenerationSoftware,KiCad,Pcbnew,(5.1.5)-3*
G04 #@! TF.CreationDate,2020-02-14T11:51:11+01:00*
G04 #@! TF.ProjectId,Lab_1,4c61625f-312e-46b6-9963-61645f706362,rev?*
G04 #@! TF.SameCoordinates,Original*
G04 #@! TF.FileFunction,Soldermask,Bot*
G04 #@! TF.FilePolarity,Negative*
%FSLAX46Y46*%
G04 Gerber Fmt 4.6, Leading zero omitted, Abs format (unit mm)*
G04 Created by KiCad (PCBNEW (5.1.5)-3) date 2020-02-14 11:51:11*
%MOMM*%
%LPD*%
G04 APERTURE LIST*
%ADD10C,0.100000*%
G04 APERTURE END LIST*
D10*
G36*
X144701000Y-145601000D02*
G01*
X142899000Y-145601000D01*
X142899000Y-143799000D01*
X144701000Y-143799000D01*
X144701000Y-145601000D01*
G37*
G36*
X138833512Y-143803927D02*
G01*
X138982812Y-143833624D01*
X139146784Y-143901544D01*
X139294354Y-144000147D01*
X139419853Y-144125646D01*
X139518456Y-144273216D01*
X139586376Y-144437188D01*
X139621000Y-144611259D01*
X139621000Y-144788741D01*
X139586376Y-144962812D01*
X139518456Y-145126784D01*
X139419853Y-145274354D01*
X139294354Y-145399853D01*
X139146784Y-145498456D01*
X138982812Y-145566376D01*
X138833512Y-145596073D01*
X138808742Y-145601000D01*
X138631258Y-145601000D01*
X138606488Y-145596073D01*
X138457188Y-145566376D01*
X138293216Y-145498456D01*
X138145646Y-145399853D01*
X138020147Y-145274354D01*
X137921544Y-145126784D01*
X137853624Y-144962812D01*
X137819000Y-144788741D01*
X137819000Y-144611259D01*
X137853624Y-144437188D01*
X137921544Y-144273216D01*
X138020147Y-144125646D01*
X138145646Y-144000147D01*
X138293216Y-143901544D01*
X138457188Y-143833624D01*
X138606488Y-143803927D01*
X138631258Y-143799000D01*
X138808742Y-143799000D01*
X138833512Y-143803927D01*
G37*
G36*
X136293512Y-143803927D02*
G01*
X136442812Y-143833624D01*
X136606784Y-143901544D01*
X136754354Y-144000147D01*
X136879853Y-144125646D01*
X136978456Y-144273216D01*
X137046376Y-144437188D01*
X137081000Y-144611259D01*
X137081000Y-144788741D01*
X137046376Y-144962812D01*
X136978456Y-145126784D01*
X136879853Y-145274354D01*
X136754354Y-145399853D01*
X136606784Y-145498456D01*
X136442812Y-145566376D01*
X136293512Y-145596073D01*
X136268742Y-145601000D01*
X136091258Y-145601000D01*
X136066488Y-145596073D01*
X135917188Y-145566376D01*
X135753216Y-145498456D01*
X135605646Y-145399853D01*
X135480147Y-145274354D01*
X135381544Y-145126784D01*
X135313624Y-144962812D01*
X135279000Y-144788741D01*
X135279000Y-144611259D01*
X135313624Y-144437188D01*
X135381544Y-144273216D01*
X135480147Y-144125646D01*
X135605646Y-144000147D01*
X135753216Y-143901544D01*
X135917188Y-143833624D01*
X136066488Y-143803927D01*
X136091258Y-143799000D01*
X136268742Y-143799000D01*
X136293512Y-143803927D01*
G37*
G36*
X133753512Y-143803927D02*
G01*
X133902812Y-143833624D01*
X134066784Y-143901544D01*
X134214354Y-144000147D01*
X134339853Y-144125646D01*
X134438456Y-144273216D01*
X134506376Y-144437188D01*
X134541000Y-144611259D01*
X134541000Y-144788741D01*
X134506376Y-144962812D01*
X134438456Y-145126784D01*
X134339853Y-145274354D01*
X134214354Y-145399853D01*
X134066784Y-145498456D01*
X133902812Y-145566376D01*
X133753512Y-145596073D01*
X133728742Y-145601000D01*
X133551258Y-145601000D01*
X133526488Y-145596073D01*
X133377188Y-145566376D01*
X133213216Y-145498456D01*
X133065646Y-145399853D01*
X132940147Y-145274354D01*
X132841544Y-145126784D01*
X132773624Y-144962812D01*
X132739000Y-144788741D01*
X132739000Y-144611259D01*
X132773624Y-144437188D01*
X132841544Y-144273216D01*
X132940147Y-144125646D01*
X133065646Y-144000147D01*
X133213216Y-143901544D01*
X133377188Y-143833624D01*
X133526488Y-143803927D01*
X133551258Y-143799000D01*
X133728742Y-143799000D01*
X133753512Y-143803927D01*
G37*
G36*
X141373512Y-143803927D02*
G01*
X141522812Y-143833624D01*
X141686784Y-143901544D01*
X141834354Y-144000147D01*
X141959853Y-144125646D01*
X142058456Y-144273216D01*
X142126376Y-144437188D01*
X142161000Y-144611259D01*
X142161000Y-144788741D01*
X142126376Y-144962812D01*
X142058456Y-145126784D01*
X141959853Y-145274354D01*
X141834354Y-145399853D01*
X141686784Y-145498456D01*
X141522812Y-145566376D01*
X141373512Y-145596073D01*
X141348742Y-145601000D01*
X141171258Y-145601000D01*
X141146488Y-145596073D01*
X140997188Y-145566376D01*
X140833216Y-145498456D01*
X140685646Y-145399853D01*
X140560147Y-145274354D01*
X140461544Y-145126784D01*
X140393624Y-144962812D01*
X140359000Y-144788741D01*
X140359000Y-144611259D01*
X140393624Y-144437188D01*
X140461544Y-144273216D01*
X140560147Y-144125646D01*
X140685646Y-144000147D01*
X140833216Y-143901544D01*
X140997188Y-143833624D01*
X141146488Y-143803927D01*
X141171258Y-143799000D01*
X141348742Y-143799000D01*
X141373512Y-143803927D01*
G37*
G36*
X147813512Y-133123927D02*
G01*
X147962812Y-133153624D01*
X148126784Y-133221544D01*
X148274354Y-133320147D01*
X148399853Y-133445646D01*
X148498456Y-133593216D01*
X148566376Y-133757188D01*
X148601000Y-133931259D01*
X148601000Y-134108741D01*
X148566376Y-134282812D01*
X148498456Y-134446784D01*
X148399853Y-134594354D01*
X148274354Y-134719853D01*
X148126784Y-134818456D01*
X147962812Y-134886376D01*
X147813512Y-134916073D01*
X147788742Y-134921000D01*
X147611258Y-134921000D01*
X147586488Y-134916073D01*
X147437188Y-134886376D01*
X147273216Y-134818456D01*
X147125646Y-134719853D01*
X147000147Y-134594354D01*
X146901544Y-134446784D01*
X146833624Y-134282812D01*
X146799000Y-134108741D01*
X146799000Y-133931259D01*
X146833624Y-133757188D01*
X146901544Y-133593216D01*
X147000147Y-133445646D01*
X147125646Y-133320147D01*
X147273216Y-133221544D01*
X147437188Y-133153624D01*
X147586488Y-133123927D01*
X147611258Y-133119000D01*
X147788742Y-133119000D01*
X147813512Y-133123927D01*
G37*
G36*
X147813512Y-130583927D02*
G01*
X147962812Y-130613624D01*
X148126784Y-130681544D01*
X148274354Y-130780147D01*
X148399853Y-130905646D01*
X148498456Y-131053216D01*
X148566376Y-131217188D01*
X148601000Y-131391259D01*
X148601000Y-131568741D01*
X148566376Y-131742812D01*
X148498456Y-131906784D01*
X148399853Y-132054354D01*
X148274354Y-132179853D01*
X148126784Y-132278456D01*
X147962812Y-132346376D01*
X147813512Y-132376073D01*
X147788742Y-132381000D01*
X147611258Y-132381000D01*
X147586488Y-132376073D01*
X147437188Y-132346376D01*
X147273216Y-132278456D01*
X147125646Y-132179853D01*
X147000147Y-132054354D01*
X146901544Y-131906784D01*
X146833624Y-131742812D01*
X146799000Y-131568741D01*
X146799000Y-131391259D01*
X146833624Y-131217188D01*
X146901544Y-131053216D01*
X147000147Y-130905646D01*
X147125646Y-130780147D01*
X147273216Y-130681544D01*
X147437188Y-130613624D01*
X147586488Y-130583927D01*
X147611258Y-130579000D01*
X147788742Y-130579000D01*
X147813512Y-130583927D01*
G37*
G36*
X147813512Y-128043927D02*
G01*
X147962812Y-128073624D01*
X148126784Y-128141544D01*
X148274354Y-128240147D01*
X148399853Y-128365646D01*
X148498456Y-128513216D01*
X148566376Y-128677188D01*
X148601000Y-128851259D01*
X148601000Y-129028741D01*
X148566376Y-129202812D01*
X148498456Y-129366784D01*
X148399853Y-129514354D01*
X148274354Y-129639853D01*
X148126784Y-129738456D01*
X147962812Y-129806376D01*
X147813512Y-129836073D01*
X147788742Y-129841000D01*
X147611258Y-129841000D01*
X147586488Y-129836073D01*
X147437188Y-129806376D01*
X147273216Y-129738456D01*
X147125646Y-129639853D01*
X147000147Y-129514354D01*
X146901544Y-129366784D01*
X146833624Y-129202812D01*
X146799000Y-129028741D01*
X146799000Y-128851259D01*
X146833624Y-128677188D01*
X146901544Y-128513216D01*
X147000147Y-128365646D01*
X147125646Y-128240147D01*
X147273216Y-128141544D01*
X147437188Y-128073624D01*
X147586488Y-128043927D01*
X147611258Y-128039000D01*
X147788742Y-128039000D01*
X147813512Y-128043927D01*
G37*
G36*
X66813512Y-126643927D02*
G01*
X66962812Y-126673624D01*
X67126784Y-126741544D01*
X67274354Y-126840147D01*
X67399853Y-126965646D01*
X67498456Y-127113216D01*
X67566376Y-127277188D01*
X67601000Y-127451259D01*
X67601000Y-127628741D01*
X67566376Y-127802812D01*
X67498456Y-127966784D01*
X67399853Y-128114354D01*
X67274354Y-128239853D01*
X67126784Y-128338456D01*
X66962812Y-128406376D01*
X66813512Y-128436073D01*
X66788742Y-128441000D01*
X66611258Y-128441000D01*
X66586488Y-128436073D01*
X66437188Y-128406376D01*
X66273216Y-128338456D01*
X66125646Y-128239853D01*
X66000147Y-128114354D01*
X65901544Y-127966784D01*
X65833624Y-127802812D01*
X65799000Y-127628741D01*
X65799000Y-127451259D01*
X65833624Y-127277188D01*
X65901544Y-127113216D01*
X66000147Y-126965646D01*
X66125646Y-126840147D01*
X66273216Y-126741544D01*
X66437188Y-126673624D01*
X66586488Y-126643927D01*
X66611258Y-126639000D01*
X66788742Y-126639000D01*
X66813512Y-126643927D01*
G37*
G36*
X147813512Y-125503927D02*
G01*
X147962812Y-125533624D01*
X148126784Y-125601544D01*
X148274354Y-125700147D01*
X148399853Y-125825646D01*
X148498456Y-125973216D01*
X148566376Y-126137188D01*
X148601000Y-126311259D01*
X148601000Y-126488741D01*
X148566376Y-126662812D01*
X148498456Y-126826784D01*
X148399853Y-126974354D01*
X148274354Y-127099853D01*
X148126784Y-127198456D01*
X147962812Y-127266376D01*
X147813512Y-127296073D01*
X147788742Y-127301000D01*
X147611258Y-127301000D01*
X147586488Y-127296073D01*
X147437188Y-127266376D01*
X147273216Y-127198456D01*
X147125646Y-127099853D01*
X147000147Y-126974354D01*
X146901544Y-126826784D01*
X146833624Y-126662812D01*
X146799000Y-126488741D01*
X146799000Y-126311259D01*
X146833624Y-126137188D01*
X146901544Y-125973216D01*
X147000147Y-125825646D01*
X147125646Y-125700147D01*
X147273216Y-125601544D01*
X147437188Y-125533624D01*
X147586488Y-125503927D01*
X147611258Y-125499000D01*
X147788742Y-125499000D01*
X147813512Y-125503927D01*
G37*
G36*
X66813512Y-124103927D02*
G01*
X66962812Y-124133624D01*
X67126784Y-124201544D01*
X67274354Y-124300147D01*
X67399853Y-124425646D01*
X67498456Y-124573216D01*
X67566376Y-124737188D01*
X67601000Y-124911259D01*
X67601000Y-125088741D01*
X67566376Y-125262812D01*
X67498456Y-125426784D01*
X67399853Y-125574354D01*
X67274354Y-125699853D01*
X67126784Y-125798456D01*
X66962812Y-125866376D01*
X66813512Y-125896073D01*
X66788742Y-125901000D01*
X66611258Y-125901000D01*
X66586488Y-125896073D01*
X66437188Y-125866376D01*
X66273216Y-125798456D01*
X66125646Y-125699853D01*
X66000147Y-125574354D01*
X65901544Y-125426784D01*
X65833624Y-125262812D01*
X65799000Y-125088741D01*
X65799000Y-124911259D01*
X65833624Y-124737188D01*
X65901544Y-124573216D01*
X66000147Y-124425646D01*
X66125646Y-124300147D01*
X66273216Y-124201544D01*
X66437188Y-124133624D01*
X66586488Y-124103927D01*
X66611258Y-124099000D01*
X66788742Y-124099000D01*
X66813512Y-124103927D01*
G37*
G36*
X147813512Y-122963927D02*
G01*
X147962812Y-122993624D01*
X148126784Y-123061544D01*
X148274354Y-123160147D01*
X148399853Y-123285646D01*
X148498456Y-123433216D01*
X148566376Y-123597188D01*
X148601000Y-123771259D01*
X148601000Y-123948741D01*
X148566376Y-124122812D01*
X148498456Y-124286784D01*
X148399853Y-124434354D01*
X148274354Y-124559853D01*
X148126784Y-124658456D01*
X147962812Y-124726376D01*
X147813512Y-124756073D01*
X147788742Y-124761000D01*
X147611258Y-124761000D01*
X147586488Y-124756073D01*
X147437188Y-124726376D01*
X147273216Y-124658456D01*
X147125646Y-124559853D01*
X147000147Y-124434354D01*
X146901544Y-124286784D01*
X146833624Y-124122812D01*
X146799000Y-123948741D01*
X146799000Y-123771259D01*
X146833624Y-123597188D01*
X146901544Y-123433216D01*
X147000147Y-123285646D01*
X147125646Y-123160147D01*
X147273216Y-123061544D01*
X147437188Y-122993624D01*
X147586488Y-122963927D01*
X147611258Y-122959000D01*
X147788742Y-122959000D01*
X147813512Y-122963927D01*
G37*
G36*
X66813512Y-121563927D02*
G01*
X66962812Y-121593624D01*
X67126784Y-121661544D01*
X67274354Y-121760147D01*
X67399853Y-121885646D01*
X67498456Y-122033216D01*
X67566376Y-122197188D01*
X67601000Y-122371259D01*
X67601000Y-122548741D01*
X67566376Y-122722812D01*
X67498456Y-122886784D01*
X67399853Y-123034354D01*
X67274354Y-123159853D01*
X67126784Y-123258456D01*
X66962812Y-123326376D01*
X66813512Y-123356073D01*
X66788742Y-123361000D01*
X66611258Y-123361000D01*
X66586488Y-123356073D01*
X66437188Y-123326376D01*
X66273216Y-123258456D01*
X66125646Y-123159853D01*
X66000147Y-123034354D01*
X65901544Y-122886784D01*
X65833624Y-122722812D01*
X65799000Y-122548741D01*
X65799000Y-122371259D01*
X65833624Y-122197188D01*
X65901544Y-122033216D01*
X66000147Y-121885646D01*
X66125646Y-121760147D01*
X66273216Y-121661544D01*
X66437188Y-121593624D01*
X66586488Y-121563927D01*
X66611258Y-121559000D01*
X66788742Y-121559000D01*
X66813512Y-121563927D01*
G37*
G36*
X147813512Y-120423927D02*
G01*
X147962812Y-120453624D01*
X148126784Y-120521544D01*
X148274354Y-120620147D01*
X148399853Y-120745646D01*
X148498456Y-120893216D01*
X148566376Y-121057188D01*
X148601000Y-121231259D01*
X148601000Y-121408741D01*
X148566376Y-121582812D01*
X148498456Y-121746784D01*
X148399853Y-121894354D01*
X148274354Y-122019853D01*
X148126784Y-122118456D01*
X147962812Y-122186376D01*
X147813512Y-122216073D01*
X147788742Y-122221000D01*
X147611258Y-122221000D01*
X147586488Y-122216073D01*
X147437188Y-122186376D01*
X147273216Y-122118456D01*
X147125646Y-122019853D01*
X147000147Y-121894354D01*
X146901544Y-121746784D01*
X146833624Y-121582812D01*
X146799000Y-121408741D01*
X146799000Y-121231259D01*
X146833624Y-121057188D01*
X146901544Y-120893216D01*
X147000147Y-120745646D01*
X147125646Y-120620147D01*
X147273216Y-120521544D01*
X147437188Y-120453624D01*
X147586488Y-120423927D01*
X147611258Y-120419000D01*
X147788742Y-120419000D01*
X147813512Y-120423927D01*
G37*
G36*
X66813512Y-119023927D02*
G01*
X66962812Y-119053624D01*
X67126784Y-119121544D01*
X67274354Y-119220147D01*
X67399853Y-119345646D01*
X67498456Y-119493216D01*
X67566376Y-119657188D01*
X67601000Y-119831259D01*
X67601000Y-120008741D01*
X67566376Y-120182812D01*
X67498456Y-120346784D01*
X67399853Y-120494354D01*
X67274354Y-120619853D01*
X67126784Y-120718456D01*
X66962812Y-120786376D01*
X66813512Y-120816073D01*
X66788742Y-120821000D01*
X66611258Y-120821000D01*
X66586488Y-120816073D01*
X66437188Y-120786376D01*
X66273216Y-120718456D01*
X66125646Y-120619853D01*
X66000147Y-120494354D01*
X65901544Y-120346784D01*
X65833624Y-120182812D01*
X65799000Y-120008741D01*
X65799000Y-119831259D01*
X65833624Y-119657188D01*
X65901544Y-119493216D01*
X66000147Y-119345646D01*
X66125646Y-119220147D01*
X66273216Y-119121544D01*
X66437188Y-119053624D01*
X66586488Y-119023927D01*
X66611258Y-119019000D01*
X66788742Y-119019000D01*
X66813512Y-119023927D01*
G37*
G36*
X147813512Y-117883927D02*
G01*
X147962812Y-117913624D01*
X148126784Y-117981544D01*
X148274354Y-118080147D01*
X148399853Y-118205646D01*
X148498456Y-118353216D01*
X148566376Y-118517188D01*
X148601000Y-118691259D01*
X148601000Y-118868741D01*
X148566376Y-119042812D01*
X148498456Y-119206784D01*
X148399853Y-119354354D01*
X148274354Y-119479853D01*
X148126784Y-119578456D01*
X147962812Y-119646376D01*
X147813512Y-119676073D01*
X147788742Y-119681000D01*
X147611258Y-119681000D01*
X147586488Y-119676073D01*
X147437188Y-119646376D01*
X147273216Y-119578456D01*
X147125646Y-119479853D01*
X147000147Y-119354354D01*
X146901544Y-119206784D01*
X146833624Y-119042812D01*
X146799000Y-118868741D01*
X146799000Y-118691259D01*
X146833624Y-118517188D01*
X146901544Y-118353216D01*
X147000147Y-118205646D01*
X147125646Y-118080147D01*
X147273216Y-117981544D01*
X147437188Y-117913624D01*
X147586488Y-117883927D01*
X147611258Y-117879000D01*
X147788742Y-117879000D01*
X147813512Y-117883927D01*
G37*
G36*
X66813512Y-116483927D02*
G01*
X66962812Y-116513624D01*
X67126784Y-116581544D01*
X67274354Y-116680147D01*
X67399853Y-116805646D01*
X67498456Y-116953216D01*
X67566376Y-117117188D01*
X67601000Y-117291259D01*
X67601000Y-117468741D01*
X67566376Y-117642812D01*
X67498456Y-117806784D01*
X67399853Y-117954354D01*
X67274354Y-118079853D01*
X67126784Y-118178456D01*
X66962812Y-118246376D01*
X66813512Y-118276073D01*
X66788742Y-118281000D01*
X66611258Y-118281000D01*
X66586488Y-118276073D01*
X66437188Y-118246376D01*
X66273216Y-118178456D01*
X66125646Y-118079853D01*
X66000147Y-117954354D01*
X65901544Y-117806784D01*
X65833624Y-117642812D01*
X65799000Y-117468741D01*
X65799000Y-117291259D01*
X65833624Y-117117188D01*
X65901544Y-116953216D01*
X66000147Y-116805646D01*
X66125646Y-116680147D01*
X66273216Y-116581544D01*
X66437188Y-116513624D01*
X66586488Y-116483927D01*
X66611258Y-116479000D01*
X66788742Y-116479000D01*
X66813512Y-116483927D01*
G37*
G36*
X147813512Y-115343927D02*
G01*
X147962812Y-115373624D01*
X148126784Y-115441544D01*
X148274354Y-115540147D01*
X148399853Y-115665646D01*
X148498456Y-115813216D01*
X148566376Y-115977188D01*
X148601000Y-116151259D01*
X148601000Y-116328741D01*
X148566376Y-116502812D01*
X148498456Y-116666784D01*
X148399853Y-116814354D01*
X148274354Y-116939853D01*
X148126784Y-117038456D01*
X147962812Y-117106376D01*
X147813512Y-117136073D01*
X147788742Y-117141000D01*
X147611258Y-117141000D01*
X147586488Y-117136073D01*
X147437188Y-117106376D01*
X147273216Y-117038456D01*
X147125646Y-116939853D01*
X147000147Y-116814354D01*
X146901544Y-116666784D01*
X146833624Y-116502812D01*
X146799000Y-116328741D01*
X146799000Y-116151259D01*
X146833624Y-115977188D01*
X146901544Y-115813216D01*
X147000147Y-115665646D01*
X147125646Y-115540147D01*
X147273216Y-115441544D01*
X147437188Y-115373624D01*
X147586488Y-115343927D01*
X147611258Y-115339000D01*
X147788742Y-115339000D01*
X147813512Y-115343927D01*
G37*
G36*
X66813512Y-113943927D02*
G01*
X66962812Y-113973624D01*
X67126784Y-114041544D01*
X67274354Y-114140147D01*
X67399853Y-114265646D01*
X67498456Y-114413216D01*
X67566376Y-114577188D01*
X67601000Y-114751259D01*
X67601000Y-114928741D01*
X67566376Y-115102812D01*
X67498456Y-115266784D01*
X67399853Y-115414354D01*
X67274354Y-115539853D01*
X67126784Y-115638456D01*
X66962812Y-115706376D01*
X66813512Y-115736073D01*
X66788742Y-115741000D01*
X66611258Y-115741000D01*
X66586488Y-115736073D01*
X66437188Y-115706376D01*
X66273216Y-115638456D01*
X66125646Y-115539853D01*
X66000147Y-115414354D01*
X65901544Y-115266784D01*
X65833624Y-115102812D01*
X65799000Y-114928741D01*
X65799000Y-114751259D01*
X65833624Y-114577188D01*
X65901544Y-114413216D01*
X66000147Y-114265646D01*
X66125646Y-114140147D01*
X66273216Y-114041544D01*
X66437188Y-113973624D01*
X66586488Y-113943927D01*
X66611258Y-113939000D01*
X66788742Y-113939000D01*
X66813512Y-113943927D01*
G37*
G36*
X148601000Y-114601000D02*
G01*
X146799000Y-114601000D01*
X146799000Y-112799000D01*
X148601000Y-112799000D01*
X148601000Y-114601000D01*
G37*
G36*
X67601000Y-113201000D02*
G01*
X65799000Y-113201000D01*
X65799000Y-111399000D01*
X67601000Y-111399000D01*
X67601000Y-113201000D01*
G37*
G36*
X67413855Y-104152140D02*
G01*
X67477618Y-104158420D01*
X67568404Y-104185960D01*
X67600336Y-104195646D01*
X67713425Y-104256094D01*
X67812554Y-104337446D01*
X67893906Y-104436575D01*
X67954354Y-104549664D01*
X67954355Y-104549668D01*
X67991580Y-104672382D01*
X68004149Y-104800000D01*
X67991580Y-104927618D01*
X67964040Y-105018404D01*
X67954354Y-105050336D01*
X67893906Y-105163425D01*
X67812554Y-105262554D01*
X67713425Y-105343906D01*
X67600336Y-105404354D01*
X67568404Y-105414040D01*
X67477618Y-105441580D01*
X67413855Y-105447860D01*
X67381974Y-105451000D01*
X66618026Y-105451000D01*
X66586145Y-105447860D01*
X66522382Y-105441580D01*
X66431596Y-105414040D01*
X66399664Y-105404354D01*
X66286575Y-105343906D01*
X66187446Y-105262554D01*
X66106094Y-105163425D01*
X66045646Y-105050336D01*
X66035960Y-105018404D01*
X66008420Y-104927618D01*
X65995851Y-104800000D01*
X66008420Y-104672382D01*
X66045645Y-104549668D01*
X66045646Y-104549664D01*
X66106094Y-104436575D01*
X66187446Y-104337446D01*
X66286575Y-104256094D01*
X66399664Y-104195646D01*
X66431596Y-104185960D01*
X66522382Y-104158420D01*
X66586145Y-104152140D01*
X66618026Y-104149000D01*
X67381974Y-104149000D01*
X67413855Y-104152140D01*
G37*
G36*
X69926348Y-103053820D02*
G01*
X69926350Y-103053821D01*
X69926351Y-103053821D01*
X70067574Y-103112317D01*
X70067577Y-103112319D01*
X70194669Y-103197239D01*
X70302761Y-103305331D01*
X70387681Y-103432423D01*
X70387683Y-103432426D01*
X70446179Y-103573649D01*
X70476000Y-103723571D01*
X70476000Y-103876429D01*
X70446179Y-104026351D01*
X70387683Y-104167574D01*
X70387681Y-104167577D01*
X70302761Y-104294669D01*
X70194669Y-104402761D01*
X70067577Y-104487681D01*
X70067574Y-104487683D01*
X69926351Y-104546179D01*
X69926350Y-104546179D01*
X69926348Y-104546180D01*
X69776431Y-104576000D01*
X69623569Y-104576000D01*
X69473652Y-104546180D01*
X69473650Y-104546179D01*
X69473649Y-104546179D01*
X69332426Y-104487683D01*
X69332423Y-104487681D01*
X69205331Y-104402761D01*
X69097239Y-104294669D01*
X69012319Y-104167577D01*
X69012317Y-104167574D01*
X68953821Y-104026351D01*
X68924000Y-103876429D01*
X68924000Y-103723571D01*
X68953821Y-103573649D01*
X69012317Y-103432426D01*
X69012319Y-103432423D01*
X69097239Y-103305331D01*
X69205331Y-103197239D01*
X69332423Y-103112319D01*
X69332426Y-103112317D01*
X69473649Y-103053821D01*
X69473650Y-103053821D01*
X69473652Y-103053820D01*
X69623569Y-103024000D01*
X69776431Y-103024000D01*
X69926348Y-103053820D01*
G37*
G36*
X105809561Y-100482966D02*
G01*
X105842383Y-100492923D01*
X105872632Y-100509092D01*
X105899148Y-100530852D01*
X105920908Y-100557368D01*
X105937077Y-100587617D01*
X105947034Y-100620439D01*
X105951000Y-100660713D01*
X105951000Y-102139287D01*
X105947034Y-102179561D01*
X105937077Y-102212383D01*
X105920908Y-102242632D01*
X105899148Y-102269148D01*
X105872632Y-102290908D01*
X105842383Y-102307077D01*
X105809561Y-102317034D01*
X105769287Y-102321000D01*
X103830713Y-102321000D01*
X103790439Y-102317034D01*
X103757617Y-102307077D01*
X103727368Y-102290908D01*
X103700852Y-102269148D01*
X103679092Y-102242632D01*
X103662923Y-102212383D01*
X103652966Y-102179561D01*
X103649000Y-102139287D01*
X103649000Y-100660713D01*
X103652966Y-100620439D01*
X103662923Y-100587617D01*
X103679092Y-100557368D01*
X103700852Y-100530852D01*
X103727368Y-100509092D01*
X103757617Y-100492923D01*
X103790439Y-100482966D01*
X103830713Y-100479000D01*
X105769287Y-100479000D01*
X105809561Y-100482966D01*
G37*
G36*
X105120345Y-97943442D02*
G01*
X105210548Y-97952326D01*
X105384157Y-98004990D01*
X105544156Y-98090511D01*
X105570726Y-98112317D01*
X105684397Y-98205603D01*
X105763729Y-98302271D01*
X105799489Y-98345844D01*
X105885010Y-98505843D01*
X105937674Y-98679452D01*
X105955456Y-98860000D01*
X105937674Y-99040548D01*
X105885010Y-99214157D01*
X105799489Y-99374156D01*
X105776015Y-99402759D01*
X105684397Y-99514397D01*
X105609332Y-99576000D01*
X105544156Y-99629489D01*
X105384157Y-99715010D01*
X105210548Y-99767674D01*
X105120345Y-99776558D01*
X105075245Y-99781000D01*
X104524755Y-99781000D01*
X104479655Y-99776558D01*
X104389452Y-99767674D01*
X104215843Y-99715010D01*
X104055844Y-99629489D01*
X103990668Y-99576000D01*
X103915603Y-99514397D01*
X103823985Y-99402759D01*
X103800511Y-99374156D01*
X103714990Y-99214157D01*
X103662326Y-99040548D01*
X103644544Y-98860000D01*
X103662326Y-98679452D01*
X103714990Y-98505843D01*
X103800511Y-98345844D01*
X103836271Y-98302271D01*
X103915603Y-98205603D01*
X104029274Y-98112317D01*
X104055844Y-98090511D01*
X104215843Y-98004990D01*
X104389452Y-97952326D01*
X104479655Y-97943442D01*
X104524755Y-97939000D01*
X105075245Y-97939000D01*
X105120345Y-97943442D01*
G37*
G36*
X69926348Y-98053820D02*
G01*
X69926350Y-98053821D01*
X69926351Y-98053821D01*
X70067574Y-98112317D01*
X70067577Y-98112319D01*
X70194669Y-98197239D01*
X70302761Y-98305331D01*
X70387681Y-98432423D01*
X70387683Y-98432426D01*
X70418092Y-98505841D01*
X70446180Y-98573652D01*
X70467225Y-98679454D01*
X70476000Y-98723571D01*
X70476000Y-98876429D01*
X70446179Y-99026351D01*
X70387683Y-99167574D01*
X70387681Y-99167577D01*
X70302761Y-99294669D01*
X70194669Y-99402761D01*
X70067577Y-99487681D01*
X70067574Y-99487683D01*
X69926351Y-99546179D01*
X69926350Y-99546179D01*
X69926348Y-99546180D01*
X69776431Y-99576000D01*
X69623569Y-99576000D01*
X69473652Y-99546180D01*
X69473650Y-99546179D01*
X69473649Y-99546179D01*
X69332426Y-99487683D01*
X69332423Y-99487681D01*
X69205331Y-99402761D01*
X69097239Y-99294669D01*
X69012319Y-99167577D01*
X69012317Y-99167574D01*
X68953821Y-99026351D01*
X68924000Y-98876429D01*
X68924000Y-98723571D01*
X68932775Y-98679454D01*
X68953820Y-98573652D01*
X68981908Y-98505841D01*
X69012317Y-98432426D01*
X69012319Y-98432423D01*
X69097239Y-98305331D01*
X69205331Y-98197239D01*
X69332423Y-98112319D01*
X69332426Y-98112317D01*
X69473649Y-98053821D01*
X69473650Y-98053821D01*
X69473652Y-98053820D01*
X69623569Y-98024000D01*
X69776431Y-98024000D01*
X69926348Y-98053820D01*
G37*
G36*
X67413855Y-97152140D02*
G01*
X67477618Y-97158420D01*
X67568404Y-97185960D01*
X67600336Y-97195646D01*
X67713425Y-97256094D01*
X67812554Y-97337446D01*
X67893906Y-97436575D01*
X67954354Y-97549664D01*
X67954355Y-97549668D01*
X67991580Y-97672382D01*
X68004149Y-97800000D01*
X67991580Y-97927618D01*
X67968109Y-98004990D01*
X67954354Y-98050336D01*
X67893906Y-98163425D01*
X67812554Y-98262554D01*
X67713425Y-98343906D01*
X67600336Y-98404354D01*
X67568404Y-98414040D01*
X67477618Y-98441580D01*
X67413855Y-98447860D01*
X67381974Y-98451000D01*
X66618026Y-98451000D01*
X66586145Y-98447860D01*
X66522382Y-98441580D01*
X66431596Y-98414040D01*
X66399664Y-98404354D01*
X66286575Y-98343906D01*
X66187446Y-98262554D01*
X66106094Y-98163425D01*
X66045646Y-98050336D01*
X66031891Y-98004990D01*
X66008420Y-97927618D01*
X65995851Y-97800000D01*
X66008420Y-97672382D01*
X66045645Y-97549668D01*
X66045646Y-97549664D01*
X66106094Y-97436575D01*
X66187446Y-97337446D01*
X66286575Y-97256094D01*
X66399664Y-97195646D01*
X66431596Y-97185960D01*
X66522382Y-97158420D01*
X66586145Y-97152140D01*
X66618026Y-97149000D01*
X67381974Y-97149000D01*
X67413855Y-97152140D01*
G37*
M02*
