G04 #@! TF.GenerationSoftware,KiCad,Pcbnew,(5.1.5)-3*
G04 #@! TF.CreationDate,2020-02-14T11:51:10+01:00*
G04 #@! TF.ProjectId,Lab_1,4c61625f-312e-46b6-9963-61645f706362,rev?*
G04 #@! TF.SameCoordinates,Original*
G04 #@! TF.FileFunction,Paste,Top*
G04 #@! TF.FilePolarity,Positive*
%FSLAX46Y46*%
G04 Gerber Fmt 4.6, Leading zero omitted, Abs format (unit mm)*
G04 Created by KiCad (PCBNEW (5.1.5)-3) date 2020-02-14 11:51:10*
%MOMM*%
%LPD*%
G04 APERTURE LIST*
%ADD10C,0.100000*%
%ADD11R,1.550000X1.300000*%
%ADD12R,2.500000X1.800000*%
%ADD13R,1.050000X2.200000*%
%ADD14R,1.000000X1.000000*%
%ADD15R,3.220000X0.940000*%
%ADD16R,0.650000X2.000000*%
%ADD17R,0.650000X1.060000*%
%ADD18R,2.000000X0.650000*%
%ADD19R,1.900000X1.500000*%
%ADD20R,1.350000X0.400000*%
%ADD21R,0.800000X0.500000*%
%ADD22R,0.500000X0.800000*%
%ADD23R,1.600000X1.600000*%
G04 APERTURE END LIST*
D10*
G36*
X88149505Y-103301204D02*
G01*
X88173773Y-103304804D01*
X88197572Y-103310765D01*
X88220671Y-103319030D01*
X88242850Y-103329520D01*
X88263893Y-103342132D01*
X88283599Y-103356747D01*
X88301777Y-103373223D01*
X88318253Y-103391401D01*
X88332868Y-103411107D01*
X88345480Y-103432150D01*
X88355970Y-103454329D01*
X88364235Y-103477428D01*
X88370196Y-103501227D01*
X88373796Y-103525495D01*
X88375000Y-103549999D01*
X88375000Y-104450001D01*
X88373796Y-104474505D01*
X88370196Y-104498773D01*
X88364235Y-104522572D01*
X88355970Y-104545671D01*
X88345480Y-104567850D01*
X88332868Y-104588893D01*
X88318253Y-104608599D01*
X88301777Y-104626777D01*
X88283599Y-104643253D01*
X88263893Y-104657868D01*
X88242850Y-104670480D01*
X88220671Y-104680970D01*
X88197572Y-104689235D01*
X88173773Y-104695196D01*
X88149505Y-104698796D01*
X88125001Y-104700000D01*
X87474999Y-104700000D01*
X87450495Y-104698796D01*
X87426227Y-104695196D01*
X87402428Y-104689235D01*
X87379329Y-104680970D01*
X87357150Y-104670480D01*
X87336107Y-104657868D01*
X87316401Y-104643253D01*
X87298223Y-104626777D01*
X87281747Y-104608599D01*
X87267132Y-104588893D01*
X87254520Y-104567850D01*
X87244030Y-104545671D01*
X87235765Y-104522572D01*
X87229804Y-104498773D01*
X87226204Y-104474505D01*
X87225000Y-104450001D01*
X87225000Y-103549999D01*
X87226204Y-103525495D01*
X87229804Y-103501227D01*
X87235765Y-103477428D01*
X87244030Y-103454329D01*
X87254520Y-103432150D01*
X87267132Y-103411107D01*
X87281747Y-103391401D01*
X87298223Y-103373223D01*
X87316401Y-103356747D01*
X87336107Y-103342132D01*
X87357150Y-103329520D01*
X87379329Y-103319030D01*
X87402428Y-103310765D01*
X87426227Y-103304804D01*
X87450495Y-103301204D01*
X87474999Y-103300000D01*
X88125001Y-103300000D01*
X88149505Y-103301204D01*
G37*
G36*
X86099505Y-103301204D02*
G01*
X86123773Y-103304804D01*
X86147572Y-103310765D01*
X86170671Y-103319030D01*
X86192850Y-103329520D01*
X86213893Y-103342132D01*
X86233599Y-103356747D01*
X86251777Y-103373223D01*
X86268253Y-103391401D01*
X86282868Y-103411107D01*
X86295480Y-103432150D01*
X86305970Y-103454329D01*
X86314235Y-103477428D01*
X86320196Y-103501227D01*
X86323796Y-103525495D01*
X86325000Y-103549999D01*
X86325000Y-104450001D01*
X86323796Y-104474505D01*
X86320196Y-104498773D01*
X86314235Y-104522572D01*
X86305970Y-104545671D01*
X86295480Y-104567850D01*
X86282868Y-104588893D01*
X86268253Y-104608599D01*
X86251777Y-104626777D01*
X86233599Y-104643253D01*
X86213893Y-104657868D01*
X86192850Y-104670480D01*
X86170671Y-104680970D01*
X86147572Y-104689235D01*
X86123773Y-104695196D01*
X86099505Y-104698796D01*
X86075001Y-104700000D01*
X85424999Y-104700000D01*
X85400495Y-104698796D01*
X85376227Y-104695196D01*
X85352428Y-104689235D01*
X85329329Y-104680970D01*
X85307150Y-104670480D01*
X85286107Y-104657868D01*
X85266401Y-104643253D01*
X85248223Y-104626777D01*
X85231747Y-104608599D01*
X85217132Y-104588893D01*
X85204520Y-104567850D01*
X85194030Y-104545671D01*
X85185765Y-104522572D01*
X85179804Y-104498773D01*
X85176204Y-104474505D01*
X85175000Y-104450001D01*
X85175000Y-103549999D01*
X85176204Y-103525495D01*
X85179804Y-103501227D01*
X85185765Y-103477428D01*
X85194030Y-103454329D01*
X85204520Y-103432150D01*
X85217132Y-103411107D01*
X85231747Y-103391401D01*
X85248223Y-103373223D01*
X85266401Y-103356747D01*
X85286107Y-103342132D01*
X85307150Y-103329520D01*
X85329329Y-103319030D01*
X85352428Y-103310765D01*
X85376227Y-103304804D01*
X85400495Y-103301204D01*
X85424999Y-103300000D01*
X86075001Y-103300000D01*
X86099505Y-103301204D01*
G37*
G36*
X74249505Y-103301204D02*
G01*
X74273773Y-103304804D01*
X74297572Y-103310765D01*
X74320671Y-103319030D01*
X74342850Y-103329520D01*
X74363893Y-103342132D01*
X74383599Y-103356747D01*
X74401777Y-103373223D01*
X74418253Y-103391401D01*
X74432868Y-103411107D01*
X74445480Y-103432150D01*
X74455970Y-103454329D01*
X74464235Y-103477428D01*
X74470196Y-103501227D01*
X74473796Y-103525495D01*
X74475000Y-103549999D01*
X74475000Y-104450001D01*
X74473796Y-104474505D01*
X74470196Y-104498773D01*
X74464235Y-104522572D01*
X74455970Y-104545671D01*
X74445480Y-104567850D01*
X74432868Y-104588893D01*
X74418253Y-104608599D01*
X74401777Y-104626777D01*
X74383599Y-104643253D01*
X74363893Y-104657868D01*
X74342850Y-104670480D01*
X74320671Y-104680970D01*
X74297572Y-104689235D01*
X74273773Y-104695196D01*
X74249505Y-104698796D01*
X74225001Y-104700000D01*
X73574999Y-104700000D01*
X73550495Y-104698796D01*
X73526227Y-104695196D01*
X73502428Y-104689235D01*
X73479329Y-104680970D01*
X73457150Y-104670480D01*
X73436107Y-104657868D01*
X73416401Y-104643253D01*
X73398223Y-104626777D01*
X73381747Y-104608599D01*
X73367132Y-104588893D01*
X73354520Y-104567850D01*
X73344030Y-104545671D01*
X73335765Y-104522572D01*
X73329804Y-104498773D01*
X73326204Y-104474505D01*
X73325000Y-104450001D01*
X73325000Y-103549999D01*
X73326204Y-103525495D01*
X73329804Y-103501227D01*
X73335765Y-103477428D01*
X73344030Y-103454329D01*
X73354520Y-103432150D01*
X73367132Y-103411107D01*
X73381747Y-103391401D01*
X73398223Y-103373223D01*
X73416401Y-103356747D01*
X73436107Y-103342132D01*
X73457150Y-103329520D01*
X73479329Y-103319030D01*
X73502428Y-103310765D01*
X73526227Y-103304804D01*
X73550495Y-103301204D01*
X73574999Y-103300000D01*
X74225001Y-103300000D01*
X74249505Y-103301204D01*
G37*
G36*
X76299505Y-103301204D02*
G01*
X76323773Y-103304804D01*
X76347572Y-103310765D01*
X76370671Y-103319030D01*
X76392850Y-103329520D01*
X76413893Y-103342132D01*
X76433599Y-103356747D01*
X76451777Y-103373223D01*
X76468253Y-103391401D01*
X76482868Y-103411107D01*
X76495480Y-103432150D01*
X76505970Y-103454329D01*
X76514235Y-103477428D01*
X76520196Y-103501227D01*
X76523796Y-103525495D01*
X76525000Y-103549999D01*
X76525000Y-104450001D01*
X76523796Y-104474505D01*
X76520196Y-104498773D01*
X76514235Y-104522572D01*
X76505970Y-104545671D01*
X76495480Y-104567850D01*
X76482868Y-104588893D01*
X76468253Y-104608599D01*
X76451777Y-104626777D01*
X76433599Y-104643253D01*
X76413893Y-104657868D01*
X76392850Y-104670480D01*
X76370671Y-104680970D01*
X76347572Y-104689235D01*
X76323773Y-104695196D01*
X76299505Y-104698796D01*
X76275001Y-104700000D01*
X75624999Y-104700000D01*
X75600495Y-104698796D01*
X75576227Y-104695196D01*
X75552428Y-104689235D01*
X75529329Y-104680970D01*
X75507150Y-104670480D01*
X75486107Y-104657868D01*
X75466401Y-104643253D01*
X75448223Y-104626777D01*
X75431747Y-104608599D01*
X75417132Y-104588893D01*
X75404520Y-104567850D01*
X75394030Y-104545671D01*
X75385765Y-104522572D01*
X75379804Y-104498773D01*
X75376204Y-104474505D01*
X75375000Y-104450001D01*
X75375000Y-103549999D01*
X75376204Y-103525495D01*
X75379804Y-103501227D01*
X75385765Y-103477428D01*
X75394030Y-103454329D01*
X75404520Y-103432150D01*
X75417132Y-103411107D01*
X75431747Y-103391401D01*
X75448223Y-103373223D01*
X75466401Y-103356747D01*
X75486107Y-103342132D01*
X75507150Y-103329520D01*
X75529329Y-103319030D01*
X75552428Y-103310765D01*
X75576227Y-103304804D01*
X75600495Y-103301204D01*
X75624999Y-103300000D01*
X76275001Y-103300000D01*
X76299505Y-103301204D01*
G37*
G36*
X88874505Y-97101204D02*
G01*
X88898773Y-97104804D01*
X88922572Y-97110765D01*
X88945671Y-97119030D01*
X88967850Y-97129520D01*
X88988893Y-97142132D01*
X89008599Y-97156747D01*
X89026777Y-97173223D01*
X89043253Y-97191401D01*
X89057868Y-97211107D01*
X89070480Y-97232150D01*
X89080970Y-97254329D01*
X89089235Y-97277428D01*
X89095196Y-97301227D01*
X89098796Y-97325495D01*
X89100000Y-97349999D01*
X89100000Y-98000001D01*
X89098796Y-98024505D01*
X89095196Y-98048773D01*
X89089235Y-98072572D01*
X89080970Y-98095671D01*
X89070480Y-98117850D01*
X89057868Y-98138893D01*
X89043253Y-98158599D01*
X89026777Y-98176777D01*
X89008599Y-98193253D01*
X88988893Y-98207868D01*
X88967850Y-98220480D01*
X88945671Y-98230970D01*
X88922572Y-98239235D01*
X88898773Y-98245196D01*
X88874505Y-98248796D01*
X88850001Y-98250000D01*
X87949999Y-98250000D01*
X87925495Y-98248796D01*
X87901227Y-98245196D01*
X87877428Y-98239235D01*
X87854329Y-98230970D01*
X87832150Y-98220480D01*
X87811107Y-98207868D01*
X87791401Y-98193253D01*
X87773223Y-98176777D01*
X87756747Y-98158599D01*
X87742132Y-98138893D01*
X87729520Y-98117850D01*
X87719030Y-98095671D01*
X87710765Y-98072572D01*
X87704804Y-98048773D01*
X87701204Y-98024505D01*
X87700000Y-98000001D01*
X87700000Y-97349999D01*
X87701204Y-97325495D01*
X87704804Y-97301227D01*
X87710765Y-97277428D01*
X87719030Y-97254329D01*
X87729520Y-97232150D01*
X87742132Y-97211107D01*
X87756747Y-97191401D01*
X87773223Y-97173223D01*
X87791401Y-97156747D01*
X87811107Y-97142132D01*
X87832150Y-97129520D01*
X87854329Y-97119030D01*
X87877428Y-97110765D01*
X87901227Y-97104804D01*
X87925495Y-97101204D01*
X87949999Y-97100000D01*
X88850001Y-97100000D01*
X88874505Y-97101204D01*
G37*
G36*
X88874505Y-99151204D02*
G01*
X88898773Y-99154804D01*
X88922572Y-99160765D01*
X88945671Y-99169030D01*
X88967850Y-99179520D01*
X88988893Y-99192132D01*
X89008599Y-99206747D01*
X89026777Y-99223223D01*
X89043253Y-99241401D01*
X89057868Y-99261107D01*
X89070480Y-99282150D01*
X89080970Y-99304329D01*
X89089235Y-99327428D01*
X89095196Y-99351227D01*
X89098796Y-99375495D01*
X89100000Y-99399999D01*
X89100000Y-100050001D01*
X89098796Y-100074505D01*
X89095196Y-100098773D01*
X89089235Y-100122572D01*
X89080970Y-100145671D01*
X89070480Y-100167850D01*
X89057868Y-100188893D01*
X89043253Y-100208599D01*
X89026777Y-100226777D01*
X89008599Y-100243253D01*
X88988893Y-100257868D01*
X88967850Y-100270480D01*
X88945671Y-100280970D01*
X88922572Y-100289235D01*
X88898773Y-100295196D01*
X88874505Y-100298796D01*
X88850001Y-100300000D01*
X87949999Y-100300000D01*
X87925495Y-100298796D01*
X87901227Y-100295196D01*
X87877428Y-100289235D01*
X87854329Y-100280970D01*
X87832150Y-100270480D01*
X87811107Y-100257868D01*
X87791401Y-100243253D01*
X87773223Y-100226777D01*
X87756747Y-100208599D01*
X87742132Y-100188893D01*
X87729520Y-100167850D01*
X87719030Y-100145671D01*
X87710765Y-100122572D01*
X87704804Y-100098773D01*
X87701204Y-100074505D01*
X87700000Y-100050001D01*
X87700000Y-99399999D01*
X87701204Y-99375495D01*
X87704804Y-99351227D01*
X87710765Y-99327428D01*
X87719030Y-99304329D01*
X87729520Y-99282150D01*
X87742132Y-99261107D01*
X87756747Y-99241401D01*
X87773223Y-99223223D01*
X87791401Y-99206747D01*
X87811107Y-99192132D01*
X87832150Y-99179520D01*
X87854329Y-99169030D01*
X87877428Y-99160765D01*
X87901227Y-99154804D01*
X87925495Y-99151204D01*
X87949999Y-99150000D01*
X88850001Y-99150000D01*
X88874505Y-99151204D01*
G37*
G36*
X84149505Y-103301204D02*
G01*
X84173773Y-103304804D01*
X84197572Y-103310765D01*
X84220671Y-103319030D01*
X84242850Y-103329520D01*
X84263893Y-103342132D01*
X84283599Y-103356747D01*
X84301777Y-103373223D01*
X84318253Y-103391401D01*
X84332868Y-103411107D01*
X84345480Y-103432150D01*
X84355970Y-103454329D01*
X84364235Y-103477428D01*
X84370196Y-103501227D01*
X84373796Y-103525495D01*
X84375000Y-103549999D01*
X84375000Y-104450001D01*
X84373796Y-104474505D01*
X84370196Y-104498773D01*
X84364235Y-104522572D01*
X84355970Y-104545671D01*
X84345480Y-104567850D01*
X84332868Y-104588893D01*
X84318253Y-104608599D01*
X84301777Y-104626777D01*
X84283599Y-104643253D01*
X84263893Y-104657868D01*
X84242850Y-104670480D01*
X84220671Y-104680970D01*
X84197572Y-104689235D01*
X84173773Y-104695196D01*
X84149505Y-104698796D01*
X84125001Y-104700000D01*
X83474999Y-104700000D01*
X83450495Y-104698796D01*
X83426227Y-104695196D01*
X83402428Y-104689235D01*
X83379329Y-104680970D01*
X83357150Y-104670480D01*
X83336107Y-104657868D01*
X83316401Y-104643253D01*
X83298223Y-104626777D01*
X83281747Y-104608599D01*
X83267132Y-104588893D01*
X83254520Y-104567850D01*
X83244030Y-104545671D01*
X83235765Y-104522572D01*
X83229804Y-104498773D01*
X83226204Y-104474505D01*
X83225000Y-104450001D01*
X83225000Y-103549999D01*
X83226204Y-103525495D01*
X83229804Y-103501227D01*
X83235765Y-103477428D01*
X83244030Y-103454329D01*
X83254520Y-103432150D01*
X83267132Y-103411107D01*
X83281747Y-103391401D01*
X83298223Y-103373223D01*
X83316401Y-103356747D01*
X83336107Y-103342132D01*
X83357150Y-103329520D01*
X83379329Y-103319030D01*
X83402428Y-103310765D01*
X83426227Y-103304804D01*
X83450495Y-103301204D01*
X83474999Y-103300000D01*
X84125001Y-103300000D01*
X84149505Y-103301204D01*
G37*
G36*
X82099505Y-103301204D02*
G01*
X82123773Y-103304804D01*
X82147572Y-103310765D01*
X82170671Y-103319030D01*
X82192850Y-103329520D01*
X82213893Y-103342132D01*
X82233599Y-103356747D01*
X82251777Y-103373223D01*
X82268253Y-103391401D01*
X82282868Y-103411107D01*
X82295480Y-103432150D01*
X82305970Y-103454329D01*
X82314235Y-103477428D01*
X82320196Y-103501227D01*
X82323796Y-103525495D01*
X82325000Y-103549999D01*
X82325000Y-104450001D01*
X82323796Y-104474505D01*
X82320196Y-104498773D01*
X82314235Y-104522572D01*
X82305970Y-104545671D01*
X82295480Y-104567850D01*
X82282868Y-104588893D01*
X82268253Y-104608599D01*
X82251777Y-104626777D01*
X82233599Y-104643253D01*
X82213893Y-104657868D01*
X82192850Y-104670480D01*
X82170671Y-104680970D01*
X82147572Y-104689235D01*
X82123773Y-104695196D01*
X82099505Y-104698796D01*
X82075001Y-104700000D01*
X81424999Y-104700000D01*
X81400495Y-104698796D01*
X81376227Y-104695196D01*
X81352428Y-104689235D01*
X81329329Y-104680970D01*
X81307150Y-104670480D01*
X81286107Y-104657868D01*
X81266401Y-104643253D01*
X81248223Y-104626777D01*
X81231747Y-104608599D01*
X81217132Y-104588893D01*
X81204520Y-104567850D01*
X81194030Y-104545671D01*
X81185765Y-104522572D01*
X81179804Y-104498773D01*
X81176204Y-104474505D01*
X81175000Y-104450001D01*
X81175000Y-103549999D01*
X81176204Y-103525495D01*
X81179804Y-103501227D01*
X81185765Y-103477428D01*
X81194030Y-103454329D01*
X81204520Y-103432150D01*
X81217132Y-103411107D01*
X81231747Y-103391401D01*
X81248223Y-103373223D01*
X81266401Y-103356747D01*
X81286107Y-103342132D01*
X81307150Y-103329520D01*
X81329329Y-103319030D01*
X81352428Y-103310765D01*
X81376227Y-103304804D01*
X81400495Y-103301204D01*
X81424999Y-103300000D01*
X82075001Y-103300000D01*
X82099505Y-103301204D01*
G37*
G36*
X78149505Y-103301204D02*
G01*
X78173773Y-103304804D01*
X78197572Y-103310765D01*
X78220671Y-103319030D01*
X78242850Y-103329520D01*
X78263893Y-103342132D01*
X78283599Y-103356747D01*
X78301777Y-103373223D01*
X78318253Y-103391401D01*
X78332868Y-103411107D01*
X78345480Y-103432150D01*
X78355970Y-103454329D01*
X78364235Y-103477428D01*
X78370196Y-103501227D01*
X78373796Y-103525495D01*
X78375000Y-103549999D01*
X78375000Y-104450001D01*
X78373796Y-104474505D01*
X78370196Y-104498773D01*
X78364235Y-104522572D01*
X78355970Y-104545671D01*
X78345480Y-104567850D01*
X78332868Y-104588893D01*
X78318253Y-104608599D01*
X78301777Y-104626777D01*
X78283599Y-104643253D01*
X78263893Y-104657868D01*
X78242850Y-104670480D01*
X78220671Y-104680970D01*
X78197572Y-104689235D01*
X78173773Y-104695196D01*
X78149505Y-104698796D01*
X78125001Y-104700000D01*
X77474999Y-104700000D01*
X77450495Y-104698796D01*
X77426227Y-104695196D01*
X77402428Y-104689235D01*
X77379329Y-104680970D01*
X77357150Y-104670480D01*
X77336107Y-104657868D01*
X77316401Y-104643253D01*
X77298223Y-104626777D01*
X77281747Y-104608599D01*
X77267132Y-104588893D01*
X77254520Y-104567850D01*
X77244030Y-104545671D01*
X77235765Y-104522572D01*
X77229804Y-104498773D01*
X77226204Y-104474505D01*
X77225000Y-104450001D01*
X77225000Y-103549999D01*
X77226204Y-103525495D01*
X77229804Y-103501227D01*
X77235765Y-103477428D01*
X77244030Y-103454329D01*
X77254520Y-103432150D01*
X77267132Y-103411107D01*
X77281747Y-103391401D01*
X77298223Y-103373223D01*
X77316401Y-103356747D01*
X77336107Y-103342132D01*
X77357150Y-103329520D01*
X77379329Y-103319030D01*
X77402428Y-103310765D01*
X77426227Y-103304804D01*
X77450495Y-103301204D01*
X77474999Y-103300000D01*
X78125001Y-103300000D01*
X78149505Y-103301204D01*
G37*
G36*
X80199505Y-103301204D02*
G01*
X80223773Y-103304804D01*
X80247572Y-103310765D01*
X80270671Y-103319030D01*
X80292850Y-103329520D01*
X80313893Y-103342132D01*
X80333599Y-103356747D01*
X80351777Y-103373223D01*
X80368253Y-103391401D01*
X80382868Y-103411107D01*
X80395480Y-103432150D01*
X80405970Y-103454329D01*
X80414235Y-103477428D01*
X80420196Y-103501227D01*
X80423796Y-103525495D01*
X80425000Y-103549999D01*
X80425000Y-104450001D01*
X80423796Y-104474505D01*
X80420196Y-104498773D01*
X80414235Y-104522572D01*
X80405970Y-104545671D01*
X80395480Y-104567850D01*
X80382868Y-104588893D01*
X80368253Y-104608599D01*
X80351777Y-104626777D01*
X80333599Y-104643253D01*
X80313893Y-104657868D01*
X80292850Y-104670480D01*
X80270671Y-104680970D01*
X80247572Y-104689235D01*
X80223773Y-104695196D01*
X80199505Y-104698796D01*
X80175001Y-104700000D01*
X79524999Y-104700000D01*
X79500495Y-104698796D01*
X79476227Y-104695196D01*
X79452428Y-104689235D01*
X79429329Y-104680970D01*
X79407150Y-104670480D01*
X79386107Y-104657868D01*
X79366401Y-104643253D01*
X79348223Y-104626777D01*
X79331747Y-104608599D01*
X79317132Y-104588893D01*
X79304520Y-104567850D01*
X79294030Y-104545671D01*
X79285765Y-104522572D01*
X79279804Y-104498773D01*
X79276204Y-104474505D01*
X79275000Y-104450001D01*
X79275000Y-103549999D01*
X79276204Y-103525495D01*
X79279804Y-103501227D01*
X79285765Y-103477428D01*
X79294030Y-103454329D01*
X79304520Y-103432150D01*
X79317132Y-103411107D01*
X79331747Y-103391401D01*
X79348223Y-103373223D01*
X79366401Y-103356747D01*
X79386107Y-103342132D01*
X79407150Y-103329520D01*
X79429329Y-103319030D01*
X79452428Y-103310765D01*
X79476227Y-103304804D01*
X79500495Y-103301204D01*
X79524999Y-103300000D01*
X80175001Y-103300000D01*
X80199505Y-103301204D01*
G37*
D11*
X73950000Y-144400000D03*
X73950000Y-139900000D03*
X66000000Y-139900000D03*
X66000000Y-144400000D03*
D10*
G36*
X74474505Y-134976204D02*
G01*
X74498773Y-134979804D01*
X74522572Y-134985765D01*
X74545671Y-134994030D01*
X74567850Y-135004520D01*
X74588893Y-135017132D01*
X74608599Y-135031747D01*
X74626777Y-135048223D01*
X74643253Y-135066401D01*
X74657868Y-135086107D01*
X74670480Y-135107150D01*
X74680970Y-135129329D01*
X74689235Y-135152428D01*
X74695196Y-135176227D01*
X74698796Y-135200495D01*
X74700000Y-135224999D01*
X74700000Y-135875001D01*
X74698796Y-135899505D01*
X74695196Y-135923773D01*
X74689235Y-135947572D01*
X74680970Y-135970671D01*
X74670480Y-135992850D01*
X74657868Y-136013893D01*
X74643253Y-136033599D01*
X74626777Y-136051777D01*
X74608599Y-136068253D01*
X74588893Y-136082868D01*
X74567850Y-136095480D01*
X74545671Y-136105970D01*
X74522572Y-136114235D01*
X74498773Y-136120196D01*
X74474505Y-136123796D01*
X74450001Y-136125000D01*
X73549999Y-136125000D01*
X73525495Y-136123796D01*
X73501227Y-136120196D01*
X73477428Y-136114235D01*
X73454329Y-136105970D01*
X73432150Y-136095480D01*
X73411107Y-136082868D01*
X73391401Y-136068253D01*
X73373223Y-136051777D01*
X73356747Y-136033599D01*
X73342132Y-136013893D01*
X73329520Y-135992850D01*
X73319030Y-135970671D01*
X73310765Y-135947572D01*
X73304804Y-135923773D01*
X73301204Y-135899505D01*
X73300000Y-135875001D01*
X73300000Y-135224999D01*
X73301204Y-135200495D01*
X73304804Y-135176227D01*
X73310765Y-135152428D01*
X73319030Y-135129329D01*
X73329520Y-135107150D01*
X73342132Y-135086107D01*
X73356747Y-135066401D01*
X73373223Y-135048223D01*
X73391401Y-135031747D01*
X73411107Y-135017132D01*
X73432150Y-135004520D01*
X73454329Y-134994030D01*
X73477428Y-134985765D01*
X73501227Y-134979804D01*
X73525495Y-134976204D01*
X73549999Y-134975000D01*
X74450001Y-134975000D01*
X74474505Y-134976204D01*
G37*
G36*
X74474505Y-137026204D02*
G01*
X74498773Y-137029804D01*
X74522572Y-137035765D01*
X74545671Y-137044030D01*
X74567850Y-137054520D01*
X74588893Y-137067132D01*
X74608599Y-137081747D01*
X74626777Y-137098223D01*
X74643253Y-137116401D01*
X74657868Y-137136107D01*
X74670480Y-137157150D01*
X74680970Y-137179329D01*
X74689235Y-137202428D01*
X74695196Y-137226227D01*
X74698796Y-137250495D01*
X74700000Y-137274999D01*
X74700000Y-137925001D01*
X74698796Y-137949505D01*
X74695196Y-137973773D01*
X74689235Y-137997572D01*
X74680970Y-138020671D01*
X74670480Y-138042850D01*
X74657868Y-138063893D01*
X74643253Y-138083599D01*
X74626777Y-138101777D01*
X74608599Y-138118253D01*
X74588893Y-138132868D01*
X74567850Y-138145480D01*
X74545671Y-138155970D01*
X74522572Y-138164235D01*
X74498773Y-138170196D01*
X74474505Y-138173796D01*
X74450001Y-138175000D01*
X73549999Y-138175000D01*
X73525495Y-138173796D01*
X73501227Y-138170196D01*
X73477428Y-138164235D01*
X73454329Y-138155970D01*
X73432150Y-138145480D01*
X73411107Y-138132868D01*
X73391401Y-138118253D01*
X73373223Y-138101777D01*
X73356747Y-138083599D01*
X73342132Y-138063893D01*
X73329520Y-138042850D01*
X73319030Y-138020671D01*
X73310765Y-137997572D01*
X73304804Y-137973773D01*
X73301204Y-137949505D01*
X73300000Y-137925001D01*
X73300000Y-137274999D01*
X73301204Y-137250495D01*
X73304804Y-137226227D01*
X73310765Y-137202428D01*
X73319030Y-137179329D01*
X73329520Y-137157150D01*
X73342132Y-137136107D01*
X73356747Y-137116401D01*
X73373223Y-137098223D01*
X73391401Y-137081747D01*
X73411107Y-137067132D01*
X73432150Y-137054520D01*
X73454329Y-137044030D01*
X73477428Y-137035765D01*
X73501227Y-137029804D01*
X73525495Y-137026204D01*
X73549999Y-137025000D01*
X74450001Y-137025000D01*
X74474505Y-137026204D01*
G37*
G36*
X72374505Y-136801204D02*
G01*
X72398773Y-136804804D01*
X72422572Y-136810765D01*
X72445671Y-136819030D01*
X72467850Y-136829520D01*
X72488893Y-136842132D01*
X72508599Y-136856747D01*
X72526777Y-136873223D01*
X72543253Y-136891401D01*
X72557868Y-136911107D01*
X72570480Y-136932150D01*
X72580970Y-136954329D01*
X72589235Y-136977428D01*
X72595196Y-137001227D01*
X72598796Y-137025495D01*
X72600000Y-137049999D01*
X72600000Y-137950001D01*
X72598796Y-137974505D01*
X72595196Y-137998773D01*
X72589235Y-138022572D01*
X72580970Y-138045671D01*
X72570480Y-138067850D01*
X72557868Y-138088893D01*
X72543253Y-138108599D01*
X72526777Y-138126777D01*
X72508599Y-138143253D01*
X72488893Y-138157868D01*
X72467850Y-138170480D01*
X72445671Y-138180970D01*
X72422572Y-138189235D01*
X72398773Y-138195196D01*
X72374505Y-138198796D01*
X72350001Y-138200000D01*
X71699999Y-138200000D01*
X71675495Y-138198796D01*
X71651227Y-138195196D01*
X71627428Y-138189235D01*
X71604329Y-138180970D01*
X71582150Y-138170480D01*
X71561107Y-138157868D01*
X71541401Y-138143253D01*
X71523223Y-138126777D01*
X71506747Y-138108599D01*
X71492132Y-138088893D01*
X71479520Y-138067850D01*
X71469030Y-138045671D01*
X71460765Y-138022572D01*
X71454804Y-137998773D01*
X71451204Y-137974505D01*
X71450000Y-137950001D01*
X71450000Y-137049999D01*
X71451204Y-137025495D01*
X71454804Y-137001227D01*
X71460765Y-136977428D01*
X71469030Y-136954329D01*
X71479520Y-136932150D01*
X71492132Y-136911107D01*
X71506747Y-136891401D01*
X71523223Y-136873223D01*
X71541401Y-136856747D01*
X71561107Y-136842132D01*
X71582150Y-136829520D01*
X71604329Y-136819030D01*
X71627428Y-136810765D01*
X71651227Y-136804804D01*
X71675495Y-136801204D01*
X71699999Y-136800000D01*
X72350001Y-136800000D01*
X72374505Y-136801204D01*
G37*
G36*
X70324505Y-136801204D02*
G01*
X70348773Y-136804804D01*
X70372572Y-136810765D01*
X70395671Y-136819030D01*
X70417850Y-136829520D01*
X70438893Y-136842132D01*
X70458599Y-136856747D01*
X70476777Y-136873223D01*
X70493253Y-136891401D01*
X70507868Y-136911107D01*
X70520480Y-136932150D01*
X70530970Y-136954329D01*
X70539235Y-136977428D01*
X70545196Y-137001227D01*
X70548796Y-137025495D01*
X70550000Y-137049999D01*
X70550000Y-137950001D01*
X70548796Y-137974505D01*
X70545196Y-137998773D01*
X70539235Y-138022572D01*
X70530970Y-138045671D01*
X70520480Y-138067850D01*
X70507868Y-138088893D01*
X70493253Y-138108599D01*
X70476777Y-138126777D01*
X70458599Y-138143253D01*
X70438893Y-138157868D01*
X70417850Y-138170480D01*
X70395671Y-138180970D01*
X70372572Y-138189235D01*
X70348773Y-138195196D01*
X70324505Y-138198796D01*
X70300001Y-138200000D01*
X69649999Y-138200000D01*
X69625495Y-138198796D01*
X69601227Y-138195196D01*
X69577428Y-138189235D01*
X69554329Y-138180970D01*
X69532150Y-138170480D01*
X69511107Y-138157868D01*
X69491401Y-138143253D01*
X69473223Y-138126777D01*
X69456747Y-138108599D01*
X69442132Y-138088893D01*
X69429520Y-138067850D01*
X69419030Y-138045671D01*
X69410765Y-138022572D01*
X69404804Y-137998773D01*
X69401204Y-137974505D01*
X69400000Y-137950001D01*
X69400000Y-137049999D01*
X69401204Y-137025495D01*
X69404804Y-137001227D01*
X69410765Y-136977428D01*
X69419030Y-136954329D01*
X69429520Y-136932150D01*
X69442132Y-136911107D01*
X69456747Y-136891401D01*
X69473223Y-136873223D01*
X69491401Y-136856747D01*
X69511107Y-136842132D01*
X69532150Y-136829520D01*
X69554329Y-136819030D01*
X69577428Y-136810765D01*
X69601227Y-136804804D01*
X69625495Y-136801204D01*
X69649999Y-136800000D01*
X70300001Y-136800000D01*
X70324505Y-136801204D01*
G37*
G36*
X100474505Y-97301204D02*
G01*
X100498773Y-97304804D01*
X100522572Y-97310765D01*
X100545671Y-97319030D01*
X100567850Y-97329520D01*
X100588893Y-97342132D01*
X100608599Y-97356747D01*
X100626777Y-97373223D01*
X100643253Y-97391401D01*
X100657868Y-97411107D01*
X100670480Y-97432150D01*
X100680970Y-97454329D01*
X100689235Y-97477428D01*
X100695196Y-97501227D01*
X100698796Y-97525495D01*
X100700000Y-97549999D01*
X100700000Y-98200001D01*
X100698796Y-98224505D01*
X100695196Y-98248773D01*
X100689235Y-98272572D01*
X100680970Y-98295671D01*
X100670480Y-98317850D01*
X100657868Y-98338893D01*
X100643253Y-98358599D01*
X100626777Y-98376777D01*
X100608599Y-98393253D01*
X100588893Y-98407868D01*
X100567850Y-98420480D01*
X100545671Y-98430970D01*
X100522572Y-98439235D01*
X100498773Y-98445196D01*
X100474505Y-98448796D01*
X100450001Y-98450000D01*
X99549999Y-98450000D01*
X99525495Y-98448796D01*
X99501227Y-98445196D01*
X99477428Y-98439235D01*
X99454329Y-98430970D01*
X99432150Y-98420480D01*
X99411107Y-98407868D01*
X99391401Y-98393253D01*
X99373223Y-98376777D01*
X99356747Y-98358599D01*
X99342132Y-98338893D01*
X99329520Y-98317850D01*
X99319030Y-98295671D01*
X99310765Y-98272572D01*
X99304804Y-98248773D01*
X99301204Y-98224505D01*
X99300000Y-98200001D01*
X99300000Y-97549999D01*
X99301204Y-97525495D01*
X99304804Y-97501227D01*
X99310765Y-97477428D01*
X99319030Y-97454329D01*
X99329520Y-97432150D01*
X99342132Y-97411107D01*
X99356747Y-97391401D01*
X99373223Y-97373223D01*
X99391401Y-97356747D01*
X99411107Y-97342132D01*
X99432150Y-97329520D01*
X99454329Y-97319030D01*
X99477428Y-97310765D01*
X99501227Y-97304804D01*
X99525495Y-97301204D01*
X99549999Y-97300000D01*
X100450001Y-97300000D01*
X100474505Y-97301204D01*
G37*
G36*
X100474505Y-99351204D02*
G01*
X100498773Y-99354804D01*
X100522572Y-99360765D01*
X100545671Y-99369030D01*
X100567850Y-99379520D01*
X100588893Y-99392132D01*
X100608599Y-99406747D01*
X100626777Y-99423223D01*
X100643253Y-99441401D01*
X100657868Y-99461107D01*
X100670480Y-99482150D01*
X100680970Y-99504329D01*
X100689235Y-99527428D01*
X100695196Y-99551227D01*
X100698796Y-99575495D01*
X100700000Y-99599999D01*
X100700000Y-100250001D01*
X100698796Y-100274505D01*
X100695196Y-100298773D01*
X100689235Y-100322572D01*
X100680970Y-100345671D01*
X100670480Y-100367850D01*
X100657868Y-100388893D01*
X100643253Y-100408599D01*
X100626777Y-100426777D01*
X100608599Y-100443253D01*
X100588893Y-100457868D01*
X100567850Y-100470480D01*
X100545671Y-100480970D01*
X100522572Y-100489235D01*
X100498773Y-100495196D01*
X100474505Y-100498796D01*
X100450001Y-100500000D01*
X99549999Y-100500000D01*
X99525495Y-100498796D01*
X99501227Y-100495196D01*
X99477428Y-100489235D01*
X99454329Y-100480970D01*
X99432150Y-100470480D01*
X99411107Y-100457868D01*
X99391401Y-100443253D01*
X99373223Y-100426777D01*
X99356747Y-100408599D01*
X99342132Y-100388893D01*
X99329520Y-100367850D01*
X99319030Y-100345671D01*
X99310765Y-100322572D01*
X99304804Y-100298773D01*
X99301204Y-100274505D01*
X99300000Y-100250001D01*
X99300000Y-99599999D01*
X99301204Y-99575495D01*
X99304804Y-99551227D01*
X99310765Y-99527428D01*
X99319030Y-99504329D01*
X99329520Y-99482150D01*
X99342132Y-99461107D01*
X99356747Y-99441401D01*
X99373223Y-99423223D01*
X99391401Y-99406747D01*
X99411107Y-99392132D01*
X99432150Y-99379520D01*
X99454329Y-99369030D01*
X99477428Y-99360765D01*
X99501227Y-99354804D01*
X99525495Y-99351204D01*
X99549999Y-99350000D01*
X100450001Y-99350000D01*
X100474505Y-99351204D01*
G37*
G36*
X152574505Y-128376204D02*
G01*
X152598773Y-128379804D01*
X152622572Y-128385765D01*
X152645671Y-128394030D01*
X152667850Y-128404520D01*
X152688893Y-128417132D01*
X152708599Y-128431747D01*
X152726777Y-128448223D01*
X152743253Y-128466401D01*
X152757868Y-128486107D01*
X152770480Y-128507150D01*
X152780970Y-128529329D01*
X152789235Y-128552428D01*
X152795196Y-128576227D01*
X152798796Y-128600495D01*
X152800000Y-128624999D01*
X152800000Y-129275001D01*
X152798796Y-129299505D01*
X152795196Y-129323773D01*
X152789235Y-129347572D01*
X152780970Y-129370671D01*
X152770480Y-129392850D01*
X152757868Y-129413893D01*
X152743253Y-129433599D01*
X152726777Y-129451777D01*
X152708599Y-129468253D01*
X152688893Y-129482868D01*
X152667850Y-129495480D01*
X152645671Y-129505970D01*
X152622572Y-129514235D01*
X152598773Y-129520196D01*
X152574505Y-129523796D01*
X152550001Y-129525000D01*
X151649999Y-129525000D01*
X151625495Y-129523796D01*
X151601227Y-129520196D01*
X151577428Y-129514235D01*
X151554329Y-129505970D01*
X151532150Y-129495480D01*
X151511107Y-129482868D01*
X151491401Y-129468253D01*
X151473223Y-129451777D01*
X151456747Y-129433599D01*
X151442132Y-129413893D01*
X151429520Y-129392850D01*
X151419030Y-129370671D01*
X151410765Y-129347572D01*
X151404804Y-129323773D01*
X151401204Y-129299505D01*
X151400000Y-129275001D01*
X151400000Y-128624999D01*
X151401204Y-128600495D01*
X151404804Y-128576227D01*
X151410765Y-128552428D01*
X151419030Y-128529329D01*
X151429520Y-128507150D01*
X151442132Y-128486107D01*
X151456747Y-128466401D01*
X151473223Y-128448223D01*
X151491401Y-128431747D01*
X151511107Y-128417132D01*
X151532150Y-128404520D01*
X151554329Y-128394030D01*
X151577428Y-128385765D01*
X151601227Y-128379804D01*
X151625495Y-128376204D01*
X151649999Y-128375000D01*
X152550001Y-128375000D01*
X152574505Y-128376204D01*
G37*
G36*
X152574505Y-130426204D02*
G01*
X152598773Y-130429804D01*
X152622572Y-130435765D01*
X152645671Y-130444030D01*
X152667850Y-130454520D01*
X152688893Y-130467132D01*
X152708599Y-130481747D01*
X152726777Y-130498223D01*
X152743253Y-130516401D01*
X152757868Y-130536107D01*
X152770480Y-130557150D01*
X152780970Y-130579329D01*
X152789235Y-130602428D01*
X152795196Y-130626227D01*
X152798796Y-130650495D01*
X152800000Y-130674999D01*
X152800000Y-131325001D01*
X152798796Y-131349505D01*
X152795196Y-131373773D01*
X152789235Y-131397572D01*
X152780970Y-131420671D01*
X152770480Y-131442850D01*
X152757868Y-131463893D01*
X152743253Y-131483599D01*
X152726777Y-131501777D01*
X152708599Y-131518253D01*
X152688893Y-131532868D01*
X152667850Y-131545480D01*
X152645671Y-131555970D01*
X152622572Y-131564235D01*
X152598773Y-131570196D01*
X152574505Y-131573796D01*
X152550001Y-131575000D01*
X151649999Y-131575000D01*
X151625495Y-131573796D01*
X151601227Y-131570196D01*
X151577428Y-131564235D01*
X151554329Y-131555970D01*
X151532150Y-131545480D01*
X151511107Y-131532868D01*
X151491401Y-131518253D01*
X151473223Y-131501777D01*
X151456747Y-131483599D01*
X151442132Y-131463893D01*
X151429520Y-131442850D01*
X151419030Y-131420671D01*
X151410765Y-131397572D01*
X151404804Y-131373773D01*
X151401204Y-131349505D01*
X151400000Y-131325001D01*
X151400000Y-130674999D01*
X151401204Y-130650495D01*
X151404804Y-130626227D01*
X151410765Y-130602428D01*
X151419030Y-130579329D01*
X151429520Y-130557150D01*
X151442132Y-130536107D01*
X151456747Y-130516401D01*
X151473223Y-130498223D01*
X151491401Y-130481747D01*
X151511107Y-130467132D01*
X151532150Y-130454520D01*
X151554329Y-130444030D01*
X151577428Y-130435765D01*
X151601227Y-130429804D01*
X151625495Y-130426204D01*
X151649999Y-130425000D01*
X152550001Y-130425000D01*
X152574505Y-130426204D01*
G37*
G36*
X112074505Y-103451204D02*
G01*
X112098773Y-103454804D01*
X112122572Y-103460765D01*
X112145671Y-103469030D01*
X112167850Y-103479520D01*
X112188893Y-103492132D01*
X112208599Y-103506747D01*
X112226777Y-103523223D01*
X112243253Y-103541401D01*
X112257868Y-103561107D01*
X112270480Y-103582150D01*
X112280970Y-103604329D01*
X112289235Y-103627428D01*
X112295196Y-103651227D01*
X112298796Y-103675495D01*
X112300000Y-103699999D01*
X112300000Y-104350001D01*
X112298796Y-104374505D01*
X112295196Y-104398773D01*
X112289235Y-104422572D01*
X112280970Y-104445671D01*
X112270480Y-104467850D01*
X112257868Y-104488893D01*
X112243253Y-104508599D01*
X112226777Y-104526777D01*
X112208599Y-104543253D01*
X112188893Y-104557868D01*
X112167850Y-104570480D01*
X112145671Y-104580970D01*
X112122572Y-104589235D01*
X112098773Y-104595196D01*
X112074505Y-104598796D01*
X112050001Y-104600000D01*
X111149999Y-104600000D01*
X111125495Y-104598796D01*
X111101227Y-104595196D01*
X111077428Y-104589235D01*
X111054329Y-104580970D01*
X111032150Y-104570480D01*
X111011107Y-104557868D01*
X110991401Y-104543253D01*
X110973223Y-104526777D01*
X110956747Y-104508599D01*
X110942132Y-104488893D01*
X110929520Y-104467850D01*
X110919030Y-104445671D01*
X110910765Y-104422572D01*
X110904804Y-104398773D01*
X110901204Y-104374505D01*
X110900000Y-104350001D01*
X110900000Y-103699999D01*
X110901204Y-103675495D01*
X110904804Y-103651227D01*
X110910765Y-103627428D01*
X110919030Y-103604329D01*
X110929520Y-103582150D01*
X110942132Y-103561107D01*
X110956747Y-103541401D01*
X110973223Y-103523223D01*
X110991401Y-103506747D01*
X111011107Y-103492132D01*
X111032150Y-103479520D01*
X111054329Y-103469030D01*
X111077428Y-103460765D01*
X111101227Y-103454804D01*
X111125495Y-103451204D01*
X111149999Y-103450000D01*
X112050001Y-103450000D01*
X112074505Y-103451204D01*
G37*
G36*
X112074505Y-101401204D02*
G01*
X112098773Y-101404804D01*
X112122572Y-101410765D01*
X112145671Y-101419030D01*
X112167850Y-101429520D01*
X112188893Y-101442132D01*
X112208599Y-101456747D01*
X112226777Y-101473223D01*
X112243253Y-101491401D01*
X112257868Y-101511107D01*
X112270480Y-101532150D01*
X112280970Y-101554329D01*
X112289235Y-101577428D01*
X112295196Y-101601227D01*
X112298796Y-101625495D01*
X112300000Y-101649999D01*
X112300000Y-102300001D01*
X112298796Y-102324505D01*
X112295196Y-102348773D01*
X112289235Y-102372572D01*
X112280970Y-102395671D01*
X112270480Y-102417850D01*
X112257868Y-102438893D01*
X112243253Y-102458599D01*
X112226777Y-102476777D01*
X112208599Y-102493253D01*
X112188893Y-102507868D01*
X112167850Y-102520480D01*
X112145671Y-102530970D01*
X112122572Y-102539235D01*
X112098773Y-102545196D01*
X112074505Y-102548796D01*
X112050001Y-102550000D01*
X111149999Y-102550000D01*
X111125495Y-102548796D01*
X111101227Y-102545196D01*
X111077428Y-102539235D01*
X111054329Y-102530970D01*
X111032150Y-102520480D01*
X111011107Y-102507868D01*
X110991401Y-102493253D01*
X110973223Y-102476777D01*
X110956747Y-102458599D01*
X110942132Y-102438893D01*
X110929520Y-102417850D01*
X110919030Y-102395671D01*
X110910765Y-102372572D01*
X110904804Y-102348773D01*
X110901204Y-102324505D01*
X110900000Y-102300001D01*
X110900000Y-101649999D01*
X110901204Y-101625495D01*
X110904804Y-101601227D01*
X110910765Y-101577428D01*
X110919030Y-101554329D01*
X110929520Y-101532150D01*
X110942132Y-101511107D01*
X110956747Y-101491401D01*
X110973223Y-101473223D01*
X110991401Y-101456747D01*
X111011107Y-101442132D01*
X111032150Y-101429520D01*
X111054329Y-101419030D01*
X111077428Y-101410765D01*
X111101227Y-101404804D01*
X111125495Y-101401204D01*
X111149999Y-101400000D01*
X112050001Y-101400000D01*
X112074505Y-101401204D01*
G37*
G36*
X82799505Y-136601204D02*
G01*
X82823773Y-136604804D01*
X82847572Y-136610765D01*
X82870671Y-136619030D01*
X82892850Y-136629520D01*
X82913893Y-136642132D01*
X82933599Y-136656747D01*
X82951777Y-136673223D01*
X82968253Y-136691401D01*
X82982868Y-136711107D01*
X82995480Y-136732150D01*
X83005970Y-136754329D01*
X83014235Y-136777428D01*
X83020196Y-136801227D01*
X83023796Y-136825495D01*
X83025000Y-136849999D01*
X83025000Y-137750001D01*
X83023796Y-137774505D01*
X83020196Y-137798773D01*
X83014235Y-137822572D01*
X83005970Y-137845671D01*
X82995480Y-137867850D01*
X82982868Y-137888893D01*
X82968253Y-137908599D01*
X82951777Y-137926777D01*
X82933599Y-137943253D01*
X82913893Y-137957868D01*
X82892850Y-137970480D01*
X82870671Y-137980970D01*
X82847572Y-137989235D01*
X82823773Y-137995196D01*
X82799505Y-137998796D01*
X82775001Y-138000000D01*
X82124999Y-138000000D01*
X82100495Y-137998796D01*
X82076227Y-137995196D01*
X82052428Y-137989235D01*
X82029329Y-137980970D01*
X82007150Y-137970480D01*
X81986107Y-137957868D01*
X81966401Y-137943253D01*
X81948223Y-137926777D01*
X81931747Y-137908599D01*
X81917132Y-137888893D01*
X81904520Y-137867850D01*
X81894030Y-137845671D01*
X81885765Y-137822572D01*
X81879804Y-137798773D01*
X81876204Y-137774505D01*
X81875000Y-137750001D01*
X81875000Y-136849999D01*
X81876204Y-136825495D01*
X81879804Y-136801227D01*
X81885765Y-136777428D01*
X81894030Y-136754329D01*
X81904520Y-136732150D01*
X81917132Y-136711107D01*
X81931747Y-136691401D01*
X81948223Y-136673223D01*
X81966401Y-136656747D01*
X81986107Y-136642132D01*
X82007150Y-136629520D01*
X82029329Y-136619030D01*
X82052428Y-136610765D01*
X82076227Y-136604804D01*
X82100495Y-136601204D01*
X82124999Y-136600000D01*
X82775001Y-136600000D01*
X82799505Y-136601204D01*
G37*
G36*
X80749505Y-136601204D02*
G01*
X80773773Y-136604804D01*
X80797572Y-136610765D01*
X80820671Y-136619030D01*
X80842850Y-136629520D01*
X80863893Y-136642132D01*
X80883599Y-136656747D01*
X80901777Y-136673223D01*
X80918253Y-136691401D01*
X80932868Y-136711107D01*
X80945480Y-136732150D01*
X80955970Y-136754329D01*
X80964235Y-136777428D01*
X80970196Y-136801227D01*
X80973796Y-136825495D01*
X80975000Y-136849999D01*
X80975000Y-137750001D01*
X80973796Y-137774505D01*
X80970196Y-137798773D01*
X80964235Y-137822572D01*
X80955970Y-137845671D01*
X80945480Y-137867850D01*
X80932868Y-137888893D01*
X80918253Y-137908599D01*
X80901777Y-137926777D01*
X80883599Y-137943253D01*
X80863893Y-137957868D01*
X80842850Y-137970480D01*
X80820671Y-137980970D01*
X80797572Y-137989235D01*
X80773773Y-137995196D01*
X80749505Y-137998796D01*
X80725001Y-138000000D01*
X80074999Y-138000000D01*
X80050495Y-137998796D01*
X80026227Y-137995196D01*
X80002428Y-137989235D01*
X79979329Y-137980970D01*
X79957150Y-137970480D01*
X79936107Y-137957868D01*
X79916401Y-137943253D01*
X79898223Y-137926777D01*
X79881747Y-137908599D01*
X79867132Y-137888893D01*
X79854520Y-137867850D01*
X79844030Y-137845671D01*
X79835765Y-137822572D01*
X79829804Y-137798773D01*
X79826204Y-137774505D01*
X79825000Y-137750001D01*
X79825000Y-136849999D01*
X79826204Y-136825495D01*
X79829804Y-136801227D01*
X79835765Y-136777428D01*
X79844030Y-136754329D01*
X79854520Y-136732150D01*
X79867132Y-136711107D01*
X79881747Y-136691401D01*
X79898223Y-136673223D01*
X79916401Y-136656747D01*
X79936107Y-136642132D01*
X79957150Y-136629520D01*
X79979329Y-136619030D01*
X80002428Y-136610765D01*
X80026227Y-136604804D01*
X80050495Y-136601204D01*
X80074999Y-136600000D01*
X80725001Y-136600000D01*
X80749505Y-136601204D01*
G37*
G36*
X63874505Y-122801204D02*
G01*
X63898773Y-122804804D01*
X63922572Y-122810765D01*
X63945671Y-122819030D01*
X63967850Y-122829520D01*
X63988893Y-122842132D01*
X64008599Y-122856747D01*
X64026777Y-122873223D01*
X64043253Y-122891401D01*
X64057868Y-122911107D01*
X64070480Y-122932150D01*
X64080970Y-122954329D01*
X64089235Y-122977428D01*
X64095196Y-123001227D01*
X64098796Y-123025495D01*
X64100000Y-123049999D01*
X64100000Y-123700001D01*
X64098796Y-123724505D01*
X64095196Y-123748773D01*
X64089235Y-123772572D01*
X64080970Y-123795671D01*
X64070480Y-123817850D01*
X64057868Y-123838893D01*
X64043253Y-123858599D01*
X64026777Y-123876777D01*
X64008599Y-123893253D01*
X63988893Y-123907868D01*
X63967850Y-123920480D01*
X63945671Y-123930970D01*
X63922572Y-123939235D01*
X63898773Y-123945196D01*
X63874505Y-123948796D01*
X63850001Y-123950000D01*
X62949999Y-123950000D01*
X62925495Y-123948796D01*
X62901227Y-123945196D01*
X62877428Y-123939235D01*
X62854329Y-123930970D01*
X62832150Y-123920480D01*
X62811107Y-123907868D01*
X62791401Y-123893253D01*
X62773223Y-123876777D01*
X62756747Y-123858599D01*
X62742132Y-123838893D01*
X62729520Y-123817850D01*
X62719030Y-123795671D01*
X62710765Y-123772572D01*
X62704804Y-123748773D01*
X62701204Y-123724505D01*
X62700000Y-123700001D01*
X62700000Y-123049999D01*
X62701204Y-123025495D01*
X62704804Y-123001227D01*
X62710765Y-122977428D01*
X62719030Y-122954329D01*
X62729520Y-122932150D01*
X62742132Y-122911107D01*
X62756747Y-122891401D01*
X62773223Y-122873223D01*
X62791401Y-122856747D01*
X62811107Y-122842132D01*
X62832150Y-122829520D01*
X62854329Y-122819030D01*
X62877428Y-122810765D01*
X62901227Y-122804804D01*
X62925495Y-122801204D01*
X62949999Y-122800000D01*
X63850001Y-122800000D01*
X63874505Y-122801204D01*
G37*
G36*
X63874505Y-124851204D02*
G01*
X63898773Y-124854804D01*
X63922572Y-124860765D01*
X63945671Y-124869030D01*
X63967850Y-124879520D01*
X63988893Y-124892132D01*
X64008599Y-124906747D01*
X64026777Y-124923223D01*
X64043253Y-124941401D01*
X64057868Y-124961107D01*
X64070480Y-124982150D01*
X64080970Y-125004329D01*
X64089235Y-125027428D01*
X64095196Y-125051227D01*
X64098796Y-125075495D01*
X64100000Y-125099999D01*
X64100000Y-125750001D01*
X64098796Y-125774505D01*
X64095196Y-125798773D01*
X64089235Y-125822572D01*
X64080970Y-125845671D01*
X64070480Y-125867850D01*
X64057868Y-125888893D01*
X64043253Y-125908599D01*
X64026777Y-125926777D01*
X64008599Y-125943253D01*
X63988893Y-125957868D01*
X63967850Y-125970480D01*
X63945671Y-125980970D01*
X63922572Y-125989235D01*
X63898773Y-125995196D01*
X63874505Y-125998796D01*
X63850001Y-126000000D01*
X62949999Y-126000000D01*
X62925495Y-125998796D01*
X62901227Y-125995196D01*
X62877428Y-125989235D01*
X62854329Y-125980970D01*
X62832150Y-125970480D01*
X62811107Y-125957868D01*
X62791401Y-125943253D01*
X62773223Y-125926777D01*
X62756747Y-125908599D01*
X62742132Y-125888893D01*
X62729520Y-125867850D01*
X62719030Y-125845671D01*
X62710765Y-125822572D01*
X62704804Y-125798773D01*
X62701204Y-125774505D01*
X62700000Y-125750001D01*
X62700000Y-125099999D01*
X62701204Y-125075495D01*
X62704804Y-125051227D01*
X62710765Y-125027428D01*
X62719030Y-125004329D01*
X62729520Y-124982150D01*
X62742132Y-124961107D01*
X62756747Y-124941401D01*
X62773223Y-124923223D01*
X62791401Y-124906747D01*
X62811107Y-124892132D01*
X62832150Y-124879520D01*
X62854329Y-124869030D01*
X62877428Y-124860765D01*
X62901227Y-124854804D01*
X62925495Y-124851204D01*
X62949999Y-124850000D01*
X63850001Y-124850000D01*
X63874505Y-124851204D01*
G37*
G36*
X95099505Y-134901204D02*
G01*
X95123773Y-134904804D01*
X95147572Y-134910765D01*
X95170671Y-134919030D01*
X95192850Y-134929520D01*
X95213893Y-134942132D01*
X95233599Y-134956747D01*
X95251777Y-134973223D01*
X95268253Y-134991401D01*
X95282868Y-135011107D01*
X95295480Y-135032150D01*
X95305970Y-135054329D01*
X95314235Y-135077428D01*
X95320196Y-135101227D01*
X95323796Y-135125495D01*
X95325000Y-135149999D01*
X95325000Y-136050001D01*
X95323796Y-136074505D01*
X95320196Y-136098773D01*
X95314235Y-136122572D01*
X95305970Y-136145671D01*
X95295480Y-136167850D01*
X95282868Y-136188893D01*
X95268253Y-136208599D01*
X95251777Y-136226777D01*
X95233599Y-136243253D01*
X95213893Y-136257868D01*
X95192850Y-136270480D01*
X95170671Y-136280970D01*
X95147572Y-136289235D01*
X95123773Y-136295196D01*
X95099505Y-136298796D01*
X95075001Y-136300000D01*
X94424999Y-136300000D01*
X94400495Y-136298796D01*
X94376227Y-136295196D01*
X94352428Y-136289235D01*
X94329329Y-136280970D01*
X94307150Y-136270480D01*
X94286107Y-136257868D01*
X94266401Y-136243253D01*
X94248223Y-136226777D01*
X94231747Y-136208599D01*
X94217132Y-136188893D01*
X94204520Y-136167850D01*
X94194030Y-136145671D01*
X94185765Y-136122572D01*
X94179804Y-136098773D01*
X94176204Y-136074505D01*
X94175000Y-136050001D01*
X94175000Y-135149999D01*
X94176204Y-135125495D01*
X94179804Y-135101227D01*
X94185765Y-135077428D01*
X94194030Y-135054329D01*
X94204520Y-135032150D01*
X94217132Y-135011107D01*
X94231747Y-134991401D01*
X94248223Y-134973223D01*
X94266401Y-134956747D01*
X94286107Y-134942132D01*
X94307150Y-134929520D01*
X94329329Y-134919030D01*
X94352428Y-134910765D01*
X94376227Y-134904804D01*
X94400495Y-134901204D01*
X94424999Y-134900000D01*
X95075001Y-134900000D01*
X95099505Y-134901204D01*
G37*
G36*
X93049505Y-134901204D02*
G01*
X93073773Y-134904804D01*
X93097572Y-134910765D01*
X93120671Y-134919030D01*
X93142850Y-134929520D01*
X93163893Y-134942132D01*
X93183599Y-134956747D01*
X93201777Y-134973223D01*
X93218253Y-134991401D01*
X93232868Y-135011107D01*
X93245480Y-135032150D01*
X93255970Y-135054329D01*
X93264235Y-135077428D01*
X93270196Y-135101227D01*
X93273796Y-135125495D01*
X93275000Y-135149999D01*
X93275000Y-136050001D01*
X93273796Y-136074505D01*
X93270196Y-136098773D01*
X93264235Y-136122572D01*
X93255970Y-136145671D01*
X93245480Y-136167850D01*
X93232868Y-136188893D01*
X93218253Y-136208599D01*
X93201777Y-136226777D01*
X93183599Y-136243253D01*
X93163893Y-136257868D01*
X93142850Y-136270480D01*
X93120671Y-136280970D01*
X93097572Y-136289235D01*
X93073773Y-136295196D01*
X93049505Y-136298796D01*
X93025001Y-136300000D01*
X92374999Y-136300000D01*
X92350495Y-136298796D01*
X92326227Y-136295196D01*
X92302428Y-136289235D01*
X92279329Y-136280970D01*
X92257150Y-136270480D01*
X92236107Y-136257868D01*
X92216401Y-136243253D01*
X92198223Y-136226777D01*
X92181747Y-136208599D01*
X92167132Y-136188893D01*
X92154520Y-136167850D01*
X92144030Y-136145671D01*
X92135765Y-136122572D01*
X92129804Y-136098773D01*
X92126204Y-136074505D01*
X92125000Y-136050001D01*
X92125000Y-135149999D01*
X92126204Y-135125495D01*
X92129804Y-135101227D01*
X92135765Y-135077428D01*
X92144030Y-135054329D01*
X92154520Y-135032150D01*
X92167132Y-135011107D01*
X92181747Y-134991401D01*
X92198223Y-134973223D01*
X92216401Y-134956747D01*
X92236107Y-134942132D01*
X92257150Y-134929520D01*
X92279329Y-134919030D01*
X92302428Y-134910765D01*
X92326227Y-134904804D01*
X92350495Y-134901204D01*
X92374999Y-134900000D01*
X93025001Y-134900000D01*
X93049505Y-134901204D01*
G37*
G36*
X91074505Y-137126204D02*
G01*
X91098773Y-137129804D01*
X91122572Y-137135765D01*
X91145671Y-137144030D01*
X91167850Y-137154520D01*
X91188893Y-137167132D01*
X91208599Y-137181747D01*
X91226777Y-137198223D01*
X91243253Y-137216401D01*
X91257868Y-137236107D01*
X91270480Y-137257150D01*
X91280970Y-137279329D01*
X91289235Y-137302428D01*
X91295196Y-137326227D01*
X91298796Y-137350495D01*
X91300000Y-137374999D01*
X91300000Y-138025001D01*
X91298796Y-138049505D01*
X91295196Y-138073773D01*
X91289235Y-138097572D01*
X91280970Y-138120671D01*
X91270480Y-138142850D01*
X91257868Y-138163893D01*
X91243253Y-138183599D01*
X91226777Y-138201777D01*
X91208599Y-138218253D01*
X91188893Y-138232868D01*
X91167850Y-138245480D01*
X91145671Y-138255970D01*
X91122572Y-138264235D01*
X91098773Y-138270196D01*
X91074505Y-138273796D01*
X91050001Y-138275000D01*
X90149999Y-138275000D01*
X90125495Y-138273796D01*
X90101227Y-138270196D01*
X90077428Y-138264235D01*
X90054329Y-138255970D01*
X90032150Y-138245480D01*
X90011107Y-138232868D01*
X89991401Y-138218253D01*
X89973223Y-138201777D01*
X89956747Y-138183599D01*
X89942132Y-138163893D01*
X89929520Y-138142850D01*
X89919030Y-138120671D01*
X89910765Y-138097572D01*
X89904804Y-138073773D01*
X89901204Y-138049505D01*
X89900000Y-138025001D01*
X89900000Y-137374999D01*
X89901204Y-137350495D01*
X89904804Y-137326227D01*
X89910765Y-137302428D01*
X89919030Y-137279329D01*
X89929520Y-137257150D01*
X89942132Y-137236107D01*
X89956747Y-137216401D01*
X89973223Y-137198223D01*
X89991401Y-137181747D01*
X90011107Y-137167132D01*
X90032150Y-137154520D01*
X90054329Y-137144030D01*
X90077428Y-137135765D01*
X90101227Y-137129804D01*
X90125495Y-137126204D01*
X90149999Y-137125000D01*
X91050001Y-137125000D01*
X91074505Y-137126204D01*
G37*
G36*
X91074505Y-135076204D02*
G01*
X91098773Y-135079804D01*
X91122572Y-135085765D01*
X91145671Y-135094030D01*
X91167850Y-135104520D01*
X91188893Y-135117132D01*
X91208599Y-135131747D01*
X91226777Y-135148223D01*
X91243253Y-135166401D01*
X91257868Y-135186107D01*
X91270480Y-135207150D01*
X91280970Y-135229329D01*
X91289235Y-135252428D01*
X91295196Y-135276227D01*
X91298796Y-135300495D01*
X91300000Y-135324999D01*
X91300000Y-135975001D01*
X91298796Y-135999505D01*
X91295196Y-136023773D01*
X91289235Y-136047572D01*
X91280970Y-136070671D01*
X91270480Y-136092850D01*
X91257868Y-136113893D01*
X91243253Y-136133599D01*
X91226777Y-136151777D01*
X91208599Y-136168253D01*
X91188893Y-136182868D01*
X91167850Y-136195480D01*
X91145671Y-136205970D01*
X91122572Y-136214235D01*
X91098773Y-136220196D01*
X91074505Y-136223796D01*
X91050001Y-136225000D01*
X90149999Y-136225000D01*
X90125495Y-136223796D01*
X90101227Y-136220196D01*
X90077428Y-136214235D01*
X90054329Y-136205970D01*
X90032150Y-136195480D01*
X90011107Y-136182868D01*
X89991401Y-136168253D01*
X89973223Y-136151777D01*
X89956747Y-136133599D01*
X89942132Y-136113893D01*
X89929520Y-136092850D01*
X89919030Y-136070671D01*
X89910765Y-136047572D01*
X89904804Y-136023773D01*
X89901204Y-135999505D01*
X89900000Y-135975001D01*
X89900000Y-135324999D01*
X89901204Y-135300495D01*
X89904804Y-135276227D01*
X89910765Y-135252428D01*
X89919030Y-135229329D01*
X89929520Y-135207150D01*
X89942132Y-135186107D01*
X89956747Y-135166401D01*
X89973223Y-135148223D01*
X89991401Y-135131747D01*
X90011107Y-135117132D01*
X90032150Y-135104520D01*
X90054329Y-135094030D01*
X90077428Y-135085765D01*
X90101227Y-135079804D01*
X90125495Y-135076204D01*
X90149999Y-135075000D01*
X91050001Y-135075000D01*
X91074505Y-135076204D01*
G37*
G36*
X92999505Y-137001204D02*
G01*
X93023773Y-137004804D01*
X93047572Y-137010765D01*
X93070671Y-137019030D01*
X93092850Y-137029520D01*
X93113893Y-137042132D01*
X93133599Y-137056747D01*
X93151777Y-137073223D01*
X93168253Y-137091401D01*
X93182868Y-137111107D01*
X93195480Y-137132150D01*
X93205970Y-137154329D01*
X93214235Y-137177428D01*
X93220196Y-137201227D01*
X93223796Y-137225495D01*
X93225000Y-137249999D01*
X93225000Y-138150001D01*
X93223796Y-138174505D01*
X93220196Y-138198773D01*
X93214235Y-138222572D01*
X93205970Y-138245671D01*
X93195480Y-138267850D01*
X93182868Y-138288893D01*
X93168253Y-138308599D01*
X93151777Y-138326777D01*
X93133599Y-138343253D01*
X93113893Y-138357868D01*
X93092850Y-138370480D01*
X93070671Y-138380970D01*
X93047572Y-138389235D01*
X93023773Y-138395196D01*
X92999505Y-138398796D01*
X92975001Y-138400000D01*
X92324999Y-138400000D01*
X92300495Y-138398796D01*
X92276227Y-138395196D01*
X92252428Y-138389235D01*
X92229329Y-138380970D01*
X92207150Y-138370480D01*
X92186107Y-138357868D01*
X92166401Y-138343253D01*
X92148223Y-138326777D01*
X92131747Y-138308599D01*
X92117132Y-138288893D01*
X92104520Y-138267850D01*
X92094030Y-138245671D01*
X92085765Y-138222572D01*
X92079804Y-138198773D01*
X92076204Y-138174505D01*
X92075000Y-138150001D01*
X92075000Y-137249999D01*
X92076204Y-137225495D01*
X92079804Y-137201227D01*
X92085765Y-137177428D01*
X92094030Y-137154329D01*
X92104520Y-137132150D01*
X92117132Y-137111107D01*
X92131747Y-137091401D01*
X92148223Y-137073223D01*
X92166401Y-137056747D01*
X92186107Y-137042132D01*
X92207150Y-137029520D01*
X92229329Y-137019030D01*
X92252428Y-137010765D01*
X92276227Y-137004804D01*
X92300495Y-137001204D01*
X92324999Y-137000000D01*
X92975001Y-137000000D01*
X92999505Y-137001204D01*
G37*
G36*
X95049505Y-137001204D02*
G01*
X95073773Y-137004804D01*
X95097572Y-137010765D01*
X95120671Y-137019030D01*
X95142850Y-137029520D01*
X95163893Y-137042132D01*
X95183599Y-137056747D01*
X95201777Y-137073223D01*
X95218253Y-137091401D01*
X95232868Y-137111107D01*
X95245480Y-137132150D01*
X95255970Y-137154329D01*
X95264235Y-137177428D01*
X95270196Y-137201227D01*
X95273796Y-137225495D01*
X95275000Y-137249999D01*
X95275000Y-138150001D01*
X95273796Y-138174505D01*
X95270196Y-138198773D01*
X95264235Y-138222572D01*
X95255970Y-138245671D01*
X95245480Y-138267850D01*
X95232868Y-138288893D01*
X95218253Y-138308599D01*
X95201777Y-138326777D01*
X95183599Y-138343253D01*
X95163893Y-138357868D01*
X95142850Y-138370480D01*
X95120671Y-138380970D01*
X95097572Y-138389235D01*
X95073773Y-138395196D01*
X95049505Y-138398796D01*
X95025001Y-138400000D01*
X94374999Y-138400000D01*
X94350495Y-138398796D01*
X94326227Y-138395196D01*
X94302428Y-138389235D01*
X94279329Y-138380970D01*
X94257150Y-138370480D01*
X94236107Y-138357868D01*
X94216401Y-138343253D01*
X94198223Y-138326777D01*
X94181747Y-138308599D01*
X94167132Y-138288893D01*
X94154520Y-138267850D01*
X94144030Y-138245671D01*
X94135765Y-138222572D01*
X94129804Y-138198773D01*
X94126204Y-138174505D01*
X94125000Y-138150001D01*
X94125000Y-137249999D01*
X94126204Y-137225495D01*
X94129804Y-137201227D01*
X94135765Y-137177428D01*
X94144030Y-137154329D01*
X94154520Y-137132150D01*
X94167132Y-137111107D01*
X94181747Y-137091401D01*
X94198223Y-137073223D01*
X94216401Y-137056747D01*
X94236107Y-137042132D01*
X94257150Y-137029520D01*
X94279329Y-137019030D01*
X94302428Y-137010765D01*
X94326227Y-137004804D01*
X94350495Y-137001204D01*
X94374999Y-137000000D01*
X95025001Y-137000000D01*
X95049505Y-137001204D01*
G37*
G36*
X127799505Y-104701204D02*
G01*
X127823773Y-104704804D01*
X127847572Y-104710765D01*
X127870671Y-104719030D01*
X127892850Y-104729520D01*
X127913893Y-104742132D01*
X127933599Y-104756747D01*
X127951777Y-104773223D01*
X127968253Y-104791401D01*
X127982868Y-104811107D01*
X127995480Y-104832150D01*
X128005970Y-104854329D01*
X128014235Y-104877428D01*
X128020196Y-104901227D01*
X128023796Y-104925495D01*
X128025000Y-104949999D01*
X128025000Y-105850001D01*
X128023796Y-105874505D01*
X128020196Y-105898773D01*
X128014235Y-105922572D01*
X128005970Y-105945671D01*
X127995480Y-105967850D01*
X127982868Y-105988893D01*
X127968253Y-106008599D01*
X127951777Y-106026777D01*
X127933599Y-106043253D01*
X127913893Y-106057868D01*
X127892850Y-106070480D01*
X127870671Y-106080970D01*
X127847572Y-106089235D01*
X127823773Y-106095196D01*
X127799505Y-106098796D01*
X127775001Y-106100000D01*
X127124999Y-106100000D01*
X127100495Y-106098796D01*
X127076227Y-106095196D01*
X127052428Y-106089235D01*
X127029329Y-106080970D01*
X127007150Y-106070480D01*
X126986107Y-106057868D01*
X126966401Y-106043253D01*
X126948223Y-106026777D01*
X126931747Y-106008599D01*
X126917132Y-105988893D01*
X126904520Y-105967850D01*
X126894030Y-105945671D01*
X126885765Y-105922572D01*
X126879804Y-105898773D01*
X126876204Y-105874505D01*
X126875000Y-105850001D01*
X126875000Y-104949999D01*
X126876204Y-104925495D01*
X126879804Y-104901227D01*
X126885765Y-104877428D01*
X126894030Y-104854329D01*
X126904520Y-104832150D01*
X126917132Y-104811107D01*
X126931747Y-104791401D01*
X126948223Y-104773223D01*
X126966401Y-104756747D01*
X126986107Y-104742132D01*
X127007150Y-104729520D01*
X127029329Y-104719030D01*
X127052428Y-104710765D01*
X127076227Y-104704804D01*
X127100495Y-104701204D01*
X127124999Y-104700000D01*
X127775001Y-104700000D01*
X127799505Y-104701204D01*
G37*
G36*
X129849505Y-104701204D02*
G01*
X129873773Y-104704804D01*
X129897572Y-104710765D01*
X129920671Y-104719030D01*
X129942850Y-104729520D01*
X129963893Y-104742132D01*
X129983599Y-104756747D01*
X130001777Y-104773223D01*
X130018253Y-104791401D01*
X130032868Y-104811107D01*
X130045480Y-104832150D01*
X130055970Y-104854329D01*
X130064235Y-104877428D01*
X130070196Y-104901227D01*
X130073796Y-104925495D01*
X130075000Y-104949999D01*
X130075000Y-105850001D01*
X130073796Y-105874505D01*
X130070196Y-105898773D01*
X130064235Y-105922572D01*
X130055970Y-105945671D01*
X130045480Y-105967850D01*
X130032868Y-105988893D01*
X130018253Y-106008599D01*
X130001777Y-106026777D01*
X129983599Y-106043253D01*
X129963893Y-106057868D01*
X129942850Y-106070480D01*
X129920671Y-106080970D01*
X129897572Y-106089235D01*
X129873773Y-106095196D01*
X129849505Y-106098796D01*
X129825001Y-106100000D01*
X129174999Y-106100000D01*
X129150495Y-106098796D01*
X129126227Y-106095196D01*
X129102428Y-106089235D01*
X129079329Y-106080970D01*
X129057150Y-106070480D01*
X129036107Y-106057868D01*
X129016401Y-106043253D01*
X128998223Y-106026777D01*
X128981747Y-106008599D01*
X128967132Y-105988893D01*
X128954520Y-105967850D01*
X128944030Y-105945671D01*
X128935765Y-105922572D01*
X128929804Y-105898773D01*
X128926204Y-105874505D01*
X128925000Y-105850001D01*
X128925000Y-104949999D01*
X128926204Y-104925495D01*
X128929804Y-104901227D01*
X128935765Y-104877428D01*
X128944030Y-104854329D01*
X128954520Y-104832150D01*
X128967132Y-104811107D01*
X128981747Y-104791401D01*
X128998223Y-104773223D01*
X129016401Y-104756747D01*
X129036107Y-104742132D01*
X129057150Y-104729520D01*
X129079329Y-104719030D01*
X129102428Y-104710765D01*
X129126227Y-104704804D01*
X129150495Y-104701204D01*
X129174999Y-104700000D01*
X129825001Y-104700000D01*
X129849505Y-104701204D01*
G37*
D12*
X118600000Y-98900000D03*
X114600000Y-98900000D03*
D13*
X93250000Y-141300000D03*
X90300000Y-141300000D03*
D14*
X91775000Y-142800000D03*
X91775000Y-139800000D03*
D10*
G36*
X91874505Y-97376204D02*
G01*
X91898773Y-97379804D01*
X91922572Y-97385765D01*
X91945671Y-97394030D01*
X91967850Y-97404520D01*
X91988893Y-97417132D01*
X92008599Y-97431747D01*
X92026777Y-97448223D01*
X92043253Y-97466401D01*
X92057868Y-97486107D01*
X92070480Y-97507150D01*
X92080970Y-97529329D01*
X92089235Y-97552428D01*
X92095196Y-97576227D01*
X92098796Y-97600495D01*
X92100000Y-97624999D01*
X92100000Y-98275001D01*
X92098796Y-98299505D01*
X92095196Y-98323773D01*
X92089235Y-98347572D01*
X92080970Y-98370671D01*
X92070480Y-98392850D01*
X92057868Y-98413893D01*
X92043253Y-98433599D01*
X92026777Y-98451777D01*
X92008599Y-98468253D01*
X91988893Y-98482868D01*
X91967850Y-98495480D01*
X91945671Y-98505970D01*
X91922572Y-98514235D01*
X91898773Y-98520196D01*
X91874505Y-98523796D01*
X91850001Y-98525000D01*
X90949999Y-98525000D01*
X90925495Y-98523796D01*
X90901227Y-98520196D01*
X90877428Y-98514235D01*
X90854329Y-98505970D01*
X90832150Y-98495480D01*
X90811107Y-98482868D01*
X90791401Y-98468253D01*
X90773223Y-98451777D01*
X90756747Y-98433599D01*
X90742132Y-98413893D01*
X90729520Y-98392850D01*
X90719030Y-98370671D01*
X90710765Y-98347572D01*
X90704804Y-98323773D01*
X90701204Y-98299505D01*
X90700000Y-98275001D01*
X90700000Y-97624999D01*
X90701204Y-97600495D01*
X90704804Y-97576227D01*
X90710765Y-97552428D01*
X90719030Y-97529329D01*
X90729520Y-97507150D01*
X90742132Y-97486107D01*
X90756747Y-97466401D01*
X90773223Y-97448223D01*
X90791401Y-97431747D01*
X90811107Y-97417132D01*
X90832150Y-97404520D01*
X90854329Y-97394030D01*
X90877428Y-97385765D01*
X90901227Y-97379804D01*
X90925495Y-97376204D01*
X90949999Y-97375000D01*
X91850001Y-97375000D01*
X91874505Y-97376204D01*
G37*
G36*
X91874505Y-99426204D02*
G01*
X91898773Y-99429804D01*
X91922572Y-99435765D01*
X91945671Y-99444030D01*
X91967850Y-99454520D01*
X91988893Y-99467132D01*
X92008599Y-99481747D01*
X92026777Y-99498223D01*
X92043253Y-99516401D01*
X92057868Y-99536107D01*
X92070480Y-99557150D01*
X92080970Y-99579329D01*
X92089235Y-99602428D01*
X92095196Y-99626227D01*
X92098796Y-99650495D01*
X92100000Y-99674999D01*
X92100000Y-100325001D01*
X92098796Y-100349505D01*
X92095196Y-100373773D01*
X92089235Y-100397572D01*
X92080970Y-100420671D01*
X92070480Y-100442850D01*
X92057868Y-100463893D01*
X92043253Y-100483599D01*
X92026777Y-100501777D01*
X92008599Y-100518253D01*
X91988893Y-100532868D01*
X91967850Y-100545480D01*
X91945671Y-100555970D01*
X91922572Y-100564235D01*
X91898773Y-100570196D01*
X91874505Y-100573796D01*
X91850001Y-100575000D01*
X90949999Y-100575000D01*
X90925495Y-100573796D01*
X90901227Y-100570196D01*
X90877428Y-100564235D01*
X90854329Y-100555970D01*
X90832150Y-100545480D01*
X90811107Y-100532868D01*
X90791401Y-100518253D01*
X90773223Y-100501777D01*
X90756747Y-100483599D01*
X90742132Y-100463893D01*
X90729520Y-100442850D01*
X90719030Y-100420671D01*
X90710765Y-100397572D01*
X90704804Y-100373773D01*
X90701204Y-100349505D01*
X90700000Y-100325001D01*
X90700000Y-99674999D01*
X90701204Y-99650495D01*
X90704804Y-99626227D01*
X90710765Y-99602428D01*
X90719030Y-99579329D01*
X90729520Y-99557150D01*
X90742132Y-99536107D01*
X90756747Y-99516401D01*
X90773223Y-99498223D01*
X90791401Y-99481747D01*
X90811107Y-99467132D01*
X90832150Y-99454520D01*
X90854329Y-99444030D01*
X90877428Y-99435765D01*
X90901227Y-99429804D01*
X90925495Y-99426204D01*
X90949999Y-99425000D01*
X91850001Y-99425000D01*
X91874505Y-99426204D01*
G37*
G36*
X93899505Y-101101204D02*
G01*
X93923773Y-101104804D01*
X93947572Y-101110765D01*
X93970671Y-101119030D01*
X93992850Y-101129520D01*
X94013893Y-101142132D01*
X94033599Y-101156747D01*
X94051777Y-101173223D01*
X94068253Y-101191401D01*
X94082868Y-101211107D01*
X94095480Y-101232150D01*
X94105970Y-101254329D01*
X94114235Y-101277428D01*
X94120196Y-101301227D01*
X94123796Y-101325495D01*
X94125000Y-101349999D01*
X94125000Y-102250001D01*
X94123796Y-102274505D01*
X94120196Y-102298773D01*
X94114235Y-102322572D01*
X94105970Y-102345671D01*
X94095480Y-102367850D01*
X94082868Y-102388893D01*
X94068253Y-102408599D01*
X94051777Y-102426777D01*
X94033599Y-102443253D01*
X94013893Y-102457868D01*
X93992850Y-102470480D01*
X93970671Y-102480970D01*
X93947572Y-102489235D01*
X93923773Y-102495196D01*
X93899505Y-102498796D01*
X93875001Y-102500000D01*
X93224999Y-102500000D01*
X93200495Y-102498796D01*
X93176227Y-102495196D01*
X93152428Y-102489235D01*
X93129329Y-102480970D01*
X93107150Y-102470480D01*
X93086107Y-102457868D01*
X93066401Y-102443253D01*
X93048223Y-102426777D01*
X93031747Y-102408599D01*
X93017132Y-102388893D01*
X93004520Y-102367850D01*
X92994030Y-102345671D01*
X92985765Y-102322572D01*
X92979804Y-102298773D01*
X92976204Y-102274505D01*
X92975000Y-102250001D01*
X92975000Y-101349999D01*
X92976204Y-101325495D01*
X92979804Y-101301227D01*
X92985765Y-101277428D01*
X92994030Y-101254329D01*
X93004520Y-101232150D01*
X93017132Y-101211107D01*
X93031747Y-101191401D01*
X93048223Y-101173223D01*
X93066401Y-101156747D01*
X93086107Y-101142132D01*
X93107150Y-101129520D01*
X93129329Y-101119030D01*
X93152428Y-101110765D01*
X93176227Y-101104804D01*
X93200495Y-101101204D01*
X93224999Y-101100000D01*
X93875001Y-101100000D01*
X93899505Y-101101204D01*
G37*
G36*
X95949505Y-101101204D02*
G01*
X95973773Y-101104804D01*
X95997572Y-101110765D01*
X96020671Y-101119030D01*
X96042850Y-101129520D01*
X96063893Y-101142132D01*
X96083599Y-101156747D01*
X96101777Y-101173223D01*
X96118253Y-101191401D01*
X96132868Y-101211107D01*
X96145480Y-101232150D01*
X96155970Y-101254329D01*
X96164235Y-101277428D01*
X96170196Y-101301227D01*
X96173796Y-101325495D01*
X96175000Y-101349999D01*
X96175000Y-102250001D01*
X96173796Y-102274505D01*
X96170196Y-102298773D01*
X96164235Y-102322572D01*
X96155970Y-102345671D01*
X96145480Y-102367850D01*
X96132868Y-102388893D01*
X96118253Y-102408599D01*
X96101777Y-102426777D01*
X96083599Y-102443253D01*
X96063893Y-102457868D01*
X96042850Y-102470480D01*
X96020671Y-102480970D01*
X95997572Y-102489235D01*
X95973773Y-102495196D01*
X95949505Y-102498796D01*
X95925001Y-102500000D01*
X95274999Y-102500000D01*
X95250495Y-102498796D01*
X95226227Y-102495196D01*
X95202428Y-102489235D01*
X95179329Y-102480970D01*
X95157150Y-102470480D01*
X95136107Y-102457868D01*
X95116401Y-102443253D01*
X95098223Y-102426777D01*
X95081747Y-102408599D01*
X95067132Y-102388893D01*
X95054520Y-102367850D01*
X95044030Y-102345671D01*
X95035765Y-102322572D01*
X95029804Y-102298773D01*
X95026204Y-102274505D01*
X95025000Y-102250001D01*
X95025000Y-101349999D01*
X95026204Y-101325495D01*
X95029804Y-101301227D01*
X95035765Y-101277428D01*
X95044030Y-101254329D01*
X95054520Y-101232150D01*
X95067132Y-101211107D01*
X95081747Y-101191401D01*
X95098223Y-101173223D01*
X95116401Y-101156747D01*
X95136107Y-101142132D01*
X95157150Y-101129520D01*
X95179329Y-101119030D01*
X95202428Y-101110765D01*
X95226227Y-101104804D01*
X95250495Y-101101204D01*
X95274999Y-101100000D01*
X95925001Y-101100000D01*
X95949505Y-101101204D01*
G37*
G36*
X142574505Y-100776204D02*
G01*
X142598773Y-100779804D01*
X142622572Y-100785765D01*
X142645671Y-100794030D01*
X142667850Y-100804520D01*
X142688893Y-100817132D01*
X142708599Y-100831747D01*
X142726777Y-100848223D01*
X142743253Y-100866401D01*
X142757868Y-100886107D01*
X142770480Y-100907150D01*
X142780970Y-100929329D01*
X142789235Y-100952428D01*
X142795196Y-100976227D01*
X142798796Y-101000495D01*
X142800000Y-101024999D01*
X142800000Y-101675001D01*
X142798796Y-101699505D01*
X142795196Y-101723773D01*
X142789235Y-101747572D01*
X142780970Y-101770671D01*
X142770480Y-101792850D01*
X142757868Y-101813893D01*
X142743253Y-101833599D01*
X142726777Y-101851777D01*
X142708599Y-101868253D01*
X142688893Y-101882868D01*
X142667850Y-101895480D01*
X142645671Y-101905970D01*
X142622572Y-101914235D01*
X142598773Y-101920196D01*
X142574505Y-101923796D01*
X142550001Y-101925000D01*
X141649999Y-101925000D01*
X141625495Y-101923796D01*
X141601227Y-101920196D01*
X141577428Y-101914235D01*
X141554329Y-101905970D01*
X141532150Y-101895480D01*
X141511107Y-101882868D01*
X141491401Y-101868253D01*
X141473223Y-101851777D01*
X141456747Y-101833599D01*
X141442132Y-101813893D01*
X141429520Y-101792850D01*
X141419030Y-101770671D01*
X141410765Y-101747572D01*
X141404804Y-101723773D01*
X141401204Y-101699505D01*
X141400000Y-101675001D01*
X141400000Y-101024999D01*
X141401204Y-101000495D01*
X141404804Y-100976227D01*
X141410765Y-100952428D01*
X141419030Y-100929329D01*
X141429520Y-100907150D01*
X141442132Y-100886107D01*
X141456747Y-100866401D01*
X141473223Y-100848223D01*
X141491401Y-100831747D01*
X141511107Y-100817132D01*
X141532150Y-100804520D01*
X141554329Y-100794030D01*
X141577428Y-100785765D01*
X141601227Y-100779804D01*
X141625495Y-100776204D01*
X141649999Y-100775000D01*
X142550001Y-100775000D01*
X142574505Y-100776204D01*
G37*
G36*
X142574505Y-102826204D02*
G01*
X142598773Y-102829804D01*
X142622572Y-102835765D01*
X142645671Y-102844030D01*
X142667850Y-102854520D01*
X142688893Y-102867132D01*
X142708599Y-102881747D01*
X142726777Y-102898223D01*
X142743253Y-102916401D01*
X142757868Y-102936107D01*
X142770480Y-102957150D01*
X142780970Y-102979329D01*
X142789235Y-103002428D01*
X142795196Y-103026227D01*
X142798796Y-103050495D01*
X142800000Y-103074999D01*
X142800000Y-103725001D01*
X142798796Y-103749505D01*
X142795196Y-103773773D01*
X142789235Y-103797572D01*
X142780970Y-103820671D01*
X142770480Y-103842850D01*
X142757868Y-103863893D01*
X142743253Y-103883599D01*
X142726777Y-103901777D01*
X142708599Y-103918253D01*
X142688893Y-103932868D01*
X142667850Y-103945480D01*
X142645671Y-103955970D01*
X142622572Y-103964235D01*
X142598773Y-103970196D01*
X142574505Y-103973796D01*
X142550001Y-103975000D01*
X141649999Y-103975000D01*
X141625495Y-103973796D01*
X141601227Y-103970196D01*
X141577428Y-103964235D01*
X141554329Y-103955970D01*
X141532150Y-103945480D01*
X141511107Y-103932868D01*
X141491401Y-103918253D01*
X141473223Y-103901777D01*
X141456747Y-103883599D01*
X141442132Y-103863893D01*
X141429520Y-103842850D01*
X141419030Y-103820671D01*
X141410765Y-103797572D01*
X141404804Y-103773773D01*
X141401204Y-103749505D01*
X141400000Y-103725001D01*
X141400000Y-103074999D01*
X141401204Y-103050495D01*
X141404804Y-103026227D01*
X141410765Y-103002428D01*
X141419030Y-102979329D01*
X141429520Y-102957150D01*
X141442132Y-102936107D01*
X141456747Y-102916401D01*
X141473223Y-102898223D01*
X141491401Y-102881747D01*
X141511107Y-102867132D01*
X141532150Y-102854520D01*
X141554329Y-102844030D01*
X141577428Y-102835765D01*
X141601227Y-102829804D01*
X141625495Y-102826204D01*
X141649999Y-102825000D01*
X142550001Y-102825000D01*
X142574505Y-102826204D01*
G37*
G36*
X85674505Y-135126204D02*
G01*
X85698773Y-135129804D01*
X85722572Y-135135765D01*
X85745671Y-135144030D01*
X85767850Y-135154520D01*
X85788893Y-135167132D01*
X85808599Y-135181747D01*
X85826777Y-135198223D01*
X85843253Y-135216401D01*
X85857868Y-135236107D01*
X85870480Y-135257150D01*
X85880970Y-135279329D01*
X85889235Y-135302428D01*
X85895196Y-135326227D01*
X85898796Y-135350495D01*
X85900000Y-135374999D01*
X85900000Y-136025001D01*
X85898796Y-136049505D01*
X85895196Y-136073773D01*
X85889235Y-136097572D01*
X85880970Y-136120671D01*
X85870480Y-136142850D01*
X85857868Y-136163893D01*
X85843253Y-136183599D01*
X85826777Y-136201777D01*
X85808599Y-136218253D01*
X85788893Y-136232868D01*
X85767850Y-136245480D01*
X85745671Y-136255970D01*
X85722572Y-136264235D01*
X85698773Y-136270196D01*
X85674505Y-136273796D01*
X85650001Y-136275000D01*
X84749999Y-136275000D01*
X84725495Y-136273796D01*
X84701227Y-136270196D01*
X84677428Y-136264235D01*
X84654329Y-136255970D01*
X84632150Y-136245480D01*
X84611107Y-136232868D01*
X84591401Y-136218253D01*
X84573223Y-136201777D01*
X84556747Y-136183599D01*
X84542132Y-136163893D01*
X84529520Y-136142850D01*
X84519030Y-136120671D01*
X84510765Y-136097572D01*
X84504804Y-136073773D01*
X84501204Y-136049505D01*
X84500000Y-136025001D01*
X84500000Y-135374999D01*
X84501204Y-135350495D01*
X84504804Y-135326227D01*
X84510765Y-135302428D01*
X84519030Y-135279329D01*
X84529520Y-135257150D01*
X84542132Y-135236107D01*
X84556747Y-135216401D01*
X84573223Y-135198223D01*
X84591401Y-135181747D01*
X84611107Y-135167132D01*
X84632150Y-135154520D01*
X84654329Y-135144030D01*
X84677428Y-135135765D01*
X84701227Y-135129804D01*
X84725495Y-135126204D01*
X84749999Y-135125000D01*
X85650001Y-135125000D01*
X85674505Y-135126204D01*
G37*
G36*
X85674505Y-137176204D02*
G01*
X85698773Y-137179804D01*
X85722572Y-137185765D01*
X85745671Y-137194030D01*
X85767850Y-137204520D01*
X85788893Y-137217132D01*
X85808599Y-137231747D01*
X85826777Y-137248223D01*
X85843253Y-137266401D01*
X85857868Y-137286107D01*
X85870480Y-137307150D01*
X85880970Y-137329329D01*
X85889235Y-137352428D01*
X85895196Y-137376227D01*
X85898796Y-137400495D01*
X85900000Y-137424999D01*
X85900000Y-138075001D01*
X85898796Y-138099505D01*
X85895196Y-138123773D01*
X85889235Y-138147572D01*
X85880970Y-138170671D01*
X85870480Y-138192850D01*
X85857868Y-138213893D01*
X85843253Y-138233599D01*
X85826777Y-138251777D01*
X85808599Y-138268253D01*
X85788893Y-138282868D01*
X85767850Y-138295480D01*
X85745671Y-138305970D01*
X85722572Y-138314235D01*
X85698773Y-138320196D01*
X85674505Y-138323796D01*
X85650001Y-138325000D01*
X84749999Y-138325000D01*
X84725495Y-138323796D01*
X84701227Y-138320196D01*
X84677428Y-138314235D01*
X84654329Y-138305970D01*
X84632150Y-138295480D01*
X84611107Y-138282868D01*
X84591401Y-138268253D01*
X84573223Y-138251777D01*
X84556747Y-138233599D01*
X84542132Y-138213893D01*
X84529520Y-138192850D01*
X84519030Y-138170671D01*
X84510765Y-138147572D01*
X84504804Y-138123773D01*
X84501204Y-138099505D01*
X84500000Y-138075001D01*
X84500000Y-137424999D01*
X84501204Y-137400495D01*
X84504804Y-137376227D01*
X84510765Y-137352428D01*
X84519030Y-137329329D01*
X84529520Y-137307150D01*
X84542132Y-137286107D01*
X84556747Y-137266401D01*
X84573223Y-137248223D01*
X84591401Y-137231747D01*
X84611107Y-137217132D01*
X84632150Y-137204520D01*
X84654329Y-137194030D01*
X84677428Y-137185765D01*
X84701227Y-137179804D01*
X84725495Y-137176204D01*
X84749999Y-137175000D01*
X85650001Y-137175000D01*
X85674505Y-137176204D01*
G37*
G36*
X62249505Y-116801204D02*
G01*
X62273773Y-116804804D01*
X62297572Y-116810765D01*
X62320671Y-116819030D01*
X62342850Y-116829520D01*
X62363893Y-116842132D01*
X62383599Y-116856747D01*
X62401777Y-116873223D01*
X62418253Y-116891401D01*
X62432868Y-116911107D01*
X62445480Y-116932150D01*
X62455970Y-116954329D01*
X62464235Y-116977428D01*
X62470196Y-117001227D01*
X62473796Y-117025495D01*
X62475000Y-117049999D01*
X62475000Y-117950001D01*
X62473796Y-117974505D01*
X62470196Y-117998773D01*
X62464235Y-118022572D01*
X62455970Y-118045671D01*
X62445480Y-118067850D01*
X62432868Y-118088893D01*
X62418253Y-118108599D01*
X62401777Y-118126777D01*
X62383599Y-118143253D01*
X62363893Y-118157868D01*
X62342850Y-118170480D01*
X62320671Y-118180970D01*
X62297572Y-118189235D01*
X62273773Y-118195196D01*
X62249505Y-118198796D01*
X62225001Y-118200000D01*
X61574999Y-118200000D01*
X61550495Y-118198796D01*
X61526227Y-118195196D01*
X61502428Y-118189235D01*
X61479329Y-118180970D01*
X61457150Y-118170480D01*
X61436107Y-118157868D01*
X61416401Y-118143253D01*
X61398223Y-118126777D01*
X61381747Y-118108599D01*
X61367132Y-118088893D01*
X61354520Y-118067850D01*
X61344030Y-118045671D01*
X61335765Y-118022572D01*
X61329804Y-117998773D01*
X61326204Y-117974505D01*
X61325000Y-117950001D01*
X61325000Y-117049999D01*
X61326204Y-117025495D01*
X61329804Y-117001227D01*
X61335765Y-116977428D01*
X61344030Y-116954329D01*
X61354520Y-116932150D01*
X61367132Y-116911107D01*
X61381747Y-116891401D01*
X61398223Y-116873223D01*
X61416401Y-116856747D01*
X61436107Y-116842132D01*
X61457150Y-116829520D01*
X61479329Y-116819030D01*
X61502428Y-116810765D01*
X61526227Y-116804804D01*
X61550495Y-116801204D01*
X61574999Y-116800000D01*
X62225001Y-116800000D01*
X62249505Y-116801204D01*
G37*
G36*
X64299505Y-116801204D02*
G01*
X64323773Y-116804804D01*
X64347572Y-116810765D01*
X64370671Y-116819030D01*
X64392850Y-116829520D01*
X64413893Y-116842132D01*
X64433599Y-116856747D01*
X64451777Y-116873223D01*
X64468253Y-116891401D01*
X64482868Y-116911107D01*
X64495480Y-116932150D01*
X64505970Y-116954329D01*
X64514235Y-116977428D01*
X64520196Y-117001227D01*
X64523796Y-117025495D01*
X64525000Y-117049999D01*
X64525000Y-117950001D01*
X64523796Y-117974505D01*
X64520196Y-117998773D01*
X64514235Y-118022572D01*
X64505970Y-118045671D01*
X64495480Y-118067850D01*
X64482868Y-118088893D01*
X64468253Y-118108599D01*
X64451777Y-118126777D01*
X64433599Y-118143253D01*
X64413893Y-118157868D01*
X64392850Y-118170480D01*
X64370671Y-118180970D01*
X64347572Y-118189235D01*
X64323773Y-118195196D01*
X64299505Y-118198796D01*
X64275001Y-118200000D01*
X63624999Y-118200000D01*
X63600495Y-118198796D01*
X63576227Y-118195196D01*
X63552428Y-118189235D01*
X63529329Y-118180970D01*
X63507150Y-118170480D01*
X63486107Y-118157868D01*
X63466401Y-118143253D01*
X63448223Y-118126777D01*
X63431747Y-118108599D01*
X63417132Y-118088893D01*
X63404520Y-118067850D01*
X63394030Y-118045671D01*
X63385765Y-118022572D01*
X63379804Y-117998773D01*
X63376204Y-117974505D01*
X63375000Y-117950001D01*
X63375000Y-117049999D01*
X63376204Y-117025495D01*
X63379804Y-117001227D01*
X63385765Y-116977428D01*
X63394030Y-116954329D01*
X63404520Y-116932150D01*
X63417132Y-116911107D01*
X63431747Y-116891401D01*
X63448223Y-116873223D01*
X63466401Y-116856747D01*
X63486107Y-116842132D01*
X63507150Y-116829520D01*
X63529329Y-116819030D01*
X63552428Y-116810765D01*
X63576227Y-116804804D01*
X63600495Y-116801204D01*
X63624999Y-116800000D01*
X64275001Y-116800000D01*
X64299505Y-116801204D01*
G37*
D11*
X77000000Y-144400000D03*
X77000000Y-139900000D03*
X84950000Y-139900000D03*
X84950000Y-144400000D03*
D15*
X122200000Y-104780000D03*
X122200000Y-99700000D03*
X125200000Y-102240000D03*
D10*
G36*
X99459703Y-141070722D02*
G01*
X99474264Y-141072882D01*
X99488543Y-141076459D01*
X99502403Y-141081418D01*
X99515710Y-141087712D01*
X99528336Y-141095280D01*
X99540159Y-141104048D01*
X99551066Y-141113934D01*
X99560952Y-141124841D01*
X99569720Y-141136664D01*
X99577288Y-141149290D01*
X99583582Y-141162597D01*
X99588541Y-141176457D01*
X99592118Y-141190736D01*
X99594278Y-141205297D01*
X99595000Y-141220000D01*
X99595000Y-141520000D01*
X99594278Y-141534703D01*
X99592118Y-141549264D01*
X99588541Y-141563543D01*
X99583582Y-141577403D01*
X99577288Y-141590710D01*
X99569720Y-141603336D01*
X99560952Y-141615159D01*
X99551066Y-141626066D01*
X99540159Y-141635952D01*
X99528336Y-141644720D01*
X99515710Y-141652288D01*
X99502403Y-141658582D01*
X99488543Y-141663541D01*
X99474264Y-141667118D01*
X99459703Y-141669278D01*
X99445000Y-141670000D01*
X97795000Y-141670000D01*
X97780297Y-141669278D01*
X97765736Y-141667118D01*
X97751457Y-141663541D01*
X97737597Y-141658582D01*
X97724290Y-141652288D01*
X97711664Y-141644720D01*
X97699841Y-141635952D01*
X97688934Y-141626066D01*
X97679048Y-141615159D01*
X97670280Y-141603336D01*
X97662712Y-141590710D01*
X97656418Y-141577403D01*
X97651459Y-141563543D01*
X97647882Y-141549264D01*
X97645722Y-141534703D01*
X97645000Y-141520000D01*
X97645000Y-141220000D01*
X97645722Y-141205297D01*
X97647882Y-141190736D01*
X97651459Y-141176457D01*
X97656418Y-141162597D01*
X97662712Y-141149290D01*
X97670280Y-141136664D01*
X97679048Y-141124841D01*
X97688934Y-141113934D01*
X97699841Y-141104048D01*
X97711664Y-141095280D01*
X97724290Y-141087712D01*
X97737597Y-141081418D01*
X97751457Y-141076459D01*
X97765736Y-141072882D01*
X97780297Y-141070722D01*
X97795000Y-141070000D01*
X99445000Y-141070000D01*
X99459703Y-141070722D01*
G37*
G36*
X99459703Y-142340722D02*
G01*
X99474264Y-142342882D01*
X99488543Y-142346459D01*
X99502403Y-142351418D01*
X99515710Y-142357712D01*
X99528336Y-142365280D01*
X99540159Y-142374048D01*
X99551066Y-142383934D01*
X99560952Y-142394841D01*
X99569720Y-142406664D01*
X99577288Y-142419290D01*
X99583582Y-142432597D01*
X99588541Y-142446457D01*
X99592118Y-142460736D01*
X99594278Y-142475297D01*
X99595000Y-142490000D01*
X99595000Y-142790000D01*
X99594278Y-142804703D01*
X99592118Y-142819264D01*
X99588541Y-142833543D01*
X99583582Y-142847403D01*
X99577288Y-142860710D01*
X99569720Y-142873336D01*
X99560952Y-142885159D01*
X99551066Y-142896066D01*
X99540159Y-142905952D01*
X99528336Y-142914720D01*
X99515710Y-142922288D01*
X99502403Y-142928582D01*
X99488543Y-142933541D01*
X99474264Y-142937118D01*
X99459703Y-142939278D01*
X99445000Y-142940000D01*
X97795000Y-142940000D01*
X97780297Y-142939278D01*
X97765736Y-142937118D01*
X97751457Y-142933541D01*
X97737597Y-142928582D01*
X97724290Y-142922288D01*
X97711664Y-142914720D01*
X97699841Y-142905952D01*
X97688934Y-142896066D01*
X97679048Y-142885159D01*
X97670280Y-142873336D01*
X97662712Y-142860710D01*
X97656418Y-142847403D01*
X97651459Y-142833543D01*
X97647882Y-142819264D01*
X97645722Y-142804703D01*
X97645000Y-142790000D01*
X97645000Y-142490000D01*
X97645722Y-142475297D01*
X97647882Y-142460736D01*
X97651459Y-142446457D01*
X97656418Y-142432597D01*
X97662712Y-142419290D01*
X97670280Y-142406664D01*
X97679048Y-142394841D01*
X97688934Y-142383934D01*
X97699841Y-142374048D01*
X97711664Y-142365280D01*
X97724290Y-142357712D01*
X97737597Y-142351418D01*
X97751457Y-142346459D01*
X97765736Y-142342882D01*
X97780297Y-142340722D01*
X97795000Y-142340000D01*
X99445000Y-142340000D01*
X99459703Y-142340722D01*
G37*
G36*
X99459703Y-143610722D02*
G01*
X99474264Y-143612882D01*
X99488543Y-143616459D01*
X99502403Y-143621418D01*
X99515710Y-143627712D01*
X99528336Y-143635280D01*
X99540159Y-143644048D01*
X99551066Y-143653934D01*
X99560952Y-143664841D01*
X99569720Y-143676664D01*
X99577288Y-143689290D01*
X99583582Y-143702597D01*
X99588541Y-143716457D01*
X99592118Y-143730736D01*
X99594278Y-143745297D01*
X99595000Y-143760000D01*
X99595000Y-144060000D01*
X99594278Y-144074703D01*
X99592118Y-144089264D01*
X99588541Y-144103543D01*
X99583582Y-144117403D01*
X99577288Y-144130710D01*
X99569720Y-144143336D01*
X99560952Y-144155159D01*
X99551066Y-144166066D01*
X99540159Y-144175952D01*
X99528336Y-144184720D01*
X99515710Y-144192288D01*
X99502403Y-144198582D01*
X99488543Y-144203541D01*
X99474264Y-144207118D01*
X99459703Y-144209278D01*
X99445000Y-144210000D01*
X97795000Y-144210000D01*
X97780297Y-144209278D01*
X97765736Y-144207118D01*
X97751457Y-144203541D01*
X97737597Y-144198582D01*
X97724290Y-144192288D01*
X97711664Y-144184720D01*
X97699841Y-144175952D01*
X97688934Y-144166066D01*
X97679048Y-144155159D01*
X97670280Y-144143336D01*
X97662712Y-144130710D01*
X97656418Y-144117403D01*
X97651459Y-144103543D01*
X97647882Y-144089264D01*
X97645722Y-144074703D01*
X97645000Y-144060000D01*
X97645000Y-143760000D01*
X97645722Y-143745297D01*
X97647882Y-143730736D01*
X97651459Y-143716457D01*
X97656418Y-143702597D01*
X97662712Y-143689290D01*
X97670280Y-143676664D01*
X97679048Y-143664841D01*
X97688934Y-143653934D01*
X97699841Y-143644048D01*
X97711664Y-143635280D01*
X97724290Y-143627712D01*
X97737597Y-143621418D01*
X97751457Y-143616459D01*
X97765736Y-143612882D01*
X97780297Y-143610722D01*
X97795000Y-143610000D01*
X99445000Y-143610000D01*
X99459703Y-143610722D01*
G37*
G36*
X99459703Y-144880722D02*
G01*
X99474264Y-144882882D01*
X99488543Y-144886459D01*
X99502403Y-144891418D01*
X99515710Y-144897712D01*
X99528336Y-144905280D01*
X99540159Y-144914048D01*
X99551066Y-144923934D01*
X99560952Y-144934841D01*
X99569720Y-144946664D01*
X99577288Y-144959290D01*
X99583582Y-144972597D01*
X99588541Y-144986457D01*
X99592118Y-145000736D01*
X99594278Y-145015297D01*
X99595000Y-145030000D01*
X99595000Y-145330000D01*
X99594278Y-145344703D01*
X99592118Y-145359264D01*
X99588541Y-145373543D01*
X99583582Y-145387403D01*
X99577288Y-145400710D01*
X99569720Y-145413336D01*
X99560952Y-145425159D01*
X99551066Y-145436066D01*
X99540159Y-145445952D01*
X99528336Y-145454720D01*
X99515710Y-145462288D01*
X99502403Y-145468582D01*
X99488543Y-145473541D01*
X99474264Y-145477118D01*
X99459703Y-145479278D01*
X99445000Y-145480000D01*
X97795000Y-145480000D01*
X97780297Y-145479278D01*
X97765736Y-145477118D01*
X97751457Y-145473541D01*
X97737597Y-145468582D01*
X97724290Y-145462288D01*
X97711664Y-145454720D01*
X97699841Y-145445952D01*
X97688934Y-145436066D01*
X97679048Y-145425159D01*
X97670280Y-145413336D01*
X97662712Y-145400710D01*
X97656418Y-145387403D01*
X97651459Y-145373543D01*
X97647882Y-145359264D01*
X97645722Y-145344703D01*
X97645000Y-145330000D01*
X97645000Y-145030000D01*
X97645722Y-145015297D01*
X97647882Y-145000736D01*
X97651459Y-144986457D01*
X97656418Y-144972597D01*
X97662712Y-144959290D01*
X97670280Y-144946664D01*
X97679048Y-144934841D01*
X97688934Y-144923934D01*
X97699841Y-144914048D01*
X97711664Y-144905280D01*
X97724290Y-144897712D01*
X97737597Y-144891418D01*
X97751457Y-144886459D01*
X97765736Y-144882882D01*
X97780297Y-144880722D01*
X97795000Y-144880000D01*
X99445000Y-144880000D01*
X99459703Y-144880722D01*
G37*
G36*
X104409703Y-144880722D02*
G01*
X104424264Y-144882882D01*
X104438543Y-144886459D01*
X104452403Y-144891418D01*
X104465710Y-144897712D01*
X104478336Y-144905280D01*
X104490159Y-144914048D01*
X104501066Y-144923934D01*
X104510952Y-144934841D01*
X104519720Y-144946664D01*
X104527288Y-144959290D01*
X104533582Y-144972597D01*
X104538541Y-144986457D01*
X104542118Y-145000736D01*
X104544278Y-145015297D01*
X104545000Y-145030000D01*
X104545000Y-145330000D01*
X104544278Y-145344703D01*
X104542118Y-145359264D01*
X104538541Y-145373543D01*
X104533582Y-145387403D01*
X104527288Y-145400710D01*
X104519720Y-145413336D01*
X104510952Y-145425159D01*
X104501066Y-145436066D01*
X104490159Y-145445952D01*
X104478336Y-145454720D01*
X104465710Y-145462288D01*
X104452403Y-145468582D01*
X104438543Y-145473541D01*
X104424264Y-145477118D01*
X104409703Y-145479278D01*
X104395000Y-145480000D01*
X102745000Y-145480000D01*
X102730297Y-145479278D01*
X102715736Y-145477118D01*
X102701457Y-145473541D01*
X102687597Y-145468582D01*
X102674290Y-145462288D01*
X102661664Y-145454720D01*
X102649841Y-145445952D01*
X102638934Y-145436066D01*
X102629048Y-145425159D01*
X102620280Y-145413336D01*
X102612712Y-145400710D01*
X102606418Y-145387403D01*
X102601459Y-145373543D01*
X102597882Y-145359264D01*
X102595722Y-145344703D01*
X102595000Y-145330000D01*
X102595000Y-145030000D01*
X102595722Y-145015297D01*
X102597882Y-145000736D01*
X102601459Y-144986457D01*
X102606418Y-144972597D01*
X102612712Y-144959290D01*
X102620280Y-144946664D01*
X102629048Y-144934841D01*
X102638934Y-144923934D01*
X102649841Y-144914048D01*
X102661664Y-144905280D01*
X102674290Y-144897712D01*
X102687597Y-144891418D01*
X102701457Y-144886459D01*
X102715736Y-144882882D01*
X102730297Y-144880722D01*
X102745000Y-144880000D01*
X104395000Y-144880000D01*
X104409703Y-144880722D01*
G37*
G36*
X104409703Y-143610722D02*
G01*
X104424264Y-143612882D01*
X104438543Y-143616459D01*
X104452403Y-143621418D01*
X104465710Y-143627712D01*
X104478336Y-143635280D01*
X104490159Y-143644048D01*
X104501066Y-143653934D01*
X104510952Y-143664841D01*
X104519720Y-143676664D01*
X104527288Y-143689290D01*
X104533582Y-143702597D01*
X104538541Y-143716457D01*
X104542118Y-143730736D01*
X104544278Y-143745297D01*
X104545000Y-143760000D01*
X104545000Y-144060000D01*
X104544278Y-144074703D01*
X104542118Y-144089264D01*
X104538541Y-144103543D01*
X104533582Y-144117403D01*
X104527288Y-144130710D01*
X104519720Y-144143336D01*
X104510952Y-144155159D01*
X104501066Y-144166066D01*
X104490159Y-144175952D01*
X104478336Y-144184720D01*
X104465710Y-144192288D01*
X104452403Y-144198582D01*
X104438543Y-144203541D01*
X104424264Y-144207118D01*
X104409703Y-144209278D01*
X104395000Y-144210000D01*
X102745000Y-144210000D01*
X102730297Y-144209278D01*
X102715736Y-144207118D01*
X102701457Y-144203541D01*
X102687597Y-144198582D01*
X102674290Y-144192288D01*
X102661664Y-144184720D01*
X102649841Y-144175952D01*
X102638934Y-144166066D01*
X102629048Y-144155159D01*
X102620280Y-144143336D01*
X102612712Y-144130710D01*
X102606418Y-144117403D01*
X102601459Y-144103543D01*
X102597882Y-144089264D01*
X102595722Y-144074703D01*
X102595000Y-144060000D01*
X102595000Y-143760000D01*
X102595722Y-143745297D01*
X102597882Y-143730736D01*
X102601459Y-143716457D01*
X102606418Y-143702597D01*
X102612712Y-143689290D01*
X102620280Y-143676664D01*
X102629048Y-143664841D01*
X102638934Y-143653934D01*
X102649841Y-143644048D01*
X102661664Y-143635280D01*
X102674290Y-143627712D01*
X102687597Y-143621418D01*
X102701457Y-143616459D01*
X102715736Y-143612882D01*
X102730297Y-143610722D01*
X102745000Y-143610000D01*
X104395000Y-143610000D01*
X104409703Y-143610722D01*
G37*
G36*
X104409703Y-142340722D02*
G01*
X104424264Y-142342882D01*
X104438543Y-142346459D01*
X104452403Y-142351418D01*
X104465710Y-142357712D01*
X104478336Y-142365280D01*
X104490159Y-142374048D01*
X104501066Y-142383934D01*
X104510952Y-142394841D01*
X104519720Y-142406664D01*
X104527288Y-142419290D01*
X104533582Y-142432597D01*
X104538541Y-142446457D01*
X104542118Y-142460736D01*
X104544278Y-142475297D01*
X104545000Y-142490000D01*
X104545000Y-142790000D01*
X104544278Y-142804703D01*
X104542118Y-142819264D01*
X104538541Y-142833543D01*
X104533582Y-142847403D01*
X104527288Y-142860710D01*
X104519720Y-142873336D01*
X104510952Y-142885159D01*
X104501066Y-142896066D01*
X104490159Y-142905952D01*
X104478336Y-142914720D01*
X104465710Y-142922288D01*
X104452403Y-142928582D01*
X104438543Y-142933541D01*
X104424264Y-142937118D01*
X104409703Y-142939278D01*
X104395000Y-142940000D01*
X102745000Y-142940000D01*
X102730297Y-142939278D01*
X102715736Y-142937118D01*
X102701457Y-142933541D01*
X102687597Y-142928582D01*
X102674290Y-142922288D01*
X102661664Y-142914720D01*
X102649841Y-142905952D01*
X102638934Y-142896066D01*
X102629048Y-142885159D01*
X102620280Y-142873336D01*
X102612712Y-142860710D01*
X102606418Y-142847403D01*
X102601459Y-142833543D01*
X102597882Y-142819264D01*
X102595722Y-142804703D01*
X102595000Y-142790000D01*
X102595000Y-142490000D01*
X102595722Y-142475297D01*
X102597882Y-142460736D01*
X102601459Y-142446457D01*
X102606418Y-142432597D01*
X102612712Y-142419290D01*
X102620280Y-142406664D01*
X102629048Y-142394841D01*
X102638934Y-142383934D01*
X102649841Y-142374048D01*
X102661664Y-142365280D01*
X102674290Y-142357712D01*
X102687597Y-142351418D01*
X102701457Y-142346459D01*
X102715736Y-142342882D01*
X102730297Y-142340722D01*
X102745000Y-142340000D01*
X104395000Y-142340000D01*
X104409703Y-142340722D01*
G37*
G36*
X104409703Y-141070722D02*
G01*
X104424264Y-141072882D01*
X104438543Y-141076459D01*
X104452403Y-141081418D01*
X104465710Y-141087712D01*
X104478336Y-141095280D01*
X104490159Y-141104048D01*
X104501066Y-141113934D01*
X104510952Y-141124841D01*
X104519720Y-141136664D01*
X104527288Y-141149290D01*
X104533582Y-141162597D01*
X104538541Y-141176457D01*
X104542118Y-141190736D01*
X104544278Y-141205297D01*
X104545000Y-141220000D01*
X104545000Y-141520000D01*
X104544278Y-141534703D01*
X104542118Y-141549264D01*
X104538541Y-141563543D01*
X104533582Y-141577403D01*
X104527288Y-141590710D01*
X104519720Y-141603336D01*
X104510952Y-141615159D01*
X104501066Y-141626066D01*
X104490159Y-141635952D01*
X104478336Y-141644720D01*
X104465710Y-141652288D01*
X104452403Y-141658582D01*
X104438543Y-141663541D01*
X104424264Y-141667118D01*
X104409703Y-141669278D01*
X104395000Y-141670000D01*
X102745000Y-141670000D01*
X102730297Y-141669278D01*
X102715736Y-141667118D01*
X102701457Y-141663541D01*
X102687597Y-141658582D01*
X102674290Y-141652288D01*
X102661664Y-141644720D01*
X102649841Y-141635952D01*
X102638934Y-141626066D01*
X102629048Y-141615159D01*
X102620280Y-141603336D01*
X102612712Y-141590710D01*
X102606418Y-141577403D01*
X102601459Y-141563543D01*
X102597882Y-141549264D01*
X102595722Y-141534703D01*
X102595000Y-141520000D01*
X102595000Y-141220000D01*
X102595722Y-141205297D01*
X102597882Y-141190736D01*
X102601459Y-141176457D01*
X102606418Y-141162597D01*
X102612712Y-141149290D01*
X102620280Y-141136664D01*
X102629048Y-141124841D01*
X102638934Y-141113934D01*
X102649841Y-141104048D01*
X102661664Y-141095280D01*
X102674290Y-141087712D01*
X102687597Y-141081418D01*
X102701457Y-141076459D01*
X102715736Y-141072882D01*
X102730297Y-141070722D01*
X102745000Y-141070000D01*
X104395000Y-141070000D01*
X104409703Y-141070722D01*
G37*
D16*
X85300000Y-101500000D03*
X83400000Y-101500000D03*
X83400000Y-98080000D03*
X84350000Y-98080000D03*
X85300000Y-98080000D03*
D17*
X128850000Y-98000000D03*
X127900000Y-98000000D03*
X126950000Y-98000000D03*
X126950000Y-100200000D03*
X128850000Y-100200000D03*
D18*
X97410000Y-99850000D03*
X97410000Y-98900000D03*
X97410000Y-97950000D03*
X93990000Y-97950000D03*
X93990000Y-99850000D03*
D10*
G36*
X144399505Y-141101204D02*
G01*
X144423773Y-141104804D01*
X144447572Y-141110765D01*
X144470671Y-141119030D01*
X144492850Y-141129520D01*
X144513893Y-141142132D01*
X144533599Y-141156747D01*
X144551777Y-141173223D01*
X144568253Y-141191401D01*
X144582868Y-141211107D01*
X144595480Y-141232150D01*
X144605970Y-141254329D01*
X144614235Y-141277428D01*
X144620196Y-141301227D01*
X144623796Y-141325495D01*
X144625000Y-141349999D01*
X144625000Y-142250001D01*
X144623796Y-142274505D01*
X144620196Y-142298773D01*
X144614235Y-142322572D01*
X144605970Y-142345671D01*
X144595480Y-142367850D01*
X144582868Y-142388893D01*
X144568253Y-142408599D01*
X144551777Y-142426777D01*
X144533599Y-142443253D01*
X144513893Y-142457868D01*
X144492850Y-142470480D01*
X144470671Y-142480970D01*
X144447572Y-142489235D01*
X144423773Y-142495196D01*
X144399505Y-142498796D01*
X144375001Y-142500000D01*
X143724999Y-142500000D01*
X143700495Y-142498796D01*
X143676227Y-142495196D01*
X143652428Y-142489235D01*
X143629329Y-142480970D01*
X143607150Y-142470480D01*
X143586107Y-142457868D01*
X143566401Y-142443253D01*
X143548223Y-142426777D01*
X143531747Y-142408599D01*
X143517132Y-142388893D01*
X143504520Y-142367850D01*
X143494030Y-142345671D01*
X143485765Y-142322572D01*
X143479804Y-142298773D01*
X143476204Y-142274505D01*
X143475000Y-142250001D01*
X143475000Y-141349999D01*
X143476204Y-141325495D01*
X143479804Y-141301227D01*
X143485765Y-141277428D01*
X143494030Y-141254329D01*
X143504520Y-141232150D01*
X143517132Y-141211107D01*
X143531747Y-141191401D01*
X143548223Y-141173223D01*
X143566401Y-141156747D01*
X143586107Y-141142132D01*
X143607150Y-141129520D01*
X143629329Y-141119030D01*
X143652428Y-141110765D01*
X143676227Y-141104804D01*
X143700495Y-141101204D01*
X143724999Y-141100000D01*
X144375001Y-141100000D01*
X144399505Y-141101204D01*
G37*
G36*
X142349505Y-141101204D02*
G01*
X142373773Y-141104804D01*
X142397572Y-141110765D01*
X142420671Y-141119030D01*
X142442850Y-141129520D01*
X142463893Y-141142132D01*
X142483599Y-141156747D01*
X142501777Y-141173223D01*
X142518253Y-141191401D01*
X142532868Y-141211107D01*
X142545480Y-141232150D01*
X142555970Y-141254329D01*
X142564235Y-141277428D01*
X142570196Y-141301227D01*
X142573796Y-141325495D01*
X142575000Y-141349999D01*
X142575000Y-142250001D01*
X142573796Y-142274505D01*
X142570196Y-142298773D01*
X142564235Y-142322572D01*
X142555970Y-142345671D01*
X142545480Y-142367850D01*
X142532868Y-142388893D01*
X142518253Y-142408599D01*
X142501777Y-142426777D01*
X142483599Y-142443253D01*
X142463893Y-142457868D01*
X142442850Y-142470480D01*
X142420671Y-142480970D01*
X142397572Y-142489235D01*
X142373773Y-142495196D01*
X142349505Y-142498796D01*
X142325001Y-142500000D01*
X141674999Y-142500000D01*
X141650495Y-142498796D01*
X141626227Y-142495196D01*
X141602428Y-142489235D01*
X141579329Y-142480970D01*
X141557150Y-142470480D01*
X141536107Y-142457868D01*
X141516401Y-142443253D01*
X141498223Y-142426777D01*
X141481747Y-142408599D01*
X141467132Y-142388893D01*
X141454520Y-142367850D01*
X141444030Y-142345671D01*
X141435765Y-142322572D01*
X141429804Y-142298773D01*
X141426204Y-142274505D01*
X141425000Y-142250001D01*
X141425000Y-141349999D01*
X141426204Y-141325495D01*
X141429804Y-141301227D01*
X141435765Y-141277428D01*
X141444030Y-141254329D01*
X141454520Y-141232150D01*
X141467132Y-141211107D01*
X141481747Y-141191401D01*
X141498223Y-141173223D01*
X141516401Y-141156747D01*
X141536107Y-141142132D01*
X141557150Y-141129520D01*
X141579329Y-141119030D01*
X141602428Y-141110765D01*
X141626227Y-141104804D01*
X141650495Y-141101204D01*
X141674999Y-141100000D01*
X142325001Y-141100000D01*
X142349505Y-141101204D01*
G37*
G36*
X106374505Y-111201204D02*
G01*
X106398773Y-111204804D01*
X106422572Y-111210765D01*
X106445671Y-111219030D01*
X106467850Y-111229520D01*
X106488893Y-111242132D01*
X106508599Y-111256747D01*
X106526777Y-111273223D01*
X106543253Y-111291401D01*
X106557868Y-111311107D01*
X106570480Y-111332150D01*
X106580970Y-111354329D01*
X106589235Y-111377428D01*
X106595196Y-111401227D01*
X106598796Y-111425495D01*
X106600000Y-111449999D01*
X106600000Y-112350001D01*
X106598796Y-112374505D01*
X106595196Y-112398773D01*
X106589235Y-112422572D01*
X106580970Y-112445671D01*
X106570480Y-112467850D01*
X106557868Y-112488893D01*
X106543253Y-112508599D01*
X106526777Y-112526777D01*
X106508599Y-112543253D01*
X106488893Y-112557868D01*
X106467850Y-112570480D01*
X106445671Y-112580970D01*
X106422572Y-112589235D01*
X106398773Y-112595196D01*
X106374505Y-112598796D01*
X106350001Y-112600000D01*
X105699999Y-112600000D01*
X105675495Y-112598796D01*
X105651227Y-112595196D01*
X105627428Y-112589235D01*
X105604329Y-112580970D01*
X105582150Y-112570480D01*
X105561107Y-112557868D01*
X105541401Y-112543253D01*
X105523223Y-112526777D01*
X105506747Y-112508599D01*
X105492132Y-112488893D01*
X105479520Y-112467850D01*
X105469030Y-112445671D01*
X105460765Y-112422572D01*
X105454804Y-112398773D01*
X105451204Y-112374505D01*
X105450000Y-112350001D01*
X105450000Y-111449999D01*
X105451204Y-111425495D01*
X105454804Y-111401227D01*
X105460765Y-111377428D01*
X105469030Y-111354329D01*
X105479520Y-111332150D01*
X105492132Y-111311107D01*
X105506747Y-111291401D01*
X105523223Y-111273223D01*
X105541401Y-111256747D01*
X105561107Y-111242132D01*
X105582150Y-111229520D01*
X105604329Y-111219030D01*
X105627428Y-111210765D01*
X105651227Y-111204804D01*
X105675495Y-111201204D01*
X105699999Y-111200000D01*
X106350001Y-111200000D01*
X106374505Y-111201204D01*
G37*
G36*
X104324505Y-111201204D02*
G01*
X104348773Y-111204804D01*
X104372572Y-111210765D01*
X104395671Y-111219030D01*
X104417850Y-111229520D01*
X104438893Y-111242132D01*
X104458599Y-111256747D01*
X104476777Y-111273223D01*
X104493253Y-111291401D01*
X104507868Y-111311107D01*
X104520480Y-111332150D01*
X104530970Y-111354329D01*
X104539235Y-111377428D01*
X104545196Y-111401227D01*
X104548796Y-111425495D01*
X104550000Y-111449999D01*
X104550000Y-112350001D01*
X104548796Y-112374505D01*
X104545196Y-112398773D01*
X104539235Y-112422572D01*
X104530970Y-112445671D01*
X104520480Y-112467850D01*
X104507868Y-112488893D01*
X104493253Y-112508599D01*
X104476777Y-112526777D01*
X104458599Y-112543253D01*
X104438893Y-112557868D01*
X104417850Y-112570480D01*
X104395671Y-112580970D01*
X104372572Y-112589235D01*
X104348773Y-112595196D01*
X104324505Y-112598796D01*
X104300001Y-112600000D01*
X103649999Y-112600000D01*
X103625495Y-112598796D01*
X103601227Y-112595196D01*
X103577428Y-112589235D01*
X103554329Y-112580970D01*
X103532150Y-112570480D01*
X103511107Y-112557868D01*
X103491401Y-112543253D01*
X103473223Y-112526777D01*
X103456747Y-112508599D01*
X103442132Y-112488893D01*
X103429520Y-112467850D01*
X103419030Y-112445671D01*
X103410765Y-112422572D01*
X103404804Y-112398773D01*
X103401204Y-112374505D01*
X103400000Y-112350001D01*
X103400000Y-111449999D01*
X103401204Y-111425495D01*
X103404804Y-111401227D01*
X103410765Y-111377428D01*
X103419030Y-111354329D01*
X103429520Y-111332150D01*
X103442132Y-111311107D01*
X103456747Y-111291401D01*
X103473223Y-111273223D01*
X103491401Y-111256747D01*
X103511107Y-111242132D01*
X103532150Y-111229520D01*
X103554329Y-111219030D01*
X103577428Y-111210765D01*
X103601227Y-111204804D01*
X103625495Y-111201204D01*
X103649999Y-111200000D01*
X104300001Y-111200000D01*
X104324505Y-111201204D01*
G37*
G36*
X106349505Y-109001204D02*
G01*
X106373773Y-109004804D01*
X106397572Y-109010765D01*
X106420671Y-109019030D01*
X106442850Y-109029520D01*
X106463893Y-109042132D01*
X106483599Y-109056747D01*
X106501777Y-109073223D01*
X106518253Y-109091401D01*
X106532868Y-109111107D01*
X106545480Y-109132150D01*
X106555970Y-109154329D01*
X106564235Y-109177428D01*
X106570196Y-109201227D01*
X106573796Y-109225495D01*
X106575000Y-109249999D01*
X106575000Y-110150001D01*
X106573796Y-110174505D01*
X106570196Y-110198773D01*
X106564235Y-110222572D01*
X106555970Y-110245671D01*
X106545480Y-110267850D01*
X106532868Y-110288893D01*
X106518253Y-110308599D01*
X106501777Y-110326777D01*
X106483599Y-110343253D01*
X106463893Y-110357868D01*
X106442850Y-110370480D01*
X106420671Y-110380970D01*
X106397572Y-110389235D01*
X106373773Y-110395196D01*
X106349505Y-110398796D01*
X106325001Y-110400000D01*
X105674999Y-110400000D01*
X105650495Y-110398796D01*
X105626227Y-110395196D01*
X105602428Y-110389235D01*
X105579329Y-110380970D01*
X105557150Y-110370480D01*
X105536107Y-110357868D01*
X105516401Y-110343253D01*
X105498223Y-110326777D01*
X105481747Y-110308599D01*
X105467132Y-110288893D01*
X105454520Y-110267850D01*
X105444030Y-110245671D01*
X105435765Y-110222572D01*
X105429804Y-110198773D01*
X105426204Y-110174505D01*
X105425000Y-110150001D01*
X105425000Y-109249999D01*
X105426204Y-109225495D01*
X105429804Y-109201227D01*
X105435765Y-109177428D01*
X105444030Y-109154329D01*
X105454520Y-109132150D01*
X105467132Y-109111107D01*
X105481747Y-109091401D01*
X105498223Y-109073223D01*
X105516401Y-109056747D01*
X105536107Y-109042132D01*
X105557150Y-109029520D01*
X105579329Y-109019030D01*
X105602428Y-109010765D01*
X105626227Y-109004804D01*
X105650495Y-109001204D01*
X105674999Y-109000000D01*
X106325001Y-109000000D01*
X106349505Y-109001204D01*
G37*
G36*
X104299505Y-109001204D02*
G01*
X104323773Y-109004804D01*
X104347572Y-109010765D01*
X104370671Y-109019030D01*
X104392850Y-109029520D01*
X104413893Y-109042132D01*
X104433599Y-109056747D01*
X104451777Y-109073223D01*
X104468253Y-109091401D01*
X104482868Y-109111107D01*
X104495480Y-109132150D01*
X104505970Y-109154329D01*
X104514235Y-109177428D01*
X104520196Y-109201227D01*
X104523796Y-109225495D01*
X104525000Y-109249999D01*
X104525000Y-110150001D01*
X104523796Y-110174505D01*
X104520196Y-110198773D01*
X104514235Y-110222572D01*
X104505970Y-110245671D01*
X104495480Y-110267850D01*
X104482868Y-110288893D01*
X104468253Y-110308599D01*
X104451777Y-110326777D01*
X104433599Y-110343253D01*
X104413893Y-110357868D01*
X104392850Y-110370480D01*
X104370671Y-110380970D01*
X104347572Y-110389235D01*
X104323773Y-110395196D01*
X104299505Y-110398796D01*
X104275001Y-110400000D01*
X103624999Y-110400000D01*
X103600495Y-110398796D01*
X103576227Y-110395196D01*
X103552428Y-110389235D01*
X103529329Y-110380970D01*
X103507150Y-110370480D01*
X103486107Y-110357868D01*
X103466401Y-110343253D01*
X103448223Y-110326777D01*
X103431747Y-110308599D01*
X103417132Y-110288893D01*
X103404520Y-110267850D01*
X103394030Y-110245671D01*
X103385765Y-110222572D01*
X103379804Y-110198773D01*
X103376204Y-110174505D01*
X103375000Y-110150001D01*
X103375000Y-109249999D01*
X103376204Y-109225495D01*
X103379804Y-109201227D01*
X103385765Y-109177428D01*
X103394030Y-109154329D01*
X103404520Y-109132150D01*
X103417132Y-109111107D01*
X103431747Y-109091401D01*
X103448223Y-109073223D01*
X103466401Y-109056747D01*
X103486107Y-109042132D01*
X103507150Y-109029520D01*
X103529329Y-109019030D01*
X103552428Y-109010765D01*
X103576227Y-109004804D01*
X103600495Y-109001204D01*
X103624999Y-109000000D01*
X104275001Y-109000000D01*
X104299505Y-109001204D01*
G37*
G36*
X102274505Y-111426204D02*
G01*
X102298773Y-111429804D01*
X102322572Y-111435765D01*
X102345671Y-111444030D01*
X102367850Y-111454520D01*
X102388893Y-111467132D01*
X102408599Y-111481747D01*
X102426777Y-111498223D01*
X102443253Y-111516401D01*
X102457868Y-111536107D01*
X102470480Y-111557150D01*
X102480970Y-111579329D01*
X102489235Y-111602428D01*
X102495196Y-111626227D01*
X102498796Y-111650495D01*
X102500000Y-111674999D01*
X102500000Y-112325001D01*
X102498796Y-112349505D01*
X102495196Y-112373773D01*
X102489235Y-112397572D01*
X102480970Y-112420671D01*
X102470480Y-112442850D01*
X102457868Y-112463893D01*
X102443253Y-112483599D01*
X102426777Y-112501777D01*
X102408599Y-112518253D01*
X102388893Y-112532868D01*
X102367850Y-112545480D01*
X102345671Y-112555970D01*
X102322572Y-112564235D01*
X102298773Y-112570196D01*
X102274505Y-112573796D01*
X102250001Y-112575000D01*
X101349999Y-112575000D01*
X101325495Y-112573796D01*
X101301227Y-112570196D01*
X101277428Y-112564235D01*
X101254329Y-112555970D01*
X101232150Y-112545480D01*
X101211107Y-112532868D01*
X101191401Y-112518253D01*
X101173223Y-112501777D01*
X101156747Y-112483599D01*
X101142132Y-112463893D01*
X101129520Y-112442850D01*
X101119030Y-112420671D01*
X101110765Y-112397572D01*
X101104804Y-112373773D01*
X101101204Y-112349505D01*
X101100000Y-112325001D01*
X101100000Y-111674999D01*
X101101204Y-111650495D01*
X101104804Y-111626227D01*
X101110765Y-111602428D01*
X101119030Y-111579329D01*
X101129520Y-111557150D01*
X101142132Y-111536107D01*
X101156747Y-111516401D01*
X101173223Y-111498223D01*
X101191401Y-111481747D01*
X101211107Y-111467132D01*
X101232150Y-111454520D01*
X101254329Y-111444030D01*
X101277428Y-111435765D01*
X101301227Y-111429804D01*
X101325495Y-111426204D01*
X101349999Y-111425000D01*
X102250001Y-111425000D01*
X102274505Y-111426204D01*
G37*
G36*
X102274505Y-109376204D02*
G01*
X102298773Y-109379804D01*
X102322572Y-109385765D01*
X102345671Y-109394030D01*
X102367850Y-109404520D01*
X102388893Y-109417132D01*
X102408599Y-109431747D01*
X102426777Y-109448223D01*
X102443253Y-109466401D01*
X102457868Y-109486107D01*
X102470480Y-109507150D01*
X102480970Y-109529329D01*
X102489235Y-109552428D01*
X102495196Y-109576227D01*
X102498796Y-109600495D01*
X102500000Y-109624999D01*
X102500000Y-110275001D01*
X102498796Y-110299505D01*
X102495196Y-110323773D01*
X102489235Y-110347572D01*
X102480970Y-110370671D01*
X102470480Y-110392850D01*
X102457868Y-110413893D01*
X102443253Y-110433599D01*
X102426777Y-110451777D01*
X102408599Y-110468253D01*
X102388893Y-110482868D01*
X102367850Y-110495480D01*
X102345671Y-110505970D01*
X102322572Y-110514235D01*
X102298773Y-110520196D01*
X102274505Y-110523796D01*
X102250001Y-110525000D01*
X101349999Y-110525000D01*
X101325495Y-110523796D01*
X101301227Y-110520196D01*
X101277428Y-110514235D01*
X101254329Y-110505970D01*
X101232150Y-110495480D01*
X101211107Y-110482868D01*
X101191401Y-110468253D01*
X101173223Y-110451777D01*
X101156747Y-110433599D01*
X101142132Y-110413893D01*
X101129520Y-110392850D01*
X101119030Y-110370671D01*
X101110765Y-110347572D01*
X101104804Y-110323773D01*
X101101204Y-110299505D01*
X101100000Y-110275001D01*
X101100000Y-109624999D01*
X101101204Y-109600495D01*
X101104804Y-109576227D01*
X101110765Y-109552428D01*
X101119030Y-109529329D01*
X101129520Y-109507150D01*
X101142132Y-109486107D01*
X101156747Y-109466401D01*
X101173223Y-109448223D01*
X101191401Y-109431747D01*
X101211107Y-109417132D01*
X101232150Y-109404520D01*
X101254329Y-109394030D01*
X101277428Y-109385765D01*
X101301227Y-109379804D01*
X101325495Y-109376204D01*
X101349999Y-109375000D01*
X102250001Y-109375000D01*
X102274505Y-109376204D01*
G37*
G36*
X100074505Y-109376204D02*
G01*
X100098773Y-109379804D01*
X100122572Y-109385765D01*
X100145671Y-109394030D01*
X100167850Y-109404520D01*
X100188893Y-109417132D01*
X100208599Y-109431747D01*
X100226777Y-109448223D01*
X100243253Y-109466401D01*
X100257868Y-109486107D01*
X100270480Y-109507150D01*
X100280970Y-109529329D01*
X100289235Y-109552428D01*
X100295196Y-109576227D01*
X100298796Y-109600495D01*
X100300000Y-109624999D01*
X100300000Y-110275001D01*
X100298796Y-110299505D01*
X100295196Y-110323773D01*
X100289235Y-110347572D01*
X100280970Y-110370671D01*
X100270480Y-110392850D01*
X100257868Y-110413893D01*
X100243253Y-110433599D01*
X100226777Y-110451777D01*
X100208599Y-110468253D01*
X100188893Y-110482868D01*
X100167850Y-110495480D01*
X100145671Y-110505970D01*
X100122572Y-110514235D01*
X100098773Y-110520196D01*
X100074505Y-110523796D01*
X100050001Y-110525000D01*
X99149999Y-110525000D01*
X99125495Y-110523796D01*
X99101227Y-110520196D01*
X99077428Y-110514235D01*
X99054329Y-110505970D01*
X99032150Y-110495480D01*
X99011107Y-110482868D01*
X98991401Y-110468253D01*
X98973223Y-110451777D01*
X98956747Y-110433599D01*
X98942132Y-110413893D01*
X98929520Y-110392850D01*
X98919030Y-110370671D01*
X98910765Y-110347572D01*
X98904804Y-110323773D01*
X98901204Y-110299505D01*
X98900000Y-110275001D01*
X98900000Y-109624999D01*
X98901204Y-109600495D01*
X98904804Y-109576227D01*
X98910765Y-109552428D01*
X98919030Y-109529329D01*
X98929520Y-109507150D01*
X98942132Y-109486107D01*
X98956747Y-109466401D01*
X98973223Y-109448223D01*
X98991401Y-109431747D01*
X99011107Y-109417132D01*
X99032150Y-109404520D01*
X99054329Y-109394030D01*
X99077428Y-109385765D01*
X99101227Y-109379804D01*
X99125495Y-109376204D01*
X99149999Y-109375000D01*
X100050001Y-109375000D01*
X100074505Y-109376204D01*
G37*
G36*
X100074505Y-111426204D02*
G01*
X100098773Y-111429804D01*
X100122572Y-111435765D01*
X100145671Y-111444030D01*
X100167850Y-111454520D01*
X100188893Y-111467132D01*
X100208599Y-111481747D01*
X100226777Y-111498223D01*
X100243253Y-111516401D01*
X100257868Y-111536107D01*
X100270480Y-111557150D01*
X100280970Y-111579329D01*
X100289235Y-111602428D01*
X100295196Y-111626227D01*
X100298796Y-111650495D01*
X100300000Y-111674999D01*
X100300000Y-112325001D01*
X100298796Y-112349505D01*
X100295196Y-112373773D01*
X100289235Y-112397572D01*
X100280970Y-112420671D01*
X100270480Y-112442850D01*
X100257868Y-112463893D01*
X100243253Y-112483599D01*
X100226777Y-112501777D01*
X100208599Y-112518253D01*
X100188893Y-112532868D01*
X100167850Y-112545480D01*
X100145671Y-112555970D01*
X100122572Y-112564235D01*
X100098773Y-112570196D01*
X100074505Y-112573796D01*
X100050001Y-112575000D01*
X99149999Y-112575000D01*
X99125495Y-112573796D01*
X99101227Y-112570196D01*
X99077428Y-112564235D01*
X99054329Y-112555970D01*
X99032150Y-112545480D01*
X99011107Y-112532868D01*
X98991401Y-112518253D01*
X98973223Y-112501777D01*
X98956747Y-112483599D01*
X98942132Y-112463893D01*
X98929520Y-112442850D01*
X98919030Y-112420671D01*
X98910765Y-112397572D01*
X98904804Y-112373773D01*
X98901204Y-112349505D01*
X98900000Y-112325001D01*
X98900000Y-111674999D01*
X98901204Y-111650495D01*
X98904804Y-111626227D01*
X98910765Y-111602428D01*
X98919030Y-111579329D01*
X98929520Y-111557150D01*
X98942132Y-111536107D01*
X98956747Y-111516401D01*
X98973223Y-111498223D01*
X98991401Y-111481747D01*
X99011107Y-111467132D01*
X99032150Y-111454520D01*
X99054329Y-111444030D01*
X99077428Y-111435765D01*
X99101227Y-111429804D01*
X99125495Y-111426204D01*
X99149999Y-111425000D01*
X100050001Y-111425000D01*
X100074505Y-111426204D01*
G37*
G36*
X97974505Y-111376204D02*
G01*
X97998773Y-111379804D01*
X98022572Y-111385765D01*
X98045671Y-111394030D01*
X98067850Y-111404520D01*
X98088893Y-111417132D01*
X98108599Y-111431747D01*
X98126777Y-111448223D01*
X98143253Y-111466401D01*
X98157868Y-111486107D01*
X98170480Y-111507150D01*
X98180970Y-111529329D01*
X98189235Y-111552428D01*
X98195196Y-111576227D01*
X98198796Y-111600495D01*
X98200000Y-111624999D01*
X98200000Y-112275001D01*
X98198796Y-112299505D01*
X98195196Y-112323773D01*
X98189235Y-112347572D01*
X98180970Y-112370671D01*
X98170480Y-112392850D01*
X98157868Y-112413893D01*
X98143253Y-112433599D01*
X98126777Y-112451777D01*
X98108599Y-112468253D01*
X98088893Y-112482868D01*
X98067850Y-112495480D01*
X98045671Y-112505970D01*
X98022572Y-112514235D01*
X97998773Y-112520196D01*
X97974505Y-112523796D01*
X97950001Y-112525000D01*
X97049999Y-112525000D01*
X97025495Y-112523796D01*
X97001227Y-112520196D01*
X96977428Y-112514235D01*
X96954329Y-112505970D01*
X96932150Y-112495480D01*
X96911107Y-112482868D01*
X96891401Y-112468253D01*
X96873223Y-112451777D01*
X96856747Y-112433599D01*
X96842132Y-112413893D01*
X96829520Y-112392850D01*
X96819030Y-112370671D01*
X96810765Y-112347572D01*
X96804804Y-112323773D01*
X96801204Y-112299505D01*
X96800000Y-112275001D01*
X96800000Y-111624999D01*
X96801204Y-111600495D01*
X96804804Y-111576227D01*
X96810765Y-111552428D01*
X96819030Y-111529329D01*
X96829520Y-111507150D01*
X96842132Y-111486107D01*
X96856747Y-111466401D01*
X96873223Y-111448223D01*
X96891401Y-111431747D01*
X96911107Y-111417132D01*
X96932150Y-111404520D01*
X96954329Y-111394030D01*
X96977428Y-111385765D01*
X97001227Y-111379804D01*
X97025495Y-111376204D01*
X97049999Y-111375000D01*
X97950001Y-111375000D01*
X97974505Y-111376204D01*
G37*
G36*
X97974505Y-109326204D02*
G01*
X97998773Y-109329804D01*
X98022572Y-109335765D01*
X98045671Y-109344030D01*
X98067850Y-109354520D01*
X98088893Y-109367132D01*
X98108599Y-109381747D01*
X98126777Y-109398223D01*
X98143253Y-109416401D01*
X98157868Y-109436107D01*
X98170480Y-109457150D01*
X98180970Y-109479329D01*
X98189235Y-109502428D01*
X98195196Y-109526227D01*
X98198796Y-109550495D01*
X98200000Y-109574999D01*
X98200000Y-110225001D01*
X98198796Y-110249505D01*
X98195196Y-110273773D01*
X98189235Y-110297572D01*
X98180970Y-110320671D01*
X98170480Y-110342850D01*
X98157868Y-110363893D01*
X98143253Y-110383599D01*
X98126777Y-110401777D01*
X98108599Y-110418253D01*
X98088893Y-110432868D01*
X98067850Y-110445480D01*
X98045671Y-110455970D01*
X98022572Y-110464235D01*
X97998773Y-110470196D01*
X97974505Y-110473796D01*
X97950001Y-110475000D01*
X97049999Y-110475000D01*
X97025495Y-110473796D01*
X97001227Y-110470196D01*
X96977428Y-110464235D01*
X96954329Y-110455970D01*
X96932150Y-110445480D01*
X96911107Y-110432868D01*
X96891401Y-110418253D01*
X96873223Y-110401777D01*
X96856747Y-110383599D01*
X96842132Y-110363893D01*
X96829520Y-110342850D01*
X96819030Y-110320671D01*
X96810765Y-110297572D01*
X96804804Y-110273773D01*
X96801204Y-110249505D01*
X96800000Y-110225001D01*
X96800000Y-109574999D01*
X96801204Y-109550495D01*
X96804804Y-109526227D01*
X96810765Y-109502428D01*
X96819030Y-109479329D01*
X96829520Y-109457150D01*
X96842132Y-109436107D01*
X96856747Y-109416401D01*
X96873223Y-109398223D01*
X96891401Y-109381747D01*
X96911107Y-109367132D01*
X96932150Y-109354520D01*
X96954329Y-109344030D01*
X96977428Y-109335765D01*
X97001227Y-109329804D01*
X97025495Y-109326204D01*
X97049999Y-109325000D01*
X97950001Y-109325000D01*
X97974505Y-109326204D01*
G37*
G36*
X101249505Y-134701204D02*
G01*
X101273773Y-134704804D01*
X101297572Y-134710765D01*
X101320671Y-134719030D01*
X101342850Y-134729520D01*
X101363893Y-134742132D01*
X101383599Y-134756747D01*
X101401777Y-134773223D01*
X101418253Y-134791401D01*
X101432868Y-134811107D01*
X101445480Y-134832150D01*
X101455970Y-134854329D01*
X101464235Y-134877428D01*
X101470196Y-134901227D01*
X101473796Y-134925495D01*
X101475000Y-134949999D01*
X101475000Y-135850001D01*
X101473796Y-135874505D01*
X101470196Y-135898773D01*
X101464235Y-135922572D01*
X101455970Y-135945671D01*
X101445480Y-135967850D01*
X101432868Y-135988893D01*
X101418253Y-136008599D01*
X101401777Y-136026777D01*
X101383599Y-136043253D01*
X101363893Y-136057868D01*
X101342850Y-136070480D01*
X101320671Y-136080970D01*
X101297572Y-136089235D01*
X101273773Y-136095196D01*
X101249505Y-136098796D01*
X101225001Y-136100000D01*
X100574999Y-136100000D01*
X100550495Y-136098796D01*
X100526227Y-136095196D01*
X100502428Y-136089235D01*
X100479329Y-136080970D01*
X100457150Y-136070480D01*
X100436107Y-136057868D01*
X100416401Y-136043253D01*
X100398223Y-136026777D01*
X100381747Y-136008599D01*
X100367132Y-135988893D01*
X100354520Y-135967850D01*
X100344030Y-135945671D01*
X100335765Y-135922572D01*
X100329804Y-135898773D01*
X100326204Y-135874505D01*
X100325000Y-135850001D01*
X100325000Y-134949999D01*
X100326204Y-134925495D01*
X100329804Y-134901227D01*
X100335765Y-134877428D01*
X100344030Y-134854329D01*
X100354520Y-134832150D01*
X100367132Y-134811107D01*
X100381747Y-134791401D01*
X100398223Y-134773223D01*
X100416401Y-134756747D01*
X100436107Y-134742132D01*
X100457150Y-134729520D01*
X100479329Y-134719030D01*
X100502428Y-134710765D01*
X100526227Y-134704804D01*
X100550495Y-134701204D01*
X100574999Y-134700000D01*
X101225001Y-134700000D01*
X101249505Y-134701204D01*
G37*
G36*
X103299505Y-134701204D02*
G01*
X103323773Y-134704804D01*
X103347572Y-134710765D01*
X103370671Y-134719030D01*
X103392850Y-134729520D01*
X103413893Y-134742132D01*
X103433599Y-134756747D01*
X103451777Y-134773223D01*
X103468253Y-134791401D01*
X103482868Y-134811107D01*
X103495480Y-134832150D01*
X103505970Y-134854329D01*
X103514235Y-134877428D01*
X103520196Y-134901227D01*
X103523796Y-134925495D01*
X103525000Y-134949999D01*
X103525000Y-135850001D01*
X103523796Y-135874505D01*
X103520196Y-135898773D01*
X103514235Y-135922572D01*
X103505970Y-135945671D01*
X103495480Y-135967850D01*
X103482868Y-135988893D01*
X103468253Y-136008599D01*
X103451777Y-136026777D01*
X103433599Y-136043253D01*
X103413893Y-136057868D01*
X103392850Y-136070480D01*
X103370671Y-136080970D01*
X103347572Y-136089235D01*
X103323773Y-136095196D01*
X103299505Y-136098796D01*
X103275001Y-136100000D01*
X102624999Y-136100000D01*
X102600495Y-136098796D01*
X102576227Y-136095196D01*
X102552428Y-136089235D01*
X102529329Y-136080970D01*
X102507150Y-136070480D01*
X102486107Y-136057868D01*
X102466401Y-136043253D01*
X102448223Y-136026777D01*
X102431747Y-136008599D01*
X102417132Y-135988893D01*
X102404520Y-135967850D01*
X102394030Y-135945671D01*
X102385765Y-135922572D01*
X102379804Y-135898773D01*
X102376204Y-135874505D01*
X102375000Y-135850001D01*
X102375000Y-134949999D01*
X102376204Y-134925495D01*
X102379804Y-134901227D01*
X102385765Y-134877428D01*
X102394030Y-134854329D01*
X102404520Y-134832150D01*
X102417132Y-134811107D01*
X102431747Y-134791401D01*
X102448223Y-134773223D01*
X102466401Y-134756747D01*
X102486107Y-134742132D01*
X102507150Y-134729520D01*
X102529329Y-134719030D01*
X102552428Y-134710765D01*
X102576227Y-134704804D01*
X102600495Y-134701204D01*
X102624999Y-134700000D01*
X103275001Y-134700000D01*
X103299505Y-134701204D01*
G37*
G36*
X73374505Y-97101204D02*
G01*
X73398773Y-97104804D01*
X73422572Y-97110765D01*
X73445671Y-97119030D01*
X73467850Y-97129520D01*
X73488893Y-97142132D01*
X73508599Y-97156747D01*
X73526777Y-97173223D01*
X73543253Y-97191401D01*
X73557868Y-97211107D01*
X73570480Y-97232150D01*
X73580970Y-97254329D01*
X73589235Y-97277428D01*
X73595196Y-97301227D01*
X73598796Y-97325495D01*
X73600000Y-97349999D01*
X73600000Y-98000001D01*
X73598796Y-98024505D01*
X73595196Y-98048773D01*
X73589235Y-98072572D01*
X73580970Y-98095671D01*
X73570480Y-98117850D01*
X73557868Y-98138893D01*
X73543253Y-98158599D01*
X73526777Y-98176777D01*
X73508599Y-98193253D01*
X73488893Y-98207868D01*
X73467850Y-98220480D01*
X73445671Y-98230970D01*
X73422572Y-98239235D01*
X73398773Y-98245196D01*
X73374505Y-98248796D01*
X73350001Y-98250000D01*
X72449999Y-98250000D01*
X72425495Y-98248796D01*
X72401227Y-98245196D01*
X72377428Y-98239235D01*
X72354329Y-98230970D01*
X72332150Y-98220480D01*
X72311107Y-98207868D01*
X72291401Y-98193253D01*
X72273223Y-98176777D01*
X72256747Y-98158599D01*
X72242132Y-98138893D01*
X72229520Y-98117850D01*
X72219030Y-98095671D01*
X72210765Y-98072572D01*
X72204804Y-98048773D01*
X72201204Y-98024505D01*
X72200000Y-98000001D01*
X72200000Y-97349999D01*
X72201204Y-97325495D01*
X72204804Y-97301227D01*
X72210765Y-97277428D01*
X72219030Y-97254329D01*
X72229520Y-97232150D01*
X72242132Y-97211107D01*
X72256747Y-97191401D01*
X72273223Y-97173223D01*
X72291401Y-97156747D01*
X72311107Y-97142132D01*
X72332150Y-97129520D01*
X72354329Y-97119030D01*
X72377428Y-97110765D01*
X72401227Y-97104804D01*
X72425495Y-97101204D01*
X72449999Y-97100000D01*
X73350001Y-97100000D01*
X73374505Y-97101204D01*
G37*
G36*
X73374505Y-99151204D02*
G01*
X73398773Y-99154804D01*
X73422572Y-99160765D01*
X73445671Y-99169030D01*
X73467850Y-99179520D01*
X73488893Y-99192132D01*
X73508599Y-99206747D01*
X73526777Y-99223223D01*
X73543253Y-99241401D01*
X73557868Y-99261107D01*
X73570480Y-99282150D01*
X73580970Y-99304329D01*
X73589235Y-99327428D01*
X73595196Y-99351227D01*
X73598796Y-99375495D01*
X73600000Y-99399999D01*
X73600000Y-100050001D01*
X73598796Y-100074505D01*
X73595196Y-100098773D01*
X73589235Y-100122572D01*
X73580970Y-100145671D01*
X73570480Y-100167850D01*
X73557868Y-100188893D01*
X73543253Y-100208599D01*
X73526777Y-100226777D01*
X73508599Y-100243253D01*
X73488893Y-100257868D01*
X73467850Y-100270480D01*
X73445671Y-100280970D01*
X73422572Y-100289235D01*
X73398773Y-100295196D01*
X73374505Y-100298796D01*
X73350001Y-100300000D01*
X72449999Y-100300000D01*
X72425495Y-100298796D01*
X72401227Y-100295196D01*
X72377428Y-100289235D01*
X72354329Y-100280970D01*
X72332150Y-100270480D01*
X72311107Y-100257868D01*
X72291401Y-100243253D01*
X72273223Y-100226777D01*
X72256747Y-100208599D01*
X72242132Y-100188893D01*
X72229520Y-100167850D01*
X72219030Y-100145671D01*
X72210765Y-100122572D01*
X72204804Y-100098773D01*
X72201204Y-100074505D01*
X72200000Y-100050001D01*
X72200000Y-99399999D01*
X72201204Y-99375495D01*
X72204804Y-99351227D01*
X72210765Y-99327428D01*
X72219030Y-99304329D01*
X72229520Y-99282150D01*
X72242132Y-99261107D01*
X72256747Y-99241401D01*
X72273223Y-99223223D01*
X72291401Y-99206747D01*
X72311107Y-99192132D01*
X72332150Y-99179520D01*
X72354329Y-99169030D01*
X72377428Y-99160765D01*
X72401227Y-99154804D01*
X72425495Y-99151204D01*
X72449999Y-99150000D01*
X73350001Y-99150000D01*
X73374505Y-99151204D01*
G37*
G36*
X77074504Y-96101204D02*
G01*
X77098773Y-96104804D01*
X77122571Y-96110765D01*
X77145671Y-96119030D01*
X77167849Y-96129520D01*
X77188893Y-96142133D01*
X77208598Y-96156747D01*
X77226777Y-96173223D01*
X77243253Y-96191402D01*
X77257867Y-96211107D01*
X77270480Y-96232151D01*
X77280970Y-96254329D01*
X77289235Y-96277429D01*
X77295196Y-96301227D01*
X77298796Y-96325496D01*
X77300000Y-96350000D01*
X77300000Y-98450000D01*
X77298796Y-98474504D01*
X77295196Y-98498773D01*
X77289235Y-98522571D01*
X77280970Y-98545671D01*
X77270480Y-98567849D01*
X77257867Y-98588893D01*
X77243253Y-98608598D01*
X77226777Y-98626777D01*
X77208598Y-98643253D01*
X77188893Y-98657867D01*
X77167849Y-98670480D01*
X77145671Y-98680970D01*
X77122571Y-98689235D01*
X77098773Y-98695196D01*
X77074504Y-98698796D01*
X77050000Y-98700000D01*
X75950000Y-98700000D01*
X75925496Y-98698796D01*
X75901227Y-98695196D01*
X75877429Y-98689235D01*
X75854329Y-98680970D01*
X75832151Y-98670480D01*
X75811107Y-98657867D01*
X75791402Y-98643253D01*
X75773223Y-98626777D01*
X75756747Y-98608598D01*
X75742133Y-98588893D01*
X75729520Y-98567849D01*
X75719030Y-98545671D01*
X75710765Y-98522571D01*
X75704804Y-98498773D01*
X75701204Y-98474504D01*
X75700000Y-98450000D01*
X75700000Y-96350000D01*
X75701204Y-96325496D01*
X75704804Y-96301227D01*
X75710765Y-96277429D01*
X75719030Y-96254329D01*
X75729520Y-96232151D01*
X75742133Y-96211107D01*
X75756747Y-96191402D01*
X75773223Y-96173223D01*
X75791402Y-96156747D01*
X75811107Y-96142133D01*
X75832151Y-96129520D01*
X75854329Y-96119030D01*
X75877429Y-96110765D01*
X75901227Y-96104804D01*
X75925496Y-96101204D01*
X75950000Y-96100000D01*
X77050000Y-96100000D01*
X77074504Y-96101204D01*
G37*
G36*
X77074504Y-99701204D02*
G01*
X77098773Y-99704804D01*
X77122571Y-99710765D01*
X77145671Y-99719030D01*
X77167849Y-99729520D01*
X77188893Y-99742133D01*
X77208598Y-99756747D01*
X77226777Y-99773223D01*
X77243253Y-99791402D01*
X77257867Y-99811107D01*
X77270480Y-99832151D01*
X77280970Y-99854329D01*
X77289235Y-99877429D01*
X77295196Y-99901227D01*
X77298796Y-99925496D01*
X77300000Y-99950000D01*
X77300000Y-102050000D01*
X77298796Y-102074504D01*
X77295196Y-102098773D01*
X77289235Y-102122571D01*
X77280970Y-102145671D01*
X77270480Y-102167849D01*
X77257867Y-102188893D01*
X77243253Y-102208598D01*
X77226777Y-102226777D01*
X77208598Y-102243253D01*
X77188893Y-102257867D01*
X77167849Y-102270480D01*
X77145671Y-102280970D01*
X77122571Y-102289235D01*
X77098773Y-102295196D01*
X77074504Y-102298796D01*
X77050000Y-102300000D01*
X75950000Y-102300000D01*
X75925496Y-102298796D01*
X75901227Y-102295196D01*
X75877429Y-102289235D01*
X75854329Y-102280970D01*
X75832151Y-102270480D01*
X75811107Y-102257867D01*
X75791402Y-102243253D01*
X75773223Y-102226777D01*
X75756747Y-102208598D01*
X75742133Y-102188893D01*
X75729520Y-102167849D01*
X75719030Y-102145671D01*
X75710765Y-102122571D01*
X75704804Y-102098773D01*
X75701204Y-102074504D01*
X75700000Y-102050000D01*
X75700000Y-99950000D01*
X75701204Y-99925496D01*
X75704804Y-99901227D01*
X75710765Y-99877429D01*
X75719030Y-99854329D01*
X75729520Y-99832151D01*
X75742133Y-99811107D01*
X75756747Y-99791402D01*
X75773223Y-99773223D01*
X75791402Y-99756747D01*
X75811107Y-99742133D01*
X75832151Y-99729520D01*
X75854329Y-99719030D01*
X75877429Y-99710765D01*
X75901227Y-99704804D01*
X75925496Y-99701204D01*
X75950000Y-99700000D01*
X77050000Y-99700000D01*
X77074504Y-99701204D01*
G37*
G36*
X80574505Y-99076204D02*
G01*
X80598773Y-99079804D01*
X80622572Y-99085765D01*
X80645671Y-99094030D01*
X80667850Y-99104520D01*
X80688893Y-99117132D01*
X80708599Y-99131747D01*
X80726777Y-99148223D01*
X80743253Y-99166401D01*
X80757868Y-99186107D01*
X80770480Y-99207150D01*
X80780970Y-99229329D01*
X80789235Y-99252428D01*
X80795196Y-99276227D01*
X80798796Y-99300495D01*
X80800000Y-99324999D01*
X80800000Y-99975001D01*
X80798796Y-99999505D01*
X80795196Y-100023773D01*
X80789235Y-100047572D01*
X80780970Y-100070671D01*
X80770480Y-100092850D01*
X80757868Y-100113893D01*
X80743253Y-100133599D01*
X80726777Y-100151777D01*
X80708599Y-100168253D01*
X80688893Y-100182868D01*
X80667850Y-100195480D01*
X80645671Y-100205970D01*
X80622572Y-100214235D01*
X80598773Y-100220196D01*
X80574505Y-100223796D01*
X80550001Y-100225000D01*
X79649999Y-100225000D01*
X79625495Y-100223796D01*
X79601227Y-100220196D01*
X79577428Y-100214235D01*
X79554329Y-100205970D01*
X79532150Y-100195480D01*
X79511107Y-100182868D01*
X79491401Y-100168253D01*
X79473223Y-100151777D01*
X79456747Y-100133599D01*
X79442132Y-100113893D01*
X79429520Y-100092850D01*
X79419030Y-100070671D01*
X79410765Y-100047572D01*
X79404804Y-100023773D01*
X79401204Y-99999505D01*
X79400000Y-99975001D01*
X79400000Y-99324999D01*
X79401204Y-99300495D01*
X79404804Y-99276227D01*
X79410765Y-99252428D01*
X79419030Y-99229329D01*
X79429520Y-99207150D01*
X79442132Y-99186107D01*
X79456747Y-99166401D01*
X79473223Y-99148223D01*
X79491401Y-99131747D01*
X79511107Y-99117132D01*
X79532150Y-99104520D01*
X79554329Y-99094030D01*
X79577428Y-99085765D01*
X79601227Y-99079804D01*
X79625495Y-99076204D01*
X79649999Y-99075000D01*
X80550001Y-99075000D01*
X80574505Y-99076204D01*
G37*
G36*
X80574505Y-97026204D02*
G01*
X80598773Y-97029804D01*
X80622572Y-97035765D01*
X80645671Y-97044030D01*
X80667850Y-97054520D01*
X80688893Y-97067132D01*
X80708599Y-97081747D01*
X80726777Y-97098223D01*
X80743253Y-97116401D01*
X80757868Y-97136107D01*
X80770480Y-97157150D01*
X80780970Y-97179329D01*
X80789235Y-97202428D01*
X80795196Y-97226227D01*
X80798796Y-97250495D01*
X80800000Y-97274999D01*
X80800000Y-97925001D01*
X80798796Y-97949505D01*
X80795196Y-97973773D01*
X80789235Y-97997572D01*
X80780970Y-98020671D01*
X80770480Y-98042850D01*
X80757868Y-98063893D01*
X80743253Y-98083599D01*
X80726777Y-98101777D01*
X80708599Y-98118253D01*
X80688893Y-98132868D01*
X80667850Y-98145480D01*
X80645671Y-98155970D01*
X80622572Y-98164235D01*
X80598773Y-98170196D01*
X80574505Y-98173796D01*
X80550001Y-98175000D01*
X79649999Y-98175000D01*
X79625495Y-98173796D01*
X79601227Y-98170196D01*
X79577428Y-98164235D01*
X79554329Y-98155970D01*
X79532150Y-98145480D01*
X79511107Y-98132868D01*
X79491401Y-98118253D01*
X79473223Y-98101777D01*
X79456747Y-98083599D01*
X79442132Y-98063893D01*
X79429520Y-98042850D01*
X79419030Y-98020671D01*
X79410765Y-97997572D01*
X79404804Y-97973773D01*
X79401204Y-97949505D01*
X79400000Y-97925001D01*
X79400000Y-97274999D01*
X79401204Y-97250495D01*
X79404804Y-97226227D01*
X79410765Y-97202428D01*
X79419030Y-97179329D01*
X79429520Y-97157150D01*
X79442132Y-97136107D01*
X79456747Y-97116401D01*
X79473223Y-97098223D01*
X79491401Y-97081747D01*
X79511107Y-97067132D01*
X79532150Y-97054520D01*
X79554329Y-97044030D01*
X79577428Y-97035765D01*
X79601227Y-97029804D01*
X79625495Y-97026204D01*
X79649999Y-97025000D01*
X80550001Y-97025000D01*
X80574505Y-97026204D01*
G37*
G36*
X136974505Y-98101204D02*
G01*
X136998773Y-98104804D01*
X137022572Y-98110765D01*
X137045671Y-98119030D01*
X137067850Y-98129520D01*
X137088893Y-98142132D01*
X137108599Y-98156747D01*
X137126777Y-98173223D01*
X137143253Y-98191401D01*
X137157868Y-98211107D01*
X137170480Y-98232150D01*
X137180970Y-98254329D01*
X137189235Y-98277428D01*
X137195196Y-98301227D01*
X137198796Y-98325495D01*
X137200000Y-98349999D01*
X137200000Y-99250001D01*
X137198796Y-99274505D01*
X137195196Y-99298773D01*
X137189235Y-99322572D01*
X137180970Y-99345671D01*
X137170480Y-99367850D01*
X137157868Y-99388893D01*
X137143253Y-99408599D01*
X137126777Y-99426777D01*
X137108599Y-99443253D01*
X137088893Y-99457868D01*
X137067850Y-99470480D01*
X137045671Y-99480970D01*
X137022572Y-99489235D01*
X136998773Y-99495196D01*
X136974505Y-99498796D01*
X136950001Y-99500000D01*
X136299999Y-99500000D01*
X136275495Y-99498796D01*
X136251227Y-99495196D01*
X136227428Y-99489235D01*
X136204329Y-99480970D01*
X136182150Y-99470480D01*
X136161107Y-99457868D01*
X136141401Y-99443253D01*
X136123223Y-99426777D01*
X136106747Y-99408599D01*
X136092132Y-99388893D01*
X136079520Y-99367850D01*
X136069030Y-99345671D01*
X136060765Y-99322572D01*
X136054804Y-99298773D01*
X136051204Y-99274505D01*
X136050000Y-99250001D01*
X136050000Y-98349999D01*
X136051204Y-98325495D01*
X136054804Y-98301227D01*
X136060765Y-98277428D01*
X136069030Y-98254329D01*
X136079520Y-98232150D01*
X136092132Y-98211107D01*
X136106747Y-98191401D01*
X136123223Y-98173223D01*
X136141401Y-98156747D01*
X136161107Y-98142132D01*
X136182150Y-98129520D01*
X136204329Y-98119030D01*
X136227428Y-98110765D01*
X136251227Y-98104804D01*
X136275495Y-98101204D01*
X136299999Y-98100000D01*
X136950001Y-98100000D01*
X136974505Y-98101204D01*
G37*
G36*
X134924505Y-98101204D02*
G01*
X134948773Y-98104804D01*
X134972572Y-98110765D01*
X134995671Y-98119030D01*
X135017850Y-98129520D01*
X135038893Y-98142132D01*
X135058599Y-98156747D01*
X135076777Y-98173223D01*
X135093253Y-98191401D01*
X135107868Y-98211107D01*
X135120480Y-98232150D01*
X135130970Y-98254329D01*
X135139235Y-98277428D01*
X135145196Y-98301227D01*
X135148796Y-98325495D01*
X135150000Y-98349999D01*
X135150000Y-99250001D01*
X135148796Y-99274505D01*
X135145196Y-99298773D01*
X135139235Y-99322572D01*
X135130970Y-99345671D01*
X135120480Y-99367850D01*
X135107868Y-99388893D01*
X135093253Y-99408599D01*
X135076777Y-99426777D01*
X135058599Y-99443253D01*
X135038893Y-99457868D01*
X135017850Y-99470480D01*
X134995671Y-99480970D01*
X134972572Y-99489235D01*
X134948773Y-99495196D01*
X134924505Y-99498796D01*
X134900001Y-99500000D01*
X134249999Y-99500000D01*
X134225495Y-99498796D01*
X134201227Y-99495196D01*
X134177428Y-99489235D01*
X134154329Y-99480970D01*
X134132150Y-99470480D01*
X134111107Y-99457868D01*
X134091401Y-99443253D01*
X134073223Y-99426777D01*
X134056747Y-99408599D01*
X134042132Y-99388893D01*
X134029520Y-99367850D01*
X134019030Y-99345671D01*
X134010765Y-99322572D01*
X134004804Y-99298773D01*
X134001204Y-99274505D01*
X134000000Y-99250001D01*
X134000000Y-98349999D01*
X134001204Y-98325495D01*
X134004804Y-98301227D01*
X134010765Y-98277428D01*
X134019030Y-98254329D01*
X134029520Y-98232150D01*
X134042132Y-98211107D01*
X134056747Y-98191401D01*
X134073223Y-98173223D01*
X134091401Y-98156747D01*
X134111107Y-98142132D01*
X134132150Y-98129520D01*
X134154329Y-98119030D01*
X134177428Y-98110765D01*
X134201227Y-98104804D01*
X134225495Y-98101204D01*
X134249999Y-98100000D01*
X134900001Y-98100000D01*
X134924505Y-98101204D01*
G37*
G36*
X135074504Y-103201204D02*
G01*
X135098773Y-103204804D01*
X135122571Y-103210765D01*
X135145671Y-103219030D01*
X135167849Y-103229520D01*
X135188893Y-103242133D01*
X135208598Y-103256747D01*
X135226777Y-103273223D01*
X135243253Y-103291402D01*
X135257867Y-103311107D01*
X135270480Y-103332151D01*
X135280970Y-103354329D01*
X135289235Y-103377429D01*
X135295196Y-103401227D01*
X135298796Y-103425496D01*
X135300000Y-103450000D01*
X135300000Y-104550000D01*
X135298796Y-104574504D01*
X135295196Y-104598773D01*
X135289235Y-104622571D01*
X135280970Y-104645671D01*
X135270480Y-104667849D01*
X135257867Y-104688893D01*
X135243253Y-104708598D01*
X135226777Y-104726777D01*
X135208598Y-104743253D01*
X135188893Y-104757867D01*
X135167849Y-104770480D01*
X135145671Y-104780970D01*
X135122571Y-104789235D01*
X135098773Y-104795196D01*
X135074504Y-104798796D01*
X135050000Y-104800000D01*
X132950000Y-104800000D01*
X132925496Y-104798796D01*
X132901227Y-104795196D01*
X132877429Y-104789235D01*
X132854329Y-104780970D01*
X132832151Y-104770480D01*
X132811107Y-104757867D01*
X132791402Y-104743253D01*
X132773223Y-104726777D01*
X132756747Y-104708598D01*
X132742133Y-104688893D01*
X132729520Y-104667849D01*
X132719030Y-104645671D01*
X132710765Y-104622571D01*
X132704804Y-104598773D01*
X132701204Y-104574504D01*
X132700000Y-104550000D01*
X132700000Y-103450000D01*
X132701204Y-103425496D01*
X132704804Y-103401227D01*
X132710765Y-103377429D01*
X132719030Y-103354329D01*
X132729520Y-103332151D01*
X132742133Y-103311107D01*
X132756747Y-103291402D01*
X132773223Y-103273223D01*
X132791402Y-103256747D01*
X132811107Y-103242133D01*
X132832151Y-103229520D01*
X132854329Y-103219030D01*
X132877429Y-103210765D01*
X132901227Y-103204804D01*
X132925496Y-103201204D01*
X132950000Y-103200000D01*
X135050000Y-103200000D01*
X135074504Y-103201204D01*
G37*
G36*
X138674504Y-103201204D02*
G01*
X138698773Y-103204804D01*
X138722571Y-103210765D01*
X138745671Y-103219030D01*
X138767849Y-103229520D01*
X138788893Y-103242133D01*
X138808598Y-103256747D01*
X138826777Y-103273223D01*
X138843253Y-103291402D01*
X138857867Y-103311107D01*
X138870480Y-103332151D01*
X138880970Y-103354329D01*
X138889235Y-103377429D01*
X138895196Y-103401227D01*
X138898796Y-103425496D01*
X138900000Y-103450000D01*
X138900000Y-104550000D01*
X138898796Y-104574504D01*
X138895196Y-104598773D01*
X138889235Y-104622571D01*
X138880970Y-104645671D01*
X138870480Y-104667849D01*
X138857867Y-104688893D01*
X138843253Y-104708598D01*
X138826777Y-104726777D01*
X138808598Y-104743253D01*
X138788893Y-104757867D01*
X138767849Y-104770480D01*
X138745671Y-104780970D01*
X138722571Y-104789235D01*
X138698773Y-104795196D01*
X138674504Y-104798796D01*
X138650000Y-104800000D01*
X136550000Y-104800000D01*
X136525496Y-104798796D01*
X136501227Y-104795196D01*
X136477429Y-104789235D01*
X136454329Y-104780970D01*
X136432151Y-104770480D01*
X136411107Y-104757867D01*
X136391402Y-104743253D01*
X136373223Y-104726777D01*
X136356747Y-104708598D01*
X136342133Y-104688893D01*
X136329520Y-104667849D01*
X136319030Y-104645671D01*
X136310765Y-104622571D01*
X136304804Y-104598773D01*
X136301204Y-104574504D01*
X136300000Y-104550000D01*
X136300000Y-103450000D01*
X136301204Y-103425496D01*
X136304804Y-103401227D01*
X136310765Y-103377429D01*
X136319030Y-103354329D01*
X136329520Y-103332151D01*
X136342133Y-103311107D01*
X136356747Y-103291402D01*
X136373223Y-103273223D01*
X136391402Y-103256747D01*
X136411107Y-103242133D01*
X136432151Y-103229520D01*
X136454329Y-103219030D01*
X136477429Y-103210765D01*
X136501227Y-103204804D01*
X136525496Y-103201204D01*
X136550000Y-103200000D01*
X138650000Y-103200000D01*
X138674504Y-103201204D01*
G37*
D19*
X67000000Y-102300000D03*
D20*
X69700000Y-100650000D03*
X69700000Y-100000000D03*
X69700000Y-102600000D03*
X69700000Y-101950000D03*
X69700000Y-101300000D03*
D19*
X67000000Y-100300000D03*
D10*
G36*
X131174505Y-145226204D02*
G01*
X131198773Y-145229804D01*
X131222572Y-145235765D01*
X131245671Y-145244030D01*
X131267850Y-145254520D01*
X131288893Y-145267132D01*
X131308599Y-145281747D01*
X131326777Y-145298223D01*
X131343253Y-145316401D01*
X131357868Y-145336107D01*
X131370480Y-145357150D01*
X131380970Y-145379329D01*
X131389235Y-145402428D01*
X131395196Y-145426227D01*
X131398796Y-145450495D01*
X131400000Y-145474999D01*
X131400000Y-146125001D01*
X131398796Y-146149505D01*
X131395196Y-146173773D01*
X131389235Y-146197572D01*
X131380970Y-146220671D01*
X131370480Y-146242850D01*
X131357868Y-146263893D01*
X131343253Y-146283599D01*
X131326777Y-146301777D01*
X131308599Y-146318253D01*
X131288893Y-146332868D01*
X131267850Y-146345480D01*
X131245671Y-146355970D01*
X131222572Y-146364235D01*
X131198773Y-146370196D01*
X131174505Y-146373796D01*
X131150001Y-146375000D01*
X130249999Y-146375000D01*
X130225495Y-146373796D01*
X130201227Y-146370196D01*
X130177428Y-146364235D01*
X130154329Y-146355970D01*
X130132150Y-146345480D01*
X130111107Y-146332868D01*
X130091401Y-146318253D01*
X130073223Y-146301777D01*
X130056747Y-146283599D01*
X130042132Y-146263893D01*
X130029520Y-146242850D01*
X130019030Y-146220671D01*
X130010765Y-146197572D01*
X130004804Y-146173773D01*
X130001204Y-146149505D01*
X130000000Y-146125001D01*
X130000000Y-145474999D01*
X130001204Y-145450495D01*
X130004804Y-145426227D01*
X130010765Y-145402428D01*
X130019030Y-145379329D01*
X130029520Y-145357150D01*
X130042132Y-145336107D01*
X130056747Y-145316401D01*
X130073223Y-145298223D01*
X130091401Y-145281747D01*
X130111107Y-145267132D01*
X130132150Y-145254520D01*
X130154329Y-145244030D01*
X130177428Y-145235765D01*
X130201227Y-145229804D01*
X130225495Y-145226204D01*
X130249999Y-145225000D01*
X131150001Y-145225000D01*
X131174505Y-145226204D01*
G37*
G36*
X131174505Y-143176204D02*
G01*
X131198773Y-143179804D01*
X131222572Y-143185765D01*
X131245671Y-143194030D01*
X131267850Y-143204520D01*
X131288893Y-143217132D01*
X131308599Y-143231747D01*
X131326777Y-143248223D01*
X131343253Y-143266401D01*
X131357868Y-143286107D01*
X131370480Y-143307150D01*
X131380970Y-143329329D01*
X131389235Y-143352428D01*
X131395196Y-143376227D01*
X131398796Y-143400495D01*
X131400000Y-143424999D01*
X131400000Y-144075001D01*
X131398796Y-144099505D01*
X131395196Y-144123773D01*
X131389235Y-144147572D01*
X131380970Y-144170671D01*
X131370480Y-144192850D01*
X131357868Y-144213893D01*
X131343253Y-144233599D01*
X131326777Y-144251777D01*
X131308599Y-144268253D01*
X131288893Y-144282868D01*
X131267850Y-144295480D01*
X131245671Y-144305970D01*
X131222572Y-144314235D01*
X131198773Y-144320196D01*
X131174505Y-144323796D01*
X131150001Y-144325000D01*
X130249999Y-144325000D01*
X130225495Y-144323796D01*
X130201227Y-144320196D01*
X130177428Y-144314235D01*
X130154329Y-144305970D01*
X130132150Y-144295480D01*
X130111107Y-144282868D01*
X130091401Y-144268253D01*
X130073223Y-144251777D01*
X130056747Y-144233599D01*
X130042132Y-144213893D01*
X130029520Y-144192850D01*
X130019030Y-144170671D01*
X130010765Y-144147572D01*
X130004804Y-144123773D01*
X130001204Y-144099505D01*
X130000000Y-144075001D01*
X130000000Y-143424999D01*
X130001204Y-143400495D01*
X130004804Y-143376227D01*
X130010765Y-143352428D01*
X130019030Y-143329329D01*
X130029520Y-143307150D01*
X130042132Y-143286107D01*
X130056747Y-143266401D01*
X130073223Y-143248223D01*
X130091401Y-143231747D01*
X130111107Y-143217132D01*
X130132150Y-143204520D01*
X130154329Y-143194030D01*
X130177428Y-143185765D01*
X130201227Y-143179804D01*
X130225495Y-143176204D01*
X130249999Y-143175000D01*
X131150001Y-143175000D01*
X131174505Y-143176204D01*
G37*
G36*
X109874505Y-114926204D02*
G01*
X109898773Y-114929804D01*
X109922572Y-114935765D01*
X109945671Y-114944030D01*
X109967850Y-114954520D01*
X109988893Y-114967132D01*
X110008599Y-114981747D01*
X110026777Y-114998223D01*
X110043253Y-115016401D01*
X110057868Y-115036107D01*
X110070480Y-115057150D01*
X110080970Y-115079329D01*
X110089235Y-115102428D01*
X110095196Y-115126227D01*
X110098796Y-115150495D01*
X110100000Y-115174999D01*
X110100000Y-115825001D01*
X110098796Y-115849505D01*
X110095196Y-115873773D01*
X110089235Y-115897572D01*
X110080970Y-115920671D01*
X110070480Y-115942850D01*
X110057868Y-115963893D01*
X110043253Y-115983599D01*
X110026777Y-116001777D01*
X110008599Y-116018253D01*
X109988893Y-116032868D01*
X109967850Y-116045480D01*
X109945671Y-116055970D01*
X109922572Y-116064235D01*
X109898773Y-116070196D01*
X109874505Y-116073796D01*
X109850001Y-116075000D01*
X108949999Y-116075000D01*
X108925495Y-116073796D01*
X108901227Y-116070196D01*
X108877428Y-116064235D01*
X108854329Y-116055970D01*
X108832150Y-116045480D01*
X108811107Y-116032868D01*
X108791401Y-116018253D01*
X108773223Y-116001777D01*
X108756747Y-115983599D01*
X108742132Y-115963893D01*
X108729520Y-115942850D01*
X108719030Y-115920671D01*
X108710765Y-115897572D01*
X108704804Y-115873773D01*
X108701204Y-115849505D01*
X108700000Y-115825001D01*
X108700000Y-115174999D01*
X108701204Y-115150495D01*
X108704804Y-115126227D01*
X108710765Y-115102428D01*
X108719030Y-115079329D01*
X108729520Y-115057150D01*
X108742132Y-115036107D01*
X108756747Y-115016401D01*
X108773223Y-114998223D01*
X108791401Y-114981747D01*
X108811107Y-114967132D01*
X108832150Y-114954520D01*
X108854329Y-114944030D01*
X108877428Y-114935765D01*
X108901227Y-114929804D01*
X108925495Y-114926204D01*
X108949999Y-114925000D01*
X109850001Y-114925000D01*
X109874505Y-114926204D01*
G37*
G36*
X109874505Y-112876204D02*
G01*
X109898773Y-112879804D01*
X109922572Y-112885765D01*
X109945671Y-112894030D01*
X109967850Y-112904520D01*
X109988893Y-112917132D01*
X110008599Y-112931747D01*
X110026777Y-112948223D01*
X110043253Y-112966401D01*
X110057868Y-112986107D01*
X110070480Y-113007150D01*
X110080970Y-113029329D01*
X110089235Y-113052428D01*
X110095196Y-113076227D01*
X110098796Y-113100495D01*
X110100000Y-113124999D01*
X110100000Y-113775001D01*
X110098796Y-113799505D01*
X110095196Y-113823773D01*
X110089235Y-113847572D01*
X110080970Y-113870671D01*
X110070480Y-113892850D01*
X110057868Y-113913893D01*
X110043253Y-113933599D01*
X110026777Y-113951777D01*
X110008599Y-113968253D01*
X109988893Y-113982868D01*
X109967850Y-113995480D01*
X109945671Y-114005970D01*
X109922572Y-114014235D01*
X109898773Y-114020196D01*
X109874505Y-114023796D01*
X109850001Y-114025000D01*
X108949999Y-114025000D01*
X108925495Y-114023796D01*
X108901227Y-114020196D01*
X108877428Y-114014235D01*
X108854329Y-114005970D01*
X108832150Y-113995480D01*
X108811107Y-113982868D01*
X108791401Y-113968253D01*
X108773223Y-113951777D01*
X108756747Y-113933599D01*
X108742132Y-113913893D01*
X108729520Y-113892850D01*
X108719030Y-113870671D01*
X108710765Y-113847572D01*
X108704804Y-113823773D01*
X108701204Y-113799505D01*
X108700000Y-113775001D01*
X108700000Y-113124999D01*
X108701204Y-113100495D01*
X108704804Y-113076227D01*
X108710765Y-113052428D01*
X108719030Y-113029329D01*
X108729520Y-113007150D01*
X108742132Y-112986107D01*
X108756747Y-112966401D01*
X108773223Y-112948223D01*
X108791401Y-112931747D01*
X108811107Y-112917132D01*
X108832150Y-112904520D01*
X108854329Y-112894030D01*
X108877428Y-112885765D01*
X108901227Y-112879804D01*
X108925495Y-112876204D01*
X108949999Y-112875000D01*
X109850001Y-112875000D01*
X109874505Y-112876204D01*
G37*
D21*
X106950000Y-125270000D03*
D22*
X98150000Y-127320000D03*
X97350000Y-127320000D03*
D21*
X96550000Y-126070000D03*
X96550000Y-125270000D03*
X96550000Y-124470000D03*
X96550000Y-123670000D03*
X96550000Y-122870000D03*
X96550000Y-122070000D03*
X96550000Y-121270000D03*
X96550000Y-120470000D03*
X96550000Y-119670000D03*
X96550000Y-118870000D03*
X96550000Y-118070000D03*
X96550000Y-117270000D03*
D22*
X97350000Y-116020000D03*
D21*
X106950000Y-122870000D03*
X106950000Y-123670000D03*
X106950000Y-124470000D03*
X106950000Y-126070000D03*
D22*
X106150000Y-127320000D03*
X105350000Y-127320000D03*
X104550000Y-127320000D03*
X103750000Y-127320000D03*
X102950000Y-127320000D03*
X102150000Y-127320000D03*
X101350000Y-127320000D03*
X100550000Y-127320000D03*
X99750000Y-127320000D03*
X98950000Y-127320000D03*
X98150000Y-116020000D03*
X98950000Y-116020000D03*
X99750000Y-116020000D03*
X100550000Y-116020000D03*
X101350000Y-116020000D03*
X102150000Y-116020000D03*
X102950000Y-116020000D03*
X103750000Y-116020000D03*
X104550000Y-116020000D03*
X105350000Y-116020000D03*
X106150000Y-116020000D03*
D21*
X106950000Y-122070000D03*
X106950000Y-121270000D03*
X106950000Y-120470000D03*
X106950000Y-119670000D03*
X106950000Y-118870000D03*
X106950000Y-118070000D03*
X106950000Y-117270000D03*
D23*
X104250000Y-119170000D03*
X104250000Y-121670000D03*
X104250000Y-124170000D03*
X101750000Y-119170000D03*
X101750000Y-121670000D03*
X101750000Y-124170000D03*
X99250000Y-119170000D03*
X99250000Y-121670000D03*
X99250000Y-124170000D03*
D22*
X100550000Y-114220000D03*
X101350000Y-114230000D03*
X104550000Y-114220000D03*
X102150000Y-114220000D03*
X99750000Y-114220000D03*
X97350000Y-114220000D03*
X105350000Y-114220000D03*
X103750000Y-114220000D03*
X106150000Y-114220000D03*
X102950000Y-114220000D03*
X98950000Y-114220000D03*
X98150000Y-114220000D03*
X103751044Y-128914333D03*
X98151044Y-128914333D03*
X98951044Y-128914333D03*
X104551044Y-128914333D03*
X100551044Y-128914333D03*
X106151044Y-128914333D03*
X101351044Y-128914333D03*
X105351044Y-128914333D03*
X99751044Y-128914333D03*
X102151044Y-128914333D03*
X97351044Y-128914333D03*
X102951044Y-128914333D03*
D21*
X94960000Y-124470000D03*
X94960000Y-120470000D03*
X94960000Y-125270000D03*
X94960000Y-118070000D03*
X94960000Y-122870000D03*
X94960000Y-126070000D03*
X94960000Y-117270000D03*
X94960000Y-123670000D03*
X94960000Y-121270000D03*
X94960000Y-122070000D03*
X94960000Y-118870000D03*
X94960000Y-119670000D03*
X108550000Y-121270000D03*
X108550000Y-124470000D03*
X108550000Y-125270000D03*
X108550000Y-117270000D03*
X108550000Y-118070000D03*
X108550000Y-118870000D03*
X108550000Y-120470000D03*
X108550000Y-122870000D03*
X108550000Y-126070000D03*
X108550000Y-119670000D03*
X108550000Y-122070000D03*
X108550000Y-123670000D03*
M02*
