G04 #@! TF.GenerationSoftware,KiCad,Pcbnew,(5.1.5)-3*
G04 #@! TF.CreationDate,2020-02-14T11:51:11+01:00*
G04 #@! TF.ProjectId,Lab_1,4c61625f-312e-46b6-9963-61645f706362,rev?*
G04 #@! TF.SameCoordinates,Original*
G04 #@! TF.FileFunction,Other,User*
%FSLAX46Y46*%
G04 Gerber Fmt 4.6, Leading zero omitted, Abs format (unit mm)*
G04 Created by KiCad (PCBNEW (5.1.5)-3) date 2020-02-14 11:51:11*
%MOMM*%
%LPD*%
G04 APERTURE LIST*
%ADD10C,0.050000*%
G04 APERTURE END LIST*
D10*
X88625000Y-104950000D02*
X84925000Y-104950000D01*
X88625000Y-103050000D02*
X88625000Y-104950000D01*
X84925000Y-103050000D02*
X88625000Y-103050000D01*
X84925000Y-104950000D02*
X84925000Y-103050000D01*
X73075000Y-103050000D02*
X76775000Y-103050000D01*
X73075000Y-104950000D02*
X73075000Y-103050000D01*
X76775000Y-104950000D02*
X73075000Y-104950000D01*
X76775000Y-103050000D02*
X76775000Y-104950000D01*
X89350000Y-96850000D02*
X89350000Y-100550000D01*
X87450000Y-96850000D02*
X89350000Y-96850000D01*
X87450000Y-100550000D02*
X87450000Y-96850000D01*
X89350000Y-100550000D02*
X87450000Y-100550000D01*
X84625000Y-104950000D02*
X80925000Y-104950000D01*
X84625000Y-103050000D02*
X84625000Y-104950000D01*
X80925000Y-103050000D02*
X84625000Y-103050000D01*
X80925000Y-104950000D02*
X80925000Y-103050000D01*
X76975000Y-103050000D02*
X80675000Y-103050000D01*
X76975000Y-104950000D02*
X76975000Y-103050000D01*
X80675000Y-104950000D02*
X76975000Y-104950000D01*
X80675000Y-103050000D02*
X80675000Y-104950000D01*
X64975000Y-138900000D02*
X74975000Y-138900000D01*
X64975000Y-145400000D02*
X74975000Y-145400000D01*
X64975000Y-138900000D02*
X64975000Y-145400000D01*
X74975000Y-145400000D02*
X74975000Y-138900000D01*
X74950000Y-134725000D02*
X74950000Y-138425000D01*
X73050000Y-134725000D02*
X74950000Y-134725000D01*
X73050000Y-138425000D02*
X73050000Y-134725000D01*
X74950000Y-138425000D02*
X73050000Y-138425000D01*
X72850000Y-138450000D02*
X69150000Y-138450000D01*
X72850000Y-136550000D02*
X72850000Y-138450000D01*
X69150000Y-136550000D02*
X72850000Y-136550000D01*
X69150000Y-138450000D02*
X69150000Y-136550000D01*
X99050000Y-97050000D02*
X100950000Y-97050000D01*
X100950000Y-97050000D02*
X100950000Y-100750000D01*
X100950000Y-100750000D02*
X99050000Y-100750000D01*
X99050000Y-100750000D02*
X99050000Y-97050000D01*
X153050000Y-128125000D02*
X153050000Y-131825000D01*
X151150000Y-128125000D02*
X153050000Y-128125000D01*
X151150000Y-131825000D02*
X151150000Y-128125000D01*
X153050000Y-131825000D02*
X151150000Y-131825000D01*
X110650000Y-104850000D02*
X110650000Y-101150000D01*
X112550000Y-104850000D02*
X110650000Y-104850000D01*
X112550000Y-101150000D02*
X112550000Y-104850000D01*
X110650000Y-101150000D02*
X112550000Y-101150000D01*
X83275000Y-136350000D02*
X83275000Y-138250000D01*
X83275000Y-138250000D02*
X79575000Y-138250000D01*
X79575000Y-138250000D02*
X79575000Y-136350000D01*
X79575000Y-136350000D02*
X83275000Y-136350000D01*
X62450000Y-122550000D02*
X64350000Y-122550000D01*
X64350000Y-122550000D02*
X64350000Y-126250000D01*
X64350000Y-126250000D02*
X62450000Y-126250000D01*
X62450000Y-126250000D02*
X62450000Y-122550000D01*
X95575000Y-136550000D02*
X91875000Y-136550000D01*
X95575000Y-134650000D02*
X95575000Y-136550000D01*
X91875000Y-134650000D02*
X95575000Y-134650000D01*
X91875000Y-136550000D02*
X91875000Y-134650000D01*
X91550000Y-138525000D02*
X89650000Y-138525000D01*
X89650000Y-138525000D02*
X89650000Y-134825000D01*
X89650000Y-134825000D02*
X91550000Y-134825000D01*
X91550000Y-134825000D02*
X91550000Y-138525000D01*
X91825000Y-136750000D02*
X95525000Y-136750000D01*
X91825000Y-138650000D02*
X91825000Y-136750000D01*
X95525000Y-138650000D02*
X91825000Y-138650000D01*
X95525000Y-136750000D02*
X95525000Y-138650000D01*
X126625000Y-106350000D02*
X126625000Y-104450000D01*
X126625000Y-104450000D02*
X130325000Y-104450000D01*
X130325000Y-104450000D02*
X130325000Y-106350000D01*
X130325000Y-106350000D02*
X126625000Y-106350000D01*
X120100000Y-100650000D02*
X113100000Y-100650000D01*
X113100000Y-100650000D02*
X113100000Y-97150000D01*
X113100000Y-97150000D02*
X120100000Y-97150000D01*
X120100000Y-97150000D02*
X120100000Y-100650000D01*
X101380000Y-103170000D02*
X108180000Y-103170000D01*
X108180000Y-103170000D02*
X108180000Y-97090000D01*
X108180000Y-97090000D02*
X101380000Y-97090000D01*
X101380000Y-97090000D02*
X101380000Y-103170000D01*
X145900000Y-111900000D02*
X145900000Y-135800000D01*
X145900000Y-135800000D02*
X149500000Y-135800000D01*
X149500000Y-135800000D02*
X149500000Y-111900000D01*
X149500000Y-111900000D02*
X145900000Y-111900000D01*
X64900000Y-110500000D02*
X64900000Y-129350000D01*
X64900000Y-129350000D02*
X68500000Y-129350000D01*
X68500000Y-129350000D02*
X68500000Y-110500000D01*
X68500000Y-110500000D02*
X64900000Y-110500000D01*
X94275000Y-143800000D02*
X94275000Y-138800000D01*
X94275000Y-138800000D02*
X89275000Y-138800000D01*
X89275000Y-138800000D02*
X89275000Y-143800000D01*
X89275000Y-143800000D02*
X94275000Y-143800000D01*
X90450000Y-97125000D02*
X92350000Y-97125000D01*
X92350000Y-97125000D02*
X92350000Y-100825000D01*
X92350000Y-100825000D02*
X90450000Y-100825000D01*
X90450000Y-100825000D02*
X90450000Y-97125000D01*
X92725000Y-102750000D02*
X92725000Y-100850000D01*
X92725000Y-100850000D02*
X96425000Y-100850000D01*
X96425000Y-100850000D02*
X96425000Y-102750000D01*
X96425000Y-102750000D02*
X92725000Y-102750000D01*
X141150000Y-100525000D02*
X143050000Y-100525000D01*
X143050000Y-100525000D02*
X143050000Y-104225000D01*
X143050000Y-104225000D02*
X141150000Y-104225000D01*
X141150000Y-104225000D02*
X141150000Y-100525000D01*
X86150000Y-134875000D02*
X86150000Y-138575000D01*
X84250000Y-134875000D02*
X86150000Y-134875000D01*
X84250000Y-138575000D02*
X84250000Y-134875000D01*
X86150000Y-138575000D02*
X84250000Y-138575000D01*
X61075000Y-116550000D02*
X64775000Y-116550000D01*
X61075000Y-118450000D02*
X61075000Y-116550000D01*
X64775000Y-118450000D02*
X61075000Y-118450000D01*
X64775000Y-116550000D02*
X64775000Y-118450000D01*
X85975000Y-145400000D02*
X85975000Y-138900000D01*
X75975000Y-138900000D02*
X75975000Y-145400000D01*
X75975000Y-145400000D02*
X85975000Y-145400000D01*
X75975000Y-138900000D02*
X85975000Y-138900000D01*
X97395000Y-140575000D02*
X97395000Y-145975000D01*
X97395000Y-145975000D02*
X104795000Y-145975000D01*
X104795000Y-145975000D02*
X104795000Y-140575000D01*
X104795000Y-140575000D02*
X97395000Y-140575000D01*
X109850000Y-97750000D02*
X112350000Y-97750000D01*
X109850000Y-97750000D02*
X109850000Y-100250000D01*
X112350000Y-100250000D02*
X112350000Y-97750000D01*
X112350000Y-100250000D02*
X109850000Y-100250000D01*
X82650000Y-102750000D02*
X82650000Y-96830000D01*
X82650000Y-102750000D02*
X86050000Y-102750000D01*
X86050000Y-96830000D02*
X82650000Y-96830000D01*
X86050000Y-96830000D02*
X86050000Y-102750000D01*
X129700000Y-97200000D02*
X129700000Y-101000000D01*
X129700000Y-101000000D02*
X126100000Y-101000000D01*
X126100000Y-101000000D02*
X126100000Y-97200000D01*
X126100000Y-97200000D02*
X129700000Y-97200000D01*
X98660000Y-100600000D02*
X92740000Y-100600000D01*
X98660000Y-100600000D02*
X98660000Y-97200000D01*
X92740000Y-97200000D02*
X92740000Y-100600000D01*
X92740000Y-97200000D02*
X98660000Y-97200000D01*
X144875000Y-140850000D02*
X144875000Y-142750000D01*
X144875000Y-142750000D02*
X141175000Y-142750000D01*
X141175000Y-142750000D02*
X141175000Y-140850000D01*
X141175000Y-140850000D02*
X144875000Y-140850000D01*
X106850000Y-112850000D02*
X103150000Y-112850000D01*
X106850000Y-110950000D02*
X106850000Y-112850000D01*
X103150000Y-110950000D02*
X106850000Y-110950000D01*
X103150000Y-112850000D02*
X103150000Y-110950000D01*
X106825000Y-110650000D02*
X103125000Y-110650000D01*
X106825000Y-108750000D02*
X106825000Y-110650000D01*
X103125000Y-108750000D02*
X106825000Y-108750000D01*
X103125000Y-110650000D02*
X103125000Y-108750000D01*
X102750000Y-112825000D02*
X100850000Y-112825000D01*
X100850000Y-112825000D02*
X100850000Y-109125000D01*
X100850000Y-109125000D02*
X102750000Y-109125000D01*
X102750000Y-109125000D02*
X102750000Y-112825000D01*
X100550000Y-109125000D02*
X100550000Y-112825000D01*
X98650000Y-109125000D02*
X100550000Y-109125000D01*
X98650000Y-112825000D02*
X98650000Y-109125000D01*
X100550000Y-112825000D02*
X98650000Y-112825000D01*
X98450000Y-112775000D02*
X96550000Y-112775000D01*
X96550000Y-112775000D02*
X96550000Y-109075000D01*
X96550000Y-109075000D02*
X98450000Y-109075000D01*
X98450000Y-109075000D02*
X98450000Y-112775000D01*
X100075000Y-134450000D02*
X103775000Y-134450000D01*
X100075000Y-136350000D02*
X100075000Y-134450000D01*
X103775000Y-136350000D02*
X100075000Y-136350000D01*
X103775000Y-134450000D02*
X103775000Y-136350000D01*
X71950000Y-96850000D02*
X73850000Y-96850000D01*
X73850000Y-96850000D02*
X73850000Y-100550000D01*
X73850000Y-100550000D02*
X71950000Y-100550000D01*
X71950000Y-100550000D02*
X71950000Y-96850000D01*
X77550000Y-102550000D02*
X77550000Y-101600000D01*
X75450000Y-102550000D02*
X77550000Y-102550000D01*
X75450000Y-101600000D02*
X75450000Y-102550000D01*
X77550000Y-101600000D02*
X77750000Y-101600000D01*
X75250000Y-101600000D02*
X75450000Y-101600000D01*
X75250000Y-101600000D02*
X74100000Y-100450000D01*
X77750000Y-101600000D02*
X78900000Y-100450000D01*
X74100000Y-100450000D02*
X74100000Y-96800000D01*
X78900000Y-100450000D02*
X78900000Y-96800000D01*
X77550000Y-96800000D02*
X78900000Y-96800000D01*
X77550000Y-95850000D02*
X77550000Y-96800000D01*
X75450000Y-95850000D02*
X77550000Y-95850000D01*
X75450000Y-96800000D02*
X75450000Y-95850000D01*
X74100000Y-96800000D02*
X75450000Y-96800000D01*
X81050000Y-100475000D02*
X79150000Y-100475000D01*
X79150000Y-100475000D02*
X79150000Y-96775000D01*
X79150000Y-96775000D02*
X81050000Y-96775000D01*
X81050000Y-96775000D02*
X81050000Y-100475000D01*
X137450000Y-99750000D02*
X133750000Y-99750000D01*
X137450000Y-97850000D02*
X137450000Y-99750000D01*
X133750000Y-97850000D02*
X137450000Y-97850000D01*
X133750000Y-99750000D02*
X133750000Y-97850000D01*
X138200000Y-101600000D02*
X138200000Y-102950000D01*
X138200000Y-102950000D02*
X139150000Y-102950000D01*
X139150000Y-102950000D02*
X139150000Y-105050000D01*
X139150000Y-105050000D02*
X138200000Y-105050000D01*
X138200000Y-105050000D02*
X138200000Y-106400000D01*
X134550000Y-106400000D02*
X138200000Y-106400000D01*
X134550000Y-101600000D02*
X138200000Y-101600000D01*
X133400000Y-105250000D02*
X134550000Y-106400000D01*
X133400000Y-102750000D02*
X134550000Y-101600000D01*
X133400000Y-102750000D02*
X133400000Y-102950000D01*
X133400000Y-105050000D02*
X133400000Y-105250000D01*
X133400000Y-102950000D02*
X132450000Y-102950000D01*
X132450000Y-102950000D02*
X132450000Y-105050000D01*
X132450000Y-105050000D02*
X133400000Y-105050000D01*
X145600000Y-142900000D02*
X131850000Y-142900000D01*
X131850000Y-142900000D02*
X131850000Y-146500000D01*
X131850000Y-146500000D02*
X145600000Y-146500000D01*
X145600000Y-146500000D02*
X145600000Y-142900000D01*
X64597500Y-96900000D02*
X64597500Y-105700000D01*
X70697500Y-105700000D02*
X64597500Y-105700000D01*
X70697500Y-96900000D02*
X70697500Y-105700000D01*
X64597500Y-96900000D02*
X70697500Y-96900000D01*
X129750000Y-146625000D02*
X129750000Y-142925000D01*
X131650000Y-146625000D02*
X129750000Y-146625000D01*
X131650000Y-142925000D02*
X131650000Y-146625000D01*
X129750000Y-142925000D02*
X131650000Y-142925000D01*
X110350000Y-116325000D02*
X108450000Y-116325000D01*
X108450000Y-116325000D02*
X108450000Y-112625000D01*
X108450000Y-112625000D02*
X110350000Y-112625000D01*
X110350000Y-112625000D02*
X110350000Y-116325000D01*
X95700000Y-115170000D02*
X95700000Y-128170000D01*
X95700000Y-115160000D02*
X107800000Y-115160000D01*
X107800000Y-115170000D02*
X107800000Y-128170000D01*
X107800000Y-128170000D02*
X95700000Y-128170000D01*
M02*
