G04 #@! TF.GenerationSoftware,KiCad,Pcbnew,(5.1.5)-3*
G04 #@! TF.CreationDate,2020-02-14T11:51:11+01:00*
G04 #@! TF.ProjectId,Lab_1,4c61625f-312e-46b6-9963-61645f706362,rev?*
G04 #@! TF.SameCoordinates,Original*
G04 #@! TF.FileFunction,OtherDrawing,Comment*
%FSLAX46Y46*%
G04 Gerber Fmt 4.6, Leading zero omitted, Abs format (unit mm)*
G04 Created by KiCad (PCBNEW (5.1.5)-3) date 2020-02-14 11:51:11*
%MOMM*%
%LPD*%
G04 APERTURE LIST*
%ADD10C,0.080000*%
G04 APERTURE END LIST*
D10*
X65776190Y-103014285D02*
X65276190Y-103014285D01*
X65276190Y-102823809D01*
X65300000Y-102776190D01*
X65323809Y-102752380D01*
X65371428Y-102728571D01*
X65442857Y-102728571D01*
X65490476Y-102752380D01*
X65514285Y-102776190D01*
X65538095Y-102823809D01*
X65538095Y-103014285D01*
X65728571Y-102228571D02*
X65752380Y-102252380D01*
X65776190Y-102323809D01*
X65776190Y-102371428D01*
X65752380Y-102442857D01*
X65704761Y-102490476D01*
X65657142Y-102514285D01*
X65561904Y-102538095D01*
X65490476Y-102538095D01*
X65395238Y-102514285D01*
X65347619Y-102490476D01*
X65300000Y-102442857D01*
X65276190Y-102371428D01*
X65276190Y-102323809D01*
X65300000Y-102252380D01*
X65323809Y-102228571D01*
X65514285Y-101847619D02*
X65538095Y-101776190D01*
X65561904Y-101752380D01*
X65609523Y-101728571D01*
X65680952Y-101728571D01*
X65728571Y-101752380D01*
X65752380Y-101776190D01*
X65776190Y-101823809D01*
X65776190Y-102014285D01*
X65276190Y-102014285D01*
X65276190Y-101847619D01*
X65300000Y-101800000D01*
X65323809Y-101776190D01*
X65371428Y-101752380D01*
X65419047Y-101752380D01*
X65466666Y-101776190D01*
X65490476Y-101800000D01*
X65514285Y-101847619D01*
X65514285Y-102014285D01*
X65514285Y-101133333D02*
X65514285Y-100966666D01*
X65776190Y-100895238D02*
X65776190Y-101133333D01*
X65276190Y-101133333D01*
X65276190Y-100895238D01*
X65776190Y-100466666D02*
X65276190Y-100466666D01*
X65752380Y-100466666D02*
X65776190Y-100514285D01*
X65776190Y-100609523D01*
X65752380Y-100657142D01*
X65728571Y-100680952D01*
X65680952Y-100704761D01*
X65538095Y-100704761D01*
X65490476Y-100680952D01*
X65466666Y-100657142D01*
X65442857Y-100609523D01*
X65442857Y-100514285D01*
X65466666Y-100466666D01*
X65442857Y-100014285D02*
X65847619Y-100014285D01*
X65895238Y-100038095D01*
X65919047Y-100061904D01*
X65942857Y-100109523D01*
X65942857Y-100180952D01*
X65919047Y-100228571D01*
X65752380Y-100014285D02*
X65776190Y-100061904D01*
X65776190Y-100157142D01*
X65752380Y-100204761D01*
X65728571Y-100228571D01*
X65680952Y-100252380D01*
X65538095Y-100252380D01*
X65490476Y-100228571D01*
X65466666Y-100204761D01*
X65442857Y-100157142D01*
X65442857Y-100061904D01*
X65466666Y-100014285D01*
X65752380Y-99585714D02*
X65776190Y-99633333D01*
X65776190Y-99728571D01*
X65752380Y-99776190D01*
X65704761Y-99800000D01*
X65514285Y-99800000D01*
X65466666Y-99776190D01*
X65442857Y-99728571D01*
X65442857Y-99633333D01*
X65466666Y-99585714D01*
X65514285Y-99561904D01*
X65561904Y-99561904D01*
X65609523Y-99800000D01*
M02*
